<?xml version="1.0" encoding="UTF-8" standalone="no"?>
<svg
   xmlns:dc="http://purl.org/dc/elements/1.1/"
   xmlns:cc="http://creativecommons.org/ns#"
   xmlns:rdf="http://www.w3.org/1999/02/22-rdf-syntax-ns#"
   xmlns:svg="http://www.w3.org/2000/svg"
   xmlns="http://www.w3.org/2000/svg"
   version="1.1"
   id="svg2"
   viewBox="0 0 786.76026 780.83872"
   height="220.37004mm"
   width="222.04123mm">
  <defs
     id="defs4" />
  <metadata
     id="metadata7">
    <rdf:RDF>
      <cc:Work
         rdf:about="">
        <dc:format>image/svg+xml</dc:format>
        <dc:type
           rdf:resource="http://purl.org/dc/dcmitype/StillImage" />
        <dc:title></dc:title>
      </cc:Work>
    </rdf:RDF>
  </metadata>
  <g
     transform="translate(8.0804962,-62.194943)"
     id="layer1">
    <path
       id="path3401"
       d="m 370.35711,842.57274 c -5.2379,-1.92811 -8.5984,-11.63911 -4.0278,-11.63911 1.2222,0 3.2294,1.17633 4.4605,2.61406 2.6795,3.12946 7.3234,2.43908 11.9007,-1.76922 3.8573,-3.54637 28.3218,-37.98159 47.2494,-66.5062 13.5292,-20.38914 21.1143,-34.78539 23.6284,-44.84633 l 0.9078,-3.6327 -5.7551,0.78883 c -5.9152,0.81076 -7.6441,-0.0621 -6.4235,-3.24292 0.4441,-1.15738 3.2475,-2.08317 7.6994,-2.54265 3.8505,-0.39741 7.4669,-1.45726 8.0365,-2.35522 1.998,-3.15028 1.0938,-4.75765 -2.6763,-4.75765 -3.9228,0 -5.0803,-2.44375 -2.1875,-4.61857 0.8594,-0.64609 8.6167,-2.68652 17.2384,-4.53429 32.3601,-6.93533 50.754,-18.73534 60.6026,-38.8777 4.5704,-9.34726 7.8082,-24.21764 6.4507,-29.62619 -0.4444,-1.77087 -2.9278,-5.59639 -5.5186,-8.50112 l -4.7106,-5.28137 -9.8627,8.21962 c -8.6601,7.21734 -13.2623,9.82427 -13.2623,7.51245 0,-2.23978 3.4975,-6.90518 9.1686,-12.23024 l 6.4564,-6.06241 -10,6.74466 c -16.1347,10.88229 -34.6321,18.14164 -58.2657,22.86652 -19.8751,3.97344 -40.5403,9.57714 -60.289,16.34829 -19.0688,6.53804 -28.52,8.25104 -30.2328,5.47965 -0.5537,-0.896 -1.3681,-0.84757 -2.5738,0.15306 -2.4145,2.00392 -2.2308,-0.005 0.2514,-2.74716 1.3645,-1.50769 3.0929,-2.01111 5.353,-1.55909 2.227,0.4454 9.7728,-1.66401 22.6724,-6.33795 20.3211,-7.36299 39.4678,-12.63425 64.1667,-17.66562 8.1576,-1.66179 18.2826,-4.09926 22.5,-5.41661 9.0286,-2.82025 19.5905,-7.40133 17.3553,-7.52763 -2.365,-0.13365 -1.9817,-2.56771 3.3267,-21.12315 5.004,-17.49162 6.518,-27.96506 8.8846,-61.46515 1.55,-21.93988 4.7212,-58.85853 5.6101,-65.3125 0.6343,-4.60521 0.5728,-4.6875 -3.5052,-4.6875 -2.283,0 -5.2427,-0.83306 -6.5773,-1.85125 -2.1001,-1.60235 -2.1743,-2.01993 -0.5514,-3.10585 1.0313,-0.69004 4.188,-1.26324 7.0149,-1.27376 l 5.1399,-0.0191 0.851,-8.4375 c 0.4681,-4.64062 3.3583,-21.12306 6.4227,-36.62765 3.0643,-15.50459 5.5715,-28.86396 5.5715,-29.68751 0,-1.02678 -2.8757,-1.49735 -9.1506,-1.49735 l -9.1505,0 -4.5819,26.5625 c -5.1239,29.70476 -6.3853,40.13407 -8.353,69.0625 -2.5856,38.01152 -8.3381,76.72772 -15.415,103.74854 -1.6955,6.47328 -5.0204,8.96626 -6.3486,4.76005 -1.5972,-5.05818 -1.1711,-14.48448 0.7175,-15.87229 4.0158,-2.95091 10.2223,-45.7009 14.175,-97.6363 2.6171,-34.38587 4.5723,-48.68103 13.0794,-95.625 7.623,-42.06565 10.0746,-65.15133 9.6239,-90.625 l -0.2212,-12.5 6.7418,-8.63271 c 4.073,-5.21532 7.3133,-10.8726 8.1853,-14.29091 1.7138,-6.71801 3.3717,-7.67296 5.7161,-3.29239 l 1.7213,3.21629 1.6702,-3.18764 c 2.0132,-3.84233 2.8838,-3.94782 5.6753,-0.68764 1.1773,1.375 3.1839,2.5 4.4591,2.5 1.2751,0 3.3024,1.08723 4.505,2.41605 4.9413,5.46014 -2.4083,17.02971 -14.104,22.20211 -4.3986,1.94527 -6.4629,3.53236 -6.0373,4.64162 0.3558,0.92707 0.1437,2.1888 -0.4714,2.80383 -1.6617,1.6617 -7.7468,29.50453 -14.214,65.0367 -3.1473,17.29206 -5.7224,31.83199 -5.7224,32.31095 0,1.03965 17.0318,0.2236 18.1238,-0.86836 1.5827,-1.58272 14.3636,-87.73287 14.3724,-96.87816 0,-5.35241 1.1307,-7.91474 3.4766,-7.91474 1.0755,0 2.8803,-0.83707 4.0108,-1.86015 1.1305,-1.02309 3.8467,-2.2184 6.036,-2.65625 3.0983,-0.61966 3.9804,-0.36859 3.9804,1.13291 0,3.73175 -1.545,5.88349 -4.2244,5.88349 -4.5334,0 -6.6294,6.52591 -9.4347,29.375 -1.4349,11.6875 -3.906,29.75005 -5.4913,40.13901 l -2.8824,18.88902 9.4539,2.36098 c 8.3452,2.0841 13.6912,2.32609 45.5849,2.06338 19.872,-0.16369 36.3631,-0.52983 36.647,-0.81365 0.2838,-0.28383 -5.8236,-8.5874 -13.5721,-18.45239 -7.7485,-9.865 -17.2389,-22.1551 -21.0898,-27.31135 -3.851,-5.15625 -12.2147,-16.31901 -18.5861,-24.80614 -6.3714,-8.48712 -11.2763,-15.73915 -10.8999,-16.11562 1.3227,-1.32263 5.0567,2.98612 20.8396,24.04676 8.7587,11.6875 20.6173,26.62296 26.3526,33.18991 5.7352,6.56695 13.4911,15.98883 17.2353,20.9375 5.5202,7.29604 7.4516,8.99759 10.2132,8.99759 2.711,0 3.5493,-0.70105 4.1102,-3.4375 0.869,-4.23946 5.2533,-39.23584 6.303,-50.3125 1.4058,-14.83316 3.361,-23.75 5.2076,-23.75 0.9905,0 1.7334,1.27014 1.7334,2.96339 0,5.36302 -3.8377,39.84002 -6.3353,56.91453 -1.3477,9.21412 -2.1986,17.00482 -1.8907,17.31268 1.3241,1.32417 3.226,-1.36466 3.226,-4.56091 0,-8.24398 11.1817,-60.96038 16.4021,-77.3287 1.3743,-4.30885 3.5979,-4.38635 3.5979,-0.12539 0,1.39042 -3.3281,17.81035 -7.3959,36.48872 -4.0678,18.67838 -7.7768,36.9138 -8.2423,40.52318 -0.7646,5.92851 -0.6149,6.5625 1.5495,6.5625 1.3178,0 7.1362,-3.47664 12.9298,-7.72586 28.2105,-20.69038 90.3469,-58.52414 96.1174,-58.52414 3.7193,0 -0.3829,3.1026 -16.521,12.49507 -23.4103,13.62499 -52.0698,31.84197 -68.6546,43.63925 l -13.3422,9.49068 5.2172,0.6912 c 6.3067,0.83556 6.3731,0.79879 26.7004,-14.77721 8.7309,-6.69019 16.3795,-12.00629 16.9969,-11.81354 0.6174,0.19275 5.0754,-2.3385 9.9066,-5.625 4.8312,-3.2865 10.2644,-6.91518 12.0737,-8.06373 4.1558,-2.63821 15.1645,-4.40128 15.1645,-2.42865 0,0.76557 -0.5672,1.39193 -1.2606,1.39193 -0.7933,0 -0.7391,0.83504 0.1464,2.25281 1.1199,1.7933 0.7661,3.51729 -1.7345,8.45193 l -3.1413,6.19911 2.9888,3.73557 c 4.5132,5.64088 3.9848,7.24649 -2.0494,6.22703 -3.452,-0.58321 -6.3203,-0.25661 -9.0625,1.03193 -2.5999,1.22174 -6.5564,1.72814 -11.242,1.43892 -4.1991,-0.25921 -9.3307,0.29481 -12.2408,1.32155 -4.3233,1.52536 -5.104,1.52456 -5.6913,-0.006 -0.3743,-0.9755 0.3232,-3.47295 1.5501,-5.5499 4.2336,-7.16695 0.5675,-5.35586 -12.737,6.29221 l -13.3491,11.6871 11.5885,1.55228 c 6.3736,0.85375 11.8838,1.84769 12.2449,2.20875 1.6665,1.66647 -1.5476,1.76182 -14.3315,0.42517 -12.0459,-1.25951 -14.1304,-1.19425 -16.5763,0.51894 -2.7751,1.94371 -2.7589,1.96544 1.9874,2.67609 2.6319,0.39406 18.8477,2.19541 36.0352,4.003 17.1875,1.8076 31.4844,3.5108 31.7709,3.78491 1.7346,1.65986 -4.1443,1.4243 -34.3716,-1.37724 -40.5584,-3.75906 -43.1571,-3.80476 -46.8386,-0.82365 l -2.8413,2.30073 8.0153,1.01299 c 4.4084,0.55715 21.9139,1.12936 38.9011,1.27158 26.4184,0.22119 31.3452,0.55967 34.0625,2.3401 1.8336,1.20142 3.1741,3.25846 3.1705,4.86518 -0.01,2.73057 -0.06,2.72103 -2.8125,-0.49973 -1.5434,-1.80587 -3.8662,-3.64532 -5.1616,-4.08766 -2.6855,-0.91701 -11.0023,0.35674 -10.2552,1.57064 0.271,0.44023 -16.5545,0.80043 -37.3898,0.80043 -24.8935,0 -37.6398,0.42859 -37.1747,1.25 1.2303,2.17267 22.872,31.89983 34.4408,47.308 7.4457,9.91668 10.7035,15.22278 9.8625,16.06369 -1.45,1.45006 -12.1088,-11.62699 -34.0238,-41.74314 -7.853,-10.7918 -14.4451,-19.45458 -14.649,-19.25065 -0.204,0.20395 -0.9222,6.7836 -1.596,14.62147 -2.4231,28.18537 -3.795,43.10241 -4.5009,48.93813 l -0.7182,5.9375 5.6581,0 c 6.6061,0 6.5159,0.16345 8.1725,-14.81276 1.1634,-10.51776 2.5037,-13.70022 5.0953,-12.09851 0.9275,0.5732 1.171,3.50546 0.7124,8.57857 -0.7558,8.36192 0.6171,7.20793 3.099,-2.6048 0.7467,-2.95223 2.091,-5.3125 3.0257,-5.3125 2.0184,0 8.2216,16.08722 8.2216,21.32152 0,5.59486 -2.1398,4.40303 -4.617,-2.57152 -1.2209,-3.4375 -2.6158,-6.25 -3.0998,-6.25 -0.484,0 -1.2679,2.58712 -1.7421,5.74914 -0.829,5.52808 -1.0002,5.72154 -4.4516,5.03125 -2.6818,-0.53587 -3.5895,-0.24125 -3.5895,1.16556 0,2.40637 -0.3732,2.31519 22.5,5.49607 10.6563,1.48191 21.2086,3.0097 23.4497,3.39508 l 4.0746,0.70069 -4.3871,-6.51926 c -4.2742,-6.35133 -5.4874,-10.01805 -3.3148,-10.01805 0.5897,0 3.1542,3.37304 5.6989,7.49565 l 4.6265,7.49564 11.4886,-0.77257 c 6.3188,-0.4249 13.4574,-0.84482 15.8636,-0.93313 4.3522,-0.15975 4.3861,-0.2063 6.5031,-8.91059 2.9884,-12.28764 19.3519,-110.6264 21.4307,-128.79112 1.8251,-15.94749 3.9172,-21.78195 9.0063,-25.11643 4.2872,-2.80911 5.0987,-1.41935 2.0608,3.5293 -2.8083,4.57462 -5.2509,15.97646 -5.2509,24.51079 0,6.13208 -13.3071,90.22956 -18.3342,115.86746 -1.7524,8.9375 -4.391,18.4594 -5.8635,21.15977 l -2.6773,4.90978 -9.375,0.19965 c -5.1562,0.10975 -12.0611,1.13294 -15.3441,2.27362 -5.6409,1.95994 -6.5688,1.94247 -16.875,-0.31776 -5.9982,-1.31545 -18.7003,-3.38637 -28.2268,-4.60205 -16.2244,-2.07037 -17.3956,-2.07697 -18.4996,-0.10412 -1.4557,2.60106 -3.5545,2.75161 -3.5545,0.25496 0,-2.08428 -4.5061,-3.56686 -8.9353,-2.93991 -2.2953,0.3249 -3.0255,1.30653 -3.3314,4.4786 -0.5155,5.34701 -2.7333,5.25202 -2.7333,-0.11713 l 0,-4.17957 -21.5336,-0.84655 c -27.0371,-1.06292 -41.9471,-2.61892 -57.8414,-6.03629 -11.9487,-2.56905 -40.5494,-4.0002 -42.4267,-2.12297 -0.9959,0.99597 -4.0278,33.05606 -6.3706,67.36497 -2.8018,41.03205 -5.2422,56.99044 -11.2705,73.70241 -1.7892,4.96006 -2.9894,9.28198 -2.6672,9.60425 0.3223,0.32228 7.4661,-3.95996 15.8752,-9.51607 13.4545,-8.88975 15.4661,-9.8603 16.7623,-8.0876 1.3067,1.78698 2.1716,1.46464 7.6603,-2.85483 12.2172,-9.61472 31.8122,-21.75191 31.8122,-19.70458 0,0.38191 1.1408,0.0839 2.535,-0.66232 3.5014,-1.87388 2.3326,-3.13705 -7.4713,-8.0742 -6.0123,-3.02773 -13.9428,-5.407 -27.0945,-8.1287 -10.2268,-2.1164 -19.5785,-4.15148 -20.7817,-4.52241 -2.5974,-0.80081 -2.9284,-5.3001 -0.4595,-6.24749 1.7806,-0.6833 27.6654,4.38188 39.0895,7.64908 6.7083,1.91855 19.431,8.60625 26.2866,13.81769 2.1885,1.66362 4.5792,3.02477 5.3125,3.02477 0.7334,0 1.3334,0.73125 1.3334,1.625 0,4.32179 -7.0797,6.26871 -10,2.75 -1.9775,-2.38273 -3.75,-2.40764 -3.75,-0.0526 0,1.00227 -2.6718,3.36024 -5.9375,5.23993 -16.2322,9.34328 -34.0625,22.3937 -34.0625,24.93124 0,0.86629 1.2734,2.60027 2.8297,3.8533 6.3463,5.10949 8.4211,9.18651 8.4019,16.5093 -0.068,25.80306 -14.9274,48.32344 -39.9816,60.59429 -6.5396,3.20293 -17.07,7.06951 -23.4375,8.60587 -8.9756,2.16564 -11.5625,3.26697 -11.5625,4.92263 0,1.88222 0.8245,1.75536 7.017,-1.07964 5.5999,-2.56374 7.224,-2.87735 8.0425,-1.55303 1.4882,2.40792 0.5797,3.29515 -7.6035,7.42602 -4.049,2.04393 -8.0048,4.91756 -8.7906,6.38583 -1.3549,2.53171 -1.2121,2.62969 2.7655,1.89731 10.4081,-1.91645 24.481,-3.19961 43.2566,-3.94413 18.0072,-0.71404 20.3125,-0.58164 20.3125,1.16666 0,1.63562 -1.7468,1.97211 -10.2378,1.97211 -5.6308,0 -19.4492,1.48818 -30.7074,3.30705 l -20.4697,3.30704 0.3705,5.13046 c 0.4995,6.91876 -2.9452,7.24063 -4.0604,0.37939 -1.3343,-8.20866 -3.1274,-7.98003 -4.8877,0.62322 -0.8865,4.33282 -2.0641,8.38175 -2.617,8.99763 -0.5528,0.61589 -0.684,2.72526 -0.2915,4.6875 0.6056,3.02819 0.3118,3.56771 -1.9427,3.56771 -1.461,0 -2.7266,-0.5625 -2.8125,-1.25 -0.086,-0.6875 -0.2969,-1.8125 -0.4688,-2.5 -0.1718,-0.6875 -0.3976,-2.23437 -0.5016,-3.4375 -0.104,-1.20312 -2.2854,1.75 -4.8475,6.5625 -7.5911,14.25884 -52.0934,78.66221 -60.7514,87.91915 -5.8494,6.25396 -14.6328,9.89561 -19.5245,8.09496 z m 269.1646,-377.57661 c 0.4052,-3.26563 1.2952,-13.8125 1.9778,-23.4375 3.007,-42.40069 3.0461,-41.32925 -1.382,-37.8125 -1.3543,1.07557 -3.7657,11.26834 -7.7382,32.70765 -5.4781,29.56541 -6.3154,33.10334 -7.5434,31.87532 -0.4709,-0.47095 6.9104,-49.15601 8.778,-57.89696 l 0.7749,-3.62649 -4.8283,2.99174 c -2.6556,1.64545 -18.3284,10.41638 -34.8284,19.49094 -16.5,9.07458 -34.8675,20.03656 -40.8167,24.35998 l -10.8166,7.86076 13.9416,2.76316 c 17.3876,3.44611 20.4611,3.62026 18.318,1.0379 -2.3444,-2.82476 5.5353,-11.69401 17.1822,-19.34011 10.1126,-6.63883 12.1079,-7.21924 15.629,-4.54633 2.8414,2.1569 2.7608,4.73588 -0.3379,10.80974 -2.9674,5.81664 -1.3194,6.59982 2.5254,1.2002 1.4687,-2.0625 3.4488,-3.75 4.4003,-3.75 1.4208,0 1.3574,1.00536 -0.3547,5.625 -1.1467,3.09375 -2.6666,5.64786 -3.3777,5.6758 -0.7111,0.028 -3.2404,1.71544 -5.6207,3.75 -2.3802,2.03456 -5.1927,3.79852 -6.25,3.91994 -3.5877,0.41198 15.5171,1.83667 27.6043,2.05852 l 12.0265,0.22074 0.7366,-5.9375 z m -43.397,2.73331 c -0.4124,-1.0748 0.1044,-3.60605 1.1484,-5.625 1.044,-2.01895 1.5879,-3.67081 1.2087,-3.67081 -0.3793,0 -3.5244,2.10937 -6.9891,4.6875 l -6.2994,4.6875 5.3944,0.74976 c 2.9669,0.41236 5.5952,0.83424 5.8407,0.9375 0.2454,0.10325 0.1087,-0.69165 -0.3037,-1.76645 z m -56.2343,-7.94311 c 8.1191,-3.68688 7.4967,-5.11071 -1.0921,-2.49876 -8.7189,2.6515 -14.211,2.992 -18.9848,1.177 -2.7711,-1.05357 -3.2064,-0.88388 -3.2064,1.25 0,2.23423 0.862,2.46645 9.0625,2.44161 6.1414,-0.0186 10.7252,-0.78248 14.2208,-2.36985 z m -2.9313,-5.21226 c 11.7371,-3.94039 25.3216,-11.45196 37.148,-20.54108 5.8438,-4.49117 19.478,-14.73849 30.2983,-22.77179 10.8203,-8.03331 19.2578,-14.97446 18.75,-15.42478 -0.5078,-0.45034 -6.267,-1.50094 -12.7983,-2.33469 -6.5312,-0.83375 -14.8835,-2.27623 -18.5606,-3.2055 -3.6772,-0.92929 -7.3334,-1.49426 -8.125,-1.2555 -5.0479,1.52243 -8.3144,1.78436 -8.3144,0.66671 0,-0.7006 0.9844,-1.29091 2.1875,-1.31182 1.9161,-0.0333 1.8774,-0.22247 -0.3125,-1.52482 -1.5824,-0.94111 -10.5808,-1.66517 -24.5179,-1.97285 l -22.0178,-0.48605 -0.7188,2.94837 c -1.3088,5.3693 -10.6448,54.08571 -11.5633,60.33906 -0.758,5.16058 -0.537,6.40755 1.3843,7.8125 3.2186,2.35351 8.1614,2.0834 17.1605,-0.93776 z m -12.0554,-20.51918 c -0.3966,-1.0333 2.2619,-7.95657 5.9077,-15.38504 3.6458,-7.42847 6.9708,-14.8145 7.3889,-16.41338 0.749,-2.86432 0.9497,-2.89693 13.646,-2.21774 24.3337,1.30171 33.2149,6.13245 18.894,10.27698 -3.992,1.15528 -10.4862,4.29818 -14.4315,6.98422 -3.9454,2.68604 -7.872,4.8837 -8.7259,4.8837 -0.8538,0 -4.4481,1.20019 -7.9873,2.66709 -4.7993,1.98919 -6.9448,3.7366 -8.4414,6.875 -2.1073,4.419 -5.0306,5.50832 -6.2505,2.32917 z m 24.1599,-21.0755 10.208,-5.45423 -7.7136,-0.8727 c -4.2425,-0.47999 -7.8064,-0.69745 -7.9197,-0.48327 -1.9126,3.61496 -5.6262,12.26444 -5.2656,12.26444 0.2656,0 5.0766,-2.45441 10.6909,-5.45424 z m 72.856,-3.69016 c 10.9703,-6.21736 13.4375,-8.14261 13.4375,-10.48564 0,-1.62186 -0.7584,-2.86996 -1.7439,-2.86996 -1.6895,0 -28.7911,19.16665 -36.3811,25.72926 -3.4881,3.01598 -3.2262,2.96307 3.75,-0.75778 4.125,-2.20012 13.5469,-7.42727 20.9375,-11.61588 z m 36.25,-21.34566 c 3.3854,-2.56983 2.6577,-3.25994 -3.4375,-3.25994 -4.7916,0 -5.625,0.37037 -5.625,2.5 0,1.90357 0.8201,2.49051 3.4375,2.46025 1.8907,-0.0219 4.4219,-0.787 5.625,-1.70031 z m -21.5625,-1.38494 c 0,-1.55651 -2.2825,-1.85824 -13.4375,-1.77631 -14.4733,0.10625 -15.1307,0.68309 -2.6269,2.30466 12.9349,1.67747 16.0644,1.57455 16.0644,-0.52835 z m -7.6461,-5.41456 c 3.882,-0.80613 4.0512,-1.02565 2.0622,-2.67635 -1.7809,-1.47802 -9.2109,-1.80807 -41.7289,-1.85364 -35.0866,-0.0491 -40.4498,-0.32263 -47.4087,-2.41723 -4.3156,-1.29897 -8.1366,-2.0718 -8.491,-1.71737 -0.3544,0.35441 -0.9644,2.61675 -1.3556,5.0274 l -0.7113,4.38302 6.7022,-1.80432 c 7.9205,-2.13228 24.0504,-1.49278 35.4522,1.40559 5.9198,1.5048 12.1091,1.7616 29.375,1.21878 12.0313,-0.37825 23.778,-1.08288 26.1039,-1.56588 z m 39.5211,-1.46044 c 2.2321,-2.46645 2.1833,-2.5 -3.6384,-2.5 -6.0533,0 -10.7366,1.65494 -10.7366,3.79398 0,0.66331 2.7254,1.20602 6.0563,1.20602 4.4688,0 6.6493,-0.65531 8.3187,-2.5 z m -22.1614,-1.01563 c 0.2721,-0.81641 -0.3959,-1.48437 -1.4844,-1.48437 -1.0885,0 -1.9792,0.89062 -1.9792,1.97916 0,2.20741 2.691,1.82299 3.4636,-0.49479 z m -8.4636,-1.48437 c 0,-0.6875 -0.5957,-1.25 -1.3237,-1.25 -0.7281,0 -0.9762,0.5625 -0.5513,1.25 0.4249,0.6875 1.0206,1.25 1.3238,1.25 0.3032,0 0.5512,-0.5625 0.5512,-1.25 z m 89.6875,-24.6449 c 2.5906,-0.43503 4.0625,-0.17004 4.0625,0.73135 0,0.77745 0.9897,1.41355 2.1993,1.41355 2.8962,0 5.4163,-4.05369 3.9552,-6.36185 -0.6139,-0.96973 -1.1248,-3.02878 -1.1353,-4.57565 -0.01,-1.54688 -0.3613,-2.8125 -0.7794,-2.8125 -1.0285,0 -16.7398,12.54512 -16.7398,13.36636 0,0.35811 0.9844,0.26183 2.1875,-0.21397 1.2032,-0.47579 4.0157,-1.17208 6.25,-1.54729 z m 16.5625,-11.6051 c 0.7359,-1.375 0.8682,-2.5 0.294,-2.5 -1.329,0 -4.044,2.68541 -4.044,4 0,1.9402 2.4288,0.96867 3.75,-1.5 z m -226.788,-43.45471 c -1.8134,-1.81342 -3.1951,2.14421 -3.0865,8.84098 l 0.1256,7.73873 1.7532,-8.01704 c 0.9643,-4.40937 1.5078,-8.26257 1.2077,-8.56267 z m 2.9997,-15.29529 c 0,-1.66666 -0.1346,-1.66666 -1.2117,0 -0.6664,1.03125 -1.2117,2.71875 -1.2117,3.75 0,1.66666 0.1346,1.66666 1.2117,0 0.6665,-1.03125 1.2117,-2.71875 1.2117,-3.75 z m -6.1736,-2.9619 c -0.8841,-0.88414 -1.2632,0.0644 -1.2088,3.0244 0.075,4.05214 0.1522,4.12991 1.2881,1.2881 0.8004,-2.00266 0.7737,-3.45955 -0.079,-4.3125 z M 530.92871,268.52 c 0.3956,-0.64 0.1475,-1.51695 -0.5512,-1.94877 -0.6987,-0.43183 -1.2704,0.0917 -1.2704,1.16362 0,2.19567 0.7501,2.51896 1.8216,0.78515 z m 9.9944,-8.93196 c -1.0037,-1.62401 -6.0325,-1.43791 -7.7575,0.28709 -1.003,1.00301 -1.0593,2.15554 -0.1851,3.78895 1.2174,2.27485 1.3707,2.26597 4.9562,-0.28708 2.0349,-1.449 3.3788,-3.15402 2.9864,-3.78896 z m -250.9616,569.54478 c -3.1368,-2.37799 -5.8218,-13.35213 -5.8395,-23.86749 -0.041,-24.14375 18.3473,-108.33894 31.9312,-146.2067 5.3202,-14.83096 12.9345,-31.30444 16.4184,-35.52095 2.946,-3.56536 6.8068,-2.90393 5.7881,0.99161 -0.3594,1.37423 0.1934,3.70753 1.2283,5.1851 1.7551,2.50584 1.9267,2.53209 2.5512,0.39038 0.3682,-1.26288 1.0557,-5.67114 1.5279,-9.79614 1.2857,-11.2317 4.992,-16.875 11.0829,-16.875 2.8357,0 2.4022,2.42586 -0.9965,5.5757 -3.416,3.16578 -4.491,9.34446 -5.6635,32.5493 -0.4357,8.62299 -1.2731,14.89343 -1.9698,14.74931 -1.3468,-0.27856 -4.2775,-11.61638 -4.3601,-16.86711 -0.029,-1.85229 -1.4209,-4.94604 -3.0927,-6.875 l -3.0398,-3.5072 -3.3696,7.5 c -13.9353,31.01731 -31.3523,96.51568 -38.6386,145.30427 -2.6112,17.48459 -2.5622,38.16679 0.1002,42.23005 1.9154,2.92325 1.6761,6.88585 -0.4107,6.80093 -0.5372,-0.0219 -1.9985,-0.81434 -3.2473,-1.76106 z m 246.6456,-7.3205 c 0,-0.89173 2.1094,-3.6358 4.6875,-6.09794 3.7058,-3.53909 6.5601,-4.88815 13.6288,-6.44169 11.4453,-2.51537 21.5324,-8.82465 25.7267,-16.09146 4.6214,-8.0068 9.0597,-23.60259 7.0673,-24.83396 -2.5836,-1.59673 -15.6509,-2.711 -21.0651,-1.79626 -3.9876,0.6737 -5.0452,0.46809 -5.0452,-0.98085 0,-3.17134 7.4589,-5.24458 17.7518,-4.93423 9.5307,0.28738 9.6573,0.24981 12.6947,-3.76851 3.7104,-4.90849 9.9468,-17.2664 12.052,-23.8816 1.8015,-5.66113 1.1757,-10.5074 -2.3824,-18.44831 l -2.5859,-5.77113 -5.5471,1.8262 c -4.3034,1.41671 -7.5395,1.56909 -14.433,0.67958 -9.2,-1.18714 -14.7282,-0.0501 -25.2312,5.18947 -4.8414,2.41519 -7.3189,2.5136 -7.3189,0.29074 0,-2.44489 3.5184,-5.25145 10.625,-8.47533 5.3128,-2.41013 8.4361,-2.84527 20.8287,-2.90185 13.0981,-0.0598 14.9655,-0.3522 18.3869,-2.87906 2.0945,-1.54687 4.2036,-2.8125 4.6869,-2.8125 0.4833,0 3.5615,-1.72155 6.8405,-3.82567 5.1501,-3.30485 6.4925,-5.10057 9.8603,-13.1905 2.2993,-5.52308 3.5816,-10.36354 3.1259,-11.79933 -0.5297,-1.66904 -0.1871,-2.4345 1.0897,-2.4345 2.4387,0 4.8963,-7.58442 3.8318,-11.8257 -0.6699,-2.66912 -0.3414,-3.45655 1.6606,-3.98007 2.0244,-0.52938 2.7981,-2.46265 4.0969,-10.23594 2.0784,-12.4397 2.953,-14.6502 6.7923,-17.16578 3.8728,-2.53758 5.6626,-1.39337 8.0206,5.12759 2.2263,6.15659 0.1893,8.47321 -3.9944,4.5428 l -2.9315,-2.75399 -2.199,12.20804 c -2.4321,13.50216 -2.4045,12.89651 -1.269,27.83305 0.7433,9.7772 0.5846,10.90705 -1.9894,14.15973 -2.4249,3.06432 -3.4582,3.45837 -7.7644,2.96096 l -4.9673,-0.57378 -3.0303,6.85208 c -2.6025,5.88482 -3.4217,6.75692 -5.803,6.17799 -1.6849,-0.4096 -3.8712,0.22868 -5.5723,1.62681 l -2.7995,2.30089 3.4171,7.31016 c 5.8975,12.6164 4.7697,21.69185 -5.4373,43.75586 -2.2761,4.92014 -6.0984,14.57689 -8.4941,21.45945 -2.3956,6.88255 -5.4751,14.70786 -6.8432,17.38956 -5.2463,10.28359 -15.4224,16.39287 -30.7757,18.47619 -4.612,0.62583 -7.4563,1.9516 -10.9411,5.09989 -4.8384,4.37124 -8.4517,5.49685 -8.4517,2.6329 z m 93.7924,-146.08574 -0.9351,-4.16795 -1.4297,3.52165 c -0.7863,1.9369 -2.0163,4.6178 -2.7333,5.95754 -1.0809,2.0197 -0.8138,2.61887 1.5635,3.50681 2.3835,0.89024 3.0024,0.58832 3.6684,-1.78959 0.4407,-1.57327 0.3804,-4.73609 -0.1338,-7.02846 z m -97.5424,137.26013 c 0,-1.98788 -9.9886,-3.29092 -25.4958,-3.32598 -10.1176,-0.0229 -34.8041,-2.99238 -37.2032,-4.47513 -3.6418,-2.25077 3.0631,-2.69453 23.949,-1.58508 23.3191,1.23871 39.6943,3.09906 42.4906,4.82727 1.154,0.71325 1.1767,1.5748 0.095,3.59688 -1.5982,2.98628 -3.8351,3.54741 -3.8351,0.96204 z m -39.269,-49.08943 c -9.8383,-2.13246 -17.1548,-5.52387 -21.6805,-10.04955 l -3.1138,-3.11382 -6.7516,4.64997 c -3.7133,2.55748 -7.1584,4.23083 -7.6558,3.71854 -1.0206,-1.05126 10.3855,-11.56458 13.6817,-12.61074 1.2858,-0.40811 5.0816,1.32886 9.5107,4.35213 8.8443,6.03702 19.4509,8.87901 37.1533,9.95502 9.9401,0.6042 12.5,1.14379 12.5,2.6348 0,2.67123 -22.0568,2.97519 -33.644,0.46365 z m -87.981,-79.46365 c -2.1253,-2.12532 -1.8588,-7.62118 0.6375,-13.14509 3.5224,-7.79471 14.1315,-21.60491 16.5971,-21.60491 3.3533,0 4.0842,3.5015 1.2394,5.93729 -1.3607,1.16507 -2.474,3.37808 -2.474,4.91781 0,3.23706 -8.0652,20.78151 -10.8193,23.53569 -2.2512,2.25121 -3.2214,2.31847 -5.1807,0.35921 z m -69.3906,-11.80729 c -1.3387,-1.33872 -1.01,-6.4521 0.4738,-7.36911 1.7804,-1.10035 2.154,-0.57861 2.6345,3.67961 0.391,3.46524 -1.3116,5.48623 -3.1083,3.6895 z m 129.3906,-11.94271 c -2.5614,-2.56144 -0.955,-8.5 2.2994,-8.5 1.05,0 3.7006,5.86185 3.7006,8.18381 0,2.19537 -3.9145,2.40165 -6,0.31619 z m 74.9402,-4.18953 c 0.3171,-1.64652 6.2981,-4.8139 21.0639,-11.1548 24.6454,-10.58358 31.025,-14.21371 39.6834,-22.58062 6.4057,-6.19 6.5625,-6.51161 6.5625,-13.4583 0,-3.91421 0.5024,-7.11675 1.1163,-7.11675 1.7313,0 2.6337,3.39724 2.6337,9.91469 0,9.08416 -6.6174,17.06115 -22.2742,26.85035 -7.8945,4.93595 -38.6211,18.14871 -44.3273,19.06115 -4.301,0.68777 -4.8469,0.50218 -4.4583,-1.51572 z m -90.4961,-25.81161 c -1.603,-4.19523 12.9558,-78.49886 15.3808,-78.49886 2.5354,0 1.612,11.16569 -3.308,40 -2.9914,17.53125 -5.9188,33.5625 -6.5053,35.625 -1.1149,3.92081 -4.4998,5.66804 -5.5675,2.87386 z m 169.0559,-8.49886 c 0,-0.6875 0.5625,-1.25 1.25,-1.25 0.6875,0 1.25,0.5625 1.25,1.25 0,0.6875 -0.5625,1.25 -1.25,1.25 -0.6875,0 -1.25,-0.5625 -1.25,-1.25 z m 14.375,-26.45284 c -1.375,-1.34651 -5.675,-5.43714 -9.5555,-9.09027 -3.8806,-3.65315 -8.0151,-8.10646 -9.1878,-9.89626 -3.014,-4.59999 -4.3257,-11.26352 -2.6409,-13.41657 1.7775,-2.2717 6.8467,-2.83502 9.0508,-1.00578 2.3729,1.9693 2.2444,8.61172 -0.1666,8.61172 -1.0312,0 -1.875,0.45488 -1.875,1.01082 0,1.41347 15.9893,17.73918 17.3736,17.73918 1.3886,0 3.957,7.00277 2.941,8.01874 -1.2599,1.25991 -3.3472,0.56705 -5.9396,-1.97158 z m -270.625,-6.39402 c 0,-2.72463 3.6259,-6.94762 9.3417,-10.88024 8.0118,-5.51226 84.5407,-37.89054 86.0322,-36.399 2.3979,2.39786 -0.3497,4.58614 -11.8233,9.41665 -13.9538,5.87469 -12.9989,5.23691 -11.1594,7.45334 2.249,2.7099 -1.7673,4.59352 -6.3719,2.98836 -3.1127,-1.08509 -6.7082,0.16071 -29.4698,10.211 -14.2584,6.29578 -28.0009,13.10284 -30.5387,15.12681 -5.1429,4.1016 -6.0108,4.40238 -6.0108,2.08308 z m 47.5,-11.37509 c 0,-2.46928 3.3876,-4.93461 5.6091,-4.08212 2.8388,1.08933 2.2747,4.15965 -0.9216,5.01621 -4.0932,1.09694 -4.6875,0.97851 -4.6875,-0.93409 z m -224.375,-13.16117 c -10.3125,-2.59708 -20.43748,-5.60838 -22.49998,-6.69178 -2.0625,-1.08339 -10.26798,-7.82634 -18.23442,-14.98432 -7.96643,-7.158 -15.60681,-13.81357 -16.97864,-14.79015 -1.37181,-0.9766 -6.9403,-10.48415 -12.37441,-21.1279 -9.14071,-17.90384 -10.6871,-20.14922 -20.660856,-30 l -10.78065,-10.64773 -9.08434,-26.875 c -4.99637,-14.78125 -12.98286,-36.05756 -17.74772,-47.2807 -4.76487,-11.22314 -8.48915,-21.62939 -8.27618,-23.125 0.8417,-5.91085 3.92924,-2.2747 9.19955,10.83416 2.99698,7.45441 6.08185,14.31595 6.85526,15.24786 1.87907,2.26413 4.29484,8.78198 15.03827,40.57368 l 9.08191,26.875 10.764406,10.625 c 8.77862,8.66492 12.05722,13.04627 17.77236,23.75 3.85438,7.21875 7.94265,15.6626 9.08508,18.76411 1.40501,3.81444 3.57238,6.64571 6.69822,8.75 2.5416,1.71099 10.25084,8.22889 17.13163,14.48423 6.8808,6.25532 14.42235,12.35992 16.75901,13.56577 5.34554,2.75858 40.2619,10.66699 47.1434,10.67781 8.0218,0.0126 17.3726,-2.12988 24.9583,-5.71847 6.6415,-3.14191 7.5358,-3.24697 20.4561,-2.40294 11.9467,0.78044 14.1595,0.59573 19.1129,-1.5954 3.0811,-1.36291 7.0049,-4.37299 8.7195,-6.68906 5.3302,-7.1999 5.3073,-7.43111 -0.5257,-5.31729 -3.3162,1.20178 -12.5189,2.29845 -24.113,2.8735 -16.1744,0.80223 -19.2651,0.64924 -22.5,-1.11371 -6.9215,-3.77211 -4.8663,-5.63144 6.473,-5.8561 5.6227,-0.11137 14.5422,-1.09577 19.8212,-2.1875 5.279,-1.09173 11.9592,-1.98495 14.8448,-1.98495 7.4363,0 16.3791,-5.87136 19.475,-12.78624 2.1375,-4.77421 2.9407,-5.3873 8.7812,-6.70269 10.4657,-2.35709 9.8618,0.63658 -3.2202,15.96254 -6.3604,7.4514 -7.0264,11.20238 -2.3662,13.32574 9.9425,4.53008 21.1652,-2.10866 37.7657,-22.34001 4.8133,-5.86613 13.3126,-14.1941 18.8873,-18.50661 8.9248,-6.90418 10.6481,-8.91542 14.4244,-16.83434 6.0046,-12.59179 6.3677,-14.42259 11.329,-57.11839 2.4366,-20.96875 5.3183,-42.25073 6.4038,-47.29329 1.4986,-6.9617 1.9199,-15.53577 1.7505,-35.625 -0.203,-24.08215 0.1878,-32.68063 1.5473,-34.04013 0.2682,-0.26823 1.8592,-0.64043 3.5354,-0.82713 2.4503,-0.2729 2.9558,0.15068 2.5787,2.16055 -0.2581,1.375 -0.3922,15.02795 -0.2981,30.33988 0.1389,22.59466 -0.2962,30.60195 -2.3095,42.5 -1.3644,8.06307 -4.1912,29.56637 -6.282,47.78512 -4.0167,35.00281 -5.8762,44.25641 -10.9265,54.375 -4.7207,9.45828 -8.1477,13.44 -17.5968,20.44486 -4.7463,3.51856 -12.0916,10.58279 -16.323,15.69828 -9.6196,11.62956 -14.5861,16.3319 -23.6442,22.38691 -6.6298,4.43178 -7.6612,4.7376 -14.1568,4.19749 -3.8534,-0.32041 -8.6058,-1.42075 -10.561,-2.44519 -3.3462,-1.75326 -3.6909,-1.68986 -5.8694,1.07965 -1.2729,1.61826 -2.1455,3.92724 -1.939,5.13106 0.2909,1.69597 -1.5946,2.87222 -8.3746,5.22425 -7.3528,2.5508 -10.8457,3.00084 -21.875,2.81849 -11.6417,-0.19246 -14.3875,0.20998 -24.297,3.5611 -16.0527,5.42868 -27.5975,5.18604 -52.578,-1.10502 z m 37.5,-80.73786 c -6.8983,-1.50308 -19.2641,-6.08478 -26.875,-9.9575 -1.7187,-0.87457 -3.8759,-1.32062 -4.7938,-0.99123 -2.1317,0.76506 -10.2062,-3.53592 -10.2062,-5.43649 0,-3.37534 3.1886,-4.1681 9.3302,-2.31975 7.699,2.31705 14.196,2.30507 26.4974,-0.0489 5.3886,-1.03112 12.1002,-1.87487 14.9146,-1.875 2.8145,-1.1e-4 10.6895,-1.89975 17.5,-4.22141 6.8106,-2.32167 17.1641,-4.89727 23.0078,-5.72357 5.8438,-0.8263 14.3914,-2.53873 18.9948,-3.80539 10.7724,-2.96414 21.1559,-4.14895 23.3749,-2.66719 2.3129,1.54453 0.9016,4.92213 -2.6501,6.3422 -1.5645,0.62553 -6.2742,4.16709 -10.466,7.87013 -8.7972,7.77143 -16.3995,11.36288 -31.5654,14.91198 -5.9473,1.39177 -15.0319,3.83393 -20.1882,5.42703 -12.6981,3.92326 -18.0429,4.41947 -26.875,2.49504 z m 23.2804,-8.81172 c 3.0083,-1.06299 12.1489,-3.6202 20.3125,-5.68269 14.9282,-3.77155 25.1664,-8.00535 28.2012,-11.6621 1.9342,-2.33059 1.9299,-2.33141 -3.6773,-0.70911 -2.4017,0.69487 -10.066,2.11434 -17.0317,3.15439 -6.9657,1.04003 -17.4518,3.50902 -23.3023,5.48663 -6.3769,2.15552 -16.0655,4.18008 -24.1901,5.05483 -7.454,0.80255 -13.7591,1.66556 -14.0114,1.91781 -0.2522,0.25224 1.9888,1.0884 4.9801,1.85811 2.9912,0.76973 6.0011,1.60604 6.6886,1.85848 3.3667,1.2362 17.1854,0.4356 22.0304,-1.27635 z m 473.2344,-26.5048 c -1.0987,-1.20313 -8.7295,-7.25 -16.9573,-13.4375 -8.2278,-6.1875 -15.5419,-12.47533 -16.2535,-13.97295 -0.7783,-1.6381 -2.6902,-2.88313 -4.7989,-3.125 -4.4924,-0.5153 -4.8355,-4.18763 -0.3801,-4.0685 1.7188,0.046 4.9692,0.51605 7.2233,1.04466 3.1245,0.73278 4.0154,0.56445 3.75,-0.70855 -0.2481,-1.18941 1.2696,-1.68985 5.2767,-1.73982 3.0938,-0.0386 7.2449,-0.75555 9.2247,-1.59323 4.0712,-1.72255 12.6404,-0.0125 25.4932,5.08724 8.6835,3.44551 10.4854,7.20115 3.4548,7.20115 -3.8911,0 -4.3561,0.30045 -3.3856,2.1875 1.4413,2.80227 0.7064,4.84432 -3.8237,10.625 -5.6917,7.26295 -7.4526,6.34339 -6.4573,-3.37204 l 0.8258,-8.05955 -3.6035,-0.81895 c -1.9818,-0.45042 -6.5463,-1.54881 -10.1432,-2.44086 -8.3026,-2.05911 -8.0546,-1.52703 6.5674,14.08889 6.9416,7.41338 10.5917,12.25205 10.1368,13.4375 -0.9553,2.4893 -3.7073,2.33938 -6.1496,-0.33499 z m 6.7653,-21.89584 c -1.2345,-1.22532 -1.3781,-1.08175 -0.6997,0.69975 0.4694,1.23278 1.1684,1.92653 1.5532,1.54167 0.3849,-0.38487 8e-4,-1.39349 -0.8535,-2.24142 z m -9.8426,-10.49451 c -0.8593,-0.34676 -2.2656,-0.34676 -3.125,0 -0.8593,0.34676 -0.1562,0.63049 1.5625,0.63049 1.7188,0 2.4219,-0.28373 1.5625,-0.63049 z m -489.6875,-18.88451 c -4.0407,-1.28579 -11.1022,-2.01954 -19.9765,-2.07573 -12.0471,-0.0763 -13.7789,-0.35512 -14.155,-2.27915 -0.3127,-1.59941 1.2021,-2.89184 5.6015,-4.77928 9.5327,-4.08974 11.532,-4.08373 24.5106,0.0738 7.6332,2.44512 13.2658,3.59702 14.997,3.06695 3.3335,-1.02072 17.6676,-10.10617 29.5198,-18.71063 4.5016,-3.26809 11.8221,-4.14809 13.3909,-1.60973 1.1956,1.93445 -23.3661,25.69068 -27.6815,26.77378 -2.2286,0.55934 -3.6676,0.18275 -4.7082,-1.23212 -1.3764,-1.87155 -2.0576,-1.83297 -8.3559,0.47346 -3.7716,1.38111 -6.8653,2.46081 -6.875,2.39933 -0.01,-0.0615 -2.8302,-1.00673 -6.2677,-2.10058 z m 342.5,-52.78764 c -1.375,-0.59086 -4.75,-1.11696 -7.5,-1.16911 -8.2915,-0.15725 -14.375,-2.34454 -14.375,-5.16847 0,-2.3238 0.1787,-2.35301 3.0169,-0.49333 1.9799,1.29731 5.0948,1.84426 9.0625,1.59131 l 6.0456,-0.3854 -7.5,-4.59993 c -4.125,-2.52995 -8.8415,-5.85697 -10.4812,-7.39338 -2.6988,-2.52883 -2.7875,-2.93515 -0.936,-4.28897 1.1248,-0.82251 3.5044,-1.21652 5.2879,-0.87558 l 3.2428,0.6199 -1.9942,-3.85645 c -2.9979,-5.79732 -2.6197,-8.98059 1.0671,-8.98059 3.5089,0 7.2913,4.47167 12.688,15 1.9382,3.78125 5.0938,9.37575 7.0123,12.43222 1.9186,3.05648 3.4883,6.29086 3.4883,7.1875 0,1.82108 -4.3033,2.02249 -8.125,0.38028 z m -4.375,-11.8429 c 0,-0.3261 -1.6875,-1.46554 -3.75,-2.5321 -4.7011,-2.43104 -4.9855,-1.37514 -0.3125,1.16004 3.9282,2.13107 4.0625,2.17644 4.0625,1.37206 z m 107.8979,6.07676 c -0.8135,-2.12004 6.359,-20.9247 11.867,-31.11254 1.8481,-3.41831 4.3774,-6.41033 5.6207,-6.64895 1.9338,-0.37111 2.1824,0.25908 1.7199,4.3594 -0.2974,2.63628 -1.1424,6.29365 -1.8779,8.1275 -1.2203,3.04272 -0.6382,2.80519 6.6567,-2.71632 4.3967,-3.32783 9.0058,-6.65596 10.2424,-7.39585 2.1488,-1.2857 2.1504,-1.4214 0.036,-3.06481 -1.442,-1.12064 -4.1063,-1.5061 -7.6496,-1.10672 -5.5252,0.62278 -7.587,-0.47405 -5.9303,-3.15471 1.1608,-1.87814 26.4174,-3.42827 26.4174,-1.62137 0,0.68047 -2.0107,1.61445 -4.4684,2.0755 -2.4576,0.46105 -4.004,1.30257 -3.4365,1.87005 0.5674,0.56747 5.1372,-0.43154 10.1549,-2.22004 9.2709,-3.30446 12.4107,-2.9527 10.8128,1.21139 -0.423,1.10243 -4.5196,4.43068 -9.1035,7.39611 -4.5838,2.96542 -10.6415,7.49595 -13.4613,10.06784 -2.8199,2.57188 -7.8824,5.88438 -11.25,7.3611 -6.1934,2.7158 -21.748,14.20401 -21.748,16.06245 0,2.03172 -3.8543,2.45882 -4.6022,0.50997 z m 34.6021,-28.69682 c 0,-0.34375 -1.125,-0.0229 -2.5,0.71296 -1.375,0.73587 -2.5,1.61921 -2.5,1.96296 0,0.34375 1.125,0.0229 2.5,-0.71296 1.375,-0.73587 2.5,-1.61921 2.5,-1.96296 z M 40.610044,335.91712 c -3.13908,-3.36942 -9.83464,-25.5749 -11.63956,-38.60205 -2.86465,-20.67582 0.99101,-47.22687 11.90152,-81.95687 1.71927,-5.47273 3.00056,-10.07581 2.84732,-10.22906 -0.57528,-0.57527 -33.50951,35.37834 -36.5957997,39.95086 -1.77128,2.62427 -4.4402,8.53052 -5.93094,13.125 -2.12404001,6.54632 -3.24117,8.35363 -5.16355,8.35363 -3.83572,0 -5.1564,-7.89873 -3.23672,-19.3581 0.86533,-5.16555 2.13373,-10.44406 2.81867,-11.73003 0.68494,-1.28597 1.48642,-4.66097 1.78106,-7.5 1.46052,-14.07267 5.73986,-45.80956 6.83709,-50.70592 0.68331,-3.04923 3.57879,-10.03493 6.4343997,-15.52376 5.97837,-11.49119 39.43421,-57.26726 45.94361,-62.862501 5.49598,-4.724152 23.90056,-15.785615 30.94326,-18.597425 6.42659,-2.565822 14.049636,-1.673516 14.069446,1.646879 0.007,1.296824 1.97065,2.953239 5.01501,4.23194 4.91895,2.066079 5.26754,2.028854 20.92477,-2.234524 8.75738,-2.384582 23.51625,-6.82165 32.7975,-9.860151 24.84228,-8.132859 39.86438,-11.882839 47.55058,-11.870062 12.3738,0.02056 78.103,8.515206 92.4494,11.947886 4.4688,1.069241 11.0824,3.604284 14.697,5.633429 5.652,3.172946 7.7516,3.658922 15,3.471945 4.6354,-0.119575 17.1468,0.35214 27.803,1.048255 17.1142,1.117978 20.5723,1.733181 29.6357,5.272281 5.6434,2.20364 14.477,6.759006 19.6301,10.123035 11.4785,7.493233 12.9752,10.146163 20.0929,35.615623 5.944,21.26979 8.6883,28.0567 15.7042,38.83835 5.1037,7.84312 6.2137,12.62644 3.1985,13.78347 -1.4581,0.55955 -1.473,1.20845 -0.092,4.02327 2.553,5.20343 5.5807,21.77303 5.5807,30.54078 0,4.3533 -0.8428,11.26764 -1.8728,15.3652 -2.239,8.90743 -27.5552,60.85195 -31.4328,64.49472 -2.6858,2.52321 -2.7498,2.52502 -5.1295,0.14535 -1.856,-1.85598 -2.7187,-5.4642 -3.754,-15.70084 -1.3835,-13.67964 -4.1529,-21.86344 -10.6181,-31.37786 l -3.045,-4.48109 -10.8491,21.91071 c -8.2167,16.5943 -11.623,22.2633 -14.0385,23.36385 -3.9535,1.80136 -6.0018,-0.53087 -4.6369,-5.27971 2.817,-9.8011 -2.5613,-23.8352 -11.6492,-30.39711 -3.03,-2.18784 -10.0475,-5.91185 -15.5945,-8.27559 -8.5599,-3.64761 -10.6174,-4.09694 -13.6018,-2.97043 -1.934,0.73 -4.0485,0.97647 -4.6989,0.5477 -0.6504,-0.42876 -3.6573,-5.56082 -6.6821,-11.40457 -5.6793,-10.97254 -21.4896,-29.45822 -23.9135,-27.96018 -2.9336,1.81302 -27.8485,34.43012 -32.8156,42.96018 -4.6985,8.06869 -13.7142,27.1579 -16.0874,34.0625 -1.1411,3.31984 -4.244,2.67226 -13.4762,-2.8125 -4.6289,-2.75 -9.485,-5 -10.7912,-5 -1.3063,0 -6.5396,1.41644 -11.6295,3.14764 -5.0899,1.7312 -12.2304,3.4974 -15.8678,3.9249 -5.8439,0.68683 -7.5522,0.30072 -14.6827,-3.31852 -8.37965,-4.25327 -11.00693,-7.0957 -13.67089,-14.79034 l -1.57501,-4.54933 -9.25603,12.61956 c -8.34753,11.38095 -17.75701,26.11953 -29.02667,45.46609 -3.42205,5.87461 -4.54135,6.875 -7.69228,6.875 -4.7409,0 -8.17252,-4.92193 -11.98863,-17.19513 -4.299906,-13.82913 -3.699656,-28.72585 2.58101,-64.05487 5.0266,-28.27485 8.6776,-51.67188 8.72265,-55.89827 0.0399,-3.73923 -3.57414,-1.06592 -8.60803,6.36747 -2.6187,3.86694 -9.510576,16.31205 -15.315286,27.6558 -9.14761,17.87656 -12.52353,26.5054 -25.3338,64.75311 -8.12888,24.27048 -15.59401,44.94235 -16.58917,45.9375 -2.41474,2.41475 -3.59093,2.28435 -6.3779,-0.70712 z m 12.81611,-35.29599 c 13.98621,-43.5998 20.38509,-60.07411 31.61074,-81.38373 12.74945,-24.20224 16.480816,-29.60697 24.336926,-35.25103 7.14366,-5.13222 8.18173,-5.25873 9.7302,-1.18592 1.47116,3.86946 0.46305,12.18223 -7.56749,62.40057 -7.77161,48.59917 -7.83953,54.73557 -0.78293,70.72507 l 3.01756,6.83745 3.47002,-6.85246 c 9.73914,-19.23245 40.72042,-63.72745 44.37258,-63.72745 1.76205,0 3.11789,2.50335 5.92389,10.9375 3.29803,9.91311 4.09802,11.19899 8.54166,13.72944 6.7022,3.81662 13.793,3.59534 28.8167,-0.89929 13.9326,-4.16817 16.9166,-3.94552 25.7861,1.92404 2.6974,1.78507 5.053,3.06282 5.2346,2.83945 0.1817,-0.22338 2.9681,-6.20581 6.192,-13.29431 7.0335,-15.46433 13.4871,-25.7377 27.4336,-43.67125 13.0955,-16.83934 20.0077,-23.3355 23.0802,-21.69115 5.241,2.8049 22.3936,22.4543 26.4537,30.30447 4.1107,7.94793 4.5182,8.32908 9.5064,8.89131 2.8663,0.32308 11.064,3.3831 18.2171,6.80005 16.1882,7.73293 22.3019,14.0542 25.7553,26.62974 l 1.2014,4.375 6.9048,-14.375 c 7.2123,-15.01526 10.2344,-19.20896 14.9126,-20.69376 2.2214,-0.70504 3.5153,-0.0337 6.2506,3.24274 8.172,9.78872 14.7827,26.84352 14.7827,38.13754 0,2.37242 0.4683,4.31348 1.0406,4.31348 0.5723,0 3.1511,-4.85966 5.7308,-10.79925 2.5797,-5.9396 7.2258,-15.36147 10.3246,-20.9375 10.4539,-18.81087 12.6145,-31.83094 8.5233,-51.36348 -2.3475,-11.20824 -2.7968,-12.23008 -9.6896,-22.04027 -5.0297,-7.15856 -5.814,-12.05169 -1.8219,-11.3672 2.7101,0.46465 2.7355,0.66035 -1.0179,-7.82682 -1.7381,-3.93009 -6.0262,-16.78209 -9.5293,-28.56002 -3.503,-11.77791 -7.1343,-22.58215 -8.0695,-24.00941 -2.2389,-3.41703 -20.5353,-14.272287 -29.2411,-17.34877 -6.7652,-2.390726 -22.0395,-3.874603 -52.6924,-5.11899 -11.6048,-0.471109 -13.9053,-0.939603 -17.889,-3.643003 -7.9892,-5.421666 -15.8045,-6.876651 -84.654,-15.760269 -23.4706,-3.028397 -26.3794,-2.560101 -68.51458,11.030403 -10.65625,3.437121 -25.62946,7.925315 -33.2738,9.973763 l -13.8988,3.724452 -6.72619,-2.481181 c -3.69941,-1.364651 -8.037436,-2.778511 -9.640046,-3.141914 -1.60263,-0.363403 -3.29449,-1.689674 -3.7597,-2.94727 -0.75258,-2.034381 -2.39062,-1.387171 -14.85362,5.868846 -16.45226,9.578583 -19.43179,12.635933 -41.29425,42.372883 -16.60062,22.57986 -23.91788,36.11811 -26.3488097,48.75 -1.25137,6.50254 -5.05214,33.49489 -6.86444,48.75 -0.3267,2.75 -1.00266,6.125 -1.50214001,7.5 -0.49947,1.375 0.98728001,0.25 3.30389001,-2.5 2.31661,-2.75 10.4042197,-11.51612 17.9724697,-19.48026 7.56825,-7.96415 17.9792,-19.88933 23.13545,-26.50039 8.5782,-10.99851 12.45798,-13.99615 14.28624,-11.03796 0.37609,0.60852 -1.2129,5.24915 -3.53108,10.3125 -4.20983,9.19511 -11.40884,32.54687 -17.67435,57.33111 -5.98348,23.6686 -5.46614,46.72235 1.53577,68.4375 1.82886,5.67187 3.68663,10.3125 4.12838,10.3125 0.44175,0 4.63757,-11.95312 9.32405,-26.5625 z m 564.260156,23.75 c -4.7487,-9.2692 -3.3647,-27.47299 1.7034,-22.40489 3.4411,3.44103 5.2998,27.71739 2.1222,27.71739 -0.6072,0 -2.3287,-2.39063 -3.8256,-5.3125 z m 141.7211,-21.04121 c -1.1964,-1.43204 -4.9878,-4.02742 -8.4253,-5.7675 -3.4375,-1.74009 -7.156,-3.95972 -8.2634,-4.93252 -2.2402,-1.96787 -45.1759,-9.13806 -72.9866,-12.18861 -9.625,-1.05576 -29.875,-2.81382 -45,-3.90678 -15.5053,-1.12045 -31.9941,-3.03677 -37.8036,-4.3935 -12.8211,-2.99421 -23.3348,-8.06637 -22.3016,-10.75898 0.4016,-1.04657 0.7302,-2.13811 0.7302,-2.42564 0,-1.33066 5.5514,-0.29487 9.7373,1.81682 9.7135,4.90012 26.7828,7.52741 62.1377,9.56412 30.3573,1.74881 103.2006,11.94441 106.875,14.95889 1.0313,0.84602 5.8159,3.81142 10.6324,6.58977 4.8166,2.77835 9.8717,6.28273 11.2335,7.78749 2.4417,2.69811 2.4426,2.76031 0.066,4.49805 -3.2041,2.34287 -4.0623,2.23396 -6.6318,-0.84161 z M 154.64073,286.34607 c 0.44059,-1.14817 0.14747,-2.49153 -0.65141,-2.98525 -1.82034,-1.12503 -0.3588,-3.67719 2.10581,-3.67719 2.5673,0 3.46952,3.05947 1.81428,6.15232 -1.65188,3.08655 -4.42331,3.51907 -3.26868,0.51012 z"
       style="fill:#000000" />
  </g>
</svg>
