<?xml version="1.0" encoding="UTF-8" standalone="no"?>
<svg
   xmlns:dc="http://purl.org/dc/elements/1.1/"
   xmlns:cc="http://creativecommons.org/ns#"
   xmlns:rdf="http://www.w3.org/1999/02/22-rdf-syntax-ns#"
   xmlns:svg="http://www.w3.org/2000/svg"
   xmlns="http://www.w3.org/2000/svg"
   viewBox="0 0 552.83026 495.4216"
   height="495.4216"
   width="552.83026"
   version="1.1"
   id="svg3475">
  <metadata
     id="metadata3481">
    <rdf:RDF>
      <cc:Work
         rdf:about="">
        <dc:format>image/svg+xml</dc:format>
        <dc:type
           rdf:resource="http://purl.org/dc/dcmitype/StillImage" />
        <dc:title></dc:title>
      </cc:Work>
    </rdf:RDF>
  </metadata>
  <defs
     id="defs3479" />
  <path
     id="path3485"
     d="m 472.33026,495.27335 c -0.825,-0.17301 -3.12797,-0.57876 -5.1177,-0.90165 -4.54078,-0.73689 -10.8823,-6.61917 -10.8823,-10.09424 0,-3.24542 1.51166,-3.09404 5.11825,0.51255 3.07809,3.07809 8.23493,5.02041 13.35463,5.03001 1.63509,0.003 9.73509,-1.11684 18,-2.48869 8.26492,-1.37185 17.95212,-2.97083 21.52712,-3.5533 3.575,-0.58246 8.11761,-1.53533 10.09468,-2.11748 l 3.59468,-1.05845 0.63338,-21.11019 c 0.41947,-13.98078 0.28565,-21.45739 -0.39626,-22.13825 -0.68729,-0.68623 -27.86171,-1.04491 -81.72806,-1.07872 -61.99586,-0.0389 -83.01277,-0.36413 -90.68447,-1.40319 -10.79013,-1.46143 -60.68253,-0.83297 -79.51395,1.00158 -5.225,0.50902 -43.7,1.34606 -85.5,1.86011 -42.7562,0.5258 -84.09224,1.51585 -94.500002,2.26339 -26.43015,1.89836 -63.555916,1.64025 -77.865226,-0.54135 -6.25088,-0.953 -11.48653,-1.59709 -11.63477,-1.43131 -0.14824,0.16579 -0.4588,9.63893 -0.69013,21.05143 l -0.42061,20.75 6.05537,-0.001 6.05537,-10e-4 0.0572,-5.74886 c 0.11034,-11.08071 6.31873,-22.83053 11.66263,-22.07235 3.60615,0.51163 3.36465,4.48452 -0.6805,11.19465 -4.06276,6.73906 -4.02876,6.62856 -2.03938,6.62856 2.37997,0 5.7454,3.95361 5.18608,6.09245 -0.31615,1.20896 0.0162,1.90755 0.90754,1.90755 0.97769,0 1.40638,-1.23817 1.40638,-4.06193 0,-2.32574 1.1464,-6.49316 2.68209,-9.75 2.94966,-6.25554 12.31008,-16.18807 15.25564,-16.18807 3.814826,0 3.13947,3.16151 -2.42831,11.36747 -3.03488,4.47289 -5.51604,8.93117 -5.51369,9.90728 0.006,2.384 4.53666,3.98005 9.10678,3.20793 4.438516,-0.74988 5.816746,0.76004 2.691716,2.9489 -2.139026,1.49823 -1.971966,1.56663 3.73327,1.52838 5.84068,-0.0392 5.91236,-0.0727 3.24765,-1.51876 -5.73016,-3.10965 -6.25744,-8.88017 -1.60843,-17.60261 3.21744,-6.03654 7.82961,-10.83859 10.41001,-10.83859 1.67673,0 1.91107,2.58049 0.32344,3.5617 -0.60491,0.37385 -2.8549,3.39518 -5,6.71405 -6.23612,9.6485 -4.81174,15.03942 4.20101,15.89979 2.05987,0.19664 3.30033,0.81689 3.14882,1.57446 -0.40106,2.00529 21.34052,1.75948 22.11163,-0.25 1.36939,-3.56857 -0.34364,-4.6455 -6.24007,-3.92295 -3.09186,0.37887 -5.77156,1.07903 -5.95489,1.55591 -0.18334,0.47687 -0.94388,0.86704 -1.69009,0.86704 -1.62519,0 -1.5073,-4.73325 0.1442,-5.78964 0.6108,-0.3907 2.12178,-2.73536 3.35774,-5.21036 2.59347,-5.19344 5.81772,-9 7.62321,-9 2.07761,0 5.18848,4.7988 5.9208,9.13335 0.660502,3.90944 0.811882,4.04977 3.737622,3.46462 3.82478,-0.76496 5.73985,-2.32021 5.73985,-4.6614 0,-1.00019 0.50031,-2.12775 1.1118,-2.50567 1.88347,-1.16405 2.77516,1.72003 2.16871,7.01445 l -0.57899,5.05465 4.19985,-5 c 2.30992,-2.75 5.78466,-7.5875 7.72165,-10.75 2.32335,-3.79332 4.17773,-5.75 5.44938,-5.75 1.19121,0 1.9276,0.68926 1.9276,1.80422 0,1.94807 -4.45027,9.41138 -9.21011,15.44578 l -2.95795,3.75 3.33403,0.12762 c 6.47643,0.24791 7.93005,0.62143 9.20523,2.36535 1.19772,1.63798 3.10096,1.70979 27.02507,1.01973 l 25.73662,-0.74235 -2.19805,-2.3397 c -1.83447,-1.95271 -2.11867,-3.16574 -1.71818,-7.33368 0.84421,-8.78585 11.78334,-24.73933 11.78334,-17.18466 0,1.13243 -1.575,5.0278 -3.5,8.65638 -4.39778,8.28972 -4.67015,13.03592 -0.83181,14.49526 2.98528,1.135 7.52402,-0.0229 10.44247,-2.6641 0.95729,-0.86633 2.56151,-1.41196 3.56494,-1.2125 1.45039,0.28831 1.75712,1.1263 1.4962,4.08766 l -0.32821,3.72499 25.63491,0 25.63491,0 -1.55671,-2.22251 c -1.94056,-2.77054 -2.01822,-9.99339 -0.14598,-13.57715 2.31783,-4.43667 6.7946,-8.01755 13.35728,-10.6842 6.30304,-2.56115 13.232,-3.34386 13.232,-1.4947 0,0.56179 -1.0125,1.42224 -2.25,1.91211 -1.2375,0.48987 -4.90022,1.90794 -8.13938,3.15127 -7.2076,2.7666 -12.61062,7.83118 -12.61062,11.82071 0,2.54674 0.41868,2.9058 4.06893,3.4895 3.08972,0.49407 3.99091,1.05575 3.74474,2.33396 -0.17829,0.92583 -1.39404,1.93588 -2.70165,2.24457 -2.17221,0.51278 -2.23376,0.68051 -0.71293,1.94269 1.36664,1.13421 5.55147,1.24729 23.38273,0.63182 11.945,-0.4123 24.80844,-1.04178 28.58543,-1.39885 l 6.86725,-0.64922 0.22303,-7 c 0.34114,-10.70722 5.25197,-18.67914 10.48375,-17.01864 2.71803,0.86267 5.44235,7.27064 5.50464,12.94768 0.0505,4.60197 -0.21275,5.13388 -3.96722,8.01627 l -4.0213,3.08723 10.81544,-0.0163 10.81544,-0.0163 -0.60354,-3.58131 c -0.7141,-4.2374 1.84558,-11.48992 4.56977,-12.94786 0.9977,-0.53396 2.96859,-0.97083 4.37975,-0.97083 2.07012,0 2.56574,0.48292 2.56574,2.5 0,1.966 -0.50809,2.5 -2.37868,2.5 -3.48096,0 -5.5552,5.24124 -3.51715,8.88723 1.19713,2.14162 2.29983,2.66727 6.11504,2.91498 3.94036,0.25585 4.83491,-0.0348 5.83009,-1.89433 1.47315,-2.7526 -0.46243,-9.38341 -3.3242,-11.38787 -2.66092,-1.86378 -1.85074,-5.02001 1.2886,-5.02001 3.61029,0 8.31212,9.2737 7.69023,15.16791 -0.49037,4.64768 0.40685,5.29196 7.40633,5.31844 l 3.61026,0.0136 2.51876,-7.75 c 1.38532,-4.2625 3.01932,-9.58924 3.63111,-11.8372 1.47212,-5.40918 3.8396,-7.35976 9.74246,-8.02684 5.57932,-0.63052 8.05893,0.70217 8.56454,4.60309 0.35457,2.73565 -1.16092,3.26207 -4.85365,1.68597 -4.05687,-1.73152 -6.96955,-0.11199 -8.14793,4.53045 -0.59052,2.3265 -0.92742,4.37626 -0.74865,4.55502 0.17877,0.17877 2.06829,0.59324 4.19894,0.92104 4.45292,0.68507 6.3739,1.91638 6.3739,4.08552 0,1.26653 -1.0745,1.42182 -6.3982,0.92469 -6.37593,-0.5954 -6.40251,-0.58708 -7.6346,2.38746 -0.68002,1.64171 -1.01399,3.20734 -0.74215,3.47918 1.04457,1.04457 36.12774,0.48879 37.19863,-0.58929 0.67126,-0.67576 0.99512,-5.46091 0.86055,-12.71509 -0.13412,-7.23025 0.196,-12.12772 0.87244,-12.94278 0.62801,-0.7567 3.17019,-1.31122 6.01123,-1.31122 3.9553,0 5.42885,0.50584 7.49637,2.57336 2.45319,2.45319 2.55371,2.98425 2.15263,11.37321 -0.28032,5.86312 -0.96667,9.63307 -2.05664,11.29657 l -1.63592,2.49673 15.68783,0.50057 c 12.45611,0.39745 32.99679,2.96109 35.02914,4.37191 0.75256,0.52242 -1.00224,4.23543 -2.22311,4.70392 -0.71812,0.27557 -4.18849,-0.19457 -7.71194,-1.04474 -5.09063,-1.22832 -15.1972,-1.63585 -49.21252,-1.98441 -29.10055,-0.29819 -43.21209,-0.10181 -44.07379,0.61333 -0.88732,0.73641 -1.58544,0.73406 -2.32732,-0.008 -0.6164,-0.6164 -10.37554,-1.48332 -23.32599,-2.0721 -17.73002,-0.80607 -29.21325,-0.68099 -56.36642,0.614 -23.30261,1.11135 -50.88232,1.58294 -87.10022,1.48936 -29.15,-0.0753 -64.25,0.36459 -78,0.97759 -13.75,0.61299 -41.425002,1.56587 -61.500002,2.11751 -20.075,0.55163 -43.249996,1.64817 -51.499996,2.43675 -8.25,0.78859 -17.67771,1.57115 -20.95048,1.73903 l -5.95047997,0.30552 -0.67605,-3.26385 c -0.37183,-1.79511 -0.32909,-9.67011 0.095,-17.5 0.42406,-7.82988 0.53432,-22.11115 0.24503,-31.73615 -0.60797,-20.22783 0.97344997,-51.42578 3.74500997,-73.88062 2.19092,-17.75053 4.0331,-45.72362 7.08731,-107.61938 2.52237,-51.11774 2.22109,-84.63641 -1.0202,-113.5 -1.36648,-12.16849 -2.43918,-31.33414 -3.13432,-55.999999 -1.02172,-36.253746 -0.74273,-48.607866 1.17917,-52.216036 1.61048,-3.02349 8.41127,-4.0801 21.96499,-3.4126 7.38818,0.36386 22.46033,0.0112 36.499996,-0.85397 13.15328,-0.81056 47.090052,-1.93255 75.415052,-2.4933 50.24469,-0.99468 76.12883,-2.40398 100.5,-5.471864 6.6,-0.830818 21.225,-2.666036 32.5,-4.078261 11.92436,-1.493559 30.12145,-2.923629 43.5,-3.418571 17.364,-0.642384 25.27045,-1.3674556 32.26548,-2.9589476 21.15773,-4.813758 26.60689,-4.674253 33.23452,0.850844 3.0865,2.5730466 3.28361,3.0011416 1.66842,3.6235266 -1.13949,0.439085 -3.30338,-0.121434 -5.72666,-1.483397 -3.62421,-2.0369186 -4.43569,-2.1150566 -11.66843,-1.1235686 -4.27533,0.5860766 -11.37333,1.9746376 -15.77333,3.0856916 -5.84845,1.476804 -13.7823,2.272366 -29.5,2.958091 -20.88414,0.911124 -32.30978,1.990935 -63.5,6.001236 -42.45026,5.45807 -82.40327,7.96509 -127.95651,8.02917 -14.87392,0.0209 -34.243492,0.50378 -43.043492,1.073 -8.8,0.56922 -28.9621,1.19241 -44.804656,1.38488 -20.47023,0.24868 -29.22287,0.697 -30.25,1.54945 -1.19457,0.9914 -1.44534,5.8435 -1.44534,27.96614 0,30.417176 1.20241,54.211475 4.09261,80.988485 3.33643,30.91121 3.43967,53.96327 0.50609,113 -3.4323,69.07312 -4.26408,81.45386 -7.18858,107 -1.53422,13.40174 -2.69712,30.54283 -3.08739,45.50774 l -0.62608,24.00774 8.90167,1.25832 c 4.89593,0.69207 16.80281,1.74906 26.45974,2.34885 14.640386,0.90933 20.788756,0.81681 36.999986,-0.55674 10.69307,-0.906 31.708952,-1.92447 46.701952,-2.26327 14.99299,-0.33879 27.09797,-0.778 26.89994,-0.97603 -0.19803,-0.19803 -5.85587,-1.25667 -12.57298,-2.35253 -25.66803,-4.18761 -50.661102,-12.06366 -54.979462,-17.32563 -2.34718,-2.86007 -0.89763,-2.63722 6.70545,1.03084 13.499292,6.51267 48.231402,13.7125 79.161122,16.40979 14.37862,1.25392 51.13301,0.79576 79.52593,-0.99133 29.81495,-1.87659 64.83121,-3.1035 117,-4.09948 56.43707,-1.07747 79.28217,-2.07976 104,-4.56283 17.85552,-1.79371 48.06697,-5.9483 50.75456,-6.97963 0.96208,-0.36918 1.74544,-0.20904 1.74544,0.35683 0,2.48212 -19.8072,6.3746 -51.5,10.12069 -23.58172,2.78736 -43.94457,4.01178 -79.5,4.78032 -20.7497,0.44852 -29.38111,0.94047 -27,1.53888 1.925,0.48378 12.725,0.74585 24,0.58236 11.275,-0.16348 47.16252,-0.30571 79.75004,-0.31606 58.57868,-0.0186 59.24999,-0.0415 59.24536,-2.01883 -0.003,-1.1 -1.12955,-17.97219 -2.50438,-37.49376 -3.44078,-48.85647 -4.04925,-77.98163 -2.43398,-116.50624 0.75125,-17.9173 1.262,-52.90402 1.16058,-79.5 -0.15556,-40.79203 0.0919,-50.11258 1.75211,-66 1.06328,-10.175 2.22051,-24.575 2.57162,-31.999999 0.35111,-7.425 1.28969,-17.99603 2.08573,-23.49118 2.24702,-15.511376 2.80848,-30.174656 1.45664,-38.042126 -1.73956,-10.12403 -3.66661,-13.87475 -8.48159,-16.508193 -2.25617,-1.233961 -6.56822,-4.072216 -9.58233,-6.307233 -9.03995,-6.7032746 -10.6818,-6.9251216 -54.5198,-7.3667006 -21.45,-0.216066 -42.375,-0.03098 -46.5,0.411294 -9.09037,0.974658 -13,0.618934 -13,-1.182826 0,-3.22805 25.97335,-4.86343204 66.52077,-4.18840204 38.06137,0.633642 41.41784,1.13658704 49.26404,7.38190104 2.90664,2.313592 7.40664,5.3652536 10,6.7814686 5.7479,3.138894 9.32067,8.213341 10.92156,15.512001 1.81117,8.25741 1.49612,27.65265 -0.72285,44.499996 -1.08661,8.25 -1.98721,19.05 -2.00133,24 -0.0141,4.949999 -0.92161,16.874999 -2.01662,26.499999 -2.58556,22.72669 -3.34028,44.69302 -2.1989,64 0.8851,14.97187 0.51193,35.04971 -1.74708,94 -1.20262,31.383 -0.22235,63.70307 3.47244,114.48873 1.39544,19.18058 2.64309,34.94139 2.77256,35.024 0.12948,0.0826 2.71041,0.64417 5.73541,1.2479 10.32114,2.05986 12.5,2.80597 12.5,4.28037 0,1.64849 -5.66039,1.94381 -13.75,0.71738 l -4.75,-0.72012 -0.003,7.23087 c -0.002,3.97698 -0.29786,15.00267 -0.65818,24.50154 l -0.65512,17.27068 -3.09182,-0.13579 c -1.7005,-0.0747 -6.01682,0.58289 -9.59182,1.46126 -3.575,0.87838 -14.15,2.74308 -23.5,4.14379 -20.80328,3.11649 -22.61126,3.33324 -24.5,2.93714 z M 27.822272,474.81266 c -0.6122,-0.99055 -4.4958,-1.98214 -4.47835,-1.14344 0.008,0.36101 0.2897,1.68687 0.62708,2.94636 0.57859,2.15989 0.71849,2.1949 2.46277,0.61635 1.01713,-0.92049 1.64196,-2.00916 1.3885,-2.41927 z m 16.50799,1.3035 c -0.825,-0.30334 -2.2875,-1.23756 -3.25,-2.07604 -0.9625,-0.83847 -1.75,-1.09475 -1.75,-0.56951 0,1.65206 2.31749,3.35817 4.45,3.27604 1.44172,-0.0555 1.60492,-0.2426 0.55,-0.63049 z m 65.732608,-1.72074 c 0.17542,-0.15212 -1.44051,-5.29728 -2.30034,-7.32433 -0.0594,-0.13998 -1.53093,0.24154 -3.27011,0.84783 -2.73495,0.9534 -3.16216,1.57384 -3.16216,4.5924 l 0,3.49008 4.25,-0.70214 c 2.3375,-0.38618 4.35467,-0.79291 4.48261,-0.90384 z m 328.02417,-8.67781 c 0.75057,-1.42856 1.15335,-5.21145 1,-9.39201 -0.25605,-6.98003 -0.26534,-7.00084 -3.25678,-7.29489 l -3,-0.2949 0,10.99761 c 0,10.76785 0.0418,10.97023 2,9.68691 1.1,-0.72089 2.56555,-2.38711 3.25678,-3.70272 z m -345.013172,1.50927 c 2.93385,-0.58677 2.97384,-0.6766 2.00336,-4.5 -0.54463,-2.14571 -1.30265,-3.90128 -1.68447,-3.90128 -0.69603,0 -5.0625,7.23316 -5.0625,8.38615 0,0.76851 0.96138,0.77157 4.74361,0.0151 z m 235.603322,-3.68941 c 2.73324,-2.1872 2.80127,-2.4478 1.70333,-6.5252 -0.62898,-2.33586 -1.5609,-3.98911 -2.07095,-3.67389 -0.84316,0.52111 -3.97931,9.71738 -3.97931,11.66872 0,1.37718 1.36694,0.91505 4.34693,-1.46963 z m 189.15293,12.2879 c -0.40329,-0.65254 0.42602,-2.35674 1.8909,-3.88575 3.42447,-3.57437 3.30081,-4.89814 -0.96956,-10.37935 -4.48441,-5.75593 -4.28861,-8.5025 0.80038,-11.22738 3.45547,-1.85021 3.83933,-1.87495 5.36832,-0.34596 1.91485,1.91485 1.11804,3.83867 -1.5899,3.83867 -3.13291,0 -3.12238,1.571 0.0372,5.54681 4.51319,5.67912 5.06812,10.30765 1.75623,14.64846 -1.66898,2.18749 -6.34229,3.34371 -7.29357,1.8045 z M 136.53026,471.6256 c -2.9715,-2.9715 1.2177,-22.8716 4.96673,-23.59359 2.63627,-0.5077 2.68707,1.93369 0.20376,9.79359 -1.30328,4.125 -2.3698,9.1875 -2.37005,11.25 -4.6e-4,3.89926 -0.75977,4.59067 -2.80044,2.55 z m 365.12311,-0.40038 c -0.33777,-0.88021 -0.15501,-3.60672 0.40614,-6.05893 0.90586,-3.95862 0.83808,-4.38011 -0.6045,-3.75902 -9.48724,4.08462 -16.12475,3.61549 -16.12475,-1.13969 0,-2.41066 -0.23771,-2.54991 -3.25,-1.90384 -4.46947,0.9586 -4.74812,1.20843 -4.76365,4.27088 -0.019,3.73915 -1.04352,7.19098 -2.13437,7.19098 -1.05917,0 -1.46032,-1.08097 -2.31938,-6.25 -0.57859,-3.48142 -0.86833,-3.75 -4.04552,-3.75 -2.97823,0 -3.96111,0.71366 -7.57483,5.5 -2.44888,3.24352 -4.92379,5.5 -6.0324,5.5 -2.79673,0 -2.39587,-4.2333 0.75551,-7.97849 2.24301,-2.66568 2.47194,-3.4906 1.53771,-5.54102 -1.21261,-2.66138 -0.25477,-3.83281 2.32464,-2.84299 1.17607,0.4513 3.02877,-0.76546 6.19206,-4.06665 7.56004,-7.88959 11.31023,-7.87248 11.31023,0.0516 0,3.13623 0.40689,4.37756 1.4349,4.37756 2.5608,0 6.23778,-1.79215 9.07848,-4.42482 4.8827,-4.52513 7.82556,-2.81983 4.51222,2.6147 -1.10997,1.82057 -2.01981,4.1464 -2.02186,5.16853 -0.003,1.50437 0.49355,1.7336 2.60661,1.20325 4.57118,-1.14729 11.05984,-4.58169 13.43708,-7.11214 2.51442,-2.67649 5.95257,-3.27876 5.95257,-1.04274 0,0.77373 -1.27969,4.26123 -2.84375,7.75 -1.56407,3.48877 -3.15946,8.03072 -3.54532,10.09322 -0.7318,3.91168 -3.14702,5.12251 -4.28782,2.14962 z m -29.32311,-17.52206 c 0,-1.77324 -0.2468,-1.91763 -1.5,-0.87756 -0.825,0.68469 -1.5,1.63979 -1.5,2.12244 0,0.48266 0.675,0.87756 1.5,0.87756 0.86218,0 1.5,-0.90249 1.5,-2.12244 z m -192.44814,17.20636 c -1.59139,-2.57493 5.32979,-13.08392 8.61702,-13.08392 1.1369,0 3.60466,1.35 5.4839,3 3.96474,3.48109 8.91255,3.98467 12.28164,1.25 2.00983,-1.63137 2.07893,-2.10862 1.01927,-7.04033 -1.31231,-6.10754 -0.81363,-8.20967 1.94754,-8.20967 2.23766,0 2.70979,1.19842 3.65941,9.28861 0.7724,6.58048 -0.51666,8.91067 -6.27852,11.34941 -4.93721,2.08969 -9.54116,1.67541 -13.84599,-1.24592 l -3.84296,-2.60791 -1.85024,2.35791 c -4.95066,6.30901 -5.9301,6.9821 -7.19107,4.94182 z m -132.15071,-1.24386 c -0.42478,-0.68731 0.93776,-2.62277 3.34396,-4.75 2.23346,-1.97454 4.84214,-4.84418 5.79707,-6.37699 2.15565,-3.46016 3.6271,-3.06616 5.08677,1.36204 2.27399,6.89861 5.50801,4.10696 5.76811,-4.97911 0.0826,-2.88576 0.53037,-3.65689 2.26705,-3.9043 2.91655,-0.41548 3.67157,2.34823 2.30609,8.44127 -1.87025,8.34546 -7.4808,11.85643 -11.89411,7.44312 -1.89855,-1.89855 -1.97435,-1.88573 -5.75,0.97218 -4.16389,3.15178 -5.81964,3.5802 -6.92494,1.79179 z m -82.870142,-1.78989 c -0.77852,-1.25968 2.68676,-3.05017 5.90325,-3.05017 3.30594,0 3.30632,1.76794 6.4e-4,3.02475 -3.23718,1.23078 -5.15384,1.23903 -5.90389,0.0254 z m 170.135662,-3.71684 c -1.98794,-1.98793 1.05578,-6.33333 4.43614,-6.33333 2.74648,0 3.47763,2.70114 1.36348,5.03725 -1.76658,1.95205 -4.52681,2.5689 -5.79962,1.29608 z m -33.6063,-5.7283 c -3.73506,-1.34956 -5.05572,-3.37183 -3.0226,-4.62837 1.88791,-1.1668 7.96223,2.04387 7.96223,4.20855 0,2.08286 -0.2728,2.10605 -4.93963,0.41982 z m 31.44863,-11.59046 c -0.37476,-0.60639 0.0606,-2.2349 0.96742,-3.61893 1.20819,-1.84393 2.36468,-2.43346 4.32764,-2.20602 2.70012,0.31285 4.23735,3.22498 2.53972,4.81125 -1.54559,1.44419 -7.12274,2.16579 -7.83478,1.0137 z m 8.991,-64.72764 c -7.15158,-1.72018 -1.10149,-2.28903 24.55,-2.30829 15.6475,-0.0118 38.125,-0.67714 49.95,-1.47864 24.4187,-1.6551 40,-1.9036 40,-0.63793 0,0.96841 -5.35062,1.51727 -35.5,3.64152 -19.42453,1.3686 -74.30444,1.91277 -79,0.78334 z M 107.06627,380.7288 c -1.48167,-0.79195 -25.396402,-3.36869 -50.236012,-5.41277 -9.899996,-0.81468 -22.162006,-1.98881 -27.248916,-2.60918 -7.2612,-0.88552 -9.57153,-0.86019 -10.75,0.11786 -1.25323,1.04008 -1.50108,0.90114 -1.50108,-0.84148 0,-3.20141 2.73823,-3.96914 11,-3.08413 4.125,0.44187 17.85,1.52962 30.499996,2.41722 28.50768,2.00027 48.616042,4.22532 49.913842,5.52312 0.54239,0.54239 1.77499,0.98616 2.73911,0.98616 2.30923,0 6.84705,2.09466 6.84705,3.1606 0,0.95862 -9.3904,0.74403 -11.26399,-0.2574 z m 372.81399,-0.76767 c 1.0871,-0.98923 38.36542,-3.55344 39.22102,-2.69784 1.12682,1.12682 -0.52379,1.42555 -13.72615,2.48422 -16.28684,1.306 -26.79206,1.39402 -25.49487,0.21362 z m -300.36547,-8.41319 c -1.29725,-1.56308 -0.72334,-3.91739 3.2232,-13.22234 1.39964,-3.3 2.55548,-6.61533 2.56853,-7.36741 0.0294,-1.69112 -18.37245,-1.27066 -61.09488,1.39594 -27.024952,1.68681 -34.591262,1.56512 -30.881382,-0.49666 0.825,-0.4585 7.575002,-1.34681 15.000002,-1.97402 7.425,-0.62721 18.225,-1.62741 24,-2.22268 5.775,-0.59526 20.59279,-1.36419 32.92842,-1.70873 l 22.42843,-0.62644 8.40977,-25 c 4.62538,-13.75 8.97659,-27.00217 9.66936,-29.44926 0.69277,-2.44709 1.84328,-4.64383 2.55669,-4.88163 2.93134,-0.97711 0.24263,9.55044 -12.07034,47.26105 -2.14243,6.56159 -3.78891,12.01217 -3.65883,12.1124 0.13007,0.10023 4.9814,0.43868 10.78073,0.75212 l 10.54422,0.56989 4.38303,-21.18228 c 2.41066,-11.65026 4.64076,-23.88229 4.95577,-27.18229 0.50153,-5.25394 0.85252,-6.03973 2.82275,-6.31955 2.06685,-0.29354 2.2496,0.0728 2.2451,4.5 -0.003,2.65075 -2.02769,14.26558 -4.5,25.81073 -4.92207,22.98502 -5.11901,24.50882 -3.1677,24.50882 0.73007,0 11.19257,0.66285 23.25,1.473 24.39338,1.63902 61.81817,3.89146 94.4226,5.68291 11.825,0.64972 48.95,1.21794 82.5,1.2627 53.51938,0.0714 61,0.26534 61,1.58139 0,2.28453 -14.37087,2.96629 -67,3.1785 -48.45376,0.19537 -74.83235,-0.71625 -137,-4.73461 -20.9,-1.35092 -43.00022,-2.74347 -49.1116,-3.09455 l -11.1116,-0.63834 -0.69172,3.8945 c -1.10754,6.23568 -1.6239,7.3945 -3.29492,7.3945 -1.3281,0 -1.47674,-0.9408 -0.94795,-6 l 0.62713,-6 -10.48467,0 c -5.76657,0 -10.81944,-0.0426 -11.22861,-0.0947 -0.40917,-0.0521 -2.45838,4.33543 -4.5538,9.75 -4.29004,11.08544 -5.73592,13.21396 -7.51773,11.067 z M 487.83026,360.8256 c 0.33992,-0.55 1.04148,-1 1.55902,-1 0.51754,0 0.94098,0.45 0.94098,1 0,0.55 -0.70156,1 -1.55902,1 -0.85746,0 -1.2809,-0.45 -0.94098,-1 z M 312.87241,339.89381 c -0.31673,-0.51249 -1.90645,-5.25439 -3.53272,-10.53757 -3.45486,-11.22366 -4.33972,-20.03064 -2.01254,-20.03064 1.05215,0 1.9781,2.22829 3.11657,7.5 0.89083,4.125 2.62292,10.55041 3.8491,14.27868 2.14456,6.52069 2.18665,9.72132 0.12784,9.72132 -0.5348,0 -1.23151,-0.41931 -1.54825,-0.93179 z m -26.41765,-20.20626 c 0.16289,-4.59907 -0.0681,-12.48423 -0.51325,-17.52257 -0.86016,-9.73477 -0.17544,-15.69501 1.72984,-15.05762 0.65342,0.21859 1.19303,2.53163 1.23714,5.30297 0.043,2.7034 0.36502,9.64027 0.71555,15.41527 0.70665,11.64214 -0.0969,19.10593 -2.12962,19.78055 -1.05841,0.35127 -1.27433,-1.29326 -1.03966,-7.9186 z m 55.8755,-15.34853 c 0,-2.84554 6.61966,-4.83538 31.5,-9.46872 14.11593,-2.62874 19.69595,-4.33303 23.70204,-7.23923 2.2379,-1.62347 3.19621,-0.52834 2.38075,2.72069 -0.97152,3.87085 -7.076,6.11549 -25.83327,9.49903 -8.93724,1.61215 -18.85898,3.61599 -22.04831,4.45299 -7.28697,1.91237 -9.70121,1.92114 -9.70121,0.0352 z M 170.00793,291.16993 c -1.27397,-1.27396 -0.67808,-2.1111 1.8462,-2.59364 2.15442,-0.41185 4.40942,0.73496 3.32627,1.69161 -0.97964,0.86522 -4.5812,1.4933 -5.17247,0.90203 z m -50.09667,-2.33377 c -11.78455,-2.13965 -19.581,-6.59309 -19.581,-11.18493 0,-3.91178 8.32856,-9.68948 23,-15.9556 3.025,-1.29196 5.7967,-2.76429 6.15933,-3.27184 0.88529,-1.23907 -4.14177,-8.08508 -12.65933,-17.2399 -14.17702,-15.23771 -16.33879,-23.46102 -8.70219,-33.103 2.35981,-2.9795 2.80619,-4.21152 2.02906,-5.60017 -0.67582,-1.20763 -0.61491,-3.37021 0.18937,-6.72283 1.13977,-4.75106 1.06751,-5.12669 -1.86544,-9.69729 -5.45799,-8.50555 -8.0189,-22.15964 -6.18992,-33.00306 3.64331,-21.6 27.26352,-41.01467 58.84499,-48.36772 12.31006,-2.86613 39.37288,-3.6588 51.69413,-1.51412 12.11764,2.10924 25.22504,6.00027 34.2338,10.16257 l 7.43303,3.43427 -0.64776,-3.83404 c -0.57547,-3.40619 -0.27789,-4.2233 2.66659,-7.32212 11.65908,-12.270229 51.33603,-14.200249 98.07492,-4.77069 37.05797,7.47644 53.14812,16.82306 58.49624,33.97991 2.20527,7.07457 2.13906,27.26867 -0.13748,41.92614 -0.89064,5.73437 -1.61934,10.95891 -1.61934,11.61009 0,0.69169 2.18286,1.41288 5.25,1.73453 16.83073,1.76504 29.25573,12.04155 31.92716,26.40642 1.02322,5.5021 0.92852,6.47306 -1.02488,10.50826 -1.18376,2.4453 -2.15228,5.41983 -2.15228,6.61005 0,3.73447 -3.11631,10.15114 -5.88875,12.12529 -2.83146,2.01618 -35.44117,20.16078 -50.82056,28.27743 -6.63642,3.50244 -9.88213,4.69145 -11.61756,4.25589 -1.32453,-0.33244 -5.05534,-0.0927 -8.29068,0.53276 -7.23647,1.39895 -94.5069,3.18815 -95.79007,1.96387 -1.83595,-1.7517 1.56711,-3.71044 7.64014,-4.39753 3.40938,-0.38572 23.76431,-1.09246 45.23317,-1.57053 32.7877,-0.7301 40.51158,-1.18523 48.26558,-2.84405 12.45292,-2.66406 20.26997,-6.2643 20.26499,-9.3333 -0.005,-3.25097 -3.52187,-8.63205 -6.53975,-10.00709 -2.95059,-1.34438 -3.05505,-5.06836 -0.15766,-5.62075 2.53504,-0.4833 10.54321,7.78284 11.32451,11.6893 0.34465,1.72327 0.93621,3.13322 1.31458,3.13322 1.94416,0 35.88987,-19.37402 37.8528,-21.60394 1.75122,-1.98942 2.23754,-3.63001 2.06486,-6.96587 -0.16263,-3.1418 0.31595,-4.96286 1.70926,-6.50397 4.11692,-4.55363 0.75325,-17.94057 -5.92792,-23.5923 -4.40772,-3.72858 -12.17375,-7.0926 -18.63694,-8.07301 -7.48709,-1.13571 -8.72883,-0.71277 -11.00465,3.74821 -1.08173,2.12035 -2.47351,4.16837 -3.09286,4.55115 -1.99518,1.23309 -2.72851,-1.73241 -1.28357,-5.19064 1.13653,-2.7201 1.16548,-3.742 0.15197,-5.36488 -0.9582,-1.53433 -0.98049,-2.43949 -0.095,-3.85744 1.28994,-2.06552 -0.7197,-6.12207 -7.84908,-15.84375 -5.57323,-7.59976 -17.26058,-14.84132 -32.82681,-20.33975 -6.46339,-2.28305 -10,-4.4631 -10,-6.16425 0,-0.48976 1.15227,-2.04274 2.56061,-3.45108 1.40833,-1.40833 2.42083,-2.65643 2.25,-2.77356 -0.17084,-0.11712 -5.26061,-0.74255 -11.31061,-1.38982 -14.95791,-1.60032 -17.38484,-3.59551 -15.4301,-12.6851 0.38417,-1.78642 -0.0582,-1.98434 -4.14231,-1.85332 -13.79079,0.44241 -34.59991,10.06637 -33.21517,15.36161 0.62446,2.38794 -1.42159,2.65905 -4.27129,0.56596 -1.88614,-1.38537 -1.88996,-1.51284 -0.13459,-4.5 l 1.80653,-3.07425 -5.80653,-0.0119 c -3.1936,-0.007 -8.05654,-0.63173 -10.80654,-1.38933 -4.28846,-1.18145 -16.90673,-7.19583 -20,-9.53282 -1.56379,-1.18146 -4.64284,-2.1255 -4.25478,-1.30453 0.192,0.4062 0.95549,1.95565 1.69665,3.44321 1.16657,2.34139 1.12356,3.04654 -0.32021,5.25 -1.95647,2.98596 -5.10638,3.5069 -4.37867,0.72416 0.26193,-1.00165 -0.25041,-3.36013 -1.13855,-5.24108 -1.89994,-4.02377 -3.93329,-4.64753 -15.71064,-4.81943 -7.66081,-0.11181 -8.36115,-0.31298 -12.74647,-3.66143 -6.35471,-4.85217 -11.80991,-6.65093 -20.64733,-6.80808 -5.45184,-0.0969 -8.50296,0.36352 -11.17265,1.68615 -5.47564,2.71277 -5.48355,4.24507 -0.0359,6.95386 3.62102,1.80051 4.78145,2.95946 5.02416,5.01778 0.46592,3.95127 -3.64818,5.68183 -7.52465,3.16518 -1.53503,-0.99656 -3.41583,-2.68801 -4.17956,-3.75878 -1.14327,-1.60288 -2.15191,-1.84222 -5.70894,-1.35467 -5.14957,0.70582 -16.00125,4.96862 -18.57278,7.29582 -2.24576,2.03239 -2.37465,4.92276 -0.25577,5.73585 0.86565,0.33218 1.42378,1.38351 1.24029,2.33629 -0.27188,1.41176 -1.44922,1.73615 -6.36228,1.75302 -5.0496,0.0173 -6.91565,0.56135 -11.4903,3.3498 -10.22367,6.23178 -11.16514,10.21615 -3.12076,13.20736 2.27264,0.84506 4.65505,2.05945 5.29426,2.69866 1.42827,1.42827 0.76087,2.50622 -9.83719,15.88839 -12.54961,15.84641 -12.86283,16.55771 -8.92161,20.2603 l 2.37633,2.23244 6.37367,-4.14244 c 8.7597,-5.69319 24.77291,-13.37075 34.30903,-16.44953 10.18873,-3.28944 26.06788,-6.52425 32.0266,-6.52425 4.74438,0 13.53805,3.26399 13.53805,5.02499 0,0.53626 0.5625,0.98923 1.25,1.00661 1.68035,0.0425 6.75,4.57668 6.75,6.03707 0,0.65234 -0.76975,0.92227 -1.75,0.61369 -4.79663,-1.51 -8.99291,-3.35429 -11.22251,-4.93236 -8.90044,-6.29959 -46.79772,4.1307 -70.8436,19.49795 -5.73844,3.66733 -5.71709,3.96197 0.51645,7.12707 1.76019,0.89374 4.77533,1.62498 6.70031,1.62498 2.14021,0 3.84121,0.60976 4.3783,1.56949 0.48309,0.86323 3.28124,2.1031 6.21812,2.75528 5.84106,1.29709 8.07239,3.71526 3.33626,3.61562 -1.55833,-0.0328 -4.96943,-0.41123 -7.58023,-0.84099 -5.74986,-0.94648 -8.68166,0.53609 -14.07443,7.11725 -7.61704,9.2956 -8.82901,18.19404 -3.56121,26.14697 3.06122,4.6216 7.17752,7.63638 10.4265,7.63638 0.9038,0 1.87863,0.9 2.16629,2 0.28766,1.1 1.11897,2 1.84736,2 1.46289,0 2.93898,1.83674 2.1279,2.64782 -0.28311,0.28312 -3.35994,1.49068 -6.8374,2.68347 -7.21475,2.47471 -8.32852,4.45804 -4.68861,8.34918 6.15774,6.58277 16.37263,7.98487 30.43054,4.17691 9.93398,-2.69089 13.75316,-2.8923 14.18122,-0.74787 0.34093,1.70797 -2.18189,3.00922 -9.40477,4.85089 -2.27343,0.57968 -4.60357,1.62033 -5.17808,2.31258 -0.82779,0.99742 0.49698,1.18078 6.38351,0.88352 6.03411,-0.30471 7.42808,-0.0996 7.42808,1.09274 0,1.47493 -0.94603,1.67632 -22,4.68352 -10.80485,1.54329 -29.69008,2.11797 -35.419,1.0778 z m 34.669,-5.62986 c 6.53298,-1.11912 4.07795,-1.8807 -6.06262,-1.8807 l -9.81262,0 -5.14284,-4.30583 c -2.83418,-2.37291 -5.68179,-5.79626 -6.34342,-7.62596 l -1.20057,-3.32014 -5.48813,2.42711 c -6.91803,3.05948 -14.1998,8.02884 -14.1998,9.69048 0,1.25053 10.64528,5.1364 16.5,6.02303 3.79575,0.57482 26.76758,-0.15448 31.75,-1.00799 z m -30.24552,-61.89327 c 1.3536,-2.19309 3.92421,-5.60909 5.71248,-7.59112 l 3.2514,-3.60369 -8.65932,-0.66561 c -8.45352,-0.64978 -8.72616,-0.60157 -11.47173,2.02885 -5.4618,5.23274 -4.16928,13.05919 3.48715,21.11528 l 3.10885,3.27114 1.05505,-5.28371 c 0.58027,-2.90604 2.16253,-7.07806 3.51612,-9.27114 z m 0.64914,-17.62146 c -1.32326,-0.76916 -2.15905,-0.76054 -2.95,0.0304 -0.80483,0.80483 -0.30495,1.09539 1.84638,1.07321 2.58611,-0.0267 2.72225,-0.16279 1.10362,-1.10362 z m -8.93933,-6.58026 c -1.61905,-1.61904 -1.71429,-1.52381 -1.71429,1.71429 0,3.2381 0.0952,3.33333 1.71429,1.71429 1.61904,-1.61905 1.61904,-1.80953 0,-3.42858 z m 6.28676,-22.75996 c 11.81529,-15.0901 12.03291,-15.52575 7.75536,-15.52575 -2.8613,0 -7.75641,-5.3828 -7.75641,-8.52917 0,-4.36149 5.33963,-10.00212 13.18279,-13.92589 3.89726,-1.94972 7.66471,-3.54494 8.37211,-3.54494 0.7074,0 1.58873,-1.37744 1.9585,-3.06099 1.16014,-5.2821 13.69631,-12.41229 24.02039,-13.66207 3.44417,-0.41693 4.3456,-1.05755 6.16692,-4.38262 2.39662,-4.37536 2.54007,-4.31441 -6.70071,-2.84711 -22.14514,3.5163 -43.3492,14.66109 -53.44382,28.0899 -6.31795,8.40473 -7.2987,10.49138 -8.51777,18.12245 -1.24749,7.80896 0.82349,20.9187 4.2779,27.08006 l 2.15272,3.83963 1.51548,-2.31387 c 0.83352,-1.27263 3.99096,-5.47546 7.01654,-9.33963 z m 286.64077,-15.54134 c 0.79582,-20.65317 -0.23764,-25.19268 -7.55907,-33.20349 -2.69722,-2.95119 -7.08174,-6.54298 -9.74339,-7.98176 -9.79673,-5.29572 -38.67473,-12.53998 -63.33936,-15.88914 -14.20228,-1.928499 -42.8576,-1.70675 -51.31762,0.39713 -12.53494,3.11724 -18.68238,6.61627 -18.68238,10.63372 0,0.5898 1.11789,2.04435 2.48419,3.23233 1.78222,1.54963 2.19614,2.50705 1.46482,3.38823 -0.75307,0.9074 0.23069,1.94033 3.76582,3.95404 5.44953,3.10422 8.73727,4.12313 19.19252,5.94801 l 7.40735,1.29289 4.59265,-2.91318 c 6.15521,-3.90433 18.99925,-7.88069 27.59265,-8.54234 6.25882,-0.4819 7.20285,-0.31334 8.91575,1.59199 1.66789,1.85524 1.78218,2.71468 0.88338,6.64247 -0.58859,2.57213 -0.65273,4.74615 -0.14921,5.05735 0.48575,0.3002 6.77006,1.19756 13.96515,1.99413 7.19508,0.79656 13.93763,1.90623 14.98345,2.46594 3.0391,1.62647 2.27014,4.53038 -1.84852,6.98083 -3.37045,2.00529 -3.54757,2.30627 -1.75,2.9737 23.54954,8.74384 33.10102,15.19953 41.56664,28.09425 l 5.42212,8.2589 0.75834,-3.93021 c 0.41708,-2.16161 1.04471,-11.36221 1.39472,-20.44579 z M 232.78026,113.96334 c -0.8383,-0.76088 -13.1661,-4.13774 -15.10552,-4.13774 -1.20293,0 0.91962,1.75266 4.15552,3.43136 3.12568,1.62152 12.63405,2.23489 10.95,0.70638 z M 221.0315,286.1935 c -1.09091,-1.0909 -0.82487,-5.17346 0.38589,-5.92175 1.44908,-0.89558 2.6645,0.49873 3.07641,3.5292 0.33108,2.43578 -1.8866,3.96826 -3.4623,2.39255 z M 363.24693,72.414485 c -1.7502,-1.7269 -34.15009,-2.7338 -84.896,-2.63834 -41.91611,0.0789 -57.18053,-0.19068 -56.37576,-0.99545 1.62809,-1.62809 121.50959,-0.71036 134.60509,1.03044 5.3625,0.71284 9.75,1.68272 9.75,2.15527 0,0.869236 -2.31547,1.205716 -3.08333,0.44808 z"
     style="fill:#000000" />
</svg>
