<?xml version="1.0" encoding="UTF-8" standalone="no"?>
<svg
   xmlns:dc="http://purl.org/dc/elements/1.1/"
   xmlns:cc="http://creativecommons.org/ns#"
   xmlns:rdf="http://www.w3.org/1999/02/22-rdf-syntax-ns#"
   xmlns:svg="http://www.w3.org/2000/svg"
   xmlns="http://www.w3.org/2000/svg"
   xmlns:sodipodi="http://sodipodi.sourceforge.net/DTD/sodipodi-0.dtd"
   xmlns:inkscape="http://www.inkscape.org/namespaces/inkscape"
   viewBox="0 0 479.07309 479.99999"
   height="480"
   width="479.07309"
   version="1.1"
   id="svg3560"
   inkscape:version="0.91 r13725"
   sodipodi:docname="chocolate.svg">
  <sodipodi:namedview
     pagecolor="#ffffff"
     bordercolor="#666666"
     borderopacity="1"
     objecttolerance="10"
     gridtolerance="10"
     guidetolerance="10"
     inkscape:pageopacity="0"
     inkscape:pageshadow="2"
     inkscape:window-width="640"
     inkscape:window-height="480"
     id="namedview5487"
     showgrid="false"
     inkscape:zoom="0.64708289"
     inkscape:cx="239.53654"
     inkscape:cy="305.95089"
     inkscape:window-x="0"
     inkscape:window-y="0"
     inkscape:window-maximized="0"
     inkscape:current-layer="svg3560" />
  <metadata
     id="metadata3566">
    <rdf:RDF>
      <cc:Work
         rdf:about="">
        <dc:format>image/svg+xml</dc:format>
        <dc:type
           rdf:resource="http://purl.org/dc/dcmitype/StillImage" />
        <dc:title></dc:title>
      </cc:Work>
    </rdf:RDF>
  </metadata>
  <defs
     id="defs3564" />
  <path
     id="path3570"
     d="m 59.900033,415.9391 c -1.21532,-2.16238 -4.35629,-5.31696 -6.99913,-7.02946 -4.77652,-3.09507 -10.92411,-10.26725 -10.92411,-12.74476 0,-1.79115 2.08458,-1.63248 4.95356,0.37703 2.29706,1.60892 2.36683,1.59834 1.64842,-0.25 -1.20647,-3.10401 -1.17856,-3.83634 0.14802,-3.88458 2.16512,-0.0787 1.47198,-2.01896 -0.94099,-2.63398 -1.26996,-0.32368 -2.19651,-1.11118 -2.05901,-1.75 0.1375,-0.63881 -0.37325,-1.16147 -1.13499,-1.16147 -2.70163,0 -4.66022,-5.12642 -7.5867,-19.85746 -1.6296,-8.20294 -4.31031,-19.12826 -5.95713,-24.27849 -6.102861,-19.08589 -8.315411,-33.29469 -15.094441,-96.93499 -1.088,-10.21401 -3.74305,-27.98901 -5.90009,-39.5 -7.2777697,-38.83757 -9.17973969,-57.08822 -8.3139297,-79.77793 0.43296,-11.34633 0.78639,-13.68543 2.12823,-14.0851 3.73065,-1.11118 15.6943797,-2.6558 31.6090507,-4.08097 35.15074,-3.14778 84.705217,-11.091315 118.759827,-19.037085 25.33213,-5.91061 67.25694,-12.63568 105.74018,-16.96156 14.06377,-1.58089 28.53082,-3.77339 45.94474,-6.96298 14.67493,-2.68791 39.32457,-5.91506 45.55526,-5.96414 7.94741,-0.0626 11.72923,1.01729 11.29916,3.22644 -0.27152,1.39469 -1.54226,1.73401 -6.81645,1.82018 -7.27422,0.11885 -43.82452,5.30785 -58.73866,8.33906 -5.35923,1.08923 -22.79405,3.58715 -38.74405,5.55094 -49.45704,6.0892 -75.88139,10.38131 -104.06331,16.903 -17.91786,4.14644 -41.8111,8.590005 -64.936697,12.076635 -9.35,1.4097 -18.0454,2.79623 -19.3231,3.08117 l -2.32311,0.51808 2.70565,4.71259 c 1.4881,2.59193 3.72223,5.8376 4.96472,7.2126 2.06706,2.2875 4.47957,7.02337 9.61948,18.88345 3.06347,7.0688 7.56915,12.11655 10.81539,12.11655 7.685737,0 12.299387,3.1441 6.682367,4.55388 -2.22769,0.55911 -1.71592,1.451 9.21982,16.06781 9.1378,12.21368 11.72805,15.09668 12.28832,13.67708 0.55919,-1.41688 0.72482,-1.2302 0.78018,0.87929 0.0812,3.09341 7.92505,14.393 16.07029,23.15029 3.025,3.2523 10.7875,10.37419 17.25,15.82642 10.49798,8.85684 11.75,9.64942 11.75,7.43821 0,-1.36122 0.45,-2.75305 1,-3.09297 0.61081,-0.3775 1,1.15628 1,3.94098 0,3.3858 0.38601,4.55902 1.5,4.55902 0.825,0 1.5,0.8449 1.5,1.87756 0,1.03265 0.675,2.43775 1.5,3.12244 1.76658,1.46613 1.77257,1.43718 0.56981,-2.7566 -0.55566,-1.93746 -0.56333,-3.2434 -0.0191,-3.2434 0.50113,0 1.1935,1.125 1.53861,2.5 0.3451,1.375 1.25367,2.5 2.01905,2.5 0.927,0 1.39159,1.18312 1.39159,3.54381 0,2.76159 1.05193,4.80782 4.76573,9.27041 2.62116,3.14964 7.39984,9.90124 10.6193,15.00357 3.21946,5.10232 6.01718,9.11333 6.21716,8.91335 0.19999,-0.19998 -0.0787,-1.90583 -0.61929,-3.79077 -0.5406,-1.88494 -0.9829,-4.06764 -0.9829,-4.85043 0,-2.84931 1.51548,0.22257 4.5476,9.21799 2.49548,7.40338 3.51282,9.25305 5.22812,9.50543 1.17135,0.17234 2.40632,1.18484 2.74439,2.25 0.33807,1.06515 1.03434,1.93664 1.54728,1.93664 1.308,0 1.16894,2.75456 -0.16144,3.19802 -1.31655,0.43885 11.08612,16.71376 12.77666,16.76567 0.65044,0.02 1.48713,0.99577 1.85933,2.16844 0.51743,1.63029 0.87283,1.81479 1.50997,0.78388 0.84828,-1.37255 1.38027,-0.40388 4.34239,7.90693 1.57685,4.42414 3.03595,4.11651 3.40897,-0.71874 0.27372,-3.54804 2.43293,-6.15828 3.56569,-4.31053 1.03863,1.69421 0.91647,6.89296 -0.21046,8.95633 -0.73681,1.34906 -0.82817,2.25 -0.22816,2.25 1.37001,0 7.06966,5.67065 7.06966,7.03368 0,0.6056 0.7875,0.87404 1.75,0.59652 0.9625,-0.27752 15.7,-4.16212 32.75,-8.63244 68.3979,-17.93318 96.50255,-26.47176 111.04459,-33.73688 3.27548,-1.6364 9.18381,-3.75466 13.12963,-4.70723 12.67019,-3.05875 16.78401,-7.57873 21.43422,-23.55047 3.36999,-11.57466 1.97393,-36.20828 -3.57058,-63.00318 -1.30879,-6.325 -2.86383,-16.70441 -3.45563,-23.06536 -1.2881,-13.84502 -8.29024,-55.99864 -11.18713,-67.34769 -2.62848,-10.29762 -6.76351,-21.013685 -12.42725,-32.205675 -2.4573,-4.8558 -4.46781,-9.38893 -4.46781,-10.07362 0,-0.69459 -0.66171,-0.99096 -1.49695,-0.67045 -1.18475,0.45463 -1.46523,-0.23511 -1.34485,-3.30722 0.20589,-5.25437 -1.6976,-8.68369 -4.42421,-7.97067 -1.15212,0.30129 -6.30508,1.09864 -11.45102,1.77189 -8.42601,1.10238 -9.52234,1.058 -11.02675,-0.44641 -2.53657,-2.53657 -0.85646,-3.3169 11.12846,-5.16865 5.98657,-0.92496 11.96569,-2.17429 13.28694,-2.77629 3.22632,-1.47001 4.24161,-0.24081 8.3163,10.06837 2.96337,7.49747 3.97438,8.91243 10.36042,14.5 10.29716,9.00967 13.65166,12.79062 13.65166,15.3872 0,2.75675 -1.56648,3.07037 -2.25152,0.45076 -0.53141,-2.0321 -12.65826,-12.56973 -13.49848,-11.72951 -0.28651,0.2865 0.15728,1.55597 0.98618,2.82103 2.41515,3.68599 8.64034,21.078425 10.74841,30.029775 2.82134,11.98006 9.706,54.35311 11.00436,67.72853 0.61376,6.32281 1.96364,15.32281 2.99973,20 2.76734,12.49256 5.00472,29.8078 5.68596,44.00399 0.52321,10.90289 0.31797,13.58466 -1.60629,20.98928 -4.19753,16.15223 -11.31963,25.28189 -21.81413,27.96306 -7.8633,2.00894 -12.20591,3.59929 -24.31224,8.9036 -12.46646,5.46211 -42.82842,14.60238 -86.94198,26.17333 -15.125,3.96727 -32.34606,8.48515 -38.26902,10.03973 -10.2105,2.67991 -24.10085,5.21866 -44.23098,8.08412 -4.95,0.70461 -8.18681,1.44636 -7.19291,1.64832 4.29958,0.87367 0.68789,3.95269 -12.30709,10.49197 l -13.5,6.79342 6,-0.71543 c 9.01679,-1.07513 9.90929,-1.01049 10.26612,0.74361 0.24824,1.2203 -1.21054,2.0352 -5.96879,3.33427 -14.31864,3.90918 -22.65675,5.50442 -28.8884,5.52692 -3.62509,0.0131 -8.80009,0.69393 -11.5,1.51298 -5.69046,1.72626 -9.04305,1.91185 -9.88639,0.54729 -0.99559,-1.6109 3.11633,-4.86328 7.67471,-6.07042 2.36651,-0.62669 5.42775,-2.17406 6.80275,-3.43858 3.6889,-3.39253 6.87765,-4.77415 24.30469,-10.53073 8.69258,-2.87138 15.59252,-5.43286 15.33319,-5.69219 -0.63338,-0.63338 -11.96297,2.52113 -36.63788,10.20112 -11.275,3.50931 -23.03983,7.09923 -26.14407,7.97761 l -5.64408,1.59705 1.0716,3.49157 c 0.84243,2.74488 2.01499,3.90887 5.48303,5.44295 2.63681,1.16639 4.2248,2.46103 3.94748,3.21827 -0.25518,0.69678 -0.97021,1.15438 -1.58896,1.01688 -1.64911,-0.36647 -1.37542,2.71667 0.29816,3.35889 0.78275,0.30037 4.27025,-0.19672 7.75,-1.10463 3.47976,-0.90791 13.07684,-2.51293 21.32684,-3.56671 8.25,-1.05378 19.05,-2.86753 24,-4.03056 10.53799,-2.47596 22.5,-5.84395 22.5,-6.33503 0,-0.18884 -0.67223,-1.63228 -1.49384,-3.20765 -0.82161,-1.57537 -1.49661,-3.65181 -1.5,-4.61431 -0.003,-0.9625 -0.45616,-1.75 -1.00616,-1.75 -0.55,0 -1,-0.45 -1,-1 0,-1.76679 2.5868,-1.06874 4.8103,1.29807 1.18741,1.26395 2.44945,3.75067 2.80453,5.52606 0.47236,2.36182 1.08024,3.09667 2.26538,2.73861 5.46749,-1.65188 12.87758,-2.85875 21.65732,-3.52731 6.11764,-0.46584 11.32016,-1.4276 13.3219,-2.46274 l 3.28437,-1.69841 -3.8219,-4.21538 c -3.51151,-3.87304 -4.05115,-4.13214 -6.64475,-3.19041 -2.60555,0.94608 -2.65874,1.06372 -0.69098,1.52824 3.67475,0.8675 2.264,2.4783 -2.71163,3.09617 -2.626,0.32609 -4.38194,0.66359 -3.9021,0.75 0.47985,0.0864 0.3395,0.79927 -0.31188,1.58413 -1.36284,1.64212 -12.74693,3.11949 -16.59517,2.15364 -1.70105,-0.42694 -2.48365,-1.2322 -2.29755,-2.36408 0.15524,-0.94412 -0.048,-2.24247 -0.45152,-2.88522 -0.48187,-0.76744 0.38493,-1.39935 2.52495,-1.84071 1.7923,-0.36964 6.29206,-1.74508 9.99947,-3.05653 3.7074,-1.31145 8.54909,-2.50813 10.75931,-2.65929 3.12347,-0.21362 3.87985,-0.60895 3.3958,-1.77484 -2.59138,-6.24167 -0.97423,-6.66668 2.84694,-0.74821 1.50854,2.33651 4.56409,6.16264 6.79013,8.5025 3.97789,4.18131 4.11956,4.23732 8.25721,3.26461 2.31543,-0.54433 15.68487,-3.49533 29.70987,-6.55778 14.025,-3.06245 30.45,-6.87398 36.5,-8.47009 6.05,-1.5961 16.59511,-3.62266 23.43357,-4.50348 6.83846,-0.88081 15.16346,-2.21922 18.5,-2.97423 3.33654,-0.75502 8.76643,-1.66379 12.06643,-2.0195 8.77523,-0.94589 16.03319,-3.14861 24.5,-7.43552 4.125,-2.08857 9.975,-4.34515 13,-5.01463 12.07936,-2.67334 17.86313,-4.26002 20.48278,-5.61912 1.51021,-0.7835 3.94075,-1.42455 5.4012,-1.42455 1.60412,0 5.02295,-1.79508 8.63569,-4.53423 3.28918,-2.49383 7.19483,-4.79548 8.67921,-5.11478 4.67201,-1.00497 6.10094,-3.65295 6.81471,-12.62846 0.4501,-5.65982 0.27359,-9.0017 -0.56632,-10.72253 -0.67112,-1.375 -1.92648,-5.27144 -2.78968,-8.65876 -0.8632,-3.38731 -3.16001,-10.22917 -5.10401,-15.20413 -2.49231,-6.37812 -3.85196,-11.93394 -4.61093,-18.84125 -1.15171,-10.48146 -4.25481,-26.09487 -6.38777,-32.14032 -0.71719,-2.03273 -1.64189,-6.15273 -2.05488,-9.15554 -0.41299,-3.00281 -1.43882,-7.26874 -2.27961,-9.47983 -1.03898,-2.73229 -1.73504,-9.62638 -2.17276,-21.52017 l -0.64405,-17.5 -3.64567,-7.11362 c -2.00513,-3.91248 -4.59821,-10.88748 -5.76242,-15.5 -2.568,-10.17429 -7.53636,-23.13763 -10.68094,-27.86851 -2.2965,-3.45498 -3.15821,-9.017865 -1.39691,-9.017865 0.94602,0 2.65554,2.87428 7.22196,12.142525 4.48306,9.09903 5.828,12.70777 8.34154,22.38185 1.33548,5.13996 3.97023,12.41219 5.855,16.1605 4.63978,9.22728 5.98506,16.38512 5.19562,27.64449 -0.48218,6.87716 -0.25381,10.54612 0.91317,14.67063 0.85588,3.025 2.02267,7.975 2.59287,11 0.5702,3.025 2.57645,11.35 4.45833,18.5 1.88188,7.15 3.94309,17.725 4.58046,23.5 0.85868,7.78017 2.17695,13.19029 5.08926,20.88598 2.16172,5.71229 4.55078,12.76778 5.30903,15.67887 0.75824,2.91109 1.87596,6.22218 2.48382,7.35798 0.73997,1.38264 0.87793,5.58032 0.41749,12.70219 -0.65224,10.08854 -0.83758,10.77066 -3.59401,13.22664 -1.59847,1.42425 -4.79088,3.5294 -7.09424,4.67812 -2.30337,1.14872 -4.59664,2.96195 -5.09616,4.0294 -1.05572,2.25602 -11.63841,9.44082 -13.90565,9.44082 -0.84671,0 -1.68498,-0.63787 -1.86281,-1.41748 -0.27902,-1.22326 -0.8714,-1.2232 -4.32332,4.2e-4 -2.2,0.77985 -8.08628,2.26623 -13.08062,3.30306 -5.4185,1.1249 -11.87112,3.32707 -16,5.46053 -9.811,5.06953 -14.36988,6.48957 -24.77281,7.71644 -5.03061,0.59328 -11.8908,1.69952 -15.24486,2.45829 -3.35406,0.75877 -11.57472,2.05568 -18.26814,2.882 -6.69342,0.82633 -15.57517,2.45795 -19.73721,3.62582 -4.16205,1.16787 -20.24139,4.96166 -35.73186,8.43064 -24.22359,5.42469 -27.63812,6.40938 -24.40261,7.03727 2.06904,0.40153 4.65609,0.49621 5.74901,0.21041 2.64613,-0.69198 3.5343,0.93045 1.19479,2.18252 -2.03965,1.09159 -17.11323,0.90329 -18.95797,-0.23682 -0.63783,-0.3942 -2.86699,0.0159 -4.9537,0.91127 -2.08671,0.8954 -9.41902,2.24578 -16.29402,3.00085 -7.05155,0.77446 -17.0767,2.70441 -23,4.42775 -17.92164,5.21418 -34.04348,8.7466 -45.5,9.96942 -6.05,0.64574 -15.05,2.0827 -20,3.19322 -12.21053,2.73943 -12.60478,2.86584 -11.99821,3.84729 1.04637,1.69306 -1.66127,2.16126 -2.87776,0.49761 -1.06188,-1.45221 -1.81678,-1.54042 -5.18346,-0.60571 -2.16731,0.60173 -5.19303,1.09656 -6.72381,1.09962 -1.53079,0.003 -5.06157,1.16009 -7.84619,2.57117 -2.78462,1.41107 -9.40716,3.3957 -14.71676,4.41028 -5.3096,1.01458 -12.128817,2.84056 -15.153817,4.05773 -5.27261,2.12155 -16.49509,5.47177 -22.21783,6.63264 -1.49481,0.30322 -3.23741,1.17737 -3.87245,1.94254 -1.7733,2.13669 -2.59812,1.71794 -4.98648,-2.53156 z m 17.57676,-6.43452 c 4.4,-1.39649 11.15181,-3.66108 15.00402,-5.0324 3.85221,-1.37133 10.006277,-2.97294 13.675687,-3.55913 3.66942,-0.58619 9.51761,-2.41216 12.99599,-4.0577 3.47837,-1.64554 7.44931,-2.9972 8.82431,-3.00369 1.375,-0.006 4.14592,-0.28397 6.1576,-0.61663 3.51283,-0.58091 3.61871,-0.71638 2.67517,-3.42301 -0.54033,-1.55 -2.08772,-3.54239 -3.43864,-4.42755 -1.53286,-1.00437 -2.38609,-2.4389 -2.26965,-3.81599 0.48742,-5.76476 -1.58966,-8.30558 -2.41697,-2.9566 -0.42209,2.72903 -0.4313,2.73211 -1.20832,0.40338 -0.67015,-2.00845 -1.2309,-2.25296 -3.89109,-1.69673 -10.61055,2.21862 -24.962577,4.84054 -30.108107,5.50034 -3.3,0.42315 -5.4375,0.83093 -4.75,0.90619 0.6875,0.0752 1.25,0.84214 1.25,1.70421 0,1.17182 0.56783,1.38592 2.25,0.84833 7.70332,-2.46183 13.275537,-3.54806 21.000007,-4.09369 7.71043,-0.54464 8.75,-0.42227 8.75,1.02995 0,0.90641 -0.525,1.64802 -1.16667,1.64802 -0.64166,0 -0.84465,0.32202 -0.45107,0.71559 0.39358,0.39358 2.11823,0.73108 3.83256,0.75 4.04266,0.0446 4.59295,1.8422 1.06108,3.46609 -4.16637,1.91563 -47.183027,16.06832 -48.839147,16.06832 -2.16276,0 -1.76468,-1.05956 1.81324,-4.8263 l 3.25,-3.42152 -3.75,0.66922 c -5.48807,0.9794 -4.91348,-1.52454 1.26917,-5.53076 6.70129,-4.34229 5.38172,-5.70945 -3.96387,-4.10685 -7.2148,1.2372 -18.0553,5.44282 -18.0553,7.00463 0,0.87895 2.78543,9.16324 4.80625,14.29455 1.2783,3.24587 4.35131,3.15966 15.69375,-0.44027 z m -27,-7.6427 c -1.5808,-1.65 -3.32419,-3 -3.87419,-3 -0.55,0 0.29339,1.35 1.87419,3 1.5808,1.65 3.32418,3 3.87418,3 0.55,0 -0.29338,-1.35 -1.87418,-3 z m 43.40109,-3.96897 c 6.379397,-2.18293 13.623917,-4.49401 16.098917,-5.13573 8.10787,-2.1022 2.28994,-2.09027 -8.03975,0.0165 -10.400887,2.12128 -14.632047,3.70312 -18.960257,7.08839 -3.52428,2.75648 -2.22119,2.52109 10.90109,-1.96915 z m -6.1578,-4.1662 c 2.33381,-1.04979 8.63381,-3.03219 14.000007,-4.40535 15.66606,-4.0088 17.25671,-4.49811 17.25671,-5.30849 0,-1.20532 -13.21121,0.5113 -21.557767,2.80114 -7.63428,2.09443 -15.26699,5.52561 -18.94224,8.51522 -1.91469,1.55749 -1.8507,1.59872 1.5,0.96653 1.925,-0.36319 5.40948,-1.51927 7.74329,-2.56905 z m -28.24329,-5.33599 4,-1.44105 -4.75,-0.0439 c -3.57506,-0.033 -4.75,0.32714 -4.75,1.45611 0,1.84049 0.46453,1.84293 5.5,0.0288 z m 0.73014,-7.16747 c 2.05158,-0.33913 3.54377,-0.91817 3.31599,-1.28674 -0.22779,-0.36856 0.006,-1.32364 0.51985,-2.12238 0.71899,-1.11792 1.1177,-1.16863 1.73189,-0.22029 1.24268,1.91878 20.57359,-3.63605 40.632237,-11.67586 11.93317,-4.783 12.05278,-4.86504 10.15286,-6.96443 -1.0326,-1.14101 -1.58296,-3.62672 -1.58296,-7.1495 l 0,-5.40035 -4.62489,7.97909 c -5.12558,8.84291 -8.0538,12.47909 -10.04943,12.47909 -1.781527,0 -1.699797,-4.6882 0.17431,-10 0.825,-2.3383 1.50001,-4.46069 1.50001,-4.71642 0,-0.25574 -1.91251,2.38736 -4.250007,5.87354 -7.07833,10.55672 -10.11465,8.62258 -5.25166,-3.34532 1.37409,-3.38165 2.32116,-6.32563 2.10461,-6.54219 -0.21656,-0.21655 -2.71341,3.44661 -5.54856,8.14035 -5.8043,9.60931 -6.84135,10.60187 -8.58525,8.21695 -1.08606,-1.48528 -1.59328,-1.10856 -4.40322,3.27036 -5.26281,8.20138 -7.67815,9.12371 -7.25015,2.76859 0.17379,-2.58054 -0.38738,-3.71235 -2.68164,-5.40857 -4.42385,-3.27069 -6.88109,-9.5355 -8.09266,-20.63248 -0.593,-5.43135 -1.32148,-10.26885 -1.61884,-10.75 -0.29737,-0.48115 0.80934,-0.87481 2.45934,-0.87481 1.65,0 3.28265,-0.45734 3.62811,-1.01631 0.34546,-0.55897 1.03826,-0.76283 1.53955,-0.45302 0.50128,0.30981 5.15173,-1.44496 10.33432,-3.89949 6.9913,-3.31115 12.43572,-5.03242 21.09817,-6.67027 7.543977,-1.42636 11.868067,-2.70989 12.220117,-3.62732 0.29967,-0.78092 0.32192,-1.64277 0.0495,-1.91524 -0.27246,-0.27247 -7.865567,1.55377 -16.873547,4.05831 -20.31214,5.6475 -38.60388,8.54326 -42.1106,6.66652 -1.31369,-0.70306 -3.69531,-1.13539 -5.29249,-0.96074 -4.55252,0.49783 -4.21965,-2.37022 0.89456,-7.70771 2.46735,-2.57507 4.91743,-4.41536 5.44463,-4.08954 1.09004,0.67369 13.7049,-4.79812 14.673,-6.36455 0.40368,-0.65317 1.26116,-0.69048 2.35951,-0.10266 1.11774,0.5982 4.00179,0.41001 8.18931,-0.53438 17.41378,-3.92722 30.236547,-6.33316 31.055577,-5.82697 1.38679,0.85708 1.06535,-2.34579 -1.00928,-10.05663 -2.04152,-7.58778 -8.389107,-26.14008 -9.232157,-26.98313 -0.81878,-0.81878 0.96254,10.86041 2.12128,13.90811 1.03798,2.7301 0.66555,4.57502 -0.92354,4.57502 -0.45872,0 -1.48033,-1.62039 -2.27025,-3.60087 l -1.43622,-3.60086 -2.77392,7.60562 c -2.92078,8.00825 -4.05194,9.51172 -5.82347,7.74019 -0.77554,-0.77554 -0.35048,-3.28379 1.50193,-8.86287 1.42098,-4.27966 2.868,-8.68121 3.2156,-9.78121 0.34761,-1.1 -2.20155,3.625 -5.6648,10.5 -4.23493,8.40691 -6.90936,12.61348 -8.16749,12.84656 -1.59421,0.29535 -1.81058,-0.16818 -1.46405,-3.13647 0.29702,-2.54425 0.06,-3.35004 -0.87932,-2.98958 -2.21791,0.85109 -1.45209,-3.24497 2.13552,-11.42207 5.0938,-11.6101 8.49836,-21.04528 7.83373,-21.70991 -1.48983,-1.48983 -2.78301,0.48793 -10.83496,16.57078 -10.27476,20.52267 -10.87364,21.95191 -8.87729,21.18584 2.02426,-0.77679 1.82294,0.24094 -0.73101,3.69534 -2.11515,2.8609 -4.81194,3.97667 -4.81194,1.99089 0,-0.53273 -0.675,-0.70959 -1.5,-0.39301 -3.00732,1.15402 -1.44869,-3.98583 5.93026,-19.55601 4.08664,-8.62314 7.69318,-17.00683 8.01453,-18.6304 0.72939,-3.68518 -4.70549,7.03704 -9.18584,18.12231 -3.91814,9.69424 -5.6874,12.3557 -7.21458,10.85278 -0.78618,-0.77369 -0.67438,-2.0683 0.40085,-4.64169 1.41156,-3.37835 1.38398,-3.59676 -0.51698,-4.09388 -1.56831,-0.41012 -1.8721,-1.06696 -1.38714,-2.99921 0.35425,-1.41146 0.13918,-2.77183 -0.50075,-3.16733 -0.6322,-0.39072 -0.83671,-1.63841 -0.46863,-2.8591 0.53228,-1.76525 0.41033,-1.93464 -0.65933,-0.91584 -2.01585,1.91996 -2.91244,1.50221 -2.91244,-1.35699 0,-1.89458 0.40573,-2.45129 1.48474,-2.03724 0.88308,0.33887 1.9282,-0.25883 2.57905,-1.47497 0.88096,-1.64608 0.73772,-2.31497 -0.73474,-3.43095 -1.00598,-0.76244 -2.6389,-1.40055 -3.62871,-1.41805 -1.61205,-0.0285 -1.73204,0.61973 -1.151,6.2182 0.35677,3.4375 1.33644,9.4 2.17705,13.25 1.64974,7.55583 1.75672,14.41688 0.24831,15.92529 -2.0978,2.09781 -2.37089,0.29444 -4.07736,-26.92529 -0.10344,-1.65 -0.12266,-4.86293 -0.0427,-7.13984 l 0.14537,-4.13984 5.75,0.4215 c 6.90559,0.50622 18.76454,-2.86621 20.32375,-5.77962 0.54814,-1.02421 1.91037,-1.8622 3.02718,-1.8622 2.7788,0 5.89907,-1.79044 5.89907,-3.38494 0,-1.05011 -1.95379,-0.94466 -9.71193,0.52418 -10.30363,1.95077 -28.11492,4.85722 -32.28807,5.26877 -1.375,0.1356 -3.45334,0.75844 -4.61852,1.38409 -1.16518,0.62564 -2.35405,0.902 -2.64191,0.61414 -0.28787,-0.28787 -2.20439,0.17896 -4.25894,1.03741 -3.655501,1.52736 -3.721371,1.64942 -3.074161,5.69682 0.36375,2.27481 1.778671,13.6363 3.144251,25.24777 2.87314,24.43013 5.59462,39.84765 8.50939,48.20684 2.29386,6.57849 7.40263,27.45146 8.42078,34.40492 1.0295,7.031 2.48336,10.83583 4.32608,11.32165 2.64665,0.69776 8.33245,0.71594 12.42317,0.0397 z m 32.87084,-4.40723 c 14.547617,-1.94097 31.476047,-5.19782 32.538237,-6.26002 0.60781,-0.60781 -0.52521,-6.89162 -1.53813,-8.53056 -0.5418,-0.87666 -3.59799,0.0605 -11.17344,3.4263 -5.7352,2.54817 -16.277647,6.60209 -23.427647,9.00872 -7.15,2.40662 -12.71487,4.38147 -12.36637,4.38855 0.34849,0.007 7.5338,-0.90777 15.96735,-2.03299 z m 83.990097,-6.28388 c 5.59537,-1.68758 24.12065,-9.79187 23.59178,-10.32075 -0.50695,-0.50694 -30.6792,9.30565 -32.68285,10.62909 -2.28829,1.51145 3.73462,1.30717 9.09107,-0.30834 z m -18.09107,-9.25521 c 11.825,-3.66827 25.6625,-7.81175 30.75,-9.20773 7.38299,-2.02586 9.25,-2.90845 9.25,-4.37274 0,-2.34275 -0.20048,-2.31687 -4.46336,0.57599 -3.52327,2.39096 -8.33479,3.50334 -25.78664,5.96166 -7.90301,1.11324 -11.19508,0.78001 -7.25,-0.73386 1.63908,-0.62897 2.06946,-2.63837 0.5651,-2.63837 -0.5142,0 -2.2017,-0.52479 -3.75,-1.16621 -1.54831,-0.64141 -4.04331,-1.20391 -5.54445,-1.25 -2.71996,-0.0835 -2.72718,-0.0653 -2.09651,5.30071 0.50812,4.32334 0.36137,5.294 -0.74466,4.92533 -1.74762,-0.58254 -3.54985,-9.52001 -4.44684,-22.05241 -0.94413,-13.19089 0.90937,-12.83534 2.56782,0.49258 l 1.27546,10.25 1.20055,-7 c 1.34253,-7.82782 5.1234,-17.49592 6.84667,-17.5077 0.61977,-0.004 2.1528,-1.80424 3.40672,-4 1.25392,-2.19577 2.15392,-3.98886 2,-3.98466 -0.15392,0.004 -3.20486,0.90076 -6.77986,1.99236 -7.18655,2.19435 -11.57962,2.49053 -15.3995,1.03821 -1.61946,-0.61572 -2.74358,-0.61572 -3.12412,0 -0.69791,1.12925 -4.47999,1.3085 -4.46858,0.21179 0.004,-0.4125 1.20758,-1.30711 2.67398,-1.98802 2.04916,-0.95151 3.54759,-0.97394 6.47489,-0.0969 3.11875,0.9344 5.03467,0.81648 10.57603,-0.6509 3.72201,-0.98561 7.39104,-2.11917 8.1534,-2.51902 1.98094,-1.03899 -29.47518,-2.31537 -36.23801,-1.47041 -4.05375,0.50649 -5.64809,1.13114 -5.64809,2.21291 0,1.22959 0.27764,1.2768 1.50724,0.25632 1.26956,-1.05364 1.67761,-0.76218 2.58764,1.84834 0.59422,1.70458 1.5954,2.99989 2.22484,2.87846 0.73209,-0.14124 1.38156,2.48151 1.80255,7.27921 0.79357,9.04388 3.33862,22.85601 6.04755,32.82041 1.09457,4.02622 1.73197,7.99314 1.41644,8.81539 -0.40977,1.06786 -0.0755,1.34554 1.17003,0.97191 0.95904,-0.28769 11.41871,-3.52438 23.24371,-7.19266 z m 79.97146,2.88861 c 0.89624,-0.99493 -7.2377,0.56258 -8.25601,1.58089 -0.60223,0.60223 0.65305,0.59537 3.38516,-0.0185 2.38827,-0.53661 4.58016,-1.23969 4.87085,-1.5624 z M 92.929233,337.11188 c 4.58967,-6.7375 8.952967,-12.25 9.696207,-12.25 1.98965,0 1.65153,1.90891 -0.95746,5.40561 -2.870297,3.84689 -6.988197,10.59439 -6.465617,10.59439 0.21378,0 2.53638,-2.925 5.161327,-6.5 2.62495,-3.575 5.44925,-6.5 6.27621,-6.5 0.82696,0 1.35357,0.3375 1.17023,0.75 -0.18333,0.4125 -1.99035,4.125 -4.01559,8.25 -4.023217,8.19445 -8.035897,18 -7.366067,18 0.23237,0 3.22336,-4.5 6.646657,-10 5.72851,-9.20367 7.90167,-11.66525 7.90167,-8.95034 0,0.57731 -0.6313,2.27046 -1.40289,3.76255 -2.01011,3.88712 -8.71394,23.4043 -8.21156,23.90669 0.59703,0.59702 5.50336,-6.81605 10.83138,-16.36536 4.81042,-8.6216 5.3157,-12.73233 1.70585,-13.87805 -1.19595,-0.37958 -2.47243,-2.6147 -3.58786,-6.28235 -0.95229,-3.13123 -1.81129,-5.82472 -1.9089,-5.98553 -0.0976,-0.16082 -3.07583,0.43565 -6.61826,1.32548 -6.360787,1.59778 -6.491887,1.7008 -10.552887,8.29239 -3.64488,5.91618 -17.25488,33.52013 -17.25488,34.99655 0,0.3146 2.38671,-3.22915 5.3038,-7.87501 2.91709,-4.64586 9.05898,-13.95952 13.64864,-20.69702 z m -20.0634,23.63846 c 0.94487,-2.71045 0.89302,-2.95248 -0.40218,-1.87756 -0.81777,0.67869 -1.48686,2.07889 -1.48686,3.11154 0,2.73394 0.65496,2.3061 1.88904,-1.23398 z m 47.770307,-8.88846 c -1.13378,-3.85 -2.42095,-7 -2.86038,-7 -1.16862,0 -0.97677,9.79924 0.23622,12.06574 0.56935,1.06384 1.85653,1.93426 2.86039,1.93426 1.74444,0 1.73398,-0.30974 -0.23623,-7 z m -45.467587,-0.75 c 7.16189,-9.67857 16.83223,-26.25 15.31832,-26.25 -4.29939,0 -6.2809,2.14532 -11.80923,12.78547 -5.35394,10.30451 -9.15083,19.21453 -8.18804,19.21453 0.23326,0 2.33878,-2.5875 4.67895,-5.75 z m -13.07558,0.15093 c -0.5034,-2.14551 -0.95434,-3.00093 -1.00207,-1.90093 -0.10322,2.3783 0.97488,6.74434 1.52863,6.1906 0.2138,-0.2138 -0.0232,-2.14415 -0.52656,-4.28967 z m 148.800497,1.95839 c 1.00348,-0.86538 -3.5663,-0.22744 -4.91667,0.68637 -1.09546,0.74131 -0.69092,0.83408 1.5,0.34401 1.65,-0.36908 3.1875,-0.83275 3.41667,-1.03038 z M 69.266543,349.86188 c 0.32686,-1.24993 0.0307,-2 -0.78975,-2 -0.82043,0 -1.11661,0.75007 -0.78975,2 0.28766,1.1 0.64304,2 0.78975,2 0.14671,0 0.50209,-0.9 0.78975,-2 z m 116.150787,-0.64549 c 3.26729,-0.8294 6.86729,-2.18666 8,-3.01612 1.91414,-1.40169 1.74191,-1.46169 -2.44053,-0.85021 -2.475,0.36186 -6.75,1.4918 -9.5,2.51099 -2.75,1.01919 -6.575,2.3248 -8.5,2.90135 -3.26603,0.97819 -3.16576,1.01196 1.5,0.50513 2.75,-0.29872 7.67324,-1.22173 10.94053,-2.05114 z M 64.318353,344.57923 c -0.32824,-2.0227 -0.94712,-3.46113 -1.37528,-3.19651 -0.42816,0.26462 -0.29535,2.0553 0.29514,3.97929 1.34921,4.39611 1.86043,4.02562 1.08014,-0.78278 z m 163.143707,-0.29114 c 9.34189,-1.40987 17.19189,-2.77003 17.44444,-3.02258 0.25255,-0.25255 -0.47349,-1.39186 -1.61342,-2.5318 -1.74527,-1.74526 -2.42087,-1.88622 -4.27763,-0.89251 -2.74055,1.46669 -5.56798,-0.70435 -7.78708,-5.97932 -2.69098,-6.39666 -9.05686,-16.43593 -13.63309,-21.5 l -4.51834,-5 2.37141,9 c 1.30428,4.95 2.85674,10.26679 3.44993,11.8151 1.29576,3.38212 1.43724,6.48837 0.23389,5.1349 -1.03397,-1.16295 -4.71891,-11.4915 -6.04729,-16.95 -2.69624,-11.0792 -3.28607,-12.72201 -4.22912,-11.77896 -0.63392,0.63392 0.61697,7.31654 3.5728,19.08686 2.50153,9.96129 4.54824,19.35487 4.54824,20.87462 l 0,2.7632 -2.95755,-3.23809 c -1.62665,-1.78096 -3.25495,-4.91875 -3.61844,-6.97287 -0.3635,-2.05412 -1.76075,-7.55976 -3.10501,-12.23476 -1.4253,-4.9568 -2.82534,-13.40752 -3.35866,-20.27296 -0.503,-6.47513 -1.44908,-12.77513 -2.10241,-14 -2.2473,-4.21332 -17.94155,-27.72704 -18.50643,-27.72704 -0.31101,0 -0.31199,0.66059 -0.002,1.46797 0.30982,0.80739 0.15397,1.72097 -0.34634,2.03018 -0.50032,0.30921 -1.39801,-1.25138 -1.99488,-3.46798 -0.59702,-2.21659 -1.29302,-4.03017 -1.54682,-4.03017 -0.2538,0 -0.46146,2.00182 -0.46146,4.44848 0,3.27578 0.61583,5.11296 2.33607,6.96914 1.3027,1.40563 3.53496,6.51549 5.04633,11.55152 2.17375,7.24317 3.08531,9.03086 4.60491,9.03086 2.76145,0 3.46028,1.84793 1.51269,4 -1.03957,1.14871 -1.37903,2.38214 -0.87711,3.18699 0.45035,0.72215 0.91017,2.66301 1.02182,4.31301 0.27229,4.024 3.82394,19.84317 5.78129,25.75 3.92626,11.8486 4.45951,14.18303 3.50306,15.33548 -0.63189,0.76138 -0.60634,2.13313 0.073,3.91991 0.95327,2.50728 1.37227,2.69314 4.77149,2.11643 2.04955,-0.34772 11.36983,-1.78575 20.71172,-3.19561 z m -61.82515,-14.17621 c 4.08261,-6.1875 7.82769,-11.25 8.3224,-11.25 0.4947,0 1.20772,0.49878 1.58448,1.10839 0.43335,0.70119 1.52427,0.0583 2.96938,-1.75 2.96178,-3.70604 4.30131,-2.33823 2.14285,2.18809 -0.92357,1.93676 -1.67922,3.76175 -1.67922,4.05554 0,1.39086 6.2487,-4.12594 7.04469,-6.21956 1.17006,-3.07748 2.95531,-3.07111 2.95531,0.0106 0,2.02232 2.56236,4.37796 3.61602,3.3243 0.53,-0.52999 -1.71461,-8.12591 -2.70895,-9.16731 -1.42313,-1.49048 -1.06198,-2.82342 0.59293,-2.18837 1.64614,0.63168 1.76315,0.22183 0.87864,-3.07748 -0.52984,-1.97636 -1.13176,-2.17818 -5.56908,-1.86726 -6.95424,0.48728 -8.31642,2.2346 -2.4302,3.11729 7.023,1.05316 5.52053,2.39369 -2.62936,2.34595 -3.9875,-0.0234 -9.05,0.6021 -11.25,1.3899 -3.55141,1.27174 -3.96659,1.75747 -3.70212,4.33117 0.21973,2.13824 -1.13812,5.08079 -5.17533,11.21525 -5.58269,8.48272 -7.62255,12.90016 -7.62255,16.50704 0,1.93181 0.12061,1.91343 2.61858,-0.39923 1.44023,-1.33337 5.95891,-7.48681 10.04153,-13.67431 z m -0.21301,6.5 c 4.59279,-8.6086 4.27245,-8.51741 -1.75652,0.5 -2.48214,3.7125 -3.97264,6.75 -3.31222,6.75 0.66042,0 2.94135,-3.2625 5.06874,-7.25 z m 21.06455,5.2428 c 3.21218,-1.98524 3.2331,-2.04816 1.91193,-5.75 -0.73469,-2.05854 -1.38843,-5.0928 -1.45275,-6.7428 -0.1023,-2.62385 -0.3541,-2.33241 -2.00825,2.32429 -1.04021,2.92837 -2.84403,6.86587 -4.0085,8.75 l -2.1172,3.42571 2.21353,0 c 1.21744,0 3.675,-0.90324 5.46124,-2.0072 z M 69.611703,334.16345 c -1.06177,-1.06176 -4.39445,4.90193 -3.86684,6.91953 0.49885,1.90762 0.81845,1.62316 2.42417,-2.15766 1.01726,-2.39523 1.66646,-4.53807 1.44267,-4.76187 z m 106.737507,2.64475 c 2.90111,-4.87011 3.36386,-6.31314 2.36687,-7.38079 -1.00592,-1.07721 -1.85127,-0.006 -4.48928,5.68823 -3.61924,7.81237 -3.59903,7.74624 -2.36688,7.74624 0.48572,0 2.5059,-2.72416 4.48929,-6.05368 z m 20.07638,4.13653 c 0.23059,-0.37309 0.0819,-1.22417 -0.3304,-1.8913 -0.53791,-0.87036 -1.38179,-0.54008 -2.9877,1.16934 l -2.23805,2.38229 2.56846,-0.49099 c 1.41265,-0.27005 2.75711,-0.79625 2.98769,-1.16934 z m -16.94879,-3.08285 c 0.85325,-1.65 1.32636,-3 1.05136,-3 -0.275,0 -1.19811,1.35 -2.05136,3 -0.85325,1.65 -1.32636,3 -1.05136,3 0.275,0 1.19811,-1.35 2.05136,-3 z M 60.976793,336.80286 c 0,-0.51754 -0.45,-0.94098 -1,-0.94098 -0.55,0 -1,0.70156 -1,1.55902 0,0.85746 0.45,1.2809 1,0.94098 0.55,-0.33992 1,-1.04148 1,-1.55902 z m 14.95196,-2.37116 c 3.65743,-5.31589 3.74417,-5.84412 0.73446,-4.4728 -1.47192,0.67065 -2.69465,2.4818 -3.36107,4.97856 -0.57612,2.15843 -0.90663,3.92442 -0.73446,3.92442 0.17217,0 1.68465,-1.99358 3.36107,-4.43018 z m 118.731157,-2.75732 c -0.31922,-0.79773 -0.55618,-0.56078 -0.60416,0.60417 -0.0434,1.05416 0.19292,1.64479 0.52522,1.3125 0.33229,-0.33229 0.36781,-1.1948 0.0789,-1.91667 z m -2.10979,-1.8125 c 2.32251,0 1.76374,-4.75824 -0.64868,-5.52392 -2.8524,-0.90532 -3.10034,-0.39532 -2.25595,4.64042 0.40426,2.41092 0.90218,3.596 1.10649,2.6335 0.20431,-0.9625 1.01347,-1.75 1.79814,-1.75 z M 53.148053,321.20689 c 2.20588,-1.99629 2.35261,-3.34501 0.36392,-3.34501 -1.27987,0 -3.53518,2.82889 -3.53518,4.43426 0,1.03777 1.32309,0.58332 3.17126,-1.08925 z m 34.35507,-5.94097 c 1.46501,-0.3677 2.141,-1.10739 1.80714,-1.97743 -0.57538,-1.4994 -2.21093,-0.91574 -5.83347,2.08175 -1.79618,1.48625 -1.81219,1.5952 -0.1571,1.06901 1.0136,-0.32224 2.89614,-0.85024 4.18343,-1.17333 z m 13.445657,-5.38975 c 3.45439,-1.76229 6.04873,-4.01429 4.62455,-4.01429 -1.74927,0 -11.596537,4.30679 -11.596537,5.07185 0,1.49779 2.79375,1.07402 6.971987,-1.05756 z m 12.02802,-1.39998 c 0,-0.21213 -0.61402,-1.56922 -1.36449,-3.01575 -1.18711,-2.28816 -1.52801,-2.43302 -2.62244,-1.11431 -0.86333,1.04025 -0.90584,1.51575 -0.13551,1.51575 0.61734,0 1.12244,0.675 1.12244,1.5 0,0.825 0.675,1.5 1.5,1.5 0.825,0 1.5,-0.17356 1.5,-0.38569 z m 41.04364,-3.57067 c -1.79765,-1.79765 -2.42237,-1.85861 -7.70118,-0.75136 -5.19363,1.08937 -5.46167,1.26573 -2.79365,1.83804 1.62316,0.34818 5.08869,0.68629 7.70119,0.75137 4.71468,0.11743 4.73545,0.10376 2.79364,-1.83805 z m 16.89814,-2.12457 c 4.60224,-0.98701 6.93089,-2.37974 5.82611,-3.48451 -0.82703,-0.82704 -17.74939,2.78635 -17.20143,3.67298 0.74158,1.19989 5.2499,1.12519 11.37532,-0.18847 z m -35.21261,-0.52324 c -0.3323,-0.33229 -1.1948,-0.36781 -1.91667,-0.0789 -0.79773,0.31922 -0.56078,0.55618 0.60417,0.60416 1.05416,0.0434 1.64479,-0.19293 1.3125,-0.52522 z m 4.52083,-1.05811 c -0.6875,-0.27741 -1.8125,-0.27741 -2.5,0 -0.6875,0.27741 -0.125,0.50439 1.25,0.50439 1.375,0 1.9375,-0.22698 1.25,-0.50439 z m 4.47917,-0.94189 c -0.3323,-0.33229 -1.1948,-0.36781 -1.91667,-0.0789 -0.79773,0.31922 -0.56078,0.55618 0.60417,0.60416 1.05416,0.0434 1.64479,-0.19293 1.3125,-0.52522 z m -20.21221,-2.42328 c 0.26719,-0.43232 -0.42183,-0.54868 -1.53116,-0.25858 -1.10933,0.29009 -2.23558,0.88116 -2.50276,1.31348 -0.26719,0.43232 0.42183,0.54868 1.53116,0.25858 1.10933,-0.29009 2.23558,-0.88116 2.50276,-1.31348 z m 36.98304,-1.03815 c 6.23268,-0.93171 22.07136,-5.43342 24.58703,-6.98819 0.57437,-0.35498 0.12934,-3.27263 -1.11237,-7.29283 -1.79653,-5.8165 -2.25889,-6.512 -3.5024,-5.2685 -1.45036,1.45036 -4.12609,2.01066 -14.97226,3.13518 -11.72156,1.21529 -22.45801,3.44673 -28.60874,5.94599 -6.6822,2.71523 -7.89126,2.98221 -7.89126,1.74252 0,-0.43528 3.86315,-2.12278 8.58477,-3.75 7.46323,-2.57205 8.75634,-3.36721 9.89797,-6.08649 0.72226,-1.72036 1.80911,-3.43442 2.41523,-3.80902 0.60611,-0.3746 1.10203,-1.39928 1.10203,-2.27706 0,-1.45685 -0.1526,-1.45787 -1.75063,-0.0117 -1.20481,1.09034 -2.26013,1.29916 -3.3848,0.66977 -1.28157,-0.71721 -1.89801,-0.27758 -2.85696,2.03753 -1.66495,4.01955 -3.7436,5.68239 -5.23678,4.18921 -0.85921,-0.85921 -0.69198,-2.58066 0.67102,-6.90762 2.7972,-8.87992 2.81256,-9.00979 0.593,-5.01321 -1.14545,2.0625 -2.69439,3.75 -3.44211,3.75 -1.60646,0 -2.56015,3.05068 -2.57909,8.25 -0.008,2.0625 -0.44631,3.75 -0.97511,3.75 -1.87161,0 -6.28878,-19.54259 -6.57575,-29.09267 -0.30274,-10.07517 -1.03276,-12.27182 -3.80919,-11.46209 -1.18448,0.34544 -4.6286,0.89787 -7.6536,1.22761 -3.025,0.32974 -6.2875,1.00407 -7.25,1.49852 -1.09933,0.56474 -1.75,0.52719 -1.75,-0.101 0,-1.52538 2.92419,-2.77013 9.25842,-3.94108 5.59992,-1.0352 10.32792,-2.87628 9.50353,-3.70067 -0.32479,-0.3248 -19.48,3.527 -20.53574,4.1294 -0.15058,0.0859 1.52835,7.08302 3.73096,15.5491 2.20261,8.46608 4.89396,20.51103 5.98078,26.76654 1.08682,6.25551 2.14408,11.5417 2.34946,11.74708 0.20538,0.20539 2.45142,-0.33461 4.99118,-1.2 6.00776,-2.04705 9.12526,-1.59877 9.54666,1.37276 0.2301,1.62254 0.81521,2.13944 2,1.76689 3.44643,-1.08371 12.5654,-2.56039 15.81124,-2.56039 3.40052,0 4.74303,2.17732 2.11351,3.42775 -0.6875,0.32694 -0.125,0.36012 1.25,0.0737 1.375,-0.28637 5.65,-0.99157 9.5,-1.56709 z m -70.622757,-38.4344 c -0.01,-1.65 -0.38789,-3.9 -0.8402,-5 -0.89818,-2.18435 -0.79037,-2.36433 -2.99502,5 -0.65861,2.2 -2.73283,8.95 -4.60937,15 -1.87655,6.05 -3.39296,11.225 -3.36982,11.5 0.16893,2.00684 11.82839,-24.14561 11.81441,-26.5 z m 65.956607,19.62385 c 1.05357,-0.66786 0.96374,-0.98754 -0.42755,-1.52143 -1.04463,-0.40086 -2.38673,-0.0506 -3.29813,0.86084 -1.38232,1.38232 -1.33936,1.5352 0.42754,1.52143 1.08036,-0.008 2.56452,-0.3958 3.29814,-0.86084 z m 20.09705,-1.68813 c 3.72187,-0.71656 5.7932,-2.94388 3.54131,-3.80801 -0.86836,-0.33322 -4.14234,0.74997 -7.27552,2.40708 -5.92463,3.1335 -5.70088,3.21744 3.73421,1.40093 z m -69.24779,-1.62322 c -0.31922,-0.79773 -0.55618,-0.56078 -0.60416,0.60417 -0.0434,1.05416 0.19292,1.64479 0.52522,1.3125 0.33229,-0.33229 0.36781,-1.1948 0.0789,-1.91667 z m -46.583807,-7.64541 c 2.19732,-5.00912 2.22562,-5.16709 0.92568,-5.16709 -1.00563,0 -4.27275,6.58498 -5.45762,11 -0.65692,2.44781 -0.63646,2.45825 0.98016,0.5 0.90809,-1.1 2.50639,-3.94981 3.55178,-6.33291 z m 43.866407,-3.25626 c -2.41093,-9.91119 -2.86845,-11.34142 -3.44399,-10.7659 -0.23715,0.23716 0.65984,4.46407 1.9933,9.39313 1.33347,4.92907 2.43809,9.37444 2.45473,9.87861 0.0166,0.50416 0.25788,0.68904 0.53609,0.41083 0.27821,-0.27821 -0.41485,-4.29071 -1.54013,-8.91667 z m 71.59155,4.99651 c 0.82916,-1.3416 -2.01995,0.10501 -5.05726,2.56779 -1.85647,1.50531 -1.77131,1.51107 1.18659,0.0804 1.75262,-0.84771 3.49443,-2.03939 3.87067,-2.64818 z m -10.92408,-1.28157 c 0.0733,-0.0692 0.46347,-1.70077 0.86716,-3.62577 l 0.73396,-3.5 -2.29623,3 c -1.26293,1.65 -2.77462,3.62741 -3.35931,4.39425 -0.86948,1.14034 -0.60924,1.2543 1.42908,0.62577 1.37069,-0.42266 2.55209,-0.82507 2.62534,-0.89425 z m -30.63318,-4.12577 c 0,-0.825 -0.45,-1.5 -1,-1.5 -0.55,0 -1,0.675 -1,1.5 0,0.825 0.45,1.5 1,1.5 0.55,0 1,-0.675 1,-1.5 z m 38,-3.61803 c 0,-1.1 -0.45,-1.72189 -1,-1.38197 -0.55,0.33992 -1,1.51803 -1,2.61803 0,1.1 0.45,1.72189 1,1.38197 0.55,-0.33992 1,-1.51803 1,-2.61803 z m -24.01531,-5.19099 c 0.008,-0.44496 -0.43469,-0.5309 -0.98469,-0.19098 -0.55,0.33992 -0.99311,1.37898 -0.98469,2.30902 0.0132,1.45727 0.14929,1.48367 0.98469,0.19098 0.53316,-0.825 0.97627,-1.86406 0.98469,-2.30902 z m -10.98469,-1.81342 c 0,-1.74093 -1.77908,-0.83036 -2.30469,1.17959 -0.44142,1.68797 -0.28289,1.84546 0.88336,0.87756 0.78173,-0.64878 1.42133,-1.5745 1.42133,-2.05715 z m -40.947117,-1.42783 c -0.86505,-2.89637 -0.88254,-2.903 -0.96694,-0.3664 -0.0473,1.42084 0.21405,2.88334 0.58072,3.25 1.16111,1.16112 1.29521,0.15993 0.38622,-2.8836 z m 46.866827,0.55027 c 1.12265,-2.35727 1.10183,-2.38918 -0.36454,-0.55887 -0.85535,1.06762 -1.55517,2.38012 -1.55517,2.91667 0,1.27054 0.4619,0.70323 1.91971,-2.3578 z m 14.61454,-1.07595 c 1.56664,-3.4742 1.62721,-4.20623 0.41023,-4.95836 -1.85106,-1.14402 -2.4481,-0.37201 -3.69998,4.78431 -1.3824,5.69389 0.74978,5.8067 3.28975,0.17405 z m 7.46575,3.0968 c 1.30928,-0.82792 1.27289,-1.17563 -0.28616,-2.73469 -1.55906,-1.55905 -1.90677,-1.59544 -2.73469,-0.28616 -1.33381,2.10929 -1.2051,4.00277 0.27085,3.98469 0.6875,-0.008 1.925,-0.44215 2.75,-0.96384 z m 10.45729,-1.08995 c -0.94036,-1.52154 -2.44282,-1.05677 -1.82112,0.56336 0.31537,0.82184 0.98359,1.24074 1.48493,0.9309 0.50134,-0.30985 0.65263,-0.98226 0.33619,-1.49426 z M 31.421813,246.37671 c 9.17714,-7.79911 11.03079,-8.86321 14.09841,-8.09328 2.04232,0.51258 2.62342,-0.0103 4.35063,-3.91497 1.09641,-2.47862 2.39274,-4.50658 2.88073,-4.50658 1.50518,0 3.5294,4.76491 2.81505,6.62647 -0.62075,1.61767 -0.5087,1.61007 1.37326,-0.0931 1.12704,-1.01996 2.3425,-1.56113 2.70102,-1.20261 0.35852,0.35852 1.25337,0.15265 1.98854,-0.45749 0.73518,-0.61014 2.25094,-0.87027 3.36836,-0.57805 1.29979,0.3399 3.13513,-0.39721 5.09483,-2.04618 2.27073,-1.9107 3.26281,-2.25441 3.83496,-1.32867 0.54829,0.88717 1.50112,0.31692 3.29023,-1.96914 2.53934,-3.24467 5.13799,-3.3513 4.12436,-0.16923 -0.30099,0.94488 0.78137,0.17975 2.40524,-1.7003 l 2.9525,-3.41826 -2.28107,-5.61376 c -1.25459,-3.08757 -3.47308,-9.87435 -4.92996,-15.08174 -1.45689,-5.20738 -2.88022,-10.14297 -3.16296,-10.96797 -0.68756,-2.00621 -4.67187,5.55001 -7.34368,13.92725 -1.62094,5.0823 -1.78368,6.59942 -0.77768,7.25 1.00224,0.64816 0.9539,1.03273 -0.22779,1.81225 -0.825,0.54422 -1.99021,0.81108 -2.58935,0.59303 -0.59914,-0.21806 -1.86208,0.91167 -2.80653,2.5105 -0.94446,1.59883 -2.55971,2.90697 -3.58945,2.90697 -1.02975,0 -3.59153,1.62148 -5.69286,3.60329 -4.09037,3.85773 -8.32471,6.39674 -10.66791,6.39674 -1.77737,0 -7.05505,-8.05121 -9.12676,-13.92305 -0.84173,-2.38572 -1.99734,-7.26051 -2.56803,-10.83287 -0.57068,-3.57236 -1.66058,-7.69988 -2.42198,-9.17228 -1.19751,-2.31572 -1.17256,-3.11445 0.18485,-5.91718 1.9301,-3.98523 4.63385,-5.53345 8.36141,-4.78794 1.56148,0.3123 3.07222,0.19056 3.35719,-0.27053 0.28496,-0.4611 -1.38509,-1.09784 -3.71123,-1.41498 -5.36272,-0.73116 -15.082391,3.23526 -14.113731,5.75955 0.65511,1.70719 -1.1186,2.1725 -2.11789,0.55561 -0.34117,-0.55202 -1.71353,-0.72929 -3.0497,-0.39393 -1.76969,0.44416 -2.61299,0.13131 -3.10547,-1.15209 -0.86661,-2.25834 2.12967,-4.74192 8.4238,-6.98237 2.603501,-0.92674 10.290591,-4.11115 17.082421,-7.07646 6.79183,-2.96531 12.97933,-5.39148 13.75,-5.39148 2.3706,0 1.56098,1.70128 -1.84878,3.88495 l -3.25,2.08136 3,-0.0358 c 1.65,-0.0197 6.375,-0.64121 10.5,-1.38121 8.00712,-1.43641 10.44132,-1.07643 7.46036,1.1033 -1.01344,0.74109 -1.47223,1.3474 -1.01952,1.3474 0.90226,0 7.55916,-3.95947 7.55916,-4.49612 0,-0.51975 -5.97315,-16.58405 -7.67148,-20.63183 -0.8372,-1.99536 -1.34996,-4.47036 -1.13947,-5.5 0.2108,-1.03114 2.56167,4.07975 5.23355,11.37795 2.66796,7.2875 5.25343,13.25 5.7455,13.25 1.83447,0 1.96703,-3.1107 0.42204,-9.9035 -2.06437,-9.07635 -2.11737,-16.09651 -0.12152,-16.09651 0.84007,0 1.24125,0.59248 0.93738,1.38438 -0.29218,0.7614 1.12967,7.6239 3.15966,15.25001 2.03,7.62609 5.44012,21.29062 7.57804,30.36562 5.08921,21.6025 9.982767,39 10.969907,39 0.43385,0 3.38032,-0.675 6.54771,-1.5 8.03624,-2.09317 18.14224,-1.98776 20.57584,0.21462 1.2818,1.16001 3.32887,1.65219 6.32874,1.52163 5.99331,-0.26084 5.74105,1.48117 -0.81589,5.63414 l -5.25,3.3252 5.5,-0.64649 c 3.025,-0.35556 9.71515,-1.03722 14.86699,-1.51478 5.15185,-0.47757 9.77404,-1.27535 10.27153,-1.77284 0.53937,-0.53937 -2.43467,-3.55447 -7.367,-7.46871 -9.37503,-7.43991 -18.09414,-16.28173 -22.22992,-22.54277 -3.14194,-4.7565 -4.00304,-5.33121 -2.99659,-2 1.18793,3.93193 -1.36293,0.57811 -2.87057,-3.77416 l -1.37725,-3.97584 -1.01172,8 c -0.55645,4.4 -0.86517,8.17065 -0.68604,8.37923 0.17913,0.20857 0.86477,-0.80393 1.52364,-2.25 0.65888,-1.44608 1.57573,-2.62923 2.03745,-2.62923 1.30519,0 1.00344,1.21882 -1.19417,4.82336 -2.26136,3.70911 -4.56181,3.74959 -4.28681,0.0754 0.0987,-1.31933 0.34949,-4.74953 0.5572,-7.62265 0.20771,-2.87313 0.68942,-5.53563 1.07046,-5.91667 1.72153,-1.72154 0.25028,-5.14317 -5.46442,-12.70841 l -6.15723,-8.15106 0.6876,5.93414 c 0.37818,3.26378 1.16494,6.50929 1.74835,7.21225 1.47022,1.77151 1.95371,15.54535 0.529,15.07044 -1.65378,-0.55126 -5.36345,-10.92678 -7.17199,-20.05925 -2.81611,-14.22032 -4.693387,-20.06955 -7.371367,-22.96776 -2.36937,-2.56421 -3.01285,-2.75293 -7.35189,-2.15616 -5.33659,0.73397 -6.3745,-0.75829 -2.78611,-4.00574 1.94653,-1.76159 1.93119,-1.82642 -1.33491,-5.64214 -1.81724,-2.12304 -5.20538,-8.31279 -7.52919,-13.75501 -2.32381,-5.44222 -5.3231,-10.92645 -6.66508,-12.18718 -1.34198,-1.26069 -2.43997,-2.64377 -2.43997,-3.07347 0,-1.00332 -4.22284,-7.2358 -6.33109,-9.34404 -1.49168,-1.49168 -3.3282,-1.45729 -23.39384,0.43804 -11.97629,1.13125 -23.864651,2.32872 -26.418581,2.66106 l -4.6434997,0.60425 -0.66397,13.63529 c -0.94939,19.49637 1.20349,37.65048 9.9182597,83.63531 1.35502,7.15 3.01211,18.7375 3.68241,25.75 0.6703,7.0125 1.54398,12.75 1.94151,12.75 0.39753,0 4.156741,-2.91833 8.353821,-6.48517 z m 82.850267,-43.49698 c 0.32195,-3.84018 1.08657,-7.77768 1.69916,-8.75 0.86608,-1.37465 0.9746,-0.65578 0.48792,3.23215 -0.34424,2.75 -0.86865,6.01759 -1.16537,7.2613 -0.43692,1.83143 -0.21106,2.13528 1.1881,1.59837 1.49835,-0.57497 1.57478,-0.37743 0.57606,1.4887 -2.30978,4.31586 -3.39492,2.43429 -2.78587,-4.83052 z M 25.549793,162.91941 c 0.94957,-8.39312 -0.29947,-19.05754 -2.232051,-19.05754 -1.14627,0 -1.34453,-0.70725 -0.84095,-3 0.3624,-1.65 0.26809,-3 -0.20958,-3 -0.47767,0 -0.85093,-2.73632 -0.82946,-6.0807 0.0484,-7.54608 1.82654,-9.36981 8.220231,-8.4312 3.56339,0.52311 18.71191,-1.65373 29.21796,-4.19863 1.42876,-0.3461 2.15687,-0.18913 1.80013,0.38808 -0.32946,0.53308 -5.1197,1.7987 -10.64497,2.81248 -5.93858,1.08962 -10.61338,2.49062 -11.4338,3.42661 -2.00717,2.28993 -7.62051,15.54962 -7.62051,18.00097 0,1.14532 -0.45,2.08239 -1,2.08239 -1.42814,0 -1.23637,-2.49852 0.51312,-6.68566 1.93913,-4.64099 1.43733,-5.09117 -1.39889,-1.25498 -2.15184,2.91052 -2.18226,3.22732 -0.74306,7.73771 0.82535,2.58661 1.70228,5.60293 1.94873,6.70293 0.31053,1.38599 0.48371,1.10597 0.5641,-0.91211 0.15146,-3.80231 3.24719,-13.58789 4.29862,-13.58789 1.07162,0 1.06535,0.0457 -0.68781,5.0147 -0.82785,2.34638 -1.44023,5.44045 -1.36084,6.87572 0.0794,1.43527 -0.5905,3.95958 -1.48865,5.60959 -0.89815,1.65 -1.62209,4.125 -1.60875,5.5 0.0231,2.38606 0.078,2.40885 1.20426,0.5 0.64901,-1.1 1.32236,-2.88485 1.49633,-3.96634 0.49562,-3.08095 3.13288,-6.52077 4.57507,-5.96735 0.7743,0.29713 2.81016,-1.67867 4.98809,-4.84092 4.41448,-6.40963 9.68472,-12.44691 9.73819,-11.15551 0.0538,1.29927 -13.37301,27.42895 -13.84957,26.9524 -0.76066,-0.76066 1.92837,-7.33476 5.2701,-12.88425 1.86727,-3.10092 3.25771,-5.63804 3.08985,-5.63804 -0.16786,0 -3.57186,4.3875 -7.56444,9.75 -7.99165,10.73374 -11.9071,15.25001 -13.2212,15.25001 -0.47441,0 -0.56003,-2.67411 -0.19025,-5.94247 z m 2.54982,-11.62465 c -0.89799,-3.83081 -0.92453,-3.85066 -1.02237,-0.76468 -0.10661,3.36238 1.03497,7.42552 1.60544,5.71412 0.18637,-0.5591 -0.076,-2.78636 -0.58307,-4.94944 z m 3.74651,-19.50937 c 2.40313,-3.31 4.20313,-6.16201 4,-6.3378 -1.01719,-0.88025 -9.82074,-1.19242 -11.239321,-0.39854 -0.89651,0.50171 -1.62001,2.12734 -1.60778,3.61251 l 0.0222,2.70031 1.95553,-2.5 c 1.381431,-1.76606 1.962051,-2.04235 1.977761,-0.94113 0.0122,0.85738 -0.63845,2.43238 -1.44596,3.5 -1.698501,2.24562 -1.986861,3.84041 -0.531801,2.94113 0.550001,-0.33992 1.000001,0.30852 1.000001,1.44098 0,3.24667 1.18361,2.43651 5.86933,-4.01746 z m 19.15263,21.99315 c 0.0295,-1.90499 3.89317,-10.33488 4.47162,-9.75643 0.51623,0.51624 -2.68027,9.35979 -3.78094,10.46046 -0.39195,0.39195 -0.70276,0.0751 -0.69068,-0.70403 z m 8.23942,-4.41667 c 1.35324,-4.40925 2.92928,-4.65158 1.66881,-0.2566 -0.5116,1.78387 -0.93019,3.35887 -0.93019,3.5 0,0.14113 -0.40788,0.2566 -0.9064,0.2566 -0.50991,0 -0.43651,-1.53103 0.16778,-3.5 z m 11.4359,-9.25 c -1.08361,-1.93153 -1.77759,-6.68879 -0.83881,-5.75 1.14661,1.14661 2.63646,6.5 1.80896,6.5 -0.30217,0 -0.73874,-0.3375 -0.97015,-0.75 z m 61.658937,105.50001 1.54174,-3.75 -3.46803,0 c -3.265,0 -3.4322,0.16099 -2.85603,2.75 1.65807,7.45049 2.09295,7.54142 4.78232,1 z m -45.066467,1.25 c 0.33522,-1.2819 0.0307,-2 -0.84819,-2 -0.75415,0 -1.85286,0.9 -2.44156,2 -0.89749,1.67697 -0.76049,2 0.84818,2 1.07755,0 2.14782,-0.87671 2.44157,-2 z m 3.69494,0.75 c -0.008,-0.6875 -0.45153,-1.925 -0.98469,-2.75 -0.75538,-1.16887 -0.97275,-0.89294 -0.98469,1.25 -0.008,1.5125 0.43469,2.75 0.98469,2.75 0.55,0 0.99311,-0.5625 0.98469,-1.25 z m 79.015317,-1.06291 c 0,-2.14723 -5.70443,-7.01449 -7.4403,-6.34837 -0.85784,0.32918 -1.52417,1.17513 -1.48075,1.8799 0.0618,1.00364 0.18827,1.01044 0.58333,0.0314 0.90437,-2.24127 3.33772,-1.36619 3.33772,1.20031 0,1.34767 0.7875,2.90899 1.75,3.46959 2.37953,1.38595 3.25,1.3236 3.25,-0.23281 z m -73.595167,-1.29971 c 0.52856,-1.3774 0.85962,-1.41387 2.26961,-0.25 1.411077,1.16475 1.579677,1.1448 1.16105,-0.13738 -0.26935,-0.825 -1.69253,-1.64239 -3.16262,-1.81642 -2.13694,-0.25298 -2.67288,0.0979 -2.67288,1.75 0,2.45361 1.52688,2.74173 2.40484,0.4538 z m -53.38479,-0.91155 c 0.69572,-0.83829 0.9867,-1.80241 0.64661,-2.1425 -0.72629,-0.72629 -3.66666,1.51036 -3.66666,2.78911 0,1.37745 1.62984,1.02849 3.02005,-0.64661 z m 95.979957,-1.67583 c 0,-1.61542 -0.29571,-1.90429 -1.11287,-1.08713 -0.61207,0.61207 -0.81052,1.60207 -0.44098,2.2 1.03439,1.67368 1.55385,1.30164 1.55385,-1.11287 z m -59.685677,-0.83457 c 4.22712,-0.6819 7.68567,-1.36628 7.68567,-1.52084 0,-0.15456 -0.26653,-0.97559 -0.59229,-1.82451 -0.51299,-1.33682 -0.95545,-1.27499 -3.30461,0.46181 -2.89644,2.14144 -6.1031,1.74096 -6.1031,-0.7622 0,-2.42317 -3.07132,-1.05359 -5.87492,2.61977 -1.7166,2.24914 -2.0837,3.23637 -1.06075,2.85263 0.86038,-0.32275 5.02288,-1.14475 9.25,-1.82666 z m 15.47317,-7.46592 c -2.34034,-4.81713 -3.50372,-4.81697 -3.80919,4.9e-4 -0.28084,4.42891 -0.23331,4.5 3.00869,4.5 l 2.98701,0 -2.18651,-4.50049 z m 16.941677,-1.10368 c -0.3323,-0.33229 -1.1948,-0.36781 -1.91667,-0.0789 -0.79773,0.31922 -0.56078,0.55618 0.60417,0.60416 1.05416,0.0434 1.64479,-0.19293 1.3125,-0.52522 z m 4.52083,-1.05811 c -0.6875,-0.27741 -1.8125,-0.27741 -2.5,0 -0.6875,0.27741 -0.125,0.50439 1.25,0.50439 1.375,0 1.9375,-0.22698 1.25,-0.50439 z m -70.592217,-4.58772 c 0.4267,-0.6875 1.7913,-4.175 3.03245,-7.75 l 2.25662,-6.5 -3.56062,4.25513 c -5.71989,6.83554 -7.23252,3.47665 -2.87329,-6.38033 1.38212,-3.12523 2.36622,-5.82896 2.18689,-6.00829 -0.17933,-0.17933 -2.02311,1.46484 -4.09728,3.65371 -6.20686,6.5501 -7.8582,4.89161 -4.18477,-4.20288 1.38188,-3.4212 2.41417,-6.31871 2.29397,-6.43891 -0.1202,-0.1202 -1.95603,1.37375 -4.07963,3.31989 l -3.8611,3.53842 1.60041,6.48531 c 1.80639,7.31996 7.07583,17.27795 9.14293,17.27795 0.75218,0 1.71671,-0.5625 2.14342,-1.25 z m 44.34221,-2.75 c 0,-0.55 -0.45,-1 -1,-1 -0.55,0 -1,0.45 -1,1 0,0.55 0.45,1 1,1 0.55,0 1,-0.45 1,-1 z m -31.97893,-13.5 c 2.0437,-4.4 5.19163,-11.2625 6.99541,-15.25 1.80378,-3.9875 3.71546,-7.25 4.24819,-7.25 1.09604,0 1.2286,-0.46615 -4.23781,14.90225 -4.14416,11.65096 -4.73617,16.33631 -0.94794,7.50229 1.15674,-2.6975 4.0872,-9.04642 6.51212,-14.10871 3.21552,-6.71273 4.40896,-10.43465 4.40896,-13.75 0,-2.50021 -0.18178,-4.54583 -0.40396,-4.54583 -0.22218,0 -4.16661,1.80544 -8.76539,4.0121 -4.59879,2.20665 -10.37951,4.34415 -12.84604,4.75 l -4.48461,0.7379 -4.74539,9.5 c -2.60997,5.225 -4.74494,10.175 -4.74438,11 10e-4,2.01418 9.77708,-8.29458 13.51147,-14.24821 5.23968,-8.35347 4.54082,-5.11606 -1.66836,7.72858 -3.3182,6.86421 -5.85522,13.014 -5.63782,13.6662 0.4759,1.4277 7.14497,-8.94088 12.17409,-18.92736 1.99954,-3.97056 4.07988,-7.21921 4.62296,-7.21921 0.54309,0 0.98743,0.19083 0.98743,0.42406 0,0.23323 -2.925,7.65842 -6.5,16.50043 -3.575,8.84201 -6.48503,16.41369 -6.46673,16.82595 0.086,1.93696 4.64735,-5.05857 7.9878,-12.25044 z m -0.2142,5.97354 c -0.30789,-0.30789 -0.86705,0.24711 -1.24258,1.23333 -0.54268,1.4252 -0.42782,1.54006 0.5598,0.5598 0.68342,-0.67834 0.99067,-1.48524 0.68278,-1.79313 z m 32.68654,-4.51611 c -0.78378,-3.00159 -3.02479,-12.65743 -4.98002,-21.45743 -4.34941,-19.57558 -4.34036,-19.54779 -5.62291,-17.26325 -0.60302,1.07412 -0.62426,2.40949 -0.0557,3.5 1.65313,3.17054 6.24078,20.33192 5.67845,21.2418 -0.57759,0.93456 5.36119,20.48033 6.02197,19.81955 0.21078,-0.21078 -0.25804,-2.83908 -1.04182,-5.84067 z m -55.24341,-19.31408 c 3.36404,-5.32505 3.37944,-5.64335 0.27305,-5.64335 -3.20612,0 -5.97621,4.05836 -5.11424,7.49271 0.87172,3.47322 1.67179,3.16759 4.84119,-1.84936 z m 72.434057,-8.68503 c -1.10057,-8.44496 -3.1029,-14.8728 -4.26958,-13.70612 -0.23292,0.23291 -0.0178,1.73396 0.47806,3.33564 0.49584,1.60169 1.6833,6.86423 2.63879,11.69455 0.95548,4.83031 1.88307,8.63655 2.0613,8.45832 0.17824,-0.17823 -0.23062,-4.58031 -0.90857,-9.78239 z m -61.184057,0.0417 c 0.33992,-0.55 -0.30853,-1 -1.44099,-1 -1.13246,0 -2.05901,0.45 -2.05901,1 0,0.55 0.64844,1 1.44098,1 0.79254,0 1.7191,-0.45 2.05902,-1 z m 18,-4.80835 c 5.35573,-2.84041 0.0106,-2.62497 -5.71968,0.23053 -2.84516,1.4178 -5.75965,2.57782 -6.47666,2.57782 -0.71701,0 -1.30366,0.42574 -1.30366,0.9461 0,1.10298 9.1273,-1.43539 13.5,-3.75445 z m 15.10417,2.07918 c -1.01652,-1.01651 -1.85525,0.51389 -1.02122,1.86338 0.63003,1.01942 0.86558,1.02021 1.2043,0.004 0.2316,-0.69479 0.14921,-1.53513 -0.18308,-1.86742 z m -2.60417,-7.4544 c 0,-0.47439 -1.125,-0.12541 -2.5,0.77553 -1.375,0.90093 -2.5,1.80166 -2.5,2.00161 0,0.19995 1.125,-0.14903 2.5,-0.77552 1.375,-0.6265 2.5,-1.52722 2.5,-2.00162 z M 249.29822,315.36188 c -0.45178,-1.1 -0.74407,-8.3655 -0.64954,-16.14556 l 0.17188,-14.14557 -4.39556,4.39557 c -7.64971,7.64971 -12.14856,5.76248 -14.94549,-6.26951 -1.42915,-6.14802 -1.25476,-7.33493 1.07775,-7.33493 1.61842,0 2.81062,2.35803 4.42394,8.75 0.60767,2.40759 1.66607,4.25 2.44147,4.25 2.28616,0 10.29846,-9.75164 12.14223,-14.7781 2.14678,-5.8525 3.98097,-8.05283 5.47087,-6.56293 0.76435,0.76435 0.59925,6.07683 -0.57359,18.45715 -0.90578,9.56113 -1.66967,19.74126 -1.69755,22.62249 -0.0279,2.88124 -0.63441,6.03124 -1.34784,7 -1.22512,1.66358 -1.34276,1.65033 -2.11857,-0.23861 z m 93.32806,-7.97106 c -0.57773,-1.50553 1.72764,-4.52894 3.45333,-4.52894 1.61681,0 2.19394,2.93751 0.88662,4.51273 -1.57637,1.89942 -3.61438,1.90703 -4.33995,0.0162 z m -52.30362,-4.77834 c -1.49683,-2.42193 0.80639,-13.27056 4.79191,-22.57086 1.47094,-3.43247 2.29442,-4.25445 4.00731,-4 1.61224,0.2395 2.50387,1.51812 3.53568,5.07026 0.75887,2.6125 1.79324,4.75 2.29861,4.75 0.50537,0 2.12016,-1.575 3.58843,-3.5 3.02316,-3.96358 5.83208,-4.48985 7.4845,-1.40228 2.4443,4.56722 4.57057,12.52475 3.98052,14.89703 -0.83063,3.33951 -4.03252,3.99723 -4.03363,0.82857 -4.5e-4,-1.27782 -0.81371,-4.46369 -1.80724,-7.07969 l -1.80641,-4.75637 -2.22271,3.00637 c -3.21529,4.34892 -8.39483,4.13801 -10.90009,-0.44385 -0.93242,-1.70529 -1.26706,-1.27433 -2.66454,3.4315 -0.87901,2.95995 -1.5982,6.3929 -1.5982,7.62879 0,1.23589 -0.70714,2.95422 -1.57143,3.8185 -1.89567,1.89568 -2.09713,1.91672 -3.08271,0.32203 z m -20.27478,-1.50215 c -1.8859,-0.96165 -4.31005,-2.95085 -5.38701,-4.42045 -4.08291,-5.57149 -4.50264,-22.828 -0.55524,-22.828 1.02914,0 1.90792,0.3375 1.95285,0.75 0.0449,0.4125 0.21093,4.22645 0.3689,8.47544 0.31046,8.35052 1.92408,12.12392 5.69658,13.32127 3.95258,1.2545 5.09584,-1.82 4.58233,-12.32297 -0.46852,-9.5825 0.24503,-11.67779 3.02884,-8.89398 2.12218,2.12218 2.97836,16.47751 1.23392,20.68896 -1.13741,2.74593 -5.31285,6.98368 -6.87711,6.97973 -0.33833,-8.6e-4 -2.15815,-0.78836 -4.04406,-1.75 z m 68.40035,-7.91988 c -0.87255,-0.87255 -1.3352,-2.24119 -1.02812,-3.04143 0.30708,-0.80023 0.8489,-4.58141 1.20404,-8.4026 0.69309,-7.45739 1.65391,-9.01185 4.07427,-6.59149 1.25431,1.25431 1.40203,3.06239 0.82051,10.04339 -0.74791,8.97854 -2.04302,11.01981 -5.0707,7.99213 z M 314.4768,261.28026 c -2.2,-0.69557 -5.63125,-1.29926 -7.625,-1.34153 -11.08296,-0.23496 -11.8975,-1.22333 -21.49077,-26.07685 -3.71518,-9.625 -6.7919,-17.58293 -6.83716,-17.68428 -0.0453,-0.10136 -3.38482,0.70145 -7.42122,1.78402 -5.14395,1.37962 -7.71132,1.65925 -8.58404,0.93496 -0.68481,-0.56834 -2.64188,-4.07116 -4.34904,-7.78403 -7.1458,-15.5413 -6.45297,-44.59546 1.38234,-57.96818 3.20218,-5.46525 17.50983,-17.91508 23.92489,-20.81829 2.75,-1.24455 7.09958,-2.55502 9.66573,-2.91215 4.00366,-0.55719 4.95659,-0.33714 6.71542,1.55075 1.12733,1.21004 1.84039,2.53873 1.58458,2.95264 -0.25581,0.41391 -2.77141,0.77043 -5.59022,0.79226 -7.52217,0.0583 -14.41537,3.87845 -24.32138,13.47882 -11.14841,10.80444 -12.05413,13.56002 -12.05413,36.67348 0,16.24213 0.0455,16.58987 2.91352,22.25 1.60244,3.1625 3.53495,5.75 4.29448,5.75 0.75953,0 4.27561,-0.72711 7.81351,-1.6158 7.31142,-1.83657 9.47849,-1.42194 9.47849,1.81352 0,1.24327 1.9125,7.14231 4.25,13.10898 l 4.25,10.8485 4.84424,-0.62454 c 9.22339,-1.18913 17.09324,-8.24278 18.16985,-16.28541 0.91431,-6.83026 1.22636,-7.42111 3.73144,-7.06539 2.95944,0.42025 3.3229,3.35299 1.2845,10.36482 -0.97983,3.3705 -3.0256,7.10498 -5.22698,9.54164 -3.98199,4.40758 -12.06577,8.71144 -17.08005,9.09351 -1.77265,0.13507 -3.223,0.61483 -3.223,1.06612 0,0.4513 1.08371,2.95913 2.40823,5.57296 l 2.40824,4.75242 11.34176,1.72809 c 16.29782,2.48322 24.50083,2.57354 29.08367,0.32022 3.9214,-1.9281 6.7581,-1.6368 6.7581,0.69399 0,1.9348 -2.96288,4.29176 -6.5,5.17072 -5.26343,1.30794 -21.78712,1.26601 -26,-0.066 z M 202.58379,242.28009 c -1.74003,-4.53445 0.0132,-14.14812 7.46214,-40.91821 8.40525,-30.20681 12.18855,-42.5 13.07964,-42.5 1.28297,0 1.34698,-0.27499 -6.16899,26.5 -10.49689,37.39421 -13.27102,49.22379 -12.71019,54.19943 0.4778,4.23903 -0.4789,5.80347 -1.6626,2.71878 z m -15.59944,-8.66821 c 0.0334,-5.53081 3.231,-17.81725 9.95464,-38.25 4.34361,-13.2 10.3958,-32.05425 13.44931,-41.89834 3.05351,-9.84408 5.78508,-18.13158 6.07016,-18.41667 3.50214,-3.50214 -1.08714,13.22045 -17.51312,63.81501 -4.37479,13.475 -8.43929,27.0875 -9.03224,30.25 -0.59295,3.1625 -1.49619,5.75 -2.0072,5.75 -0.511,0 -0.9257,-0.5625 -0.92155,-1.25 z m -5.73919,-18.49305 c -1.20259,-3.1339 12.2053,-50.07998 22.3398,-78.22006 2.46868,-6.8547 4.74562,-14.5047 5.05985,-17 0.64966,-5.15889 2.70778,-9.03689 4.79603,-9.03689 1.95858,0 2.91393,1.83853 1.71154,3.29379 -0.54814,0.66341 -1.29627,2.81006 -1.66252,4.77033 -1.00006,5.35261 1.0063,6.6105 7.9044,4.95567 8.34238,-2.0013 10.59697,0.70968 3.33254,4.00713 -5.11136,2.32013 -10.53258,2.51408 -13.43567,0.48068 -2.07647,-1.45441 -2.20859,-1.27711 -5.19195,6.9678 -4.08074,11.2777 -17.48174,54.9576 -20.73262,67.57699 -1.42592,5.53521 -2.36408,10.93782 -2.08479,12.00581 0.63097,2.41284 -1.12136,2.58385 -2.03661,0.19875 z m -43.26836,-9.29116 c 0,-0.56882 1.10798,-0.88583 2.46219,-0.70448 3.77198,0.50514 4.27179,1.73869 0.70448,1.73869 -1.74167,0 -3.16667,-0.46539 -3.16667,-1.03421 z m 204.08156,-21.33382 c -1.14486,-1.85242 -2.08156,-4.08716 -2.08156,-4.96608 0,-2.08017 -1.65257,-5.82093 -11.22588,-25.41092 -8.65054,-17.70169 -11.88138,-21.59046 -18.92658,-22.78074 -2.89528,-0.48915 -3.84754,-1.12328 -3.84754,-2.56214 0,-1.59223 0.73389,-1.9121 4.38699,-1.9121 3.28521,0 5.60831,0.81622 9.25,3.25 4.85894,3.24728 6.68067,6.08718 13.95214,21.75 1.14901,2.475 3.32122,6.80626 4.82711,9.62501 1.5059,2.81874 3.18321,6.86874 3.72737,9 3.94779,15.46206 4.28375,17.375 3.05145,17.375 -0.56757,0 -1.96864,-1.51562 -3.1135,-3.36803 z m -63.90052,-3.67793 c -2.24652,-2.09295 -2.2128,-5.79398 0.0793,-8.70404 2.85066,-3.61921 11.1541,1.24833 10.04722,5.88976 -1.17925,4.94485 -6.30929,6.37056 -10.12651,2.81428 z m 99.32385,-16.94612 c -0.33722,-0.54564 -0.15246,-1.78314 0.41058,-2.75 0.87815,-1.50795 1.02804,-1.36688 1.05412,0.99208 0.0318,2.87574 -0.43075,3.43088 -1.4647,1.75792 z m -198.59024,-4.75792 c 7.10132,-17.89018 16.38213,-39.90432 17.15846,-40.70001 2.01042,-2.06055 0.67507,1.98722 -6.15631,18.66129 -10.07949,24.60206 -11.06107,26.78872 -12.02535,26.78872 -0.47425,0 -0.0138,-2.1375 1.0232,-4.75 z m 190.08978,-7.50001 c 0.003,-3.52628 1.31483,-9.02577 3.99557,-16.75 2.19513,-6.325 3.99313,-11.57826 3.99557,-11.67391 0.002,-0.0956 -2.67788,1.61728 -5.95626,3.8065 -7.75696,5.1799 -12.24661,6.00685 -14.43976,2.65969 -1.44648,-2.20761 -1.45331,-2.92174 -0.0724,-7.57193 1.45228,-4.89036 2.97381,-7.05267 4.14122,-5.88527 0.29444,0.29445 -0.21831,2.8044 -1.13944,5.57767 -0.92113,2.77327 -1.39042,5.50242 -1.04287,6.06478 1.50294,2.4318 6.78885,0.6319 15.35391,-5.22813 2.53442,-1.734 4.71015,-2.59923 5.22966,-2.07972 0.51952,0.51952 -0.97405,6.3697 -3.59002,14.06176 -2.71881,7.99462 -4.47961,14.95986 -4.47961,17.72034 0,2.50152 -0.45,4.54823 -1,4.54823 -0.55,0 -0.99801,-2.36251 -0.99557,-5.25001 z m -205.76291,-9.5 c 3.44152,-8.59199 3.54788,-8.79393 4.25795,-8.08386 0.69945,0.69944 -5.56515,15.83386 -6.55412,15.83386 -0.44445,0 0.58882,-3.4875 2.29617,-7.75 z m -42.24152,2.23679 c 0,-1.93226 1.73485,-8.11976 3.85522,-13.75 2.12037,-5.63023 4.18211,-11.13679 4.58164,-12.23679 0.45856,-1.26253 -0.12977,-0.89379 -1.59553,1 -7.66592,9.9045 -12.88857,13.69511 -14.1223,10.25 -0.28613,-0.79898 -1.24443,-0.25775 -2.65592,1.5 -4.23065,5.2685 -5.49716,2.4813 -1.99335,-4.38674 2.31515,-4.53808 3.54302,-4.69653 1.95239,-0.25195 -0.98632,2.75598 -0.96018,2.79681 0.56886,0.88869 0.88147,-1.1 3.10849,-5.2625 4.94894,-9.25 1.84045,-3.9875 3.82187,-7.24999 4.40316,-7.24999 1.43964,0 1.3489,0.71909 -0.82025,6.49999 -1.03187,2.75 -2.21254,6.125 -2.62371,7.5 l -0.74757,2.5 2.7611,-2.5 c 1.5186,-1.375 5.21095,-5.78785 8.20523,-9.80633 5.15063,-6.91243 8.20293,-8.79632 7.43665,-4.58992 -0.18999,1.04294 -2.36771,7.07125 -4.83936,13.39625 -2.47166,6.325 -5.23327,14.3125 -6.13691,17.75 -1.82369,6.9374 -3.17829,8.10384 -3.17829,2.73679 z m 124.10571,-20.73679 c -1.41623,-3.77197 0.23709,-24.521355 2.10252,-26.386775 2.78673,-2.78674 3.93353,-0.73839 3.20277,5.720635 -0.76375,6.75071 -0.42187,6.98267 5.69342,3.86288 3.00443,-1.53274 3.98031,-2.61017 3.84947,-4.25 -0.38284,-4.798185 0.082,-6.696725 1.63973,-6.696725 0.87649,0 1.838,0.93453 2.13669,2.07673 0.2987,1.14219 1.66596,2.503625 3.03836,3.025415 2.33264,0.88687 2.38891,1.06624 0.86331,2.75202 -0.89759,0.99182 -1.63198,3.34585 -1.63198,5.23117 0,6.69461 -2.80119,12.77359 -5.20225,11.28965 -0.43876,-0.27117 -0.79775,-2.67564 -0.79775,-5.34327 l 0,-4.85022 -3.95169,1.90924 c -2.17344,1.05009 -4.38768,1.90925 -4.92055,1.90925 -1.20214,0 -2.50887,5.57434 -1.63731,6.98455 0.97977,1.5853 -0.44455,5.01545 -2.08259,5.01545 -0.80155,0 -1.83752,-1.0125 -2.30215,-2.25 z m -100.10571,-0.0883 c 0,-1.70105 6.76612,-24.761165 7.47248,-25.467525 1.68084,-1.68084 1.24694,1.80436 -1.46753,11.787615 -2.9063,10.68873 -4.50341,15.01818 -5.54013,15.01818 -0.25565,0 -0.46482,-0.60222 -0.46482,-1.33827 z m 201.51496,-4.79324 c 1.20275,-5.58114 4.61956,-11.06729 6.02036,-9.66649 0.22124,0.22124 -0.68195,3.06987 -2.00709,6.33031 -2.73536,6.73022 -5.18322,8.76509 -4.01327,3.33618 z m -58.4213,-2.14272 c -7.83908,-2.82089 -9.63157,-11.01817 -4.64019,-21.220185 2.90557,-5.93877 4.72065,-7.43588 6.8613,-5.65929 0.70912,0.58851 2.27929,0.81113 3.48927,0.49472 4.86846,-1.27313 12.20023,7.63292 12.19222,14.810125 -0.004,3.73532 -2.92463,9.20497 -5.71116,10.69628 -3.25064,1.73969 -8.70566,2.1327 -12.19144,0.87835 z m 9.99556,-6.59692 c 1.65183,-1.33757 2.31078,-2.91375 2.31078,-5.52727 0,-8.504735 -9.84727,-11.562015 -12.99274,-4.03386 -1.9227,4.60168 -1.76746,7.07209 0.59274,9.43229 2.51232,2.51231 7.07381,2.57056 10.08922,0.12884 z m 20.22615,-2.13582 c -1.20154,-0.48411 -2.70631,-1.85499 -3.34393,-3.04639 -2.68775,-5.022095 5.95629,-17.946625 12.00288,-17.946625 4.11295,0 4.53494,1.50119 1.10794,3.94143 -3.3342,2.37416 -7.08226,7.94072 -7.08226,10.518465 0,1.45544 0.8135,1.6706 5.22519,1.38196 6.23526,-0.40794 7.5874,1.6562 2.89907,4.42567 -3.15214,1.86201 -7.29753,2.14025 -10.80889,0.72549 z m 31.68463,-7.74547 c -2.56008,-1.278235 -3.58665,-2.503405 -3.82266,-4.562175 -0.70677,-6.16535 5.54978,-10.68537 14.79054,-10.68537 8.14632,0 11.34717,4.78717 6.94382,10.38512 -4.26375,5.420475 -12.38083,7.623995 -17.9117,4.862425 z m 9.41004,-5.645505 c 5.23441,-2.18708 5.36801,-3.60204 0.34011,-3.60204 -4.7084,0 -8.49573,1.98461 -7.34391,3.8483 0.94148,1.52334 2.93643,1.45319 7.0038,-0.24626 z"
     style="fill:#000000"
     inkscape:connector-curvature="0" />
</svg>
