<?xml version="1.0" encoding="UTF-8" standalone="no"?>
<!-- Created with Inkscape (http://www.inkscape.org/) -->

<svg
   xmlns:dc="http://purl.org/dc/elements/1.1/"
   xmlns:cc="http://creativecommons.org/ns#"
   xmlns:rdf="http://www.w3.org/1999/02/22-rdf-syntax-ns#"
   xmlns:svg="http://www.w3.org/2000/svg"
   xmlns="http://www.w3.org/2000/svg"
   xmlns:sodipodi="http://sodipodi.sourceforge.net/DTD/sodipodi-0.dtd"
   xmlns:inkscape="http://www.inkscape.org/namespaces/inkscape"
   id="svg3336"
   version="1.1"
   inkscape:version="0.91 r13725"
   width="207.85947"
   height="207"
   viewBox="0 0 207.85947 207"
   sodipodi:docname="cycle_ride.svg">
  <metadata
     id="metadata3342">
    <rdf:RDF>
      <cc:Work
         rdf:about="">
        <dc:format>image/svg+xml</dc:format>
        <dc:type
           rdf:resource="http://purl.org/dc/dcmitype/StillImage" />
        <dc:title></dc:title>
      </cc:Work>
    </rdf:RDF>
  </metadata>
  <defs
     id="defs3340" />
  <sodipodi:namedview
     pagecolor="#ffffff"
     bordercolor="#666666"
     borderopacity="1"
     objecttolerance="10"
     gridtolerance="10"
     guidetolerance="10"
     inkscape:pageopacity="0"
     inkscape:pageshadow="2"
     inkscape:window-width="933"
     inkscape:window-height="624"
     id="namedview3338"
     showgrid="false"
     fit-margin-top="0"
     fit-margin-left="0"
     fit-margin-right="0"
     fit-margin-bottom="0"
     inkscape:zoom="1.899654"
     inkscape:cx="101.06445"
     inkscape:cy="97.976632"
     inkscape:window-x="0"
     inkscape:window-y="0"
     inkscape:window-maximized="0"
     inkscape:current-layer="svg3336" />
  <path
     style="fill:#000000"
     d="M 26.888423,156.71661 C 20.85782,153.96438 14.418958,150.25544 12.579841,148.47452 5.4509905,141.57125 -0.49987749,123.29051 0.67527761,111.90435 1.7977195,101.02893 11.736714,86.968707 21.170829,82.910257 c 6.328578,-2.72248 17.829231,-4.49293 25.862731,-3.9814 l 6.3196,0.40241 0,-3.76222 c 0,-4.1263 -2.5419,-6.43013 -5.91381,-5.35993 -1.32361,0.4201 -1.99944,-0.0329 -2.41399,-1.61814 -0.31665,-1.21087 -0.34587,-2.57349 -0.065,-3.02804 0.71214,-1.15226 4.14119,-1.03146 6.49607,0.22883 1.88287,1.00768 1.96378,0.73594 1.79322,-6.02262 -0.15129,-5.994693 -0.42486,-7.002483 -1.78758,-6.585013 -19.532505,5.983903 -43.0165453,3.859973 -35.908915,-3.24766 1.700357,-1.70036 2.489311,-1.49608 3.089749,0.8 0.73619,2.81519 4.47849,2.64458 4.8907,-0.22297 0.406795,-2.82988 5.802241,-5.88324 16.609616,-9.3996 6.5416,-2.12842 8.54525,-2.43847 9.5,-1.47005 0.94864,0.96222 0.79073,1.53666 -0.73119,2.65994 -1.06762,0.78797 -2.51324,1.43268 -3.21249,1.43268 -2.30589,0 -12.34638,4.12459 -12.34638,5.07185 0,2.32625 23.54702,0.28139 36.29845,-3.15222 4.68087,-1.26042 6.88314,-0.0199 5.07335,2.85789 -0.7653,1.2169 -3.05839,1.92077 -7.81241,2.39806 -3.70104,0.37157 -7.36596,0.91995 -8.14428,1.21862 -1.89886,0.72866 -2.05167,16.486503 -0.16511,17.026093 0.6875,0.19664 9.35,2.85594 19.25,5.90956 9.9,3.05362 24.3,7.07278 32,8.93147 7.7,1.85869 14.74419,3.7168 15.65376,4.12912 4.10079,1.85896 18.75186,-27.46089 22.32372,-44.674453 0.34049,-1.64087 1.59463,-3.24736 3.05433,-3.91244 2.78629,-1.26952 4.45275,-0.38812 2.65852,1.40611 -0.90177,0.90178 -0.67691,1.70795 0.96344,3.45402 1.77306,1.88733 1.92169,2.54047 0.86725,3.811 -1.03039,1.24153 -1.02515,3.33515 0.0275,11.002313 0.71503,5.20795 1.57851,9.91956 1.91884,10.47023 0.39647,0.6415 2.47625,0.40725 5.78851,-0.65197 4.9298,-1.57649 5.35652,-1.56369 9.19543,0.27577 5.41901,2.59658 5.09178,3.76012 -0.82849,2.94587 -6.17866,-0.84978 -13.4976,1.10763 -12.75887,3.4123 0.27693,0.86394 1.19794,3.45958 2.04669,5.76808 1.83532,4.99188 3.51261,17.808858 2.53711,19.387263 -0.37808,0.61174 -1.53349,0.94986 -2.56759,0.75137 -1.54361,-0.29628 -2.02328,-1.673375 -2.67965,-7.693123 -0.43971,-4.03273 -1.71672,-9.78378 -2.83779,-12.78012 l -2.03832,-5.44789 -3.1622,1.95417 c -3.33127,2.05866 -13.66219,13.47924 -13.66219,15.10324 0,0.52269 2.1375,1.60093 4.75,2.39609 2.6125,0.79517 6.91447,2.42059 9.55994,3.612058 3.85977,1.738355 4.74872,2.594265 4.5,4.332765 -0.41501,2.90089 -3.18355,3.26873 -6.55416,0.87082 -2.12192,-1.50957 -12.00062,-5.183915 -13.93728,-5.183915 -0.70746,0 -0.2304,13.590555 0.51847,14.770455 0.64103,1.00999 2.43177,1.0381 8.73469,0.1371 8.30231,-1.18681 12.42834,-2.97465 12.42834,-5.38529 0,-1.55959 6.15869,-3.16025 7.93511,-2.06236 0.58569,0.36197 1.06489,2.90203 1.06489,5.64457 0,3.92419 -0.50908,5.49552 -2.38976,7.37619 -2.71615,2.71616 -5.84289,2.45298 -8.03472,-0.6763 -1.21706,-1.7376 -2.11278,-1.87252 -8.3505,-1.25787 -3.84296,0.37867 -7.51962,1.01755 -8.17035,1.41972 -1.73923,1.0749 4.86006,12.55634 10.26446,17.85812 3.98113,3.90552 5.29173,4.51588 13.53246,6.30221 l 9.12441,1.97788 7.14338,-2.79011 c 5.82486,-2.2751 8.15838,-3.89981 12.6424,-8.80221 6.65947,-7.28082 10.78577,-15.67665 12.23662,-24.89798 2.2528,-14.318423 -0.75566,-19.845443 -13.66084,-25.097203 -3.76066,-1.5304 -8.25557,-3.39778 -9.98869,-4.14973 -1.73312,-0.75196 -3.64562,-1.36719 -4.25,-1.36719 -0.60438,0 -1.09887,-0.675 -1.09887,-1.5 0,-2.72944 5.14599,-1.78868 17.5,3.19925 8.15943,3.29437 13.04709,6.82654 14.92639,10.78687 2.31488,4.87824 2.09146,18.626623 -0.43566,26.808483 -4.15978,13.46779 -15.09781,25.78274 -26.24403,29.54775 -7.71531,2.6061 -9.85969,2.63522 -20.56797,0.27931 -7.69399,-1.69274 -8.71816,-2.22271 -13.58622,-7.0303 -2.96812,-2.93125 -7.07104,-8.58921 -9.40498,-12.96955 l -4.14003,-7.77001 -6.62876,0.79803 c -6.10384,0.73483 -6.957,1.14572 -10.77375,5.18862 -2.27975,2.41482 -4.64579,4.56406 -5.25787,4.77607 -0.61267,0.21222 -1.4286,4.07595 -1.81529,8.5961 l -0.70241,8.21062 5.06529,-0.59991 c 4.66998,-0.55309 5.06529,-0.43596 5.06529,1.50083 0,2.31271 -0.78146,2.57923 -16.2921,5.5563 -4.83565,0.92815 -9.22315,1.42113 -9.75,1.09552 -2.35947,-1.45823 -0.49505,-3.29747 5.0421,-4.97398 3.300002,-0.99916 6.02782,-2.30791 6.06182,-2.90833 0.034,-0.60042 0.39103,-4.37718 0.79339,-8.3928 l 0.73157,-7.30112 -3.38698,-1.60723 c -1.862838,-0.88397 -3.86709,-2.66097 -4.4539,-3.94887 -1.23917,-2.71968 -1.13678,-2.71146 -14.3055,-1.14779 l -10.05961,1.1945 -2.80751,7.92609 c -2.39883,6.77234 -3.8458,9.02363 -9.94039,15.46594 -7.94816,8.40161 -14.729,13.22362 -18.57867,13.2117 -1.40482,-0.004 -7.488355,-2.25973 -13.518957,-5.01196 z m 20.124937,-2.81028 c 8.39948,-6.64723 14.84922,-14.51011 17.31854,-21.11301 1.25921,-3.36708 2.06351,-6.34792 1.78734,-6.62409 -0.27617,-0.27617 -2.47402,-0.0475 -4.8841,0.50811 -6.51951,1.50304 -11.88198,1.34375 -11.88198,-0.35296 0,-0.89361 1.5605,-1.64856 4.25,-2.05609 2.3375,-0.3542 6.56583,-1.09097 9.39628,-1.63727 5.94927,-1.14825 6.32408,-1.85249 6.33068,-11.89454 0.004,-5.35741 -0.50866,-7.39428 -2.9137,-11.587395 -1.60489,-2.798068 -4.14678,-5.892538 -5.64865,-6.876598 l -2.73067,-1.78921 0.68018,11.199053 0.68018,11.19906 -2.27215,-0.32246 c -1.97845,-0.28077 -2.30262,-0.96875 -2.5079,-5.32245 -0.12967,-2.75 -0.49718,-8.173125 -0.81671,-12.051383 l -0.58096,-7.05138 -4.44454,-1.31232 c -4.9352,-1.45719 -6.38122,-2.86328 -4.30016,-4.18141 2.14765,-1.3603 -2.83455,-1.11616 -11.652585,0.57101 -9.132477,1.74733 -14.653389,4.77051 -19.589193,10.72679 -8.2827835,9.995243 -10.2098175,18.076363 -7.4698755,31.325313 3.2872022,15.89523 7.1816375,20.7333 22.0897685,27.44221 6.050005,2.7226 11.747095,4.9684 12.660205,4.99067 0.91311,0.0223 3.83811,-1.68307 6.5,-3.78965 z m 64.8398,-31.16985 c 1.75677,-1.94121 1.74663,-2 -0.34501,-2 -1.48832,0 -2.15499,0.61872 -2.15499,2 0,1.1 0.15526,2 0.34501,2 0.18976,0 1.1595,-0.9 2.15499,-2 z m -26.04046,-3.06634 6.12337,-1.06634 -0.39088,-3.34814 c -0.32795,-2.80912 0.27765,-4.0734 3.76166,-7.85311 3.845562,-4.17195 4.135432,-4.87969 3.921232,-9.574003 -0.12721,-2.78797 0.0545,-5.35481 0.40377,-5.70409 1.507138,-1.50714 3.735008,0.8455 4.331178,4.57375 0.35516,2.221048 1.15073,4.101223 1.76794,4.178163 0.6172,0.0769 2.74039,0.23576 4.71819,0.35294 1.9778,0.11718 4.75235,0.50328 6.16568,0.858 2.27283,0.57044 2.86993,0.10777 5.1686,-4.005013 1.4294,-2.55748 2.47985,-4.73972 2.33432,-4.84943 -1.01615,-0.76605 -9.29029,-3.03347 -21.7541,-5.96143 -8.01301,-1.88239 -18.37477,-4.82571 -23.02612,-6.54072 -4.65135,-1.71501 -11.50066,-3.96164 -15.22069,-4.99251 l -6.76369,-1.87432 0,2.88661 c 0,1.66048 0.74333,3.35712 1.75,3.99433 1.25321,0.79327 1.39515,1.25685 0.5,1.63302 -1.4025,0.58938 -1.72472,3.35863 -0.39079,3.35863 2.52623,0 10.06144,8.43179 12.60971,14.110088 2.4964,5.562725 2.73518,7.008165 2.2398,13.558225 l -0.55449,7.33169 3.09097,0 c 1.70004,0 5.84649,-0.47985 9.21434,-1.06634 z m -5.45954,-19.41771 c 0,-2.294753 -0.30216,-2.554403 -2.25,-1.933483 -3.79829,1.210808 -5.15776,0.993208 -5.54564,-0.88765 -0.26139,-1.26752 0.54625,-2.15187 2.71169,-2.96923 1.69617,-0.64024 3.08395,-1.69226 3.08395,-2.33784 0,-1.59304 2.37888,-2.38775 7.14753,-2.38775 4.61793,0 7.85247,1.44834 7.85247,3.51613 0,1.40549 -1.87075,2.12877 -6.99357,2.70392 -1.88045,0.21112 -2.61809,0.9973 -3,3.197448 -0.66129,3.809615 -3.00643,4.666455 -3.00643,1.098455 z m 81.08115,16.33242 c 0.99421,-1.85771 0.91955,-2.06261 -0.5466,-1.5 -0.93397,0.3584 -2.61642,0.65163 -3.73878,0.65163 -1.70054,0 -1.83317,0.25001 -0.79577,1.5 1.75632,2.11624 3.73569,1.86239 5.08115,-0.65163 z m -55.48341,-0.88553 c 1.88379,-0.71621 3.04889,-0.71621 3.7651,0 0.57044,0.57044 2.06359,1.03716 3.31811,1.03716 2.54286,0 3.69877,-2.80213 3.14713,-7.62917 -0.29805,-2.60806 -0.72244,-2.89924 -4.63653,-3.18118 -3.90341,-0.28118 -4.679,0.0715 -8.25,3.75114 -5.913288,6.09324 -4.709488,8.82248 2.65619,6.02205 z m 22.90226,0.0482 c 1.86593,-0.0103 2,-0.68135 2,-10.01101 0,-5.5 -0.32713,-10.000003 -0.72695,-10.000003 -1.50971,0 -9.14529,13.796863 -9.88321,17.858153 l -0.61016,3.35815 3.61016,-0.59714 c 1.98559,-0.32843 4.51016,-0.6021 5.61016,-0.60815 z m 20.64169,-42.234033 c 3.00055,-1.32817 3.04438,-1.91824 0.94815,-12.76399 -0.66937,-3.46326 -0.69653,-3.43102 -3.98881,4.73636 -1.82316,4.52285 -4.8708,10.81701 -6.77254,13.98701 l -3.4577,5.76364 5.23172,-5.24015 c 2.87744,-2.88209 6.49508,-5.79938 8.03918,-6.48287 z m -96.14169,9.22299 c 0,-0.55 -1.2375,-0.95514 -2.75,-0.90032 l -2.75,0.0997 2.5,0.80062 c 1.375,0.44035 2.6125,0.8455 2.75,0.90032 0.1375,0.0548 0.25,-0.35032 0.25,-0.90032 z m -5,-8 c 1.15342,-2.15519 2.52874,-2.57154 3.46899,-1.05018 0.32287,0.52241 -0.29599,1.42241 -1.37524,2 -2.83656,1.51808 -3.30162,1.30711 -2.09375,-0.94982 z m 76,-25.980253 c -3.06183,-2.3708 -2.08569,-4.64614 3.09089,-7.20477 4.49016,-2.21933 13.0428,-4.08129 14.06259,-3.0615 0.44371,0.4437 0.34401,2.4826 -0.22155,4.53088 -1.80324,6.53081 -11.61318,9.85375 -16.93193,5.73539 z"
     id="path3346"
     inkscape:connector-curvature="0" />
</svg>
