<?xml version="1.0" encoding="UTF-8" standalone="no"?>
<svg
   xmlns:dc="http://purl.org/dc/elements/1.1/"
   xmlns:cc="http://creativecommons.org/ns#"
   xmlns:rdf="http://www.w3.org/1999/02/22-rdf-syntax-ns#"
   xmlns:svg="http://www.w3.org/2000/svg"
   xmlns="http://www.w3.org/2000/svg"
   xmlns:sodipodi="http://sodipodi.sourceforge.net/DTD/sodipodi-0.dtd"
   xmlns:inkscape="http://www.inkscape.org/namespaces/inkscape"
   viewBox="0 0 555 555.47888"
   height="555.47888"
   width="555"
   version="1.1"
   id="svg3513"
   inkscape:version="0.91 r13725"
   sodipodi:docname="door_handle.svg">
  <sodipodi:namedview
     pagecolor="#ffffff"
     bordercolor="#666666"
     borderopacity="1"
     objecttolerance="10"
     gridtolerance="10"
     guidetolerance="10"
     inkscape:pageopacity="0"
     inkscape:pageshadow="2"
     inkscape:window-width="640"
     inkscape:window-height="480"
     id="namedview5537"
     showgrid="false"
     inkscape:zoom="0.42485864"
     inkscape:cx="186.09288"
     inkscape:cy="277.73944"
     inkscape:window-x="0"
     inkscape:window-y="0"
     inkscape:window-maximized="0"
     inkscape:current-layer="svg3513" />
  <metadata
     id="metadata3519">
    <rdf:RDF>
      <cc:Work
         rdf:about="">
        <dc:format>image/svg+xml</dc:format>
        <dc:type
           rdf:resource="http://purl.org/dc/dcmitype/StillImage" />
        <dc:title></dc:title>
      </cc:Work>
    </rdf:RDF>
  </metadata>
  <defs
     id="defs3517" />
  <path
     id="path3523"
     d="m 173.81362,550.92627 c -4.6676,-8.94232 -8.10859,-13.37518 -13.41168,-17.2776 -2.64362,-1.94538 -4.08508,-3.79097 -4.10041,-5.25 -0.0371,-3.53238 2.32193,-2.79586 10.72636,3.3489 2.24272,1.63972 2.2498,1.63091 2.18661,-2.72693 -0.0506,-3.48678 -0.23883,-3.93713 -0.92992,-2.2243 -0.47659,1.18122 -1.3575,2.45111 -1.95757,2.82197 -1.32153,0.81675 -4.04912,-5.28628 -4.04912,-9.05997 0,-2.32561 -0.19929,-2.48917 -1.60821,-1.31986 -2.53094,2.10049 -4.39179,-1.37492 -4.39179,-8.2023 0,-7.06839 -2.67926,-40.57765 -3.97302,-49.69013 -0.52297,-3.68356 -1.65691,-9.84738 -2.51986,-13.69738 -1.00209,-4.47081 -1.8871,-16.03282 -2.44942,-32 -1.04758,-29.7463 -2.51194,-56.84567 -4.72782,-87.49327 -1.85455,-25.65002 -1.39592,-48.09195 1.38981,-68.00673 2.38176,-17.02688 2.26599,-94.69622 -0.1654,-110.95721 -0.85486,-5.71728 -1.55573,-14.0283 -1.55748,-18.46893 -0.002,-4.44062 -0.6632,-11.89886 -1.46987,-16.57386 -0.80667,-4.675 -1.95163,-15.474993 -2.54435,-23.999993 -0.59273,-8.525 -1.32303,-17.12331 -1.62289,-19.10736 -0.53922,-3.56777 -0.50029,-3.61454 3.54755,-4.26182 2.25101,-0.35995 4.09275,-1.0499 4.09275,-1.53323 0,-0.48333 1.4625,-1.115 3.25,-1.40371 1.7875,-0.28871 7.525,-1.70889 12.75,-3.15595 5.225,-1.44707 14.225,-3.02052 20,-3.49656 5.77501,-0.47605 18.82501,-2.73277 29.00001,-5.01494 57.46337,-12.88858 98.98307,-20.1071 135.74993,-23.60116 16.86567,-1.60278 22.44467,-1.42481 19.22207,0.61321 -2.0135,1.27336 -1.1946,1.20413 12.528,-1.05898 17.1517,-2.82864 22.0608,-2.60776 19.2413,0.86572 -1.0597,1.30549 -0.9487,1.40959 0.7587,0.71147 1.1,-0.44978 4.2677,-1.03189 7.0393,-1.29359 3.916,-0.36975 5.3515,-0.0996 6.4398,1.21175 1.108,1.33501 1.152,2.08557 0.2107,3.59278 -1.4542,2.3286 -1.5702,5.28552 -0.1735,4.42229 0.559,-0.34547 0.7766,-1.01593 0.4837,-1.48992 -0.6179,-0.99985 1.358,-2.47535 2.1946,-1.63878 0.3088,0.30882 0.8948,3.16638 1.3023,6.35014 l 0.7409,5.78864 0.1311,-5.12427 c 0.072,-2.81835 -0.5439,-7.03743 -1.3689,-9.37573 -1.6771,-4.75352 -1.9825,-10 -0.5821,-10 0.5048,0 2.1404,3.67084 3.6345,8.15741 2.6547,7.97111 2.6926,8.42197 1.6631,19.74103 -0.5794,6.37099 -0.6847,11.81265 -0.2338,12.09259 0.4509,0.27993 1.7644,11.33415 2.919,24.56493 2.2372,25.636053 2.4256,29.103643 1.5326,28.210703 -0.3116,-0.31166 -1.4157,-9.27416 -2.4534,-19.916653 l -1.8867,-19.35001 0.3966,15 c 0.2728,10.320123 1.6461,23.735763 4.4015,42.999993 4.044,28.27288 6.4954,50.08721 7.5856,67.5 1.2229,19.53493 2.7948,32.06284 6.5246,52 5.6054,29.96294 6.1637,34.99813 8.0398,72.5 0.5503,11 1.6933,25.625 2.5399,32.5 1.5658,12.71405 3.0559,31.69863 6.0045,76.5 1.3024,19.78838 1.4113,26.67476 0.5226,33.03378 -1.0038,7.18146 -0.9011,8.87893 0.968,16 1.7828,6.79242 1.9312,8.76437 1.0073,13.383 -0.596,2.97923 -1.0836,6.86163 -1.0836,8.62756 0,3.52144 -2.1458,5.99741 -4.4361,5.11856 -0.8631,-0.33122 -1.6913,0.16325 -2.0228,1.20775 -0.6885,2.16908 -6.1774,4.88765 -11.6282,5.75928 -3.5891,0.5739 -3.9943,0.90952 -3.4959,2.89519 0.6227,2.48117 -1.6292,5.07983 -3.4349,3.96383 -0.608,-0.37578 -1.4732,-1.65202 -1.9227,-2.83609 -0.8161,-2.15004 -0.8491,-2.15193 -25.1883,-1.4407 -46.9354,1.37151 -52.78416,1.99471 -96.3711,10.2685 -27.18751,5.16081 -46.5454,7.75362 -78.5,10.51433 -23.4883,2.02928 -38.29054,3.62983 -43,4.64957 -5.87659,1.27246 -5.77744,1.15752 -5.63529,6.53273 0.0764,2.88948 -0.33588,5.28125 -0.94752,5.49663 -0.59554,0.2097 -2.7922,-2.89364 -4.88147,-6.89632 z m 21.46428,-11.70973 c 4.675,-0.57343 19.075,-1.95622 32,-3.07288 32.53718,-2.81104 51.38244,-5.38905 80.60738,-11.02698 13.80906,-2.66397 29.78406,-5.53065 35.5,-6.37041 14.06792,-2.06677 39.69162,-3.58444 60.89262,-3.60661 9.625,-0.0101 18.5629,-0.30283 19.8621,-0.65059 2.1391,-0.5726 2.3031,-1.01969 1.737,-4.73634 -1.6932,-11.11547 -1.7471,-43.33916 -0.1316,-78.60406 2.3301,-50.86513 1.6065,-78.98489 -3.4997,-136 -2.1426,-23.925 -5.0466,-57.225 -6.4532,-74 -2.7632,-32.95353 -4.2996,-46.23687 -8.0386,-69.5 -5.0475,-31.40487 -7.3799,-52.262223 -9.0388,-80.829293 -0.4455,-7.67295 -1.1059,-11.99009 -1.8795,-12.28694 -0.656,-0.25171 -5.1679,0.23557 -10.0265,1.08284 -8.3627,1.45832 -9.7994,1.42122 -26.9326,-0.69541 -14.87414,-1.83755 -22.90893,-2.22374 -45.0986,-2.16761 l -27,0.0683 -50.5,8.58091 c -27.775,4.7195 -57.25001,9.33443 -65.50001,10.25539 -22.52096,2.51407 -21.5,2.29222 -21.5,4.67185 0,4.19701 2.28346,15.4118 3.83196,18.81998 1.05067,2.312473 1.66168,6.892933 1.80081,13.499993 0.11581,5.5 0.91683,15.28011 1.78003,21.73358 0.86321,6.45346 2.01969,19.05346 2.56995,28 0.55027,8.94653 1.52329,20.53588 2.16226,25.75411 0.80112,6.54238 0.92584,16.94198 0.40176,33.5 -2.02022,63.82832 0.35324,157.77406 5.03768,199.39965 2.27312,20.19877 2.98187,25.02766 5.05239,34.42279 0.49377,2.24053 0.22568,2.91306 -1.32262,3.31795 -1.87355,0.48995 -1.89617,0.88396 -0.64245,11.18987 2.65576,21.83091 5.26285,43.97656 6.3197,53.68205 0.59891,5.5 1.33833,11.85512 1.64315,14.12249 l 0.55422,4.12248 3.65558,-0.81725 c 2.01058,-0.44949 7.48059,-1.28643 12.15559,-1.85985 z m 9.37912,-201.4546 c -4.16457,-1.87906 -8.45205,-7.68701 -9.91695,-13.43382 -1.00031,-3.92424 -1.57768,-4.6815 -3.5775,-4.69214 -1.31157,-0.007 -2.9016,0.3478 -3.53341,0.78841 -1.34671,0.93915 -7.33088,0.47295 -9.26389,-0.72172 -1.66478,-1.02889 -0.95147,-12.8079 0.91155,-15.05272 1.47618,-1.77867 3.14417,-1.03777 2.34606,1.04209 -0.97428,2.53892 2.27266,0.59122 3.49813,-2.09838 1.33309,-2.92582 3.15689,-3.21699 3.15689,-0.50401 0,3.37289 2.13512,3.46041 4.69274,0.19237 1.34872,-1.72334 3.0946,-3.13335 3.87974,-3.13335 0.83837,0 1.42752,-0.98605 1.42752,-2.38922 0,-4.81931 2.85471,-6.68214 11.91953,-7.77803 5.70819,-0.6901 9.04545,-0.68549 10.47818,0.0145 1.15626,0.56489 3.22729,1.33359 4.60229,1.70821 1.375,0.37462 3.2906,1.37545 4.25689,2.22407 0.96628,0.84862 2.74165,2.0339 3.94525,2.63396 5.83195,2.90754 7.41726,12.22863 4.23469,24.89851 -3.26041,12.97978 -8.27535,16.96549 -21.93683,17.43469 -5.27542,0.18118 -9.06288,-0.20482 -11.12088,-1.13339 z m 24.16633,-8.06782 c 1.35,-1.35 2.45287,-3.4875 2.45081,-4.75 -0.003,-2.02281 -0.25588,-1.88184 -2.12658,1.18687 -1.16756,1.91527 -2.85338,4.03846 -3.74626,4.71819 -1.11961,0.85234 -1.22139,1.24575 -0.32797,1.26769 0.7125,0.0175 2.4,-1.07275 3.75,-2.42275 z m -19.08347,-3.24382 c -1.13808,-1.73693 -1.96808,-2.28333 -2.23808,-1.47334 -0.44682,1.34048 2.73979,5.54136 3.57209,4.70905 0.26121,-0.26121 -0.33909,-1.71728 -1.33401,-3.23571 z m 13.36882,0.43298 c 3.26468,-3.00594 5.42837,-8.24539 4.32778,-10.47986 -0.47537,-0.96511 -1.70614,-3.49751 -2.73505,-5.62756 -1.1332,-2.34594 -3.14559,-4.48074 -5.10431,-5.41479 -3.42923,-1.63529 -3.52801,-3.2124 -0.20119,-3.2124 1.1,0 1.72189,-0.45 1.38197,-1 -0.9105,-1.47322 -6.18181,-1.2159 -9.42256,0.45995 -2.74773,1.42091 -4.89999,5.7403 -3.15808,6.338 0.47758,0.16387 0.65878,1.09922 0.40268,2.07856 -0.55891,2.13728 2.23716,13.37039 4.34048,17.43778 1.31062,2.53445 1.89727,2.82375 4.62126,2.27895 1.71604,-0.3432 4.2122,-1.62959 5.54702,-2.85863 z m -15.44857,-8.48461 c -0.36073,-1.5125 -1.23259,-4.1 -1.93748,-5.75 l -1.2816,-3 -0.0816,3.1849 c -0.0982,3.83592 1.47078,8.3151 2.91273,8.3151 0.63103,0 0.78444,-1.0875 0.38793,-2.75 z m 29.67044,-13.0544 c -0.59333,-2.20345 -1.96857,-5.06137 -3.0561,-6.35094 l -1.97732,-2.34466 1.38867,4 c 2.57454,7.41585 3.64551,9.7799 4.18578,9.23963 0.29576,-0.29576 0.0523,-2.34057 -0.54103,-4.54403 z M 212.2779,295.17205 c 3.42492,-1.85218 3.43983,-1.88688 0.6951,-1.61747 -1.5427,0.15143 -3.55163,1.02205 -4.46429,1.93471 -2.17508,2.17508 -0.59323,2.04194 3.76919,-0.31724 z m 42.02185,-12.98009 c -1.65381,-3.27619 -4.36029,-7.4981 -6.01439,-9.38202 -1.6541,-1.88391 -3.00746,-4.10525 -3.00746,-4.9363 0,-2.21465 2.46444,-2.78839 4.83753,-1.12621 1.86755,1.30808 2.17473,1.24686 3.18138,-0.63409 1.34461,-2.51242 0.39281,-7.74223 -1.8802,-10.33107 -0.90129,-1.02651 -3.65999,-3.26047 -6.13044,-4.96435 -4.07074,-2.8076 -5.36461,-3.13614 -13.80502,-3.50529 -8.9664,-0.39216 -9.56259,-0.28175 -16.00624,2.96435 -4.24174,2.13685 -8.97482,5.70288 -12.92352,9.73691 -6.04554,6.17619 -9.27349,7.45529 -9.27349,3.67467 0,-3.07022 12.2689,-14.14925 20,-18.06035 7.1255,-3.60473 7.96393,-3.79118 16.79102,-3.73414 7.89716,0.051 10.07249,0.44676 14.5,2.63779 9.26676,4.58582 14.68003,11.53191 14.7034,18.86681 0.008,2.39277 1.65104,2.21377 2.29533,-0.25 0.58058,-2.22016 3.64516,-2.66509 5.51025,-0.8 2.09004,2.09004 1.31036,6.53038 -2.3,13.09862 -1.925,3.50211 -3.5,7.51946 -3.5,8.92744 0,2.1126 -1.57041,3.77394 -3.56739,3.77394 -0.2221,0 -1.75694,-2.68052 -3.41076,-5.95671 z m -47.50502,-59.29329 c -0.45497,-1.96379 -2.48641,-18.96922 -2.50863,-21 -0.005,-0.4125 -2.0332,-0.75 -4.5082,-0.75 -6.48036,0 -5.98518,-2.42633 0.90391,-4.42904 2.97215,-0.86403 6.0517,-1.57096 6.84345,-1.57096 0.79175,0 4.08444,-0.90998 7.3171,-2.02218 3.23266,-1.1122 6.38703,-1.82668 7.00971,-1.58773 0.62268,0.23894 1.37249,3.08508 1.66626,6.32475 0.29376,3.23966 1.55259,8.25782 2.7974,11.15146 2.07441,4.8221 2.39677,5.12766 3.86273,3.66152 1.27679,-1.27694 1.58032,-3.72048 1.50468,-12.11294 -0.0913,-10.12553 -0.0175,-10.50226 2,-10.21409 1.94846,0.27831 2.11465,1.01384 2.37955,10.5316 0.21471,7.71442 -0.0954,10.96766 -1.26035,13.22035 -1.86847,3.61322 -4.87871,5.38698 -7.64967,4.50751 -3.00227,-0.95288 -7.873,-11.84126 -7.87398,-17.60203 l -7.9e-4,-4.64179 -5.75,1.8015 c -4.47046,1.40061 -5.6994,2.21101 -5.52263,3.64178 1.73892,14.07461 2.31184,20.79573 1.87066,21.94543 -0.81711,2.12934 -2.49783,1.66287 -3.0812,-0.85514 z m 43.98317,-6.61056 c -1.65,-1.0192 -3.85724,-2.81751 -4.90499,-3.99626 -2.46259,-2.77051 -3.23808,-2.70143 -4.00565,0.35682 -0.34511,1.375 -1.28556,2.5 -2.08989,2.5 -1.15115,0 -1.39363,-1.22388 -1.13923,-5.75 0.17776,-3.1625 0.58436,-6.425 0.90357,-7.25 0.3192,-0.825 0.87799,-3.27907 1.24176,-5.45349 0.97123,-5.80546 4.17492,-11.54651 6.44333,-11.54651 5.90399,0 6.65227,7.41969 1.51775,15.04956 l -3.53335,5.25054 2.28335,2.44496 c 1.25584,1.34473 3.45448,3.05444 4.88585,3.79936 l 2.60251,1.35439 1.72497,-9.6994 c 0.94873,-5.33468 1.9426,-10.89932 2.2086,-12.36587 0.58491,-3.22482 2.77439,-4.27771 4.76208,-2.29002 0.8022,0.8022 3.5618,4.83308 6.13245,8.95751 2.57064,4.12443 5.06875,7.49897 5.55134,7.49897 1.48092,0 2.20436,-4.88561 1.54905,-10.46127 -0.48408,-4.11874 -0.2783,-5.58863 0.92184,-6.58466 4.68807,-3.89075 6.98606,11.40906 2.93575,19.54593 -1.66023,3.33531 -2.48961,4 -4.99109,4 -2.61692,0 -3.62656,-0.93953 -7.90674,-7.35767 l -4.90674,-7.35767 -1.66532,5.35767 c -0.91593,2.94672 -2.22662,6.39894 -2.91266,7.67159 -0.96165,1.78397 -0.97678,2.63991 -0.0661,3.73727 3.27447,3.94549 -2.2668,5.84701 -7.54248,2.58825 z m -2.5318,-25.00425 c -0.0848,-1.6934 -2.963,3.52044 -2.92906,5.30594 0.0289,1.51838 0.42264,1.17555 1.5,-1.30594 0.80347,-1.85065 1.44655,-3.65065 1.42906,-4 z M 173.961,536.96117 c -0.31922,-0.79773 -0.55618,-0.56078 -0.60416,0.60417 -0.0434,1.05416 0.19292,1.64479 0.52522,1.3125 0.33229,-0.33229 0.36781,-1.1948 0.0789,-1.91667 z m -0.97585,-7.05084 c -0.23919,-1.24391 -0.44398,-0.46166 -0.45508,1.73834 -0.0111,2.2 0.18461,3.21775 0.4349,2.26166 0.25029,-0.95609 0.25937,-2.75609 0.0202,-4 z m -11.96269,-39.51166 c -0.18332,-4.8125 -0.3333,-0.875 -0.3333,8.75 0,9.625 0.14998,13.5625 0.3333,8.75 0.18331,-4.8125 0.18331,-12.6875 0,-17.5 z m 276.21644,22.10781 c 1.766,-0.3532 3.4656,-1.3657 3.777,-2.25 1.0358,-2.94221 3.5445,-5.10781 5.917,-5.10781 1.9831,0 2.345,-0.50592 2.345,-3.27776 0,-2.09255 0.7595,-3.92808 2.1005,-5.07626 2.4182,-2.07055 2.3382,-3.33186 -1.088,-17.14598 -2.0041,-8.08054 -2.3137,-12.72892 -3.0304,-45.5 -0.4389,-20.075 -1.2622,-39.65 -1.8293,-43.5 -1.8606,-12.63002 -3.1668,-27.60683 -4.7096,-54 -2.5609,-43.81153 -5.8832,-70.81051 -11.4247,-92.84404 l -2.8058,-11.15596 -0.1064,7.70969 c -0.058,4.24033 0.5615,17.96533 1.3776,30.5 2.705,41.54384 3.6809,64.37821 4.5001,105.29031 0.5458,27.26124 1.3446,44.58604 2.4436,53 4.2773,32.74898 5.787,42.55363 6.7263,43.68549 0.5601,0.6748 0.749,1.66262 0.4199,2.19517 -0.3292,0.53255 0.094,5.58012 0.9408,11.21683 1.4818,9.86566 1.0524,13.51437 -1.2587,10.69489 -1.1698,-1.42703 -5.1637,-25.40399 -7.9223,-47.56005 -1.3085,-10.50973 -2.004,-13.6704 -2.6404,-12 -0.4753,1.24722 -0.9382,16.08544 -1.0287,32.97383 -0.156,29.1255 -0.067,30.77778 1.737,32.09736 1.3115,0.95957 1.5442,1.61199 0.75,2.10285 -0.6333,0.39142 -1.1515,2.48511 -1.1515,4.65265 0,4.22816 0.3488,4.42121 5.961,3.29879 z m 4.039,-73.18833 c 0,-3.8217 -0.7015,-10.64672 -1.559,-15.16672 -0.8574,-4.51999 -1.3293,-8.4478 -1.0486,-8.72846 0.2806,-0.28067 0.7937,0.7803 1.1402,2.3577 0.3465,1.5774 1.0258,3.993 1.5095,5.368 1.7251,4.9033 3.0364,15.06474 2.3892,18.51459 -1.1451,6.10388 -2.4313,4.86327 -2.4313,-2.34511 z m -274.442,33.58052 c -0.3938,-5.0875 -1.0787,-11.05 -1.52201,-13.25 l -0.806,-4 -0.115,4.9481 c -0.11927,5.13198 1.95482,21.5519 2.72234,21.5519 0.24017,0 0.11447,-4.1625 -0.27933,-9.25 z m -2.8749,-19.9375 c -0.31922,-0.79773 -0.55618,-0.56078 -0.60416,0.60417 -0.0434,1.05416 0.19292,1.64479 0.52522,1.3125 0.33229,-0.33229 0.36781,-1.1948 0.0789,-1.91667 z m -10.56487,-46.8125 c -1.55819,-24.80789 -1.31835,-81.63506 0.42029,-99.5841 1.03528,-10.68783 1.40863,-25.98899 1.281,-52.5 -0.16636,-34.55881 -0.2618,-36.44863 -1.24982,-24.7487 -0.58834,6.96697 -1.40721,13.00447 -1.81971,13.41667 -1.05878,1.05803 -0.93537,-3.42641 0.69033,-25.08387 2.50655,-33.39216 2.86786,-56.35259 1.13932,-72.4024 -0.85312,-7.92132 -1.73635,-14.58763 -1.96274,-14.81402 -1.25772,-1.25772 -1.92542,31.69312 -2.01553,99.46568 -0.0558,41.93709 -0.37218,76.24959 -0.70316,76.25 -0.67829,8.3e-4 -1.80406,-12.92251 -2.04706,-23.49926 l -0.16082,-7 -0.66933,8.5 c -0.75428,9.57878 -0.53257,20.37704 0.95475,46.5 2.14602,37.6925 3.21094,59.80138 4.06915,84.48034 0.4881,14.03581 1.24017,26.86966 1.67127,28.51966 1.29547,4.95829 1.55405,-19.15917 0.40206,-37.5 z m 11.3458,34.75 c -0.398,-2.8875 -1.48091,-12 -2.40647,-20.25 -1.03626,-9.23679 -1.92776,-14.03947 -2.32032,-12.5 -1.26918,4.97726 -2.04823,25.91925 -1.0127,27.22267 0.55814,0.70253 1.58254,3.07733 2.27644,5.27733 1.57256,4.98576 1.86725,5.5 3.15186,5.5 0.67358,0 0.78221,-1.8327 0.31119,-5.25 z m -6.23658,-56.75 c 0.1499,-5.775 0.10711,-17.475 -0.0951,-26 -0.29291,-12.34998 -0.53542,-14.49744 -1.19331,-10.5668 -1.77982,10.63383 -2.97227,38.02428 -1.98376,45.5668 0.54062,4.125 1.04976,8.4 1.13143,9.5 0.34041,4.58475 1.88886,-8.79695 2.14072,-18.5 z m -2.28931,-54.02658 c 0.64903,-6.46373 0.70367,-11.62195 0.14271,-13.47342 -0.85794,-2.83164 -0.91378,-2.74204 -0.99491,1.59638 -0.0473,2.528 -0.37365,8.828 -0.72529,14 -0.85299,12.54595 0.25416,11.05598 1.57749,-2.12296 z M 422.8897,189.14867 c -0.5457,-28.10528 -2.0741,-42.36658 -7.0199,-65.5 -2.1794,-10.19406 -2.5565,-14.44217 -2.5058,-28.227563 0.033,-8.92517 -0.1812,-16.61729 -0.4756,-17.09361 -0.2944,-0.47632 -1.0223,-6.89656 -1.6176,-14.2672 -0.5954,-7.37065 -1.4486,-13.76731 -1.8961,-14.2148 -1.0165,-1.01653 -3.2937,10.22373 -3.0694,15.1504 0.2522,5.53718 0.098,6.15278 -1.5392,6.15278 -1.1662,0 -1.4014,0.85734 -1.0289,3.75 0.2656,2.0625 0.9699,9.825 1.5651,17.25 1.3144,16.399083 3.0455,29.793633 7.4958,57.999993 3.8921,24.66824 5.7972,40.62427 7.6414,64 l 1.3017,16.5 0.8315,-7.5 c 0.4573,-4.125 0.6,-19.425 0.317,-34 z m -274.88201,-24.7277 c -0.21648,-2.07476 -0.39722,-0.6223 -0.40166,3.2277 -0.004,3.85 0.17268,5.54754 0.39359,3.7723 0.22091,-1.77523 0.22454,-4.92523 0.008,-7 z m 0.65385,-22.4382 0.65867,-13.6659 -2.59395,1.1659 c -2.4263,1.09055 -2.55517,1.48905 -1.99393,6.1659 0.93923,7.82657 2.86976,20.51487 3.08022,20.24449 0.10467,-0.13447 0.48671,-6.39415 0.84899,-13.91039 z m 1.49804,-24.77523 c -0.0651,-3.60738 -0.46184,-7.90887 -0.88169,-9.55887 -0.69887,-2.74651 -0.77397,-2.61977 -0.88879,1.5 -0.069,2.475 -0.37845,7.65 -0.68769,11.5 -0.51987,6.47226 -0.44394,6.85366 1.00711,5.05887 1.10311,-1.36442 1.53422,-3.88978 1.45106,-8.5 z m -4,-12.86789 c 0.0662,-5.772193 -0.27191,-10.067843 -0.76838,-9.761003 -1.28291,0.79288 -2.85909,-1.46761 -3.43756,-4.92997 -0.99631,-5.96336 0.41497,14.211253 1.57396,22.499993 1.47242,10.53039 2.45495,7.61523 2.63198,-7.80902 z m 0.103,-20.940973 c 0.008,-2.8875 -0.43469,-5.25 -0.98469,-5.25 -0.56941,0 -0.99341,2.90646 -0.98469,6.75 0.0107,4.72723 0.30581,6.30049 0.98469,5.25 0.53316,-0.825 0.97627,-3.8625 0.98469,-6.75 z m -4.30158,-1.4375 c -0.31922,-0.79773 -0.55618,-0.56078 -0.60416,0.60417 -0.0434,1.05416 0.19292,1.64479 0.52522,1.3125 0.33229,-0.3323 0.36781,-1.1948 0.0789,-1.91667 z m 31.81689,-8.73782 c 22.85416,-3.36854 40.81375,-6.4701 39.67094,-6.85104 -0.61001,-0.20333 -7.01386,0.58351 -14.23078,1.74856 -7.21692,1.16504 -21.2202,2.72226 -31.11839,3.4605 -10.03226,0.74823 -18.48906,1.83459 -19.10924,2.45477 -1.76056,1.76056 9.92888,1.37726 24.78747,-0.81279 z m -31.6873,-3.59531 c -0.89961,-0.89962 -2.99764,1.41237 -2.30243,2.53724 0.57363,0.92816 1.00635,0.81162 1.71978,-0.4632 0.5243,-0.93688 0.7865,-1.8702 0.58265,-2.07404 z m 275.89301,-2.72937 c -0.2383,-1.2375 -0.4333,-0.225 -0.4333,2.25 0,2.475 0.195,3.4875 0.4333,2.25 0.2384,-1.2375 0.2384,-3.2625 0,-4.5 z m -229.7057,-2.25691 8.5,-1.35615 -7,0.52795 c -7.79313,0.58777 -16.49818,2.08137 -12.50001,2.14473 1.375,0.0218 6.325,-0.57065 11.00001,-1.31653 z m 31.26903,0.85097 c -0.67703,-0.27392 -2.02703,-0.29059 -3,-0.037 -0.97297,0.25354 -0.41903,0.47766 1.23097,0.49804 1.65,0.0204 2.44606,-0.18706 1.76903,-0.46099 z m 4.98097,-1.00634 c -0.6875,-0.27741 -1.8125,-0.27741 -2.5,0 -0.6875,0.27741 -0.125,0.50439 1.25,0.50439 1.375,0 1.9375,-0.22698 1.25,-0.50439 z m 6,-1 c -0.6875,-0.27741 -1.8125,-0.27741 -2.5,0 -0.6875,0.27741 -0.125,0.50439 1.25,0.50439 1.375,0 1.9375,-0.22698 1.25,-0.50439 z m -29,-1 c -0.6875,-0.27741 -1.8125,-0.27741 -2.5,0 -0.6875,0.27741 -0.125,0.50439 1.25,0.50439 1.375,0 1.9375,-0.22698 1.25,-0.50439 z m 35.47917,0.0581 c -0.33229,-0.33229 -1.1948,-0.36781 -1.91667,-0.0789 -0.79773,0.31922 -0.56078,0.55618 0.60417,0.60416 1.05416,0.0434 1.64479,-0.19292 1.3125,-0.52522 z m 158.12413,-8.45294 c 5.9456,-1.11642 6.4493,-1.42557 7.8496,-4.81793 0.8229,-1.99373 2.1489,-4.36018 2.9465,-5.25879 1.0811,-1.21784 1.2775,-2.93646 0.7716,-6.75 -0.3732,-2.81388 -0.8316,-5.11616 -1.0185,-5.11616 -0.187,0 -5.1915,1.34438 -11.1212,2.98751 -5.9297,1.64314 -15.5063,3.66609 -21.2813,4.49546 -5.775,0.82936 -12.975,2.16832 -16,2.97545 l -5.5,1.46752 5.75,-0.53493 c 3.497,-0.32533 5.75,-0.14604 5.75,0.45758 0,1.21846 -2.6968,1.82859 -20.5,4.63785 -13.52367,2.13398 -13.81287,2.22949 -8.5,2.80694 3.025,0.32879 12.7,1.48233 21.5,2.56341 16.7677,2.05993 28.7024,2.08604 39.3533,0.0861 z m -125.8533,-5.03291 c 7.975,-1.1025 14.95,-2.20514 15.5,-2.45033 0.55,-0.24519 -3.5,-0.20247 -9,0.0949 -9.71698,0.52544 -32.5,4.14902 -32.5,5.16905 0,0.59555 6.16504,-0.0716 26,-2.81367 z m 20.72917,-3.51414 c -0.33229,-0.33229 -1.1948,-0.36782 -1.91667,-0.0789 -0.79773,0.31923 -0.56078,0.55619 0.60417,0.60417 1.05416,0.0434 1.64479,-0.19293 1.3125,-0.52522 z m 60.52083,-1.05811 c -0.6875,-0.27741 -1.8125,-0.27741 -2.5,0 -0.6875,0.27741 -0.125,0.50438 1.25,0.50438 1.375,0 1.9375,-0.22697 1.25,-0.50438 z m -69.25,-2.33054 c 1.925,-0.47236 8.43116,-1.64849 14.45813,-2.61363 6.02698,-0.96514 10.4339,-1.92954 9.79316,-2.14312 -1.15058,-0.38353 -36.81578,5.40242 -38.75129,6.2866 -1.55946,0.7124 10.58313,-0.56873 14.5,-1.52985 z m 56.72917,1.38865 c -0.33229,-0.33229 -1.1948,-0.36782 -1.91667,-0.0789 -0.79773,0.31923 -0.56078,0.55619 0.60417,0.60417 1.05416,0.0434 1.64479,-0.19293 1.3125,-0.52522 z m 4.52083,-1.05811 c -0.6875,-0.27741 -1.8125,-0.27741 -2.5,0 -0.6875,0.27741 -0.125,0.50438 1.25,0.50438 1.375,0 1.9375,-0.22697 1.25,-0.50438 z m 5,-1 c -0.6875,-0.27741 -1.8125,-0.27741 -2.5,0 -0.6875,0.27741 -0.125,0.50438 1.25,0.50438 1.375,0 1.9375,-0.22697 1.25,-0.50438 z m -25.25779,-2.37361 c 8.44355,-1.67127 25.51216,-5.82417 24.2257,-5.89426 -1.72918,-0.0942 -44.45332,6.89195 -45.71791,7.4757 -1.59346,0.73555 16.52009,-0.59728 21.49221,-1.58144 z m 29.73696,1.43172 c -0.33229,-0.33229 -1.1948,-0.36782 -1.91667,-0.0789 -0.79773,0.31923 -0.56078,0.55619 0.60417,0.60417 1.05416,0.0434 1.64479,-0.19293 1.3125,-0.52522 z m -42,-4 c -0.33229,-0.33229 -1.1948,-0.36782 -1.91667,-0.0789 -0.79773,0.31923 -0.56078,0.55619 0.60417,0.60417 1.05416,0.0434 1.64479,-0.19293 1.3125,-0.52522 z m 58.77083,-2.41881 c 7.8164,-1.78208 7.9276,-1.88283 1.5,-1.35925 -3.575,0.29121 -9.425,1.12958 -13,1.86304 l -6.5,1.33355 7,-0.46269 c 3.85,-0.25447 8.8,-0.87307 11,-1.37465 z m -17.25,-1.6393 c -0.6875,-0.27741 -1.8125,-0.27741 -2.5,0 -0.6875,0.27741 -0.125,0.50438 1.25,0.50438 1.375,0 1.9375,-0.22697 1.25,-0.50438 z m 5.4792,-0.94189 c -0.3323,-0.33229 -1.19483,-0.36782 -1.9167,-0.0789 -0.79773,0.31923 -0.56078,0.55619 0.60417,0.60417 1.05413,0.0434 1.64483,-0.19293 1.31253,-0.52522 z m 5,-1 c -0.3323,-0.33229 -1.1948,-0.36782 -1.9167,-0.0789 -0.7977,0.31923 -0.5608,0.55619 0.6042,0.60417 1.0541,0.0434 1.6448,-0.19293 1.3125,-0.52522 z M 109.8099,513.89867 c -1.1329,-3.49468 -1.00999,-9.75 0.19156,-9.75 0.70666,0 1.27643,1.15602 1.27643,2.58976 0,2.55411 0.0929,2.58648 6.75,2.35137 3.7125,-0.13111 7.55841,0.10966 8.54646,0.53506 0.98805,0.42539 3.91305,0.45777 6.5,0.0719 10.44405,-1.55765 11.72122,-1.5683 13.57897,-0.11318 1.16676,0.91389 1.63122,2.10535 1.22915,3.15313 -0.5989,1.56068 -0.77882,1.56421 -2.45417,0.048 -2.31646,-2.09637 -3.56692,-2.05875 -11.05204,0.33245 -5.22353,1.66872 -7.26165,1.8299 -13.38027,1.05812 -4.47552,-0.56452 -7.57906,-0.55258 -8.1681,0.0314 -1.31363,1.30241 -2.53636,1.17757 -3.01799,-0.30812 z m -2.92502,-13.33179 c -0.33385,-0.86998 -0.60853,-11.10748 -0.61041,-22.75 -0.004,-24.68614 -1.16147,-38.97791 -4.67052,-57.66821 -5.089645,-27.1091 -5.414905,-31.43502 -6.278145,-83.5 -0.80148,-48.34016 -0.96542,-51.32327 -4.93845,-89.86142 -2.2602,-21.92378 -4.10946,-41.58472 -4.10946,-43.69098 0,-6.55943 1.68349,-5.23381 2.32595,1.83151 0.33613,3.69649 1.09419,10.77089 1.68458,15.72089 6.53357,54.77953 7.14446,63.61826 7.98278,115.5 0.83078,51.41523 1.28335,57.96634 5.526635,80 3.4631,17.98243 4.55769,31.11573 5.02151,60.25 0.3694,23.20357 -0.0921,28.96935 -1.93447,24.16821 z m 23.77671,-1.02554 c -0.43319,-1.726 -0.18612,-2.9039 0.73095,-3.48469 1.96029,-1.24147 4.88535,-1.11654 4.88535,0.20865 0,0.61551 -0.87685,0.88733 -1.95386,0.60569 -1.69169,-0.44239 -1.87619,-0.12258 -1.375,2.38336 0.73424,3.67121 -1.37174,3.93542 -2.28744,0.28699 z m 3.41613,-20.39267 c -0.34858,-0.825 -0.88128,-6.9 -1.18377,-13.5 -0.3025,-6.6 -0.98344,-13.4625 -1.51322,-15.25 -0.94576,-3.19106 0.13088,-4.68929 1.25836,-1.75111 1.90675,4.96892 3.32117,34.95662 1.43863,30.50111 z m -15.60108,-8.75 c 0.20099,-0.4125 0.97741,-2.1 1.72538,-3.75 6.10166,-13.45997 8.37782,-17.83615 8.75325,-16.82914 0.24009,0.64397 -0.65267,3.34397 -1.98391,6 -1.33124,2.65602 -2.99051,6.62914 -3.68727,8.82914 -0.69677,2.2 -1.7133,4.5625 -2.25897,5.25 -1.06266,1.33888 -3.15744,1.74986 -2.54848,0.5 z m 0.81088,-26.41667 c 0.0199,-4.83361 3.04248,-29.66415 4.60533,-37.83333 1.78128,-9.31093 3.99604,-13.603 3.09608,-6 -0.29297,2.475 -1.26538,11.025 -2.16092,19 -2.8129,25.04967 -3.01837,26.32799 -4.30012,26.75258 -0.76268,0.25265 -1.24625,-0.49558 -1.24037,-1.91925 z m -4.51016,-29.08333 c 0.6362,-4.86079 4.22423,-21.23812 6.57256,-30 0.55278,-2.0625 1.4902,-3.75 2.08315,-3.75 0.65538,0 0.80809,0.8822 0.38947,2.25 -0.71573,2.33859 -7.46941,34.68136 -7.51737,36 -0.015,0.4125 -0.51951,0.75 -1.12112,0.75 -0.74014,0 -0.87164,-1.69761 -0.40669,-5.25 z m 1.50053,-45.70549 c 0,-4.0329 6.17742,-33.50716 7.24008,-34.54451 0.69741,-0.6808 0.7983,0.1172 0.31607,2.5 -0.38958,1.925 -1.97923,10.16764 -3.53255,18.31698 -2.69987,14.16452 -4.0236,18.68077 -4.0236,13.72753 z m -8.33496,-30.79451 c -0.71777,-1.18838 1.08575,-18.01475 2.81358,-26.25 2.90009,-13.82255 12.21003,-45.88884 13.79086,-47.5 1.34107,-1.3668 0.87026,0.73914 -5.06782,22.66816 -5.22039,19.27867 -9.20166,39.81188 -9.20166,47.45717 0,3.92113 -1.11266,5.64837 -2.33496,3.62467 z m 0.56861,-61.84655 c 0.6572,-7.19456 3.6155,-19.5342 5.01138,-20.90345 1.09105,-1.07024 0.98505,-0.31763 -1.69006,12 -0.83613,3.85 -1.52806,8.43594 -1.53761,10.19098 -0.01,1.75504 -0.53612,3.5116 -1.17016,3.90346 -0.84236,0.5206 -1.00759,-0.87732 -0.61355,-5.19099 z M 92.305315,153.63584 c 0.0264,-28.12412 -0.36287,-38.44408 -2.10311,-55.749993 -2.44091,-24.27383 -2.1697,-44.31589 0.56273,-41.58347 0.26787,0.26787 0.66546,6.75537 0.88354,14.41667 0.21807,7.6613 1.21491,20.45463 2.21519,28.42963 1.44937,11.555553 1.79474,20.997583 1.70075,46.497543 -0.11954,32.43292 -0.67889,42.50245 -2.36099,42.50245 -0.55672,0 -0.91752,-13.8648 -0.89811,-34.51283 z m 12.972575,26.07064 c 0,-0.4632 0.86883,-3.8157 1.93074,-7.45 1.06191,-3.63429 2.42925,-8.52031 3.03854,-10.85781 0.6093,-2.3375 1.48035,-4.25 1.93569,-4.25 0.96595,0 -4.65715,21.0419 -5.9994,22.45 -0.49806,0.5225 -0.90557,0.57102 -0.90557,0.10781 z M 85.511585,44.930257 c -1.69414,-2.04132 -0.62784,-2.7198 3.27828,-2.08593 4.86172,0.78895 13.278285,-1.45944 14.002275,-3.74056 0.48232,-1.51966 0.99895,-1.67838 2.79675,-0.85925 1.70828,0.77834 4.71461,0.21793 13.3424,-2.48717 22.73712,-7.12884 41.92925,-9.12754 101.34661,-10.55438 36.85974,-0.88515 42.3426,-1.24402 61,-3.99272 35.46836,-5.22538 42.62872,-5.68126 58.59886,-3.73078 19.99724,2.44232 24.64914,2.28533 57.15114,-1.92869 4.4057,-0.57121 5.25,-0.42654 5.25,0.89959 0,0.86915 -0.4237,1.84215 -0.9416,2.16223 -0.5179,0.32007 -7.1554,1.46459 -14.75,2.54338 -16.4394,2.33514 -31.32342,2.48425 -48.22105,0.48309 -14.45225,-1.71156 -22.66795,-1.18513 -55.58735,3.56186 -19.03818,2.74531 -24.73679,3.11559 -61,3.96359 -56.04037,1.31049 -77.53265,3.19014 -96.00001,8.39588 -7.33143,2.06665 -1.93416,1.90597 10.26671,-0.30565 5.64669,-1.02356 10.50259,-1.47934 10.7909,-1.01286 0.2883,0.46649 -0.50672,1.06816 -1.76671,1.33706 -11.72833,2.50295 -18.97162,3.56973 -24.2379,3.56973 -3.42819,0 -9.79256,0.91913 -14.14304,2.04252 -11.267305,2.90945 -19.634635,3.59661 -21.176265,1.73906 z M 401.8443,4.2508966 c -1.3876,-0.5434 -1.5859,-0.97213 -0.7021,-1.51833 1.4952,-0.9241 4.1357,-0.04 4.1357,1.38472 0,1.17774 -0.698,1.20489 -3.4336,0.13361 z"
     style="fill:#000000"
     inkscape:connector-curvature="0" />
</svg>
