<?xml version="1.0" encoding="UTF-8" standalone="no"?>
<svg
   xmlns:dc="http://purl.org/dc/elements/1.1/"
   xmlns:cc="http://creativecommons.org/ns#"
   xmlns:rdf="http://www.w3.org/1999/02/22-rdf-syntax-ns#"
   xmlns:svg="http://www.w3.org/2000/svg"
   xmlns="http://www.w3.org/2000/svg"
   xmlns:sodipodi="http://sodipodi.sourceforge.net/DTD/sodipodi-0.dtd"
   xmlns:inkscape="http://www.inkscape.org/namespaces/inkscape"
   viewBox="0 0 2127.1492 2000.1122"
   height="2000.1122"
   width="2127.1492"
   version="1.1"
   id="svg3390"
   inkscape:version="0.91 r13725"
   sodipodi:docname="editing_a_movie.svg">
  <sodipodi:namedview
     pagecolor="#ffffff"
     bordercolor="#666666"
     borderopacity="1"
     objecttolerance="10"
     gridtolerance="10"
     guidetolerance="10"
     inkscape:pageopacity="0"
     inkscape:pageshadow="2"
     inkscape:window-width="779"
     inkscape:window-height="731"
     id="namedview5354"
     showgrid="false"
     inkscape:zoom="0.14573496"
     inkscape:cx="1063.5746"
     inkscape:cy="1848.4104"
     inkscape:window-x="0"
     inkscape:window-y="0"
     inkscape:window-maximized="0"
     inkscape:current-layer="svg3390"
     inkscape:showpageshadow="false" />
  <metadata
     id="metadata3396">
    <rdf:RDF>
      <cc:Work
         rdf:about="">
        <dc:format>image/svg+xml</dc:format>
        <dc:type
           rdf:resource="http://purl.org/dc/dcmitype/StillImage" />
        <dc:title></dc:title>
      </cc:Work>
    </rdf:RDF>
  </metadata>
  <defs
     id="defs3394" />
  <path
     id="path3400"
     d="m 551.80053,1471.1921 c -160.6768,-3.4806 -187.3408,-4.9696 -255,-14.2403 -49.81753,-6.8261 -57.18887,-7.4557 -86.24997,-7.3674 -22.96819,0.07 -32.64979,0.7283 -58.75,3.9957 -17.1875,2.1516 -44.308,4.7793 -60.267793,5.8392 -27.631111,1.835 -33.799561,2.9227 -37.693521,6.6467 -2.366,2.2627 -3.41744,0.8072 -1.27932,-1.7709 3.54817,-4.2784 9.86442,-5.4684 38.890481,-7.3274 16.005093,-1.0251 42.881403,-3.6684 59.725153,-5.874 26.97552,-3.5324 34.2,-4.0149 60.625,-4.0495 31.30046,-0.041 35.53482,0.3217 86.87497,7.4394 56.7581,7.8689 69.1955,8.6851 185,12.14 63.4736,1.8936 331.5064,1.6276 376.25,-0.3734 28.6027,-1.2792 57.1906,-3.6738 103.125,-8.6379 37.64497,-4.0683 88.60897,-8.5396 142.50007,-12.5022 55.0904,-4.0509 83.6582,-6.9808 153.125,-15.7044 150.5249,-18.9028 183.6181,-20.0838 296.2182,-10.5709 23.7363,2.0054 56.3756,4.529 72.5318,5.6081 90.3193,6.0327 155.4244,11.2067 188.75,15.0002 63.8939,7.273 105.6641,9.6205 186.772,10.4968 55.2549,0.5969 71.2631,1.1176 71.6666,2.3311 0.4003,1.2032 -4.1756,1.5996 -19.897,1.7238 -89.111,0.7042 -151.951,-1.8585 -221.0416,-9.0143 -65.5084,-6.7848 -111.7744,-10.6917 -198.125,-16.7302 -24.75,-1.7308 -64.6875,-4.8868 -88.75,-7.0132 -95.434,-8.4338 -152.9899,-6.2868 -285.625,10.6544 -69.5578,8.8846 -95.7967,11.5859 -152.5,15.7002 -62.7201,4.5508 -86.9232,6.7577 -171.25007,15.6148 -22.3437,2.3469 -50.4687,4.8874 -62.5,5.6456 -34.988,2.2049 -255.6063,3.8026 -323.125,2.34 z m 104.0388,-28.19 c -2.5911,-3.202 -5.5777,-8.8025 -6.6368,-12.4456 -1.9911,-6.8495 -2.006,-17.348 -0.024,-17.348 0.6201,0 2.2292,2.1228 3.5756,4.7174 2.6181,5.0449 6.2987,7.7602 9.0749,6.6949 0.9391,-0.3604 3.8274,-4.3412 6.4185,-8.8463 4.6456,-8.0772 7.3123,-10.0015 8.7323,-6.3011 1.1517,3.0014 -5.4007,14.9551 -10.9416,19.961 l -5.0634,4.5744 1.9756,4.9377 c 4.4556,11.1354 0.462,13.4132 -7.1105,4.0556 z m 24.7698,-0.3238 c -0.4375,-0.7079 -0.1779,-3.5805 0.5769,-6.3836 1.4104,-5.238 2.5467,-151.5606 1.1875,-152.9265 -0.3723,-0.3742 -7.6848,-0.1435 -16.25,0.5126 -43.518,3.3334 -79.9916,5.1651 -136.198,6.84 -34.0312,1.014 -77.2304,2.3775 -95.9981,3.0299 -33.4979,1.1645 -78.924,0.347 -134.0019,-2.4117 -30.05167,-1.5052 -56.37181,-1.4771 -68.74997,0.073 -5.15625,0.6459 -13.71844,1.3532 -19.02708,1.5719 -6.85503,0.2824 -10.32477,1.0064 -11.97342,2.4984 -2.73899,2.4788 -4.22029,2.63 -6.2156,0.6347 -1.61099,-1.611 -106.743002,-1.9314 -137.158904,-0.418 -18.66153,0.9286 -45.77432,-0.8952 -55.18826,-3.7123 -8.5858,-2.5693 -12.26853,-5.6013 -11.1363,-9.1687 0.96147,-3.0292 3.19956,-3.7257 3.19956,-0.9956 0,0.9566 2.1576796,2.6026 4.7948496,3.6578 11.5416304,4.6181 18.3214804,4.8688 106.1426544,3.9261 l 85.3125,-0.9158 0.0182,-14.5162 c 0.01,-7.9839 0.8419,-25.2037 1.84863,-38.2662 1.00673,-13.0625 1.79691,-25.1562 1.75596,-26.875 -0.0937,-3.9335 -1.7506,1.9416 -9.87061,35 -6.80822,27.7179 -10.39561,38.2037 -13.66969,39.9559 -5.71992,3.0612 -7.52689,-3.6728 -8.46297,-31.5385 -0.4103,-12.2141 -0.91783,-22.0357 -1.12785,-21.8257 -0.21001,0.21 -1.87312,6.2659 -3.6958,13.4576 -3.52491,13.9082 -5.74318,18.7007 -8.65571,18.7007 -3.59128,0 -4.60217,-5.192 -4.80888,-24.6991 -0.124,-11.6975 -0.70515,-19.6234 -1.45628,-19.8594 -0.6875,-0.216 -3.08245,2.4087 -5.32211,5.8329 -4.49933,6.8788 -5.60315,7.3634 -8.65455,3.7997 -2.00465,-2.3413 -2.21156,-2.1597 -5.92526,5.2016 -6.20015,12.2899 -10.38998,12.9041 -11.65194,1.708 -0.53774,-4.7712 -0.29744,-5.7337 1.43162,-5.7337 1.14282,0 2.56827,1.2657 3.16767,2.8125 1.12775,2.9104 1.66361,2.0317 7.62268,-12.5 1.55725,-3.7974 3.13683,-3.5383 5.78785,0.9495 1.22224,2.0691 2.6265,3.616 3.12058,3.4375 0.49407,-0.1785 2.21706,-2.2932 3.82886,-4.6995 3.48396,-5.2012 7.35315,-6.1165 10.89279,-2.5768 2.31269,2.3127 2.58435,4.1467 2.64985,17.8893 l 0.073,15.3125 4.19296,-15 c 6.19065,-22.1465 8.39535,-27.5 11.3252,-27.5 2.37067,0 2.48376,1.2217 3.08586,33.3354 0.34375,18.3344 0.93899,33.6484 1.32275,34.031 1.15343,1.1502 3.14665,-5.7108 12.48968,-42.9914 10.0821,-40.2296 11.39191,-44.1335 14.60148,-43.5192 1.90598,0.3648 2.26613,2.1461 2.60993,12.9087 0.21936,6.867 -0.53158,25.9855 -1.66875,42.4855 -2.1732,31.5324 -2.13518,43.2557 0.14275,44.0052 1.75245,0.5766 4.64725,-12.9017 8.64577,-40.2552 1.70848,-11.6875 3.38967,-22.4812 3.73597,-23.9859 0.53873,-2.341 0.13292,-2.7019 -2.8112,-2.5 -2.69774,0.185 -3.52682,-0.3672 -3.83893,-2.5566 -0.3071,-2.1542 0.62666,-3.2812 4.08531,-4.9305 3.66887,-1.7495 4.62085,-2.9975 5.2399,-6.8688 0.41608,-2.602 1.49587,-5.727 2.39953,-6.9445 1.57112,-2.1168 1.74207,-2.1157 3.90691,0.026 2.10535,2.0825 2.24623,5.1464 2.01156,43.75 -0.13877,22.8308 0.21465,40.6669 0.7854,39.6356 1.42558,-2.5757 6.90998,-26.3484 10.09322,-43.75 3.48128,-19.0308 7.34011,-33.3122 9.48103,-35.089 4.87682,-4.0474 7.65957,2.9705 8.70919,21.964 0.37993,6.875 0.99292,14.4623 1.3622,16.8606 l 0.67143,4.3606 1.66003,-3.948 c 2.48689,-5.9146 10.36469,-17.9846 14.7411,-22.5857 8.01955,-8.4311 11.15725,-4.8788 13.43265,15.2077 0.7054,6.2267 1.7437,11.7824 2.3074,12.3461 0.5636,0.5637 2.2862,-2.898 3.8279,-7.6927 1.5417,-4.7947 3.8943,-9.8889 5.2281,-11.3206 4.7369,-5.0844 7.474,-3.3973 17.1743,10.5859 l 4.2215,6.0856 4.5396,-9.3248 c 5.3684,-11.0271 8.1657,-12.33 13.7161,-6.3883 2.0647,2.2103 5.3929,4.1005 8.1212,4.6123 2.5816,0.4844 5.1791,1.9069 5.8828,3.2218 0.6931,1.295 1.8149,2.3545 2.493,2.3545 0.678,0 3.4006,1.4346 6.0501,3.188 3.394,2.246 5.7381,2.9568 7.9337,2.4058 1.714,-0.4302 8.956,-5.5123 16.0934,-11.2936 15.4075,-12.4802 21.9199,-16.2434 26.2357,-15.1601 1.6947,0.4253 6.1137,3.6053 9.8199,7.0666 3.8261,3.5733 7.9167,6.2933 9.4642,6.2933 1.7278,0 5.2628,-2.7455 9.6565,-7.5 3.8121,-4.125 7.9705,-7.4897 9.2409,-7.4772 1.2704,0.013 4.7851,1.7 7.8104,3.75 4.5042,3.052 6.7685,3.7223 12.5,3.6998 8.8674,-0.035 14.6743,-2.6848 25.6561,-11.7084 4.7613,-3.9121 9.5235,-6.9461 10.5828,-6.7421 1.1173,0.2152 3.3613,4.2592 5.344,9.6305 4.0373,10.9375 6.1215,13.6384 8.4029,10.8895 0.8369,-1.0084 3.044,-6.2398 4.9047,-11.6253 2.6982,-7.8093 3.8869,-9.7918 5.871,-9.7918 2.0251,0 2.7468,1.3111 3.8799,7.0482 2.1684,10.979 2.9488,13.5768 4.0788,13.5768 0.5765,0 3.1825,-5.1493 5.7911,-11.4429 2.6087,-6.2936 6.2732,-13.1554 8.1433,-15.2484 3.3031,-3.6968 3.4907,-3.7463 6.567,-1.7306 3.7421,2.4519 7.5298,13.1346 9.6342,27.1719 2.3337,15.5673 2.656,16.7886 3.9193,14.854 0.621,-0.9509 3.6829,-9.6956 6.8043,-19.4327 3.7726,-11.7687 6.3831,-17.9754 7.7867,-18.514 4.6801,-1.7959 9.3789,8.9701 16.0163,36.6965 2.3671,9.8884 4.7315,18.7428 5.254,19.6766 0.5625,1.005 3.9452,-10.1568 8.2899,-27.3538 4.0369,-15.9783 8.0667,-30.8797 8.9552,-33.1141 1.7805,-4.4778 5.9004,-5.5608 7.2982,-1.9185 0.4525,1.1793 2.1433,13.6949 3.7573,27.8125 2.902,25.3837 5.9576,40.0435 8.3464,40.0435 2.4592,0 6.1202,-11.2801 9.7768,-30.124 5.8722,-30.2613 6.3387,-32.1293 8.776,-35.1392 2.2717,-2.8054 2.332,-2.8109 4.9415,-0.4492 1.5358,1.3898 4.1718,7.4036 6.2961,14.3641 11.3485,37.184 13.0895,42.0583 13.5309,37.8815 0.539,-5.0995 -3.2972,-86.7667 -4.114,-87.5836 -0.3279,-0.3279 -11.7101,0.068 -25.2938,0.8805 -27.7413,1.6587 -113.0243,3.3837 -256.5725,5.1897 -100.61,1.2657 -103.5777,1.4257 -138.75001,7.4771 -8.59375,1.4786 -35.3125,5.1805 -59.375,8.2265 -40.66947,5.1482 -47.05056,5.6321 -90.625,6.8722 -51.563454,1.4676 -75.796574,1.2357 -75.321344,-0.7206 0.18559,-0.764 12.57784,-1.5799 31.874992,-2.0986 71.281682,-1.9161 92.906912,-3.2864 134.071352,-8.4956 22,-2.784 48.38151,-6.4762 58.62558,-8.2049 34.15653,-5.7639 48.45053,-6.9464 90.12443,-7.456 155.2098,-1.8979 277.5341,-4.6041 309.375,-6.8443 9.2812,-0.653 18.0553,-1.2072 19.4978,-1.2314 2.5705,-0.043 2.6454,-0.7246 3.75,-34.1067 1.4475,-43.7423 0.9774,-71.5197 -1.5285,-90.3125 -1.1001,-8.25 -2.088,-21.5618 -2.1953,-29.5817 -0.1689,-12.61421 -0.5294,-14.95171 -2.6721,-17.32281 -2.0868,-2.3093 -3.3851,-2.6337 -8.2435,-2.0599 -3.5307,0.4171 -6.3176,0.1303 -7.1875,-0.7397 -2.4081,-2.408 -1.5874,-8.1623 2.2475,-15.7593 3.7269,-7.3829 8.0884,-11.4116 12.3542,-11.4116 2.0301,0 2.4625,-1.2687 3.0886,-9.0625 1.2594,-15.6768 -0.326,-53.1408 -3.0283,-71.5625 -4.4342,-30.2279 -4.7501,-33.4019 -4.792,-48.1374 -0.022,-7.9131 0.8719,-25.0693 1.9876,-38.125 1.1893,-13.917 1.9658,-35.0536 1.8769,-51.0898 -0.108,-19.4681 0.4273,-31.1781 1.857,-40.625 3.0704,-20.2881 3.8427,-27.5175 3.0692,-28.7313 -0.3886,-0.6098 -21.2379,-1.7576 -46.3316,-2.5506 -25.0938,-0.793 -70.375,-2.3074 -100.625,-3.3655 -59.0655,-2.066 -150.4227,-2.5893 -265.62501,-1.5218 -68.14155,0.6315 -73.17358,0.8357 -96.875,3.9313 -44.87015,5.8605 -92.651682,6.785 -105.146764,2.0343 -5.7458,-2.1845 -2.57512,-2.524 12.844242,-1.3752 19.940969,1.4856 52.830652,-0.2078 82.867262,-4.2666 36.80506,-4.9734 55.81384,-6.245 82.99675,-5.5524 13.48988,0.3438 37.05092,0.2541 52.35782,-0.1993 111.8855,-3.3143 140.8147,-2.9229 382.3742,5.1728 1.2056,0.04 2.3545,-11.2844 2.9979,-29.5514 l 0.5795,-16.453 -4.9708,-0.8398 c -5.1144,-0.8641 -10.1197,-0.2173 -17.2118,2.2242 -5.6757,1.9538 -7.1669,0.1465 -4.717,-5.717 2.3908,-5.7221 2.4321,-5.4786 -0.9088,-5.3607 -3.88,0.1369 -3.7475,-4.3608 0.1862,-6.3219 1.6493,-0.8223 4.6035,-4.0733 6.5648,-7.2245 5.1651,-8.2984 11.8665,-7.5472 8.6293,0.9674 -1.1335,2.9812 -0.9385,3.5093 1.6598,4.4972 1.6192,0.6157 4.1636,2.6698 5.6542,4.5647 1.4906,1.895 3.83,4.2298 5.1987,5.1885 2.3507,1.6464 2.4511,1.5299 1.8112,-2.102 -0.3895,-2.2114 -0.1387,-3.8451 0.5905,-3.8451 0.6973,0 1.2678,1.8437 1.2678,4.0972 0,2.6633 0.9538,4.9138 2.7255,6.4308 l 2.7255,2.3337 -2.8635,2.3187 c -2.6833,2.1728 -2.8944,3.4005 -3.3553,19.5066 -0.2705,9.4534 -0.7475,18.3176 -1.06,19.6983 -0.3125,1.3807 -0.1697,3.151 0.3173,3.934 0.6518,1.048 39.9699,1.5345 149.0105,1.8437 158.38949,0.4492 143.02679,0.8357 232.50007,-5.8496 44.1564,-3.2992 130.1596,-10.4168 173.125,-14.3277 74.79,-6.8077 85.8333,-7.5098 130.9375,-8.3244 36.144,-0.6529 44.6875,-1.1278 44.6875,-2.4843 0,-2.1707 2.089,-2.1621 3.3753,0.014 1.1122,1.8813 30.1222,2.5001 214.7497,4.581 195.6841,2.2055 273.4856,3.6467 300,5.5573 32.3693,2.3325 50.4001,4.0065 59.375,5.5124 3.7812,0.6345 11.7968,1.5587 17.8125,2.0539 8.5867,0.7068 10.9375,1.3109 10.9375,2.8108 0,2.0339 -5.1815,1.9184 -43.125,-0.9616 -65.0312,-4.9359 -115.9498,-6.1414 -369.375,-8.7448 -56.7188,-0.5827 -122.6719,-1.4737 -146.5625,-1.9801 -40.5984,-0.8606 -43.4375,-0.7803 -43.4375,1.2285 0,1.1821 -0.5717,1.796 -1.2704,1.3642 -0.6988,-0.4319 -0.8908,-1.3994 -0.4268,-2.1502 0.6075,-0.983 -11.1922,-1.1187 -42.1671,-0.485 -46.7039,0.9556 -62.6902,2.0051 -144.8857,9.5116 -48.9956,4.4745 -86.7273,7.5691 -201.875,16.5567 -34.12388,2.6636 -43.17688,2.8295 -154.33887,2.8295 l -118.0887,0 -1.0223,5.625 c -1.1582,6.3721 -1.4371,26.0772 -0.9734,68.75 0.2334,21.4791 -0.2331,33.743 -1.7355,45.625 -1.1546,9.1312 -2.3709,30.7616 -2.7764,49.375 -0.6871,31.5377 -0.1915,43.8896 3.4263,85.4019 1.7497,20.0764 -0.5505,170.43831 -2.996,195.84811 -1.409,14.6407 -1.7196,24.8223 -1.0486,34.375 0.1705,2.4274 0.9309,2.489 26.1826,2.1194 16.641,-0.2435 40.175,0.5355 65.3476,2.1631 43.327,2.8014 57.5131,2.4729 102.7711,-2.3804 12.895,-1.3828 34.53939,-3.0986 48.09869,-3.8128 13.55938,-0.7143 39.27838,-2.403 57.15338,-3.7528 44.0702,-3.3277 71.383,-4.6472 128.125,-6.1896 68.3503,-1.8579 107.6738,-3.5585 130,-5.6221 45.0936,-4.1678 68.6799,-4.815 113.75,-3.1213 45.2706,1.7011 42.5431,1.7801 130,-3.766 43.8215,-2.7789 122.7028,-4.0838 181.25,-2.9981 32.6563,0.6055 105.5,1.1031 161.875,1.1058 105.506,0.01 116.6219,0.4177 153.125,5.6847 5.1563,0.744 18.3295,1.7391 29.2739,2.2114 13.3637,0.5767 20.0574,1.3373 20.3816,2.316 1.0858,3.2778 -33.1591,2.4801 -83.5384,-1.9461 -27.5133,-2.4172 -37.0758,-2.5728 -141.4723,-2.3018 -104.5628,0.2714 -111.8395,0.4288 -110.0737,2.3811 4.2985,4.7525 3.0272,18.5514 -3.9067,42.4012 -1.5803,5.4358 -2.69,9.8833 -2.4659,9.8833 0.2241,0 4.1786,-7.327 8.7878,-16.2823 11.896,-23.1127 19.8958,-31.3355 25.2637,-25.9677 2.1521,2.1521 1.8015,11.2407 -0.9064,23.5 -1.2908,5.8438 -2.2546,10.726 -2.1417,10.8494 0.1125,0.1234 2.1376,-3.3922 4.4992,-7.8125 4.0843,-7.6442 7.4063,-10.0515 9.4058,-6.8162 0.4148,0.6714 -0.1138,7.0717 -1.1763,14.2229 -1.0619,7.1513 -1.9306,17.9661 -1.9306,24.0331 l 0,11.0307 5.1176,-4.9412 c 6.238,-6.023 14.1851,-17.0643 20.4719,-28.4427 5.8999,-10.678 8.3884,-10.843 9.6629,-0.6407 1.3114,10.499 3.9476,16.0172 7.6516,16.0172 4.5029,0 11.7889,-2.8692 20.221,-7.9629 8.788,-5.3087 12.3246,-5.6707 15.0321,-1.5385 2.7047,4.1278 8.3564,6.2287 14.2298,5.2895 2.6722,-0.4273 12.369,-3.0815 21.5484,-5.8981 9.1793,-2.8167 20.0287,-5.3287 24.1097,-5.5823 4.081,-0.2536 8.9618,-0.7998 10.8463,-1.2137 4.6555,-1.0225 9.1151,1.5073 19.5687,11.1005 13.0498,11.9758 19.0555,15.1117 29.0044,15.1447 4.4884,0.015 10.6919,-0.654 13.7856,-1.4866 9.1625,-2.4657 37.3983,-5.9823 47.5,-5.9159 6.2889,0.041 13.0783,1.145 20.625,3.3527 15.4076,4.5073 28.3996,6.4132 37.7588,5.5393 6.1707,-0.5763 7.8662,-0.3669 7.8662,0.9711 0,4.5714 -19.3481,5.8976 -35.9654,2.4652 -5.2855,-1.0917 -10.5401,-2.4827 -11.6767,-3.091 -1.1368,-0.6084 -5.9491,-1.7085 -10.6942,-2.4447 -7.2132,-1.1192 -11.3212,-0.9198 -25.0621,1.2161 -9.039,1.405 -18.622,2.5546 -21.2955,2.5546 -2.6734,0 -7.5507,0.9166 -10.8385,2.0369 -7.9723,2.7164 -18.7915,1.6989 -27.5624,-2.5923 -3.6868,-1.8038 -11.6706,-7.785 -17.7417,-13.2915 -10.4729,-9.4987 -11.2628,-9.968 -15.4135,-9.1567 -2.4063,0.4703 -6.2915,0.7525 -8.634,0.627 -2.3424,-0.1255 -12.7486,2.289 -23.125,5.3654 -24.1541,7.1614 -28.6904,7.8115 -35.4981,5.0876 -2.9207,-1.1686 -6.0893,-3.2371 -7.0415,-4.5967 -1.6868,-2.4082 -1.9549,-2.3392 -10.3925,2.6735 -4.7635,2.8299 -11.8799,5.8205 -15.814,6.6457 -9.4087,1.9735 -12.9072,0.1451 -16.3889,-8.5654 l -2.519,-6.3018 -4.3346,7.4211 c -5.189,8.8838 -17.6053,22.7399 -22.7707,25.4109 -3.4121,1.7645 -3.9117,1.7357 -6.2412,-0.3603 -2.3581,-2.1217 -2.4943,-3.4104 -1.9804,-18.7453 l 0.5519,-16.4669 -5.9698,9.7005 c -6.784,11.0236 -8.6835,12.9745 -11.5588,11.8712 -2.7358,-1.0498 -2.689,-1.3771 2.4615,-17.269 4.9818,-15.3715 7.9768,-28.1589 7.9326,-33.8689 l -0.029,-3.75 -3.5816,4.1871 c -1.97,2.3028 -7.8641,12.4278 -13.0982,22.5 -11.0362,21.237 -17.3903,30.5288 -20.475,29.941 -3.4855,-0.664 -3.1597,-5.2872 1.5053,-21.3564 8.5989,-29.6204 11.3135,-44.629 8.398,-46.4309 -3.9253,-2.426 -16.783,16.1894 -31.3756,45.4259 -15.2552,30.5639 -22.2449,40.7218 -26.2971,38.2174 -2.2741,-1.4055 -1.2453,-8.516 4.3287,-29.9156 7.4808,-28.7198 9.4743,-46.484 5.4928,-48.9447 -1.9118,-1.1816 -8.9948,7.3096 -13.7795,16.519 -2.4595,4.734 -6.5675,14.3681 -9.129,21.4092 -7.1036,19.5261 -14.7702,29.073 -23.3475,29.073 -6.7716,0 -7.5096,-5.0821 -3.54,-24.375 3.3451,-16.2574 3.1871,-16.6394 -2.0675,-5 -8.7954,19.4827 -16.96,28.4162 -22.686,24.8226 -1.1667,-0.7323 -2.4027,-3.2034 -2.7465,-5.4914 l -0.625,-4.1598 -2.9005,7.0258 c -3.7369,9.0517 -11.8687,18.4278 -15.9825,18.4278 -5.3596,0 -6.2186,-4.4952 -3.2727,-17.1265 2.2184,-9.5129 2.3263,-11.265 0.7978,-12.9719 -0.9718,-1.0854 -1.7671,-3.2453 -1.7671,-4.7997 0,-2.3646 -0.7954,-1.8201 -4.8687,3.3331 -5.0634,6.4056 -15.006,14.3822 -19.7493,15.844 -3.4546,1.0647 -6.1515,-2.6852 -7.3554,-10.2275 l -0.8496,-5.3235 -4.367,7.3819 c -2.4019,4.0601 -5.7607,8.1279 -7.4641,9.0395 -5.448,2.9157 -6.6009,-0.5639 -5.7989,-17.501 l 0.6877,-14.5234 -6.4779,10.625 c -7.1368,11.7055 -11.5629,16.9616 -15.0515,17.8739 -3.0123,0.7877 -7.4553,-2.3962 -7.4553,-5.3425 0,-6.0737 -1.3515,-6.4805 -6.3944,-1.9246 -8.0307,7.2553 -14.5511,5.0564 -17.357,-5.8533 -0.7608,-2.9582 -1.5216,-5.8844 -1.6907,-6.5028 -0.1691,-0.6184 -2.2482,1.9077 -4.6201,5.6135 -5.7427,8.9718 -10.7998,14.621 -15.0613,16.8247 -4.3297,2.239 -4.2686,2.2404 -6.6622,-0.1531 -1.1205,-1.1205 -1.9643,-4.0784 -1.9643,-6.8856 0,-4.6476 -0.1436,-4.8338 -2.5814,-3.3482 -2.2407,1.3654 -2.9006,1.1836 -5,-1.3779 -1.5603,-1.9039 -2.4186,-4.8615 -2.4186,-8.3353 0,-9.6409 -0.8401,-10.0642 -7.5387,-3.7985 -7.4554,6.9737 -11.6992,8.2774 -15.2819,4.6947 l -2.5931,-2.5932 -5.4132,3.8875 c -3.5321,2.5365 -6.718,3.815 -9.1681,3.6791 -2.0652,-0.1146 -4.4581,-0.243 -5.3175,-0.2854 -0.8594,-0.042 -4.2245,0.8648 -7.4781,2.016 -10.6076,3.7531 -15.5426,0.1 -16.8396,-12.4671 -0.3958,-3.8345 -1.046,-6.9719 -1.445,-6.9719 -0.399,0 -5.3647,2.8449 -11.0347,6.3221 -5.67,3.4771 -12.1596,6.6223 -14.4212,6.9893 -6.6858,1.0849 -12.5069,-1.0928 -15.7424,-5.8894 -1.5942,-2.3633 -3.5619,-4.297 -4.3726,-4.297 -0.8108,0 -2.6001,2.1393 -3.9765,4.7539 -2.0935,3.9771 -3.013,4.6538 -5.6274,4.1413 -2.1045,-0.4125 -7.0016,1.2978 -14.9967,5.2375 -10.0389,4.9467 -13.2248,5.9183 -20.634,6.2925 -7.53,0.3802 -9.0825,0.089 -11.0394,-2.0738 -2.0985,-2.3188 -2.6098,-2.3774 -6.5134,-0.7463 -5.8405,2.4403 -10.5905,2.2196 -18.3327,-0.8518 -7.824,-3.1037 -9.5339,-2.695 -24.4162,5.836 -12.1872,6.9862 -17.8351,8.6364 -23.3401,6.8196 -5.6562,-1.8668 -9.4046,-6.2304 -11.8834,-13.8343 l -2.0985,-6.4369 -4.8276,6.0562 c -26.868,33.7049 -42.7017,33.4917 -45.5272,-0.6129 l -0.7658,-9.2426 -4.8688,11.7058 c -11.0075,26.4646 -20.0629,35.8818 -25.1129,26.1162 -1.0649,-2.0592 -2.7746,-11.6691 -3.8362,-21.5625 -2.2533,-20.9972 -2.4683,-21.9155 -3.5933,-15.3479 -2.0524,11.9816 -4.9458,22.2599 -8.2077,29.1572 -3.8909,8.2274 -5.03,9.3599 -8.1936,8.1459 -1.9726,-0.757 -2.1019,-2.7119 -1.4681,-22.1916 0.4992,-15.3409 0.353,-19.7761 -0.5187,-15.7365 -4.8803,22.6153 -9.0458,33.5454 -16.2902,42.7446 -10.3647,13.1615 -15.1271,3.5773 -10.4276,-20.985 1.0219,-5.3407 1.6715,-9.8968 1.4437,-10.1246 -0.2278,-0.2278 -2.0291,3.3856 -4.0029,8.0298 -6.2926,14.8059 -12.233,24.6763 -15.0996,25.0888 -3.7915,0.5456 -4.1378,-1.6543 -2.2348,-14.1951 2.1305,-14.0397 2.1302,-14.0074 0.091,-11.2193 -2.5007,3.4199 -5.8058,1.6044 -5.8058,-3.189 0,-4.2833 0.8609,-4.1419 -11.065,-1.8176 -1.617,0.3152 -3.7756,1.2664 -4.7968,2.114 -3.0276,2.5127 -26.4166,2.7361 -30.15304,0.288 -2.8232,-1.8499 -3.2055,-1.8198 -5.4545,0.4292 -2.22404,2.2241 -3.05164,2.2996 -10.29224,0.9389 -9.8732,-1.8554 -10.2763,-2.1221 -11.2784,-7.4638 -0.4529,-2.4139 -1.2529,-4.3889 -1.7778,-4.3889 -0.5249,0 -4.29629,2.0219 -8.38079,4.493 -21.4443,12.9736 -30.5448,14.6893 -35.4174,6.6771 l -2.128,-3.4993 -9.9405,4.5349 c -13.3011,6.068 -20.6145,6.2284 -28.4195,0.6232 l -5.5098,-3.9568 -7.3806,3.0343 c -9.9261,4.0808 -18.1227,4.0365 -26.5102,-0.1432 -3.5718,-1.7801 -6.4948,-3.7489 -6.4948,-4.3749 0,-2.3523 -2.9696,-0.8982 -15.5252,7.6025 -7.1006,4.8074 -15.3715,9.8575 -18.3799,11.2225 -6.3243,2.8696 -15.2831,3.3004 -17.5766,0.8451 -1.3099,-1.4022 -2.997,-0.4723 -9.8614,5.4358 -22.3194,19.2096 -37.6856,24.9907 -49.8843,18.7675 -2.6827,-1.3687 -6.4029,-4.4881 -8.2671,-6.9322 l -3.3893,-4.4436 -3.3351,8.5717 c -5.1992,13.3633 -16.7401,29.0425 -21.377,29.0425 -0.6347,0 -1.1541,1.9688 -1.1541,4.375 0,4.3529 0.029,4.375 5.6341,4.375 8.9373,0 103.0618,-9.7153 132.8879,-13.7164 35.343,-4.7412 62.7234,-7.1525 99.603,-8.7715 39.04369,-1.7141 59.64749,-3.1818 96.25007,-6.8566 16.5,-1.6565 34.7813,-3.4132 40.625,-3.9038 5.8438,-0.4906 44.9375,-0.9837 86.875,-1.0958 50.9329,-0.1361 92.6439,-0.946 125.625,-2.4392 78.7271,-3.5645 121.0092,-2.1832 186.0065,6.0765 39.0461,4.9619 120.9035,8.6093 194.6185,8.672 59.7889,0.051 81.7936,-1.3453 155.625,-9.8735 65.9196,-7.6145 87.6748,-7.9894 178.75,-3.0806 23.6944,1.2771 33.7949,0.9939 75.3281,-2.1122 14.9617,-1.1189 27.5804,-1.657 28.0416,-1.1958 2.0191,2.019 -2.7437,3.1491 -21.4947,5.1 -48.3319,5.0285 -53.9395,5.1061 -141.8554,1.9632 -48.2428,-1.7247 -67.5784,-0.4375 -160.0196,10.6528 -72.8116,8.7354 -242.2485,5.8322 -326.25,-5.5901 -33.1745,-4.5109 -53.938,-5.6545 -100,-5.5073 -25.7812,0.082 -59.8125,0.8242 -75.625,1.6487 -15.8125,0.8244 -70.6562,1.9689 -121.875,2.5434 -81.1669,0.9103 -96.0142,1.3735 -115.625,3.6074 -32.95994,3.7546 -63.76848,6.0956 -108.14007,8.217 -41.5124,1.9848 -61.6672,3.7874 -97.485,8.719 -12.0312,1.6566 -46.0625,5.3447 -75.625,8.1959 -29.5625,2.8512 -55.4877,5.4317 -57.6116,5.7344 l -3.8616,0.5505 -0.7594,76.8595 c -0.5864,59.3567 -1.1303,77.6205 -2.3883,80.2012 -1.7982,3.6887 -4.0936,4.9813 -5.3205,2.9961 z m -246.3086,-155.0844 c 17.1875,-0.6594 58.4723,-2.0636 91.744,-3.1204 61.5551,-1.9553 83.3782,-3.0232 128.73,-6.2996 14.0107,-1.0122 25.9638,-1.8404 26.5625,-1.8404 1.8428,0 1.2556,-12.0552 -0.6648,-13.649 -3.2376,-2.6869 -7.9031,-14.39 -13.0059,-32.6237 -2.7862,-9.9563 -5.6071,-19.5085 -6.2687,-21.2273 l -1.2028,-3.125 -0.7766,3.125 c -0.4271,1.7188 -2.1524,10.6547 -3.8341,19.8577 -4.0364,22.0899 -7.7059,34.0809 -11.9749,39.1316 -3.3906,4.0116 -3.6015,4.0787 -7.0271,2.2362 -5.3819,-2.8949 -8.7779,-15.03 -11.2813,-40.3128 -1.1416,-11.5292 -2.4507,-20.5292 -2.9091,-20 -0.4583,0.5293 -3.5017,11.6498 -6.7631,24.7123 -6.3747,25.532 -9.5425,34.375 -12.314,34.375 -3.8361,0 -6.2552,-5.6411 -11.5995,-27.0491 -6.2641,-25.0928 -7.8618,-30.4536 -9.074,-30.4448 -0.4623,0 -2.9478,6.7076 -5.5232,14.8983 -4.3183,13.7334 -9.151,22.5956 -12.3219,22.5956 -2.7589,0 -5.9313,-8.5267 -7.8695,-21.1519 -2.4356,-15.8649 -5.3554,-24.4825 -7.65,-22.5781 -0.8373,0.6949 -3.6244,6.2761 -6.1936,12.4027 -2.5691,6.1266 -5.9971,12.385 -7.6178,13.9075 -2.8032,2.6335 -3.1004,2.6675 -6.1052,0.6987 -2.0511,-1.344 -3.6643,-4.0777 -4.6006,-7.7963 l -1.442,-5.7267 -3.2584,6.6196 c -3.735,7.588 -5.9417,9.3201 -10.4365,8.192 -3.5618,-0.894 -7.1336,-6.2622 -9.4846,-14.255 -0.8594,-2.9219 -1.8592,-5.3125 -2.2218,-5.3125 -0.3625,0 -3.6902,2.4691 -7.3948,5.4869 -10.3577,8.4373 -17.2817,11.3657 -26.8457,11.3538 -6.689,-0.01 -9.1834,-0.6399 -14.1138,-3.5742 l -5.9888,-3.5642 -8.1188,7.7961 c -7.3177,7.0268 -8.5034,7.7192 -12.0163,7.0166 -2.1437,-0.4288 -6.3806,-2.8856 -9.4155,-5.4598 -12.4148,-10.5301 -10.5397,-10.0483 -18.0727,-4.6435 -3.657,2.6239 -11.0722,8.3678 -16.4782,12.7643 -14.8476,12.0749 -17.6695,12.637 -29.7527,5.9267 -4.355,-2.4185 -10.2345,-5.5057 -13.0655,-6.8604 -2.8311,-1.3547 -5.8531,-3.3135 -6.7156,-4.3527 -0.8625,-1.0393 -2.0547,-1.8896 -2.6494,-1.8896 -0.5947,0 -3.0641,3.9375 -5.4877,8.75 -6.4536,12.8153 -8.8635,12.2952 -20.454,-4.414 l -4.204,-6.0606 -1.6883,3.0498 c -0.9286,1.6774 -2.5333,5.8623 -3.566,9.2998 -5.7031,18.9834 -14.4167,14.34 -16.4201,-8.75 -0.4772,-5.5 -1.2878,-10.7909 -1.8014,-11.7575 -1.3276,-2.4987 -8.75495,7.8361 -15.18738,21.1325 -5.38305,11.1273 -6.63253,12.6791 -9.36437,11.6308 -2.51205,-0.9639 -3.90182,-8.1436 -4.85483,-25.0803 -0.47427,-8.4285 -1.36232,-15.6336 -1.97344,-16.0113 -0.61114,-0.3777 -1.11115,-0.3358 -1.11115,0.093 0,2.2333 -12.68465,62.1907 -13.74985,64.9924 -0.68759,1.8084 -1.25015,3.6823 -1.25015,4.1642 0,0.4819 6.89062,0.4069 15.3125,-0.1666 13.93036,-0.9485 26.36647,-0.6302 129.06247,3.303 20.8821,0.7997 34.3779,0.7119 63.75,-0.4149 z M 213.8332,1275.0835 c 1.53609,-23.3072 2.61824,-55.6122 1.8381,-54.8719 -0.4365,0.4142 -2.18831,10.258 -3.89291,21.875 -3.3215,22.6365 -6.47034,40.5457 -7.68565,43.7128 -0.61519,1.6031 0.12325,1.8833 4.10382,1.557 l 4.854,-0.3979 0.78264,-11.875 z m 479.63103,-19.3253 c 5.8939,-6.7128 9.9419,-14.3772 14.9995,-28.4005 5.3036,-14.705 7.3458,-16.1119 9.9588,-6.8604 1.0995,3.893 3.4462,7.7794 6.6043,10.9375 4.3237,4.3237 5.5957,4.8986 10.8362,4.8977 10.7364,0 25.3407,-8.7304 42.3963,-25.3393 8.1364,-7.9233 11.6662,-8.7777 11.6662,-2.8239 0,2.6917 0.5675,3.1642 3.7998,3.1642 4.7943,0 10.3934,-2.8625 26.9741,-13.7905 7.2681,-4.7902 14.1988,-8.7095 15.4017,-8.7095 1.2028,0 3.2572,1.1826 4.5652,2.628 7.5299,8.3204 21.8585,8.2469 35.1674,-0.1804 2.5791,-1.6331 3.1401,-1.4137 7.6525,2.9926 6.6779,6.5208 12.1497,7.1748 22.7883,2.7236 9.3066,-3.8938 15.8602,-5.6993 17.8652,-4.9218 0.776,0.3009 2.404,2.2868 3.6179,4.413 1.987,3.4804 2.6361,3.7854 6.509,3.0589 5.518,-1.0352 13.7874,-4.7057 23.1012,-10.254 9.20449,-5.4831 13.61599,-5.3732 15.57899,0.3879 1.7336,5.0878 1.479,4.925 9.0397,5.7782 5.6553,0.6382 6.513,0.432 7.0705,-1.6998 0.7709,-2.9478 6.08884,-3.298 8.36854,-0.5512 1.1795,1.4213 4.37564,1.875 13.20664,1.875 9.553,0 12.4436,-0.4679 16.0558,-2.5992 2.4229,-1.4295 4.9202,-2.281 5.5495,-1.892 0.6294,0.3889 2.6166,-0.451 4.4162,-1.8665 1.7995,-1.4156 3.289,-2.111 3.3099,-1.5455 0.021,0.5655 0.6114,0.044 1.3121,-1.1593 1.9201,-3.2965 4.6796,-2.6277 5.1578,1.25 0.317,2.5707 1.3714,0.4455 4.181,-8.4272 2.8065,-8.8629 4.3518,-11.9792 6.1075,-12.3174 2.2237,-0.4282 2.3063,0.2788 1.5316,13.1148 -0.4503,7.462 -1.6446,16.9423 -2.6539,21.0673 -1.0093,4.125 -1.8289,8.9063 -1.8214,10.625 0.02,4.584 3.7663,-3.1848 16.1243,-33.4375 9.4363,-23.1005 12.1446,-27.7085 14.267,-24.2744 0.3529,0.5709 -0.1716,4.0865 -1.1654,7.8125 -2.4402,9.1489 -10.1409,47.6054 -11.2436,56.1494 -0.8754,6.783 -0.8543,6.8454 1.5802,4.66 3.5295,-3.1684 8.461,-12.7266 11.4332,-22.16 2.0606,-6.54 8.9016,-41.3247 8.9016,-45.2622 0,-1.9813 4.851,-0.9248 5.5081,1.1997 1.718,5.5545 3.0591,25.1691 2.5585,37.4182 l -0.5526,13.5193 2.4531,-7.4851 c 1.3492,-4.1167 3.5913,-15.6151 4.9823,-25.5518 1.3911,-9.9367 3.0587,-18.5962 3.7059,-19.2434 4.0422,-4.0422 5.7841,3.3584 10.0991,42.9053 0.7126,6.5313 1.6332,13.7293 2.0456,15.9955 0.7056,3.8765 0.8832,4 2.9989,2.0853 3.0709,-2.7791 9.7231,-15.8398 16.849,-33.0808 10.1887,-24.6512 13.0773,-24.8409 13.1568,-0.8637 0.067,20.0384 2.3077,28.7547 7.5502,29.3642 4.7866,0.5565 16.6981,-8.9832 26.0153,-20.8353 11.0957,-14.1145 13.7759,-14.5292 17.1099,-2.6471 1.2564,4.4779 3.4062,8.5819 5.5927,10.6767 4.8005,4.5991 9.3703,3.7442 23.4638,-4.3896 15.0472,-8.6842 17.6227,-9.2984 26.2615,-6.2621 8.5394,3.0014 12.3562,3.0752 19.1182,0.3696 5.1655,-2.0669 5.241,-2.0576 7.6681,0.9375 4.2236,5.2117 12.1009,3.9895 30.0879,-4.6684 8.3623,-4.0252 16.4981,-8.8506 18.115,-10.7443 4.0691,-4.7658 9.2485,-4.6405 12.9103,0.3125 1.7087,2.3111 3.8965,3.75 5.7017,3.75 1.6111,0 3.253,0.8438 3.6487,1.875 1.1996,3.1262 4.2633,2.18 16.07,-4.9634 6.2165,-3.7611 12.6641,-6.9955 14.3279,-7.1875 3.9061,-0.4507 6.2607,3.8945 6.2857,11.5995 0.012,3.1342 0.8117,6.7835 1.7813,8.1095 1.7061,2.3333 1.9776,2.3421 8.4375,0.2733 3.671,-1.1757 9.0444,-2.0225 11.9407,-1.8819 4.4252,0.2149 5.932,-0.3895 9.4345,-3.7843 4.753,-4.6067 8.9403,-5.1818 11.2145,-1.5402 0.8587,1.375 2.0108,2.5 2.56,2.5 0.5494,0 4.8918,-3.6562 9.6499,-8.125 4.7581,-4.4687 8.9085,-8.125 9.2233,-8.125 3.6155,0 4.5277,1.9711 4.5458,9.8213 0.013,4.567 0.5408,9.1284 1.1783,10.1364 1.3161,2.0808 2.2446,0.1612 5.7425,-11.8707 1.9591,-6.7394 4.622,-9.6319 6.7345,-7.3154 0.5535,0.6069 0.2651,5.8847 -0.6409,11.7284 -0.906,5.8438 -1.6779,13.1137 -1.7154,16.1554 l -0.067,5.5304 3.3092,-3.0304 c 1.8201,-1.6667 6.8932,-8.5147 11.2736,-15.2179 10.3511,-15.8395 11.5675,-15.881 13.575,-0.4621 0.9251,7.1057 2.9207,12.0363 4.8554,11.9968 4.1031,-0.084 13.2623,-12.6981 17.5186,-24.1271 2.3099,-6.2025 4.9022,-8.4111 7.1887,-6.1245 0.9034,0.9033 0.5095,3.5941 -1.2852,8.7801 -3.0621,8.8483 -4.9365,23.9993 -2.969,23.9993 2.1234,0 7.0986,-6.6311 13.9237,-18.5578 7.7584,-13.5574 9.4037,-15.1849 12.3603,-12.2259 1.7609,1.7622 2.1247,4.667 2.1247,16.9612 0,8.1591 0.2813,14.6601 0.625,14.4467 0.3438,-0.2135 3.1424,-5.5263 6.2192,-11.8062 4.5676,-9.3226 6.0586,-11.3515 8.125,-11.0555 2.2768,0.3261 2.5936,1.5133 3.1558,11.8267 0.3438,6.3053 1.0327,11.8691 1.5308,12.3641 1.3547,1.3459 11.3714,-7.3383 16.4601,-14.2706 2.4569,-3.3469 6.3358,-10.5228 8.6196,-15.9464 3.4574,-8.2101 4.6169,-9.8441 6.925,-9.7589 2.0014,0.074 2.973,-0.7951 3.4938,-3.125 3.0224,-13.521 4.0986,-15.5504 7.5449,-14.228 4.1361,1.5872 1.495,19.0104 -7.5618,49.8827 -2.399,8.1774 -4.7285,17.1179 -5.1767,19.8679 l -0.8152,5 3.2217,-3.75 c 6.4223,-7.4755 12.5286,-24.5714 22.0166,-61.6408 1.0249,-4.004 1.9247,-5.2873 3.498,-4.9883 3.4012,0.6463 3.2665,11.3563 -0.4145,32.9553 -1.8111,10.627 -3.07,19.9904 -2.7978,20.8075 0.9713,2.9138 9.0529,-11.0631 17.429,-30.1427 9.4092,-21.4329 11.2468,-24.2249 14.0329,-21.3213 1.9415,2.0232 0.9314,11.0315 -4.2,37.4553 -3.7125,19.1176 -3.5012,20.7732 2.1466,16.8174 4.0907,-2.8652 8.5043,-11.1168 14.7462,-27.5688 6.4186,-16.9183 10.1805,-23.7965 17.1496,-31.3572 3.9557,-4.2914 5.8232,-5.3914 9.1534,-5.3914 3.4448,0 4.55,0.7084 6.2581,4.0116 3.277,6.3369 1.7711,24.1303 -3.828,45.2327 -2.5205,9.4996 -4.3311,17.5235 -4.0236,17.831 0.3075,0.3075 6.5233,-11.143 13.813,-25.4456 14.4607,-28.3729 23.629,-41.8806 31.4033,-46.2673 l 5,-2.8212 -51.25,-0.016 c -59.3486,-0.018 -86.875,0.9398 -86.875,3.0246 0,1.8685 -14.4501,8.6876 -16.1645,7.6281 -2.2586,-1.3959 -1.4832,-5.2677 1.477,-7.3763 2.6162,-1.8635 1.5468,-1.9547 -15.3125,-1.3064 -22.2887,0.8572 -46.4541,2.1794 -91.461,5.0045 -31.155,1.9556 -38.786,2.0066 -76.9212,0.5147 -44.2518,-1.7312 -71.0221,-1.0004 -114.1178,3.1151 -21.0021,2.0057 -61.6986,3.7684 -130.9582,5.6723 -50.6807,1.3932 -91.3423,3.4122 -134.6668,6.6867 -13.75,1.0393 -35.9687,2.4777 -49.37508,3.1965 -13.4062,0.7188 -38.15619,2.7319 -54.99989,4.4737 -34.0271,3.5185 -67.3401,4.2151 -91.25,1.908 -7.9063,-0.7629 -32.2595,-1.7341 -54.1183,-2.1583 -31.7605,-0.6163 -40.3647,-0.4386 -42.8377,0.8849 -1.9065,1.0204 -3.5393,1.21 -4.2529,0.494 -1.1648,-1.1687 -54.4336,-0.4715 -55.2998,0.7237 -0.2447,0.3377 -0.054,8.489 0.4237,18.114 0.4778,9.625 1.2882,31.4219 1.8008,48.4375 0.5126,17.0156 1.3468,30.9375 1.8536,30.9375 0.5069,0 2.6305,-1.9464 4.7193,-4.3253 z m 239.7947,-75.258 c -3.5822,-3.5822 4.8598,-10.4167 12.8668,-10.4167 6.5652,0 4.8598,3.9588 -3.3877,7.8638 -7.7743,3.681 -8.2287,3.8033 -9.4791,2.5529 z m -206.8871,-25.4167 12.3037,0 0.01,-13.4375 c 0,-7.3906 0.579,-16.8125 1.2778,-20.9375 1.9541,-11.5352 3.485,-56.0425 4.3856,-127.50001 0.6797,-53.9312 0.493,-68.0865 -1.0963,-83.125 -4.045,-38.2738 -3.607,-88.1549 1.1361,-129.375 1.6308,-14.1728 1.8696,-24.986 1.2562,-56.875 -0.6274,-32.6083 -0.4318,-40.8786 1.1379,-48.1245 1.0425,-4.8123 1.8955,-8.8904 1.8955,-9.0625 -8e-4,-0.1721 -15.1538,-0.313 -33.6742,-0.313 l -33.6734,0 -0.782,5.9375 c -0.4302,3.2656 -1.7303,11.8438 -2.8891,19.0625 -1.5936,9.9265 -2.0232,19.3698 -1.7631,38.75 0.2055,15.3038 -0.483,36.7014 -1.7093,53.125 -2.5739,34.4714 -1.8709,63.7182 2.0429,85 2.3402,12.7246 2.8417,20.7834 3.3064,53.125 l 0.5477,38.125 3.9842,3.3485 c 5.5107,4.6314 5.4405,11.9259 -0.1935,20.1147 -3.9621,5.7587 -5.1636,10.9118 -2.5443,10.9118 0.9598,0 0.9038,0.6016 -0.1773,1.9042 -1.7639,2.1254 -1.2302,12.11351 1.9728,36.91661 2.3396,18.1179 2.7433,45.8582 1.3068,89.8186 l -1.1196,34.2644 15.3784,-0.8269 c 8.4581,-0.4548 20.915,-0.8269 27.6821,-0.8269 z m -53.4235,-175.75871 c 1.3878,-0.5326 1.9772,-2.3958 1.9772,-6.25 0,-5.1618 -0.2062,-5.4901 -3.4375,-5.4721 -4.7412,0.026 -6.1017,1.1799 -7.164,6.0745 -1.207,5.5607 2.5091,7.9942 8.6243,5.6476 z M 85.463068,1171.192 c -2.98043,-4.8225 15.243322,-12.3057 40.712492,-16.7177 10.65625,-1.846 44.45946,-8.3826 75.11826,-14.5259 54.85634,-10.9918 98.82571,-18.1392 130.19421,-21.1637 8.7657,-0.8451 15.9375,-1.7648 15.9375,-2.0437 0,-0.2789 -1.1306,-2.7232 -2.5124,-5.4318 -1.3818,-2.7086 -5.0725,-11.8268 -8.2014,-20.2627 -7.1718,-19.3358 -11.4215,-28.4015 -13.7286,-29.2868 -2.4089,-0.9244 -2.3125,-5.3109 0.1374,-6.251 4.0385,-1.5497 9.6883,7.5348 17.2267,27.6998 5.9886,16.0191 12.9181,31.474 14.5697,32.4947 2.2139,1.3682 55.5289,-4.952 121.2775,-14.3768 58.3083,-8.3583 98.5809,-13.7429 102.786,-13.7429 0.5198,0 0.9451,1.4063 0.9451,3.125 0,1.7188 -0.4541,3.125 -1.0091,3.125 -3.7233,0 -51.7166,6.4576 -106.4909,14.3286 -35.4062,5.0878 -74.2187,10.1581 -86.25,11.2674 -31.1079,2.8682 -28.5123,1.2772 -22.007,13.4889 5.527,10.3754 6.0354,13.4457 2.2154,13.3785 -1.294,-0.023 -4.179,-3.8345 -7.6142,-10.0597 -3.042,-5.5127 -6.1357,-10.7798 -6.875,-11.7046 -1.1202,-1.4015 -5.7176,-1.1914 -27.5942,1.2609 -38.3789,4.3023 -63.15089,8.3324 -115.62497,18.8111 -25.78125,5.1484 -58.29285,11.2856 -72.248,13.6382 -26.31754,4.4369 -39.212103,7.7427 -46.136553,11.8282 -2.524529,1.4895 -4.339689,1.911 -4.827939,1.121 z m 60.712492,-0.4395 c 0,-1.0071 1.16131,-2.4525 2.58071,-3.2122 2.12878,-1.1393 2.30703,-1.7109 1.01788,-3.2642 -1.26245,-1.5212 -1.21789,-2.1014 0.23178,-3.0187 2.33261,-1.476 7.07479,-1.4931 7.9798,-0.029 1.34909,2.1829 -1.72081,7.4945 -5.4444,9.42 -4.67652,2.4183 -6.36577,2.4459 -6.36577,0.1038 z m 33.10989,-37.1391 c -0.3479,-0.9102 0.18846,-15.4361 1.19191,-32.2799 1.47926,-24.8306 2.45422,-33.1083 5.15297,-43.75 5.34659,-21.0826 11.65785,-32.7786 14.877,-27.5699 0.40113,0.649 -1.49731,7.8408 -4.21873,15.9818 -5.69574,17.0384 -8.34639,33.8796 -9.49667,60.3381 -0.9861,22.6823 -1.8577,27.9688 -4.70167,28.5165 -1.19474,0.23 -2.45691,-0.3264 -2.80481,-1.2366 z m 636.17758,-2.4214 c -2.9804,-4.8225 15.2434,-12.3057 40.7125,-16.7177 10.6563,-1.846 44.4595,-8.3826 75.1183,-14.5259 54.85629,-10.9918 98.82577,-18.1392 130.19427,-21.1637 8.7656,-0.8451 15.9375,-1.7648 15.9375,-2.0437 0,-0.2789 -1.1306,-2.7232 -2.5124,-5.4318 -1.3818,-2.7086 -5.0725,-11.8268 -8.2014,-20.2627 -7.1718,-19.3358 -11.4215,-28.4015 -13.7286,-29.2868 -2.4089,-0.9244 -2.3125,-5.3109 0.1374,-6.251 4.0385,-1.5497 9.6882,7.5348 17.2267,27.6998 5.9886,16.0191 12.9181,31.474 14.5697,32.4947 2.2138,1.3682 55.5288,-4.952 121.2775,-14.3768 58.3082,-8.3583 98.5808,-13.7429 102.786,-13.7429 0.5197,0 0.9451,1.4063 0.9451,3.125 0,1.7188 -0.4541,3.125 -1.0091,3.125 -3.7234,0 -51.7166,6.4576 -106.4909,14.3286 -35.4062,5.0878 -74.2187,10.1581 -86.25,11.2674 -31.1079,2.8682 -28.5123,1.2772 -22.007,13.4889 5.527,10.3754 6.0354,13.4457 2.2153,13.3785 -1.2939,-0.023 -4.179,-3.8345 -7.6141,-10.0597 -3.042,-5.5127 -6.1358,-10.7798 -6.875,-11.7046 -1.1202,-1.4015 -5.7176,-1.1914 -27.5942,1.2609 -38.3789,4.3023 -63.15094,8.3324 -115.62507,18.8111 -25.7812,5.1484 -58.2928,11.2856 -72.248,13.6382 -26.3175,4.4369 -39.2121,7.7427 -46.1365,11.8282 -2.5245,1.4895 -4.3397,1.911 -4.828,1.121 z m 60.7125,-0.4395 c 0,-1.0071 1.1613,-2.4525 2.5807,-3.2122 2.1288,-1.1393 2.3071,-1.7109 1.0179,-3.2642 -1.2624,-1.5212 -1.2179,-2.1014 0.2318,-3.0187 2.3326,-1.476 7.0748,-1.4931 7.9798,-0.029 1.3491,2.1829 -1.7208,7.4945 -5.4444,9.42 -4.6765,2.4183 -6.3658,2.4459 -6.3658,0.1038 z m 515.66997,-14.1065 c -2.4578,-6.3434 -2.8235,-13.9478 -1.2124,-25.2103 0.9423,-6.5874 1.731,-17.0969 1.7529,-23.3543 0.04,-11.4284 5.9306,-73.48761 9.3021,-97.99791 1.0583,-7.6938 1.8678,-24.3972 1.956,-40.3654 0.082,-14.9822 0.4039,-27.9197 0.7136,-28.75 0.3097,-0.8303 1.1207,-18.6658 1.8023,-39.6346 0.6817,-20.9687 1.8107,-44.875 2.5091,-53.125 0.6984,-8.25 1.494,-45.375 1.768,-82.5 0.3385,-45.8601 0.9486,-68.6576 1.9034,-71.1108 0.7727,-1.986 1.6332,-3.3827 1.9122,-3.1037 0.2789,0.2789 0.1225,5.5601 -0.3475,11.7358 -0.47,6.1758 -0.3917,17.4162 0.174,24.9787 0.5658,7.5625 0.6609,21.3438 0.2113,30.625 -0.4495,9.2813 -1.343,36.2813 -1.9854,60 -0.6424,23.7188 -1.6801,54.6563 -2.3061,68.75 -0.6259,14.0938 -1.5519,43.7778 -2.0575,65.9646 -0.8851,38.8315 -0.8303,40.4073 1.4697,42.1478 2.0804,1.5743 2.1193,1.8133 0.3013,1.8479 -1.2674,0.024 -2.3511,1.391 -2.757,3.4772 -2.1578,11.0912 -7.9311,71.81451 -10.904,114.68751 -1.8529,26.7195 -1.9068,29.8927 -0.6306,37.1875 0.8598,4.9155 0.7145,5.9375 -0.8447,5.9375 -1.0357,0 -2.2645,-0.9844 -2.7307,-2.1875 z m -482.56007,-23.0326 c -0.3479,-0.9102 0.1885,-15.4361 1.1919,-32.2799 1.4793,-24.8306 2.4543,-33.1083 5.153,-43.75 5.3466,-21.08261 11.6579,-32.77861 14.877,-27.56991 0.4011,0.649 -1.4973,7.8408 -4.2187,15.98181 -5.6958,17.0384 -8.3464,33.8796 -9.4967,60.3381 -0.9861,22.6823 -1.8577,27.9688 -4.7017,28.5165 -1.1947,0.23 -2.4569,-0.3264 -2.8048,-1.2366 z m 571.17767,-2.4214 c -2.9804,-4.8225 15.2434,-12.3057 40.7125,-16.7177 10.6563,-1.846 44.4595,-8.3826 75.1183,-14.5259 54.8563,-10.9918 98.8257,-18.1392 130.1942,-21.1637 8.7656,-0.8451 15.9375,-1.7648 15.9375,-2.0437 0,-0.2789 -1.1306,-2.7232 -2.5124,-5.4318 -1.3818,-2.7086 -5.0725,-11.8269 -8.2015,-20.2627 -7.1717,-19.33581 -11.4213,-28.40151 -13.7285,-29.28681 -2.409,-0.9244 -2.3126,-5.3109 0.1374,-6.251 4.0385,-1.5497 9.6882,7.5348 17.2268,27.69981 5.9885,16.0191 12.9179,31.474 14.5696,32.4947 2.2138,1.3682 55.5288,-4.952 121.2775,-14.3768 58.3082,-8.3583 98.5808,-13.7429 102.786,-13.7429 0.5197,0 0.9451,1.4063 0.9451,3.125 0,1.7188 -0.4541,3.125 -1.0091,3.125 -3.6383,0 -51.3561,6.4233 -106.4011,14.3225 -35.4557,5.0881 -74.3085,10.1599 -86.3398,11.2707 -31.1087,2.8722 -28.5121,1.2803 -22.007,13.4917 5.527,10.3754 6.0354,13.4457 2.2154,13.3785 -1.294,-0.023 -4.179,-3.8345 -7.6143,-10.0597 -3.0418,-5.5127 -6.1356,-10.7798 -6.875,-11.7047 -1.1201,-1.4014 -5.7175,-1.1913 -27.5941,1.261 -38.379,4.3023 -63.1509,8.3324 -115.625,18.8111 -25.7812,5.1484 -58.2929,11.2856 -72.248,13.6382 -26.3175,4.4369 -39.2121,7.7427 -46.1365,11.8282 -2.5246,1.4895 -4.3397,1.911 -4.828,1.121 z m 60.7125,-0.4395 c 0,-1.0071 1.1614,-2.4525 2.5807,-3.2122 2.1288,-1.1393 2.3071,-1.7109 1.0179,-3.2642 -1.2625,-1.5212 -1.2179,-2.1014 0.2318,-3.0187 2.3326,-1.476 7.0747,-1.4931 7.9797,-0.029 1.3492,2.1829 -1.7207,7.4945 -5.4443,9.42 -4.6765,2.4183 -6.3658,2.4459 -6.3658,0.1039 z M 200.70681,1059.0863 c -0.33896,-0.5484 -0.11438,-1.8093 0.49917,-2.802 0.84318,-1.3643 1.46777,-1.4526 2.55862,-0.3617 0.79372,0.7937 1.0652,2.0546 0.60327,2.802 -0.98707,1.5971 -2.7876,1.775 -3.66106,0.3617 z m 1373.57869,-5.4729 c -0.3479,-0.9102 0.1885,-15.4361 1.1919,-32.2799 1.4793,-24.83061 2.4542,-33.10831 5.153,-43.75001 5.3466,-21.0826 11.6578,-32.7786 14.877,-27.5699 0.4011,0.649 -1.4973,7.8408 -4.2188,15.9818 -5.6957,17.0384 -8.3464,33.8796 -9.4966,60.33811 -0.9861,22.6823 -1.8578,27.9688 -4.7016,28.5165 -1.1948,0.23 -2.457,-0.3264 -2.8049,-1.2366 z M 210.92322,1021.6899 c -1.54182,-1.6412 -4.15572,-2.8564 -6.1441,-2.8564 -5.06326,0 -12.22905,-4.6643 -13.15981,-8.5659 -0.43416,-1.82 -0.99163,-3.6752 -1.23881,-4.1227 -0.82262,-1.4894 -21.05223,6.4463 -22.77648,8.9347 -1.32831,1.917 -2.21005,2.1736 -4.0625,1.1822 -5.84466,-3.128 -1.08066,-7.4813 13.68816,-12.5081 5.17867,-1.7626 9.63815,-3.87201 9.90998,-4.68751 1.36079,-4.0823 -14.96216,0.757 -22.34298,6.62411 -8.16267,6.4886 -11.84336,5.0768 -6.0304,-2.3132 1.4249,-1.8115 1.9874,-3.2936 1.25,-3.2936 -5.24666,0 3.84424,-9.82331 12.71815,-13.74281 l 5.93389,-2.621 -2.31005,-4.6306 c -3.11215,-6.2384 -5.55261,-16.6158 -10.20192,-43.3806 -2.25287,-12.9691 -5.75685,-27.9374 -8.27205,-35.3363 -4.96408,-14.6028 -5.18422,-20.6864 -0.77124,-21.3131 2.34385,-0.3329 2.8146,0.1878 2.8251,3.125 0.008,1.9384 1.9915,9.1494 4.41014,16.0244 2.81293,7.9958 5.96511,21.5085 8.74785,37.5 4.50438,25.8855 7.92981,39.4943 10.9939,43.6776 1.45466,1.986 3.3637,2.4416 10.49478,2.5043 8.23343,0.072 12.84073,1.7215 12.84073,4.5962 0,0.6033 -4.33125,1.0969 -9.625,1.0969 -7.49114,0 -9.29214,0.3329 -8.12359,1.5014 0.85098,0.851 3.96746,1.3498 7.19386,1.1514 6.64403,-0.4086 11.80473,2.3333 11.80473,6.2718 0,2.0523 -0.57275,2.4672 -2.65431,1.9229 -1.6217,-0.4241 -4.0077,0.3065 -6.13315,1.87791 -3.05827,2.2611 -3.33173,2.994 -2.26204,6.0625 1.40654,4.0348 0.0157,3.8177 39.58621,6.1783 22.21095,1.325 24.43125,1.2677 27.5,-0.7092 1.83606,-1.1828 3.78811,-2.9057 4.3379,-3.8287 0.54979,-0.9231 2.62446,-1.6783 4.61036,-1.6783 4.8374,0 10.6736,-5.5094 13.0894,-12.35641 1.0591,-3.0019 1.9256,-5.5944 1.9256,-5.7611 0,-0.1668 -2.2964,-0.6113 -5.1032,-0.9878 -2.8068,-0.3765 -5.3944,-0.9756 -5.7502,-1.3314 -1.6694,-1.6695 1.5208,-3.3133 6.4305,-3.3133 l 5.4294,0 2.5415,-8.4375 c 1.3979,-4.6406 4.0219,-14.3437 5.8313,-21.5625 1.8093,-7.2187 4.7986,-18.1875 6.6427,-24.375 3.0473,-10.2244 3.353,-13.1303 3.353,-31.875 0,-20.0261 0.077,-20.6359 2.6355,-21.0012 2.46,-0.3512 2.702,0.3978 3.6349,11.25 1.4858,17.2831 0.9931,28.0431 -1.763,38.5012 -4.949,18.7797 -13.8065,51.9461 -14.6049,54.6875 -0.7539,2.5887 -0.416,2.8125 4.2454,2.8125 6.4635,0 11.4771,1.9001 11.4771,4.3497 0,1.5663 -1.6087,1.854 -8.9077,1.5934 l -8.9077,-0.3181 -2.1349,6.4662 -2.1348,6.46611 9.3516,-0.2161 c 6.3732,-0.1473 9.5203,0.2668 9.8814,1.3002 0.2913,0.834 -0.7964,1.8492 -2.4172,2.256 -1.6208,0.4068 -3.4888,1.9745 -4.1513,3.4836 -2.4456,5.5719 -18.3376,10.3257 -24.139,7.2209 -2.2053,-1.1802 -3.9232,-0.8419 -9.76988,1.924 l -7.09413,3.3561 -24.16317,-0.8093 c -17.25095,-0.5777 -24.16319,-0.4153 -24.16319,0.5678 0,0.7573 0.84375,1.0532 1.875,0.6575 1.2626,-0.4845 1.875,0.059 1.875,1.6636 0,3.274 -4.32094,2.7974 -7.75234,-0.8552 z m 83.37731,-13.5455 3.75,-1.8265 -5.4638,0.5342 c -3.0051,0.2938 -6.0708,1.141 -6.8125,1.8828 -2.0341,2.0341 3.9948,1.6165 8.5263,-0.5905 z m -95.62497,-11.31961 c 0,-0.2702 -0.84375,-0.4913 -1.875,-0.4913 -1.03125,0 -1.875,0.5449 -1.875,1.2108 0,0.6659 0.84375,0.887 1.875,0.4913 1.03125,-0.3958 1.875,-0.9406 1.875,-1.2108 z m -20.38628,-4.2138 c 2.74155,-0.027 4.99338,-2.087 3.6981,-3.3823 -0.7345,-0.7345 -17.06182,6.5412 -17.06182,7.603 0,0.3463 2.39062,-0.4555 5.3125,-1.7818 2.92187,-1.3263 6.54492,-2.4238 8.05122,-2.4389 z m 752.41755,26.47531 c -0.339,-0.5484 -0.1144,-1.8093 0.4992,-2.802 0.8431,-1.3643 1.4677,-1.4526 2.5586,-0.3617 0.7937,0.7937 1.0652,2.0546 0.6032,2.802 -0.987,1.5971 -2.7876,1.775 -3.661,0.3617 z m 865.46877,-32.75281 c 0,-1.375 0.4936,-2.5 1.097,-2.5 1.6391,0 4.0051,3.2312 3.0589,4.1775 -1.7114,1.7113 -4.1559,0.7246 -4.1559,-1.6775 z m -855.25237,-4.6436 c -1.5418,-1.6412 -4.1557,-2.8564 -6.1441,-2.8564 -5.0633,0 -12.2291,-4.6643 -13.1598,-8.5659 -0.4342,-1.82 -0.9916,-3.6752 -1.2388,-4.1227 -0.8226,-1.4894 -21.0523,6.4463 -22.7765,8.9347 -1.3283,1.917 -2.2101,2.1736 -4.0625,1.1822 -5.8447,-3.128 -1.0807,-7.4813 13.6882,-12.5081 5.1786,-1.7626 9.6381,-3.872 9.9099,-4.6875 1.3608,-4.0823 -14.9621,0.757 -22.3429,6.6241 -8.1627,6.4886 -11.8434,5.0768 -6.0304,-2.3132 1.4249,-1.8115 1.9874,-3.2936 1.25,-3.2936 -5.2467,0 3.8442,-9.8233 12.7181,-13.7428 l 5.9339,-2.621 -2.3101,-4.6306 c -3.1121,-6.2384 -5.5526,-16.6158 -10.2019,-43.3806 -2.2528,-12.9691 -5.7568,-27.9374 -8.272,-35.3363 -4.9641,-14.6028 -5.1842,-20.6864 -0.7713,-21.3131 2.3439,-0.3329 2.8146,0.1878 2.8251,3.125 0.01,1.9384 1.9915,9.1494 4.4102,16.0244 2.8129,7.9958 5.9651,21.5085 8.7478,37.5 4.5044,25.8855 7.9298,39.4943 10.9939,43.6776 1.4547,1.986 3.3637,2.4416 10.4948,2.5043 8.2334,0.072 12.8407,1.7215 12.8407,4.5962 0,0.6033 -4.3312,1.0969 -9.625,1.0969 -7.4911,0 -9.2921,0.3329 -8.1236,1.5014 0.851,0.851 3.9675,1.3498 7.1939,1.1514 6.644,-0.4086 11.8047,2.3333 11.8047,6.2718 0,2.0523 -0.5727,2.4672 -2.6543,1.9229 -1.6217,-0.4241 -4.0077,0.3065 -6.1331,1.8779 -3.0583,2.2611 -3.3318,2.994 -2.2621,6.0625 1.4066,4.0348 0.016,3.8177 39.58619,6.1783 22.211,1.325 24.43134,1.2677 27.50004,-0.7092 1.8361,-1.1828 3.7881,-2.9057 4.3379,-3.8287 0.5498,-0.9231 2.62454,-1.6783 4.61044,-1.6783 4.8374,0 10.6736,-5.5094 13.0894,-12.3564 1.0591,-3.0019 1.9256,-5.5944 1.9256,-5.7611 0,-0.1668 -2.2964,-0.6113 -5.1032,-0.9878 -2.8068,-0.3765 -5.3944,-0.9756 -5.7502,-1.3314 -1.6695,-1.6695 1.5208,-3.3133 6.4304,-3.3133 l 5.4295,0 2.5415,-8.4375 c 1.3978,-4.6406 4.0219,-14.3437 5.8312,-21.5625 1.8094,-7.2187 4.7986,-18.1875 6.6428,-24.375 3.0473,-10.2244 3.353,-13.1303 3.353,-31.875 0,-20.0261 0.076,-20.6359 2.6355,-21.0012 2.46,-0.3512 2.702,0.3978 3.6349,11.25 1.4858,17.2831 0.993,28.0431 -1.763,38.5012 -4.9491,18.7797 -13.8065,51.9461 -14.6049,54.6875 -0.7539,2.5887 -0.416,2.8125 4.2453,2.8125 6.4636,0 11.4772,1.9001 11.4772,4.3497 0,1.5663 -1.6088,1.854 -8.9077,1.5934 l -8.9077,-0.3181 -2.1349,6.4662 -2.1348,6.4661 9.3516,-0.2161 c 6.3731,-0.1473 9.5203,0.2668 9.8813,1.3002 0.2914,0.834 -0.7963,1.8492 -2.4171,2.256 -1.6208,0.4068 -3.4889,1.9745 -4.1513,3.4836 -2.4456,5.5719 -18.3376,10.3257 -24.1391,7.2209 -2.2052,-1.1802 -3.9231,-0.8419 -9.7698,1.924 l -7.09414,3.3561 -24.16324,-0.8093 c -17.25089,-0.5777 -24.16319,-0.4153 -24.16319,0.5678 0,0.7573 0.8438,1.0532 1.875,0.6575 1.2626,-0.4845 1.875,0.059 1.875,1.6636 0,3.274 -4.3209,2.7974 -7.7523,-0.8552 z m 83.37737,-13.5455 3.75,-1.8265 -5.4638,0.5342 c -3.0052,0.2938 -6.0708,1.141 -6.8125,1.8828 -2.0341,2.0341 3.9948,1.6165 8.5263,-0.5905 z m -95.62507,-11.3196 c 0,-0.2702 -0.8437,-0.4913 -1.875,-0.4913 -1.0312,0 -1.875,0.5449 -1.875,1.2108 0,0.6659 0.8438,0.887 1.875,0.4913 1.0313,-0.3958 1.875,-0.9406 1.875,-1.2108 z m -20.3862,-4.2138 c 2.7415,-0.027 4.9933,-2.087 3.6981,-3.3823 -0.7345,-0.7345 -17.0619,6.5412 -17.0619,7.603 0,0.3463 2.3907,-0.4555 5.3125,-1.7818 2.9219,-1.3263 6.545,-2.4238 8.0513,-2.4389 z m -558.2684,26.956 c 4.0551,-4.2908 31.1546,-11.6472 31.1546,-8.4571 0,1.3206 -20.1539,8.1288 -28.8559,9.7478 -3.9513,0.7351 -4.1224,0.639 -2.2987,-1.2907 z m 1245.68597,-0.4807 c -0.339,-0.5484 -0.1138,-1.8093 0.4991,-2.802 0.8432,-1.3643 1.4677,-1.4526 2.5586,-0.3617 0.7938,0.7937 1.0653,2.0546 0.6034,2.802 -0.9871,1.5971 -2.7876,1.775 -3.6611,0.3617 z m -485.1563,-2.7528 c 0.4249,-0.6875 1.6163,-1.25 2.6475,-1.25 1.0313,0 1.5274,0.5625 1.1025,1.25 -0.4249,0.6875 -1.6163,1.25 -2.6475,1.25 -1.0313,0 -1.5274,-0.5625 -1.1025,-1.25 z m -784.37507,-4.8675 c 0,-1.6189 18.4664,-18.0195 25.9893,-23.082 11.0141,-7.4119 31.1627,-12.576 42.7607,-10.9595 8.8041,1.2271 6.1128,3.1876 -5.8885,4.2897 -12.7341,1.1693 -27.2041,5.6788 -34.5693,10.7733 -2.842,1.9658 -9.6268,7.2915 -15.0774,11.8351 -9.2276,7.692 -13.2148,9.8473 -13.2148,7.1434 z m -125.04137,-17.7098 c -0.96422,-1.8017 -1.23209,-5.3323 -0.74403,-9.8065 0.66212,-6.0697 0.5375,-6.6994 -0.94538,-4.7775 -0.93942,1.2175 -2.07272,4.4942 -2.51845,7.2817 -0.51273,3.2064 -1.37342,4.8758 -2.34308,4.5446 -1.71849,-0.5869 -1.97275,-7.5119 -0.4384,-11.9402 0.81811,-2.3612 0.50814,-3.0301 -1.66771,-3.5991 -1.59911,-0.4182 -2.51808,-1.5126 -2.28788,-2.7248 0.28777,-1.5152 2.11474,-2.1238 7.24804,-2.4144 4.74085,-0.2683 7.68406,-1.1594 9.5174,-2.8816 2.45301,-2.3042 2.80847,-2.3387 4.6911,-0.4561 2.20031,2.2003 1.88759,2.5103 3.90101,-3.8662 0.34167,-1.082 1.60729,-1.7661 2.8125,-1.52 1.84868,0.3774 2.13018,1.6133 1.80045,7.9049 -0.47035,8.9752 -3.35176,19.5715 -6.24725,22.9739 -1.16156,1.365 -4.17286,2.845 -6.6918,3.2891 -3.91703,0.6905 -4.79792,0.3999 -6.08652,-2.0078 z m 1404.78904,-12.0663 c -1.5417,-1.6412 -4.1557,-2.8564 -6.1441,-2.8564 -5.0632,0 -12.229,-4.6643 -13.1597,-8.5659 -0.4342,-1.82 -0.9917,-3.6752 -1.2388,-4.1227 -0.8226,-1.4894 -21.0522,6.4463 -22.7765,8.9347 -1.3284,1.917 -2.2101,2.1736 -4.0625,1.1822 -5.8447,-3.128 -1.0807,-7.4813 13.6881,-12.5081 5.1787,-1.7626 9.6381,-3.872 9.91,-4.6875 1.3608,-4.0823 -14.9621,0.757 -22.343,6.6241 -8.1626,6.4886 -11.8433,5.0768 -6.0303,-2.3132 1.4248,-1.8115 1.9873,-3.2936 1.25,-3.2936 -5.2468,0 3.8442,-9.8233 12.7181,-13.7428 l 5.9339,-2.621 -2.31,-4.6306 c -3.1123,-6.2384 -5.5527,-16.6158 -10.202,-43.3806 -2.2529,-12.9691 -5.7569,-27.9374 -8.272,-35.3363 -4.9642,-14.6028 -5.1843,-20.6864 -0.7713,-21.3131 2.3439,-0.3329 2.8146,0.1878 2.8251,3.125 0.013,1.9384 1.9915,9.1494 4.4102,16.0244 2.8128,7.9958 5.9651,21.5085 8.7478,37.5 4.5044,25.8855 7.9298,39.4943 10.9939,43.6776 1.4546,1.986 3.3636,2.4416 10.4948,2.5043 8.2335,0.072 12.8407,1.7215 12.8407,4.5962 0,0.6033 -4.3312,1.0969 -9.625,1.0969 -7.4911,0 -9.2921,0.3329 -8.1236,1.5014 0.851,0.851 3.9675,1.3498 7.1939,1.1514 6.644,-0.4086 11.8047,2.3333 11.8047,6.2718 0,2.0523 -0.5727,2.4672 -2.6544,1.9229 -1.6216,-0.4241 -4.0076,0.3065 -6.1331,1.8779 -3.0582,2.2611 -3.3317,2.994 -2.262,6.0625 1.4065,4.0348 0.016,3.8177 39.5863,6.1783 22.2108,1.325 24.4312,1.2677 27.5,-0.7092 1.836,-1.1828 3.7881,-2.9057 4.3378,-3.8287 0.5498,-0.9231 2.6244,-1.6783 4.6104,-1.6783 4.8374,0 10.6736,-5.5094 13.0894,-12.3564 1.0591,-3.0019 1.9256,-5.5944 1.9256,-5.7611 0,-0.1668 -2.2965,-0.6113 -5.1032,-0.9878 -2.8068,-0.3765 -5.3944,-0.9756 -5.7502,-1.3314 -1.6695,-1.6695 1.5208,-3.3133 6.4304,-3.3133 l 5.4295,0 2.5415,-8.4375 c 1.3979,-4.6406 4.0219,-14.3437 5.8313,-21.5625 1.8093,-7.2187 4.7986,-18.1875 6.6427,-24.375 3.0474,-10.2243 3.353,-13.1303 3.353,-31.875 0,-20.0261 0.076,-20.6359 2.6355,-21.0012 2.46,-0.3512 2.702,0.3979 3.6349,11.25 1.4857,17.2831 0.993,28.0432 -1.763,38.5012 -4.949,18.7797 -13.8065,51.9462 -14.6049,54.6875 -0.7539,2.5887 -0.416,2.8125 4.2454,2.8125 6.4635,0 11.4771,1.9001 11.4771,4.3497 0,1.5663 -1.6087,1.8541 -8.9077,1.5934 l -8.9077,-0.3181 -2.1348,6.4662 -2.1349,6.4661 9.3516,-0.2161 c 6.3731,-0.1473 9.5203,0.2668 9.8814,1.3002 0.2914,0.834 -0.7964,1.8493 -2.4171,2.256 -1.6209,0.4068 -3.4889,1.9745 -4.1514,3.4837 -2.4456,5.5718 -18.3376,10.3257 -24.139,7.2208 -2.2053,-1.1802 -3.9233,-0.8419 -9.7699,1.924 l -7.0941,3.3561 -24.1633,-0.8093 c -17.2508,-0.5777 -24.1631,-0.4153 -24.1631,0.5678 0,0.7574 0.8438,1.0532 1.875,0.6575 1.2626,-0.4845 1.875,0.059 1.875,1.6636 0,3.274 -4.321,2.7974 -7.7524,-0.8552 z m 83.3774,-13.5455 3.75,-1.8265 -5.4639,0.5342 c -3.0051,0.2938 -6.0707,1.141 -6.8125,1.8828 -2.0341,2.0341 3.9949,1.6165 8.5264,-0.5905 z m -95.625,-11.3196 c 0,-0.2702 -0.8437,-0.4913 -1.875,-0.4913 -1.0312,0 -1.875,0.5449 -1.875,1.2108 0,0.6659 0.8438,0.887 1.875,0.4913 1.0313,-0.3958 1.875,-0.9406 1.875,-1.2108 z m -20.3862,-4.2138 c 2.7415,-0.027 4.9933,-2.087 3.6981,-3.3823 -0.7345,-0.7345 -17.0619,6.5412 -17.0619,7.603 0,0.3463 2.3906,-0.4555 5.3125,-1.7818 2.9219,-1.3263 6.5449,-2.4238 8.0513,-2.4389 z m -493.2685,26.956 c 4.0552,-4.2908 31.1547,-11.6472 31.1547,-8.4571 0,1.3206 -20.1539,8.1288 -28.856,9.7478 -3.9513,0.7351 -4.1223,0.639 -2.2987,-1.2907 z m -825.33403,-1.5239 c -6.69723,-3.5346 -5.21043,-10.7325 3.63857,-17.615 7.40362,-5.7583 7.77506,-5.8509 11.06766,-2.7576 4.66203,4.3797 3.62893,13.3047 -2.2687,19.6005 -2.97119,3.1718 -7.37285,3.445 -12.43753,0.7721 z m 1848.98873,-0.4596 c 0,-0.6875 0.877,-1.25 1.9488,-1.25 1.0718,0 1.6011,0.5625 1.1762,1.25 -0.4249,0.6875 -1.3019,1.25 -1.9487,1.25 -0.647,0 -1.1763,-0.5625 -1.1763,-1.25 z m -1739.37507,-5 c 0.4249,-0.6875 1.0206,-1.25 1.3238,-1.25 0.3032,0 0.5512,0.5625 0.5512,1.25 0,0.6875 -0.5957,1.25 -1.3237,1.25 -0.7281,0 -0.9762,-0.5625 -0.5513,-1.25 z m 691.87507,-1.1175 c 0,-1.6189 18.4664,-18.0195 25.9893,-23.082 11.014,-7.4119 31.1627,-12.576 42.7607,-10.9595 8.804,1.2271 6.1127,3.1876 -5.8886,4.2897 -12.734,1.1693 -27.204,5.6788 -34.5693,10.7733 -2.8419,1.9658 -9.6267,7.2915 -15.0773,11.8351 -9.2276,7.692 -13.2148,9.8473 -13.2148,7.1434 z m -125.04147,-17.7098 c -0.9642,-1.8017 -1.2321,-5.3323 -0.744,-9.8065 0.6621,-6.0697 0.5375,-6.6994 -0.9454,-4.7775 -0.9394,1.2175 -2.0727,4.4942 -2.5184,7.2817 -0.5128,3.2064 -1.3734,4.8758 -2.3431,4.5446 -1.7185,-0.5869 -1.9728,-7.5119 -0.4384,-11.9402 0.8181,-2.3612 0.5081,-3.0301 -1.6677,-3.5991 -1.5991,-0.4182 -2.5181,-1.5126 -2.2879,-2.7248 0.2878,-1.5152 2.1147,-2.1238 7.248,-2.4144 4.7409,-0.2683 7.6841,-1.1595 9.5174,-2.8816 2.4531,-2.3042 2.8085,-2.3387 4.6911,-0.4561 2.2004,2.2003 1.8876,2.5103 3.9011,-3.8662 0.3416,-1.082 1.6072,-1.7661 2.8125,-1.52 1.8486,0.3774 2.1301,1.6133 1.8004,7.9049 -0.4703,8.9752 -3.3518,19.5715 -6.2472,22.9739 -1.1616,1.365 -4.1729,2.845 -6.6918,3.2891 -3.9171,0.6905 -4.798,0.3999 -6.0866,-2.0078 z m 813.88687,-14.1892 c 4.0551,-4.2908 31.1546,-11.6471 31.1546,-8.4571 0,1.3206 -20.154,8.1288 -28.856,9.7478 -3.9513,0.7351 -4.1224,0.639 -2.2986,-1.2907 z m -760.33418,-1.5239 c -6.6972,-3.5346 -5.2104,-10.7325 3.6386,-17.615 7.40364,-5.7583 7.77504,-5.8509 11.06764,-2.7576 4.66204,4.3797 3.62904,13.3047 -2.2687,19.6005 -2.9711,3.1718 -7.37284,3.4451 -12.43754,0.7721 z m 109.61378,-5.4596 c 0.4249,-0.6875 1.0206,-1.25 1.3238,-1.25 0.3032,0 0.5512,0.5625 0.5512,1.25 0,0.6875 -0.5957,1.25 -1.3238,1.25 -0.728,0 -0.9761,-0.5625 -0.5512,-1.25 z m 626.875,-1.1175 c 0,-1.6189 18.4664,-18.0195 25.9893,-23.082 11.0141,-7.4119 31.1627,-12.576 42.7607,-10.9595 8.804,1.2271 6.1128,3.1876 -5.8886,4.2897 -12.734,1.1693 -27.204,5.6788 -34.5693,10.7733 -2.8419,1.9658 -9.6267,7.2915 -15.0772,11.8351 -9.2278,7.692 -13.2149,9.8473 -13.2149,7.1434 z m -125.0414,-17.7098 c -0.9642,-1.8017 -1.2321,-5.3323 -0.744,-9.8065 0.6622,-6.0697 0.5375,-6.6994 -0.9454,-4.7775 -0.9395,1.2175 -2.0727,4.4942 -2.5184,7.2817 -0.5128,3.2064 -1.3734,4.8758 -2.3432,4.5446 -1.7185,-0.5869 -1.9727,-7.5119 -0.4383,-11.9402 0.8181,-2.3612 0.5081,-3.0301 -1.6678,-3.5991 -1.5991,-0.4182 -2.518,-1.5126 -2.2879,-2.7248 0.2878,-1.5152 2.1148,-2.1238 7.2482,-2.4144 4.7408,-0.2683 7.684,-1.1595 9.5173,-2.8816 2.453,-2.3042 2.8085,-2.3387 4.6912,-0.4561 2.2002,2.2003 1.8875,2.5103 3.901,-3.8662 0.3416,-1.082 1.6072,-1.7661 2.8125,-1.52 1.8486,0.3774 2.1301,1.6133 1.8003,7.9049 -0.4702,8.9752 -3.3517,19.5715 -6.2472,22.9739 -1.1615,1.365 -4.1729,2.845 -6.6918,3.2891 -3.917,0.6905 -4.7978,0.3999 -6.0865,-2.0078 z m -1435.89738,-2.4621 c -4.28394,-1.7219 -6.27685,-7.6752 -9.03767,-26.9979 -3.03095,-21.2132 -3.16738,-26.5441 -0.70348,-27.4896 3.85506,-1.4793 46.02524,10.4215 56.12644,15.8394 2.65186,1.4223 5.06602,2.3416 5.36481,2.0428 0.29879,-0.2988 -0.39981,-2.9002 -1.55244,-5.7809 -2.76538,-6.9113 -0.91954,-9.2723 4.25709,-5.445 1.94325,1.4367 7.59736,4.6589 12.56469,7.1604 8.82794,4.4457 11.20571,6.772 9.5914,9.384 -0.49768,0.8053 -4.07826,-0.3577 -9.48576,-3.0808 -4.77749,-2.4059 -8.68634,-4.0931 -8.68634,-3.7493 0,0.3438 1.40625,6.0374 3.125,12.6525 3.56799,13.7325 3.89356,18.0038 1.37229,18.0038 -1.81938,0 -4.49729,-6.1043 -4.49729,-10.2515 0,-1.5023 -1.33921,-2.8454 -3.63513,-3.6457 -2.19178,-0.7641 -3.93008,-2.4424 -4.37798,-4.227 -0.40858,-1.6279 -2.38518,-4.1292 -4.39246,-5.5585 -5.77312,-4.1109 -48.21224,-17.3661 -49.97068,-15.6077 -0.65577,0.6558 1.68383,20.9002 3.81095,32.9761 1.1527,6.544 1.72525,7.5498 4.93465,8.6686 3.9354,1.3719 4.82899,4.4184 1.65341,5.637 -2.42672,0.9312 -2.92649,0.8902 -6.4615,-0.5307 z m 74.68874,-12.4044 c 0,-0.6566 4.5467,-4.6549 10.10377,-8.8852 9.77469,-7.4408 20.86035,-19.9598 30.646,-34.6085 2.5478,-3.814 5.3151,-6.5625 6.6073,-6.5625 3.1084,0 5.154,7.0052 6.0225,20.625 0.6276,9.841 1.1808,11.9 4.4173,16.4392 2.5856,3.6264 3.4491,5.9793 2.8673,7.8125 -1.3687,4.3124 -3.792,3.0293 -8.6069,-4.5575 -4.1183,-6.4892 -4.5589,-8.0243 -4.5743,-15.9375 -0.031,-15.741 -0.2261,-15.774 -11.27589,-1.904 -12.73012,15.9792 -27.96767,28.7723 -34.27001,28.7723 -1.06538,0 -1.93707,-0.5372 -1.93707,-1.1938 z m 1414.76144,-0.8466 c -6.6973,-3.5346 -5.2105,-10.7325 3.6385,-17.615 7.4036,-5.7583 7.7751,-5.8509 11.0676,-2.7576 4.662,4.3797 3.629,13.3047 -2.2686,19.6005 -2.9713,3.1718 -7.3729,3.4451 -12.4375,0.7721 z m 109.6136,-5.4596 c 0.4249,-0.6875 1.0206,-1.25 1.3238,-1.25 0.3032,0 0.5512,0.5625 0.5512,1.25 0,0.6875 -0.5957,1.25 -1.3237,1.25 -0.7282,0 -0.9762,-0.5625 -0.5513,-1.25 z M 340.61943,837.47999 c -0.351,-0.9743 -0.7913,-5.5655 -0.9785,-10.2027 l -0.3404,-8.4313 -5.2601,6.8096 c -5.182,6.7084 -11.8355,11.4617 -14.0917,10.0673 -0.6343,-0.3921 2.3353,-4.2214 6.5992,-8.5096 4.8518,-4.8794 9.1248,-10.7121 11.42,-15.5882 5.9306,-12.6001 7.2733,-10.7203 6.2652,8.7709 -0.7968,15.4033 -2.0629,21.3893 -3.6137,17.0841 z m 549.6174,-6.1859 c -4.2839,-1.7219 -6.2769,-7.6752 -9.0377,-26.9979 -3.0309,-21.2132 -3.1674,-26.5441 -0.7035,-27.4896 3.8551,-1.4793 46.0253,10.4215 56.1265,15.8394 2.6518,1.4223 5.066,2.3416 5.3648,2.0428 0.2988,-0.2988 -0.3998,-2.9002 -1.5524,-5.7809 -2.7654,-6.9113 -0.9196,-9.2723 4.257,-5.445 1.9433,1.4367 7.5974,4.6589 12.5647,7.1604 8.82789,4.4456 11.20569,6.772 9.59139,9.384 -0.4977,0.8053 -4.07829,-0.3577 -9.48579,-3.0808 -4.7774,-2.4059 -8.6863,-4.0931 -8.6863,-3.7493 0,0.3438 1.4063,6.0374 3.125,12.6525 3.568,13.7325 3.8936,18.0038 1.3723,18.0038 -1.8194,0 -4.4973,-6.1043 -4.4973,-10.2515 0,-1.5023 -1.3392,-2.8454 -3.6351,-3.6457 -2.1918,-0.7641 -3.9301,-2.4424 -4.378,-4.227 -0.4086,-1.6279 -2.3852,-4.1292 -4.3924,-5.5585 -5.7732,-4.1109 -48.2123,-17.3661 -49.9707,-15.6077 -0.6558,0.6558 1.6838,20.9002 3.8109,32.9761 1.1527,6.544 1.7253,7.5498 4.9347,8.6686 3.9354,1.3719 4.829,4.4184 1.6534,5.637 -2.4267,0.9312 -2.9265,0.8902 -6.4615,-0.5307 z m 74.68869,-12.4044 c 0,-0.6566 4.5467,-4.6549 10.1038,-8.8852 9.7747,-7.4408 20.86034,-19.9598 30.64598,-34.6085 2.5479,-3.814 5.3152,-6.5625 6.6074,-6.5625 3.1084,0 5.1539,7.0052 6.0225,20.625 0.6275,9.841 1.1808,11.9 4.4173,16.4392 2.5855,3.6264 3.4491,5.9793 2.8672,7.8125 -1.3687,4.3124 -3.7919,3.0293 -8.6068,-4.5575 -4.1184,-6.4892 -4.559,-8.0243 -4.5744,-15.9375 -0.031,-15.741 -0.226,-15.774 -11.2758,-1.904 -12.73018,15.9792 -27.96778,28.7723 -34.27008,28.7723 -1.0654,0 -1.9371,-0.5372 -1.9371,-1.1938 z m 105.69388,-21.4097 c -0.3509,-0.9743 -0.7912,-5.5655 -0.9784,-10.2027 l -0.3404,-8.4313 -5.2602,6.8096 c -5.182,6.7084 -11.8354,11.4617 -14.0916,10.0673 -0.6344,-0.3921 2.3353,-4.2214 6.5992,-8.5096 4.8518,-4.8794 9.1248,-10.7121 11.4199,-15.5882 5.9307,-12.6001 7.2734,-10.7203 6.2652,8.7709 -0.7967,15.4033 -2.0629,21.3893 -3.6137,17.0841 z m 484.6175,-6.1859 c -4.2839,-1.7219 -6.2769,-7.6752 -9.0377,-26.9979 -3.031,-21.2132 -3.1673,-26.5441 -0.7035,-27.4896 3.855,-1.4793 46.0253,10.4215 56.1264,15.8394 2.6519,1.4223 5.0661,2.3416 5.3649,2.0428 0.2987,-0.2988 -0.3999,-2.9002 -1.5525,-5.7809 -2.7654,-6.9113 -0.9195,-9.2723 4.2571,-5.445 1.9433,1.4367 7.5974,4.6589 12.5648,7.1604 8.8278,4.4456 11.2056,6.772 9.5913,9.384 -0.4977,0.8053 -4.0782,-0.3577 -9.4857,-3.0808 -4.7775,-2.4059 -8.6864,-4.0931 -8.6864,-3.7493 0,0.3438 1.4063,6.0374 3.125,12.6526 3.568,13.7324 3.8935,18.0037 1.3722,18.0037 -1.8193,0 -4.4972,-6.1043 -4.4972,-10.2515 0,-1.5023 -1.3392,-2.8454 -3.6351,-3.6457 -2.1918,-0.7641 -3.9302,-2.4424 -4.378,-4.227 -0.4085,-1.6279 -2.3852,-4.1292 -4.3925,-5.5585 -5.7731,-4.1109 -48.2122,-17.3661 -49.9706,-15.6077 -0.6558,0.6558 1.6838,20.9002 3.8109,32.9761 1.1527,6.544 1.7253,7.5498 4.9347,8.6686 3.9354,1.3719 4.829,4.4184 1.6533,5.637 -2.4267,0.9312 -2.9265,0.8902 -6.4615,-0.5307 z m 74.6887,-12.4044 c 0,-0.6566 4.5468,-4.6549 10.1038,-8.8852 9.7747,-7.4408 20.8603,-19.9598 30.646,-34.6085 2.5478,-3.814 5.3151,-6.5625 6.6073,-6.5625 3.1084,0 5.1539,7.0052 6.0225,20.625 0.6275,9.841 1.1808,11.9 4.4173,16.4392 2.5855,3.6264 3.4491,5.9793 2.8672,7.8125 -1.3687,4.3124 -3.7918,3.0293 -8.6068,-4.5575 -4.1183,-6.4892 -4.5589,-8.0243 -4.5744,-15.9375 -0.03,-15.741 -0.226,-15.774 -11.2758,-1.904 -12.7301,15.9792 -27.9677,28.7723 -34.27,28.7723 -1.0655,0 -1.9371,-0.5372 -1.9371,-1.1938 z m 105.6939,-21.4097 c -0.351,-0.9743 -0.7913,-5.5655 -0.9785,-10.2027 l -0.3404,-8.4313 -5.2601,6.8096 c -5.182,6.7084 -11.8355,11.4617 -14.0917,10.0673 -0.6343,-0.3921 2.3353,-4.2214 6.5992,-8.5096 4.8518,-4.8794 9.1248,-10.7121 11.42,-15.5882 5.9306,-12.6001 7.2733,-10.7203 6.2651,8.7709 -0.7966,15.4033 -2.0629,21.3893 -3.6136,17.0841 z m 361.1811,-205.6876 c -8.3709,-1.5091 -118.2085,-11.8371 -140,-13.1642 -18.763,-1.1427 -69.9242,-1.6088 -179.375,-1.6342 -163.2629,-0.038 -151.2776,0.2964 -228.125,-6.3619 -98.1486,-8.5039 -147.0225,-9.2836 -238.75,-3.8087 -90.3224,5.391 -104.7445,5.8353 -227.5,7.0086 -128.63057,1.2293 -280.54037,4.1862 -322.50007,6.2773 -14.4375,0.7195 -54.0937,3.0025 -88.125,5.0732 -57.7065,3.5114 -68.6119,3.7988 -161.875,4.2658 -55,0.2755 -118.8437,0.8129 -141.875,1.1944 -28.6821,0.4751 -40.9464,0.2963 -38.9275,-0.5674 1.8641,-0.7976 53.777,-1.7011 141.25,-2.4585 138.009,-1.1949 138.4458,-1.2067 205.8025,-5.5787 85.8574,-5.5728 111.0602,-6.636 193.125,-8.1479 36.7813,-0.6776 75.4644,-1.567 85.9624,-1.9765 10.49809,-0.4095 71.24817,-1.2559 135.00007,-1.8808 119.6741,-1.173 130.1046,-1.4995 221.5376,-6.9342 89.8466,-5.3405 137.644,-4.6658 230.625,3.2556 84.7938,7.2238 71.598,6.8326 232.5,6.8929 140.0389,0.053 167.5221,0.545 206.875,3.7074 38.5548,3.0984 71.5651,6.3169 96.7468,9.4327 16.4295,2.0329 30.6326,3.6962 31.5625,3.6962 0.9298,0 1.6907,0.5625 1.6907,1.25 0,1.1728 -10.0309,1.4674 -15.625,0.4589 z"
     style="fill:#000000"
     inkscape:connector-curvature="0" />
</svg>
