<?xml version="1.0" encoding="UTF-8" standalone="no"?>
<svg
   xmlns:dc="http://purl.org/dc/elements/1.1/"
   xmlns:cc="http://creativecommons.org/ns#"
   xmlns:rdf="http://www.w3.org/1999/02/22-rdf-syntax-ns#"
   xmlns:svg="http://www.w3.org/2000/svg"
   xmlns="http://www.w3.org/2000/svg"
   viewBox="0 0 467.45151 409.91354"
   height="409.91354"
   width="467.45151"
   version="1.1"
   id="svg3706">
  <metadata
     id="metadata3712">
    <rdf:RDF>
      <cc:Work
         rdf:about="">
        <dc:format>image/svg+xml</dc:format>
        <dc:type
           rdf:resource="http://purl.org/dc/dcmitype/StillImage" />
        <dc:title></dc:title>
      </cc:Work>
    </rdf:RDF>
  </metadata>
  <defs
     id="defs3710" />
  <path
     id="path3716"
     d="m 447.21197,408.91353 c 0.33992,-0.55 1.71648,-1 3.05902,-1 1.34254,0 2.44098,0.45 2.44098,1 0,0.55 -1.37656,1 -3.05902,1 -1.7847,0 -2.80156,-0.41658 -2.44098,-1 z m -338,-11.67692 c -26.668504,-0.54861 -70.881014,-3.93067 -77.760964,-5.94837 -4.02796,-1.18129 -5.22909,-6.03254 -5.41602,-21.87471 -0.10785,-9.14064 -0.7932,-17.92968 -1.75449,-22.5 -1.02913,-4.89284 -1.91245,-17.40722 -2.54103,-36 -2.27016,-67.14836 -3.28815,-80.7863 -9.58255,-128.37646 C 10.256576,168.16912 8.0228162,147.86353 7.1930162,137.41353 3.4611662,90.417317 2.5828862,80.665832 1.0487862,69.195099 -0.18764379,59.950094 -0.30595379,56.640069 0.56259621,55.593523 1.3906862,54.595736 5.5415762,54.050816 15.461236,53.637658 c 9.10959,-0.379417 15.26958,-1.135829 18.25074,-2.241083 2.71505,-1.006596 9.85485,-2.002538 18,-2.51085 15.38948,-0.960406 24.86783,-2.440688 48.100407,-7.512088 24.318667,-5.30848 70.821197,-14.272008 83.394037,-16.074496 8.09486,-1.160509 23.83393,-1.761221 59.51067,-2.27134 26.67781,-0.381449 48.98617,-0.990848 49.57412,-1.354221 0.58795,-0.363373 8.05279,-1.358387 16.58854,-2.211143 8.53576,-0.852756 17.7274,-2.220243 20.42589,-3.03886 2.69848,-0.818617 6.60966,-1.493265 8.69151,-1.499219 3.35754,-0.0096 3.67469,0.195641 2.80717,1.816625 -1.43415,2.67972 -14.17739,5.841497 -31.04013,7.701489 -7.94208,0.876025 -14.89321,1.872787 -15.44696,2.215028 -0.55376,0.34224 -22.17898,0.944689 -48.05605,1.338775 -34.31976,0.52266 -50.29588,1.155677 -59.04921,2.339688 -14.69929,1.988285 -53.00841,9.223887 -80.24182,15.155604 -28.060914,6.111957 -35.377584,7.321599 -53.980724,8.924466 -8.9224,0.768764 -17.17972,1.910015 -18.3496,2.536113 -1.16987,0.626098 -8.20724,1.629877 -15.6386,2.23062 l -13.5115498,1.092261 0.64617,4.569253 c 1.348,9.532062 3.67292,34.347457 5.1125098,54.56925 1.88448,26.47124 2.68461,34.05438 7.49144,71 5.3062,40.78377 6.8709,63.11 8.51518,121.5 0.4029,14.30735 1.29174,25.67079 2.65689,33.96717 1.47179,8.94445 1.87593,14.59564 1.4303,20 -0.66864,8.10883 0.63849,18.96282 2.41595,20.06135 1.89023,1.16822 36.46708,3.99444 60.953857,4.9822 30.477007,1.22939 66.110387,1.2367 82.499997,0.0169 7.15,-0.53213 27.4,-1.6471 45,-2.47769 52.82395,-2.49292 58.3754,-3.02333 94.5,-9.02894 11.275,-1.87443 30.4,-4.81566 42.5,-6.53605 25.90784,-3.6836 38.68195,-6.03455 54.89496,-10.10287 6.54222,-1.64164 12.53629,-2.7387 13.32013,-2.4379 0.79381,0.30461 1.28336,1.51939 1.10505,2.74209 -0.26377,1.80868 -1.55269,2.51018 -7.32014,3.98402 -17.93151,4.58232 -31.72663,7.22763 -56.84105,10.89966 -14.93742,2.18403 -38.18395,5.75203 -51.65895,7.9289 -32.44261,5.24105 -37.14366,5.71851 -74,7.51574 -17.325,0.84482 -42.525,2.19954 -56,3.01048 -22.23197,1.33795 -38.60952,1.51576 -73.5,0.79802 z m 314.45255,-22.88025 c -1.04336,-1.25718 -0.78153,-2.0119 1.53789,-4.43285 5.00469,-5.22377 7.99378,-6.00998 22.84942,-6.00998 l 13.53759,0 0.65461,-4.36523 c 0.39271,-2.61877 0.032,-7.5198 -0.9016,-12.25 -0.85592,-4.33662 -2.02544,-11.42298 -2.59895,-15.74745 -1.79847,-13.56133 -5.03111,-56.59062 -5.04029,-67.09064 -0.0215,-24.55534 -2.45479,-42.519 -16.46455,-121.54668 -1.90129,-10.725 -4.36783,-28.05 -5.4812,-38.5 -1.11337,-10.450003 -3.15406,-28.899998 -4.53487,-40.999996 -1.79166,-15.700183 -2.51058,-27.262825 -2.51059,-40.378653 l -10e-6,-18.3786535 -11.25,0.698836 c -14.07778,0.874495 -31.85133,3.10205 -42.09854,5.2761995 -6.40419,1.358778 -7.42923,1.820333 -5.57005,2.508089 1.98556,0.734507 2.09292,1.028419 0.83514,2.286202 -1.89071,1.890714 -7.91655,3.12746 -7.91655,1.624798 0,-0.612251 -1.7915,-1.399656 -3.98112,-1.74979 -4.55488,-0.728355 -6.74643,-2.59378 -4.78121,-4.069715 1.98504,-1.4908165 27.12574,-7.0701495 39.26233,-8.7132675 13.61273,-1.84296496 34.44255,-3.08626396 37.75937,-2.25379696 l 2.47427,0.621004 0.56219,23.76437346 c 0.38513,16.280056 1.36051,30.222328 3.09702,44.269814 1.39416,11.277988 3.4384,28.602983 4.54274,38.499996 1.10435,9.89701 2.93634,22.94456 4.07109,28.99456 1.13475,6.05 3.6071,20.225 5.4941,31.5 1.88701,11.275 5.04054,29.5 7.00784,40.5 3.03768,16.98495 3.728,23.69344 4.57913,44.5 1.21831,29.7827 4.45369,70.68836 6.58499,83.25561 1.94462,11.46645 2.74675,29.70933 1.39579,31.74439 -0.80828,1.21758 -3.90003,1.51932 -16.42079,1.60261 -13.72254,0.0913 -15.74084,0.32398 -18.28638,2.10822 -5.5725,3.90592 -7.03909,4.38241 -8.40881,2.732 z M 111.71197,349.0592 c 0,-1.81102 34.3675,-10.39885 56.5,-14.11835 13.87596,-2.33193 29.90845,-2.75796 29.25302,-0.77732 -0.2672,0.80744 -3.57165,1.47653 -9.33334,1.88982 -10.67471,0.76572 -37.17283,5.44997 -58.40873,10.32531 -16.45134,3.7769 -18.01095,4.00901 -18.01095,2.68054 z m 230,-6.07471 c 0,-0.51097 2.3625,-1.60742 5.25,-2.43655 8.9606,-2.57297 10.75,-2.88873 10.75,-1.89695 0,0.52485 -3.33616,1.92363 -7.41368,3.1084 -8.47164,2.46154 -8.58632,2.4779 -8.58632,1.2251 z m -40.76641,-5.63789 c 0.31181,-0.3118 3.42431,-1.18334 6.91667,-1.93673 3.49236,-0.7534 11.29974,-2.50627 17.34974,-3.89527 34.01259,-7.80886 41.93257,-9.50184 42.37608,-9.05832 1.86711,1.86711 -6.53139,4.19964 -39.7805,11.04834 -19.67745,4.05319 -28.30752,5.28752 -26.86199,3.84198 z m -172.68359,-6.36046 c 0.5225,-0.51007 5.85008,-1.86774 11.83906,-3.01704 5.98899,-1.14931 20.55855,-4.57492 32.3768,-7.61248 19.75074,-5.07637 24.19604,-5.81268 21.66747,-3.58894 -2.41254,2.12171 -39.38899,11.34849 -54.58465,13.62058 -12.05138,1.80195 -12.55966,1.82885 -11.29868,0.59788 z M 286.2076,317.90647 c -0.82141,-1.32909 -0.68913,-1.36012 19.00437,-4.45825 9.35,-1.47092 27.125,-4.73231 39.5,-7.24752 12.375,-2.51521 23.9625,-4.78301 25.75,-5.03955 4.53735,-0.65119 4.14786,1.43514 -0.5,2.67832 -20.76272,5.5535 -47.45354,10.89248 -67.76508,13.55509 -13.67721,1.79293 -15.16807,1.84066 -15.98929,0.51191 z m -189.495627,-6.9842 c 0,-0.55481 0.3375,-1.01765 0.75,-1.02855 2.674207,-0.0706 19.511727,-2.7344 51.477117,-8.14393 32.67129,-5.52898 39.58438,-6.31443 37.53456,-4.2646 -0.82149,0.82148 -40.17337,7.79631 -60.76168,10.76956 -23.45138,3.38671 -28.999997,3.89709 -28.999997,2.66752 z m -10.86888,-18.35075 c -1.669727,-2.0119 -0.35138,-2.65799 5.4236,-2.65799 2.87176,0 20.009257,-2.43456 38.083327,-5.41014 63.65368,-10.47945 81.5026,-12.78933 82.78551,-10.71354 1.11292,1.80073 -3.07977,2.87022 -24.18719,6.16975 -10.855,1.69687 -34.81137,5.53205 -53.23637,8.52263 -34.02316,5.52234 -46.792737,6.59088 -48.868877,4.08929 z m 189.618877,-5.39303 c -5.39685,-0.42555 -5.88605,-1.29057 -2.12391,-3.75562 2.17474,-1.42495 3.90505,-1.60084 10.06741,-1.02338 4.09272,0.38352 12.1459,0.37665 17.89596,-0.0153 8.60255,-0.58635 10.25656,-0.95128 9.33646,-2.05994 -0.61502,-0.74105 -1.65389,-3.16161 -2.30862,-5.37903 l -1.19041,-4.03168 -3.73284,4.99998 c -3.58417,4.80087 -5.89659,6.09932 -7.1759,4.02936 -0.72432,-1.17197 1.64896,-5.97762 5.86971,-11.88555 2.98564,-4.17912 3.13529,-4.8701 3.68177,-17 0.3133,-6.9541 0.92394,-13.43132 1.35699,-14.39382 0.67081,-1.49096 0.24671,-1.75 -2.86509,-1.75 -11.66873,0 -11.20884,-16.73832 0.66055,-24.04163 4.28959,-2.63941 5.62997,-2.9952 9.15178,-2.42924 6.31253,1.01442 8.62614,2.89887 8.62614,7.02604 0,7.01186 -5.06333,14.98578 -11.10477,17.48823 -1.5784,0.65379 -2.64999,1.54439 -2.38132,1.97911 0.26867,0.43472 0.67026,7.91999 0.89243,16.63394 0.27965,10.96909 0.91569,17.48962 2.06731,21.19381 0.91486,2.94265 1.39744,6.04329 1.0724,6.89032 -0.65943,1.71847 -2.37541,1.83643 25.45395,-1.74972 8.525,-1.09854 22.21383,-2.67223 30.41963,-3.49707 8.20579,-0.82484 14.98714,-1.61088 15.06966,-1.74675 0.0825,-0.13587 0.67433,-2.07634 1.31512,-4.31216 0.94064,-3.282 0.85956,-5.4974 -0.42091,-11.5 -1.17486,-5.50749 -1.44617,-10.54572 -1.04659,-19.43488 0.62897,-13.99234 -0.7719,-40.03237 -2.86141,-53.1892 -1.54738,-9.74321 -1.22166,-12.60115 1.37907,-12.10029 3.50934,0.67584 5.95014,20.85297 7.29313,60.28949 0.94845,27.85108 1.03547,32.15157 0.81413,40.2322 -0.10976,4.00667 -0.31167,4.28183 -3.78888,5.16344 -2.02012,0.51218 -7.27295,1.22859 -11.67295,1.59201 -4.4,0.36343 -22.175,2.4256 -39.5,4.58261 -30.43268,3.78895 -43.75494,4.49535 -60.25,3.1947 z m 37.00514,-60.49108 c 3.14083,-2.93314 5.24486,-7.01652 5.24486,-10.17891 0,-2.0952 -0.6032,-2.61751 -3.69215,-3.197 -4.52847,-0.84954 -7.86497,0.82111 -11.03534,5.52563 -2.70142,4.00862 -3.01031,9.56412 -0.60659,10.90932 2.2261,1.24578 7.04372,-0.21491 10.08922,-3.05904 z m -54.14815,52.64433 c -0.33385,-0.86998 -0.60906,-3.45748 -0.6116,-5.75 -0.003,-2.29251 -0.88008,-10.11883 -1.95012,-17.3918 -1.07003,-7.27298 -2.48683,-21.79336 -3.14843,-32.26752 -1.33269,-21.0984 -0.69436,-26.34014 3.40709,-27.97775 1.20784,-0.48226 5.57107,-2.21171 9.69607,-3.84322 4.125,-1.63152 16.95,-5.08275 28.5,-7.66941 11.55,-2.58667 25.05,-5.99494 30,-7.57394 25.58569,-8.16157 50.19078,-13.74096 55.13029,-12.50122 1.49529,0.37529 2.36971,1.32572 2.36971,2.5757 0,1.08952 -0.3375,2.00363 -0.75,2.03134 -12.5022,0.84006 -28.81488,4.55497 -49.75801,11.33149 -6.0544,1.95901 -21.1294,5.8552 -33.5,8.65821 -12.37059,2.80302 -25.19199,6.21919 -28.49199,7.59151 -3.3,1.37232 -7.20925,2.95078 -8.68722,3.5077 -1.78936,0.67426 -2.90477,2.00303 -3.3383,3.97691 -1.03055,4.69206 2.19924,42.94118 5.01443,59.38379 1.99232,11.63652 1.342,17.5 -1.94094,17.5 -0.7337,0 -1.60714,-0.7118 -1.94098,-1.58179 z m 86.39301,-8.51821 c 0,-0.605 1.68636,-2.7425 3.74747,-4.75 2.06111,-2.0075 4.23353,-5.225 4.8276,-7.15 0.59408,-1.925 1.60772,-3.3875 2.25253,-3.25 0.64482,0.1375 1.1724,-0.48125 1.1724,-1.375 0,-1.25919 -0.65182,-1.49464 -2.89547,-1.04591 -3.99276,0.79856 -10.10453,-0.32221 -10.10453,-1.85294 0,-1.75834 2.34284,-2.47615 8.08179,-2.47615 l 4.91821,0 0,-6 c 0,-5.91057 -0.0419,-6 -2.81144,-6 -4.0018,0 -7.18856,-3.32342 -7.18856,-7.49685 0,-4.69815 5.87699,-10.85905 11.90426,-12.47933 3.90669,-1.05022 4.69751,-0.96606 7,0.745 4.5542,3.38437 4.08962,9.89068 -1.13079,15.8364 -3.09131,3.52081 -3.20692,3.97859 -3.47714,13.76834 -0.32903,11.92056 -0.6821,13.3811 -2.80816,11.61662 -2.56296,-2.12707 -1.73201,0.69052 1.53282,5.19749 2.15258,2.97155 2.71198,4.47822 1.94601,5.24134 -0.76484,0.76199 -1.56431,0.46366 -2.77099,-1.03403 -3.02053,-3.74897 -5.07564,-3.72371 -8.46444,0.104 -3.04654,3.44112 -5.73157,4.56591 -5.73157,2.40102 z m 15.92327,-40.48889 c 2.32835,-1.95918 3.07673,-3.41861 3.07673,-6 0,-2.98447 -0.31708,-3.41111 -2.53518,-3.41111 -3.41422,0 -7.22812,2.6416 -9.13341,6.32601 -1.45311,2.81 -1.43559,3.12464 0.24224,4.3515 2.68226,1.96132 4.9164,1.62246 8.34962,-1.2664 z m -294.899464,36.6036 c -1.1971,-0.73985 -1.219,-1.28146 -0.13379,-3.30919 1.39096,-2.59903 7.63988,-6.1141 9.17867,-5.16307 1.58614,0.98028 1.0319,2.19799 -1.27501,2.80126 -4.9285,1.28883 -0.34924,1.87091 6.4348,0.81794 25.124014,-3.89957 46.119844,-6.64533 62.271524,-8.14366 22.5206,-2.08915 61.29438,-4.99969 70,-5.25453 l 9,-0.26346 0,2.5 c 0,2.38556 -0.29753,2.51102 -6.5,2.74075 -18.38866,0.68108 -84.60168,6.4757 -106,9.27657 -8.525,1.11586 -19.549997,2.46444 -24.499994,2.99684 -4.95,0.53241 -10.81008,1.17438 -13.02241,1.4266 -2.21233,0.25223 -4.66653,0.0605 -5.45379,-0.42605 z m 224.416884,-9.11067 c -1.08584,-1.75693 1.71966,-3.61893 6.30912,-4.18733 5.76318,-0.71378 6.16689,0.66111 0.93746,3.19264 -4.89428,2.36928 -6.27952,2.55942 -7.24658,0.99469 z m 20.58155,-4.15404 c 0.0439,-2.47092 5.77398,-7.75 8.41202,-7.75 1.58827,0 0.18893,2.97288 -2.73187,5.80383 -3.42236,3.31709 -5.71854,4.10382 -5.68015,1.94617 z m 54.97776,-6.66667 c 0,-1.22833 0.64569,-2.08333 1.57332,-2.08333 0.93124,0 1.44138,0.68037 1.25,1.66713 -0.48655,2.50877 -2.82332,2.85325 -2.82332,0.4162 z M 46.872716,231.31741 c 0.25368,-1.3173 1.96357,-2.35106 5.60219,-3.38697 2.88039,-0.82005 5.23707,-1.97916 5.23707,-2.57581 0,-0.59665 -1.33748,-2.85248 -2.97218,-5.01296 -4.17709,-5.52059 -4.17214,-11.12998 0.0135,-15.31563 3.16246,-3.16246 9.03147,-5.40554 11.58236,-4.42667 2.0081,0.77058 1.22555,3.88612 -0.88563,3.52591 -2.32134,-0.39607 -7.45738,2.39527 -8.70842,4.73286 -1.75732,3.28359 -1.17039,5.42189 3.01838,10.99662 2.38243,3.17071 3.92539,6.24524 3.75,7.47227 -0.32656,2.28454 -5.00352,4.24173 -12.63608,5.28789 -3.90813,0.53567 -4.32802,0.39951 -4.0012,-1.29751 z m 53.920814,-5.77191 c -1.144857,-1.85242 -2.081557,-4.10242 -2.081557,-5 0,-2.39474 -1.26589,-2.00765 -4.51081,1.37931 -5.81618,6.07079 -18.513757,7.64714 -21.960447,2.72629 -2.11619,-3.02128 -1.90497,-8.60823 0.47287,-12.50825 2.10732,-3.4563 10.68477,-9.54118 12.162327,-8.628 0.47926,0.2962 -1.386567,3.0719 -4.146277,6.16823 -4.10094,4.60114 -5.01766,6.30421 -5.01766,9.32166 0,3.02357 0.41838,3.79698 2.31093,4.27198 3.17951,0.79801 9.454657,-1.02905 13.880347,-4.04136 2.0302,-1.38185 4.1197,-2.24767 4.64333,-1.92405 0.52362,0.32362 1.24608,-0.58315 1.60547,-2.01504 0.92199,-3.67354 4.610047,-11.55446 6.379737,-13.63274 1.98977,-2.33674 4.18018,-2.22068 4.18018,0.22149 0,1.08431 -1.125,4.51531 -2.5,7.62443 -1.375,3.10912 -2.5,6.69478 -2.5,7.96815 0,1.9535 0.58586,2.36369 3.75,2.62556 3.01222,0.24931 3.81287,0.75304 4.06955,2.56037 0.24307,1.71148 -0.17578,2.25 -1.75,2.25 -1.40288,0 -2.06955,0.64426 -2.06955,2 0,3.4554 -4.48557,2.56844 -6.91844,-1.36803 z m 17.81403,-2.00457 c -4.36517,-1.8896 -5.89559,-3.72533 -5.89559,-7.07171 0,-7.6777 6.38094,-18.55569 10.88461,-18.55569 3.37837,0 3.48401,2.02425 0.27849,5.33641 -3.28191,3.39109 -6.1631,9.30775 -6.1631,12.65622 0,2.37187 3.75656,4.17224 8.75,4.19352 3.4077,0.0145 4.10191,0.89988 2,2.55069 -2.0803,1.63384 -7.09125,2.08669 -9.85441,0.89056 z m 22.40369,-0.8774 c -4.53325,-4.9771 -5.5321,-10.46531 -2.84898,-15.6539 1.74874,-3.38167 12.16963,-13.0961 14.0485,-13.0961 0.73569,0 2.04943,-0.27314 2.91941,-0.60699 1.13395,-0.43514 1.58179,-0.0104 1.58179,1.5 0,1.15885 -0.47679,2.10699 -1.05954,2.10699 -2.93209,0 -15.25464,13.01915 -13.7483,14.52549 0.72499,0.72499 8.09432,-1.64397 13.30784,-4.27796 2.75,-1.38936 7.55332,-4.48843 10.67404,-6.88682 3.12073,-2.39839 6.13167,-4.36071 6.69099,-4.36071 2.48893,0 1.8648,2.19052 -1.84563,6.47758 -5.34186,6.17204 -6.72801,8.78622 -4.96962,9.37235 2.18464,0.72821 5.95022,4.93669 5.95022,6.65007 0,2.00763 -4.42016,6.5 -6.39553,6.5 -2.5989,0 -3.06424,-2.28277 -0.77516,-3.80266 2.94972,-1.95854 2.72838,-3.43669 -0.82931,-5.53827 -1.96898,-1.16311 -3,-2.57353 -3,-4.10397 l 0,-2.33183 -5.75,2.36463 c -3.1625,1.30055 -7.4375,2.37531 -9.5,2.38836 -2.0625,0.0131 -3.75,0.44865 -3.75,0.96798 0,2.11729 4.6842,6.16958 7.5,6.48822 1.65,0.18673 3.1676,0.39081 3.37244,0.45352 0.20485,0.0627 -0.18775,0.78902 -0.87244,1.61402 -1.95243,2.35253 -8.27873,1.90913 -10.70072,-0.75 z m 39.81083,-3.11732 c -1.33251,-1.60558 -0.062,-2.95536 3.88989,-4.13268 4.23065,-1.26036 5.27561,-2.53797 3.59483,-4.39521 -2.90816,-3.21348 -3.70145,-6.99793 -2.11143,-10.0727 1.81601,-3.51177 6.147,-7.03209 8.65146,-7.03209 2.59324,0 2.37096,0.69771 -1.63486,5.13168 -4.01946,4.44906 -4.27657,5.85556 -1.52553,8.34522 4.5566,4.12366 3.28082,8.59588 -3.30515,11.58615 -5.00931,2.27441 -6.07755,2.35491 -7.55921,0.56963 z m 166.29613,-3.78438 c -0.39148,-0.63344 0.12399,-1.76284 1.14549,-2.50978 1.57023,-1.14819 2.07579,-1.13957 3.2711,0.0557 0.7776,0.7776 1.10902,1.907 0.73648,2.50978 -0.89159,1.44261 -4.24948,1.40629 -5.15307,-0.0557 z M 48.711976,182.57221 c 0,-1.81335 5.51465,-20.72446 6.73582,-23.09879 3.30446,-6.4249 8.37126,-8.2488 11.97289,-4.30989 4.41577,4.82928 8.5056,15.42847 7.63429,19.78502 -0.60511,3.02552 -2.12147,3.96769 -2.76018,1.71498 -0.19492,-0.6875 -0.85429,-3.05 -1.46526,-5.25 -1.83344,-6.60193 -2.06373,-6.73642 -8.05053,-4.70144 l -5.31083,1.80521 -2.16464,6.94811 c -1.74196,5.59142 -2.59684,7.01052 -4.3781,7.26767 -1.2174,0.17575 -2.21346,0.10336 -2.21346,-0.16087 z m 14.13398,-18.81697 c 4.28497,-1.28381 4.42107,-1.52473 2.38226,-4.21714 -1.81525,-2.39717 -3.98322,-1.556 -5.98963,2.32398 -1.78278,3.44751 -1.7093,3.48608 3.60737,1.89316 z m 38.777694,14.40829 c -0.0486,-0.4125 -0.2618,-4.30531 -0.47383,-8.65069 -0.36325,-7.4444 -0.20767,-8.17514 2.69382,-12.65291 2.56598,-3.95998 3.68691,-4.82852 6.72383,-5.20987 4.81742,-0.60493 6.83196,0.56401 7.68786,4.4609 l 0.70593,3.21407 2.23039,-2.59298 c 5.67058,-6.59245 9.95523,-5.32866 9.8311,2.89974 -0.0933,6.18663 -1.03645,9.28174 -2.82826,9.28174 -0.98186,0 -1.46965,-1.66693 -1.68262,-5.75 l -0.2999,-5.75 -2.9109,4.29234 c -3.5894,5.29283 -5.51676,5.10288 -7.68139,-0.75701 -2.59658,-7.02926 -3.507,-6.5136 -6.82189,3.86389 -0.5972,1.86958 -1.08582,4.59236 -1.08582,6.05064 0,3.8339 -2.21918,8.03328 -4.25,8.04234 -0.9625,0.004 -1.78975,-0.3297 -1.83832,-0.7422 z m 72.28832,-1.45 c -0.66,-0.66 -1.2,-2.07289 -1.2,-3.13976 0,-1.06686 -0.77449,-2.50608 -1.72109,-3.19825 -1.54332,-1.1285 -1.59497,-1.86914 -0.5,-7.17044 0.6716,-3.25157 1.22723,-7.45985 1.23474,-9.35175 0.0209,-5.27011 1.02944,-7.9398 2.99939,-7.9398 2.53076,0 7.2405,5.73829 11.03365,13.44328 3.0318,6.15845 3.17172,6.88437 2.04918,10.63107 -1.84277,6.15062 -10.35228,10.26924 -13.89587,6.72565 z m 8.22857,-5.37143 c 2.39005,-2.39005 1.89882,-6.1129 -1.61757,-12.2589 l -3.18899,-5.57379 -1.41675,7.21269 c -1.73403,8.82798 -1.11539,12.19143 2.24236,12.19143 1.32524,0 3.11667,-0.70714 3.98095,-1.57143 z m -38.6806,-0.59153 c -5.16438,-1.88607 -4.41842,-7.67073 2.13897,-16.58704 1.8634,-2.53373 3.93073,-4.25 5.11933,-4.25 2.66707,0 2.60387,3.13823 -0.11268,5.59501 -2.16571,1.95862 -5.89359,8.5149 -5.89359,10.36515 0,1.41302 9.58494,1.32752 12.31574,-0.10986 2.97821,-1.56761 3.65105,-2.79007 3.66895,-6.66604 0.022,-4.7563 -1.63676,-7.42947 -4.12082,-6.64105 -1.73837,0.55173 -1.96977,0.25007 -1.6891,-2.20195 0.27678,-2.41802 0.77212,-2.84126 3.32523,-2.84126 2.54891,0 3.33832,0.6709 5.25,4.46189 2.99606,5.94138 2.9298,11.07676 -0.19077,14.78535 -3.87762,4.6083 -13.15014,6.5225 -19.81126,4.0898 z m 57.56033,-0.84664 c -3.65279,-1.47135 -5.63061,-5.4503 -4.83948,-9.73599 0.96078,-5.20473 10.17269,-14.25441 14.50994,-14.25441 4.10478,0 3.79534,1.48624 -0.93056,4.46957 -3.29827,2.08211 -9.56372,9.34824 -8.75669,10.15527 0.13119,0.1312 4.72824,-1.26494 10.21565,-3.10252 9.35085,-3.13133 12.23811,-3.53721 11.00842,-1.54753 -0.71754,1.16101 -17.15376,7.02521 -19.69029,7.02521 -1.72678,0 -1.86368,0.24882 -0.82529,1.5 0.85179,1.02634 3.12716,1.5 7.20578,1.5 6.72106,0 7.45985,1.5361 1.73385,3.60503 -4.09039,1.47795 -6.66332,1.5809 -9.63133,0.38537 z m 23.10511,-4.35546 c -1.4944,-3.89435 4.15203,-20.20038 8.50087,-24.54922 2.49028,-2.49028 4.38844,-2.64014 6.51429,-0.51429 2.28516,2.28515 1.92708,6.62539 -0.88895,10.77504 -2.33414,3.43955 -2.36622,3.67597 -0.62524,4.60771 1.00932,0.54017 3.80399,1.2498 6.21038,1.57695 2.40638,0.32715 5.37338,0.79645 6.59333,1.04289 1.88816,0.38142 2.83845,-0.68227 6.38883,-7.15124 4.37617,-7.97361 8.43446,-13.42278 9.99667,-13.42278 0.50919,0 1.76532,1.38046 2.79138,3.06769 2.02245,3.32565 4.81377,20.97652 3.62215,22.90461 -1.15325,1.866 -4.51712,-1.87079 -4.51712,-5.01788 0,-2.40452 -0.45385,-2.79685 -3.75,-3.24161 -2.93147,-0.39556 -4.07741,-0.0787 -5.25,1.45138 -5.784,7.54768 -4.811,7.09364 -12.50957,5.83748 -8.78159,-1.43287 -12.18519,-2.72779 -14.00726,-5.32915 -1.80545,-2.57766 -2.34632,-2.02126 -3.88023,3.99166 -1.25241,4.90942 -4.01747,7.0251 -5.18953,3.97076 z m 43.5163,-15.38494 c -0.0387,-0.9625 -0.42046,-2.64702 -0.84846,-3.74338 -0.7116,-1.82287 -0.91945,-1.72019 -2.42971,1.20034 -2.13985,4.13801 -2.10921,4.29304 0.84846,4.29304 1.74106,0 2.47866,-0.53126 2.42971,-1.75 z m -32.15821,-3.81184 c -0.3352,-0.3352 -1.14849,0.44159 -1.80729,1.72619 -1.14512,2.23286 -1.1183,2.25968 0.60945,0.60946 0.99401,-0.94941 1.53304,-2.00045 1.19784,-2.33565 z m 51.85879,8.31184 c -1.10291,-4.11546 -0.66786,-10.47393 0.79997,-11.69212 2.12368,-1.7625 3.56974,1.63068 3.56974,8.37638 0,4.78418 -0.26447,5.56574 -1.88337,5.56574 -1.1078,0 -2.13167,-0.92655 -2.48634,-2.25 z m 16.61454,-1 c -3.06182,-3.82706 -1.97023,-9.31026 3.20398,-16.094 1.40315,-1.83963 2.55119,-3.56533 2.55119,-3.83488 0,-1.15135 -12.64916,1.37502 -18.39622,3.67421 -7.49269,2.99754 -9.45822,3.23914 -7.53904,0.92666 5.39666,-6.50257 31.77514,-12.31907 32.74112,-7.21947 0.17738,0.93639 -1.95638,4.67579 -4.74168,8.30977 -2.89696,3.77967 -5.06418,7.65155 -5.06418,9.04748 0,2.22546 0.39606,2.44023 4.5,2.44023 4.96137,0 5.92568,1.50746 1.9349,3.02475 -3.55573,1.35189 -7.99486,1.21917 -9.19007,-0.27475 z m 6.20132,-7.83713 c -0.87021,-1.40803 0.26722,-2.37702 4.41872,-3.76441 6.17974,-2.06521 7.1715,0.81959 1.11489,3.24296 -4.7733,1.9099 -4.68088,1.90119 -5.53361,0.52145 z M 53.565506,121.34381 c -5.7632,-1.77421 -10.85353,-7.17464 -10.85353,-11.51474 0,-6.10089 4.40459,-11.437583 12.33532,-14.945723 5.27967,-2.33545 7.66468,-2.05928 7.66468,0.8875 0,1.40338 -0.94374,2.09714 -3.50688,2.57799 -4.61226,0.86527 -11.49312,7.343713 -11.49312,10.820963 0,2.74683 4.83398,7.62362 7.82673,7.89604 0.9203,0.0838 2.12327,0.25687 2.67327,0.38465 0.55,0.12779 1.5625,0.28425 2.25,0.34769 1.8058,0.16664 1.53911,3.79043 -0.33179,4.50836 -0.86998,0.33385 -1.65748,0.57565 -1.75,0.53734 -0.0925,-0.0383 -2.25912,-0.71334 -4.81468,-1.50007 z m 23.64647,-4.58045 c -7.32799,-2.69766 -9.42054,-8.18779 -5.544,-14.5455 2.61793,-4.293533 5.03198,-5.715753 15.043997,-8.863063 4.675,-1.4696 10.22169,-3.54668 12.32599,-4.61573 2.104287,-1.06904 5.017997,-1.80463 6.474907,-1.63463 2.56085,0.29881 2.64975,0.52663 2.67401,6.85227 0.0239,6.225103 2.11862,11.956823 4.3698,11.956823 0.93061,0 8.65521,-13.437553 9.62877,-16.750003 0.38826,-1.32103 1.45289,-2.25 2.57858,-2.25 1.73537,0 1.86166,0.54553 1.33108,5.75 -0.45553,4.46829 -0.0882,7.19889 1.64804,12.250003 1.22883,3.575 2.63228,7.00546 3.11878,7.62325 0.94003,1.19371 0.13861,4.37675 -1.10196,4.37675 -1.56936,0 -3.90699,-3.75614 -6.06178,-9.74016 l -2.24702,-6.24016 -2.8668,4.52047 c -1.57674,2.48626 -3.57175,4.79099 -4.43337,5.12162 -4.53284,1.73941 -10.45486,-6.11296 -10.76999,-14.280613 -0.093,-2.40962 -0.23686,-4.38113 -0.31974,-4.38114 -0.0829,-10e-6 -2.45442,1.06731 -5.270077,2.37182 l -5.11936,2.37184 2.43083,1.59274 c 1.33695,0.87601 2.94315,3.145093 3.56932,5.042403 1.500597,4.54687 -0.62362,9.87874 -4.7951,12.0359 -3.95695,2.04622 -12.910417,2.81725 -16.664907,1.43511 z m 14.865137,-5.92241 c 7.6896,-6.04864 -4.02498,-15.390943 -12.630277,-10.07257 -3.73295,2.30709 -6.01963,6.23947 -5.06892,8.71698 1.48047,3.85806 13.361027,4.76799 17.699197,1.35559 z m 44.260687,-2.46012 c -1.21414,-3.16398 -0.59835,-7.12976 1.87903,-12.101203 2.76489,-5.54841 6.80918,-9.90808 8.32327,-8.97232 0.5369,0.33182 1.91516,3.69467 3.06279,7.47299 2.4732,8.142493 4.59652,10.554683 6.72656,7.641683 1.70758,-2.33526 3.36938,-8.068973 3.37694,-11.651463 0.005,-2.59683 2.27535,-4.42633 4.09582,-3.30122 1.21745,0.75243 1.14295,6.06436 -0.15037,10.72156 -1.3723,4.941643 -6.46965,10.722673 -9.45457,10.722673 -3.01342,0 -7.12025,-4.9306 -8.55984,-10.276823 l -1.12714,-4.18588 -1.50119,2.86514 c -0.82566,1.57582 -1.7976,4.937193 -2.15986,7.469713 -0.68274,4.773 -3.26869,6.83373 -4.51144,3.59515 z m 61.12485,-2.15649 c -3.01113,-0.78698 -3.2809,-5.21969 -0.74802,-12.291263 1.28434,-3.58575 2.81926,-7.98205 3.41094,-9.76955 0.66988,-2.023735 1.73808,-3.249995 2.83109,-3.249995 2.44735,0 2.24282,2.906545 -0.79769,11.335545 -1.87407,5.19535 -2.38257,8.086343 -1.91211,10.870993 0.3525,2.0864 0.26385,3.74126 -0.19699,3.67746 -0.46085,-0.0638 -1.62509,-0.32174 -2.58722,-0.57319 z m -22.43686,-2.20478 c -1.7524,-1.09945 -3.6649,-2.8935 -4.25,-3.98678 -1.6299,-3.045503 -1.26214,-8.281763 0.82165,-11.698943 2.23513,-3.66535 7.62872,-6.306115 9.35468,-4.58016 0.83852,0.83852 0.19915,1.96884 -2.48566,4.39437 -4.68562,4.23313 -5.35353,6.7342 -2.69943,10.10835 1.75105,2.226103 2.87984,2.657133 6.9585,2.657133 5.23734,0 6.83332,1.05226 4.51465,2.97659 -2.68503,2.22837 -8.76623,2.29282 -12.21439,0.12944 z m 45.44904,-0.54871 c -2.09325,-1.05449 -2.26524,-1.81144 -2.29461,-10.098623 -0.0376,-10.600005 0.16017,-11.458695 2.63874,-11.458695 2.08447,0 2.10407,0.11084 1.90088,10.749995 -0.15644,8.191263 -0.23408,8.132283 7.5832,5.76082 7.22752,-2.19254 9.62018,-2.0105 9.22848,0.70215 -0.33132,2.294483 -1.69813,2.821483 -12.05669,4.648673 -3.15227,0.55604 -5.49422,0.45423 -7,-0.30432 z m 42.83534,-3.22642 c 0.37231,-1.556993 1.95947,-6.389343 3.52704,-10.738553 4.07124,-11.295645 7.31341,-14.314545 9.71424,-9.045295 0.63829,1.40088 1.20538,3.988375 1.2602,5.749995 0.0548,1.76162 0.40002,4.27459 0.76709,5.58437 l 0.66741,2.38142 3.18962,-2.68389 c 1.75429,-1.47613 5.31264,-6.03527 7.90744,-10.131405 6.15817,-9.72124 9.27062,-10.14718 6.01582,-0.82327 -0.74412,2.13165 -1.92008,6.913225 -2.61323,10.625725 -0.83693,4.48252 -1.72614,6.75 -2.64706,6.75 -0.95836,0 -1.38677,-1.27504 -1.38677,-4.12736 l 0,-4.12736 -4.47766,4.12736 c -7.11767,6.560843 -9.77985,5.36909 -11.28919,-5.05374 l -0.77024,-5.3189 -3.5855,9.5 c -2.34555,6.21471 -4.16831,9.614433 -5.27081,9.830903 -1.38017,0.27099 -1.56275,-0.18166 -1.0084,-2.5 z m 47.41053,-3.168323 c -5.37715,-5.37716 -5.01617,-17.651755 0.6502,-22.108925 2.79865,-2.20143 5.34107,-2.69421 5.34107,-1.03524 0,0.56012 -1.16181,3.24032 -2.5818,5.956 -3.87807,7.416665 -3.0688,9.013275 3.97417,7.840655 3.13708,-0.52231 2.92329,1.88539 -0.33849,3.81217 -1.67963,0.99219 -3.05388,2.20574 -3.05388,2.69678 0,0.83123 0.78426,0.72285 6.75,-0.93283 3.53713,-0.98167 2.83013,2.28449 -1,4.61977 -4.39063,2.677023 -6.39,2.502893 -9.74127,-0.84838 z m 105.06561,-2.02368 c -0.83771,-1.56526 -1.99157,-1.99636 -5.02016,-1.87558 -4.10909,0.16386 -8.05418,-2.273 -8.05418,-4.97501 0,-1.1558 -0.38992,-1.12861 -2.22251,0.15499 -1.22237,0.85618 -3.18601,1.5567 -4.36363,1.5567 -2.22147,0 -7.39098,-4.43487 -7.44427,-6.38636 -0.0553,-2.026635 -1.70166,1.82239 -2.36783,5.53588 -0.70206,3.91362 -2.8495,6.43344 -4.57427,5.36747 -0.58306,-0.36035 -0.83357,-1.02174 -0.55669,-1.46974 0.27688,-0.448 0.96775,-4.12941 1.53527,-8.1809 1.42279,-10.157245 2.75268,-13.866345 4.97174,-13.866345 1.36009,0 2.12644,1.26611 3.01941,4.9884 1.57449,6.56323 4.61907,10.574935 6.70914,8.840335 2.25222,-1.869175 3.4626,-5.774225 3.43388,-11.078735 -0.0217,-4.006773 0.27117,-4.749998 1.87171,-4.749998 1.38675,0 2.07917,0.968796 2.57271,3.599608 l 0.67529,3.5996 2.4105,-2.5996 c 2.67174,-2.88136 5.32955,-3.42205 5.32955,-1.08423 0,0.83347 -1.6149,3.94761 -3.58867,6.92032 -4.26546,6.424235 -4.19887,8.937355 0.24828,9.370305 2.35018,0.2288 4.02139,-0.46504 6.62382,-2.75 6.29863,-5.530275 7.761,-3.739825 3.63173,4.44649 -3.65136,7.23886 -3.51693,7.11011 -4.84082,4.6364 z m -82.61779,-0.51887 c -7.84451,-3.47908 -8.71448,-9.21515 -2.43143,-16.031455 4.61965,-5.01172 9.45987,-7.50358 11.1983,-5.76515 0.81621,0.81621 -0.39607,2.56132 -4.55563,6.55799 -3.11729,2.99521 -5.66779,6.089955 -5.66779,6.877225 0,2.50394 3.65593,4.85794 8.65539,5.57308 3.31122,0.47365 4.84461,1.16385 4.84461,2.18064 0,2.00921 -7.97589,2.41165 -12.04345,0.60767 z m 37.17626,-2.70597 c -0.98078,-4.90392 -0.75998,-9.005605 0.80906,-15.029555 0.79302,-3.04463 1.58052,-6.17481 1.75,-6.955952 0.24154,-1.113338 -0.7928,-1.349749 -4.78629,-1.093968 -6.51958,0.417576 -13.40558,-1.374966 -13.40558,-3.489699 0,-1.210076 0.64123,-1.428705 2.75,-0.937621 1.5125,0.352227 5.675,0.913238 9.25,1.246691 7.51347,0.700809 9.45796,1.805627 8.40617,4.776199 -0.40309,1.13842 -0.99687,6.98395 -1.31953,12.990065 -0.58874,10.95939 -2.1787,14.86949 -3.45383,8.49384 z m -11.33476,-6.16406 c 0.31782,-2.887495 0.90276,-6.791175 1.29987,-8.674835 l 0.72201,-3.42483 -6.09941,4.93527 c -7.32717,5.928685 -16.35388,10.676315 -19.46041,10.235275 -3.28946,-0.46702 -2.77979,-3.13023 0.73989,-3.86619 5.13129,-1.07295 14.49742,-6.015975 20.19955,-10.660425 5.55602,-4.52544 8.30045,-4.980021 8.30045,-1.37487 0,2.79035 -1.9242,12.052115 -3.18504,15.330605 -1.77574,4.61733 -3.15005,3.25225 -2.51691,-2.5 z m 59.95195,-8.481835 c -3.72626,-0.45274 -4.59385,-3.27632 -1,-3.25451 3.65138,0.0222 6.85835,1.1613 6.47839,2.30117 -0.43438,1.30316 -1.32441,1.45804 -5.47839,0.95334 z"
     style="fill:#000000" />
</svg>
