<?xml version="1.0" encoding="UTF-8" standalone="no"?>
<svg
   xmlns:dc="http://purl.org/dc/elements/1.1/"
   xmlns:cc="http://creativecommons.org/ns#"
   xmlns:rdf="http://www.w3.org/1999/02/22-rdf-syntax-ns#"
   xmlns:svg="http://www.w3.org/2000/svg"
   xmlns="http://www.w3.org/2000/svg"
   xmlns:sodipodi="http://sodipodi.sourceforge.net/DTD/sodipodi-0.dtd"
   xmlns:inkscape="http://www.inkscape.org/namespaces/inkscape"
   viewBox="0 0 1048.3508 1048"
   height="1048"
   width="1048.3508"
   version="1.1"
   id="svg3788"
   inkscape:version="0.91 r13725"
   sodipodi:docname="h1_tag.svg">
  <sodipodi:namedview
     pagecolor="#ffffff"
     bordercolor="#666666"
     borderopacity="1"
     objecttolerance="10"
     gridtolerance="10"
     guidetolerance="10"
     inkscape:pageopacity="0"
     inkscape:pageshadow="2"
     inkscape:window-width="640"
     inkscape:window-height="480"
     id="namedview5611"
     showgrid="false"
     inkscape:zoom="0.29570254"
     inkscape:cx="524.17542"
     inkscape:cy="594.96848"
     inkscape:window-x="0"
     inkscape:window-y="0"
     inkscape:window-maximized="0"
     inkscape:current-layer="svg3788" />
  <metadata
     id="metadata3794">
    <rdf:RDF>
      <cc:Work
         rdf:about="">
        <dc:format>image/svg+xml</dc:format>
        <dc:type
           rdf:resource="http://purl.org/dc/dcmitype/StillImage" />
        <dc:title></dc:title>
      </cc:Work>
    </rdf:RDF>
  </metadata>
  <defs
     id="defs3792" />
  <path
     id="path3798"
     d="m 42.118223,848.81104 c -6.18562,-3.8915 -17.9959,-9.3344 -23.42868,-10.7973 -3.18002,-0.8562 -4.07132,-1.5731 -4.07132,-3.2743 0,-3.2332 2.98248,-10.7623 5.84083,-14.7449 4.29255,-5.9807 24.41835,-25.9578 25.48622,-25.29782 0.59264,0.36627 0.76731,-0.0139 0.42103,-0.91623 -0.65923,-1.71793 0.95319,-3.7859 2.95192,-3.7859 1.85784,0 1.59341,4.05888 -0.45659,7.00839 -0.95888,1.37962 -6.35493,7.14776 -11.99123,12.81816 -9.56607,9.624 -14.16993,15.729 -15.66998,20.7793 -0.5337,1.7969 0.0747,2.3687 4.14616,3.8965 2.6244,0.9849 7.31256,3.0577 10.41812,4.6063 4.71261,2.3499 5.5744,2.5325 5.21066,1.1035 -0.50012,-1.9648 5.82837,-15.4717 11.13804,-23.7721 5.29585,-8.2787 12.31877,-15.44005 15.14166,-15.44005 2.8631,0 3.23882,2.97205 0.58522,4.62925 -4.62108,2.8859 -19.21857,25.8576 -19.46153,30.6261 -0.14054,2.7583 -1.57709,4.7412 -4.11484,5.68 -1.64114,0.6071 -1.24226,1.111 2.71528,3.4303 4.93118,2.8899 5.33903,3.5343 3.43903,5.4343 -1.74704,1.7471 -2.7517,1.507 -8.3,-1.9835 z m 35.82714,-8.4063 c -1.36205,-3.5495 1.8265,-35.6122 3.78068,-38.01699 0.4947,-0.60876 0.62951,-2.4565 0.29959,-4.10609 -0.44051,-2.20259 -0.17991,-3.16039 0.98112,-3.60592 2.33235,-0.89501 3.8341,2.6982 4.39313,10.5113 0.40279,5.6296 0.20954,6.8737 -1.1487,7.3949 -0.89813,0.3446 -1.63296,1.458 -1.63296,2.4742 0,1.6319 0.28653,1.561 2.45455,-0.607 4.41783,-4.4178 9.85508,-2.6893 13.444177,4.274 1.48362,2.8784 3.26006,21.5098 2.15627,22.6152 -0.46341,0.4641 -1.67786,0.6839 -2.698777,0.4884 -1.5837,-0.3033 -1.96035,-1.7075 -2.56548,-9.5647 -0.71693,-9.3087 -2.89807,-15.7264 -5.0994,-15.0041 -2.36651,0.7764 -5.5019,6.8453 -7.21621,13.9678 -0.96223,3.9979 -2.15361,8.0563 -2.64751,9.0188 -1.12075,2.1842 -3.68874,2.2755 -4.50048,0.1602 z m 44.672857,-1.7042 c -5.85352,-2.9607 -7.9284,-14.2247 -5.51142,-29.92 1.81359,-11.77707 2.94389,-15.35419 5.11484,-16.18726 2.15932,-0.82861 2.59755,1.0932 1.51997,6.6657 -0.55684,2.87959 -1.31282,7.65766 -1.67995,10.61796 l -0.66751,5.3823 3.61204,-0.6323 c 1.98661,-0.3478 5.18703,-0.9074 7.11203,-1.2436 3.01841,-0.5272 3.5,-0.3414 3.5,1.3506 0,1.6167 -1.31136,2.2707 -7.4538,3.7173 l -7.45381,1.7553 0.54651,3.144 c 1.7003,9.7817 3.98284,12.3619 9.62567,10.8808 6.93691,-1.8207 9.44575,1.604 3.11331,4.2498 -4.39291,1.8355 -8.04369,1.9059 -11.37788,0.2194 z m 116.64772,-3.1816 c -0.96224,-2.5076 5.4729,-9.6795 15.61709,-17.4053 5.33028,-4.0595 9.41376,-7.8301 9.07441,-8.3792 -1.01219,-1.6378 -15.16366,-7.81417 -19.66427,-8.58248 -3.58196,-0.61149 -4.17495,-1.06388 -4.17495,-3.18505 0,-3.64504 3.79388,-3.65515 13.18093,-0.0351 12.71911,4.90501 20.75557,10.92943 18.80015,14.09343 -0.33627,0.5441 -5.41958,4.5493 -11.29624,8.9005 -5.87666,4.3512 -12.46367,9.7468 -14.63779,11.9901 -4.19405,4.3275 -5.97915,5.0011 -6.89933,2.6031 z m -16.74452,-0.5187 c -0.87823,-0.5135 -1.63508,-2.1873 -1.68188,-3.7196 -0.0468,-1.5323 -0.56234,-5.7111 -1.14565,-9.2861 -2.2923,-14.049 -0.67166,-27.1996 3.42433,-27.78654 1.92959,-0.2765 2.00249,0.30437 2.07069,16.50004 0.0428,10.1636 0.52112,17.8582 1.21239,19.5027 0.92516,2.201 0.85079,3.0071 -0.39212,4.25 -1.77635,1.7764 -1.45666,1.7269 -3.48776,0.5395 z m -69.89692,-1.4981 c -2.18704,-2.6352 1.34979,-22.0336 4.6903,-25.7248 1.9074,-2.1076 4.5015,-0.6644 3.66746,2.0404 -0.2844,0.9222 0.56179,0 1.88042,-2.0466 7.5196,-11.67834 11.74232,-10.25555 14.0651,4.739 l 1.19044,7.6849 5.36124,-6.6152 c 6.38092,-7.8733 9.62248,-10.58525 12.6523,-10.58525 3.15765,0 4.30588,3.67735 4.67602,14.97565 0.26136,7.9776 0.0619,9.5252 -1.26128,9.789 -2.37129,0.4727 -3.92828,-4.0438 -3.92828,-11.395 0,-4.7813 -0.33562,-6.4261 -1.25,-6.1258 -0.6875,0.2258 -4.90505,4.6316 -9.37234,9.7908 -4.46729,5.1591 -8.51729,9.5046 -9,9.6565 -2.79755,0.8807 -3.83771,-1.8828 -4.34977,-11.5566 -0.29034,-5.4851 -0.82572,-10.2696 -1.18973,-10.6322 -0.86405,-0.8608 -4.65779,5.6796 -10.30873,17.7723 -2.49959,5.3489 -4.93616,9.7253 -5.41462,9.7253 -0.47846,0 -1.4273,-0.6716 -2.10853,-1.4924 z m 39.88956,-53.13306 c -1.04495,-1.25908 -0.58902,-2.11193 2.77479,-5.19056 4.99478,-4.57132 6.83708,-8.06923 8.2362,-15.63776 1.29069,-6.982 1.43805,-15.54617 0.26748,-15.54617 -0.45412,0 -1.89067,1.13362 -3.19231,2.51916 -3.17304,3.37755 -11.03489,8.34882 -15.00307,9.48688 -4.42625,1.26944 -9.3659,-0.91989 -11.53367,-5.11189 -2.30827,-4.46371 -1.56128,-16.60493 1.1433,-18.58256 3.8093,-2.78543 4.333,-1.14758 2.8518,8.91882 -0.52994,3.60154 -0.30208,5.33169 0.95485,7.25 2.98922,4.56213 7.29311,3.06177 18.75487,-6.53806 8.75801,-7.33528 10.94297,-7.50566 12.08487,-0.94235 1.07273,6.1657 -0.82383,22.17355 -3.31241,27.95842 -2.02931,4.71725 -7.8763,11.21726 -11.09943,12.33906 -0.92228,0.321 -2.23956,-0.0943 -2.92727,-0.92299 z M 31.118223,762.03884 C 20.705043,755.59782 5.7648231,743.58078 5.6644831,741.56535 c -0.0572,-1.14983 26.8593099,-27.80756 30.4591599,-30.16627 2.46887,-1.61767 2.70869,-1.61754 4.30456,0.002 1.58725,1.61111 1.5762,1.79984 -0.18173,3.10358 -1.02946,0.76348 -7.68711,7.09808 -14.79477,14.07689 l -12.92303,12.68874 5.72664,5.11199 c 5.45184,4.86669 23.69004,16.5431 25.91291,16.58989 0.5775,0.0122 1.56894,0.54104 2.2032,1.1753 1.53895,1.53895 -0.23485,4.87285 -2.53838,4.77093 -0.94315,-0.0417 -6.66482,-3.13768 -12.71482,-6.87988 z m 49.5,1.37883 c 0,-0.86731 1.27225,-2.84917 2.82722,-4.40414 4.46128,-4.46129 8.61112,-13.13633 7.81029,-16.32706 -0.37159,-1.48054 -1.10946,-2.69188 -1.63972,-2.69188 -1.1343,0 -5.17663,7.78904 -7.00618,13.5 -1.45309,4.53583 -2.86213,5.85235 -4.66352,4.35733 -0.94461,-0.78396 -1.09654,-5.46294 -0.63946,-19.6928 0.63971,-19.91557 1.21224,-23.16453 4.08204,-23.16453 1.68414,0 1.79292,0.95295 1.45544,12.75 l -0.36475,12.75 2.00282,-2.92303 c 3.38511,-4.94044 5.09471,-5.30659 8.25621,-1.76826 4.13206,4.62458 4.58744,8.98473 1.60657,15.38244 -3.89811,8.36632 -8.3255,13.80885 -11.23323,13.80885 -1.60405,0 -2.49373,-0.5626 -2.49373,-1.57692 z m 138.650987,-1.17878 c -0.25688,-0.41563 -0.22725,-2.0101 0.0658,-3.54326 0.37594,-1.96663 3.0567,-4.86757 9.10277,-9.85042 4.71344,-3.88457 9.15726,-7.28824 9.87515,-7.56372 2.28867,-0.87825 1.4714,-1.9955 -6.37951,-8.72111 -4.85044,-4.1552 -8.28141,-6.39391 -9.30246,-6.06984 -0.88972,0.28238 -2.43855,-0.0868 -3.44184,-0.82043 -1.51244,-1.10592 -1.62562,-1.70481 -0.66236,-3.50469 1.37058,-2.56095 4.04646,-2.76256 8.1947,-0.61743 4.51454,2.33456 21.35153,17.47259 21.70667,19.51633 0.22122,1.27306 -0.92381,2.33087 -4,3.69527 -2.37047,1.05139 -8.69937,5.58438 -14.06424,10.07331 -10.18987,8.52615 -10.34034,8.62659 -11.09471,7.40599 z m -111.19644,-4.69885 c -3.55785,-3.55784 -3.62218,-10.62199 -0.15337,-16.83963 3.71431,-6.65769 15.00277,-12.2591 17.28001,-8.57446 0.38457,0.62225 0.72087,3.43475 0.74733,6.25 0.0577,6.13874 -3.06282,13.70479 -7.57591,18.36864 -3.77098,3.89695 -6.95094,4.14258 -10.29806,0.79545 z m 11.39773,-12.44676 c 1.36214,-4.54639 1.48608,-8.09869 0.28258,-8.09869 -1.63214,0 -6.17522,4.17737 -7.65484,7.03864 -1.80775,3.49581 -1.91601,8.12036 -0.23002,9.82571 1.00515,1.01669 1.75974,0.65719 3.85228,-1.83528 1.43126,-1.7048 3.11876,-4.82347 3.75,-6.93038 z m -70.400117,12.48999 c -1.86948,-1.367 -1.86128,-1.54405 0.40451,-8.74197 1.27194,-4.04069 4.45998,-11.17171 7.08452,-15.84671 2.62453,-4.675 5.04732,-9.2875 5.38396,-10.25 0.90249,-2.58031 4.67485,-2.27666 4.67485,0.3763 0,1.95652 -5.03498,12.94445 -7.08078,15.45253 -1.671,2.04858 -5.87795,14.36516 -5.36407,15.70428 0.28346,0.7387 -0.31942,2.09857 -1.33974,3.02195 -1.60937,1.45645 -2.10791,1.49403 -3.76325,0.28362 z m 91.620417,-4.22354 c -5.886,-7.48283 1.43118,-26.14831 9.86421,-25.16271 3.53844,0.41355 3.96924,3.53207 0.60459,4.37654 -3.57667,0.89769 -7.54138,7.88475 -7.54138,13.29027 0,4.95031 2.02085,6.3262 5.14365,3.50204 4.17579,-3.77644 5.75261,-8.73096 6.76764,-21.26457 1.06596,-13.16258 2.48001,-17.60671 5.60218,-17.60671 1.73889,0 2.02369,0.78086 2.28461,6.26406 0.16395,3.44523 -0.23618,8.84523 -0.88918,12 -2.22795,10.76377 -2.22744,13.64887 0.003,17.81069 2.45815,4.58606 2.63759,6.42525 0.62706,6.42525 -1.59211,0 -5.53896,-3.7961 -5.53896,-5.3274 0,-0.52265 -1.94395,1.1372 -4.31989,3.68856 -5.22856,5.61461 -9.26298,6.25588 -12.60753,2.00398 z m 329.86552,-36.02798 c -1.3382,-3.51972 -0.058,-4.58623 3.77,-3.14124 4.0214,1.51792 9.5006,-0.18314 16.6274,-5.16208 12.2163,-8.53471 16.581,-24.21656 10.5632,-37.95308 l -1.936,-4.41924 -2.7313,2.54412 c -3.8127,3.55124 -10.24,7.55322 -13.3407,8.30658 -3.8585,0.93748 -7.8604,-2.86761 -8.5686,-8.14719 -0.6825,-5.0887 1.1551,-11.01487 3.8653,-12.46535 3.0088,-1.61025 4.1632,0.1988 2.348,3.67959 -1.8564,3.55989 -2.0003,9.79004 -0.2594,11.23482 1.812,1.50379 6.4762,-0.96134 12.2051,-6.45061 5.5216,-5.2906 7.9258,-5.38722 11.2438,-0.45186 7.1382,10.61765 6.8171,27.15263 -0.7591,39.09165 -5.4932,8.65653 -18.1123,15.99673 -27.5013,15.99673 -3.9684,0 -4.6364,-0.32184 -5.5264,-2.66284 z m 358.4177,-21.85239 c -1.1568,-3.01444 11.2775,-20.73659 27.1442,-38.68776 l 9.6705,-10.94096 -2.5834,-3.90374 c -1.4208,-2.14705 -3.8217,-4.65116 -5.3352,-5.56469 -1.5135,-0.91352 -6.3646,-4.07445 -10.7802,-7.02428 -4.4156,-2.94984 -8.546,-5.36334 -9.1786,-5.36334 -1.8515,0 -4.2559,-2.93344 -3.6655,-4.47201 1.3507,-3.51986 5.6723,-2.1737 15.8724,4.94415 3.3,2.30282 8.1292,5.40277 10.7316,6.88878 2.6024,1.486 5.2573,3.70021 5.8997,4.92046 0.6425,1.22024 1.4735,2.44362 1.8467,2.71862 1.0295,0.75847 4.022,7.13511 4.022,8.57023 0,0.69463 -1.1266,2.08799 -2.5035,3.09636 -4.7145,3.45251 -22.5914,24.82736 -29.7603,35.58341 -7.0318,10.55028 -9.9629,12.92876 -11.3804,9.23477 z m -750.404357,-4.5755 c -1.63813,-3.06088 0.42751,-7.2325 5.11842,-10.33681 2.13799,-1.41485 4.24838,-2.57246 4.68974,-2.57246 1.40639,0 11.40241,-17.80549 12.939237,-23.0481 1.72016,-5.86803 1.23489,-7.9519 -1.851727,-7.9519 -4.74977,0 -16.66228,7.96808 -18.04005,12.0667 -0.40974,1.21888 -0.73055,1.22798 -2.14444,0.0609 -2.57312,-2.12404 -2.01876,-3.87542 2.58738,-8.17436 5.3216,-4.96668 13.11004,-8.9532 17.4918,-8.9532 3.980877,0 8.268847,3.75045 8.237107,7.20455 -0.0356,3.87358 -4.42894,15.03178 -8.302997,21.08791 -2.02175,3.16051 -3.67591,6.13756 -3.67591,6.61567 0,0.47811 1.4625,1.14434 3.25,1.48052 1.787497,0.33618 5.953947,1.89082 9.258767,3.45475 3.30483,1.56393 7.80483,3.17922 10,3.58954 4.94197,0.92374 6.90263,2.36643 5.50489,4.0506 -1.51794,1.829 -10.26874,0.1416 -18.21143,-3.51167 -3.68377,-1.69436 -8.183767,-3.30878 -9.999997,-3.58759 -3.05081,-0.46834 -3.62541,-0.0835 -7.54699,5.05439 -4.55351,5.96585 -7.40009,7.02771 -9.3038,3.4706 z m 222.680037,0.38888 c -1.1367,-1.1367 -0.66286,-4.02721 0.86852,-5.29815 2.78265,-2.30939 1.65226,-5.41795 -4,-11 -5.86843,-5.79553 -6.57144,-8.02739 -4.05895,-12.88601 2.73004,-5.27931 13.66783,-11.84898 17.63235,-10.59069 2.29543,0.72854 2.59338,3.4767 0.37694,3.4767 -3.72835,0 -12.31275,6.08309 -14.63688,10.37201 -0.85531,1.57838 -0.0575,2.76023 5.08606,7.53472 6.63408,6.15802 7.43326,8.61527 4.59013,14.11329 -1.57163,3.0392 -4.76502,5.37128 -5.85817,4.27813 z m -143.4806,-3.61635 c -1.6065,-1.93572 -3.15993,-10.19029 -3.42164,-18.1818 -0.20991,-6.40975 -0.0606,-7 1.77076,-7 1.56807,0 2.0578,0.75588 2.26764,3.5 0.54422,7.11685 2.43901,17 3.25922,17 0.46538,0 3.40411,-3.84437 6.5305,-8.54305 3.12639,-4.69868 6.17919,-8.3781 6.784,-8.1765 0.60481,0.20161 1.45101,2.13348 1.88043,4.29305 0.94097,4.73218 3.78388,11.4265 4.85254,11.4265 1.21252,0 9.79166,-10.05385 12.58644,-14.75 2.67853,-4.5008 6.33923,-5.8659 6.33923,-2.36395 0,2.73607 -7.24878,13.16678 -12.53901,18.04314 -6.26319,5.77321 -9.02358,5.41943 -12.58995,-1.6136 l -2.62896,-5.1844 -3.6374,5.28134 c -4.55169,6.60886 -9.10402,9.10058 -11.4538,6.26927 z m 93.89702,-0.5923 c -3.08237,-5.75947 -2.06412,-28.03413 1.63835,-35.8395 1.86295,-3.92739 6.04088,-4.79295 4.82684,-1 -3.03093,9.46936 -4.34262,25.37081 -2.59535,31.46317 1.67397,5.83679 -1.36435,10.05789 -3.86984,5.37633 z m -38.18766,-0.14784 c -1.2459,-0.69724 -1.51844,-2.00369 -1.1836,-5.67374 1.42722,-15.64326 3.76189,-23.17407 6.3834,-20.59055 0.92597,0.91253 0.84516,3.58013 -0.35923,11.85959 -0.85466,5.87523 -1.3415,11.23582 -1.08186,11.91242 0.71428,1.86139 -1.84899,3.56101 -3.75871,2.49228 z m 19.99566,-5.00243 c -4.48566,-2.5103 1.27377,-32.51682 6.63622,-34.57458 2.78223,-1.06764 2.94306,0.50331 0.75844,7.40817 -2.58454,8.16886 -4.25056,17.12572 -4.25056,22.85182 0,4.67896 -0.72217,5.66997 -3.1441,4.31459 z m 82.11934,-1.46906 c -1.03803,-1.25076 -0.80276,-3.68093 1.28975,-13.32196 2.90631,-13.39051 4.9264,-18.90069 7.25707,-19.79505 2.88334,-1.10644 3.92034,1.19474 2.18574,4.85018 -1.31951,2.78067 -2.65101,7.95574 -5.15816,20.04804 -0.22943,1.10656 0.0628,1.50516 0.79362,1.08263 2.58095,-1.49214 13.34834,-10.35147 16.09384,-13.24187 3.2084,-3.37773 6.0062,-3.98523 6.9559,-1.51035 1.2112,3.1562 0.644,17.98535 -0.7614,19.9073 -1.3251,1.8122 -1.4041,1.80451 -2.5,-0.24313 -0.6224,-1.16296 -1.1316,-4.65386 -1.1316,-7.75754 l 0,-5.64307 -5.25,4.41757 c -7.7078,6.48569 -16.28137,12.73708 -17.46842,12.73708 -0.57018,0 -1.60803,-0.68842 -2.30634,-1.52983 z m 203.21346,-1.47916 c -4.6884,-4.42842 -5.038,-10.0897 -1.0304,-16.6906 2.3656,-3.89649 7.6248,-7.30041 11.2793,-7.30041 2.2296,0 2.6457,0.39305 2.382,2.25 -0.203,1.42878 -1.1233,2.36433 -2.5216,2.56325 -3.4175,0.48619 -8.298,6.67447 -8.298,10.52155 0,5.87311 4.4378,7.41182 10.5255,3.64944 6.5264,-4.03355 8.4581,-13.51704 3.9557,-19.42006 -2.741,-3.59358 -2.4717,-6.56418 0.5951,-6.56418 1.1773,0 3.2045,2.11482 5.5116,5.75 5.921,9.32924 10.3192,14.25068 12.7291,14.24341 3.1016,-0.009 6.5453,-2.60374 12.6012,-9.49341 10.3085,-11.72783 12.3932,-12.53501 13.6201,-5.27351 0.8416,4.98156 2.747,9.46032 5.4341,12.77351 l 2.0276,2.5 2.0223,-2.5 c 1.1123,-1.375 2.2916,-3.72741 2.6206,-5.22757 1.2238,-5.58045 6.3571,-6.35471 6.3571,-0.95885 0,3.32592 -6.8694,14.53859 -9.5333,15.56081 -2.5083,0.96253 -10.0161,-7.33726 -12.2004,-13.48744 l -1.7073,-4.80695 -7.0295,7.27106 c -10.5905,10.95444 -17.5665,12.08728 -23.0247,3.73901 l -1.9953,-3.05167 -2.1356,4.83901 c -2.8999,6.57105 -8.0013,10.34893 -14.696,10.88334 -4.2967,0.34298 -5.5712,0.0418 -7.4892,-1.76974 z m 151.8113,-2.16404 c -3.025,-2.20106 -9.1,-5.8182 -13.5,-8.0381 -9.1912,-4.63715 -19.4908,-12.52347 -19.4963,-14.92809 0,-2.41115 2.4321,-4.83382 12.9963,-12.91671 5.225,-3.99777 12.7639,-10.34563 16.753,-14.10637 7.1609,-6.75084 10.733,-8.34077 11.901,-5.29709 0.6734,1.75507 -11.7424,13.7731 -22.5566,21.83385 -3.6286,2.70466 -7.8324,6.05867 -9.3419,7.45335 l -2.7444,2.53577 3.2444,2.83755 c 1.7845,1.56065 6.7851,4.66056 11.1125,6.88868 10.4665,5.3891 21.632,12.88458 21.632,14.52172 0,1.102 -3.145,3.58453 -4.1843,3.30291 -0.1736,-0.0471 -2.7907,-1.88642 -5.8157,-4.08747 z m -315.6846,2.16605 c -2.762,-1.11281 -4.3154,-3.98433 -4.3154,-7.97694 0,-6.01109 7.4919,-17.01608 11.584,-17.01608 3.2114,0 3.1548,2.63101 -0.1119,5.20061 -3.3555,2.63945 -6.6662,9.29411 -6.2812,12.62538 0.288,2.49142 0.6341,2.66968 5.069,2.61055 4.0065,-0.0534 5.3108,-0.59734 8.2396,-3.43609 5.7555,-5.57836 5.7744,-14.14065 0.035,-15.58127 -2.7775,-0.69711 -3.5384,-4.09653 -1.1242,-5.02292 2.2105,-0.84824 7.4022,2.33949 9.0733,5.57101 2.9493,5.7034 1.5638,12.24031 -3.7944,17.90197 -5.2039,5.49858 -12.4368,7.51564 -18.3733,5.12378 z m 36.5727,-3.43618 c -3.4072,-1.92544 -5.2946,-6.57637 -4.4645,-11.00127 1.2727,-6.78387 10.6984,-12.86218 14.3237,-9.23685 2.2346,2.23465 0.8448,4.68128 -2.6592,4.68128 -3.5097,0 -6.0881,3.06937 -6.0881,7.24726 0,4.22007 3.6737,5.25097 10.3012,2.89065 13.4109,-4.77617 14.4974,-5.38098 15.1026,-8.40685 0.9259,-4.62935 8.3253,-19.68986 9.9872,-20.32759 3.1312,-1.20156 3.5905,0.62709 1.4801,5.89228 -5.4869,13.68876 -6.933,18.265 -6.6634,21.08652 0.2252,2.35671 -0.1514,3.14745 -1.6416,3.44677 -1.0636,0.21364 -2.4584,-0.32891 -3.0995,-1.20567 -1.0396,-1.42164 -1.923,-1.20557 -8.1652,1.99708 -7.9883,4.09855 -14.5151,5.13937 -18.4133,2.93639 z m 302.519,0.0616 c -0.6161,-1.6056 4.1677,-14.92072 8.1234,-22.61033 1.2755,-2.47949 6.7421,-11.03316 12.1481,-19.00816 8.9511,-13.20488 10.1189,-14.52799 13.0752,-14.81336 2.6266,-0.25354 3.2462,0.0472 3.2462,1.57569 0,1.03897 -1.1617,2.97998 -2.5816,4.31336 -5.3844,5.05646 -21.2398,30.3756 -25.6232,40.91716 -4.2567,10.23678 -6.9622,13.34149 -8.3881,9.62564 z m -250.0159,-2.03813 c -6.6231,-2.07282 -15.3912,-8.37416 -15.3912,-11.06119 0,-3.74496 12.1008,-13.81836 14.1444,-11.77468 1.3339,1.33384 -1.3188,5.53147 -5.2764,8.34952 -1.5774,1.12323 -2.868,2.44555 -2.868,2.93851 0,1.3488 16.0476,8.88651 17.628,8.28005 0.8808,-0.33802 1.372,0.18948 1.372,1.4735 0,3.33082 -2.9431,3.8804 -9.6088,1.79429 z m 163.8088,-0.78031 c -1.6793,-1.67934 -1.5438,-2.23801 1.3889,-5.72327 2.6285,-3.12381 7.4111,-4.2849 7.4111,-1.79924 0,2.3681 -5.0931,8.72251 -6.9911,8.72251 -0.3349,0 -1.1489,-0.54 -1.8089,-1.2 z m 192.05,-3.15991 c -2.6452,-1.31008 -2.9498,-4.14906 -0.5871,-5.47133 1.2134,-0.67906 2.0146,-3.59834 2.964,-10.79969 1.3812,-10.4765 1.8252,-28.36907 0.704,-28.36907 -0.3681,0 -3.0177,1.3254 -5.888,2.94534 -2.8704,1.61993 -5.4943,2.66993 -5.8309,2.33333 -1.1865,-1.1865 -0.5883,-3.2228 1.5251,-5.19174 2.3893,-2.22595 13.7166,-8.08693 15.6294,-8.08693 1.7413,0 1.607,18.18523 -0.2508,33.94107 -0.8068,6.84259 -1.3654,12.50094 -1.2413,12.57412 0.1241,0.0732 1.9131,0.90831 3.9756,1.85585 2.0625,0.94754 3.75,2.32043 3.75,3.05088 0,2.49637 -10.4299,3.35776 -14.75,1.21817 z m -37.9692,-1.46654 c -0.6113,-0.3778 -1.834,-4.49583 -2.7171,-9.15119 -0.8831,-4.65535 -2.0171,-8.87573 -2.5199,-9.3786 -1.5308,-1.53076 -8.581,4.68312 -17.7872,15.67718 -4.5267,5.40581 -6.3273,2.29948 -5.1129,-8.82094 1.1844,-10.84658 3.828,-26.25089 5.2175,-30.40243 1.106,-3.30447 3.9721,-6.09758 5.0998,-4.96991 0.3063,0.30631 -0.1678,4.3404 -1.0536,8.96463 -1.4917,7.78715 -4.2156,25.90771 -3.8945,25.90771 0.077,0 2.3561,-2.06718 5.0639,-4.59373 10.5543,-9.84792 14.0557,-10.95144 16.9555,-5.34373 1.1372,2.19909 5.4677,18.38866 5.4677,20.441 0,0.99081 -3.6997,2.30006 -4.7192,1.67001 z M 217.28489,646.32792 c -0.36667,-0.36666 -0.66667,-1.71666 -0.66667,-3 0,-1.64301 0.57424,-2.33333 1.94098,-2.33333 2.59766,0 3.38734,1.51801 2.07008,3.97933 -1.11474,2.08292 -2.18299,2.5154 -3.34439,1.354 z m 144.94253,-45.15669 c -0.2799,-0.45285 0.2117,-5.96535 1.0925,-12.25 2.3355,-16.66446 2.3085,-17.17236 -0.9733,-18.34098 -2.2677,-0.80751 -3.1101,-0.63232 -4.6337,0.96371 -1.8326,1.91963 -6.6965,15.56296 -7.2907,20.45063 -0.2106,1.73202 -0.9184,2.5 -2.304,2.5 -1.7291,0 -1.9635,-0.57695 -1.7308,-4.25903 0.148,-2.34246 1.395,-7.82292 2.771,-12.17878 3.7209,-11.77867 8.5763,-15.12949 16.8898,-11.65589 5.1648,2.15799 5.4631,3.4928 3.449,15.43149 -0.9893,5.86421 -2.0694,12.79971 -2.4002,15.41221 -0.4771,3.76872 -0.9897,4.75 -2.4811,4.75 -1.0338,0 -2.1086,-0.37051 -2.3885,-0.82336 z m 22.4825,-8.56107 c -1.8746,-0.67775 -4.7211,-2.78101 -6.3256,-4.67392 -2.498,-2.94697 -2.8503,-4.06894 -2.4516,-7.80589 0.5713,-5.35504 3.0233,-8.80213 8.7818,-12.34561 6.5931,-4.05712 12.7702,-5.44107 16.449,-3.68534 2.4715,1.17951 3.0042,2.08842 3.2576,5.55766 0.2518,3.44946 -0.2184,4.74118 -2.794,7.6746 -3.8721,4.41011 -10.4341,7.65273 -15.5746,7.6962 l -3.9343,0.0333 2.3214,1.9348 c 3.5373,2.94833 8.3245,3.44307 14.2552,1.47321 6.042,-2.00682 12.693,-7.58472 13.5368,-11.35277 1.7895,-7.99037 2.6388,-10.28133 4.0062,-10.80606 2.8127,-1.07932 3.5586,1.14094 1.9425,5.78187 -1.7279,4.96219 -2.0474,11.48445 -0.6061,12.37521 1.6856,1.04178 7.3925,-2.04717 12.8052,-6.93103 5.1516,-4.64839 8.2388,-5.42522 8.2388,-2.07315 0,2.45411 3.7629,5.53222 6.75,5.52161 1.5125,-0.005 5.1125,-1.10967 8,-2.45399 l 5.25,-2.44423 0.015,-6.79601 c 0.017,-7.41242 0.9412,-9.91042 3.3286,-8.99427 3.35,1.28551 3.4518,15.05658 0.1383,18.71789 -2.4834,2.74417 -11.7351,5.98038 -17.0966,5.98038 -3.665,0 -5.0924,-0.55297 -7.4099,-2.87046 l -2.8705,-2.87046 -2.3026,2.46562 c -6.3818,6.83355 -16.6604,9.38981 -19.2013,4.7753 -0.6057,-1.1 -1.2019,-2.17561 -1.3249,-2.39024 -0.1229,-0.21463 -2.0851,1.2916 -4.3604,3.34717 -7.055,6.37373 -14.6904,8.09945 -22.8243,5.15864 z m 2.0184,-12.16107 c 4.8958,-0.36514 10.482,-3.76505 12.455,-7.58041 1.8063,-3.49304 1.1954,-4.87409 -2.1562,-4.87409 -6.3533,0 -16.4089,7.20378 -16.4089,11.75518 0,1.4783 0.416,2.10575 1.1113,1.67606 0.6112,-0.37774 2.8606,-0.81727 4.9988,-0.97674 z m -236.63434,11.14956 c -3.07816,-1.34116 -5.47576,-5.12784 -5.47576,-8.64823 0,-2.2654 6.0371,-9.27396 10.01007,-11.62085 1.7218,-1.01709 2.56772,-2.23352 2.29048,-3.29369 -1.29916,-4.96799 6.96829,-4.88737 11.17242,0.10895 5.9028,7.01508 1.0847,20.05595 -8.78807,23.78614 -3.60675,1.36273 -5.47332,1.29537 -9.20914,-0.33232 z m 11.01056,-5.77196 c 5.10795,-4.01792 6.40927,-10.80326 2.86192,-14.9227 -1.2221,-1.41919 -2.06906,-0.9454 -7.85898,4.39629 -6.49562,5.99275 -7.84923,8.93434 -5.28926,11.49431 1.90331,1.90331 7.27925,1.39746 10.28632,-0.9679 z m -37.8411,4.68575 c -0.34432,-0.8973 0.44165,-2.17975 1.99183,-3.25 8.28147,-5.7176 13.36295,-11.79364 13.36295,-15.97841 0,-1.88351 -4.42278,-7.28944 -5.96374,-7.28944 -0.48555,0 -2.21233,1.11872 -3.83731,2.48604 -3.21892,2.70855 -5.19895,8.62177 -5.19895,15.52633 0,3.70759 -0.22853,4.09428 -2.25,3.80718 -2.24301,-0.31856 -2.25084,-0.3857 -2.51997,-21.59798 -0.27199,-21.4377 0.22386,-25.22157 3.30515,-25.22157 1.20875,0 1.46482,2.19783 1.46482,12.57258 l 0,12.57258 2.63486,-2.07258 c 3.88888,-3.059 9.34552,-2.7646 12.55586,0.67742 3.21092,3.44263 4.80928,6.50825 4.80928,9.2241 0,3.26637 -3.44246,9.16151 -7.66527,13.1266 -7.18048,6.74225 -11.47715,8.5765 -12.68951,5.41715 z m 346.96178,-0.0996 c -1.0434,-2.71904 -0.669,-8.38893 0.9756,-14.77387 2.231,-8.66139 4.2884,-12.64434 6.5313,-12.64434 2.3697,0 2.3557,0.64341 -0.1966,9.04625 -2.6863,8.84402 -2.2711,11.9135 0.8873,6.5604 1.2551,-2.12732 5.0751,-7.62822 8.4887,-12.22423 9.8565,-13.27033 12.796,-11.26109 13.4927,9.22266 0.363,10.67368 0.2119,12.18173 -1.2774,12.75325 -0.929,0.35649 -2.0985,0.39514 -2.5988,0.0859 -0.5004,-0.30925 -0.9167,-5.14821 -0.9251,-10.75325 -0.01,-5.60504 -0.3549,-10.72498 -0.7699,-11.37765 -0.4789,-0.7531 -3.4582,2.71791 -8.1543,9.5 -4.0699,5.87767 -8.5326,11.92417 -9.9172,13.43667 -2.8071,3.06634 -5.6153,3.56825 -6.5363,1.16821 z m -167.357,-0.0805 c -0.6875,-0.27741 -1.25,-1.59189 -1.25,-2.92105 0,-2.45246 -0.53698,-2.72198 -5,-2.50966 -3.00046,0.14274 -5.49465,-1.29764 -4.64041,-2.67982 0.3387,-0.54803 2.59831,-1.29371 5.02136,-1.65707 4.3358,-0.65019 4.41642,-0.73319 5.09274,-5.24323 0.37796,-2.52042 0.94719,-5.2601 1.26495,-6.08818 0.49436,-1.28828 -0.36859,-1.40424 -5.97895,-0.80342 -4.50596,0.48254 -6.77616,0.34708 -7.25833,-0.4331 -1.03351,-1.67224 -0.42449,-1.9584 7.1216,-3.3462 l 6.87704,-1.26477 2.11867,-8.44561 c 2.75809,-10.99453 3.99743,-13.94564 5.85658,-13.94564 1.86806,0 1.87922,0.53634 0.14983,7.20121 -0.7562,2.91433 -1.70668,7.27596 -2.11217,9.6925 l -0.73727,4.39371 5.34341,-0.70882 c 5.58388,-0.74073 6.84016,-1.6874 6.86564,-5.17361 0.0145,-1.97681 2.80858,-5.40499 4.40531,-5.40499 0.4029,0 0.4289,2.025 0.058,4.5 l -0.67481,4.5 7.55451,0 c 6.7671,0 9.9677,1.03822 8.3102,2.69569 -0.3094,0.30945 -4.067,0.93024 -8.3501,1.37955 -4.2831,0.44931 -7.90002,0.84119 -8.03752,0.87084 -0.49968,0.10777 -0.20664,6.61387 0.39992,8.87902 0.5773,2.15588 0.9766,2.27641 5.4864,1.65616 4.4827,-0.61653 4.8637,-0.5049 4.8637,1.4249 0,1.15161 -0.5625,2.09635 -1.25,2.09942 -0.6875,0.003 -2.8429,0.44808 -4.7896,0.98892 -3.0847,0.85694 -3.6948,1.5632 -4.74621,5.49442 -0.80706,3.01749 -1.74804,4.51108 -2.84204,4.51108 -1.33705,0 -1.53532,-0.74695 -1.0865,-4.09319 l 0.54902,-4.09319 -7.16735,0.70665 c -3.94204,0.38866 -7.55444,0.93781 -8.02755,1.22032 -0.47312,0.28252 -0.61391,2.03146 -0.31287,3.88654 0.54381,3.3511 -0.095,3.91383 -3.07692,2.71059 z m 11.41809,-12.44037 6.33191,-1.10266 0,-5.9164 c 0,-5.60558 -0.1182,-5.89215 -2.25,-5.45496 -1.2375,0.25379 -3.89405,0.72461 -5.90345,1.04625 -2.0094,0.32165 -3.8857,1.19005 -4.16955,1.92977 -1.0455,2.7245 -1.87947,10.60062 -1.12246,10.60062 0.4299,0 3.63099,-0.49619 7.11355,-1.10265 z m 601.84841,11.12929 c -0.3309,-0.53534 0.3933,-1.77284 1.6093,-2.75 9.9882,-8.02629 14.9089,-14.76814 14.8473,-20.34236 -0.026,-2.34347 -0.1367,-2.30371 -2.9709,1.06572 -1.6192,1.925 -4.8696,6.30179 -7.2231,9.7262 -3.9549,5.75441 -6.8264,7.62438 -8.2272,5.35772 -0.3114,-0.50385 -0.1102,-2.1155 0.4472,-3.58144 0.5573,-1.46595 1.4707,-8.14121 2.0297,-14.83392 1.3219,-15.82503 2.6141,-22.03544 5.0425,-24.23309 2.628,-2.37833 4.3841,-0.76344 3.0333,2.78942 -0.9648,2.53773 -3.1046,19.30669 -3.1046,24.33031 0,2.52705 0.1455,2.45758 3.5825,-1.71059 6.2175,-7.5401 10.4576,-9.78851 11.8105,-6.26282 1.0996,2.86541 0.6342,8.98163 -1.0644,13.99007 -2.1273,6.27259 -12.8021,17.42814 -16.677,17.42814 -1.3935,0 -2.8043,-0.43801 -3.1351,-0.97336 z m -739.45941,-2.81574 c -2.41747,-2.41746 -3.05709,-3.91681 -3.05709,-7.16613 0,-7.11917 4.55379,-14.89101 7.18402,-12.26078 0.799,0.799 0.65086,2.04417 -0.54238,4.55875 -1.92684,4.06051 -2.14625,9.75262 -0.44164,11.45723 2.70382,2.70382 10.9755,0.547 16.0937,-4.19639 1.39065,-1.28881 2.65983,-3.91152 3.03834,-6.27863 0.82954,-5.18763 3.09381,-7.3277 5.3577,-5.06381 1.45248,1.45248 1.44435,2.0327 -0.0944,6.73714 -1.84782,5.64936 -1.55205,7.82591 1.43018,10.52479 2.69683,2.4406 2.49239,4.4769 -0.44947,4.4769 -1.44786,0 -3.36061,-1.14119 -4.75,-2.83396 l -2.32606,-2.83395 -3.64145,2.395 c -2.22156,1.46114 -5.80609,2.61842 -9.19291,2.96797 -5.20925,0.53764 -5.73991,0.38451 -8.60855,-2.48413 z m 337.51411,-0.57901 c -4.1959,-3.9572 -4.6227,-7.71921 -1.6248,-14.32223 2.231,-4.91418 9.2731,-12.85472 13.2021,-14.88647 1.5137,-0.78277 5.0142,-1.42322 7.7788,-1.42322 4.1441,0 5.2916,0.40448 6.5361,2.30381 4.3485,6.63656 -6.5136,18.89638 -19.3716,21.86435 l -5.3299,1.23029 2.6748,2.30078 c 1.4712,1.26542 3.7747,2.30077 5.1191,2.30077 1.7775,0 2.4442,0.5455 2.4442,2 0,1.66063 -0.6667,2 -3.9288,2 -3.0872,0 -4.6938,-0.72148 -7.5,-3.36808 z m 13.3341,-14.76457 c 4.5354,-2.96913 8.0947,-7.26582 8.0947,-9.77164 0,-0.60264 -1.5737,-1.09571 -3.4971,-1.09571 -4.2328,0 -10.5698,5.25055 -13.669,11.32552 l -2.0212,3.96194 3.1251,-0.62502 c 1.7188,-0.34377 5.3042,-2.05156 7.9675,-3.79509 z m -303.66999,13.70727 -3.73531,-3.42537 0.0172,-9.32463 c 0.0143,-7.76671 0.399,-10.04525 2.30257,-13.63782 1.55308,-2.93109 2.82932,-4.20284 3.98284,-3.96879 2.01378,0.40859 1.96565,2.75109 -0.17015,8.28199 -0.84955,2.2 -1.56439,6.56241 -1.58853,9.69424 -0.0356,4.62317 0.4114,6.22199 2.37663,8.5 l 2.42052,2.80576 5.32948,-1.87863 c 2.93121,-1.03325 5.89198,-2.09389 6.57948,-2.35699 0.73593,-0.28163 1.25,0.3228 1.25,1.4697 0,2.33616 -8.41313,7.26592 -12.40001,7.26592 -1.60042,0 -4.0911,-1.34045 -6.36468,-3.42538 z m 411.30819,2.49582 c -0.2521,-0.40799 -0.1103,-2.05325 0.3151,-3.65612 0.5767,-2.17285 1.4578,-2.99496 3.4632,-3.23129 3.3779,-0.39809 4.5811,2.16179 2.2347,4.75452 -1.87,2.0663 -5.3018,3.28361 -6.013,2.13289 z m 191.8209,-0.52774 c -2.6461,-1.85339 -4.7716,-9.32381 -3.8956,-13.69161 1.2096,-6.03157 3.6714,-12.84842 5.1874,-14.36447 3.5879,-3.58785 6.6024,0.0979 3.4048,4.16298 -2.4127,3.06722 -4.4335,12.37807 -3.5548,16.37875 0.361,1.64355 1.4073,3.36857 2.3251,3.83335 5.0381,2.5514 14.1158,-5.05788 15.9402,-13.3617 2.3468,-10.68159 5.4967,-15.18214 8.7412,-12.48943 2.3463,1.94723 1.7475,7.2917 -1.511,13.48616 -3.2768,6.22939 -3.1698,7.50327 0.6306,7.50327 3.4081,0 2.7977,3.12476 -0.8617,4.41173 -2.1038,0.73985 -3.1279,0.57488 -4.578,-0.73743 -1.7596,-1.59245 -1.972,-1.5755 -3.6624,0.29237 -2.5134,2.77723 -9.5959,6.03333 -13.1234,6.03333 -1.629,0 -3.898,-0.65579 -5.0424,-1.4573 z m -725.193,-0.675 c -1.23971,-0.4586 -3.064087,-2.64319 -4.054187,-4.85465 l -1.80019,-4.02084 -1.90615,2.10628 c -4.75323,5.25226 -11.39411,6.38291 -14.01311,2.38581 -4.32491,-6.60064 3.76075,-22.47807 13.96191,-27.41637 10.223697,-4.94921 13.031837,-0.98637 8.526417,12.03243 -3.248777,9.3876 -1.53786,15.89964 4.17734,15.89964 3.2173,0 4.5005,1.31518 2.67556,2.74226 -1.98897,1.55535 -5.13903,2.02383 -7.56759,1.12544 z m -13.537227,-7.7863 c 4.68584,-2.85728 7.8584,-7.88022 9.16651,-14.51281 0.64341,-3.26228 0.97513,-6.12611 0.73717,-6.36407 -0.94655,-0.94655 -7.41048,4.00575 -9.84294,7.54112 -3.22923,4.69341 -4.69491,8.53935 -4.69491,12.31946 0,3.45163 0.47094,3.55491 4.63417,1.0163 z m 459.562227,7.6553 c -2.0033,-2.41395 -3.2967,-10.28279 -2.9974,-18.2367 0.2721,-7.23299 0.4928,-8 2.301,-8 1.8179,0 2.0572,0.87612 2.6284,9.62144 0.3456,5.29179 1.0698,10.41028 1.6094,11.37443 1.7118,3.0589 8.0681,-3.86856 13.233,-14.42215 5.7964,-11.84396 7.6477,-11.98254 7.257,-0.54323 -0.3204,9.38079 0.4025,11.02434 4.4149,10.03729 3.5551,-0.87456 13.1739,-10.8334 13.922,-14.41422 0.9903,-4.73971 1.9634,-5.65356 6.0202,-5.65356 3.2569,0 4.0103,0.40755 4.7755,2.58336 1.3484,3.83435 -1.0817,8.28281 -4.8711,8.91664 -1.9449,0.3253 -4.7253,2.36485 -7.9578,5.83732 -5.5759,5.98971 -9.1056,8.16268 -13.2593,8.16268 -3.3055,0 -7.2722,-2.48553 -7.2722,-4.5567 0,-0.79382 -0.2089,-1.4433 -0.4642,-1.4433 -0.2554,0 -3.0899,2.7 -6.2991,6 -4.6391,4.77043 -6.4657,6 -8.9133,6 -1.6932,0 -3.5503,-0.56848 -4.127,-1.2633 z m 230.6902,-0.9867 c -0.062,-0.1375 -0.2261,-3.85 -0.3638,-8.25 -0.311,-9.93403 1.4357,-14.47555 8.5932,-22.34354 2.8301,-3.11105 5.4277,-5.77009 5.7723,-5.90897 1.3451,-0.54193 6.2262,5.01168 5.6727,6.45415 -0.8498,2.21458 8.5785,21.80043 9.6085,19.96004 1.6542,-2.95599 5.7444,-20.01694 6.4043,-26.71359 0.7448,-7.55871 2.3535,-10.08326 5.0167,-7.87295 1.8824,1.56218 1.4109,7.57145 -1.6157,20.5931 -3.8123,16.40261 -7.2833,24.33176 -10.6513,24.33176 -0.7698,0 -4.3047,-6.11198 -8.095,-13.9965 -3.7007,-7.69807 -6.9535,-13.98415 -7.2285,-13.96907 -0.275,0.0151 -2.0639,2.1021 -3.9753,4.63783 -3.0872,4.09559 -3.5108,5.40423 -3.7931,11.71908 -0.4434,9.91588 -0.9174,11.60866 -3.2506,11.60866 -1.0896,0 -2.032,-0.1125 -2.0944,-0.25 z m 124.8991,-9.85391 c -0.1852,-6.63284 -0.6929,-10.36866 -1.443,-10.61732 -0.6366,-0.21102 -4.0116,2.27301 -7.5,5.52005 -8.1798,7.61366 -10.1977,8.70336 -12.2732,6.62777 -0.9012,-0.90115 -1.5695,-3.26743 -1.5695,-5.55704 0,-2.31228 -0.4062,-3.73657 -0.9667,-3.39011 -0.5317,0.32862 -3.3031,3.97712 -6.1586,8.10779 -4.0155,5.80856 -5.6658,7.44261 -7.2833,7.21154 -1.6545,-0.23636 -2.0432,-0.92548 -1.8605,-3.29877 0.127,-1.65 0.5258,-7.1625 0.8863,-12.25 0.5631,-7.94812 0.9053,-9.25 2.4312,-9.25 2.1197,0 3.4753,6.11585 2.4887,11.22827 -0.7162,3.71153 -0.4857,3.50628 5.215,-4.64344 1.7886,-2.55706 3.9912,-4.93283 4.8946,-5.27949 2.3137,-0.88786 4.3533,2.31058 4.3533,6.82677 0,2.06242 0.3989,3.99637 0.8864,4.29767 0.4875,0.3013 3.6112,-1.88345 6.9414,-4.85501 7.1727,-6.40008 9.4028,-7.30891 12.6744,-5.16527 2.9198,1.91309 3.6406,5.45581 3.2737,16.0905 -0.2551,7.3975 -0.4427,8.02371 -2.4902,8.31487 -2.1466,0.30525 -2.223,0.002 -2.5,-9.91878 z m -297.4441,6.55162 c -0.4569,-1.19043 0.4964,-2.65153 3.2239,-4.94139 l 3.8725,-3.2512 -3.172,-0.6967 c -4.1836,-0.91887 -8.266,-4.21345 -8.266,-6.67084 0,-5.75046 10.5449,-17.88758 15.541,-17.88758 2.3148,0 2.5529,0.34048 2.2724,3.25 -0.2464,2.55524 -0.7703,3.25 -2.4508,3.25 -2.7647,0 -6.0802,3.02976 -8.4966,7.76426 l -1.9212,3.76426 2.5927,0.98574 c 1.426,0.54216 3.268,0.98574 4.0933,0.98574 2.6945,0 5.3692,2.02771 5.3692,4.07037 0,5.62677 -10.9772,13.75864 -12.6584,9.37734 z m 347.68,-1.44262 c -2.2173,-0.52343 -4.247,-3.68029 -3.3577,-5.22234 0.2275,-0.39448 1.6337,-0.47271 3.1249,-0.17384 2.7028,0.54173 2.7103,0.52695 2.4262,-4.78275 -0.6027,-11.26157 9.6108,-21.6889 18.4022,-18.78748 7.0009,2.31051 9.3881,10.72723 4.9129,17.32177 -1.3584,2.00175 -2.2078,3.63955 -1.8876,3.63955 0.3202,0 5.0218,-2.08827 10.448,-4.64059 11.1157,-5.22852 12.2737,-5.08198 13.41918,1.69816 0.3664,2.16834 0.8235,3.94243 1.0159,3.94243 0.1925,0 4.691,-2.94325 9.9967,-6.54055 9.7663,-6.62154 11.9025,-7.19837 15.1915,-4.10213 1.5421,1.45166 0.1287,3.9071 -2.3719,4.12075 -2.5892,0.22121 -6.7409,2.59114 -14.8144,8.45646 -8.2476,5.99177 -10.86808,6.39578 -12.42968,1.91625 -0.6038,-1.73208 -1.0978,-3.98208 -1.0978,-5 0,-2.51316 -0.46,-2.42225 -10.666,2.10792 -10.0632,4.46679 -26.2071,7.48767 -32.3124,6.04639 z m 12.2781,-7.66002 c 8.886,-4.59505 12.1597,-9.46873 9.2961,-13.83917 -2.1125,-3.22408 -6.4806,-3.34422 -9.3045,-0.2559 -4.2917,4.69356 -6.1561,10.33276 -4.6843,14.16821 0.7497,1.95383 0.7736,1.95346 4.6927,-0.0731 z m -288.8569,-1.76324 c -0.9131,-0.66771 -1.4938,-2.08428 -1.2904,-3.14793 0.3306,-1.72906 1.5867,-2.00601 11.8587,-2.61469 6.3189,-0.37444 20.39,-1.83694 31.2691,-3.25 22.9779,-2.98457 25.3088,-3.08275 26.0703,-1.09815 0.8419,2.19381 -2.0661,4.5262 -5.6719,4.54935 -1.7482,0.0112 -9.9286,0.91655 -18.1786,2.01182 -8.25,1.09527 -19.5,2.441 -25,2.99052 -5.5,0.54951 -11.6643,1.17327 -13.6985,1.38612 -2.0341,0.21284 -4.4455,-0.15932 -5.3587,-0.82704 z m -447.88054,-1.48109 c -1.3961,-2.25894 1.22914,-4.03934 8.18774,-5.55279 2.57734,-0.56056 3.25,-0.38473 3.25,0.84954 0,3.08918 -9.9154,7.16645 -11.43774,4.70325 z m 280.10194,-34.32157 c -2.3567,-1.76875 -1.9443,-7.11412 0.5858,-7.59394 1.2107,-0.2296 1.75,0.30709 1.75,1.74145 0,5.50696 12.9544,-0.89847 22.7377,-11.24288 6,-6.34407 7.7503,-11.38891 6.8103,-19.62831 -0.9291,-8.1435 -2.5903,-16.05662 -3.3689,-16.04779 -0.3735,0.004 -1.6842,1.76806 -2.9127,3.9196 -2.3734,4.15682 -8.9305,9.89911 -13.5635,11.87798 -7.0292,3.00245 -9.7029,0.14261 -9.7029,-10.37856 0,-8.39785 1.3995,-13.10137 4.1589,-13.97717 2.7986,-0.88823 3.1041,-0.18288 1.3652,3.15167 -1.7014,3.26249 -2.1276,16.90775 -0.5584,17.87758 1.5772,0.97474 8.4822,-3.08596 11.9354,-7.01893 1.7665,-2.01188 4.2866,-6.08839 5.6003,-9.05892 1.4599,-3.30121 3.0129,-5.40095 3.9946,-5.40095 5.1551,0 9.8341,30.48744 6.0639,39.51095 -3.521,8.427 -20.7362,22.32331 -28.7158,23.17977 -2.7902,0.29947 -5.0008,-0.0266 -6.1799,-0.91155 z m -92.6109,-10.21488 c -1.6095,-1.93933 0.2686,-4.76172 2.5787,-3.87525 2.0258,0.77738 11.0484,-8.71228 13.4539,-14.15043 2.4451,-5.52743 4.6539,-22.5656 3.3145,-25.5672 -0.9448,-2.11738 -1.0844,-2.04731 -3.652,1.83261 -3.0947,4.67639 -8.0989,8.75347 -11.9117,9.70478 -8.4954,2.11964 -9.2628,-14.84125 -0.9601,-21.22083 4.9206,-3.78089 12.1234,-3.32326 12.1234,0.77027 0,1.86553 0.1469,1.8916 2.3874,0.42361 2.1686,-1.42094 2.5327,-1.41893 3.9735,0.0219 3.0953,3.09526 3.9619,9.27898 2.8023,19.99621 -1.3186,12.18822 -2.5363,15.86177 -7.5522,22.78445 -6.0045,8.28699 -13.7697,12.63908 -16.5577,9.27984 z m 7.0574,-39.64313 c 4.2383,-3.01793 6.0828,-6.93609 4.3687,-9.28027 -2.7388,-3.74543 -8.3083,0.66472 -9.1958,7.28149 -0.6349,4.73311 0.3907,5.15778 4.8271,1.99878 z m -284.8607,31.41656 c -0.6875,-0.27741 -1.25,-1.2916 -1.25,-2.25375 0,-3.1476 15.31889,-25.80739 23.45632,-34.69672 l 7.95632,-8.69148 -3.75312,-3.24431 c -2.06421,-1.78438 -5.64259,-4.52842 -7.95195,-6.09789 -16.82874,-11.43699 -20.40702,-15.10371 -16.28354,-16.68604 1.48756,-0.57084 20.50364,12.19806 28.81943,19.35164 7.396,6.36235 7.2654,7.27247 -2.4541,17.102 -7.2073,7.28889 -15.93063,19.2274 -23.84149,32.62883 -1.92647,3.26355 -2.39009,3.51893 -4.69787,2.58772 z M 35.118223,507.8382 c -9.30639,-2.99012 -14.45845,-5.64122 -20.98591,-10.79873 -3.30775,-2.61353 -8.6015899,-6.45652 -11.7640899,-8.53996 -3.16249997,-2.08344 -5.75,-4.52724 -5.75,-5.43066 0,-0.90342 2.52344003,-4.10221 5.60764,-7.10842 3.0842,-3.00621 9.7821599,-10.64084 14.8843599,-16.96584 11.87282,-14.71827 20.49077,-23 23.93376,-23 1.41583,0 2.57424,0.52005 2.57424,1.15566 0,0.63561 -4.17445,5.47311 -9.27656,10.75 -5.1021,5.27689 -11.47004,12.51934 -14.15097,16.09434 -2.68093,3.575 -7.54563,9.2516 -10.8104399,12.61468 l -5.93601,6.11467 3.45438,2.13493 c 1.89991,1.17421 6.9563399,4.84116 11.2364999,8.14878 6.05855,4.68192 9.5762,6.56619 15.88261,8.50772 9.75694,3.00382 10.90259,3.67202 10.4374,6.08756 -0.47912,2.48787 -2.19168,2.53102 -9.33691,0.23527 z m 316.768997,-0.59361 c -0.8583,-3.06936 -0.6941,-23.94952 0.2282,-29 0.4469,-2.44735 1.1124,-3.25 2.6949,-3.25 2.0084,0 2.0728,0.33841 1.4546,7.65088 -0.3557,4.20798 -0.6467,12.08298 -0.6467,17.5 0,8.03179 -0.2733,9.84912 -1.481,9.84912 -0.8145,0 -1.827,-1.2375 -2.25,-2.75 z m -144.53486,0.35254 c -11.59079,-2.0655 -12.2342,-4.91646 -3.64007,-16.12924 2.79511,-3.6468 4.9299,-6.76293 4.74398,-6.92474 -0.18593,-0.16181 -1.91305,-1.07907 -3.83805,-2.03836 -6.46026,-3.21933 -11,-8.80336 -11,-13.53036 0,-2.32853 4.43414,-9.22216 8.15741,-12.68211 3.89351,-3.61814 9.24393,-5.29773 16.87621,-5.29773 10.19769,0 10.96638,0.6171 10.96638,8.80369 0,7.04427 -0.36649,7.84111 -8.72748,18.97546 l -2.22748,2.96634 4.44836,1.69884 c 6.66793,2.54651 10.5066,6.56424 10.5066,10.99672 0,4.89093 -3.35371,11.17338 -6.96015,13.03834 -3.42975,1.7736 -9.81548,1.81433 -19.30571,0.12315 z m 17.55422,-5.61473 c 3.3758,-2.6554 4.46255,-7.50058 2.23454,-9.9625 -2.19969,-2.43064 -11.54337,-6.41207 -12.56695,-5.3549 -2.26745,2.34185 -10.95595,13.68183 -10.95595,14.29939 0,0.67844 10.51334,2.55708 16.11514,2.87962 1.43833,0.0828 3.76628,-0.7549 5.17322,-1.86161 z m -7.5718,-27.23781 c 5.55914,-7.37594 6.28344,-9.01097 6.28344,-14.18426 l 0,-4.56574 -5.03212,0 c -2.76766,0 -6.48016,0.60857 -8.25,1.35238 -3.35316,1.40923 -11.71788,9.77611 -11.71788,11.72091 0,3.60711 9.00906,10.81493 13.62985,10.90475 0.62142,0.0121 2.91044,-2.34054 5.08671,-5.22804 z m 235.83924,32.34024 c -1.1274,-1.82418 0.6725,-3.89576 5.7524,-6.62049 6.3173,-3.38848 10.6922,-6.37081 10.6908,-7.28784 -6e-4,-0.37505 -2.2286,-1.93303 -4.9512,-3.46218 -6.1253,-3.44022 -9.3156,-7.26355 -8.4504,-10.12686 1.4155,-4.68388 9.5997,-10.59287 14.6716,-10.59287 3.4202,0 5.9843,2.17629 5.1441,4.36594 -0.5041,1.31368 -1.4095,1.67674 -3.2865,1.31793 -2.9443,-0.56283 -6.7308,1.11634 -9.5553,4.23738 -2.2848,2.52467 -2.0183,2.85272 5.9287,7.29809 4.0013,2.23822 6.1034,4.06994 6.3104,5.49871 0.4692,3.23806 -5.8351,9.52725 -13.1693,13.13788 -6.7858,3.34065 -8.1884,3.68557 -9.0853,2.23431 z M 97.018783,505.59605 c -0.87926,-2.2913 0.93454,-4.08568 5.518017,-5.45892 3.83762,-1.14978 3.9641,-1.33337 4.76188,-6.91185 1.02296,-7.1531 1.00832,-31.73611 -0.0212,-35.6168 l -0.76568,-2.88611 -2.86552,2.74535 c -2.76137,2.64554 -5.028057,2.73022 -5.028057,0.18783 0,-1.91397 10.994907,-13.6003 12.316957,-13.09152 0.78129,0.30068 1.30948,4.2715 1.55537,11.69293 0.6708,20.24574 0.63861,26.13977 -0.18288,33.48763 l -0.81055,7.25 3.86055,0 c 4.70349,0 6.58423,1.52668 5.15973,4.18838 -0.79498,1.48544 -1.70087,1.75185 -4.29934,1.26437 -2.37667,-0.44586 -3.76115,-0.14858 -4.97882,1.06908 -0.92767,0.92768 -3.13441,1.82896 -4.90385,2.00284 -1.76944,0.17388 -4.44907,0.62835 -5.95473,1.00993 -2.046107,0.51856 -2.895247,0.28287 -3.361877,-0.93314 z m -19.25202,-0.50935 c -1.54445,-0.95488 -4.10214,-10.87683 -4.14823,-16.09211 -0.06,-6.78802 -1.31668,-6.46454 -7.90489,2.03483 -3.44334,4.44222 -6.78595,7.90271 -7.42802,7.68998 -3.43432,-1.13789 -2.69533,-32.76959 1.09159,-46.72481 1.442,-5.31391 2.17234,-6.55831 4.00244,-6.81955 2.65768,-0.37938 2.76816,0.62729 0.81084,7.38805 -2.71002,9.36058 -4.78885,35.4503 -2.82227,35.41991 0.4125,-0.006 2.97118,-3.14034 5.68597,-6.96437 2.71478,-3.82403 5.51425,-7.1747 6.22106,-7.44592 2.56083,-0.98269 4.07618,2.32399 4.7841,10.43948 0.39073,4.47922 1.36671,10.6637 2.16884,13.7433 1.18745,4.55892 1.21982,5.8378 0.17423,6.88302 -0.77202,0.77175 -1.82321,0.9505 -2.63566,0.44819 z m 205.220377,-1.57309 c -0.34767,-0.90602 0.02,-10.50594 0.8171,-21.33316 0.79707,-10.82722 1.27757,-19.90208 1.06779,-20.16634 -0.20979,-0.26426 -3.84022,0.71778 -8.06762,2.18233 -8.18557,2.83581 -11.03234,2.39549 -6.67452,-1.03237 4.30837,-3.38897 12.79029,-6.05437 25.79158,-8.10488 20.79322,-3.27943 23.32995,-3.46286 23.99302,-1.73491 0.98649,2.57074 -1.28663,3.33553 -15.49865,5.21455 -13.06544,1.72741 -13.74797,1.93119 -14.68314,4.38369 -0.53942,1.41464 -1.27584,9.80224 -1.6365,18.6391 -0.36065,8.83687 -0.96481,17.57823 -1.34256,19.42524 -0.76088,3.72025 -2.78694,5.07943 -3.7665,2.52675 z m 56.92858,-0.76902 c -1.1666,-1.5393 -2.8964,-7.74964 -3.8299,-13.75 -0.3851,-2.475 -1.2428,-5.55052 -1.9061,-6.8345 l -1.2059,-2.3345 -3.2089,3.65465 c -1.7648,2.01006 -4.56712,6.0615 -6.22732,9.0032 -3.84469,6.81242 -5.24348,8.03048 -6.91253,6.0194 -1.87609,-2.26054 -0.87081,-28.74441 1.2814,-33.75825 1.50381,-3.50333 2.66272,-4.4657 3.89444,-3.23398 0.28381,0.28382 -0.0912,2.85688 -0.83333,5.71793 -0.74215,2.86105 -1.32576,9.04134 -1.29691,13.73398 0.0512,8.32714 0.0932,8.47323 1.75,6.08249 2.92161,-4.21591 8.36295,-10.51559 9.79715,-11.34269 1.9064,-1.09936 5.1104,0.82636 6.7748,4.07191 0.7673,1.4962 2.1157,6.22576 2.9965,10.51014 0.8807,4.28438 2.0365,8.60294 2.5684,9.5968 1.5512,2.89854 -1.686,5.44392 -3.6418,2.86342 z m 217.0988,-4.15668 c -4.015,-1.77709 -7.3963,-6.57498 -7.3963,-10.49481 0,-5.77161 12.603,-16.09851 19.6467,-16.09851 1.2396,0 2.7023,-0.7875 3.2502,-1.75 0.7906,-1.38879 1.3685,-1.52211 2.7997,-0.64595 1.7355,1.0625 2.311,3.04535 4.0251,13.86874 0.5945,3.7534 1.358,5.25717 3.1139,6.13257 3.7495,1.86933 7.7351,-0.34866 15.2443,-8.48336 7.3533,-7.96593 9.2498,-8.50837 10.2937,-2.94416 0.3444,1.83564 1.7512,5.45095 3.1263,8.03404 2.9917,5.62006 3.2933,9.08131 0.7501,8.61144 -1.4297,-0.26415 -3.3817,-3.38597 -7.9093,-12.64933 -0.088,-0.1793 -2.0924,1.77112 -4.4551,4.33429 -8.1675,8.86067 -16.5754,10.95574 -22.0394,5.49172 -1.65,-1.65 -3.1358,-3 -3.3018,-3 -0.166,0 -0.8593,1.34602 -1.5407,2.99116 -2.2938,5.53753 -10.3313,8.93752 -15.6074,6.60216 z m 8.2387,-5.5124 c 3.4082,-2.07824 5.8931,-7.56885 6.6969,-14.79726 l 0.4688,-4.21634 -4.9363,2.50138 c -6.767,3.42914 -12.8644,9.10496 -12.8644,11.97508 0,2.26781 4.1482,6.45998 6.3849,6.45248 0.6133,-0.002 2.5258,-0.86396 4.2501,-1.91534 z m 111.6319,4.66908 c -1.1449,-1.2375 -3.0726,-4.16987 -4.2838,-6.51638 l -2.2021,-4.26639 -3.8562,4.38085 c -4.6256,5.25497 -8.6239,7.11854 -13.3648,6.22915 -4.6886,-0.87958 -7.56,-4.70166 -7.56,-10.06287 0,-11.50726 6.4596,-18.51436 17.0678,-18.51436 l 5.1672,0 -0.3675,-10.25 c -0.3072,-8.56796 -0.1236,-10.25 1.119,-10.25 2.8899,0 4.187,5.4218 4.8824,20.407 0.6052,13.04468 0.9772,15.31887 3.2171,19.67145 1.393,2.70685 3.1667,4.92155 3.9415,4.92155 1.8609,0 5.592,-6.64036 7.5855,-13.5 1.68,-5.78073 3.5736,-8.62072 5.1136,-7.669 0.8773,0.54226 0.6752,24.60053 -0.2142,25.48994 -1.0291,1.02915 -3.5124,-0.94306 -3.5124,-2.78956 0,-2.7852 -0.5802,-2.57908 -4.1341,1.46862 -3.5724,4.0687 -5.7044,4.37862 -8.599,1.25 z m -15.3107,-8.5 c 4.6487,-4.68515 8.0981,-12.96972 5.9627,-14.32127 -2.216,-1.40264 -7.7157,-1.08519 -11.0473,0.63769 -5.214,2.69623 -8.0756,14.0505 -4.1216,16.35348 3.12,1.81722 5.414,1.1519 9.2062,-2.6699 z m 197.3238,7.03724 c -0.3544,-0.92347 -0.1172,-6.95065 0.527,-13.39373 1.4653,-14.65571 8.1218,-35.89351 11.2501,-35.89351 2.3794,0 2.0069,3.91577 -1.4125,14.84792 -2.0838,6.66226 -4.0861,15.72031 -4.6756,21.15208 -0.5671,5.225 -1.2382,10.46286 -1.4914,11.6397 -0.5982,2.78051 -3.3486,3.86003 -4.1976,1.64754 z m -486.6302,-0.0449 c -1.1549,-1.86871 -1.8177,-8.62919 -1.2254,-12.49905 0.7937,-5.18556 3.6791,-9.30134 5.9183,-8.44206 1.4399,0.55255 1.4526,1.02733 0.128,4.78182 -2.2768,6.4532 -1.7355,6.91139 1.5002,1.2698 3.9479,-6.88342 7.2456,-9.35289 12.4896,-9.35289 5.7398,0 8.0464,2.68666 9.8757,11.50291 1.4768,7.11737 0.9957,9.49709 -1.9201,9.49709 -1.2598,0 -1.8865,-1.78709 -4.0324,-11.5 -1.8611,-8.42398 -9.1466,-4.39268 -15.3918,8.51679 -2.2699,4.69207 -3.9517,6.98321 -5.1261,6.98321 -0.9613,0 -1.9585,-0.34093 -2.216,-0.75762 z m 339.6528,-1.44921 c -4.9586,-2.37363 -6.9184,-12.82229 -3.4047,-18.15187 3.8082,-5.7762 12.1544,-8.69308 15.0142,-5.24725 1.5858,1.91079 -1.3796,4.90973 -4.0247,4.07021 -2.6271,-0.83381 -7.8874,4.51795 -7.8874,8.02456 0,3.48729 1.6877,6.51118 3.634,6.51118 2.5264,0 7.4129,-5.97622 11.0153,-13.47179 2.9034,-6.04108 3.3507,-7.99527 3.3507,-14.63917 0,-8.40468 2.0507,-12.85098 5.3442,-11.58714 1.9556,0.7504 2.1738,5.52863 0.6332,13.8625 -0.831,4.49518 -0.6524,7.44147 0.9532,15.7239 1.9655,10.13922 1.8989,13.11174 -0.2935,13.11174 -1.4667,0 -3.2808,-4.28694 -4.1537,-9.81579 l -0.6814,-4.31579 -4.151,6.25637 c -5.8096,8.75614 -10.7512,11.86902 -15.3485,9.66838 z m 35.2766,-2.54363 c -0.7066,-2.22619 0.8458,-11.89531 2.4885,-15.49954 1.3089,-2.8719 3.4657,-3.64506 4.1845,-1.5 0.2303,0.6875 0.026,3.00064 -0.4533,5.14031 -0.4796,2.13967 -0.7272,4.32468 -0.5503,4.85557 0.177,0.5309 2.8954,-1.96614 6.041,-5.54896 9.0995,-10.36451 17.5517,-15.00289 20.6143,-11.31267 0.6319,0.76134 1.7768,4.92384 2.5442,9.25 0.7674,4.32616 1.6904,8.61874 2.0511,9.53906 0.4315,1.10085 -0.019,2.03447 -1.3166,2.72898 -2.8118,1.50484 -3.8333,-0.15426 -5.1848,-8.42094 -1.6214,-9.91764 -1.5554,-9.78723 -4.233,-8.36234 -1.2456,0.66289 -6.5625,5.6323 -11.8153,11.04312 -9.5786,9.86684 -13.1649,11.88518 -14.3703,8.08741 z m 126.2971,-8.35568 c -8.7095,-9.30193 -8.7344,-10.83606 -0.2036,-12.55709 3.3949,-0.68491 7.7726,-1.91381 9.7281,-2.73088 2.3766,-0.99299 3.7688,-1.1405 4.1987,-0.44487 1.0602,1.71539 -3.0203,4.93178 -8.5392,6.73092 l -5.1812,1.68907 4.1454,4.7095 c 2.28,2.59022 4.8947,4.70781 5.8105,4.70575 3.6214,-0.008 8.0515,-3.98933 11.3226,-10.17536 2.7414,-5.18432 3.7919,-6.3209 5.8424,-6.3209 2.167,0 2.5413,0.49943 2.8104,3.75 0.1707,2.0625 0.5633,3.75 0.8725,3.75 0.3092,0 3.4468,-2.69836 6.9724,-5.99635 7.2131,-6.74751 12.8343,-10.00361 17.2697,-10.00361 3.8525,0 4.8583,1.90396 6.075,11.5 0.5266,4.15365 1.4867,8.54089 2.1335,9.74941 1.1329,2.11697 1.4098,1.94231 7.5722,-4.77605 3.5179,-3.83535 7.053,-8.19752 7.8556,-9.69372 0.8027,-1.49619 2.3614,-3.2031 3.4639,-3.79312 3.0532,-1.63404 3.5069,1.05019 1.006,5.95234 -3.3317,6.53073 -1.0182,14.14395 3.8305,12.60505 2.4214,-0.76852 15.8162,-14.74297 17.3427,-18.09308 1.5216,-3.33959 3.3528,-3.08356 8.0047,1.11914 7.8197,7.06457 18.00008,9.60122 28.62258,7.13189 3.4825,-0.80953 7.0825,-1.32657 8,-1.14897 0.9176,0.1776 3.7992,0.56634 6.4036,0.86386 4.4723,0.51091 4.8207,0.37556 6.2756,-2.4379 0.8677,-1.67787 2.3491,-2.97885 3.3919,-2.97885 1.6024,0 1.7834,-0.60447 1.3452,-4.49193 -0.5343,-4.74087 0.8804,-7.77976 3.2064,-6.8872 1.6985,0.65177 2.5519,10.75343 1.2986,15.37178 -1.3132,4.83926 -3.5126,7.00185 -7.158,7.03827 -2.4791,0.0248 -3.765,0.92031 -6.4618,4.5 -1.8517,2.45799 -3.7642,4.46908 -4.25,4.46908 -1.3363,0 -1.0877,-0.9331 1.2612,-4.73369 3.5013,-5.6651 2.8588,-5.78459 -19.3338,-3.59582 -7.0306,0.6934 -17.52658,-2.23318 -23.21168,-6.47207 l -3.872,-2.88704 -8.6135,8.79099 c -5.1536,5.25987 -9.7476,9.06422 -11.4371,9.47123 -5.2419,1.26275 -8.5073,-1.66528 -11.133,-9.98284 -0.4985,-1.57911 -1.3672,-0.85858 -5.0242,4.16711 -5.3833,7.39829 -7.9968,8.55063 -11.1304,4.90759 -2.0437,-2.37588 -3.3928,-7.02784 -4.9056,-16.91546 -0.3249,-2.12393 -1.1394,-3.75 -1.8784,-3.75 -1.9222,0 -9.2499,5.4685 -16.2681,12.14056 -3.3899,3.22269 -6.8631,5.85944 -7.7181,5.85944 -0.855,0 -2.1731,-1.18036 -2.929,-2.62303 l -1.3743,-2.62302 -2.2281,3.60513 c -2.9326,4.74504 -6.8325,7.41667 -12.0428,8.24982 l -4.2451,0.67883 -6.923,-7.39387 z m -65.1776,1.14643 c -1.9671,-1.72714 -4.1042,-4.73893 -4.749,-6.69285 -2.14,-6.48414 0.949,-16.09102 4.7098,-14.64785 1.1141,0.4275 1.312,1.5097 0.8145,4.45405 l -0.6571,3.88933 5.2455,-2.06756 c 3.5098,-1.38346 5.5775,-1.73547 6.2491,-1.06387 1.4458,1.44574 -0.585,3.52669 -5.8624,6.00739 -4.9721,2.33714 -5.2855,3.01412 -2.5444,5.49479 1.6493,1.49267 2.4402,1.56324 5.9004,0.52652 4.1823,-1.25305 13.1949,-0.52766 13.1949,1.06202 0,1.37194 -1.6868,2.1094 -8.3351,3.64406 -3.3907,0.78268 -7.1155,1.67308 -8.2773,1.97864 -1.4649,0.38529 -3.2086,-0.40693 -5.6889,-2.58467 z m -448.5182,-19.28003 c 0.3481,-2.4399 3.4009,-3.57879 5.0833,-1.89638 1.4142,1.41414 -0.8601,4.13616 -3.4558,4.13616 -1.445,0 -1.8647,-0.57754 -1.6275,-2.23978 z m 337.1811,-0.26022 c -0.8776,-2.28699 0.3519,-4.5 2.5,-4.5 2.3653,0 3.5796,2.76343 2.0332,4.62675 -1.5045,1.81283 -3.8137,1.74826 -4.5332,-0.12675 z m 95.4234,-12.25 c -0.9127,-0.9625 -2.808,-2.65 -4.2119,-3.75 -2.7717,-2.17185 -3.2602,-4.4129 -1.3731,-6.3 2.0168,-2.01681 3.8519,-1.34947 4.9498,1.8 0.5752,1.65 1.3796,3 1.7875,3 0.7969,0 3.0627,4.47361 3.0627,6.04705 0,1.54851 -2.4257,1.0898 -4.215,-0.79705 z m -620.76288,-31.5 c 0.0122,-0.6875 3.374,-5.075 7.47074,-9.75 10.15663,-11.59024 13.89019,-18.6617 13.26857,-25.13102 -0.25964,-2.70212 -0.75008,-5.19097 -1.08988,-5.53076 -0.33979,-0.33979 -3.56487,2.13903 -7.16684,5.5085 -3.60198,3.36947 -7.6097,6.39251 -8.90605,6.71787 -7.21492,1.81083 -11.68452,-2.10163 -12.30722,-10.77312 -0.71017,-9.88954 2.86905,-10.49117 4.70856,-0.79147 0.56635,2.98635 1.44009,5.84009 1.94165,6.34165 1.9308,1.9308 6.76807,-0.76538 13.75091,-7.66444 3.99541,-3.94746 7.83657,-7.17721 8.53591,-7.17721 2.05018,0 5.14445,7.53953 5.58456,13.60739 0.30162,4.15841 -0.12391,6.80698 -1.64674,10.2496 -2.4873,5.62295 -11.91311,18.33552 -16.73232,22.56684 -3.56652,3.13145 -7.45189,4.08875 -7.41185,1.82617 z M 36.118223,404.6571 c -3.85,-1.86449 -10.78679,-5.70131 -15.4151,-8.52625 -4.6283,-2.82494 -8.94606,-5.13626 -9.59501,-5.13626 -1.3558899,0 -4.4943799,-3.20716 -4.4807099,-4.57874 0.005,-0.50669 7.2050499,-8.28867 15.9999999,-17.29328 8.79495,-9.00461 15.99082,-16.79619 15.99082,-17.31462 0,-2.36765 4.39192,-10.81336 5.62314,-10.81336 1.86341,0 1.74087,1.61079 -0.73142,9.61515 -2.01439,6.52184 -2.73807,7.4677 -16.25,21.23911 -7.77795,7.92731 -13.69172,14.57995 -13.14172,14.78365 0.55,0.2037 6.175,3.3032 12.5,6.88776 6.325,3.58457 13.65418,7.29425 16.28707,8.24375 3.77754,1.36229 4.72653,2.14857 4.5,3.72846 -0.44464,3.10106 -3.64835,2.86395 -11.28707,-0.83537 z m 169.166667,0.67082 c -1.3762,-1.3762 -0.54256,-3.25433 3.76928,-8.49188 3.67729,-4.46677 11.47673,-11.48639 19.48355,-17.53551 1.3669,-1.03268 0.49931,-2.29429 -6.4195,-9.33492 -4.4,-4.47747 -9.0125,-8.5415 -10.25,-9.03119 -2.56841,-1.01632 -3.05737,-4.69278 -0.74228,-5.58117 0.82925,-0.31821 2.73717,0.22701 4.23984,1.21159 4.1989,2.75123 22.25244,20.5722 22.25244,21.96579 0,0.67866 -1.04643,1.91959 -2.32541,2.7576 -5.38201,3.52644 -18.89408,15.65986 -22.28242,20.00894 -3.36418,4.31809 -6.04136,5.71489 -7.7255,4.03075 z M 62.618223,402.00899 c 0,-1.53142 1.07557,-2.25643 4.70215,-3.16962 5.58807,-1.40709 13.29785,-8.59023 13.29785,-12.3895 0,-2.67968 -1.95213,-7.45528 -3.0475,-7.45528 -0.39956,0 -2.8685,1.4625 -5.48653,3.25 -4.60237,3.14234 -6.497,5.78359 -10.22187,14.25 -1.20511,2.73914 -2.38779,4 -3.75197,4 -1.81638,0 -1.97241,-0.60085 -1.76865,-6.81069 0.12292,-3.74588 1.16996,-11.82585 2.32676,-17.9555 1.15679,-6.12965 1.95622,-13.41484 1.77651,-16.18931 -0.29474,-4.55036 -0.11193,-5.07507 1.86629,-5.35659 1.83212,-0.26072 2.31123,0.31529 2.91121,3.5 0.62619,3.32385 -0.42388,13.75675 -2.28058,22.65854 l -0.5937,2.84646 4.59097,-3.50437 c 5.74714,-4.38689 10.85808,-6.19828 13.49974,-4.78451 1.05524,0.56475 2.65228,2.57288 3.54897,4.46252 3.00963,6.34233 1.9181,11.09255 -4.07502,17.73404 -4.28139,4.74457 -8.57973,6.89941 -13.76251,6.89941 -2.85692,0 -3.53212,-0.37957 -3.53212,-1.9856 z m 33.85595,-4.2644 c -3.42887,-6.3528 1.65164,-22.65034 8.330227,-26.72215 4.02921,-2.45653 4.06128,-2.4578 6.76603,-0.26763 3.27023,2.64807 3.66789,8.56533 1.04468,15.54487 -4.08296,10.86344 -13.030477,17.20778 -16.140937,11.44491 z m 6.907667,-5 c 4.54916,-4.84584 7.43939,-14.3044 5.36882,-17.56995 -2.04503,-3.22526 -9.132437,10.35708 -9.132437,17.50145 0,2.91653 1.071637,2.93604 3.763617,0.0685 z m 42.70288,5 c -0.2589,-0.6875 -1.04338,-4.4 -1.74329,-8.25 l -1.27255,-7 -3.17131,6.74682 c -1.95225,4.15334 -4.06786,7.15533 -5.50367,7.80953 -3.44576,1.56999 -7.46441,-0.33576 -9.43883,-4.47616 -1.54356,-3.23687 -1.53845,-3.76377 0.0774,-7.99484 1.88207,-4.92811 10.13304,-13.18264 14.19636,-14.20247 2.67347,-0.671 3.80085,-3.91909 4.90961,-14.1451 0.42206,-3.89255 1.39786,-7.10902 2.57872,-8.5 1.79049,-2.10911 1.97823,-2.13681 3.26502,-0.48178 1.00909,1.29785 1.14149,2.86327 0.50747,6 -2.36334,11.69238 -2.942,21.40605 -1.8011,30.23424 0.63902,4.94463 1.52675,9.94999 1.97273,11.12303 0.49848,1.3111 0.37671,2.56696 -0.31609,3.25976 -1.49537,1.49537 -3.67471,1.43244 -4.26047,-0.12303 z m -10.50185,-11 c 1.57276,-3.4375 3.1667,-7.30112 3.54208,-8.58583 0.61336,-2.09912 0.47821,-2.22648 -1.33372,-1.25676 -2.91833,1.56184 -7.90559,7.91336 -8.45006,10.76155 -0.40129,2.09923 1.35738,5.33104 2.90102,5.33104 0.26461,0 1.76791,-2.8125 3.34068,-6.25 z m -97.564707,-103.5 c -2.11255,-2.6125 -7.48444,-8.575 -11.93753,-13.25 -4.4531,-4.675 -10.4956,-12.06608 -13.42778,-16.42463 -2.9321899,-4.35854 -7.3210199,-9.91439 -9.7529599,-12.34633 -2.43193997,-2.43194 -4.20899,-4.97607 -3.94899,-5.65361 0.26000003,-0.67754 3.77901,-3.17333 7.82002,-5.54621 4.0410199,-2.37287 9.3722999,-5.73561 11.8472999,-7.47275 15.06825,-10.57602 31.64705,-19.53021 36.19098,-19.5467 5.92256,-0.0215 4.46292,4.28016 -2.2037,6.49445 -4.76983,1.58429 -17.7055,9.13457 -33.63034,19.62935 -4.47868,2.95154 -8.96239,5.8552 -9.9637999,6.45258 -1.70328,1.01609 -1.62393,1.33863 1.2300499,5 1.67794,2.15262 5.01297,6.83245 7.41118,10.39963 4.92219,7.32143 24.20573,28.13544 27.08255,29.232 2.09852,0.79989 2.40783,2.93321 0.8479,5.84796 -1.60666,3.00206 -3.40029,2.33445 -7.56488,-2.81574 z m 454.266757,-7.91667 c -1.585,-1.58491 -0.3233,-4.36054 4.812,-10.58629 3.0133,-3.65315 8.8406,-9.24283 12.9496,-12.4215 7.1583,-5.53754 7.3998,-5.85807 5.7713,-7.65889 -0.9348,-1.03371 -3.2746,-2.68572 -5.1996,-3.67114 -5.2117,-2.66789 -14,-9.95716 -14,-11.61196 0,-3.0773 3.1013,-2.42436 8.7079,1.83333 3.1857,2.4192 7.8904,5.6061 10.4551,7.08199 3.9155,2.25329 8.837,7.84389 8.837,10.03843 0,0.33069 -2.54,2.22604 -5.6444,4.21191 -6.7667,4.32861 -15.0139,11.97354 -20.0721,18.60623 -3.5273,4.62538 -5.1468,5.64792 -6.6168,4.17789 z m -22.2997,-1.81931 c -0.3136,-0.81729 0.1234,-7.90479 0.9712,-15.75 2.4529,-22.69782 2.7934,-29.04214 1.7481,-32.57132 -1.1084,-3.74235 -0.5206,-6.1927 1.4855,-6.1927 2.8432,0 3.9308,4.31541 3.7805,15 -0.153,10.8823 -2.8002,38.29771 -3.8642,40.01924 -0.9188,1.4867 -3.4771,1.17308 -4.1211,-0.50522 z m -83.4669,-2.13444 c -1.8192,-2.19207 -1.5892,-15.59548 0.4122,-24.01907 l 1.4588,-6.13949 -3.8856,0.52116 c -3.029,0.40627 -3.8855,0.18822 -3.8855,-0.98919 0,-1.40649 2.4707,-2.76922 7.6595,-4.22462 1.5962,-0.44771 2.4712,-1.90458 3.354,-5.5847 0.657,-2.73844 0.921,-6.06846 0.5868,-7.40004 -0.8604,-3.42817 0.9974,-4.08723 2.9823,-1.05795 1.2601,1.92312 1.5136,3.73127 1.0322,7.36038 l -0.6382,4.81099 3.1097,-0.4564 c 2.604,-0.38219 3.0519,-0.15691 2.7549,1.38556 -0.2275,1.18101 -1.6934,2.15856 -4.0854,2.72424 -3.2171,0.76084 -3.8733,1.41205 -4.7671,4.7315 -2.1979,8.16226 -3.12,15.45791 -2.8105,22.23608 0.3363,7.36651 -0.6715,9.24236 -3.2781,6.10155 z M 197.91803,270.3335 c -0.35058,-0.9136 0.001,-7.1011 0.78138,-13.75 1.51927,-12.94486 1.84489,-23.99963 0.73943,-25.10294 -0.37366,-0.37294 -2.84188,-0.21685 -5.48494,0.34686 -3.56445,0.76022 -4.99895,0.72046 -5.55436,-0.15395 -1.43109,-2.25302 -0.099,-3.18382 5.79301,-4.04783 3.25912,-0.47792 9.97567,-1.66483 14.92567,-2.63758 4.95,-0.97275 9.31876,-1.47796 9.70836,-1.12269 1.61611,1.4737 -1.26502,3.27066 -7.82668,4.88149 l -6.97568,1.71247 0.37122,5.51763 c 0.38237,5.68322 -2.20919,33.28953 -3.28911,35.03687 -0.92725,1.50032 -2.47853,1.16931 -3.1883,-0.68033 z m 175.88949,-1.22159 c -0.7209,-0.4457 -1.7691,-4.14193 -2.3295,-8.21384 -0.5603,-4.07191 -1.7705,-9.11315 -2.6893,-11.20275 l -1.6705,-3.79926 -6.7613,9.04926 c -3.7188,4.9771 -7.2204,9.04927 -7.7814,9.04927 -0.561,0 -1.2908,-0.70565 -1.6218,-1.56811 -0.8289,-2.16004 2.6355,-36.69512 3.8043,-37.92353 1.7061,-1.79315 2.9463,1.79252 2.4183,6.99164 -0.2793,2.75 -0.7914,8.825 -1.1381,13.5 l -0.6304,8.5 3.8552,-5.18355 c 4.9754,-6.68977 7.383,-7.86904 10.7147,-5.24833 2.8794,2.26497 4.0648,5.41917 6.1685,16.41412 1.2229,6.39191 1.2693,8.14892 0.2423,9.1756 -0.7379,0.73759 -1.8197,0.93018 -2.581,0.45948 z m 36.1665,-1.63251 c -0.6621,-1.72539 0.9158,-13.19322 3.4359,-24.97116 1.3419,-6.27166 2.1168,-8.06492 3.609,-8.3523 1.7443,-0.33592 1.8516,0.11432 1.3078,5.48635 l -0.5923,5.8523 2.1919,-3.55792 c 3.8462,-6.24325 6.4239,-8.94208 8.5405,-8.94208 2.3474,0 2.8189,1.73053 3.9459,14.48219 l 0.7055,7.98218 4.8989,-6.98218 c 9.8881,-14.09294 13.5174,-16.21729 17.6913,-10.35548 3.9108,5.49215 3.6281,23.95299 -0.3464,22.61808 -0.8627,-0.28977 -1.2461,-3.06373 -1.2512,-9.05296 -0.01,-6.98931 -0.351,-8.97412 -1.8101,-10.4135 -1.7298,-1.70646 -1.9114,-1.6547 -4.4926,1.28095 -1.4794,1.6826 -4.8086,6.04744 -7.3982,9.69963 -9.5018,13.40079 -12.7917,12.78833 -12.7917,-2.38136 0,-5.43265 -0.3553,-9.87755 -0.7896,-9.87755 -1.2868,0 -7.8085,12.89768 -10.745,21.25 -2.6346,7.49351 -4.7846,9.68763 -6.1096,6.23481 z M 82.011433,264.8218 c -0.39865,-0.64503 -0.69864,-9.98253 -0.66665,-20.75 0.0475,-15.98425 -0.21534,-19.88682 -1.43215,-21.2642 -1.60392,-1.81556 -1.00255,-3.81301 1.14798,-3.81301 0.72839,0 1.5597,-0.9 1.84736,-2 0.78657,-3.00785 3.66592,-2.47166 4.32119,0.80468 0.45984,2.2992 1.79046,3.37752 7.38297,5.98307 10.800437,5.03192 13.744147,11.47235 9.927537,21.72009 -1.73157,4.64935 -3.85233,7.61684 -9.463657,13.24216 -7.18718,7.20509 -11.21077,9.07673 -13.06458,6.07721 z m 10.74632,-10.13641 c 5.08668,-4.8739 8.860467,-11.8468 8.860467,-16.37167 0,-4.10566 -3.362597,-8.11698 -8.734577,-10.41968 -2.43718,-1.0447 -4.7793,-1.89945 -5.20473,-1.89945 -1.30241,0 -2.12734,13.62616 -1.42759,23.58088 0.36416,5.18051 0.96517,9.41912 1.3356,9.41912 0.37042,0 2.6973,-1.93914 5.17083,-4.3092 z m -31.75549,8.86761 c -0.30425,-0.79287 -0.39647,-2.25537 -0.20492,-3.25 0.47356,-2.45899 5.16654,-2.46762 5.63976,-0.0104 0.68782,3.57158 -4.19205,6.49903 -5.43484,3.26038 z m 174.032587,0.0849 c -0.28633,-0.74616 0.81707,-6.64982 2.45201,-13.11923 l 2.9726,-11.76256 -3.21823,3.11923 c -1.77002,1.7156 -4.16268,3.11925 -5.31703,3.11925 -4.24757,0 -11.47546,-11.51001 -9.86436,-15.70846 0.80807,-2.10581 1.75609,-1.0906 5.25618,5.62866 1.55287,2.98111 3.37099,5.60273 4.04028,5.82582 1.51313,0.50438 5.30043,-3.4939 10.41578,-10.99602 3.79375,-5.56387 6.84614,-7.42252 6.84614,-4.16871 0,0.86971 -1.51674,6.60721 -3.37054,12.75 -1.85379,6.14279 -4.18607,14.65621 -5.18284,18.91871 -1.7255,7.37879 -3.69246,9.87888 -5.02999,6.39334 z m 21.00143,-2.11378 c -0.89919,-3.58266 0.0562,-19.88586 1.54232,-26.31802 0.97054,-4.20076 1.5646,-5.17969 2.88828,-4.75957 1.09215,0.34664 2.62623,-0.67397 4.45152,-2.96153 3.12932,-3.92185 6.44769,-4.5315 9.04483,-1.66169 3.45344,3.816 1.58817,11.05211 -4.28951,16.64071 -2.75575,2.62021 -3.36576,2.81788 -5.18666,1.68071 -1.13498,-0.70881 -2.32503,-1.0273 -2.64457,-0.70777 -0.31953,0.31953 -0.83821,4.95849 -1.15262,10.30879 -0.47698,8.11684 -0.85554,9.78197 -2.28592,10.05477 -1.15076,0.21946 -1.92906,-0.52883 -2.36767,-2.2764 z m 13.37394,-25.58977 c 2.25398,-3.30444 2.66879,-7.57864 0.708,-7.29521 -1.39986,0.20234 -4.16608,4.17265 -5.97319,8.57321 -1.5174,3.69508 -1.51299,3.71277 0.72324,2.89997 1.23747,-0.44978 3.28135,-2.32987 4.54195,-4.17797 z m 18.84754,24.75662 c -4.24019,-3.99902 -5.04255,-6.8197 -4.41899,-15.53484 0.57021,-7.96937 2.04702,-11.08894 8.50673,-17.9694 4.39884,-4.68535 5.29165,-5.19214 9.147,-5.19214 3.46969,0 4.21134,0.31691 3.94751,1.68683 -0.17866,0.92775 -1.67875,2.03766 -3.33351,2.46645 -3.39855,0.88065 -9.8117,7.98318 -12.05398,13.34972 -0.80363,1.92335 -1.24037,3.497 -0.97055,3.497 0.26983,0 3.41443,-1.10053 6.98801,-2.44562 4.01788,-1.51233 6.73254,-2.06519 7.11353,-1.44873 0.98433,1.59267 -4.15389,5.66599 -9.57688,7.59206 -3.3338,1.18406 -4.98841,2.33566 -4.98841,3.47191 0,3.35472 2.00653,6.87623 4.58828,8.05256 2.24974,1.02505 3.19264,0.87287 6.54451,-1.05621 6.22211,-3.581 8.31232,-0.40119 2.79048,4.24514 -4.54029,3.8204 -9.75158,3.55964 -14.28373,-0.71474 z m -169.63954,-5.77179 c -3.75325,-1.56026 -7.81956,-5.84783 -9.03296,-9.52445 -1.61872,-4.90478 0.31018,-10.62117 5.32999,-15.79571 7.60464,-7.83905 20.70297,-10.75368 20.70297,-4.60682 0,1.65713 -0.453,1.9268 -2.41113,1.43534 -3.53839,-0.88808 -10.49227,2.5843 -14.83887,7.40972 -2.95335,3.27869 -3.75,4.9752 -3.75,7.9859 0,4.17188 2.64195,7.44453 6.83019,8.46075 5.47291,1.32791 15.83118,-5.15181 18.65124,-11.66747 1.00865,-2.33046 0.98441,-3.74634 -0.12737,-7.4405 -1.62495,-5.39932 -0.60127,-7.01186 2.73586,-4.30962 2.09912,1.69976 2.41008,2.78965 2.41008,8.4471 0,5.73877 -0.35241,6.93094 -3.02488,10.23287 -5.75056,7.105 -17.57439,11.8259 -23.47512,9.37289 z m 45.9844,-2.7762 c -8.2518,-4.38501 -10.27574,-13.14376 -4.97034,-21.50951 3.1055,-4.89687 8.43526,-8.17116 11.43004,-7.02196 2.24793,0.86261 1.92718,1.66463 -1.42955,3.57459 -3.07946,1.7522 -6.62152,6.64497 -7.64369,10.55849 -1.68478,6.45041 3.58729,11.24 12.37914,11.24626 3.94225,0.003 5.25,0.36862 5.25,1.46856 0,3.71051 -9.24966,4.74759 -15.0156,1.68357 z M 60.681073,237.57032 c -0.68024,-0.81964 -0.97273,-3.04836 -0.68898,-5.25 0.27118,-2.10415 0.78312,-6.85675 1.13764,-10.56134 0.71892,-7.51222 3.01516,-11.54374 5.93649,-10.42272 1.20784,0.46349 1.53163,1.22124 1.03271,2.41676 -1.14675,2.74787 -2.37517,9.68154 -2.55314,14.41094 -0.13979,3.71463 -2.34216,10.83063 -3.35204,10.83063 -0.18185,0 -0.86256,-0.64092 -1.51268,-1.42427 z"
     style="fill:#000000"
     inkscape:connector-curvature="0" />
</svg>
