<?xml version="1.0" encoding="UTF-8" standalone="no"?>
<svg
   xmlns:dc="http://purl.org/dc/elements/1.1/"
   xmlns:cc="http://creativecommons.org/ns#"
   xmlns:rdf="http://www.w3.org/1999/02/22-rdf-syntax-ns#"
   xmlns:svg="http://www.w3.org/2000/svg"
   xmlns="http://www.w3.org/2000/svg"
   viewBox="0 0 625 625.73297"
   height="625.73297"
   width="625"
   version="1.1"
   id="svg3870">
  <metadata
     id="metadata3876">
    <rdf:RDF>
      <cc:Work
         rdf:about="">
        <dc:format>image/svg+xml</dc:format>
        <dc:type
           rdf:resource="http://purl.org/dc/dcmitype/StillImage" />
        <dc:title></dc:title>
      </cc:Work>
    </rdf:RDF>
  </metadata>
  <defs
     id="defs3874" />
  <path
     id="path3880"
     d="m 118.98686,618.45588 c -5.49999,-0.42773 -14.27499,-1.59645 -19.499991,-2.59714 -9.77921,-1.87293 -21.53707,-2.19911 -30.75,-0.85307 -4.39768,0.64252 -5.25,0.51639 -5.25,-0.77695 0,-1.04128 2.32122,-2.2624 7.12918,-3.75044 7.51903,-2.32711 14.39083,-2.32471 26.87082,0.009 13.837061,2.5879 26.203321,3.13513 70.192641,3.10618 48.13683,-0.0317 61.27555,-0.57836 102.30735,-4.25682 19.91348,-1.78523 32.00276,-2.1804 71,-2.32086 28.80193,-0.10374 50.09754,-0.60962 55,-1.30655 4.4,-0.6255 17.45004,-2.4997 29.00004,-4.16488 11.55,-1.66518 29.1,-4.14092 39,-5.50165 9.9,-1.36073 25.65,-3.67159 35,-5.13525 14.1568,-2.21614 20.094,-2.6467 35.5,-2.57445 13.3145,0.0625 22.4164,-0.46006 32.4727,-1.86417 7.6849,-1.07264 17.6883,-1.95057 22.2297,-1.95057 8.1954,0 14.9078,-1.70039 18.3763,-4.65512 0.8684,-0.73969 2.5013,-1.34488 3.6287,-1.34488 1.3298,0 2.4817,-1.04222 3.2788,-2.96675 0.6759,-1.63171 2.0123,-3.21539 2.9699,-3.5193 1.5821,-0.50215 1.6228,-1.00801 0.4459,-5.54515 -1.8227,-7.02653 -2.2679,-26.50291 -0.643,-28.12782 1.007,-1.00702 1.5922,-0.91836 2.9589,0.44831 1.2811,1.28114 1.6464,3.15127 1.473,7.54177 -0.305,7.72172 1.4932,20.03793 3.3363,22.85074 2.1344,3.25753 1.8647,4.15443 -1.9208,6.38792 -1.8665,1.10124 -3.9484,3.34179 -4.6266,4.97899 -0.7884,1.90347 -2.1788,3.18119 -3.8564,3.54382 -1.4429,0.31189 -5.3234,1.71572 -8.6234,3.11961 -5.0273,2.13871 -8.3508,2.6848 -20.5,3.36841 -7.975,0.44873 -16.975,1.34564 -20,1.99313 -3.0717,0.65749 -15.6548,1.28439 -28.5,1.41989 -17.7144,0.18686 -25.9876,0.7278 -36,2.35385 -7.15,1.16118 -23.125,3.49619 -35.5,5.18891 -12.375,1.69272 -31.275,4.38991 -42,5.99375 -32.32277,4.8336 -38.88639,5.24352 -81.50004,5.08993 -34.48043,-0.12427 -44.34666,0.20054 -71.5,2.35389 -17.325,1.37393 -39.53742,2.95436 -49.36093,3.51207 -20.31574,1.1534 -87.09285,1.12178 -102.13907,-0.0483 z M 49.802389,599.89811 c -0.34194,-0.89108 0.34858,-6.85358 1.5345,-13.25 1.18591,-6.39642 2.1548,-13.27399 2.15309,-15.2835 -0.002,-2.0095 1.16854,-10.5595 2.60056,-19 1.8257,-10.76087 2.42812,-17.13915 2.01613,-21.34635 -3.03012,-30.94331 -3.71201,-43.77939 -3.98222,-74.96312 -0.29137,-33.62615 -0.44948,-36.14414 -3.92693,-62.53688 -1.99284,-15.125 -4.33132,-35.825 -5.196621,-46 -0.86531,-10.175 -2.54735,-27.275 -3.73786,-38 -1.95181,-17.58335 -2.17189,-25.05338 -2.2391,-76 l -0.0745,-56.5 -3.31431,-17 c -5.20386,-26.69202 -6.0815,-32.88749 -7.15369,-50.5 -1.28107,-21.043633 -3.04141,-82.286474 -2.3841,-82.943774 2.17466,-2.174661 4.12649,14.85089 5.0121,43.719801 0.35898,11.70182 1.00258,21.49228 1.43023,21.75658 0.42764,0.2643 5.42821,-0.396 11.11238,-1.46733 5.684171,-1.07132 14.609851,-2.44498 19.834851,-3.05255 5.225,-0.60758 14.45,-2.28157 20.5,-3.71999 8.97506,-2.13385 13.58511,-2.63162 25.042951,-2.70402 18.19647,-0.11496 17.53286,0.25329 28.09185,-15.58872 6.11072,-9.16812 8.90046,-13.52021 12.17923,-19 4.004,-6.691881 6.5729,-8.603591 13.3286,-9.918851 3.49655,-0.68073 10.84827,-2.16448 16.33717,-3.2972 8.8379,-1.82386 10.69942,-1.91647 16.26896,-0.80942 4.61344,0.917 10.3474,1.02436 21.5202,0.40292 17.64078,-0.98119 28.39316,-0.71135 31.23103,0.78377 2.39523,1.26191 15.06153,16.151641 17.17904,20.194611 0.82265,1.57071 2.99823,4.82421 4.83461,7.23 1.83638,2.40579 3.62419,5.27311 3.97291,6.37183 0.92262,2.90691 10.25354,7.34432 13.90702,6.61362 1.60604,-0.3212 7.11539,0.16535 12.243,1.08123 8.93443,1.59584 10.18844,1.57714 30.09317,-0.44878 11.42364,-1.16271 27.07025,-2.38565 34.77025,-2.71764 17.84302,-0.76933 28.51551,-1.9116 51.50001,-5.51199 10.175,-1.59386 26.825,-3.82568 37,-4.9596 10.175,-1.13392 32.3413,-3.85106 49.2584,-6.03809 33.6932,-4.35581 38.5987,-4.64375 44.3776,-2.60482 4.0566,1.43122 16.3496,0.90462 29.0529,-1.24455 3.1961,-0.54073 9.2162,-1.27119 13.3779,-1.62325 l 7.5668,-0.6401 -0.3805,-3.18184 c -0.2093,-1.75002 -1.0439,-7.953321 -1.8547,-13.785111 -2.4925,-17.927848 -1.7718,-32.89674237 1.5838,-32.89674237 0.6696,0 0.8104,2.38175397 0.4012,6.78505397 -0.5694,6.1256554 1.0181,20.1906684 4.4824,39.7149494 l 0.7097,4 9.6991,-0.36622 c 8.5396,-0.32245 9.7797,-0.15575 10.3747,1.39461 1.1178,2.91301 -2.0624,4.1954 -10.8705,4.38343 -4.5094,0.0963 -8.3593,0.33532 -8.5552,0.53123 -0.7619,0.76191 2.8838,79.984923 4.4204,96.056953 1.3221,13.82958 1.4603,21.19614 0.7406,39.5 -1.4205,36.1313 -1.0533,49.23417 1.9337,69 3.0714,20.32442 6.1622,50.6708 7.8424,77 0.9524,14.92382 0.906,24.29922 -0.2401,48.5 -1.5717,33.19112 -1.4618,122.02789 0.1629,131.6014 2.252,13.26992 1.5303,18.11559 -2.4695,16.58071 -2.1463,-0.82362 -2.5461,-7.00966 -3.7596,-58.18211 -0.841,-35.46572 -0.8269,-52.76714 0.058,-70.5 2.5972,-52.07572 0.5498,-96.76496 -6.5971,-144 -2.9899,-19.76043 -3.3581,-33.08805 -1.9477,-70.5 0.6894,-18.28679 0.5443,-26.79106 -0.7084,-41.5 -0.8665,-10.175 -2.0522,-32.45 -2.6348,-49.5 -0.5826,-17.050003 -1.322,-34.037503 -1.643,-37.750003 l -0.5838,-6.75 -5.6485,0.0179 c -3.1067,0.01 -9.9235,0.66953 -15.1485,1.46593 -17.8968,2.72785 -25.4912,2.98217 -30.6154,1.02525 -5.4091,-2.06575 -3.8665,-2.17565 -47.3847,3.37564 -17.325,2.21001 -38.25,4.73371 -46.5,5.60821 -8.25,0.8745 -23.325,2.89369 -33.5,4.48709 -21.09454,3.30339 -33.75604,4.71576 -49.49999,5.52164 -6.05,0.30968 -17.8625,1.06177 -26.25,1.67132 -14.04183,1.02046 -15.25,1.26187 -15.25,3.04708 0,1.584 -0.50325,1.83644 -2.75,1.37944 -1.5125,-0.30765 -5.225,-0.64212 -8.25,-0.74326 -7.28188,-0.24346 -59.29639,1.87893 -79.5,3.2439 -8.8,0.59454 -25.225,0.9761 -36.5,0.84792 -11.275,-0.12819 -32.61015,-0.14334 -47.41145,-0.0337 -14.8013,0.10966 -32.5763,-0.098 -39.49999,-0.46141 -11.62245,-0.61008 -13.739721,-0.42373 -27.588551,2.42825 -8.25,1.69897 -19.275,3.56224 -24.5,4.14059 -8.64825,0.95727 -24.458681,3.5667 -27.890351,4.60316 -1.13787,0.34367 -1.266,2.64032 -0.7056,12.647453 0.78628,14.04053 2.36297,24.86207 6.80813,46.72753 l 3.1511,15.5 0.66616,61 c 0.5689,52.09377 0.96693,63.62807 2.726111,79 1.13297,9.9 2.34918,21.825 2.70271,26.5 1.12715,14.90561 3.53066,36.81695 6.69122,61 2.79833,21.41136 3.06276,25.85528 2.97523,50 -0.10385,28.64449 0.98849,51.65587 3.46866,73.07111 1.52239,13.14523 1.50496,13.94394 -0.55527,25.45126 -1.16983,6.53407 -2.56848,16.53986 -3.10811,22.23507 -0.53962,5.69521 -1.64463,13.50907 -2.45556,17.36412 -0.81094,3.85506 -1.47443,8.28163 -1.47443,9.83683 0,1.65594 -0.65545,3.07915 -1.58179,3.43462 -2.23282,0.85682 -2.40693,0.79996 -3.10269,-1.01316 z M 191.2154,81.549767 c 17.1757,-0.0296 37.8757,-0.47326 46,-0.98586 8.1243,-0.51261 21.51508,-1.24229 29.75729,-1.62151 l 14.98583,-0.68951 -5.16463,-2.2793 c -3.5673,-1.57434 -5.67669,-3.2695 -6.82026,-5.48091 -2.95184,-5.70823 -10.38357,-16.28579 -17.26348,-24.57108 l -6.72329,-8.096661 -5.67754,-0.55194 c -3.12264,-0.30357 -10.32264,-0.16719 -16,0.30307 -14.44237,1.19627 -24.84113,1.13349 -30.55068,-0.18443 -4.09687,-0.94567 -6.39789,-0.80033 -14.32629,0.90492 -5.19502,1.11735 -12.05127,2.5607 -15.23611,3.20743 -5.19448,1.05483 -6.19824,1.691561 -9.75,6.184871 -2.17766,2.75495 -3.95938,5.60609 -3.95938,6.33586 0,0.72978 -0.361,1.47687 -0.80221,1.66021 -0.44122,0.18333 -3.41784,4.38333 -6.6147,9.33333 -3.19687,4.95 -7.34946,10.89232 -9.22798,13.20515 l -3.41551,4.20515 14.7802,-0.41247 c 8.12911,-0.22685 28.83304,-0.4367 46.00874,-0.46632 z M 105.0538,545.76826 c 0.7579,-4.32227 2.891,-8.10476 5.03447,-8.92728 2.74599,-1.05374 2.70308,0.59956 -0.17275,6.65498 -3.30957,6.96873 -5.89731,8.1782 -4.86172,2.2723 z m 45.48409,-10.65465 c -1.39995,-2.61584 -0.75857,-4.59535 1.48893,-4.59535 1.57878,0 3.01823,4.28782 1.99517,5.94316 -1.02854,1.6642 -2.09237,1.25266 -3.4841,-1.34781 z m -46.49394,-28.503 c -0.30853,-0.4992 -0.16426,-1.9617 0.32059,-3.25 0.59797,-1.58885 0.42949,-3.22699 -0.52374,-5.09235 -1.57459,-3.0813 -2.94965,-3.37035 -5.795061,-1.2182 -2.37594,1.79708 -4.56827,1.90263 -4.53181,0.2182 0.0718,-3.31763 13.274271,-13.75 17.401011,-13.75 1.10175,0 1.57193,0.95714 1.57193,3.2 0,2.48889 0.26667,2.93333 1.2,2 5.25951,-5.25952 11.74919,7.14441 7.16337,13.6916 -1.42777,2.03841 -2.25467,2.27722 -6.47962,1.87125 -3.8386,-0.36884 -5.19047,-0.0814 -6.51837,1.3859 -1.8497,2.0439 -2.95849,2.31863 -3.8083,0.9436 z m 14.51061,-7.21884 c 0.82611,-1.54361 0.84163,-2.7771 0.0566,-4.5 -1.48493,-3.25907 -2.56494,-2.98676 -5.08339,1.28171 -1.70825,2.89526 -1.88472,3.82768 -0.84878,4.48469 2.28513,1.44927 4.70082,0.92859 5.87555,-1.2664 z m -11.06394,-8.26976 c -1.4757,-1.4757 -3.42392,0.86285 -2.56511,3.07903 0.67125,1.7322 0.77122,1.72616 2.13653,-0.12903 0.95845,-1.30235 1.10024,-2.27834 0.42858,-2.95 z m 185.99624,13.68381 c -5.93781,-0.98038 -8.63759,-10.98474 -5.52905,-20.48855 2.15008,-6.57349 5.09965,-10.79901 7.53813,-10.79901 3.03361,0 3.18623,1.62338 0.52173,5.54974 -4.34358,6.40061 -5.92365,16.16318 -3.21545,19.86686 0.72345,0.98937 2.71744,1.86938 4.4311,1.95556 1.71365,0.0862 3.48353,0.5245 3.93306,0.97403 0.90204,0.90204 -2.43784,3.7421 -4.12065,3.50398 -0.58238,-0.0824 -2.18387,-0.33558 -3.55887,-0.56261 z m -27.48571,-1.26444 c -0.33206,-0.53728 2.61502,-4.14496 6.54907,-8.01706 6.93028,-6.82115 7.13146,-7.15633 6.46617,-10.77313 -0.37766,-2.05311 -1.50952,-5.04569 -2.51524,-6.65016 l -1.82859,-2.91724 -0.72141,5.91724 c -1.01024,8.28616 -3.18604,13.41723 -5.6895,13.41723 -1.61529,0 -1.87634,-0.44009 -1.33464,-2.25 0.37037,-1.2375 1.35531,-6.975 2.18875,-12.75 1.8102,-12.54313 3.02668,-14.43533 6.83316,-10.62884 3.69859,3.69858 7.51729,12.39159 7.52443,17.12884 0.008,5.25514 -2.44208,9.06564 -9.16224,14.25 -5.64089,4.35175 -7.2513,4.98606 -8.30996,3.27312 z m -112.81344,-2.03983 c -1.27086,-1.81441 -1.78481,-1.9478 -3.46409,-0.89908 -2.60992,1.62993 -5.04409,0.57891 -6.52859,-2.81888 -1.02094,-2.33678 -1.90554,-2.81805 -5.70817,-3.1055 -3.65823,-0.27654 -4.26618,-0.0988 -3.25,0.95 1.71519,1.77031 1.57095,3.89017 -0.2647,3.89017 -0.83308,0 -2.3896,-1.43866 -3.45893,-3.19703 -2.75382,-4.52831 -1.28477,-5.96173 5.3418,-5.21223 5.12007,0.5791 5.13641,0.5718 7.13183,-3.18766 2.38623,-4.49577 4.83275,-5.77511 4.33038,-2.26446 -0.29366,2.05216 2.62749,6.95251 3.45065,5.78861 0.16619,-0.23498 1.53922,-2.35771 3.05119,-4.71718 2.91042,-4.5418 6.51433,-6.86665 9.10401,-5.87289 2.45854,0.94343 1.87576,8.27317 -1.24533,15.66284 -3.04575,7.21127 -5.798,8.82672 -8.49005,4.98329 z m 6.19857,-6.97113 c 3.17576,-7.38225 3.7373,-11.01216 1.70356,-11.01216 -1.68595,0 -7.60298,8.33457 -7.60298,10.70935 0,1.5543 2.20157,5.29065 3.1174,5.29065 0.34997,0 1.60188,-2.24453 2.78202,-4.98784 z m -10.61765,2.69595 c 0.5746,-1.4974 -1.95257,-5.37064 -2.89153,-4.43168 -0.85985,0.85984 0.43336,5.72357 1.52182,5.72357 0.48068,0 1.09705,-0.58135 1.36971,-1.29189 z m 53.77401,4.34767 c -2.62865,-2.62865 -3.45358,-7.82159 -2.68565,-16.90617 0.63882,-7.55728 2.31293,-11.08156 4.59423,-9.67164 0.81335,0.50268 0.95349,3.03947 0.4725,8.55344 -0.92464,10.5999 -0.0627,14.96859 2.95347,14.96859 4.51942,0 9.01414,-8.38722 10.18212,-19 0.72373,-6.5762 1.65221,-8.23476 4.08687,-7.30049 1.95928,0.75185 1.6902,8.99928 -0.52591,16.11967 -1.84411,5.92514 -5.10992,11.53132 -8.09669,13.89902 -2.44512,1.93831 -8.76123,1.55729 -10.98094,-0.66242 z m 376.94426,0.94422 c 0,-0.55 1.125,-1 2.5,-1 1.375,0 2.5,0.45 2.5,1 0,0.55 -1.125,1 -2.5,1 -1.375,0 -2.5,-0.45 -2.5,-1 z m -265.6135,-4.53282 c -3.54253,-5.40658 -0.073,-17.59537 6.9201,-24.31087 6.15701,-5.91261 9.57042,-2.35986 6.20338,6.45662 -2.19604,5.75025 -1.71321,7.47354 2.48998,8.88707 1.925,0.64738 3.6455,1.92472 3.82332,2.83853 0.25922,1.33203 -0.49334,1.66147 -3.79545,1.66147 -6.03892,0 -9.4549,-3.6349 -8.76435,-9.32602 l 0.50647,-4.17398 -1.85877,4 c -2.15378,4.63484 -2.41189,8.72543 -0.72138,11.43237 0.9331,1.49414 0.90669,2.2464 -0.12245,3.48643 -1.81098,2.1821 -2.75305,1.99058 -4.68085,-0.95162 z m -80.29163,-0.40852 c -1.06749,-0.65975 -1.01247,-1.83043 0.29787,-6.33785 0.88397,-3.04074 1.60722,-7.99177 1.60722,-11.00227 0,-6.31726 1.75429,-8.82129 4.17901,-5.96501 0.81543,0.96056 2.66529,3.82013 4.11081,6.35461 2.75519,4.83077 7.01328,8.37326 9.10149,7.57194 1.63466,-0.62728 3.60869,-7.42329 3.60869,-12.42365 0,-4.4616 2.02401,-7.13735 3.78963,-5.00991 1.44429,1.74026 0.61723,11.69617 -1.38793,16.70756 -2.97658,7.43919 -7.45433,7.9476 -14.22432,1.61507 l -4.73693,-4.43085 -1.17528,4.94763 c -1.44885,6.09936 -3.38089,9.07862 -5.17026,7.97273 z m 61.90509,-4.47317 c 0,-1.11316 7.99885,-6.58549 9.62595,-6.58549 1.47104,0 -0.16519,3.27596 -2.70268,5.41111 -3.34973,2.81861 -6.92327,3.42479 -6.92327,1.17438 z m 65.03379,-0.86292 c -4.03315,-2.04084 -4.78608,-6.84631 -2.00353,-12.78718 2.97963,-6.36164 12.1025,-15.19798 15.23175,-14.75337 3.20375,0.4552 2.76449,2.32273 -1.17584,4.99916 -3.76945,2.56037 -9.76404,10.68718 -10.73407,14.55206 -0.4869,1.93997 0.004,2.99065 2.26314,4.84811 2.42923,1.99691 2.64789,2.5306 1.38476,3.3797 -1.89144,1.27146 -1.99178,1.26664 -4.96621,-0.23848 z m 24.60107,-6.79515 c -2.82035,-2.21849 -3.48723,-6.55531 -1.72198,-11.19828 1.32023,-3.47247 6.57053,-8.39723 9.56196,-8.96908 4.07393,-0.77878 4.0812,1.15722 0.0169,4.50734 -4.03016,3.32201 -6.83865,8.66506 -5.87484,11.1767 0.34411,0.89672 1.78672,1.5559 3.40508,1.5559 3.53143,0 10.64172,-7.69055 11.5407,-12.48251 0.94206,-5.02165 0.22752,-8.06622 -1.8127,-7.72365 -0.9625,0.16161 -1.75,-0.13909 -1.75,-0.66822 0,-4.88997 5.13577,-5.69753 7.47432,-1.17528 2.85174,5.51472 1.37384,12.62679 -4.12109,19.83097 -5.28706,6.9317 -11.87168,8.95852 -16.71837,5.14611 z m 79.80958,-1.01739 c -0.4358,-0.70504 -0.699,-6.40871 -0.5851,-12.67482 l 0.2073,-11.39293 -2.7833,0.18482 c -4.4559,0.29589 -5.2833,0.0622 -5.2833,-1.49192 0,-2.32973 3.618,-3.66052 11.5912,-4.26353 5.5034,-0.41623 7.4088,-0.24369 7.4088,0.67088 0,0.67716 -1.2851,1.71624 -2.8557,2.30907 l -2.8556,1.07788 -0.6038,12.00897 c -0.4215,8.38293 -1.0332,12.43841 -2.026,13.43122 -1.1395,1.13944 -1.5798,1.16735 -2.2145,0.14036 z m -22.4444,-1.21386 c 0,-0.71711 1.6119,-2.85461 3.582,-4.75 5.8758,-5.65282 5.9648,-6.32748 1.4274,-10.81972 -2.2052,-2.18329 -4.0094,-4.92725 -4.0094,-6.09769 0,-4.85503 6.0442,-12.02876 10.1348,-12.02876 2.7621,0 2.2837,1.79436 -1.6348,6.13168 -1.925,2.13074 -3.5,4.40333 -3.5,5.0502 0,0.64686 1.575,2.61875 3.5,4.38199 4.1062,3.76118 4.5057,7.07279 1.4496,12.01769 -3.1005,5.01661 -10.9496,9.39983 -10.9496,6.11461 z m -32.5406,-2.94116 c -0.2939,-0.76604 1.2618,-5.2993 3.4573,-10.0739 4.6272,-10.06309 7.0601,-11.37623 9.136,-4.93111 2.3357,7.2515 4.7506,8.02647 9.7574,3.13134 3.1238,-3.05411 4.1765,-5.88134 2.1899,-5.88134 -0.55,0 -1,-1.125 -1,-2.5 0,-3.06367 2.2148,-3.28516 5,-0.5 2.8601,2.86011 2.4746,6.38982 -1.1485,10.51629 -5.9275,6.75108 -11.8562,8.23659 -15.8606,3.97409 l -2.3576,-2.50963 -2.5667,4.74714 c -2.5793,4.77056 -5.6124,6.61929 -6.6072,4.02712 z m 67.1458,-0.34147 c -1.4928,-3.89011 5.8953,-25.7995 10.7341,-31.83189 4.7072,-5.86841 7.6868,0.10173 3.9556,7.92597 -1.6269,3.41175 -1.6173,3.73829 0.2096,7.13068 1.053,1.95535 2.9375,4.52416 4.1878,5.70845 2.3678,2.24295 2.9983,5.10838 1.3483,6.12811 -1.6273,1.00573 -4.9868,-1.75294 -8.1894,-6.72486 -1.6829,-2.6125 -3.2252,-4.75 -3.4275,-4.75 -0.494,0 -3.2727,9.86075 -3.6633,13 -0.5906,4.74654 -3.8225,6.88655 -5.1552,3.41354 z m 82.8409,-5.50067 c -1.0305,-1.66742 1.2873,-3.57951 2.6668,-2.2 1.1539,1.15392 0.4317,3.28713 -1.1129,3.28713 -0.4851,0 -1.1843,-0.48921 -1.5539,-1.08713 z m -54.9916,-3.36742 c -3.0689,-3.06887 -3.2362,-8.09301 -0.4513,-13.55185 2.1794,-4.27189 5.425,-6.72768 6.5296,-4.94051 0.3598,0.58217 -0.3629,3.56427 -1.6059,6.62689 -2.6092,6.42872 -1.9461,8.64593 2.7272,9.1187 3.8583,0.39034 7.8545,-2.77992 9.3975,-7.45515 1.0278,-3.11437 0.9676,-3.75327 -0.4276,-4.53406 -3.8986,-2.18175 0.4191,-6.92713 4.376,-4.80947 4.5864,2.45458 0.7396,15.33096 -5.8979,19.74193 -4.7802,3.17669 -11.3627,3.0884 -14.6476,-0.19648 z m 33.386,-2.88972 c -4.7725,-2.12089 -6.8405,-4.71363 -6.8405,-8.57632 0,-7.18339 7.2519,-15.55312 12.8884,-14.87503 3.3162,0.39895 3.8342,2.57038 0.881,3.69319 -3.4223,1.30116 -8.7694,7.74564 -8.7694,10.56913 0,2.44186 5.1902,7.1518 6.7909,6.16252 0.4425,-0.27349 1.4581,-0.0684 2.2568,0.45577 1.229,0.80651 1.1539,1.18069 -0.4889,2.43401 -2.2575,1.72238 -3.1111,1.73975 -6.7183,0.13673 z m 20.4326,-1.29837 c -1.2205,-2.48543 -0.6183,-11.86484 0.9754,-15.18993 0.7031,-1.46709 1.9474,-2.66743 2.765,-2.66743 1.6842,0 1.7279,1.80972 0.2723,11.28996 -1.0853,7.06907 -2.5716,9.50167 -4.0127,6.5674 z m 22.7551,-2.47056 c -3.0848,-1.23109 -3.9934,-2.62783 -4.0129,-6.16892 -0.02,-3.58 2.5376,-9.71788 4.0489,-9.71788 0.8304,0 0.9682,1.5851 0.4786,5.5036 -0.5654,4.52505 -0.4058,5.61175 0.8975,6.11188 0.8719,0.33455 2.2544,0.0528 3.0724,-0.62605 1.9485,-1.6171 1.9841,-6.98943 0.046,-6.98943 -2.1331,0 -2.9072,-1.87548 -1.4826,-3.59206 1.9801,-2.38585 5.2489,-1.25595 6.9761,2.41136 l 1.5633,3.31931 1.1707,-2.56931 c 0.6438,-1.41311 1.599,-2.5693 2.1225,-2.5693 0.5236,0 1.0957,-1.0079 1.2715,-2.23978 0.1757,-1.23189 1.0821,-2.38508 2.0141,-2.56266 1.2456,-0.23733 1.9916,0.78019 2.8157,3.84073 1.2656,4.70007 1.0104,5.22385 -2.7935,5.73326 -1.4891,0.19942 -3.4211,1.00839 -4.2933,1.7977 -0.8722,0.78931 -1.8262,1.1947 -2.12,0.90087 -0.2939,-0.29384 -1.1082,0.8514 -1.8097,2.54497 -1.0097,2.43761 -5.6414,6.24997 -7.1941,5.92152 -0.1648,-0.0349 -1.412,-0.50727 -2.7715,-1.04981 z m -464.59337,-3.67844 c -1.79712,-1.21422 -3.26495,-6.44218 -3.70846,-13.20836 -0.5069,-7.73317 -0.17514,-9 2.35693,-9 1.05416,0 1.92446,0.5625 1.93399,1.25 0.01,0.6875 0.46464,5.49739 1.01135,10.68865 0.96573,9.16996 0.56834,11.73056 -1.59381,10.26971 z m 137.40121,-2.08564 c -12.91666,-2.74944 -12.98981,-9.50964 -0.39522,-36.5246 10.8365,-23.24391 17.74071,-40.45069 17.07386,-42.55175 -0.31402,-0.98938 1.23679,-4.04974 3.85187,-7.60127 2.54246,-3.45291 5.74479,-9.71791 7.63911,-14.9451 4.38419,-12.09768 6.25236,-15.68938 12.74335,-24.5 6.78458,-9.20913 8.8455,-10.94933 13.00095,-10.97776 1.7875,-0.0122 4.0375,-0.69813 5,-1.52421 0.9625,-0.82609 3.66804,-3.13346 6.0123,-5.12748 l 4.2623,-3.6255 3.95598,2.74149 c 4.4025,3.05094 7.69855,7.02123 10.8035,13.01346 1.13995,2.2 7.77522,9.625 14.74505,16.5 13.45936,13.27625 14.36566,12.77479 3.47012,-1.92002 -3.36985,-4.54492 -7.04982,-10.03396 -8.17772,-12.19788 -1.1279,-2.16391 -2.92078,-4.40003 -3.98418,-4.96915 -1.2599,-0.67428 -1.73216,-1.66903 -1.35561,-2.85543 0.36045,-1.13566 -0.0139,-2.04776 -0.99506,-2.42426 -1.24269,-0.47686 -1.34654,-1.0266 -0.49462,-2.61842 1.57972,-2.95173 3.70097,-2.46398 5.46669,1.25698 0.85391,1.7995 2.60808,3.937 3.89814,4.75 3.85984,2.43248 10.5644,10.65119 21.11551,25.88422 5.48482,7.91863 10.65982,14.57791 11.5,14.79838 0.84018,0.22047 3.1026,2.90994 5.0276,5.9766 1.925,3.06665 5.24184,6.68291 7.37076,8.03613 7.30008,4.64021 20.68678,16.70529 23.09538,20.81529 3.1335,5.34682 8.5936,23.76789 8.1759,27.58325 -0.654,5.97471 -4.642,6.39404 -4.642,0.48811 0,-4.41365 -5.2494,-21.65317 -7.8985,-25.93953 -1.9665,-3.1818 -13.10154,-13.57137 -13.10154,-12.22437 0,0.32699 2.97893,5.33995 6.61984,11.13989 9.4596,15.06906 10.5953,18.51873 9.9533,30.23261 -0.337,6.14854 -0.976,9.8221 -1.798,10.33652 -0.7013,0.43893 -3.7501,1.31207 -6.7751,1.94031 -3.02504,0.62824 -7.30004,2.06465 -9.50004,3.19201 -3.06805,1.5722 -6.40008,2.13378 -14.30135,2.41037 -9.00944,0.31537 -11.35238,0.79567 -18.68191,3.82974 -8.52567,3.52921 -12.7535,4.22082 -17.88212,2.92523 -1.57595,-0.39811 -5.85095,-0.22788 -9.5,0.3783 -7.55056,1.25431 -30.19815,3.36402 -40.63462,3.78527 -24.62481,0.99395 -41.49302,1.18753 -44.66392,0.51257 z m 40.16392,-5.13701 c 28.63549,-1.89554 40.11454,-2.93096 46.02296,-4.15132 4.534,-0.93649 7.02853,-0.96691 10.18563,-0.12424 3.60294,0.96168 4.94918,0.8169 9.73624,-1.04708 l 5.55517,-2.16307 -3.5,-0.28716 c -1.925,-0.15794 -10.7,0.17243 -19.5,0.73415 -46.13902,2.94514 -55.94445,3.26389 -63,2.04794 -14.57076,-2.51111 -24.5,-7.42616 -24.5,-12.12769 0,-0.96722 2.41322,-7.07052 5.36271,-13.56291 6.19583,-13.63818 8.42758,-21.1772 3.40672,-11.50814 -17.01253,32.76232 -19.08014,40.25924 -11.67479,42.33139 3.62492,1.01432 25.56093,0.94005 41.90536,-0.14187 z m 30.69235,-11.18858 9.19236,-1.1373 -1.44236,-3.45204 c -2.12195,-5.07854 -1.79206,-8.87518 1.63333,-18.79802 1.69162,-4.90037 3.07437,-9.35977 3.07277,-9.90977 -0.002,-0.55 -1.60308,-4.825 -3.55885,-9.5 -3.7981,-9.07882 -4.67951,-15.89101 -2.0896,-16.15 0.825,-0.0825 1.96923,-0.195 2.54273,-0.25 0.5735,-0.055 2.95805,3.5 5.299,7.9 2.77762,5.22077 5.18462,8.44842 6.92852,9.29078 1.58666,0.76642 3.47357,3.10231 4.64477,5.75 1.08488,2.45257 2.43627,4.45922 3.00307,4.45922 0.5668,0 1.70736,1.3088 2.53456,2.90844 1.16422,2.25135 2.46911,3.08207 5.77568,3.67697 2.34942,0.42269 5.24119,0.66232 6.42616,0.53251 1.18497,-0.12981 2.45324,0.24737 2.81838,0.83818 0.36514,0.59081 2.24275,1.73389 4.17247,2.54018 2.45929,1.02756 3.40146,1.99498 3.15041,3.23485 -0.39538,1.95267 -0.0976,1.95129 -13.40255,0.062 -8.25389,-1.17204 -9.35522,-1.58867 -11.75931,-4.44857 -1.45888,-1.73548 -4.01601,-3.63074 -5.68252,-4.21169 -2.76699,-0.96458 -3.11326,-0.83729 -3.98911,1.46638 -3.05667,8.03964 -5.37262,12.40073 -6.5854,12.40073 -1.66777,0 -1.72806,1.71961 -0.26414,7.53336 l 1.11271,4.41899 14.13729,-0.56447 c 10.94554,-0.43704 15.83054,-1.10003 21.63728,-2.93659 4.125,-1.30467 10.32765,-2.49664 13.78367,-2.64883 5.54907,-0.24437 6.63877,-0.6431 9.32116,-3.41061 l 3.03748,-3.1339 -1.05376,-7.37897 c -1.61313,-11.29596 -2.82545,-14.49942 -7.62916,-20.15953 -2.43635,-2.8707 -7.0163,-8.36945 -10.17766,-12.21945 -3.16136,-3.85 -9.61505,-11.5 -14.34153,-17 -4.72648,-5.5 -11.20972,-13.375 -14.40718,-17.5 -7.72862,-9.97056 -26.56027,-29 -28.69858,-29 -0.93481,0 -1.97153,0.85658 -2.30381,1.9035 -0.74434,2.34519 -7.02942,5.46083 -9.63922,4.77835 -2.52906,-0.66136 -6.87403,5.62757 -11.91005,17.23869 -5.07598,11.70326 -12.66606,26.73042 -19.34154,38.2932 -3.04367,5.27203 -6.67683,13.39685 -8.14923,18.2241 -1.46132,4.79091 -4.86487,13.4391 -7.56345,19.2182 -3.94664,8.45185 -4.65995,10.754 -3.64619,11.76777 5.09288,5.09287 19.07441,7.62066 38.71905,7.00018 8.525,-0.26926 19.63656,-1.00135 24.69235,-1.62686 z m -21.69235,-6.78438 c 0,-0.61006 -2.76989,-0.77458 -7.25,-0.43061 -4.81767,0.36989 -8.75972,0.0924 -11.75,-0.82702 -4.25167,-1.3073 -4.49454,-1.57769 -4.40098,-4.89972 0.13021,-4.6239 3.75394,-12.37308 10.76211,-23.01428 5.90799,-8.97068 7.7576,-10.60791 9.5475,-8.45121 0.77047,0.92836 0.38624,2.17728 -1.42522,4.63257 -1.36404,1.84885 -2.09147,3.61264 -1.61652,3.91954 0.47495,0.30689 1.21273,1.68298 1.63952,3.05798 0.42678,1.375 1.74704,3.93392 2.93389,5.6865 1.91151,2.82263 2.27971,2.99391 3.2245,1.5 0.58661,-0.92758 4.0657,-3.21411 7.7313,-5.0812 3.6656,-1.86708 6.89864,-3.77319 7.18455,-4.23579 0.73746,-1.19324 -2.63685,-14.23285 -3.89126,-15.03727 -1.90926,-1.22437 -1.76722,-5.2357 0.28363,-8.00962 1.11484,-1.5079 2.02698,-3.16744 2.02698,-3.68787 0,-0.52043 2.8125,-2.3282 6.25,-4.01726 3.4375,-1.68906 7.8079,-3.97607 9.71201,-5.08225 2.10586,-1.22338 3.82218,-1.65105 4.38147,-1.09176 0.55929,0.55929 2.33113,0.16287 4.52319,-1.012 4.45782,-2.38926 6.01902,-2.43082 6.81671,-0.18148 0.34134,0.9625 1.29389,2.5341 2.11677,3.49245 2.02842,2.36233 3.20689,10.54928 2.36535,16.43238 -0.5547,3.87785 -1.07235,4.82517 -2.63665,4.82517 -1.53098,0 -1.97655,-0.74707 -2.08749,-3.5 -0.2433,-6.03796 -1.60619,-12.3941 -3.26971,-15.24912 -1.78528,-3.06397 -4.10122,-2.95498 -7.7361,0.36406 -1.13545,1.03678 -2.38826,1.88506 -2.78403,1.88506 -1.27964,0 -15.65152,10.1469 -15.65152,11.05035 0,0.48104 0.97024,3.46783 2.15609,6.6373 2.71604,7.25925 3.8357,12.17018 3.17015,13.90455 -0.28482,0.74225 -3.51225,3.21771 -7.17205,5.50103 -12.39238,7.7315 -14.30994,11.22351 -7.9649,14.50466 3.52483,1.82276 3.41326,4.75116 -0.19951,5.23679 -1.36938,0.18407 -2.91728,0.74657 -3.43978,1.25 -1.26212,1.21604 -3.55,1.16969 -3.55,-0.0719 z m -4.03895,-9.14856 c -1.30137,-4.5376 -1.96105,-4.71618 -1.96105,-0.53086 0,2.51306 0.44997,3.66667 1.43019,3.66667 1.1274,0 1.23979,-0.6639 0.53086,-3.13581 z m 22.03895,-54.85085 c -0.825,-0.47797 -2.2875,-1.11238 -3.25,-1.4098 -1.28048,-0.39568 -1.75,-1.60175 -1.75,-4.49523 0,-7.28897 9.70582,-13.70348 11.89043,-7.85831 0.88947,2.37986 0.0621,11.39968 -1.23866,13.50444 -0.87763,1.42002 -3.44466,1.53762 -5.65177,0.2589 z m 62.75,70.29733 c -0.9625,-0.25152 -2.5375,-0.25152 -3.5,0 -0.9625,0.25153 -0.175,0.45733 1.75,0.45733 1.925,0 2.7125,-0.2058 1.75,-0.45733 z m 15.99225,-3.53826 c 1.5789,-1.48329 4.09887,-2.40213 7.54209,-2.75 5.0852,-0.51376 5.1748,-0.58038 5.4105,-4.02241 0.1318,-1.925 0.4466,-4.62999 0.6996,-6.01108 1.0555,-5.76205 -8.71805,-25.32708 -13.22496,-26.47424 -1.68433,-0.42873 -3.17309,-2.45389 -5.36933,-7.30394 -4.20587,-9.28796 -8.11949,-13.99242 -12.29132,-14.77506 -1.85795,-0.34856 -4.15225,-1.48917 -5.09845,-2.53471 -0.94619,-1.04553 -2.19194,-1.90097 -2.76832,-1.90097 -0.57637,0 0.53094,1.6875 2.46069,3.75 1.92976,2.0625 5.24374,6 7.36441,8.75 2.12067,2.75 6.01129,7.25 8.64583,10 6.53093,6.81715 9.73646,14.2465 10.98954,25.47011 0.95064,8.51466 0.87875,9.32412 -1.1146,12.54942 -1.17193,1.89622 -3.28433,4.35506 -4.69421,5.46407 -1.40989,1.10902 -2.19425,2.0164 -1.74303,2.0164 0.45122,0 1.88743,-1.00241 3.19156,-2.22759 z M 346.7545,408.43373 c -0.39747,-1.51993 -0.76052,-1.736 -1.34039,-0.79775 -0.86061,1.39249 -0.32402,2.88228 1.03815,2.88228 0.46605,0 0.60206,-0.93804 0.30224,-2.08453 z m -62.51457,-36.91547 c 6.13779,-11.59897 5.93334,-11.84167 -1.28809,-1.529 -4.08695,5.83643 -12.46498,22.82724 -12.46498,25.27923 0,1.04557 7.33307,-11.61793 13.75307,-23.75023 z m 94.7234,-4.75 c -0.90014,-1.5125 -2.76555,-4.1 -4.14537,-5.75 -2.18241,-2.60976 -2.34684,-2.6748 -1.26404,-0.5 1.40564,2.8232 5.94089,9 6.60816,9 0.24082,0 -0.29862,-1.2375 -1.19875,-2.75 z m -71.97647,-40.86049 c 1.95876,-1.51499 1.95006,-1.54011 -0.42167,-1.2182 -1.33192,0.18078 -2.60692,0.89119 -2.83334,1.57869 -0.55267,1.67817 0.81502,1.5267 3.25501,-0.36049 z m 13.5,-4.54219 1.5,-2.24909 -3.29284,1.9418 c -1.81107,1.06799 -4.01578,3.04514 -4.89937,4.39366 l -1.60651,2.45185 3.39936,-2.14457 c 1.86965,-1.17951 4.07436,-3.15665 4.89936,-4.39365 z m 9.87244,1.41634 c -2.18077,-2.75899 -5.26415,-5.19424 -6.62244,-5.23039 -2.36665,-0.063 -1.24026,1.4954 3,4.15059 5.14195,3.2198 5.36698,3.28688 3.62244,1.0798 z m 237.3646,129.28504 c 0.1065,-2.44822 -0.1144,-4.75947 -0.4911,-5.13612 -0.5907,-0.5907 -8.1431,0.51455 -15.4959,2.26775 -1.7737,0.4229 -2.25,0.10437 -2.25,-1.50453 0,-2.27181 0.5531,-2.51359 10.4612,-4.57314 10.0054,-2.07977 13.3616,0.42518 12.0739,9.01171 -0.5139,3.42704 -1.0767,4.38563 -2.5747,4.38563 -1.6314,0 -1.8882,-0.66347 -1.7234,-4.4513 z m -409.70593,-0.72479 c -0.25456,-0.72815 -0.12226,-2.89891 0.29402,-4.82391 0.55172,-2.55135 1.28783,-3.5 2.71587,-3.5 1.97922,0 2.0555,0.42732 1.16031,6.5 -0.39626,2.68815 -3.40761,4.00521 -4.1702,1.82391 z M 526.1692,427.76826 c -0.6891,-1.18632 2.2713,-10.25 3.3479,-10.25 1.4124,0 1.1868,3.54474 -0.4792,7.53212 -1.4642,3.50437 -2.0754,4.08344 -2.8687,2.71788 z m -370.45983,-81.8067 c -1.22238,-0.85619 -2.22251,-1.9861 -2.22251,-2.5109 0,-0.52481 -0.96249,-3.0018 -2.13886,-5.50443 -1.4552,-3.09579 -1.81252,-4.87659 -1.1179,-5.57121 1.3958,-1.3958 4.98561,0.92677 5.67445,3.67132 0.29239,1.16497 1.67546,3.80367 3.07349,5.86378 3.53336,5.20671 1.67293,7.51267 -3.26867,4.05144 z m -56.166061,-4.10997 c 0.0769,-5.22302 2.119181,-10.83333 3.943561,-10.83333 2.18771,0 2.27883,3.31531 0.24525,8.92334 -2.26567,6.24809 -4.266111,7.16024 -4.188811,1.90999 z M 441.4869,312.29794 c 0,-3.35483 4.7961,-12.60023 7.2054,-13.88962 3.8207,-2.0448 3.6465,0.63928 -0.5212,8.0278 -4.4499,7.88885 -6.6842,9.84827 -6.6842,5.86182 z m 59.2675,0.97032 c -1.6539,-2.11522 -3.2152,-7.72283 -2.5981,-9.33105 0.9261,-2.41336 4.5861,-1.28349 5.0126,1.54739 0.2043,1.35649 1.0344,3.47815 1.8447,4.71482 0.8103,1.23666 1.4733,2.71431 1.4733,3.28366 0,1.46154 -4.5553,1.29084 -5.7325,-0.21482 z m -399.56098,-7.37678 c -0.89094,-0.89094 1.57877,-5.32858 5.73244,-10.3002 1.95856,-2.34424 3.56101,-4.43342 3.56101,-4.64263 0,-0.20922 -1.39558,-0.10127 -3.1013,0.23987 -2.6146,0.52292 -3.04617,0.33965 -2.75,-1.16782 0.19322,-0.98344 1.2513,-2.28631 2.3513,-2.89526 1.1,-0.60895 2.20641,-1.23859 2.4587,-1.39921 0.25228,-0.16062 0.70228,-2.41062 1,-5 0.47977,-4.17278 0.95947,-4.93187 4.21985,-6.67761 3.59878,-1.92694 3.72347,-1.929 5.74999,-0.095 1.1393,1.03105 2.07145,2.70489 2.07145,3.71965 0,2.34694 0.44356,2.31628 3.94542,-0.27276 2.66462,-1.97004 5.05458,-1.92011 5.05458,0.10558 0,0.47838 -1.52865,2.49062 -3.39699,4.47165 -3.181,3.37283 -3.32827,3.82576 -2.31626,7.1232 0.63505,2.06917 2.24214,4.2074 3.89699,5.18495 3.13214,1.8502 3.54336,3.01615 1.35935,3.85423 -1.01823,0.39073 -1.28169,1.43514 -0.875,3.46861 0.92983,4.64916 -1.96888,3.61308 -4.75285,-1.69879 -2.3505,-4.48481 -7.14419,-8.49605 -8.51506,-7.12518 -0.37436,0.37437 0.95745,2.49385 2.95958,4.70997 3.67144,4.06385 4.69507,7.0555 2.39024,6.98569 -0.6875,-0.0208 -2.825,-2.07482 -4.75,-4.56444 l -3.49999,-4.52659 -5.10288,5.56445 c -4.91885,5.36377 -6.34732,6.28091 -7.69057,4.93766 z m 16.29344,-27.06899 c 0,-1.78972 -0.46899,-2.36056 -1.73851,-2.11607 -1.89283,0.36453 -2.78031,3.01739 -1.83422,5.48288 0.88234,2.29934 3.57273,-0.23598 3.57273,-3.36681 z m 34.82875,23.09595 c -1.21283,-1.21283 -2.07559,-1.36142 -3.44739,-0.59372 -2.78669,1.55951 -5.04164,-0.2122 -7.86442,-6.17907 -1.38432,-2.9262 -2.51694,-5.57431 -2.51694,-5.88468 0,-0.31036 1.98888,-1.5271 4.41973,-2.70385 3.13416,-1.51722 4.73776,-3.05187 5.51312,-5.27608 0.79087,-2.2687 1.39578,-2.83415 2.18626,-2.04367 0.79048,0.79048 2.65448,0.15119 6.73688,-2.31055 3.1042,-1.87188 6.43151,-3.40458 7.39401,-3.40599 3.15204,-0.005 1.93537,4.31987 -2.7091,9.6292 -3.87452,4.42916 -4.38924,5.54125 -3.92617,8.48283 0.5693,3.61644 -1.43903,11.0116 -3.14152,11.5678 -0.56473,0.1845 -1.75474,-0.3925 -2.64446,-1.28222 z m -3.43574,-5.98197 c 0.95235,-2.48178 0.72387,-3.41821 -0.83399,-3.41821 -1.89319,0 -2.71427,1.43185 -1.95528,3.40976 0.77946,2.03122 2.01163,2.03496 2.78927,0.008 z m 6.60699,0.0228 c 0,-0.85746 -0.45,-1.2809 -1,-0.94098 -0.55,0.33992 -1,1.04148 -1,1.55902 0,0.51754 0.45,0.94098 1,0.94098 0.55,0 1,-0.70156 1,-1.55902 z m 81.02151,3.59921 c -1.56188,-2.91843 -5.02151,-16.79491 -5.02151,-20.14117 0,-3.13605 1.80604,-4.83092 3.03274,-2.84607 0.44503,0.72006 1.35452,4.26521 2.0211,7.87811 0.66658,3.6129 1.73918,7.60422 2.38357,8.86961 1.10606,2.17198 1.30842,1.95198 3.6171,-3.93252 1.34502,-3.42827 3.01439,-6.41571 3.70972,-6.63877 0.72242,-0.23175 1.94205,1.23929 2.84585,3.43251 2.9449,7.1463 8.26133,10.72153 9.83704,6.61528 0.36361,-0.94754 0.60796,-5.78504 0.54302,-10.75 -0.065,-4.96496 -0.0893,-9.621 -0.0541,-10.34675 0.038,-0.7842 0.97681,-1.18991 2.31397,-1 2.18497,0.31031 2.25,0.65326 2.25,11.86591 0,9.37049 -0.33413,12.05585 -1.77305,14.25 -2.80649,4.27947 -8.80287,3.38422 -13.34579,-1.9925 l -2.11885,-2.50773 -2.39618,4.35193 c -2.7446,4.98473 -6.0688,6.21028 -7.84462,2.89213 z m 63.32558,0.42193 c -0.34743,-0.90539 1.31058,-4.39631 4.03138,-8.48802 2.54184,-3.82257 4.62153,-7.17191 4.62153,-7.44298 0,-0.27107 -1.94294,-0.22655 -4.31764,0.0989 -3.20623,0.43946 -4.7257,0.18374 -5.90288,-0.99343 -1.42892,-1.42893 -1.6441,-1.4318 -2.18235,-0.0291 -0.32842,0.85584 -0.59713,2.78327 -0.59713,4.28317 0,1.49989 -0.58618,3.52872 -1.30261,4.50851 -1.21161,1.65697 -1.39917,1.66509 -2.68461,0.11623 -1.15121,-1.38712 -1.17284,-2.69641 -0.12955,-7.8403 2.42418,-11.9523 9.95153,-24.12686 14.51444,-23.4753 3.32854,0.4753 3.09479,4.2308 -0.76986,12.36864 -2.12315,4.47075 -3.05085,7.42683 -2.32852,7.41969 0.66039,-0.007 3.54574,-0.63619 6.41188,-1.39924 8.49634,-2.26199 8.53998,-0.67806 0.32478,11.78664 -3.85129,5.84346 -7.47403,10.62447 -8.05053,10.62447 -0.57651,0 -1.31375,-0.69205 -1.63833,-1.53788 z m 257.25515,-1.12763 c -2.5315,-3.4716 -2.7399,-9.63783 -0.3422,-10.12637 1.2838,-0.2616 1.9251,0.46718 2.3705,2.69421 0.3358,1.67905 1.2313,3.56801 1.99,4.19769 0.7587,0.62968 1.3795,2.21477 1.3795,3.52242 0,3.22751 -2.9491,3.07018 -5.3978,-0.28795 z m -233.93557,0.99884 c -1.29586,-1.29585 -0.63261,-3.52249 2.33333,-7.83333 1.65,-2.39819 3,-4.83263 3,-5.40985 0,-0.57723 -1.78495,-1.96012 -3.96656,-3.07309 -4.85174,-2.47517 -6.37829,-4.97985 -5.09396,-8.35787 2.00587,-5.27584 13.12414,-13.99557 15.19933,-11.92038 0.54535,0.54535 -1.3009,3.11894 -4.6149,6.43293 -5.81547,5.81548 -6.77706,8.29575 -3.60637,9.30209 3.48395,1.10576 7.08246,4.63378 7.08246,6.94371 0,2.40575 -7.35784,14.58246 -8.81153,14.58246 -0.47032,0 -1.15514,-0.3 -1.5218,-0.66667 z m -149.27819,-2.76334 c -0.30181,-0.7865 0.22564,-3.0619 1.17212,-5.05644 3.14865,-6.6353 11.62342,-11.09098 16.31723,-8.57893 1.92578,1.03064 2.12359,0.878 2.13748,-1.64944 0.0205,-3.72283 1.40499,-5.72161 3.42606,-4.94605 1.40593,0.5395 1.60274,2.14898 1.36292,11.14571 -0.15555,5.83537 -0.70634,10.51516 -1.23758,10.51516 -0.5265,0 -2.16292,-1.15509 -3.6365,-2.56686 l -2.67922,-2.56686 -7.64655,2.56686 c -8.97416,3.01252 -8.51779,2.95623 -9.21596,1.13685 z m 15.34069,-10.17416 c -0.33229,-0.33229 -1.1948,-0.36781 -1.91667,-0.0789 -0.79773,0.31922 -0.56078,0.55618 0.60417,0.60416 1.05416,0.0434 1.64479,-0.19293 1.3125,-0.52522 z m 84.02081,7.52406 c -7.2382,-4.21587 -5.33454,-20.04301 3.2829,-27.2941 5.88437,-4.95138 8.41103,-2.96642 3.35198,2.63334 -4.37115,4.83833 -6.38486,9.42843 -6.38486,14.55376 0,4.67041 2.1193,6.90099 6.99181,7.35893 2.3668,0.22245 3.59862,0.892 3.82332,2.07818 0.27919,1.47378 -0.42978,1.7452 -4.49181,1.71959 -2.65282,-0.0167 -5.61083,-0.48909 -6.57334,-1.0497 z m 67.90501,-4.74863 c -2.36272,-2.61078 -2.07135,-9.17434 0.68332,-15.39275 4.35503,-9.83108 9.14861,-10.51897 5.42509,-0.77851 -1.15637,3.025 -2.2896,8.3125 -2.51828,11.75 -0.44323,6.66272 -0.97216,7.31409 -3.59013,4.42126 z M 276.0512,285.6224 c -0.9002,-1.45655 7.36506,-7.57471 8.58496,-6.35481 0.69317,0.69317 -0.0483,1.81044 -2.31471,3.48776 -4.74757,3.5136 -5.62321,3.91398 -6.27025,2.86705 z m 111.67166,-0.75859 c -1.87384,-0.92367 -3.52362,-2.64332 -3.87357,-4.03763 -0.81492,-3.24691 0.0907,-9.5053 1.90037,-13.13289 l 1.46922,-2.94513 -4.11601,-0.53847 c -2.26381,-0.29616 -6.7508,-1.1257 -9.97111,-1.84343 -5.7868,-1.28974 -5.88011,-1.27481 -8,1.27957 -1.17969,1.42149 -2.65462,3.4368 -3.27762,4.47848 -2.351,3.93099 -2.7011,0.0872 -0.38902,-4.27115 3.3953,-6.4002 5.26366,-7.00406 15.09703,-4.87944 8.60944,1.86018 13.15789,1.54848 16.08712,-1.10244 0.9865,-0.89277 2.81603,-1.745 4.06562,-1.89383 1.24958,-0.14884 3.39697,-0.69843 4.77197,-1.22132 1.375,-0.52289 3.0625,-0.75282 3.75,-0.51096 2.57294,0.90518 1.10826,2.99741 -3,4.2853 -6.38838,2.00269 -10.35415,5.3844 -12.30509,10.49288 -0.95351,2.49672 -1.55619,4.71579 -1.33928,4.93125 0.2169,0.21547 2.86937,-0.6765 5.89437,-1.98213 6.13741,-2.64901 9.37852,-3.09489 8.75332,-1.20421 -0.72328,2.18728 -9.64457,7.05745 -12.76547,6.96872 -2.58702,-0.0736 -2.85643,0.15833 -2.01361,1.73315 0.53515,0.99994 2.21986,2.13101 3.74379,2.5135 3.37652,0.84745 5.45043,2.45305 4.71194,3.64794 -0.86136,1.39371 -5.61417,0.99681 -9.19397,-0.76776 z m 103.11764,-1.61919 c -1.5695,-1.8005 -3.6169,-4.388 -4.5497,-5.75 l -1.6961,-2.47636 -2.6264,3.25 c -1.4445,1.7875 -3.1208,3.25 -3.7252,3.25 -0.6043,0 -1.9323,0.75437 -2.9511,1.67637 -1.2514,1.1325 -2.1812,1.34755 -2.8659,0.66284 -1.3099,-1.30986 0.109,-5.09552 4.0648,-10.84505 1.6478,-2.39498 2.996,-4.73727 2.996,-5.2051 0,-0.46782 -1.3912,-1.37567 -3.0914,-2.01745 -4.4679,-1.68644 -2.8384,-3.26792 2.2006,-2.13573 3.6827,0.82745 4.4899,0.64451 7.5905,-1.72039 3.9466,-3.01029 6.3164,-2.18264 4.3375,1.51492 -1.4393,2.68943 -0.7502,4.89746 3.0023,9.61934 4.4984,5.66049 3.9014,8.57341 -0.8608,4.20025 l -2.4502,-2.25 1.2607,2.5 c 0.6934,1.375 2.1516,3.47919 3.2405,4.67597 1.8421,2.02468 1.7437,4.32403 -0.1852,4.32403 -0.4605,0 -2.1215,-1.47314 -3.6909,-3.27364 z M 363.47204,283.0004 c -2.50427,-3.01745 0.68975,-19.78714 3.51482,-18.45403 1.0736,0.50662 1.1329,3.27864 0.25612,11.97189 -0.30509,3.025 -0.60003,6.0625 -0.65542,6.75 -0.13682,1.69832 -1.58723,1.57362 -3.11552,-0.26786 z m 75.89526,-6.36151 c -1.314,-1.03366 -3.2872,-2.05232 -4.3848,-2.2637 -1.3549,-0.26093 -1.9956,-1.18119 -1.9956,-2.86628 0,-1.90502 1.6213,-3.69882 6.9748,-7.71687 3.8362,-2.8792 8.2495,-5.67922 9.8072,-6.22226 2.6063,-0.90856 3.1855,-0.61087 7.2582,3.73056 5.0094,5.3399 5.3019,6.18495 2.4032,6.94296 -1.2932,0.33818 -1.8484,1.08029 -1.4957,1.99928 0.3084,0.80382 0.8327,2.54468 1.1649,3.86858 0.8434,3.36003 -1.8744,3.19156 -4.3979,-0.27262 l -1.952,-2.67972 -1.161,2.16937 c -1.2079,2.257 -5.9647,5.19007 -8.4172,5.19007 -0.7782,0 -2.49,-0.84572 -3.8041,-1.87937 z m 9.5495,-10.00732 c 0.3014,-0.48768 -0.122,-1.44278 -0.9409,-2.12245 -1.2392,-1.02837 -1.489,-0.87956 -1.489,0.8867 0,2.14536 1.4211,2.86807 2.4299,1.23575 z m 72.6387,9.2222 c -1.307,-0.91548 -4.2197,-1.70298 -6.4725,-1.75 -3.5049,-0.0732 -4.144,-0.42372 -4.4279,-2.4286 -0.4244,-2.99753 7.3144,-10.66473 11.747,-11.63828 2.5967,-0.57034 3.0848,-1.14461 3.0848,-3.62947 0,-1.78416 0.6333,-3.19496 1.6009,-3.56626 2.1741,-0.83427 3.3263,1.35085 2.7111,5.14157 -0.3347,2.0627 0.3567,5.17253 2.02,9.08582 2.2662,5.3317 2.3702,6.10552 1.0007,7.44971 -1.3599,1.33484 -1.655,1.29426 -2.6804,-0.36856 -3.2579,-5.28297 -4.3504,-6.12692 -6.0766,-4.6943 -1.5167,1.25872 -1.4422,1.59276 0.8994,4.0369 3.7265,3.88959 1.238,5.61463 -3.4065,2.36147 z m -2.0686,-8.37069 c 0,-1.42064 -0.4787,-1.20285 -2.595,1.18069 -1.8948,2.13401 -1.893,2.13918 0.345,0.96482 1.2375,-0.64939 2.25,-1.61486 2.25,-2.14551 z m 44.0717,8.37286 c -1.9204,-1.34508 -2.9278,-1.453 -5.279,-0.56553 -2.3825,0.89929 -3.0119,0.8203 -3.4949,-0.4386 -0.3241,-0.84447 -0.029,-1.88179 0.6563,-2.30515 0.9274,-0.5732 0.5178,-1.88801 -1.6043,-5.14908 -1.5674,-2.40863 -3.1901,-4.53025 -3.606,-4.71473 -1.1003,-0.48798 0.1567,-2.16459 1.6227,-2.16459 0.6867,0 2.6999,2.05911 4.4738,4.57579 l 3.2253,4.57579 4.7172,-2.70435 c 2.5945,-1.4874 6.3641,-4.27316 8.3769,-6.1906 4.5277,-4.31306 6.1681,-3.62561 5.2919,2.21767 -0.3756,2.5049 -0.186,5.15345 0.4547,6.35064 1.3082,2.44436 -0.2565,3.95927 -2.3202,2.24649 -1.0226,-0.84869 -1.9402,-0.29592 -4.0071,2.41391 -2.9719,3.8964 -4.9684,4.33109 -8.5073,1.85234 z m 6.4026,-4.28802 c 2.1577,-4.1724 1.9634,-4.35176 -1.9593,-1.80885 -3.1294,2.02864 -3.314,2.38675 -1.8089,3.50919 2.1815,1.62687 2.0069,1.70565 3.7682,-1.70034 z m -414.47434,-20.2199 c 0,-3.91968 5.82153,-16.82976 7.58902,-16.82976 2.55682,0 2.45458,2.06685 -0.43175,8.72837 -1.61372,3.7244 -3.23959,7.78413 -3.61304,9.02163 -1.04785,3.47223 -3.54423,2.82405 -3.54423,-0.92024 z m -70.487311,-6.57976 c -1.92871,-2.6125 -3.39558,-5.6454 -3.25971,-6.73978 0.29756,-2.39677 3.74703,-3.39426 3.74703,-1.08354 0,0.86532 0.35298,1.57332 0.78439,1.57332 0.43142,0 1.56138,1.31534 2.51103,2.92297 1.04634,1.77131 2.90431,3.18162 4.71561,3.57945 5.17864,1.13742 3.24879,4.49758 -2.5831,4.49758 -1.71445,0 -3.41902,-1.36878 -5.91525,-4.75 z m 443.153951,2.08333 c -1.1742,-1.1742 -0.7198,-4.86557 1.3334,-10.83333 1.1,-3.19721 2,-7.26255 2,-9.03411 0,-1.77155 0.6637,-3.77189 1.475,-4.4452 1.216,-1.00918 1.6834,-0.76707 2.6609,1.37841 0.9724,2.13416 0.8111,3.99741 -0.8962,10.35176 -3.3709,12.54609 -4.4822,14.67337 -6.5731,12.58247 z m -51.1817,-8.35773 c -1.5279,-2.47214 2.5047,-12.9756 4.9817,-12.9756 2.4681,0 2.7316,1.90959 0.9348,6.77369 -2.531,6.8518 -4.3418,8.74993 -5.9165,6.20191 z M 229.98686,157.86542 c -5.29176,-1.12624 -7.5403,-2.14349 -9.21404,-4.16848 -2.00296,-2.42331 -2.98061,-5.17868 -1.83748,-5.17868 0.24666,0 1.57392,1.04303 2.94946,2.31784 7.89712,7.3188 38.70628,6.13435 101.39301,-3.89803 5.11002,-0.81781 17.26002,-1.91381 27,-2.43556 15.07175,-0.80735 37.0367,-3.02146 55.38211,-5.58261 5.41838,-0.75645 5.21788,-0.32327 6.91438,-14.93792 0.6362,-5.48005 1.5676,-10.75122 2.0698,-11.71372 1.515,-2.90353 2.8414,-1.97781 2.8655,2 l 0.023,3.75 1.566,-3.17531 c 0.8613,-1.74643 2.4667,-3.99045 3.5675,-4.98673 1.9347,-1.75085 2.0488,-1.74696 3.4113,0.11644 2.3013,3.14717 1.6954,7.85113 -1.5966,12.39556 -1.6534,2.28252 -3.661,4.15004 -4.4612,4.15004 -0.8882,0 -2.0545,2.01868 -2.9938,5.1815 -0.8463,2.84983 -1.5387,5.25992 -1.5387,5.35577 0,0.0958 3.3621,-0.41039 7.4714,-1.12498 4.1093,-0.71459 16.3428,-2.01384 27.1855,-2.88723 10.8427,-0.8734 20.193,-1.9909 20.7785,-2.48334 0.5855,-0.49245 1.9138,-2.48621 2.9516,-4.43059 1.6189,-3.03277 1.7102,-3.96235 0.6424,-6.54025 l -1.2448,-3.00501 -4.6343,2.46707 c -5.3448,2.84525 -11.8909,3.30673 -12.8131,0.90329 -1.3919,-3.62717 4.5502,-10.18413 8.0219,-8.85193 1.9879,0.76285 2.1925,3.4157 0.2633,3.4157 -0.7576,0 -1.9377,0.675 -2.6224,1.5 -2.0582,2.47997 1.5105,1.87116 6.6348,-1.13187 3.7691,-2.20881 4.8827,-2.45337 6.9281,-1.52144 1.3404,0.61074 2.4371,1.70508 2.4371,2.43187 0,3.42251 2.2066,3.45111 7.7705,0.10074 3.0865,-1.85862 6.1491,-3.3793 6.8057,-3.3793 0.6566,0 1.9046,-1.08484 2.7734,-2.41076 1.7021,-2.59776 7.8148,-5.12388 10.1916,-4.21179 2.4879,0.95467 1.6427,4.40082 -1.5403,6.2811 -2.1192,1.25184 -2.8325,2.29676 -2.4311,3.56146 0.7655,2.41194 -2.0547,3.39363 -5.0871,1.77075 -1.9386,-1.03751 -2.997,-1.02974 -5.6825,0.0417 -6.5469,2.61207 -8.8002,4.82504 -8.8002,8.6426 0,2.6154 0.3638,3.39929 1.3941,3.00392 4.1857,-1.60621 29.0226,-3.88448 37.1082,-3.40391 4.9513,0.29429 11.0678,0.30226 13.5923,0.0177 l 4.5899,-0.51735 -2.3422,-2.34227 c -1.2883,-1.28822 -2.3423,-3.06004 -2.3423,-3.93736 0,-4.4114 8.1009,-13.49579 12.0348,-13.49579 2.9047,0 2.3856,2.32043 -0.9614,4.29756 -3.5471,2.09529 -7.3191,7.89855 -6.508,10.01238 0.3241,0.84448 1.2761,1.79901 2.1156,2.12117 0.883,0.33884 1.2765,1.23725 0.9334,2.1313 -0.5208,1.35716 1.0207,1.50057 12.6463,1.17655 10.7244,-0.29891 29.932,-2.93309 31.6081,-4.33484 0.2029,-0.16965 -0.4397,-2.26342 -1.428,-4.65281 l -1.7968,-4.34435 -4.6391,2.47371 c -5.4161,2.88808 -7.558,2.43066 -8.4901,-1.8131 -0.8442,-3.84378 -2.5148,-4.01295 -2.5148,-0.25466 0,3.4235 -4.2841,7.8346 -8.8928,9.15635 -8.8585,2.54057 -12.317,-6.22381 -4.1272,-10.45891 5.919,-3.06083 8.188,-1.19029 3.02,2.48965 -1.65,1.1749 -3,2.55555 -3,3.06809 0,1.90415 5.1754,0.84739 7.5681,-1.54533 2.0733,-2.07328 2.2848,-2.78548 1.2968,-4.36753 -2.1054,-3.37126 -0.4002,-5.30857 4.3685,-4.96317 3.506,0.25393 4.4822,0.7911 5.566,3.0627 1.1566,2.42421 1.5775,2.61828 3.5075,1.61732 4.4611,-2.31373 4.5529,-2.6269 2.4458,-8.34696 -2.067,-5.611183 -1.8613,-8.525123 0.602,-8.525123 1.4655,0 4.6453,5.67088 4.6453,8.284503 0,0.81523 0.9,1.71759 2,2.00525 1.3388,0.35011 2,1.36401 2,3.06694 0,1.39916 0.7424,2.95938 1.6497,3.46715 1.092,0.61114 1.4546,1.66916 1.0727,3.12988 -0.3174,1.21366 0.078,4.06304 0.8784,6.33195 1.9586,5.55115 1.3079,6.70394 -3.8194,6.76694 -4.8705,0.0598 -17.8112,2.22972 -19.4917,3.26835 -0.6139,0.37943 -14.3178,0.71076 -30.453,0.73629 -30.7875,0.0487 -53.4509,1.84352 -57.3367,4.54073 -1.1,0.76352 -3.0653,2.15625 -4.3673,3.09496 -2.2526,1.62409 -2.4377,1.61231 -3.8206,-0.24309 -0.7993,-1.07242 -1.8268,-1.85226 -2.2833,-1.73299 -0.4565,0.11927 -7.9622,0.70307 -16.6794,1.29733 -15.9087,1.08452 -35.5477,3.49496 -38.3494,4.70692 -0.825,0.35687 -2.85,0.74293 -4.5,0.85792 -1.65,0.11498 -13.35004,1.3502 -26.00004,2.74492 -12.65,1.39473 -29.02248,2.79721 -36.38329,3.11664 -7.3608,0.31942 -20.8608,1.71712 -30,3.10599 -26.19252,3.98045 -29.32056,4.38165 -46.45411,5.95815 -19.91538,1.83245 -32.03008,1.78608 -41.1626,-0.15757 z M 423.403,116.01826 c 0,-0.55 -0.8622,0.575 -1.9161,2.5 -1.0539,1.925 -1.9162,3.95 -1.9162,4.5 0,0.55 0.8623,-0.575 1.9162,-2.5 1.0539,-1.925 1.9161,-3.95 1.9161,-4.5 z m -323.539921,37.038 c -0.64057,-1.66931 7.636961,-11.39768 13.646181,-16.038 2.13675,-1.65 3.90583,-3.29009 3.9313,-3.64465 0.0441,-0.61383 -14.52039,-7.98218 -18.203691,-9.20947 -2.27589,-0.75834 -2.22928,-2.31901 0.10659,-3.56913 1.461351,-0.78209 3.976601,0.11517 11.815201,4.21482 14.89579,7.79062 14.09905,7.13697 12.31865,10.10612 -1.95964,3.26806 -20.10068,19.60087 -21.77182,19.60169 -0.70477,3.4e-4 -1.53385,-0.65728 -1.842411,-1.46138 z m -27.93986,-1.44429 c -1.08502,-1.01854 -13.45078,-6.23717 -14.93635,-6.30347 -0.55,-0.0245 -1.66316,0.12511 -2.47369,0.33257 -1.12633,0.28828 -1.49511,-0.68138 -1.56461,-4.11385 -0.096,-4.74161 0.34628,-5.37223 12.7487,-18.17792 3.59254,-3.70935 5.7896,-4.81275 5.7896,-2.90764 0,0.90273 -4.48201,7.10304 -10.1595,14.05444 -3.2688,4.00224 -3.57052,5.84498 -1.0905,6.66014 7.72047,2.53767 15.22444,5.85302 15.62798,6.90464 0.64281,1.67513 -2.71627,4.70139 -3.94163,3.55109 z M 268.93664,151.437 c -0.36754,-0.59469 0.47123,-2.28219 1.86394,-3.75 1.39271,-1.46781 3.20216,-4.46874 4.021,-6.66874 1.58134,-4.24861 2.89235,-10.5 2.202,-10.5 -0.22731,0 -1.90356,1.36654 -3.725,3.03676 -3.95981,3.63103 -7.65875,4.81444 -8.90374,2.84859 -1.01407,-1.60122 -1.18844,-6.99092 -0.30099,-9.30356 1.11744,-2.912 2.39301,-1.62299 2.39301,2.41821 0,2.2 0.40977,4 0.91059,4 0.50082,0 3.16282,-2.30004 5.91556,-5.1112 2.75273,-2.81117 5.49297,-4.80961 6.08941,-4.44099 1.58652,0.98053 1.32337,10.38462 -0.45849,16.38478 -1.42959,4.81396 -6.56761,12.16741 -8.50165,12.16741 -0.46056,0 -1.1381,-0.48657 -1.50564,-1.08126 z m -107.85413,-3.76398 c -0.35737,-0.57823 -4.27937,-0.78744 -9.59064,-0.51157 -8.4945,0.44119 -9.11907,0.33365 -11.41875,-1.96602 -3.57324,-3.57324 -5.18411,-9.75422 -3.75998,-14.42717 1.99339,-6.54085 4.90628,-10.20644 9.76598,-12.28955 6.07979,-2.6061 8.26181,-2.47444 11.57347,0.69833 2.40379,2.30298 2.86036,2.4368 3.41171,1 0.796,-2.07434 3.7688,-2.15144 5.4373,-0.14102 1.78079,2.14572 0.55513,11.35682 -1.82833,13.74027 -1.81435,1.81436 -2.002,1.7983 -7.52359,-0.6436 -3.11455,-1.37741 -5.66282,-2.99326 -5.66282,-3.59079 0,-1.90964 2.49921,-2.13083 6.27075,-0.55498 4.52098,1.88899 4.72925,1.89037 4.72925,0.0313 0,-0.825 -0.43434,-1.5 -0.9652,-1.5 -0.53087,0 -2.59841,-1.43397 -4.59454,-3.1866 -3.58631,-3.14882 -3.6782,-3.16956 -7.7522,-1.75 -5.10881,1.78015 -8.68806,6.713 -8.68806,11.9737 0,5.96765 2.30426,7.78898 10.30992,8.14912 6.25848,0.28155 6.96643,0.10422 8.74264,-2.18993 1.59219,-2.05646 2.09776,-2.24175 2.8694,-1.05164 0.51517,0.79456 0.73563,3.01491 0.48991,4.93411 -0.50225,3.92289 -0.93453,4.70261 -1.81622,3.276 z m 71.95381,-7.92958 c -0.66781,-3.04052 0.62208,-10.3128 2.59864,-14.65088 0.7391,-1.62215 1.9809,-2.5743 3.35743,-2.5743 2.49328,0 5.49447,2.87843 5.49447,5.26972 0,3.11722 2.12945,2.86513 6.57602,-0.7785 6.25936,-5.12908 7.42398,-4.34826 7.42398,4.9774 0,5.8908 -0.31389,7.53138 -1.44098,7.53138 -1.96766,0 -2.7431,-1.51062 -2.85811,-5.56776 -0.0535,-1.88773 -0.237,-3.43224 -0.40776,-3.43224 -0.17076,0 -2.17409,1.35 -4.45185,3 -2.27776,1.65 -4.74238,3 -5.47694,3 -0.75319,0 -1.84204,-2.01141 -2.49708,-4.6128 -0.97394,-3.86787 -1.32366,-4.32308 -2.16553,-2.81874 -0.55221,0.98674 -1.27351,4.29457 -1.60288,7.35072 -0.43875,4.07093 -1.04227,5.64161 -2.25719,5.8744 -1.13369,0.21723 -1.85886,-0.59532 -2.29222,-2.5684 z m -26.60342,1.60815 c -0.0297,-0.18333 -0.22074,-5.19711 -0.42458,-11.14173 -0.50666,-14.7762 0.40547,-16.84637 8.41244,-19.09302 12.69676,-3.56253 21.35454,-4.63849 45.0661,-5.6007 13.475,-0.54681 29.225,-1.49896 35,-2.1159 5.775,-0.61693 20.4,-1.09426 32.5,-1.06072 27.09558,0.0751 86.72984,-2.29286 112.69204,-4.474773 10.6194,-0.89247 30.108,-1.72011 43.308,-1.83921 21.507,-0.19403 26.5969,-0.58839 49,-3.79646 31.6269,-4.5289 36.6665,-5.0528 40.5017,-4.21045 2.3964,0.52633 3.0425,1.15109 2.8058,2.71311 -0.2818,1.8595 -1.1443,2.05437 -10.3075,2.32869 -5.5,0.16466 -19.45,1.73481 -31,3.48922 -18.2998,2.77968 -24.8576,3.29002 -51,3.968923 -16.5,0.42849 -39,1.49062 -50,2.36028 -28.58949,2.26027 -75.29761,3.98668 -101.50004,3.7516 -12.375,-0.11103 -27.675,0.30422 -34,0.92277 -6.325,0.61855 -23.2,1.48644 -37.5,1.92866 -20.61781,0.63759 -28.32883,1.27207 -37.25,3.06501 l -11.25,2.26098 -0.0554,3.60519 c -0.11748,7.63905 -2.53101,22.46735 -3.72149,22.86418 -0.67269,0.22423 -1.24735,0.25769 -1.27703,0.0743 z m 1.74695,-21.5643 c -0.25354,-0.97297 -0.47766,-0.41903 -0.49804,1.23097 -0.0204,1.65 0.18706,2.44606 0.46099,1.76903 0.27392,-0.67703 0.29059,-2.02703 0.0371,-3 z m 77.63128,19.13363 c -0.3971,-1.03483 0.4063,-2.43079 2.28139,-3.96404 2.69975,-2.20758 5.39434,-3.15116 5.39434,-1.88896 0,1.57235 -3.13953,6.2899 -4.5448,6.82916 -2.27077,0.87137 -2.44251,0.81783 -3.13093,-0.97616 z m 20.07452,-1.94987 c -1.21477,-4.84004 1.83916,-18.45279 4.13975,-18.45279 1.65823,0 1.83315,3.12751 0.54694,9.77865 l -0.82741,4.27865 3.12096,-2.55217 c 4.42044,-3.6148 9.18464,-5.88654 10.93578,-5.21457 3.4774,1.33441 2.63278,14.70944 -0.92888,14.70944 -1.19429,0 -1.47573,-0.99611 -1.26226,-4.46747 0.1511,-2.45711 0.002,-4.74048 -0.33198,-5.07417 -0.33369,-0.33369 -3.12809,1.67667 -6.20978,4.46747 -6.28859,5.69497 -8.25237,6.23535 -9.18312,2.52696 z m 26.60121,0.54721 c -1.1,-1.1 -2,-2.91445 -2,-4.03212 0,-2.88468 2.38824,-8.07479 4.94206,-10.74005 3.45229,-3.60294 4.44571,-1.56522 1.60231,3.28668 -1.39941,2.38789 -2.54437,5.499 -2.54437,6.91356 0,5.4285 9.09578,2.02283 10.59956,-3.96873 0.67353,-2.68357 -0.96468,-5.45934 -3.222,-5.45934 -0.75766,0 -1.37756,-0.62686 -1.37756,-1.39301 0,-2.47703 2.903,-2.59449 5.65334,-0.22875 4.78452,4.11547 2.92707,11.46787 -3.95767,15.66576 -4.08504,2.49081 -7.17488,2.47679 -9.69567,-0.044 z m 22.52806,-3.9546 c -0.32448,-0.52502 0.9434,-3.11252 2.81751,-5.75 1.87412,-2.63747 4.14961,-6.2579 5.05664,-8.0454 1.07602,-2.12052 2.38328,-3.25 3.76157,-3.25 2.00531,0 2.07805,0.33542 1.43464,6.61546 l -0.67778,6.61545 4.12717,-3.36545 c 6.66382,-5.43395 7.84142,-6.12194 9.43311,-5.51116 1.00293,0.38487 1.39793,1.59851 1.17702,3.61642 -0.41187,3.76226 -1.21805,4.63924 -2.94622,3.20499 -1.01995,-0.84648 -2.15102,-0.44278 -4.77417,1.70401 -6.95116,5.68884 -9.45091,6.28244 -11.1112,2.6385 l -1.13078,-2.48178 -2.30004,2.48178 c -2.4377,2.63032 -3.90179,3.08969 -4.86747,1.52718 z m 39.94842,-3.44095 c -0.86329,-1.31755 -2.48426,-2.63473 -3.60216,-2.92706 -1.42871,-0.37362 -1.93477,-1.19835 -1.70343,-2.77613 0.40369,-2.75327 2.80189,-3.77433 2.89975,-1.23459 0.0411,1.06592 0.82276,0.15898 1.86746,-2.16667 2.46871,-5.49572 5.65399,-8.25598 7.87044,-6.82027 2.90229,1.87998 1.88259,7.36326 -1.98128,10.65399 l -3.32726,2.83372 2.25,1.53825 c 2.94339,2.01231 2.85508,3.29431 -0.22695,3.29431 -1.50979,0 -3.08982,-0.93537 -4.04657,-2.39555 z m 38.58106,-3.03513 c -1.5545,-1.87305 -1.6509,-6.59212 -0.1904,-9.32109 1.6611,-3.10369 7.2687,-7.12539 10.9664,-7.86493 4.2266,-0.84533 4.015,0.70495 -0.4225,3.09468 -6.108,3.2894 -9.6325,10.03107 -6.3157,12.08095 1.8083,1.11759 5.661,-1.60305 6.2637,-4.42325 0.3098,-1.44962 1.4742,-4.09818 2.5875,-5.88568 3.6687,-5.89072 7.7534,-3.03807 4.7296,3.30303 -0.9715,2.03712 -1.2255,3.60746 -0.6419,3.96813 1.7675,1.09235 0.9981,2.43287 -1.7842,3.10898 -1.5125,0.36754 -3.6377,1.27611 -4.7225,2.01906 -2.5967,1.77821 -8.9683,1.7296 -10.47,-0.0799 z m 88.6091,-6.23599 c -1.1187,-1.11872 -0.7424,-6.8576 0.5334,-8.13333 0.66,-0.66 2.0688,-1.2 3.1308,-1.2 1.6747,0 1.8486,0.49743 1.311,3.75 -0.3409,2.0625 -0.6248,4.3125 -0.6308,5 -0.011,1.30799 -3.1926,1.73512 -4.3444,0.58333 z M 26.736868,21.804184 c -1.821489,-0.65952 -1.52874,-2.964991 0.47409,-3.733549 0.94826,-0.363879 7.36076,-0.875671 14.25,-1.137317 6.889251,-0.261645 17.475911,-1.172671 23.525911,-2.024501 6.05,-0.85183 13.925,-1.944238 17.5,-2.427574 3.575,-0.483337 14.375,-1.155885 24.000001,-1.494552 9.62499,-0.338667 24.69999,-1.4786584 33.49999,-2.5333134 20.78062,-2.4905 23.88095,-2.538927 76.61889,-1.196793 47.0101,1.196366 48.44066,1.142907 85.38111,-3.1906 53.34704,-6.258174 106.56924,-9.4856557 169.00004,-10.2484437 34.8799,-0.426167 44.8819,-0.226347 59,1.178704 9.35,0.930526 25.55,2.0585897 36,2.5068077 18.1239,0.777367 24.5,1.80051103 24.5,3.931433 0,0.531154 -0.5625,1.323742 -1.25,1.761308 -2.0859,1.327607 -25.0463,0.357859 -46.75,-1.974516 -28.4706,-3.059574 -86.9353,-3.00566 -146.00004,0.134635 -43.8391,2.330794 -56.37977,3.375625 -99,8.248226 -24.93649,2.8508894 -28.62401,3.0248624 -62.5,2.9486734 -19.8,-0.04453 -43.41408,-0.525505 -52.47574,-1.068831 -16.21373,-0.972155 -27.79861,-0.410415 -42.52426,2.061963 -3.3,0.554056 -16.35,1.430455 -28.99999,1.947552 -12.650001,0.517097 -29.525001,1.875995 -37.500001,3.019774 -7.975,1.143779 -19.225,2.299455 -25,2.56817 -5.775001,0.268715 -12.750001,0.643095 -15.500001,0.831957 -2.75,0.188861 -5.5625,0.139715 -6.25,-0.109213 z"
     style="fill:#000000" />
</svg>
