<?xml version="1.0" encoding="UTF-8" standalone="no"?>
<svg
   xmlns:dc="http://purl.org/dc/elements/1.1/"
   xmlns:cc="http://creativecommons.org/ns#"
   xmlns:rdf="http://www.w3.org/1999/02/22-rdf-syntax-ns#"
   xmlns:svg="http://www.w3.org/2000/svg"
   xmlns="http://www.w3.org/2000/svg"
   xmlns:sodipodi="http://sodipodi.sourceforge.net/DTD/sodipodi-0.dtd"
   xmlns:inkscape="http://www.inkscape.org/namespaces/inkscape"
   viewBox="0 0 401.49408 401"
   height="401"
   width="401.49408"
   version="1.1"
   id="svg3952"
   inkscape:version="0.91 r13725"
   sodipodi:docname="hoverboard.svg">
  <sodipodi:namedview
     pagecolor="#ffffff"
     bordercolor="#666666"
     borderopacity="1"
     objecttolerance="10"
     gridtolerance="10"
     guidetolerance="10"
     inkscape:pageopacity="0"
     inkscape:pageshadow="2"
     inkscape:window-width="640"
     inkscape:window-height="480"
     id="namedview5735"
     showgrid="false"
     inkscape:zoom="0.77211599"
     inkscape:cx="200.74704"
     inkscape:cy="219.83627"
     inkscape:window-x="0"
     inkscape:window-y="0"
     inkscape:window-maximized="0"
     inkscape:current-layer="svg3952" />
  <metadata
     id="metadata3958">
    <rdf:RDF>
      <cc:Work
         rdf:about="">
        <dc:format>image/svg+xml</dc:format>
        <dc:type
           rdf:resource="http://purl.org/dc/dcmitype/StillImage" />
        <dc:title></dc:title>
      </cc:Work>
    </rdf:RDF>
  </metadata>
  <defs
     id="defs3956" />
  <path
     id="path3962"
     d="m 125.38697,321.94511 c 0,-0.91667 0.48375,-1.50542 1.075,-1.30833 0.59125,0.19708 1.075,0.78583 1.075,1.30833 0,0.5225 -0.48375,1.11125 -1.075,1.30833 -0.59125,0.19709 -1.075,-0.39166 -1.075,-1.30833 z m -27.541627,-5.43265 c 0.7361,-1.19105 18.632257,-8.11565 29.695377,-11.49011 10.1601,-3.09902 26.59869,-9.82977 22.34625,-9.14963 -7.93663,1.26939 -28.00689,5.88362 -35.06861,8.0624 -11.13384,3.43518 -12.87886,1.01549 -2.1591,-2.99385 2.62477,-0.9817 4.63883,-1.91837 4.47571,-2.0815 -0.9234,-0.9234 -24.303557,6.91315 -30.018767,10.06167 -5.72654,3.15477 -8.11704,3.84878 -15.5,4.49999 -4.80108,0.42348 -10.88398,1.33481 -13.51755,2.02518 -2.63356,0.69037 -5.06019,0.98333 -5.3925,0.65103 -0.9707,-0.9707 1.55008,-3.4029 4.22183,-4.07347 1.35244,-0.33944 2.45898,-0.98636 2.45898,-1.4376 0,-1.09949 -4.60151,-3.14146 -7.07917,-3.14146 -5.94708,0 -14.506014,-6.37312 -18.130165,-13.5 -1.118741,-2.2 -3.515709,-6.475 -5.326596,-9.5 -3.885942,-6.49128 -7.464073,-20.85216 -7.464073,-29.95717 0,-7.03841 3.237747,-20.99967 5.946805,-25.64279 l 1.808689,-3.09995 -3.869499,2.09995 c -2.972268,1.61304 -3.871411,2.70922 -3.877746,4.72752 -0.0045,1.44515 -0.705834,3.20649 -1.558437,3.91409 -1.279217,1.06166 -1.834398,1.00233 -3.176112,-0.33938 -2.297134,-2.29713 -2.25226,-17.89157 0.07835,-27.22879 2.488338,-9.96911 5.295488,-14.49141 10.84641,-17.47348 2.559471,-1.37499 8.471176,-5.54306 13.13712,-9.26237 4.665954,-3.71931 9.761744,-7.42904 11.323984,-8.24384 4.56398,-2.38039 10.45323,-1.85365 16.84044,1.50622 6.63285,3.48908 7.21593,3.56706 9.721,1.3 2.74804,-2.48694 7.92785,-2.08111 13.72765,1.07554 l 5.09958,2.77553 10.415717,-5.56209 c 5.72864,-3.05915 13.90675,-6.51984 18.17357,-7.69042 6.80968,-1.86821 8.40591,-1.98331 13.06017,-0.94173 3.31671,0.74224 5.30232,1.71148 5.30232,2.58823 0,0.99695 1.70367,0.47255 5.90093,-1.81637 5.53907,-3.02065 6.01432,-3.11637 7.75,-1.56094 1.01699,0.91137 4.38268,2.12122 7.47932,2.68856 4.72834,0.86628 6.89091,0.70491 13.5,-1.00732 11.81504,-3.06095 12.11138,-3.07983 22.8025,-1.4532 9.70744,1.47696 10.05773,1.46125 15.4426,-0.69228 4.76885,-1.90717 5.94731,-2.95401 8.76273,-7.78404 2.81444,-4.82834 5.18097,-6.93145 17.5574,-15.60301 20.07248,-14.06381 25.80452,-16.66722 25.80452,-11.72004 0,1.39131 0.68619,1.55011 4.25,0.98357 2.3375,-0.37159 5.32117,-0.94261 6.63038,-1.26894 1.7461,-0.43522 2.25799,-0.22617 1.92109,0.78454 -0.41898,1.25694 -4.92634,2.8312 -20.98931,7.33084 -5.52238,1.54695 -17.92987,9.23806 -26.40031,16.36492 l -3.91185,3.29135 6.24464,-3.05304 c 3.43455,-1.67917 8.33784,-5.05868 10.8962,-7.51001 4.42357,-4.23853 7.17106,-5.0778 5.91599,-1.80716 -0.42962,1.11957 -0.12393,1.33433 1.18183,0.8303 0.96874,-0.37395 6.93634,-2.25955 13.26134,-4.19023 13.58047,-4.14538 21.78667,-5.31576 23.04105,-3.28614 1.30018,2.10373 -0.77951,3.87682 -9.48815,8.08939 -9.28154,4.48969 -9.00699,4.69745 1.8955,1.43437 11.98434,-3.58687 14.05635,-3.89184 15.40459,-2.26732 1.63933,1.97528 0.34146,2.86062 -11.29027,7.70162 -10.01926,4.1699 -33.56272,15.669 -33.56272,16.39271 0,0.22097 4.8375,-1.15247 10.75,-3.0521 16.58396,-5.32828 29.39913,-8.47078 33.25,-8.15348 2.91952,0.24056 3.5,0.67606 3.5,2.62587 0,2.00549 -2.20149,3.4733 -15.5,10.33441 -8.525,4.39831 -15.90742,8.38886 -16.40537,8.86789 -0.49795,0.47903 1.97705,-0.0219 5.5,-1.11326 16.85122,-5.22008 27.63353,-7.92652 31.5788,-7.92652 4.17892,0 4.81285,0.53373 4.40976,3.71279 -0.11535,0.90976 1.04188,0.84761 4.63152,-0.24877 2.63191,-0.80385 10.14052,-2.38433 16.6858,-3.51216 6.54528,-1.12784 13.71088,-2.9253 15.92356,-3.99435 4.44657,-2.14834 5.14742,-2.01841 4.25635,0.78911 -1.02322,3.22388 -7.86962,6.16435 -20.23003,8.68861 -14.05129,2.86958 -23.58886,5.3911 -39.93692,10.55845 -15.67613,4.95495 -19.41347,5.36304 -19.41347,2.11982 0,-2.61917 -4.91523,-3.18919 -12.41456,-1.43971 -6.4524,1.50524 -8.58544,1.23099 -8.58544,-1.10386 0,-0.88179 -1.53495,-1.89945 -3.75,-2.48623 -8.1405,-2.15643 -12.9172,-3.03587 -16.61663,-3.05925 -3.29773,-0.0208 -3.7937,-0.30334 -3.37095,-1.91996 0.43473,-1.66241 0.14214,-1.79411 -2.37934,-1.07096 -4.12198,1.18217 -8.2597,4.37059 -11.9851,9.23541 -1.78204,2.32708 -4.94944,6.03416 -7.03867,8.23797 -3.28176,3.46174 -3.9313,4.94394 -4.77389,10.89372 -1.35383,9.55979 -4.9985,15.22307 -12.15111,18.88105 -3.02449,1.54679 -7.35785,2.98248 -9.62968,3.19043 -2.27183,0.20795 -6.75726,1.48743 -9.96761,2.84329 -23.54886,9.94563 -37.02263,16.13931 -38.11183,17.51941 -1.05172,1.33262 -1.62045,1.39943 -3.25,0.38176 -1.66916,-1.04241 -1.97519,-0.97625 -1.97519,0.427 0,0.91329 -1.75294,3.2796 -3.89541,5.25847 -2.57395,2.3774 -4.63444,5.63336 -6.07392,9.59795 -6.40236,17.63328 -10.95256,26.49029 -16.82499,32.75 -3.243207,3.45708 -2.402887,3.44226 10.1451,-0.17897 5.58207,-1.61094 16.89922,-4.50915 25.14922,-6.44047 24.87008,-5.82209 32.5,-6.83487 32.5,-4.31402 0,0.82776 -2.506,1.80871 -6.75,2.64222 -3.7125,0.72912 -7.65,1.72202 -8.75,2.20646 -1.70573,0.75119 -1.63216,0.81205 0.5,0.41369 1.375,-0.2569 4.90782,-0.78123 7.85071,-1.16519 4.75014,-0.61975 5.31134,-0.50355 5,1.03528 -0.20052,0.99107 -2.64479,2.70158 -5.70758,3.99419 -4.12037,1.73895 -4.94499,2.41887 -3.57246,2.94555 3.08876,1.18527 -0.23816,3.16352 -11.07067,6.58283 -5.5,1.73609 -16.15351,5.1527 -23.67448,7.59248 -14.57545,4.72822 -16.44125,5.08875 -17.03999,3.29255 -0.28595,-0.85786 -0.91465,-0.85786 -2.51759,0 -2.57352,1.37731 -5.612857,1.51049 -4.809567,0.21075 z m -17.45838,-10.11329 c 3.575,-1.06229 7.85,-2.83751 9.5,-3.94493 l 3,-2.01349 -5,0.60348 c -7.36118,0.88846 -12.21883,2.26256 -13.88357,3.92731 -0.81046,0.81046 -3.05416,1.47357 -4.98598,1.47357 -4.05246,0 -5.75118,1.63857 -2.39528,2.31046 2.80848,0.56229 5.4835,0.10435 13.76483,-2.3564 z m -32.55,-3.77612 c -0.5225,-0.45214 -2.975,-2.30497 -5.450004,-4.11742 l -4.5,-3.29535 4.21128,4.11741 c 2.3162,2.26458 4.768704,4.11742 5.450004,4.11742 0.75082,0 0.86454,-0.32379 0.28872,-0.82206 z m 8.49111,-8.42794 c -1.68928,-2.3375 -4.72961,-5.08815 -6.75627,-6.11255 -8.517204,-4.30512 -11.65407,-9.75851 -13.021372,-22.63745 l -0.796243,-7.5 -0.798881,6.73851 c -1.914203,16.14618 2.764088,25.38085 15.881226,31.34856 7.96596,3.62416 9.15166,3.22751 5.49154,-1.83707 z m 22.99097,2.22494 c 5.31856,-0.80823 8.64734,-1.96553 11.7055,-4.0696 6.71387,-4.61926 10.206607,-10.516 4.09184,-6.9082 -6.79688,4.01026 -12.12482,5.25198 -25.22942,5.87993 l -13,0.62293 3.29775,3.37467 c 3.63767,3.72252 2.36144,3.64914 19.13433,1.10027 z m 12.86414,-13.00668 c 12.464017,-6.17616 13.426447,-9.44077 9.271657,-31.45011 -2.253612,-11.93816 -3.488207,-14.8094 -8.978757,-20.8815 -2.96015,-3.27369 -9.63452,-7.87648 -12.58912,-8.68173 -3.03785,-0.82795 -2.44484,-3.40408 0.87083,-3.783 4.6333,-0.5295 7.08014,0.52894 12.51135,5.41206 l 5.12346,4.60643 -3.53836,-8.3452 c -4.7735,-11.25828 -6.23425,-13.04021 -12.05961,-14.71123 -2.69922,-0.77428 -6.85329,-2.26405 -9.23127,-3.3106 -8.17057,-3.59587 -9.04522,-3.48024 -17.71498,2.3421 -8.50503,5.7117 -15.989984,14.7053 -15.093054,18.13516 0.3221,1.23172 -0.27957,2.0953 -1.885146,2.70574 -1.8774,0.71378 -2.964,2.79256 -5.329116,10.19511 -3.945197,12.34804 -4.922146,18.79851 -2.847107,18.79851 0.925928,0 1.801119,-1.2884 2.207675,-3.25 1.004888,-4.84851 7.354764,-20.61738 10.356184,-25.71786 3.455704,-5.87248 12.391284,-14.8259 16.516604,-16.54956 4.41059,-1.84287 13.61254,-3.02632 13.61254,-1.7507 0,0.54425 -2.15851,1.24518 -4.79669,1.55764 -8.02257,0.95015 -9.63804,2.21716 -14.55866,11.41831 l -4.52692,8.46497 4.49457,5.51811 c 2.47201,3.03497 5.62131,7.303 6.99845,9.48452 l 2.50388,3.96641 2.94268,-4.06226 c 1.61848,-2.23425 2.94269,-4.6894 2.94269,-5.45591 0,-0.76651 1.16003,-2.15373 2.57783,-3.08271 1.41781,-0.92899 3.04484,-3.02872 3.61563,-4.66607 0.67909,-1.94804 1.60269,-2.86042 2.67216,-2.6397 2.2423,0.46278 1.54915,3.53159 -1.70518,7.54941 -7.11948,8.78977 -9.80813,12.3429 -11.46698,15.15401 l -1.80653,3.06139 8.30653,1.7e-4 c 4.5686,1e-4 11.83363,0.6751 16.14451,1.5 4.31088,0.82491 8.02338,1.49983 8.25,1.49983 0.22662,0 0.41203,0.48768 0.41203,1.08374 0,0.76009 -4.5042,0.88331 -15.08195,0.41261 -15.07705,-0.67091 -15.08159,-0.67045 -13.96482,1.41626 0.61443,1.14806 1.80286,2.08739 2.64097,2.08739 0.83811,0 1.22967,0.47597 0.87013,1.05772 -0.35954,0.58174 0.56014,2.89196 2.04373,5.13382 2.82602,4.27041 3.85628,8.46525 2.31329,9.41887 -1.47971,0.91451 -3.673,-1.52017 -7.44387,-8.26311 -3.03463,-5.42643 -3.95351,-6.3473 -6.33358,-6.3473 -2.48226,0 -2.91703,0.51478 -4.01165,4.75 -0.67523,2.6125 -1.39459,5.3125 -1.59858,6 -0.204,0.6875 0.0741,1.25 0.61804,1.25 0.54392,0 0.0798,1.78207 -1.03139,3.96016 -3.72581,7.30321 -2.48087,9.16944 6.63923,9.95251 12.40951,1.0655 20.77944,-0.30772 30.13667,-4.94441 z m -20.77616,-51.49243 c 0.69572,-0.83829 1.47088,-1.31823 1.72258,-1.06653 0.69349,0.6935 -0.71555,2.5907 -1.9241,2.5907 -0.6631,0 -0.58723,-0.57378 0.20152,-1.52417 z m -20.1699,51.52417 c -0.5752,-1.65 -1.46589,-3 -1.97931,-3 -0.51343,0 -0.91688,-1.4625 -0.89657,-3.25 0.0841,-7.40509 -1.16587,-17.25179 -2.27998,-17.96009 -0.65686,-0.41761 -2.656804,-0.76618 -4.444304,-0.7746 -3.025533,-0.0143 -3.25,0.217 -3.25,3.3482 0,5.94574 1.96521,13.96195 4.23486,17.2743 1.67664,2.4469 7.724684,7.13752 9.463124,7.33922 0.10889,0.0126 -0.27263,-1.32703 -0.84782,-2.97703 z M 30.510808,263.01585 c 0.195528,-3.20632 -0.123115,-5.0705 -0.911627,-5.33333 -1.305458,-0.43516 -1.731796,6.24503 -0.588683,9.22393 0.897897,2.33988 1.162153,1.65461 1.50031,-3.8906 z m 82.427192,0.96138 c 1.85958,-4.45062 1.94201,-4.1646 -1.55103,-5.38228 -2.12923,-0.74225 -3,-0.73175 -3,0.0362 0,1.53531 2.23738,8.814 2.70931,8.814 0.21601,0 1.04478,-1.56055 1.84172,-3.46788 z m -60.943087,-0.28212 c 1.85757,-2.44704 1.70736,-3.25 -0.60795,-3.25 -1.46667,0 -2,0.66667 -2,2.5 0,2.94132 0.77526,3.16427 2.60795,0.75 z m 10.39205,-4.19098 c 0,-1.67643 -1.77354,-2.09154 -2.36383,-0.55328 -0.3483,0.90766 0.003,1.49426 0.89521,1.49426 0.80774,0 1.46862,-0.42344 1.46862,-0.94098 z m -7,-1.05902 c 0,-1.25292 -1.06124,-1.25292 -3,0 -1.21296,0.78387 -1.06944,0.9723 0.75,0.98469 1.2375,0.008 2.25,-0.43469 2.25,-0.98469 z m -7.70479,-11.72037 c 0.38465,-5.08588 0.1985,-8.18474 -0.54549,-9.0812 -0.84641,-1.01986 -0.79713,-1.89287 0.19668,-3.48422 0.98339,-1.57466 1.02327,-2.22432 0.15431,-2.51397 -0.75149,-0.2505 0.27564,-3.07398 2.86376,-7.8722 4.61535,-8.55656 4.85023,-9.37531 1.93189,-6.73424 -4.96052,4.4892 -10.618344,19.19297 -12.373294,32.1562 l -0.710746,5.25 3.949496,0 3.949504,0 0.58389,-7.72037 z m 65.704797,5.75788 c 0,-1.07937 -0.92968,-4.44728 -2.06595,-7.48424 l -2.06596,-5.52176 2.18568,-6.47067 c 1.20483,-3.56686 1.92361,-7.51483 1.6017,-8.79743 -0.52084,-2.07518 -1.1884,-2.3355 -6.17394,-2.40757 -4.7625,-0.0688 -5.49354,0.15789 -4.93856,1.53168 2.14045,5.29846 5.45703,20.71496 5.45703,25.36597 0,1.58735 0.88268,3.25135 2.22251,4.18981 2.93283,2.05423 3.77749,1.9635 3.77749,-0.40579 z m -56.513097,-1.78751 c -0.89439,-1.5125 -2.93272,-4.325 -4.52963,-6.25 l -2.90348,-3.5 -0.0269,6.25 -0.0269,6.25 4.55654,0 4.55653,0 -1.62616,-2.75 z m 60.945087,-5.0952 c -0.38992,-0.91014 -0.65912,-3.2298 -0.59824,-5.1548 l 0.1107,-3.5 -1.06264,2.77125 c -0.75518,1.96941 -0.74714,3.67631 0.0278,5.89922 0.59973,1.72039 1.16244,4.29833 1.25046,5.72875 0.12585,2.04529 0.24769,1.88629 0.57046,-0.74442 0.22573,-1.83985 0.0914,-4.08985 -0.29851,-5 z m -79.76972,2.5952 c -0.277413,-0.6875 -0.504386,-0.125 -0.504386,1.25 0,1.375 0.226973,1.9375 0.504386,1.25 0.277412,-0.6875 0.277412,-1.8125 0,-2.5 z m 85.32486,-3.09206 c 0.8151,-2.54869 0.89376,-4.17705 0.23367,-4.83714 -1.32953,-1.32953 -1.83234,-0.26228 -2.67565,5.6792 -0.80902,5.69986 0.49343,5.25074 2.44198,-0.84206 z m -63.408417,1.56825 c -1.72194,-1.64929 -1.74325,-1.62798 -0.47833,0.47833 0.72815,1.21249 1.53915,1.98927 1.80223,1.72619 0.26308,-0.26308 -0.33267,-1.25511 -1.3239,-2.20452 z m 54.716407,-0.47619 c -0.29055,-1.5125 -0.90241,-2.75 -1.35968,-2.75 -0.45727,0 -0.35278,1.37297 0.2322,3.05105 1.27636,3.66136 1.85878,3.50585 1.12748,-0.30105 z m -59.403987,-6 c -1.80231,-2.3375 -3.41512,-4.4375 -3.58403,-4.66667 -0.16891,-0.22916 -0.30711,0.006 -0.30711,0.52216 0,1.03295 5.83771,8.39451 6.65683,8.39451 0.28118,0 -0.96339,-1.9125 -2.76569,-4.25 z m 84.096057,-0.7967 c 4.92388,-2.77569 9.1669,-5.39361 9.42895,-5.81761 0.26205,-0.424 -2.98688,0.38451 -7.21985,1.7967 -4.23296,1.41219 -7.83242,2.8635 -7.9988,3.22515 -0.16638,0.36164 -1.17888,1.668 -2.25,2.90301 -3.69062,4.25531 -2.86158,4.03802 8.0397,-2.10725 z m -8.98719,-6.48382 c 1.375,-1.26821 5.65,-4.17046 9.5,-6.44945 3.85,-2.27899 6.1,-3.90337 5,-3.60974 -14.68645,3.92043 -18.44593,4.29758 -19.22535,1.92867 -0.67068,-2.03838 3.30854,-4.72243 13.67961,-9.22711 5.55653,-2.41348 9.97402,-4.5169 9.81666,-4.67426 -0.15736,-0.15737 -5.00545,1.03874 -10.77352,2.65801 -5.76808,1.61927 -11.95126,3.04769 -13.7404,3.17427 -1.78915,0.12657 -3.25389,0.64965 -3.255,1.16241 -0.001,0.51275 0.50831,4.91143 1.13201,9.77485 1.06638,8.31515 1.26023,8.80457 3.25,8.20538 1.1638,-0.35046 3.24099,-1.67482 4.61599,-2.94303 z m 45,-8.61125 c 3.025,-1.06501 6.54487,-1.6771 7.82193,-1.3602 3.01789,0.74888 8.46478,-2.60347 11.04606,-6.79844 1.0849,-1.76312 2.46032,-6.75411 3.06362,-11.11694 1.02731,-7.42917 1.38688,-8.23415 5.8316,-13.05544 2.60524,-2.82594 6.45001,-7.25461 8.54395,-9.84148 2.09393,-2.58686 5.69393,-5.68102 8,-6.87589 l 4.19284,-2.1725 -3.5,-0.77412 c -1.94113,-0.42933 -6.34077,-0.2929 -9.87813,0.30631 -6.86975,1.16369 -18.72544,0.40438 -20.81935,-1.33341 -0.9255,-0.7681 -3.67072,-0.45717 -9.82667,1.113 -7.42991,1.89512 -9.28689,2.03294 -14.25912,1.05829 -3.1442,-0.61632 -6.92545,-1.58779 -8.40276,-2.15882 -2.24868,-0.86918 -3.38847,-0.60985 -7,1.59265 -3.74522,2.28402 -3.91845,2.52841 -1.31397,1.85365 4.26517,-1.10501 11.43781,-0.97868 11.64651,0.20512 0.097,0.55 -4.59322,3.69062 -10.42263,6.97915 -5.82941,3.28853 -10.47394,6.10412 -10.32119,6.25687 0.15275,0.15275 5.1382,-1.52537 11.07878,-3.72915 12.27026,-4.5519 13.51853,-4.74724 13.51853,-2.11545 0,1.26915 -1.29912,2.41122 -3.94874,3.47139 -6.48913,2.59644 -29.04934,12.97243 -28.78352,13.23825 0.13548,0.13548 6.62475,-1.2276 14.42061,-3.02905 10.30166,-2.3805 15.49082,-4.11661 18.99297,-6.35438 7.49413,-4.78854 19.47091,-10.21763 22.54047,-10.21763 3.58114,0 3.60036,1.77115 0.0282,2.59992 -3.31341,0.76874 -19.58809,9.39531 -18.94265,10.04076 0.25042,0.25041 6.66167,-2.26629 14.24722,-5.59269 14.35074,-6.29304 17.13991,-7.00774 18.05382,-4.62613 1.59649,4.16039 -9.47125,12.7433 -29.10839,22.57324 -15.68901,7.8536 -23.56128,12.51598 -19.5,11.54895 1.375,-0.32741 4.67763,-0.87619 7.33919,-1.21952 4.65316,-0.60025 4.82615,-0.53386 4.5,1.72695 -0.24279,1.68294 -2.18661,3.42528 -6.83919,6.13028 -6.9518,4.04175 -7.44168,4.73638 -1.62687,2.30679 2.81757,-1.17725 4.0282,-1.25487 5.47546,-0.35105 1.54275,0.96347 2.63608,0.62511 6.4425,-1.99378 5.67261,-3.90286 7.04783,-2.52955 1.95566,1.95296 -2.06071,1.81399 -2.84675,2.93812 -1.74675,2.49805 1.1,-0.44007 4.475,-1.6715 7.5,-2.73651 z M 27.137082,221.51116 c 5.002031,-3.62345 5.695933,-4.6809 3.599516,-5.48538 -1.782707,-0.68408 -4.405229,1.29155 -7.52566,5.66933 -2.534458,3.5557 -1.146518,3.49067 3.926144,-0.18395 z m 80.731338,-7.76469 c -1.95819,-4.68661 -2.48145,-5.19317 -2.48145,-2.40229 0,1.22783 -0.46583,3.10283 -1.03518,4.16667 -0.91824,1.71574 -0.69077,1.93426 2.01342,1.93426 l 3.0486,0 -1.54539,-3.69864 z m 7.51855,0.37678 c 0,-1.82702 -0.71712,-5.4265 -1.5936,-7.99884 -1.95654,-5.74211 -4.04581,-7.54196 -3.00045,-2.58479 0.39498,1.87302 0.97818,5.76799 1.296,8.65549 0.66474,6.0394 3.29805,7.57891 3.29805,1.92814 z m -14.4387,-2.45017 c -0.15127,-0.15128 -0.964722,-0.0104 -1.807662,0.31307 -0.971935,0.37297 -1.335675,1.34127 -0.994275,2.64678 0.52213,1.99664 0.576595,1.98721 1.807665,-0.31307 0.698132,-1.30446 1.145552,-2.49551 0.994272,-2.64678 z m 41.91905,-10.08095 c -0.2027,-0.2027 -5.5436,0.83489 -11.86868,2.30576 -8.76683,2.03869 -11.39455,3.01572 -11.0559,4.11076 0.24433,0.79005 0.64572,2.08699 0.89198,2.88208 0.34812,1.12397 2.89003,0.29134 11.42445,-3.74222 6.03718,-2.85331 10.81085,-5.35368 10.60815,-5.55638 z M 37.949868,208.3155 c 2.096691,-2.23412 2.361621,-2.83289 0.925902,-2.09262 -2.505671,1.29194 -6.141432,5.22223 -4.83089,5.22223 0.532343,0 2.289588,-1.40832 3.904988,-3.12961 z m 64.650752,-1.23835 c 0.58013,0.35854 0.85022,0.0596 0.60656,-0.6714 -0.24159,-0.72477 -1.22632,-1.7999 -2.1883,-2.3892 -1.373622,-0.84146 -2.058452,-0.65478 -3.190487,0.86969 -2.11971,2.85455 -1.76759,3.63337 1.142495,2.52697 1.421152,-0.54033 3.054532,-0.69155 3.629732,-0.33606 z m 3.34635,-4.40461 c -0.69244,-2.62491 -1.75213,-5.66241 -2.35486,-6.75 -0.60273,-1.08759 -1.37029,-3.68858 -1.70568,-5.77998 -0.71885,-4.48251 -2.588462,-5.52437 -5.955037,-3.31851 -2.79427,1.83088 -4.18352,0.67573 -3.69899,-3.07566 0.21897,-1.69537 -0.66097,-2.67867 -3.85556,-4.30843 -2.2766,-1.16144 -4.66817,-1.89594 -5.31458,-1.63222 -0.66014,0.26932 -0.4619,0.51409 0.45226,0.55843 1.95988,0.0951 4.0786,2.46644 4.33056,4.84697 0.3134,2.9611 1.69376,5.23198 3.18025,5.23198 0.78342,0 1.68219,0.6718 1.99727,1.49288 0.37578,0.97925 1.35051,1.29771 2.83308,0.9256 2.84579,-0.71423 4.078565,1.89137 1.91736,4.05257 -1.37192,1.37192 -1.15018,1.52894 2.159075,1.52894 3.477152,0 3.658182,0.15602 3.166342,2.72892 -0.3416,1.78698 0.15942,3.68542 1.45152,5.5 1.08525,1.52409 2.12681,2.77108 2.31457,2.77108 0.18777,0 -0.22515,-2.14766 -0.91758,-4.77257 z m 49.44,1.54041 c 10.92561,-2.64402 21.52654,-6.85012 28.48707,-11.30272 3.03211,-1.93962 5.51293,-3.71222 5.51293,-3.93912 0,-0.22691 -3.25961,0.9316 -7.24358,2.57444 -3.98396,1.64286 -11.97146,4.72677 -17.75,6.85314 -9.56117,3.5183 -24.28418,9.91441 -19.50642,8.47418 1.1,-0.33159 5.825,-1.52856 10.5,-2.65992 z m -125.000011,0.23216 c 0.588702,-1.1 0.845368,-2 0.570368,-2 -0.275,0 -0.981666,0.9 -1.570368,2 -0.588702,1.1 -0.845368,2 -0.570368,2 0.275,0 0.981666,-0.9 1.570368,-2 z m 64.000004,-6.09055 c 1.19797,-0.67776 1.08544,-0.85476 -0.55887,-0.87904 -1.13238,-0.0167 -2.93238,0.66789 -4,1.52137 -1.86514,1.49103 -1.84326,1.52544 0.55887,0.87904 1.375,-0.37001 3.175,-1.05463 4,-1.52137 z m 25.324667,1.43256 c 0.36189,-0.3619 0.18979,-1.22214 -0.38245,-1.91165 -1.37209,-1.65326 2.33062,-4.38174 16.80779,-12.38544 6.1875,-3.42076 11.25,-6.37795 11.25,-6.57154 0,-0.19358 -1.9125,0.27464 -4.25,1.0405 -2.3375,0.76586 -10.69172,3.47295 -18.56492,6.01574 l -14.31493,4.62327 1.69727,2.67355 c 2.11422,3.33033 5.56456,7.17356 6.44023,7.17356 0.36246,0 0.95511,-0.2961 1.31701,-0.65799 z m -44.324667,-3.34201 c 0,-0.55 -0.7875,-0.99311 -1.75,-0.98469 -1.49555,0.0131 -1.5319,0.15626 -0.25,0.98469 1.88721,1.21961 2,1.21961 2,0 z m -17.55,-3.11239 c 1.68699,-1.5762 -1.84303,-0.90806 -3.95,0.74762 -1.94282,1.5267 -1.92853,1.55116 0.5,0.8558 1.375,-0.3937 2.9275,-1.11524 3.45,-1.60342 z m 73.050007,-15.46564 c 7.51681,-2.3175 12.5,-5.16876 12.5,-7.15218 0,-0.23331 -3.0375,-0.21257 -6.75,0.0461 -8.47173,0.59025 -16.70225,3.35552 -25.97147,8.72584 -7.17281,4.15571 -7.20699,4.19563 -5.07252,5.92403 2.06839,1.67488 2.41412,1.6181 9.22148,-1.51444 3.88988,-1.79001 11.12251,-4.50321 16.07251,-6.02934 z m -77.299667,4.95135 c 1.48519,-0.75532 4.63519,-1.3802 7,-1.38862 6.07828,-0.0216 7.76035,-1.34412 3.79743,-2.98561 -4.78762,-1.9831 -8.9003,-1.42711 -13.3645,1.80674 -6.996684,5.06837 -5.43049,6.63482 2.56707,2.56749 z m 233.799667,-1.37331 c 1.82797,-1.18132 0.24909,-1.18132 -2.5,0 -1.31874,0.56668 -1.48906,0.87815 -0.5,0.9144 0.825,0.0302 2.175,-0.38124 3,-0.9144 z m -37.66043,-3.55747 c -0.32871,-0.85661 -1.25139,-1.30661 -2.0504,-1 -0.79901,0.30661 -1.97844,0.5891 -2.62096,0.62776 -1.37629,0.0828 2.27007,1.75674 4.05041,1.85942 0.70201,0.0405 0.96525,-0.58996 0.62095,-1.48718 z m 25.66857,-5.95743 c 15.7711,-8.17826 15.26658,-8.36411 -5.00814,-1.84482 -7.425,2.38749 -14.0625,4.34513 -14.75,4.35031 -0.6875,0.005 -1.25,0.46798 -1.25,1.02846 0,0.58607 1.16844,0.77185 2.75,0.43726 1.5125,-0.31999 3.7625,-0.78714 5,-1.03811 4.59119,-0.9311 1.65048,2.15055 -3.75,3.92973 -1.02658,0.33821 -0.86621,0.51909 0.50814,0.57312 1.10448,0.0434 8.52948,-3.30276 16.5,-7.43595 z m -34.94718,4.08835 c -1.14786,-1.38308 -1.77767,-1.32298 -8.06096,0.76919 -0.825,0.27471 0.9176,0.53499 3.87244,0.57841 4.54414,0.0668 5.18991,-0.14099 4.18852,-1.3476 z m 0.93904,-6.41983 c 2.475,-0.44186 8.325,-2.94597 13,-5.56468 4.675,-2.61871 7.375,-4.47984 6,-4.13585 -10.95891,2.74167 -13.11423,2.98011 -13.99892,1.54866 -1.39832,-2.26253 0.67992,-3.93611 11.49892,-9.25994 5.5,-2.70646 9.14741,-4.64469 8.10536,-4.3072 -1.04205,0.3375 -5.16995,1.47151 -9.17312,2.52004 -4.00316,1.04853 -9.52743,3.40018 -12.27615,5.22588 -2.74871,1.82571 -8.66678,5.31729 -13.15125,7.75906 l -8.1536,4.4396 2.32438,1.8546 c 2.4001,1.91502 4.71437,1.90329 15.82438,-0.0802 z m -127,106.38227 c 0,-1.53665 7.21904,-5.64344 14.33112,-8.15273 2.1855,-0.77108 10.21139,-2.53208 17.83533,-3.91333 17.62468,-3.1931 27.9286,-6.4716 34.67208,-11.03196 3.94144,-2.66546 5.97679,-3.45006 7.77741,-2.99814 2.07613,0.52108 3.91915,-0.82427 12.39126,-9.04525 12.7419,-12.36419 17.9928,-19.11954 17.9928,-23.14797 0,-3.88275 4.00075,-7.42684 10.40928,-9.22112 2.55323,-0.71486 4.88221,-1.68802 5.1755,-2.16257 0.92569,-1.4978 8.25333,-0.93729 13.95779,1.06767 3.02093,1.06177 7.5179,3.71323 9.99326,5.89213 7.74175,6.81455 6.9269,6.88276 50.79142,-4.2515 32.78829,-8.32274 41.07322,-9.41147 40.4923,-5.32113 -0.27108,1.9087 -1.12069,2.34778 -5.60091,2.89459 -11.61244,1.41731 -12.15261,1.63883 -11.92546,4.89064 0.23161,3.31563 0.87968,3.66633 2.70682,1.46477 1.79165,-2.15881 3.26167,-1.85745 2.0434,0.4189 -0.92396,1.72644 -0.52136,2.02733 4.01404,3 5.65227,1.21219 12.14899,1.38981 16.80133,0.45935 3.19858,-0.63972 3.39545,-2.37825 0.2693,-2.37825 -1.66641,0 -7.12807,-4.83079 -7.12807,-6.30472 0,-1.30152 2.1781,-0.70035 4.72713,1.30472 5.62445,4.42419 11.71216,1.5167 16.65944,-7.95655 4.40758,-8.43983 6.01676,-14.04344 4.03282,-14.04344 -1.88133,0 -1.79445,-0.95503 0.55865,-6.1408 3.6824,-8.11527 2.36618,-21.98005 -4.42844,-46.6483 -1.37511,-4.99242 -1.22589,-8.2109 0.38068,-8.2109 1.01543,0 5.7507,14.68946 8.54249,26.5 l 2.36381,10 0.0817,-6.11351 c 0.23213,-17.36824 -4.30649,-26.23949 -20.38231,-39.83956 -5.16221,-4.36721 -5.78571,-4.66292 -5.27116,-2.5 0.32096,1.34919 0.8951,5.49057 1.27587,9.20307 0.57065,5.56387 0.43606,6.75 -0.76591,6.75 -1.56836,0 -3.27108,-4.69149 -4.35525,-12 -0.88227,-5.94746 -3.27104,-11 -5.20064,-11 -0.85427,0 -6.72197,1.38874 -13.03934,3.0861 -9.8459,2.6454 -12.46382,2.98791 -18.33283,2.39851 -10.56307,-1.06081 -8.70208,-3.48461 2.67548,-3.48461 4.33717,0 8.65602,-0.82872 13.58525,-2.60679 3.97465,-1.43374 9.25154,-2.89644 11.72642,-3.25046 2.47488,-0.35402 4.64427,-1.09346 4.82087,-1.64321 0.1766,-0.54975 -3.83597,-2.254932 -8.91682,-3.789292 -9.79057,-2.95665 -17.73721,-3.61081 -17.73889,-1.46025 -6.5e-4,0.83787 -1.76487,1.26651 -5.35088,1.30007 -4.29223,0.0402 -6.41732,0.71772 -10.74902,3.427192 -2.96952,1.85742 -6.45802,4.30989 -7.75223,5.44993 -3.23308,2.84796 -12.29287,21.02683 -11.08239,22.23731 1.41479,1.41479 -1.42197,4.79604 -3.39009,4.0408 -0.88815,-0.34081 -1.90703,-1.78396 -2.26419,-3.207 -0.98009,-3.90496 7.82941,-22.57862 12.74806,-27.02234 5.01791,-4.533372 14.05084,-8.993682 20.84172,-10.291292 12.86573,-2.45838 14.72788,-2.42961 24.8041,0.38323 10.4446,2.91568 13.65667,4.98593 14.53283,9.366732 0.4271,2.13553 1.28418,2.93959 3.63446,3.40965 3.47187,0.69437 13.18007,10.09544 18.74888,18.15572 3.90151,5.64703 3.69106,3.15878 -0.42289,-5 -3.02301,-5.99524 -4.83638,-8.19425 -8.74123,-10.60017 -2.43478,-1.50016 -2.65533,-1.92454 -1.27539,-2.45407 4.79972,-1.84183 13.12432,8.05631 18.07521,21.49184 4.27546,11.60259 4.93326,19.77205 2.67606,33.23483 -3.11398,18.57287 -7.19838,33.4472 -11.43301,41.63607 -1.45117,2.80626 -1.46622,3.19149 -0.1247,3.19149 2.27723,0 1.80496,2.11907 -1.25122,5.61424 -8.35065,9.55012 -21.59535,13.4409 -35.13229,10.32051 -3.02926,-0.69827 -4.73494,-0.69062 -5.45,0.0244 -1.74559,1.74559 -4.00382,1.19415 -10.07079,-2.45919 -3.19678,-1.925 -5.94068,-3.5 -6.09755,-3.5 -0.15688,0 -0.0499,0.9 0.23778,2 0.76766,2.93554 -1.22308,2.43727 -3.89313,-0.97443 l -2.32785,-2.97443 -18.49463,4.59855 c -22.53408,5.60293 -28.60773,5.93918 -35.3982,1.9597 -2.59554,-1.52109 -4.94982,-3.3667 -5.23174,-4.10137 -0.57257,-1.4921 -9.49882,-5.27323 -13.3647,-5.66125 -2.29395,-0.23024 -9.34092,1.87792 -14.68475,4.39307 -1.46056,0.68743 -2.39987,2.30153 -2.83371,4.86942 -1.13452,6.71518 -23.546,30.43679 -31.11619,32.93518 -2.0448,0.67484 -6.41573,2.97073 -9.71318,5.10197 -6.74437,4.3591 -16.84262,7.79893 -30.15217,10.27092 -20.97073,3.8949 -24.66863,4.72528 -28.72744,6.45084 -6.86567,2.91892 -9.77256,3.415 -9.77256,1.66777 z m 217,-15.96851 c 0,-0.78794 0.7875,-1.65747 1.75,-1.93229 17.37962,-4.96237 48.35462,-13.97672 50.25,-14.62376 1.57223,-0.53673 1.87092,-0.88274 0.80485,-0.93239 -3.06128,-0.14257 -28.45911,3.83932 -37.89621,5.9414 -6.61577,1.47364 -9.43791,1.7413 -9.93192,0.94198 -0.79095,-1.27978 -8.4569,0.38756 -9.49351,2.06484 -0.77348,1.25152 -7.48321,1.27667 -7.48321,0.028 0,-1.03939 22.04374,-8.44097 37,-12.42342 17.33423,-4.61564 38.68744,-7.40463 42.21942,-5.51437 2.07157,1.10867 2.08032,1.19023 0.26967,2.51421 -1.02924,0.7526 -2.79784,1.4276 -3.93022,1.5 -1.13238,0.0724 -0.48387,0.4099 1.44113,0.75 5.68929,1.00515 4.37622,3.28648 -3.21462,5.58509 -3.69305,1.1183 -7.29305,2.78966 -8,3.71415 -1.4573,1.90569 -16.34282,6.40517 -35.81451,10.82573 -14.85463,3.37242 -17.97087,3.64307 -17.97087,1.56083 z m 40.5,-20.57799 c 5.56005,-1.16819 7.05535,-1.69131 3.91217,-1.36864 -5.40731,0.5551 -16.94187,3.12324 -14.41217,3.20883 0.825,0.0279 5.55,-0.80017 10.5,-1.84019 z M -1.0092971,221.85487 c -0.781327,-2.03611 0.07537,-3.40976 2.126532,-3.40976 0.886734,0 2.437935,-0.74724 3.447114,-1.66054 3.023758,-2.73646 3.221532,-0.72903 0.304908,3.09486 -2.930405,3.84196 -4.90736999,4.5063 -5.878554,1.97544 z M 356.38697,188.44512 c 0,-0.55 0.47656,-1 1.05902,-1 0.58246,0 0.7809,0.45 0.44098,1 -0.33992,0.55 -0.81648,1 -1.05902,1 -0.24254,0 -0.44098,-0.45 -0.44098,-1 z m -62,-50.83327 c 0,-2.25188 12.09758,-12.03607 16.70352,-13.50935 6.6285,-2.12023 21.33789,-4.9493 22.04689,-4.24031 1.01932,1.01933 -0.27249,1.58514 -9.27239,4.06126 -4.83857,1.33122 -9.06304,2.78628 -9.38771,3.23346 -0.32467,0.44719 -1.88659,0.87603 -3.47094,0.95298 -1.58435,0.077 -3.15969,0.59145 -3.50076,1.14332 -0.34108,0.55187 -2.86979,2.53739 -5.61937,4.41227 -6.93622,4.72966 -7.49924,5.02594 -7.49924,3.94637 z m 24,-1.54429 c 0,-2.74125 3.03176,-3.73959 14.68616,-4.83604 11.40138,-1.07266 17.31384,-0.6976 17.31384,1.09828 0,0.79229 -3.70363,1.26409 -21.77318,2.77368 -4.00025,0.3342 -7.5143,0.99778 -7.80902,1.47463 -0.83583,1.35242 -2.4178,1.01836 -2.4178,-0.51055 z m -6,-14.37959 c 0,-0.85681 7.40872,-4.24285 9.28343,-4.24285 2.06586,0 0.24177,1.76817 -3.03343,2.94044 -2.0625,0.73821 -4.3125,1.55176 -5,1.80787 -0.6875,0.25612 -1.25,0.0287 -1.25,-0.50546 z"
     style="fill:#000000"
     inkscape:connector-curvature="0" />
</svg>
