<?xml version="1.0" encoding="UTF-8" standalone="no"?>
<svg
   xmlns:dc="http://purl.org/dc/elements/1.1/"
   xmlns:cc="http://creativecommons.org/ns#"
   xmlns:rdf="http://www.w3.org/1999/02/22-rdf-syntax-ns#"
   xmlns:svg="http://www.w3.org/2000/svg"
   xmlns="http://www.w3.org/2000/svg"
   xmlns:sodipodi="http://sodipodi.sourceforge.net/DTD/sodipodi-0.dtd"
   xmlns:inkscape="http://www.inkscape.org/namespaces/inkscape"
   viewBox="0 0 579.99999 580.69659"
   height="580.69659"
   width="580"
   version="1.1"
   id="svg4034"
   inkscape:version="0.91 r13725"
   sodipodi:docname="interaction_pattern.svg">
  <sodipodi:namedview
     pagecolor="#ffffff"
     bordercolor="#666666"
     borderopacity="1"
     objecttolerance="10"
     gridtolerance="10"
     guidetolerance="10"
     inkscape:pageopacity="0"
     inkscape:pageshadow="2"
     inkscape:window-width="640"
     inkscape:window-height="480"
     id="namedview5550"
     showgrid="false"
     inkscape:zoom="0.40640845"
     inkscape:cx="181.9055"
     inkscape:cy="290.3483"
     inkscape:window-x="0"
     inkscape:window-y="0"
     inkscape:window-maximized="0"
     inkscape:current-layer="svg4034" />
  <metadata
     id="metadata4040">
    <rdf:RDF>
      <cc:Work
         rdf:about="">
        <dc:format>image/svg+xml</dc:format>
        <dc:type
           rdf:resource="http://purl.org/dc/dcmitype/StillImage" />
        <dc:title></dc:title>
      </cc:Work>
    </rdf:RDF>
  </metadata>
  <defs
     id="defs4038" />
  <path
     id="path4044"
     d="m 359.87981,582.5967 c -8.71854,-4.00493 -18.17646,-16.52038 -38.79857,-51.34125 -5.26462,-8.88942 -10.27615,-18.5336 -11.13673,-21.4315 -2.13787,-7.199 -1.97076,-21.35136 0.38266,-32.40591 2.09535,-9.84236 11.60624,-31.97541 17.65845,-41.09345 3.74046,-5.63524 8.16781,-9.01127 13.11498,-10.00071 4.0578,-0.81156 5.24297,1.96449 1.74706,4.09217 -1.35732,0.8261 -3.59439,2.18837 -4.97127,3.02729 -3.44515,2.09907 -6.89887,7.80413 -13.67052,22.58175 -6.59925,14.40141 -8.43994,20.64666 -9.88735,33.54664 -1.31313,11.70319 0.43557,20.15105 5.97024,28.84194 5.14757,8.08302 13.44841,22.1968 15.58822,26.50437 2.18088,4.39026 9.45778,14 10.60139,14 1.84806,0 4.21437,-5.38479 5.60669,-12.75858 0.80345,-4.25513 1.92855,-8.30018 2.50023,-8.98901 1.80793,-2.17843 4.67608,-1.38212 6.29452,1.74759 0.85325,1.65 1.75566,3 2.00536,3 1.02352,0 4.30407,-7.79478 4.97447,-11.81963 0.69919,-4.19772 2.81317,-6.35487 4.47183,-4.56315 0.44947,0.48553 1.13114,5.08539 1.51482,10.2219 0.64519,8.63733 0.56323,9.31325 -1.09059,8.99475 -0.98351,-0.1894 -2.03293,-1.3537 -2.33204,-2.58732 -0.52833,-2.17893 -0.60094,-2.15652 -2.54385,0.78507 -2.50678,3.7953 -5.92463,4.79906 -8.4767,2.48946 -1.82514,-1.65173 -1.92036,-1.57194 -2.54392,2.13148 -1.17447,6.97546 -2.76094,10.80804 -5.55391,13.41706 l -2.75603,2.57452 3.66528,4.64036 c 5.74676,7.27559 9.67499,9.71756 15.60956,9.70364 5.34064,-0.0125 30.78995,-5.60499 41.24616,-9.06382 11.59519,-3.83559 23.90207,-13.68046 28.95378,-23.16155 9.11647,-17.10983 16.79004,-40.42297 18.04249,-54.81499 0.6119,-7.03142 -1.10983,-14.93653 -4.84993,-22.26771 -1.08872,-2.13407 -6.06779,-8.22261 -11.0646,-13.5301 -4.99681,-5.30748 -11.49666,-12.67217 -14.44411,-16.36597 -4.87449,-6.1088 -13.45068,-13.784 -15.4021,-13.784 -0.67199,0 -3.79639,-1.33684 -16.42597,-7.02819 -1.1,-0.4957 -3.35,-1.02964 -5,-1.18654 -4.30168,-0.40905 -3.88095,-3.06759 0.66316,-4.19042 2.73405,-0.67557 4.50949,-0.51356 7,0.63877 1.83526,0.84915 4.46184,1.88288 5.83684,2.29717 1.375,0.41429 5.75203,2.2945 9.72674,4.17825 5.68473,2.69419 8.56531,4.92124 13.5,10.4372 3.45029,3.85671 11.12616,12.24011 17.05748,18.62978 11.72824,12.63454 15.54991,18.99644 18.38759,30.60958 1.56644,6.41062 1.56993,7.58332 0.0506,17 -2.37012,14.68979 -6.01112,26.25296 -13.14721,41.75316 -7.12809,15.48283 -11.25287,21.10301 -20.14489,27.44822 -8.92617,6.36958 -15.63942,9.01661 -34.33485,13.53817 -18.86756,4.56319 -29.05228,5.64046 -33.59546,3.55351 z m 29.38352,-27.42866 c -0.58683,-1.5125 -1.48763,-5.6597 -2.00177,-9.21601 -0.51414,-3.5563 -1.61656,-7.50651 -2.44983,-8.77824 -1.63166,-2.49023 -1.17365,-4.25575 1.10404,-4.25575 2.45276,0 4.81162,4.97236 6.10749,12.87427 0.68782,4.19415 1.27442,8.63823 1.30356,9.87573 0.0754,3.20192 -2.76267,2.8527 -4.06349,-0.5 z m 6.86104,-4.5 c -0.23215,-0.6875 0.1804,-2.69818 0.91679,-4.46817 0.73639,-1.77 2.13659,-6.27 3.11156,-10 2.29693,-8.78759 4.17569,-9.22947 9.64087,-2.2675 2.15257,2.74212 4.48017,4.98567 5.17244,4.98567 1.81865,0 3.36907,-5.70612 3.12468,-11.5 -0.18517,-4.38998 0.031,-5 1.77214,-5 4.30662,0 4.18718,13.36161 -0.16569,18.5347 -3.43335,4.0803 -6.71393,3.88487 -10.99561,-0.65503 -1.87792,-1.99118 -3.53741,-3.45368 -3.68774,-3.25 -0.15033,0.20368 -0.85528,2.39533 -1.56656,4.87033 -2.04287,7.10849 -6.19987,12.07563 -7.32288,8.75 z m 32.75302,-14 c -0.34374,-2.3375 -0.70881,-7.85 -0.81128,-12.25 -0.17961,-7.71289 -0.10142,-8.01201 2.17878,-8.33463 1.60418,-0.22697 3.43253,0.69999 5.68306,2.88129 4.45283,4.31585 5.83627,7.96065 5.0063,13.18956 -0.54308,3.4215 -1.36978,4.70825 -4.18495,6.51378 -5.40055,3.4637 -7.1332,3.02349 -7.87191,-2 z m 6.57576,-9.48839 c -1.50464,-3.30233 -1.90045,-2.65383 -1.30461,2.13748 0.39768,3.19778 0.66188,3.58284 1.46886,2.14084 0.66414,-1.18674 0.61075,-2.57738 -0.16425,-4.27832 z m -91.50321,-23.01161 c 0.37994,-5.3625 1.09792,-10.5375 1.59552,-11.5 1.3615,-2.63356 4.19239,-2.10957 6.66402,1.23349 1.21318,1.64092 3.62769,3.71878 5.36557,4.61747 2.98032,1.54119 3.23743,1.52792 4.52682,-0.23348 0.8862,-1.21063 1.29952,-4.19137 1.17509,-8.47448 -0.18898,-6.50474 0.37351,-8.893 2.09448,-8.893 0.48048,0 1.2193,1.0125 1.64183,2.25 1.0585,3.10016 1.10012,3.33246 1.24154,6.92931 0.12134,3.08616 0.20558,3.02023 2.875,-2.25 2.76634,-5.46157 6.20995,-7.7888 6.29264,-4.25263 0.0316,1.35234 1.00732,0.72551 3.77727,-2.42668 5.21892,-5.93912 7.16149,-5.6383 11.0813,1.71604 1.74893,3.28132 3.59186,6.22066 4.0954,6.53186 1.80435,1.11516 4.17408,-4.45684 4.48682,-10.54998 0.30788,-5.99852 1.45489,-8.72211 3.21509,-7.63424 0.48003,0.29667 0.98274,3.83496 1.11713,7.86286 0.19694,5.90302 -0.14895,7.95778 -1.78336,10.59385 -4.48885,7.2399 -9.65862,6.35502 -14.02042,-2.39979 -1.33464,-2.67883 -2.52546,-5.02527 -2.64628,-5.21431 -0.12082,-0.18903 -2.23818,1.61097 -4.70524,4 -2.46707,2.38904 -5.44859,5.1549 -6.6256,6.14635 -1.73018,1.45741 -2.08207,2.70053 -1.83739,6.49101 0.36,5.57701 2.45228,6.58083 6.88526,3.30338 3.46441,-2.56134 3.91738,-2.5942 3.91738,-0.28412 0,2.92188 -5.18213,7.18709 -8.73214,7.18709 -3.65399,0 -7.26786,-3.84895 -7.26786,-7.74061 l 0,-2.4709 -2.90121,3.10575 c -1.59567,1.70817 -3.50817,3.09588 -4.25,3.0838 -2.12075,-0.0345 -9.5169,-3.63201 -10.39792,-5.05754 -1.06443,-1.72228 -2.28123,1.36743 -2.39424,6.0795 -0.13443,5.60532 -1.10236,8 -3.2336,8 -1.83927,0 -1.90659,-0.52386 -1.2529,-9.75 z m 70.02325,-10.14681 c -3.55016,-3.92288 -2.92512,-19.89556 1.01379,-25.9071 1.14746,-1.75125 1.84931,-2.06213 2.82582,-1.2517 1.06474,0.88365 1.05548,2.11383 -0.0513,6.81692 -2.43246,10.3365 -1.33434,18.23869 2.53452,18.23869 1.08116,0 2.24385,-0.45 2.58377,-1 0.74252,-1.20142 4.5,-1.34697 4.5,-0.17431 0,0.45412 -1.0415,1.80412 -2.31445,3 -2.95689,2.77785 -8.69936,2.92151 -11.09217,0.2775 z M 172.7062,490.87366 c -6.03603,-1.1935 -9.31157,-3.15759 -14.37285,-8.6183 -16.81485,-18.14184 -22.45268,-31.00698 -23.59289,-53.83732 -0.64124,-12.83938 0.78283,-31.10463 3.04984,-39.11774 0.75969,-2.68524 1.66168,-6.11976 2.00443,-7.63226 0.41322,-1.82349 1.26715,-2.75 2.53457,-2.75 2.7136,0 2.89242,3.25226 0.63229,11.5 -1.59856,5.83353 -1.93184,10.58273 -2,28.5 -0.0912,23.97314 0.56596,27.72356 7.00897,40 4.09514,7.80285 16.34628,22.38818 20.75019,24.70369 4.54158,2.38788 17.01293,2.6935 38.82895,0.95153 14.27067,-1.13949 19.76608,-1.97565 23.32203,-3.54862 6.6493,-2.9413 22.81474,-14.4421 26.38101,-18.7686 8.67341,-10.52236 14.37569,-28.36002 14.53076,-45.45461 0.11184,-12.32877 -0.0951,-12.75964 -12.08709,-25.17085 -11.92306,-12.33984 -28.35118,-18.86116 -50.80409,-20.16723 -10.87662,-0.63268 -12.51252,-1.12355 -12.51252,-3.75451 0,-2.02306 0.32809,-2.06055 13.25001,-1.51399 16.00523,0.67698 25.94553,3.03698 37.73896,8.95987 7.00161,3.51634 10.0678,5.89745 17.5,13.58999 12.50088,12.93876 13.05015,14.12234 12.84241,27.67333 -0.29572,19.29048 -7.01145,39.36666 -16.81679,50.27256 -5.29466,5.88894 -22.26171,17.56356 -29.55077,20.33319 -3.79928,1.44361 -10.51356,2.33221 -25.79983,3.41446 -22.69359,1.60667 -26.64882,1.65912 -32.83759,0.43541 z m 259.16924,-1.96268 c -0.34231,-0.55389 0.0811,-1.27703 0.94099,-1.60699 1.24929,-0.4794 1.56634,-2.33633 1.57812,-9.24294 0.0185,-10.8516 1.24916,-13.64301 6.01479,-13.64301 3.40566,0 3.47561,0.084 3.74599,4.5 0.21992,3.59187 0.89447,5.03481 3.34256,7.1501 3.03746,2.62454 3.60001,5.77861 1.17468,6.58611 -0.66398,0.22107 -3.25148,-1.6423 -5.75,-4.14082 l -4.54276,-4.54276 0,6.03943 c 0,3.32168 -0.46583,6.90984 -1.03518,7.97368 -1.09781,2.05126 -4.42578,2.61546 -5.46919,0.9272 z m -8.49563,-6.25239 c 0,-0.6927 0.87914,-1.80849 1.95364,-2.47952 2.6568,-1.6592 4.04242,0.53746 1.50801,2.39067 -2.3057,1.68597 -3.46165,1.71564 -3.46165,0.0888 z m -94,-5.74055 c -4.30674,-4.30674 -1.43754,-12.3958 6.24564,-17.60816 2.3399,-1.58742 4.47936,-3.18 4.75436,-3.53908 0.54201,-0.70771 2.75544,-1.1603 4.75,-0.97124 2.59605,0.24607 5.25,4.12242 5.25,7.66814 0,6.05244 -3.83038,11.36232 -10.70034,14.83337 -4.29598,2.17054 -7.87935,2.03728 -10.29966,-0.38303 z m 8.03365,-4 c 1.61869,0 7.96635,-7.29352 7.96635,-9.1534 0,-4.60704 -9.94287,0.24273 -12.09324,5.89865 -1.09366,2.87652 -0.28624,4.61435 1.77618,3.82292 0.81435,-0.31249 1.87217,-0.56817 2.35071,-0.56817 z m 23.3764,-3.75 c 0.20672,-4.8125 0.42402,-10.45162 0.4829,-12.53138 0.07,-2.4722 0.66132,-3.99408 1.70797,-4.39572 2.25138,-0.86394 3.02477,0.88475 3.28993,7.43873 0.12667,3.13108 0.34113,5.80369 0.47658,5.93913 0.13544,0.13545 1.9499,-0.91139 4.03212,-2.3263 3.4047,-2.31355 3.7248,-2.8981 3.17928,-5.80596 -0.46115,-2.45816 -0.13885,-3.6567 1.34428,-4.99891 3.35069,-3.03233 4.07689,-1.10887 4.07689,10.7983 0,11.71197 -1.12957,15.56384 -4.21673,14.37919 -1.15857,-0.44459 -1.39521,-1.73032 -1.02589,-5.57393 l 0.48006,-4.99604 -4.57304,2.16145 c -2.67691,1.26523 -4.59198,2.85314 -4.61872,3.82965 -0.0836,3.05168 -1.23876,4.83179 -3.13557,4.83179 -1.72026,0 -1.84473,-0.72602 -1.50006,-8.75 z M 195.64958,445.2754 c -0.50353,-1.02155 -1.02929,-5.00393 -1.16836,-8.84975 -0.13908,-3.84581 -0.38564,-7.12516 -0.54792,-7.28744 -0.16227,-0.16228 -1.37676,0.19781 -2.69886,0.8002 -2.13696,0.97367 -2.40814,1.75271 -2.44274,7.01762 -0.0423,6.43497 -0.51309,7.52089 -2.86877,6.61693 -1.18004,-0.45282 -1.54454,-2.18779 -1.54912,-7.37354 -0.003,-3.72976 -0.295,-10.49388 -0.64822,-15.03138 -0.55465,-7.12499 -0.42665,-8.25 0.93861,-8.25 1.7864,0 2.70893,2.32753 3.60088,9.08494 0.57051,4.32222 0.77653,4.59681 2.86472,3.81832 1.96664,-0.73317 2.25,-1.54603 2.25,-6.45437 0,-7.00628 1.85876,-6.94623 3.66436,0.11838 1.70169,6.65803 2.16228,25.0061 0.6653,26.50307 -0.85917,0.85917 -1.37255,0.68148 -2.05988,-0.71298 z m -38.00592,-2.56447 c -1.21678,-1.49509 -5.50201,-28.59854 -4.72133,-29.86171 0.90031,-1.45673 3.23037,0.10044 4.32543,2.89068 0.57809,1.47297 1.59076,6.50314 2.25037,11.17814 l 1.1993,8.5 1.42452,-4.25 c 1.82753,-5.45238 4.36447,-5.65244 6.79254,-0.53565 1.68268,3.54598 1.80066,3.61141 2.60269,1.44332 0.46206,-1.24906 1.18267,-6.40802 1.60136,-11.46435 0.68504,-8.2729 0.9615,-9.19332 2.76126,-9.19332 1.62643,0 2.05612,0.76681 2.30043,4.10527 0.42683,5.83261 -2.36226,22.07705 -4.29767,25.03086 -2.0444,3.12015 -3.48232,2.68266 -5.93072,-1.80441 l -1.92796,-3.53328 -2.07204,4.10078 c -2.17311,4.30082 -4.53554,5.57175 -6.30818,3.39367 z m 55.3361,-2.97951 c -0.21226,-0.72236 -0.89957,-3.82588 -1.52736,-6.89671 -1.06565,-5.21266 -1.3316,-5.58334 -4.00585,-5.58334 -2.5478,0 -2.93218,0.42373 -3.4774,3.83334 -0.33714,2.10833 -1.05766,3.83333 -1.60116,3.83333 -2.99404,0 0.12288,-22.18743 3.51206,-25.0002 2.04916,-1.70065 4.1791,-0.12795 5.88845,4.34791 0.88622,2.32053 1.61131,4.76661 1.61131,5.43572 0,0.66911 0.675,1.21657 1.5,1.21657 1.68721,0 1.9507,1.126 0.5967,2.55 -0.5148,0.54142 -0.55694,3.10041 -0.098,5.95 0.84689,5.25815 0.34393,10.1702 -1.13494,11.08419 -0.48285,0.29842 -1.05157,-0.0485 -1.26383,-0.77081 z m -3.6136,-17.30393 c -0.008,-0.5552 -0.2995,-2.07741 -0.64886,-3.38269 l -0.63521,-2.37324 -1.3157,2.37324 c -0.72364,1.30528 -1.33166,3.38955 -1.35114,4.63171 -0.0315,2.01015 0.18446,2.12115 1.96456,1.00946 1.1,-0.68696 1.99386,-1.70328 1.98635,-2.25848 z m 43.01,15.98615 c -1.62234,-1.9548 -0.83331,-5.91094 1.25841,-6.30963 1.83938,-0.35058 3.86465,3.30888 3.03652,5.48671 -0.71479,1.87978 -3.04696,2.32663 -4.29493,0.82292 z m -25.10509,-4.2456 c -1.62094,-4.20827 -2.41829,-17.25 -1.05465,-17.25 0.61891,0 1.3381,1.0125 1.5982,2.25 2.84773,13.5489 3.21232,17.75 1.54044,17.75 -0.56361,0 -1.50141,-1.2375 -2.08399,-2.75 z m 17.92087,-10.39006 c -1.778,-2.22645 -1.70583,-7.00365 0.25923,-17.15916 1.33984,-6.92433 1.14188,-14.0269 -0.45169,-16.20624 -1.32198,-1.80791 -1.51548,-1.75258 -4.57693,1.30887 -5.06829,5.0683 -6.80608,3.78581 -3.0673,-2.26367 2.41939,-3.91466 6.39378,-5.94769 8.95136,-4.57892 2.67891,1.43371 5.07811,7.23929 5.03773,12.19031 -0.0195,2.39188 -0.64899,8.39247 -1.39886,13.33465 -0.74987,4.94218 -1.12504,10.45468 -0.83369,12.25 0.62919,3.87727 -1.28326,4.42573 -3.91985,1.12416 z m 100.17868,0.62899 c -1.7244,-2.07778 0.88147,-8.7281 6.5896,-16.81702 2.39544,-3.39455 6.0573,-8.76728 8.13747,-11.93939 2.77553,-4.23251 4.31441,-5.6963 5.78212,-5.5 1.82213,0.24369 2.0609,1.29024 2.68478,11.76748 0.37662,6.325 1.15339,13.3 1.72614,15.5 1.72813,6.63795 1.43381,8.5 -1.34353,8.5 -2.83756,0 -3.04966,-0.51701 -5.38442,-13.12502 l -1.70032,-9.18191 -4.83393,7.90346 c -2.65866,4.34691 -5.68564,9.36597 -6.72663,11.15347 -2.10669,3.61745 -3.08572,3.96269 -4.93128,1.73893 z M 220.93714,413.01081 c -0.8002,-1.29475 9.67365,-12.09277 11.72974,-12.09277 3.75993,0 1.30838,4.69017 -4.94891,9.46797 -4.86642,3.71579 -5.86715,4.10316 -6.78083,2.6248 z m -75.01947,-45.27785 c -0.88156,-3.83005 -0.91992,-17.02041 -0.0629,-21.61632 0.68653,-3.68152 1.50272,-4.76005 5.66356,-7.48398 2.67382,-1.75041 4.86147,-3.52728 4.86147,-3.9486 0,-0.42131 0.9,-0.76602 2,-0.76602 1.1,0 2,0.37777 2,0.83948 0,0.46172 1.10084,1.34107 2.44631,1.9541 4.61505,2.10276 10.46911,8.36707 17.57581,18.8075 3.9129,5.74843 6.96656,11.22732 6.78591,12.17531 -0.4631,2.43012 -4.64023,2.84407 -5.4869,0.54375 -1.99711,-5.42593 -17.19069,-25.32014 -19.33747,-25.32014 -1.05438,0 -7.86756,14.31369 -9.99579,21 -1.30169,4.08955 -2.28488,5.58076 -3.8339,5.81492 -1.49303,0.22569 -2.23424,-0.34097 -2.6161,-2 z m 7.88941,-20.62557 c 2.4256,-4.82837 2.48699,-5.21384 0.67599,-4.24462 -2.55294,1.3663 -2.77639,1.7686 -3.64515,6.56289 -0.87821,4.84652 -0.47009,4.52786 2.96916,-2.31827 z m 223.05802,15.56065 c -2.91822,-8.07127 -3.67544,-11.40933 -4.13992,-18.25 -0.29932,-4.40816 0.17517,-15.38524 1.05681,-24.4489 0.99394,-10.21818 1.2454,-16.80352 0.66385,-17.38507 -0.58155,-0.58155 -2.57063,-0.56392 -5.2511,0.0465 -2.37321,0.54048 -6.78993,0.93876 -9.81493,0.88507 l -5.5,-0.0976 -0.67588,-4.5 c -1.05342,-7.01373 -0.92011,-29.79584 0.21651,-37 2.02735,-12.84972 8.18356,-27.64092 17.68883,-42.5 7.39614,-11.562 12.02542,-15.5 18.22088,-15.5 4.1198,0 3.8401,1.55281 -0.70034,3.88809 -6.73053,3.46173 -13.80265,13.09288 -21.74388,29.61191 -7.73085,16.08138 -9.99488,28.34765 -8.90568,48.25 l 0.67041,12.25 4.66458,0 c 2.56551,0 5.09207,-0.38977 5.61457,-0.86615 0.5225,-0.47638 3.2,-0.58888 5.95,-0.25 l 5,0.61615 0,9.5 c 0,5.225 -0.31616,13.1 -0.70259,17.5 -0.66888,7.6162 -0.63134,7.8406 0.78246,4.67749 1.59983,-3.57932 3.54328,-3.78623 4.39255,-0.46764 0.29017,1.13387 2.55258,3.73127 5.02758,5.77201 5.48711,4.52435 6.77517,6.87919 4.95949,9.06696 -1.04328,1.25707 -2.88079,1.52783 -8.64453,1.27379 l -7.31962,-0.32261 0.035,3 c 0.0192,1.65 0.87692,5.43869 1.90597,8.4193 1.02905,2.98062 1.64122,6.01812 1.36037,6.75 -0.64613,1.6838 -4.21015,1.74357 -4.81137,0.0807 z M 161.8798,298.24572 c -2.2,-0.18485 -8.5,-1.06699 -14,-1.9603 -5.5,-0.89331 -11.45741,-1.58031 -13.2387,-1.52667 -2.56437,0.0772 -3.34675,-0.36451 -3.75769,-2.12159 -1.0215,-4.36776 -0.93728,-16.44288 0.20729,-29.71912 1.39329,-16.16121 0.60729,-24.96795 -2.52604,-28.30323 -2.96898,-3.16033 -2.7628,-6.76889 0.56914,-9.96109 3.19071,-3.05689 15.65652,-8.95676 22.34456,-10.57532 4.81568,-1.16544 22.95749,-3.87831 26.40144,-3.948 1.1,-0.0223 3.8,-0.6018 6,-1.28786 6.2451,-1.94753 15.19676,-1.50659 21.93744,1.08058 7.40411,2.84181 10.56257,5.85872 10.56257,10.08922 0,1.85318 0.71636,3.70903 1.713,4.43779 1.54121,1.12696 1.68385,3.39427 1.42239,22.61024 -0.16111,11.84108 -0.7016,21.5062 -1.213,21.691 -1.59242,0.57547 -1.00634,1.91145 1.07761,2.45642 3.19495,0.8355 2.34286,3.28424 -2.57168,7.39048 -2.51443,2.10087 -6.7559,5.68915 -9.42549,7.97395 -2.6696,2.2848 -6.28035,4.4675 -8.02389,4.85045 -1.74356,0.38294 -6.52702,2.22606 -10.62992,4.09582 -7.65127,3.48679 -12.25019,3.95393 -26.84903,2.72723 z m 24.65678,-7.17053 c 3.48877,-1.56357 8.14322,-3.43522 10.34322,-4.15922 2.20001,-0.724 6.35079,-3.38221 9.22397,-5.90714 7.03437,-6.18176 8.19786,-11.13732 5.88061,-25.04664 -2.13141,-12.79379 -2.16359,-23.04415 -0.0724,-23.04415 0.84273,0 1.9392,1.0125 2.43662,2.25 0.83161,2.06894 0.90949,1.99853 0.96777,-0.875 0.0349,-1.71875 0.35863,-4.60119 0.71948,-6.40543 l 0.65608,-3.28043 -4.68942,3.22641 c -7.1858,4.94395 -12.42255,6.8721 -20.62276,7.59317 -4.125,0.36273 -11.64499,1.29461 -16.71108,2.07086 -14.05444,2.15348 -29.51323,3.29355 -33.8726,2.49806 l -3.91632,-0.71463 -0.3759,15.56849 c -0.20674,8.56268 -0.43174,20.0685 -0.5,25.5685 l -0.1241,10 6.5,0.75418 c 30.28248,3.51362 36.12905,3.50078 44.15678,-0.097 z M 154.3798,234.92627 c 5.225,-0.52641 14.225,-1.62678 20,-2.44527 5.775,-0.81849 13.94383,-1.90365 18.15295,-2.41146 5.83322,-0.70374 8.98384,-1.71932 13.25001,-4.27102 8.10999,-4.8508 7.29471,-7.57159 -3.41932,-11.41111 -5.32607,-1.90866 -15.30816,-3.04668 -12.98364,-1.48021 2.84455,1.91692 -0.99486,3.16029 -8,2.59076 -6.24271,-0.50754 -17.91157,0.90822 -28.5,3.45785 -7.90415,1.90327 -19.5,7.73609 -19.5,9.80868 0,3.03563 2.50466,5.38309 6.58169,6.16861 2.15507,0.41522 4.14331,0.79889 4.41831,0.85261 0.275,0.0537 4.775,-0.33303 10,-0.85944 z m 233.25001,25.32949 c -1.95531,-0.78899 -1.53824,-7.76689 0.57874,-9.68273 2.54823,-2.30612 4.06392,-2.06752 5.15874,0.81208 0.66285,1.74342 0.50499,3.50338 -0.53817,6 -1.41571,3.38828 -2.47165,3.97128 -5.19931,2.87065 z M 99.129799,244.3392 c -1.3396,-1.34762 -0.80045,-3.20775 1.838891,-6.34443 2.68226,-3.18768 5.41111,-4.06686 5.41111,-1.74334 0,1.90583 -6.35168,8.99148 -7.250001,8.08777 z m 157.000011,-4.6518 c -1.5125,-0.51482 -2.75,-1.34853 -2.75,-1.85269 0,-1.44746 5.63041,-1.06693 6.90308,0.46655 1.57926,1.9029 -0.54847,2.61305 -4.15308,1.38614 z M 116.6298,215.8171 c -3.10731,-2.00346 -4.26983,-5.15073 -2.34253,-6.34187 1.45986,-0.90225 9.19612,4.66641 8.86578,6.3817 -0.44572,2.31445 -2.89503,2.2995 -6.52325,-0.0398 z m 140.45886,1.47646 c -1.74142,-1.74142 -0.61818,-3.49793 2.04115,-3.19194 1.63715,0.18837 2.75,0.92343 2.75,1.81642 0,1.57227 -3.56958,2.59708 -4.79115,1.37552 z M 143.96273,204.7512 c -0.22996,-0.73324 -0.64908,-5.46639 -0.93137,-10.51811 -0.4009,-7.17419 -0.20365,-9.4419 0.90102,-10.35869 1.95362,-1.62136 3.44742,2.50609 3.44742,9.52541 0,3.37264 0.46223,5.51932 1.25,5.80521 0.96825,0.3514 0.9119,1.08467 -0.25,3.25316 -1.70467,3.18149 -3.79765,4.26801 -4.41707,2.29302 z m 197.08605,-4.08316 c -0.75742,-1.2375 -2.85213,-4.725 -4.65492,-7.75 -1.80279,-3.025 -5.05795,-7.63462 -7.23369,-10.24361 -5.85486,-7.0207 -12.14987,-19.60623 -10.68779,-21.36793 2.13053,-2.56713 3.70283,-1.42243 6.67759,4.86154 1.62726,3.4375 5.65934,9.71886 8.96016,13.95858 l 6.0015,7.70857 0.50115,-9.58107 c 0.27563,-5.26959 0.18482,-10.98845 -0.2018,-12.70858 -0.90418,-4.02279 -0.32903,-5.6275 2.01698,-5.6275 3.45268,0 3.99272,3.26378 3.8833,23.46903 -0.0999,18.44729 -0.21063,19.53097 -1.99556,19.53097 -1.03938,0 -2.50949,-1.0125 -3.26692,-2.25 z m -167.36543,-9.5 c 0.2918,-1.5125 1.26489,-5 2.16241,-7.75 0.89752,-2.75 1.95819,-6.125 2.35703,-7.5 1.17913,-4.06498 3.64298,-3.11678 3.8977,1.5 0.285,5.16575 -1.19067,10.55647 -3.79666,13.86945 -2.82138,3.5868 -5.32304,3.52213 -4.62048,-0.11945 z m 27.69646,-2.68261 c 0,-0.78794 0.7875,-1.68971 1.75,-2.00394 0.9625,-0.31423 3.46449,-3.04455 5.55998,-6.06739 4.09505,-5.90729 5.69222,-6.81905 5.68628,-3.24606 -0.004,2.47059 -2.55528,6.99947 -5.91481,10.5 -2.42486,2.52664 -7.08145,3.06414 -7.08145,0.81739 z m 32,-5.4124 c 0,-1.20106 3.43293,-4.15499 4.82874,-4.15499 1.71632,0 1.4302,1.45569 -0.65748,3.34501 -1.95482,1.76909 -4.17126,2.19948 -4.17126,0.80998 z m 68.33305,-14.77306 c -17.85211,-9.45263 -29.16311,-20.96073 -47.06187,-47.88193 -10.76281,-16.18816 -19.68552,-31.886268 -23.408,-41.182708 -7.00787,-17.50132 -1.46824,-28.259526 26.15504,-50.794322 24.99189,-20.388131 34.96034,-25.5263532 49.50999,-25.5198462 8.77136,0.0039 13.15558,2.053556 31.81957,14.8757192 29.44251,20.227003 32.60307,26.453413 32.63486,64.291689 0.0147,17.508698 -0.36613,22.938888 -2.48973,35.499998 -2.69662,15.95056 -4.49259,23.06819 -7.72922,30.63184 -1.7821,4.16456 -2.39978,4.7622 -4.65081,4.5 -3.33435,-0.3884 -3.80834,-2.92735 -1.21457,-6.50581 2.5262,-3.48523 5.38167,-14.05917 8.18154,-30.29656 1.71928,-9.97071 2.17521,-16.85037 2.25326,-33.999998 C 365.8784,45.558226 363.52801,41.255146 331.90673,20.025657 314.4529,8.307735 311.0225,6.9689488 302.21023,8.435995 c -11.42042,1.901244 -19.67036,6.757717 -40.89941,24.076161 -20.08345,16.38388 -27.30528,25.617066 -27.23157,34.815896 0.0475,5.92834 4.48344,15.98946 14.08652,31.949518 15.62314,25.96522 29.18369,43.96246 39.66352,52.64047 8.55286,7.08234 20.2777,13.96183 23.8319,13.98324 3.48849,0.021 4.77912,2.76814 2.18997,4.66137 -2.7926,2.042 -4.66917,1.69219 -12.1383,-2.26268 z m 18.13182,-21.43877 c -0.35923,-0.58125 -0.37722,-2.15625 -0.04,-3.5 0.43344,-1.72696 1.30458,-2.44316 2.9717,-2.44316 3.34255,0 5.04381,2.30854 3.6376,4.93608 -1.17113,2.18828 -5.43531,2.84199 -6.56934,1.00708 z M 315.979,121.07853 c -0.54783,-0.88641 0.67987,-9.13691 2.03272,-13.66049 0.46548,-1.55645 -0.1587,-1.27923 -2.8145,1.25 -6.18269,5.88806 -6.61978,3.70976 -0.74652,-3.72046 3.01732,-3.8172 4.63485,-5.06977 6.25,-4.8398 1.8457,0.26279 2.16281,0.92227 2.07255,4.31026 -0.18171,6.82081 -2.90071,16.96753 -4.6373,17.30537 -0.86332,0.16795 -1.83395,-0.12225 -2.15695,-0.64488 z m -44.44168,-20.91049 c -0.50208,-0.9625 -1.23489,-5.275748 -1.62847,-9.584998 l -0.71561,-7.83499 -2.65112,0.66539 c -4.08342,1.02487 -4.9323,2.18916 -5.69053,7.80491 -0.83453,6.18093 -2.00373,8.699688 -4.03835,8.699688 -2.71449,0 -2.72021,-2.977498 -0.0275,-14.304268 4.42105,-18.59679 10.19067,-26.24402 14.09866,-18.6868 0.89105,1.7231 2.26582,8.38849 3.05505,14.81199 0.78924,6.42349 1.62427,13.08849 1.85564,14.8111 0.61687,4.592908 -2.40833,7.163518 -4.2578,3.617978 z m -3.2278,-23.499998 c -0.0387,-0.6875 -0.43909,-2.15 -0.88986,-3.25 -0.76153,-1.85832 -0.89822,-1.80058 -1.92972,0.8151 -1.44821,3.6724 -1.44519,3.6849 0.88987,3.6849 1.1,0 1.96837,-0.5625 1.92971,-1.25 z m 22.29652,14.13798 c -2.8134,-1.04074 -4.22623,-4.62798 -4.22623,-10.73057 0,-2.65611 -0.68249,-5.68679 -1.56406,-6.9454 -1.70373,-2.43242 -1.10962,-6.21201 0.97646,-6.21201 3.25726,0 6.5876,7.4503 6.5876,14.73712 l 0,4.43868 3.86785,-0.65347 c 2.94239,-0.49712 4.00488,-0.29637 4.44056,0.83899 1.10706,2.88496 -5.95225,6.05443 -10.08218,4.52666 z m 21.15289,-1.32456 c -1.71648,-0.74706 -4.41648,-3.05691 -6,-5.13301 -2.54543,-3.33724 -2.87912,-4.59505 -2.87912,-10.85257 0,-5.38032 0.55566,-8.20599 2.31686,-11.78167 2.08541,-4.23395 5.43533,-6.87731 6.88209,-5.43056 0.30152,0.30153 -0.63239,3.49735 -2.07536,7.10183 -2.8328,7.0762 -3.2705,11.40488 -1.5014,14.8483 2.02738,3.94616 6.20915,7.68426 8.59629,7.68426 2.72847,0 4.21732,2.79384 2.17724,4.08561 -1.91195,1.21064 -3.84349,1.07645 -7.5166,-0.52219 z m 8.28755,-4.23009 c -0.36667,-0.36666 -0.66667,-1.71666 -0.66667,-3 0,-1.6335 -0.57532,-2.33333 -1.91821,-2.33333 -2.9805,0 -5.08179,-1.07797 -5.08179,-2.60699 0,-0.91667 1.15894,-1.39301 3.38922,-1.39301 1.86406,0 4.3062,-0.7875 5.42697,-1.75 2.45989,-2.11252 6.18381,-9.0349 6.18381,-11.49505 0,-0.97607 -1.85187,-5.36052 -4.11527,-9.743236 -2.65616,-5.14324 -3.87179,-8.59669 -3.42858,-9.74014 0.64052,-1.65245 0.78046,-1.63709 2.08116,0.22843 0.76696,1.1 1.76161,2.45 2.21033,3 0.44872,0.55 1.88873,2.74891 3.20001,4.88647 l 2.38416,3.886466 2.814,-5.565036 c 3.03916,-6.01029 4.49386,-7.46823 5.97439,-5.9877 0.59459,0.59459 -0.18064,3.45689 -2.08713,7.70609 -1.66819,3.718076 -3.03307,7.640536 -3.03307,8.716586 0,2.27762 2.7017,7.85712 3.80456,7.85712 0.41426,0 3.24923,-4.6125 6.29993,-10.25 7.54657,-13.945566 11.43719,-15.358126 16.64619,-6.043696 3.14956,5.631836 3.97629,12.423866 1.77963,14.620526 -2.32148,2.32148 -3.08862,1.53206 -3.38452,-3.48284 -0.30368,-5.14679 -0.42191,-5.30177 -2.9944,-3.92501 -1.11095,0.59456 -3.28699,1.0875 -4.83565,1.09543 -2.33752,0.012 -3.28274,0.86114 -5.56545,5 -1.87671,3.40273 -3.38477,4.98559 -4.75,4.98559 -1.33362,0 -2.00029,0.66657 -2.00029,2 0,1.33333 -0.66667,2 -2,2 -1.1,0 -2.9,-0.9 -4,-2 -1.1,-1.1 -2.13586,-2 -2.30191,-2 -0.43493,0 -6.52077,12.16982 -7.12608,14.25 -0.52455,1.80259 -1.7348,2.25387 -2.90534,1.08333 z m 34.83333,-32.249996 c 0,-2.32419 -2.27838,-2.36595 -3.51016,-0.0643 -1.03106,1.926536 -0.91287,2.107556 1.18229,1.810756 1.28033,-0.18136 2.32787,-0.96725 2.32787,-1.746416 z"
     style="fill:#000000"
     inkscape:connector-curvature="0" />
</svg>
