<?xml version="1.0" encoding="UTF-8" standalone="no"?>
<!-- Created with Inkscape (http://www.inkscape.org/) -->

<svg
   xmlns:dc="http://purl.org/dc/elements/1.1/"
   xmlns:cc="http://creativecommons.org/ns#"
   xmlns:rdf="http://www.w3.org/1999/02/22-rdf-syntax-ns#"
   xmlns:svg="http://www.w3.org/2000/svg"
   xmlns="http://www.w3.org/2000/svg"
   xmlns:sodipodi="http://sodipodi.sourceforge.net/DTD/sodipodi-0.dtd"
   xmlns:inkscape="http://www.inkscape.org/namespaces/inkscape"
   id="svg4154"
   version="1.1"
   inkscape:version="0.91 r13725"
   width="505"
   height="505.99991"
   viewBox="0 0 505.00001 505.99991"
   sodipodi:docname="jeremy_vine.svg">
  <metadata
     id="metadata4160">
    <rdf:RDF>
      <cc:Work
         rdf:about="">
        <dc:format>image/svg+xml</dc:format>
        <dc:type
           rdf:resource="http://purl.org/dc/dcmitype/StillImage" />
        <dc:title></dc:title>
      </cc:Work>
    </rdf:RDF>
  </metadata>
  <defs
     id="defs4158" />
  <sodipodi:namedview
     pagecolor="#ffffff"
     bordercolor="#666666"
     borderopacity="1"
     objecttolerance="10"
     gridtolerance="10"
     guidetolerance="10"
     inkscape:pageopacity="0"
     inkscape:pageshadow="2"
     inkscape:window-width="825"
     inkscape:window-height="688"
     id="namedview4156"
     showgrid="false"
     fit-margin-top="0"
     fit-margin-left="0"
     fit-margin-right="0"
     fit-margin-bottom="0"
     inkscape:zoom="0.36702955"
     inkscape:cx="176.99493"
     inkscape:cy="478.75651"
     inkscape:window-x="0"
     inkscape:window-y="0"
     inkscape:window-maximized="0"
     inkscape:current-layer="svg4154" />
  <path
     style="fill:#000000"
     d="m 261.54093,509.40865 c 0.34727,-2.6125 2.18574,-7.9 4.08547,-11.75 3.67458,-7.44689 11.79724,-17.53506 12.80532,-15.90394 0.33209,0.53733 -1.74775,4.39859 -4.62186,8.58059 -5.62421,8.18353 -7.93486,12.88026 -9.62951,19.57335 -1.5055,5.94608 -3.44739,5.57822 -2.63942,-0.5 z m 18.64044,-16.11316 c 0,-0.47474 2.1375,-2.86944 4.75,-5.32156 9.45511,-8.87467 15.61933,-17.84473 18.75,-27.28466 l 2,-6.03062 7.84389,-0.29375 c 11.0431,-0.41357 14.48221,1.46064 28.55041,15.55911 l 11.39431,11.41882 -0.52937,-6.34209 c -0.34047,-4.07907 -1.96958,-9.93619 -4.56555,-16.41453 -4.74706,-11.84642 -8.29178,-18.08856 -16.34591,-28.78461 -7.32133,-9.72288 -8.78611,-12.65872 -12.36943,-24.7918 l -2.84964,-9.64885 -1.90265,2.41883 c -2.69545,3.42671 -6.9598,5.37887 -11.74972,5.37887 -3.38659,0 -4.06363,-0.31257 -3.79067,-1.75 0.25312,-1.33294 1.51573,-1.82482 5.29793,-2.06396 6.06664,-0.38358 7.08222,-1.17756 10.1862,-7.96354 1.99757,-4.36714 2.84711,-5.28934 4.63787,-5.03449 1.57414,0.22401 2.20422,1.01693 2.23448,2.81199 0.0743,4.40682 1.60753,11.06763 4.55427,19.78526 2.26876,6.71188 4.46433,10.60533 10.45731,18.54422 8.09952,10.72941 14.73653,23.33389 18.92985,35.95008 2.22582,6.69669 2.54611,9.20217 2.30108,18 -0.23094,8.29165 -0.56774,10.22044 -1.78466,10.22044 -0.96776,0 -1.61293,-1.17654 -1.81827,-3.31579 -0.26481,-2.75889 -0.56029,-3.11492 -1.75933,-2.11981 -1.17844,0.97802 -2.20208,0.30661 -5.61698,-3.68421 -5.73415,-6.70121 -16.53243,-17.00953 -21.02492,-20.07094 -2.68149,-1.8273 -5.51179,-2.67853 -10.14177,-3.05018 l -6.42226,-0.51551 -1.60226,5.37822 c -2.1061,7.06947 -11.62994,20.13769 -18.61421,25.54164 -5.14025,3.97717 -9,5.46679 -9,3.47342 z m -18.46553,-5.48797 c -3.15102,-2.30409 -1.40561,-9.62327 8.85896,-37.14887 16.96647,-45.49748 16.64635,-44.77031 20.5715,-46.72926 2.96428,-1.47941 3.75898,-1.53403 5.5,-0.37803 2.60429,1.72918 2.62385,4.07728 0.0351,4.20923 -1.1,0.0561 -2.52838,0.16857 -3.17417,0.25 -1.18119,0.14895 -5.94059,11.69079 -12.84421,31.14806 -2.04903,5.775 -6.3648,17.12911 -9.5906,25.23135 -3.29175,8.26789 -5.99285,16.68975 -6.15627,19.19488 -0.34902,5.35045 -0.81573,5.96626 -3.20028,4.22264 z m -60.53014,-32.0742 c -4.67262,-5.72917 -8.66121,-10.25114 -8.86354,-10.0488 -0.20233,0.20233 0.61412,3.60088 1.81433,7.55233 1.50643,4.95959 1.86114,7.50553 1.14543,8.22124 -0.71572,0.71572 -1.81783,-0.64108 -3.55891,-4.38132 -1.38716,-2.97997 -2.52651,-5.99031 -2.53188,-6.68965 -0.0148,-1.92636 -6.53221,-18.5281 -11.47433,-29.22847 -2.41324,-5.225 -4.6958,-10.74175 -5.07236,-12.25945 -0.87441,-3.52434 -1.9195,-4.14128 -3.81103,-2.24974 -1.93114,1.93114 -3.02964,1.93555 -2.29042,0.009 0.72152,-1.88027 1.58698,-1.94534 -12.73599,0.95752 -16.7757,3.39995 -28.45797,6.92931 -36.73768,11.09891 -5.79519,2.91841 -7.92975,3.49014 -12.10869,3.24327 -12.217378,-0.72174 -8.109218,-9.47427 11.97086,-25.5042 7.89053,-6.29902 18.1132,-17.59994 19.55289,-21.61527 0.23274,-0.64913 0.79465,-0.83286 1.24868,-0.40829 1.24178,1.16119 -2.76878,8.6117 -7.53429,13.99662 -2.32102,2.6227 -7.66195,7.51695 -11.86872,10.8761 -4.20677,3.35914 -8.93403,7.51329 -10.50502,9.23144 -3.07471,3.36272 -6.63385,8.65534 -6.63992,9.8739 -0.01,2.01061 6.75888,0.29692 14.75403,-3.73529 11.31496,-5.70649 38.65035,-12.68863 50.44877,-12.88587 8.74521,-0.1462 10.62735,0.90793 11.31442,6.33688 0.22898,1.8093 1.1127,4.35243 1.96381,5.65139 0.85111,1.29897 1.46267,2.47901 1.35902,2.62232 -0.10365,0.14331 2.13662,4.76057 4.97837,10.26057 2.84175,5.5 9.8943,16.26558 15.67233,23.9235 5.77803,7.65793 10.50551,14.29543 10.50551,14.75 0,2.65202 -3.4861,-0.39122 -10.99567,-9.59883 z m 166.49567,5.76818 c -4.90895,-1.72629 -8.35337,-4.88948 -6.90323,-6.33962 1.09231,-1.09231 12.40323,4.39101 12.40323,6.01286 0,1.63993 -1.51059,1.72968 -5.5,0.32676 z M 165.18136,413.43608 c 0,-1.49674 3.46413,-4.27743 5.32874,-4.27743 1.85704,0 2.07446,0.81507 0.76775,2.87812 -0.48009,0.75796 -1.39291,1.05672 -2.02849,0.66391 -0.63559,-0.39282 -1.8109,-0.17037 -2.6118,0.49432 -0.80091,0.6647 -1.4562,0.77318 -1.4562,0.24108 z M 240.49551,394.174 c -7.72456,-1.09902 -49.91438,-11.29743 -57.42206,-13.88045 -3.06153,-1.05332 -6.98363,-2.648 -8.71576,-3.54372 -4.44951,-2.30093 -10.17633,-7.52406 -10.17633,-9.28129 0,-0.81562 -1.37289,-3.39465 -3.05087,-5.7312 -2.81897,-3.92535 -3.20829,-5.53402 -5.12174,-21.16348 -4.10154,-33.50211 -2.04294,-80.36781 6.27763,-142.91521 3.94,-29.61777 7.84195,-61.42527 8.49309,-69.23302 0.56893,-6.822 0.43138,-8.04168 -0.96744,-8.57846 -5.41034,-2.07615 2.21049,-17.33657 15.68409,-31.406814 l 4.03941,-4.21829 -3.66252,1.01127 c -7.85949,2.17012 -10.05179,-3.16865 -4.64999,-11.32387 1.67291,-2.52564 6.20578,-7.18074 10.07305,-10.34466 5.17444,-4.23338 7.80817,-7.29141 9.97273,-11.57938 1.61774,-3.20473 2.68522,-5.82678 2.37215,-5.82678 -0.31307,0 -3.77882,1.36581 -7.70167,3.03513 -7.55858,3.21647 -9.75792,3.23566 -9.75792,0.0851 0,-2.75306 4.93819,-6.56693 15.1312,-11.68617 5.90038,-2.96334 8.63933,-4.86855 8.29376,-5.76909 -0.28378,-0.73953 0.067,-1.82817 0.77954,-2.4192 1.47332,-1.2221 16.41193,-4.23505 21.15598,-4.26692 1.72674,-0.0116 6.28953,-1.17604 10.13953,-2.58765 19.55683,-7.17056 20.9084,-7.5342 26,-6.9953 2.75,0.29106 5.675,0.5835 6.5,0.64988 0.825,0.0664 3.54712,0.95684 6.04916,1.97882 4.18657,1.71004 11.57738,2.50784 16.45084,1.77577 2.86655,-0.43059 3.03387,3.29836 0.55017,12.26108 -2.4514,8.8462 -2.55064,10.9385 -0.51879,10.9385 1.73739,0 2.24714,-1.08846 4.4491,-9.5 1.25054,-4.77709 1.97309,-6 3.54509,-6 1.8439,0 1.95279,0.59499 1.64706,9 l -0.32736,9 2.18709,-4 c 1.8742,-3.42777 2.20958,-5.72669 2.34431,-16.06985 0.16677,-12.80216 1.60652,-17.4484501 5.39638,-17.4148401 2.74649,0.0243 3.77403,1.08105 7.76441,7.9846901 2.0664,3.575 6.7113,10.66092 10.32202,15.74649 4.97844,7.01196 6.76733,8.88485 7.40242,7.75 0.46061,-0.82307 1.24929,-1.49649 1.75261,-1.49649 1.69091,0 2.78661,3.45273 4.92182,15.50938 2.30111,12.99341 3.7835,18.49062 4.98623,18.49062 0.90504,0 4.69166,-4.0295 4.32744,-4.60499 -0.82648,-1.30588 0.0432,-2.39501 1.91245,-2.39501 2.88,0 11.36006,5.52068 13.84885,9.01587 2.0043,2.81478 2.69632,6.98413 1.15921,6.98413 -1.09534,0 2.03784,14.608359 3.43226,16.002779 0.77599,0.77599 1.44401,0.64579 2.36206,-0.46039 0.70403,-0.84831 2.01246,-1.54221 2.90761,-1.542 1.35658,3.1e-4 1.61032,-1.15144 1.52403,-6.917619 -0.098,-6.54869 -0.40668,-7.42601 -5.78215,-16.43434 -3.12323,-5.234 -7.76334,-13.93357 -10.31134,-19.33239 -2.54801,-5.39882 -5.68354,-11.4946 -6.96786,-13.54617 -2.79636,-4.4669 -2.87884,-5.34553 -0.58512,-6.23297 2.13274,-0.82515 3.54404,0.75994 18.66481,20.9631 17.94238,23.97317 22.04198,32.72562 23.59329,50.370574 0.51399,5.84619 1.72026,13.92289 2.68059,17.94822 1.94415,8.14905 2.16039,7.06236 -4.58374,23.03482 -3.44014,8.14752 -3.77741,10.14644 -1.71194,10.14644 2.20184,0 2.72792,2.86546 1.10299,6.00773 -0.81941,1.58457 -3.64054,5.49356 -6.26918,8.68665 -2.62865,3.19309 -6.7226,9.05313 -9.09769,13.0223 -5.93495,9.91834 -11.68655,16.28332 -14.71412,16.28332 -2.00435,0 -2.41501,-0.49868 -2.41501,-2.93261 0,-1.99725 -0.6027,-3.1239 -1.88961,-3.53235 -1.03928,-0.32986 -2.10188,-1.71017 -2.36132,-3.06736 -0.4047,-2.11706 1.91123,-10.32785 4.77137,-16.9162 0.7898,-1.81931 0.64115,-1.80273 -2.24164,0.25 -1.69815,1.20919 -4.022,2.19852 -5.16412,2.19852 -1.43846,0 -2.27968,0.84506 -2.73753,2.75 -0.96996,4.03567 -4.26134,10.25 -5.42886,10.25 -2.91359,0 -2.01881,-4.1806 3.93508,-18.38558 0.21086,-0.50307 -0.63314,-0.20267 -1.87555,0.66755 -1.37039,0.95986 -4.4103,6.62409 -7.72834,14.40012 -8.29389,19.43727 -9.35623,22.96076 -9.99706,33.15752 -0.6027,9.59004 1.31973,32.16039 2.73926,32.16039 0.43047,0 1.25328,-1.35 1.82848,-3 0.57519,-1.65 1.53333,-3 2.12921,-3 2.32488,0 2.08574,3.29961 -0.88551,12.21826 -3.01774,9.0582 -3.96809,15.78174 -2.2307,15.78174 1.44735,0 9.61533,-9.25069 12.37434,-14.01463 3.42719,-5.91768 8.61588,-19.83094 8.57195,-22.98537 -0.0192,-1.375 1.14089,-5.14349 2.57787,-8.37443 3.09237,-6.95299 3.14367,-7.50201 0.86268,-9.23352 -2.38247,-1.80856 -3.24718,-1.71377 -3.26531,0.35795 -0.008,0.9625 -0.44066,2.42281 -0.96052,3.24513 -0.81904,1.29556 -1.12185,1.25355 -2.26862,-0.31475 -1.2617,-1.72549 -1.53166,-1.69085 -5.78948,0.74282 -4.49019,2.56649 -6.97266,3.21822 -6.95837,1.8268 0.004,-0.4125 1.91674,-1.84851 4.25,-3.19113 4.13772,-2.38095 4.18067,-2.45861 1.7423,-3.15032 -1.375,-0.39005 -3.7375,-0.75405 -5.25,-0.80887 -1.95385,-0.0708 -2.75,-0.62542 -2.75,-1.91567 0,-2.51517 9.96544,-6.61901 14.31109,-5.89341 4.59271,0.76685 12.6937,5.59181 13.66125,8.13665 1.36595,3.59272 -0.80829,12.2317 -7.06527,28.07275 -6.7379,17.05861 -12.8321,26.40139 -20.28188,31.09338 -2.53827,1.59864 -4.80565,3.80662 -5.03861,4.90662 -0.23297,1.1 -1.14183,6.74733 -2.01971,12.54963 -1.90322,12.57934 -7.80721,36.83631 -13.06851,53.69288 l -3.79839,12.1696 2.15002,5.89661 c 3.74944,10.28322 2.95687,12.79477 -5.35535,16.97029 -2.20296,1.10662 -5.97071,4.34281 -8.3728,7.19154 l -4.36743,5.17952 -11.6272,-0.27699 c -6.39497,-0.15234 -19.50221,0.0154 -29.12721,0.3727 -9.625,0.35732 -20.28364,0.25363 -23.68586,-0.23043 z m 50.18586,-5.5627 c 6.05,-0.0272 11.5027,-0.14018 12.11711,-0.25105 0.61442,-0.11088 2.25582,-1.9223 3.64757,-4.02538 1.58199,-2.39054 4.62949,-4.92059 8.13051,-6.75 3.08003,-1.60942 5.60076,-3.15122 5.60162,-3.42622 8.6e-4,-0.275 -0.86335,-2.75 -1.92046,-5.5 l -1.92202,-5 -1.51939,3.57961 c -1.92041,4.52438 -3.73777,6.09407 -5.66848,4.89599 -2.51091,-1.55812 -1.56563,-13.00929 2.30935,-27.9756 2.0581,-7.94897 3.1312,-13.89063 2.60977,-14.45 -0.48707,-0.5225 -0.88558,-2.34613 -0.88558,-4.05251 0,-3.90265 5.73197,-27.3505 11.48881,-46.99749 8.61038,-29.38553 8.81913,-30.57052 7.43808,-42.22364 -1.39504,-11.77121 -0.76489,-24.26737 1.62762,-32.27636 0.90366,-3.025 4.29207,-11.68365 7.52981,-19.24144 5.6079,-13.09042 5.85723,-14.02441 5.26256,-19.71388 -0.4871,-4.66036 -0.25918,-6.52959 1.03749,-8.50855 1.58301,-2.41597 1.56933,-2.53613 -0.28874,-2.53613 -1.07276,0 -2.86641,-1.16443 -3.98589,-2.58762 -1.63909,-2.08376 -2.58995,-2.46582 -4.88331,-1.96211 -2.05407,0.45115 -3.28293,0.12715 -4.40866,-1.16239 -4.17432,-4.78173 -4.69387,-9.32503 -3.42052,-29.91121 l 0.81174,-13.12333 -3.79152,0.12333 c -3.23904,0.10536 -4.01925,-0.30699 -5.35449,-2.82985 -0.85964,-1.62425 -2.55759,-4.075345 -3.77322,-5.446895 -1.21563,-1.37155 -2.75423,-3.80703 -3.4191,-5.41218 l -1.20886,-2.918459 -1.85479,3.615369 c -2.22558,4.3381 -5.36097,4.78349 -8.69453,1.23508 -2.45006,-2.60798 -5.11248,-10.304249 -5.11248,-14.778669 0,-1.56259 -0.35132,-2.84107 -0.78071,-2.84107 -0.4294,0 -2.4282,3.32951 -4.4418,7.39891 -4.16206,8.411379 -9.1468,14.601099 -11.75864,14.601099 -5.21076,0 -5.04891,-7.7871 0.56743,-27.299779 1.89886,-6.59715 3.30055,-12.14673 3.11487,-12.33241 -0.18568,-0.18568 -2.4532,2.54369 -5.03893,6.06528 -4.62567,6.29986 -13.91926,15.09295 -18.49541,17.49937 -1.93391,1.01697 -2.63794,0.95114 -4.11405,-0.38472 -1.65636,-1.49899 -1.90741,-1.41717 -3.59091,1.17029 -3.24393,4.98576 -13.87291,15.441929 -17.67201,17.384684 -10.49705,5.36792 -12.62519,-0.0928 -5.39864,-13.852724 2.38305,-4.5375 4.11053,-8.25 3.83884,-8.25 -0.27168,0 -1.89709,0.86253 -3.61201,1.91673 -1.71491,1.0542 -5.02294,2.67503 -7.35116,3.60183 -2.33911,0.93114 -7.15277,4.54782 -10.75851,8.083269 -3.58896,3.519 -7.1477,6.39818 -7.90832,6.39818 -0.76061,0 -5.12562,3.161205 -9.7,7.024915 -4.57438,3.8637 -10.88114,8.68512 -14.015,10.71426 l -5.69795,3.68934 -0.5566,6.03574 c -0.30613,3.31966 -0.8487,9.41074 -1.20571,13.53574 l -0.64911,7.5 3.36216,-5 c 1.95373,-2.90548 4.24729,-5.12634 5.47512,-5.30159 2.77794,-0.39651 12.51617,8.46383 15.14728,13.78178 1.84916,3.73749 1.86306,4.05074 0.24475,5.51529 -2.30658,2.08743 -4.97624,0.89826 -5.66014,-2.52123 -0.30505,-1.52527 -2.34078,-4.50594 -4.52385,-6.62373 l -3.9692,-3.85052 -2.32141,2.88537 c -3.11532,3.87216 -7.85638,15.85397 -7.75025,19.58676 0.047,1.65205 -0.55978,3.3648 -1.34834,3.8061 -1.99151,1.1145 -6.56963,35.89538 -10.39552,78.9767 -3.70572,41.72825 -3.97428,64.85649 -1.03628,89.24507 1.09323,9.075 1.99046,16.76035 1.99385,17.07856 0.0135,1.26677 6.5484,10.6421 9.88247,14.17787 4.59731,4.87544 9.31103,6.56843 38.39905,13.79148 29.14794,7.23794 35.10426,8.02264 54.22464,7.14372 8.25,-0.37924 19.95,-0.71178 26,-0.73898 z m -79.5,-55.55648 c -3.575,-1.15511 -7.07337,-2.56842 -7.77418,-3.14069 -0.70079,-0.57226 -1.5474,-0.76724 -1.88136,-0.43329 -0.33395,0.33396 -1.54821,-0.0519 -2.69834,-0.8575 -1.15013,-0.80558 -2.83591,-1.46469 -3.74619,-1.46469 -2.67184,0 -4.40394,-2.68779 -2.89994,-4.5 1.79288,-2.16029 4.22141,-1.87599 12.31953,1.44217 9.72945,3.98659 18.11273,5.45872 26.17123,4.59572 5.66132,-0.60627 7.18766,-1.23033 10.92896,-4.4684 3.26203,-2.82326 5.85308,-4.05969 10.36962,-4.94826 3.49149,-0.68691 6.25771,-1.80143 6.58445,-2.65289 0.62877,-1.63855 5.17409,-2.00892 6.10807,-0.49771 0.32994,0.53385 -0.0965,2.31731 -0.94765,3.96324 -1.16249,2.248 -2.78222,3.35927 -6.50976,4.46623 -2.72923,0.81049 -8.21571,3.40648 -12.19218,5.76886 -7.0876,4.21067 -7.42786,4.30048 -17.28111,4.56132 -8.00744,0.21198 -11.3728,-0.16095 -16.55115,-1.83411 z m -8.00001,-46.30924 c 0,-1.5918 -9.53715,-8.58693 -11.70742,-8.58693 -2.38286,0 -10.18798,-6.33327 -11.39433,-9.24564 -2.18251,-5.26905 0.9378,-23.09211 8.97318,-51.25436 5.91396,-20.72711 6.18218,-21.45833 8.28406,-22.58321 3.35056,-1.79317 3.87571,0.19706 1.87094,7.09053 -10.67854,36.7185 -14.37768,53.23386 -13.83092,61.75007 0.30174,4.69975 0.35871,4.77048 6.30449,7.8268 12.79001,6.57447 19.00001,10.99568 19.00001,13.52705 0,2.0385 -0.54985,2.43427 -3.75,2.69913 -2.83829,0.2349 -3.75001,-0.0625 -3.75001,-1.22344 z m 45.46463,-98.0314 c -2.68699,-2.68699 -2.49082,-4.58439 0.85871,-8.30553 2.56477,-2.84932 7.20732,-2.99551 8.66445,-0.27284 1.84451,3.44651 -2.6008,11.02284 -6.46749,11.02284 -0.33616,0 -1.71121,-1.10001 -3.05567,-2.44447 z m -15.72905,-8.1533 c -0.32877,-0.32877 -0.35563,-1.22877 -0.0597,-2 0.29595,-0.77122 0.0399,-1.40223 -0.5689,-1.40223 -2.04876,0 -1.12981,-2.66841 2.14301,-6.22279 1.7875,-1.94128 5.55191,-6.17281 8.36535,-9.4034 6.60287,-7.58187 13.85645,-11.37381 21.75693,-11.37381 5.25709,0 6.00028,0.30221 10.15008,4.12736 4.70414,4.33612 5.50489,6.77523 2.92672,8.91492 -1.3217,1.09691 -2.17161,0.59106 -5.75,-3.42227 l -4.19906,-4.70944 -4.66462,0.89966 c -7.13553,1.37622 -13.23076,5.53876 -19.36115,13.22206 -3.05768,3.83224 -5.94147,6.96771 -6.40841,6.96771 -0.46695,0 -1.13136,1.125 -1.47646,2.5 -0.61063,2.43292 -1.63818,3.11785 -2.85379,1.90223 z m 86.68937,156.19803 c 1.43491,-7.09485 2.44783,-13.06083 2.25093,-13.25772 -0.87404,-0.87404 -10.84718,38.69537 -10.5789,41.97284 0.22856,2.79222 5.93541,-16.8852 8.32797,-28.71512 z m 6.15337,-44.35528 c -0.60218,-0.60218 -2.61859,4.30015 -2.49674,6.07012 0.0449,0.65169 0.74252,-0.32995 1.55034,-2.18143 0.80782,-1.85148 1.2337,-3.60139 0.9464,-3.88869 z m 6.85549,-18.0047 c 1.73028,-5.07812 2.04163,-9.24028 0.6912,-9.24028 -0.48125,0 -1.14395,1.2375 -1.47266,2.75 -0.32871,1.5125 -1.25582,4.86219 -2.06024,7.44377 -1.21559,3.90109 -1.23139,4.60504 -0.0935,4.16841 0.75297,-0.28894 2.07383,-2.5938 2.93525,-5.1219 z m 26.29537,-60.84445 c -0.33229,-0.33229 -1.1948,-0.36781 -1.91667,-0.0789 -0.79773,0.31922 -0.56078,0.55618 0.60417,0.60416 1.05416,0.0434 1.64479,-0.19293 1.3125,-0.52522 z m 17.77083,-36.1312 c 2.75,-4.70559 4.90724,-8.7092 4.79386,-8.89692 -0.53659,-0.88844 2.71142,-9.58957 4.68298,-12.54529 l 2.21616,-3.32242 -2.99812,3.15567 c -1.67569,1.76374 -3.69869,5.56555 -4.5864,8.61917 -1.64535,5.6598 -3.74322,8.37796 -5.58674,7.2386 -1.18863,-0.73462 -5.60667,8.16122 -6.65404,13.39808 -0.60799,3.03991 -0.51522,3.19714 1.23752,2.09749 1.04213,-0.65382 4.14478,-5.03879 6.89478,-9.74438 z m -8.68,-10.84255 c 4.14588,-3.54872 4.17959,-3.63239 4.1292,-10.25 l -0.0508,-6.67208 -4.89841,9.5 c -6.56802,12.73806 -6.46629,13.65887 0.82,7.42208 z m -11.19825,-7.13689 c 0.31904,-6.3179 -0.0665,-5.64958 -1.46645,2.5424 -0.63167,3.69618 -0.59127,5.00838 0.13192,4.28519 0.57332,-0.57332 1.17386,-3.64573 1.33453,-6.82759 z m -6.93864,-0.47269 c -0.31922,-0.79773 -0.55618,-0.56078 -0.60416,0.60417 -0.0434,1.05416 0.19293,1.64479 0.52522,1.3125 0.33229,-0.3323 0.36781,-1.1948 0.0789,-1.91667 z m 28.01761,-2.0625 c 2.73239,-2.99991 3.89733,-5.48223 4.72629,-10.07101 0.37964,-2.10156 0.96937,-4.54836 1.3105,-5.43733 0.41902,-1.09195 -0.52278,-0.74449 -2.90303,1.07102 -1.93779,1.47802 -3.9908,2.68732 -4.56224,2.68732 -1.39302,0 -2.24199,3.47695 -2.25859,9.25 -0.0152,5.30661 0.69321,5.78698 3.68707,2.5 z m -28.15514,-8.51531 c 0.86039,-0.60457 3.72897,-16.29347 3.09503,-16.92742 -0.10667,-0.10666 -1.71401,2.62275 -3.57187,6.06536 -2.52922,4.68664 -3.20868,6.93367 -2.70429,8.94334 0.69525,2.77009 1.38092,3.18365 3.18113,1.91872 z m 39.36576,-8.23469 c 2.32989,-6.13818 2.47854,-7 1.20737,-7 -0.4847,0 -1.40505,2.1375 -2.04521,4.75 -0.64017,2.6125 -1.42449,5.65 -1.74295,6.75 -1.08869,3.76054 0.49047,1.00703 2.58079,-4.5 z M 336.75564,138.107 c -1.1746,-2.70753 -1.5044,-2.97896 -1.53513,-1.26345 -0.0546,3.04931 2.16202,8.28184 2.65338,6.26345 0.20775,-0.85341 -0.29546,-3.10341 -1.11825,-5 z m 61.42573,-1.00411 c 0,-1.06933 -0.36665,-1.94424 -0.81479,-1.94424 -0.94664,0 -4.20025,6.48898 -4.15361,8.28393 0.0526,2.02526 4.9684,-4.24727 4.9684,-6.33969 z m -17.08403,0.16186 c 3.45144,-4.3578 3.69981,-5.1061 1.69481,-5.1061 -2.2357,0 -5.47224,3.27502 -6.17655,6.25 -0.92393,3.90265 0.84172,3.452 4.48174,-1.1439 z m -14.93526,-4.8561 c -0.0106,-1.5125 -0.62223,-5 -1.35917,-7.75 l -1.33988,-5 -0.6798,5 c -0.3739,2.75 -0.87602,6.2375 -1.11584,7.75 -0.37683,2.37671 -0.10006,2.75 2.03898,2.75 2.03801,0 2.47159,-0.48554 2.45571,-2.75 z m 7.86198,-8.25 -0.0421,-2.5 -0.80059,2.5 c -0.44035,1.375 -0.79375,4.3 -0.78532,6.5 l 0.0153,4 0.82737,-4 c 0.45505,-2.2 0.80845,-5.125 0.78532,-6.5 z m 12.25406,2.87769 c 0.47994,-0.75773 0.87952,-4.09886 0.88794,-7.42474 0.0145,-5.74091 -0.18627,-6.24389 -3.96633,-9.93503 -2.18991,-2.13838 -4.16079,-3.69221 -4.37975,-3.45294 -0.21895,0.23926 -0.59803,5.48953 -0.84239,11.66726 l -0.44429,11.23224 3.9361,-0.35455 c 2.16485,-0.195 4.32878,-0.9745 4.80872,-1.73224 z m -37.75853,-6.31442 c 1.72746,-3.30613 2.59803,-6.18877 2.22447,-7.36574 -0.74234,-2.33893 -4.33809,-5.75546 -5.17576,-4.9178 -1.00255,1.00256 -1.73654,17.72045 -0.77789,17.71789 0.49003,-0.001 2.16816,-2.44676 3.72918,-5.43435 z m 44.93247,-1.73051 c 0.36266,-1.00269 -0.002,-1.89953 -0.91562,-2.25 -2.33168,-0.89475 -2.35507,-0.85859 -2.35507,3.63975 0,3.83876 0.12122,4.04324 1.33384,2.25 0.73361,-1.08488 1.60519,-2.72277 1.93685,-3.63975 z m -26.25423,-6.25345 c -0.63704,-3.06862 -1.6245,-5.57931 -2.19435,-5.57931 -0.60201,0 -0.72603,0.73317 -0.29602,1.75 0.40704,0.9625 1.20584,3.66184 1.77513,5.99853 1.50189,6.16467 2.08084,4.4088 0.71524,-2.16922 z m 6.35325,1.17069 c 0.80966,-3.02122 0.61688,-9.66936 -0.36971,-12.75 -0.69296,-2.163765 -0.81405,-1.955305 -0.90032,1.55 -0.0548,2.2275 -0.49086,4.4775 -0.96897,5 -1.0202,1.11492 -0.27188,8.45 0.86206,8.45 0.42568,0 1.04531,-1.0125 1.37694,-2.25 z M 183.2445,108.20933 c 7.18531,-5.39745 20.95823,-17.848105 20.90091,-18.894315 -0.0198,-0.361009 -1.13613,-2.002899 -2.48077,-3.648649 l -2.44478,-2.99228 -7.11664,6.992279 c -10.18807,10.01005 -19.49564,23.525275 -16.17186,23.482675 0.4125,-0.005 3.70341,-2.22816 7.31314,-4.93971 z m 211.90091,3.19932 c -0.0198,-0.4125 -1.14255,-2.1 -2.49504,-3.75 l -2.45907,-3 -0.005,2.70031 c -0.003,1.52088 0.75939,3.14551 1.74503,3.71959 2.10586,1.22655 3.26272,1.34537 3.21404,0.3301 z m -37.46035,-4.26681 c 0.93554,-4.25949 -5.35637,-22.008114 -6.84657,-19.313214 -0.55656,1.00651 -1.55309,2.280019 -2.21451,2.830019 -0.66142,0.55 -1.46256,3.38088 -1.78031,6.29084 -0.53794,4.926345 -0.41076,5.354305 1.84612,6.212365 1.33313,0.50686 3.4428,2.47595 4.68817,4.37577 2.57417,3.92695 3.37381,3.85347 4.3071,-0.39578 z m 28.26834,-4.98319 c -1.1019,-4.341165 -1.84346,-4.823775 -3.79636,-2.470675 -1.05291,1.268665 -0.87364,1.950385 1.05187,3.999995 3.25246,3.46208 3.91739,3.09155 2.74449,-1.52932 z m -55.77203,-2 c 1.60859,-1.608585 2,-3.333325 2,-8.812915 0,-6.167509 -0.26708,-7.068789 -2.81933,-9.513999 -1.55064,-1.4856 -3.12564,-2.39479 -3.5,-2.02042 -0.37437,0.37436 -0.68067,4.84386 -0.68067,9.932209 0,12.681035 0.88682,14.528305 5,10.415125 z m 12,-0.374995 c 0,-0.75625 0.30089,-2.89375 0.66865,-4.75 0.60761,-3.06688 0.51632,-3.24971 -1,-2.00256 -1.80142,1.48165 -2.34818,8.127555 -0.66865,8.127555 0.55,0 1,-0.61875 1,-1.374995 z m 24.51138,-6.55762 c -0.37794,-2.23707 -1.09762,-4.06739 -1.59928,-4.06739 -1.33684,0 -1.11387,6.39824 0.27123,7.78334 1.75654,1.75654 2.09339,0.81401 1.32805,-3.71595 z M 243.37844,87.158646 c 4.68085,-5.18519 16.25169,-21.8646 20.01638,-28.85371 1.95195,-3.62378 4.39193,-4.94091 6.06103,-3.27181 0.85338,0.85338 0.23663,2.96116 -2.45286,8.38278 -5.92837,11.95069 -5.89857,13.06433 0.19382,7.24274 8.93079,-8.53384 16.58487,-19.56731 17.32622,-24.97603 0.71596,-5.22348 -0.3952,-6.77832 -7.21358,-10.09386 -6.43055,-3.12696 -8.899,-3.43744 -11.35993,-1.42883 l -2.26815,1.85125 2.25,2.11269 c 2.78487,2.61492 2.8651,4.63522 0.23988,6.0402 -1.66682,0.89205 -2.43612,0.61612 -4.50445,-1.61565 -1.9085,-2.0593 -2.92451,-2.47985 -4.32589,-1.7906 -2.22833,1.09598 -27.10178,20.79193 -26.72869,21.16501 0.14576,0.14576 2.34832,-0.89937 4.89458,-2.3225 7.18503,-4.01579 9.63208,-0.76412 2.92457,3.88619 -4.81135,3.33571 -15.04136,13.67213 -13.53137,13.67213 2.90604,0 19.04511,-12.19559 23.12998,-17.47833 2.39174,-3.0931 6.12628,-6.80022 8.29899,-8.23804 3.60378,-2.38487 4.08928,-2.47533 5.53364,-1.03096 1.44436,1.44436 1.40197,1.87561 -0.48325,4.9153 -1.13659,1.83262 -4.51352,5.35703 -7.50428,7.83203 -5.73655,4.74727 -13.38285,15.33199 -18.58096,25.72148 -1.71201,3.421829 -3.11275,6.484769 -3.11275,6.806549 0,1.53512 6.76175,-3.61483 11.19707,-8.528029 z m 116.29965,-8.04103 c -1.56969,-3.43108 -1.57771,-3.39849 -0.99349,4.04103 1.16378,14.819759 1.74846,16.509399 2.23506,6.458969 0.23795,-4.914869 -0.13696,-8.085519 -1.24157,-10.499999 z m -50.0891,9.31243 c 1.27803,-2.68006 1.8603,-6.72296 2.07054,-14.37652 0.31118,-11.32821 0.034,-12.60123 -2.73891,-12.57696 -1.88276,0.0165 -4.73925,7.64922 -4.73925,12.66358 0,1.44018 -0.51538,3.13388 -1.14528,3.76378 -1.67786,1.67786 1.84713,14.254729 3.99525,14.254729 0.42878,0 1.57973,-1.67788 2.55765,-3.728609 z m -18.96859,-11.7714 c 4.1864,-8.28379 5.55933,-12.06585 5.56003,-15.31642 9e-4,-4.11905 -0.1248,-4.30196 -2.74906,-4 -2.61509,0.3009 -2.91036,0.90512 -6.01871,12.31642 -3.84569,14.11819 -4.98872,20.469839 -3.41918,19 0.5873,-0.55 3.56942,-5.95 6.62692,-12 z m 48.71325,4.84691 c -1.09298,-2.1158 -3.93687,-5.67976 -6.31976,-7.91991 -4.366,-4.10447 -9.83252,-7.94889 -9.83252,-6.91487 0,0.84388 3.07517,5.52204 6.45992,9.82728 2.99852,3.81398 10.54245,9.99155 11.28936,9.24464 0.21463,-0.21463 -0.50402,-2.12135 -1.597,-4.23714 z m -129.83836,-1.68413 c -0.77135,-4.05792 -0.74322,-4.03613 -3.21654,-2.49152 -2.50285,1.56306 -2.69972,4.08354 -0.49143,6.29183 2.39404,2.39404 4.47919,0.25696 3.70797,-3.80031 z m 138.24979,-3.17487 c -0.32979,-1.75793 -2.18503,-4.94936 -4.12276,-7.09207 l -3.52315,-3.89584 0.66106,3.5 c 0.36359,1.925 2.04121,6.425 3.72805,10 2.83346,6.00508 3.09704,6.27858 3.4617,3.59207 0.21709,-1.59937 0.12489,-4.34624 -0.2049,-6.10416 z m -154.90482,1.34683 c 5.70536,-2.11261 7.67483,-3.87912 7.17368,-6.43441 -0.2841,-1.44853 -0.80338,-1.29931 -3.56211,1.02363 -3.44251,2.89871 -5.27047,2.71073 -5.27047,-0.54199 0,-2.61021 -1.41877,-1.66701 -5.06605,3.36791 -4.74386,6.5487 -4.369,6.69279 6.72495,2.58486 z m 196.34111,-1.40048 c 0,-1.53689 -7.61852,-12.93435 -11.31954,-16.93426 -1.42172,-1.53654 1.11472,3.27382 5.66834,10.75 3.57154,5.86379 5.6512,8.13961 5.6512,6.18426 z M 213.9745,65.608526 c 0.16122,-0.11154 -0.37256,-0.45825 -1.18618,-0.77047 -1.58283,-0.60739 -6.60695,2.79532 -6.60695,4.47473 0,0.77137 4.23088,-1.23966 7.79313,-3.70426 z m 119.80863,-4.04529 c -0.46549,-1.21305 -0.84978,-1.16032 -2.35208,0.32273 -1.72705,1.70493 -1.71837,1.83674 0.22732,3.44865 1.91224,1.58422 2.04102,1.56655 2.35208,-0.32272 0.181,-1.09929 0.0787,-2.65118 -0.22732,-3.44866 z m -8.10176,-1.40459 c -2.96421,-3.09397 -9.02317,-4.54024 -6.55335,-1.56428 0.65535,0.78965 2.50529,1.72427 4.11098,2.07694 1.60569,0.35267 3.17615,1.05659 3.48992,1.56428 0.31377,0.50768 0.85312,0.92306 1.19856,0.92306 0.34544,0 -0.66531,-1.35 -2.24611,-3 z m 9.89392,-6.43335 c 0.3359,-1.33834 1.5247,-2.72343 2.64177,-3.07798 2.02237,-0.64187 2.02159,-0.66031 -0.18285,-4.31665 -1.21765,-2.01961 -4.87001,-7.27202 -8.11637,-11.67202 -3.24637,-4.4 -7.47995,-10.81445 -9.40796,-14.25433 -1.92802,-3.43988 -3.91566,-6.00083 -4.417,-5.69099 -0.50133,0.30984 -0.91151,3.00832 -0.91151,5.99662 0,4.81877 0.35112,5.74516 3.10456,8.19098 3.8475,3.41766 7.31154,10.11128 9.5304,18.41571 2.24995,8.4208 6.39471,11.84425 7.75896,6.40866 z m -40.66475,-0.17082 c -0.33229,-0.33229 -1.1948,-0.36781 -1.91667,-0.0789 -0.79773,0.31922 -0.56078,0.55618 0.60417,0.60416 1.05416,0.0434 1.64479,-0.19292 1.3125,-0.52522 z m 7.27083,-1.81404 c 0,-1.52442 -1.36169,-3.47629 -2.10478,-3.01703 -1.46276,0.90403 -1.01714,3.43524 0.60478,3.43524 0.825,0 1.5,-0.1882 1.5,-0.41821 z m 17,0.0465 c 0,-1.54681 -4.89766,-10.7074 -4.94239,-9.24426 -0.10361,3.38844 2.22826,9.61597 3.60068,9.61597 0.73794,0 1.34171,-0.16729 1.34171,-0.37176 z m -104.07955,-7.87829 c 4.46353,-4.89166 4.16907,-5.88189 -0.9603,-3.22939 -2.42889,1.25602 -6.96015,7.76388 -6.96015,9.99626 0,1.06914 3.49454,-1.91644 7.92045,-6.76687 z m 105.68916,-3.14191 c -0.82916,-1.98445 -1.76156,-3.60809 -2.072,-3.60809 -0.31045,0 0.11659,1.62996 0.94897,3.62212 0.83238,1.99217 1.51342,3.86717 1.51342,4.16667 0,0.2995 0.25136,0.29318 0.55858,-0.014 0.30722,-0.30722 -0.11982,-2.18222 -0.94897,-4.16666 z m -82.60961,-7.01613 8.5,-3.55536 -4.52749,-0.0183 c -2.62044,-0.0106 -5.56896,0.68951 -7,1.66209 -3.98096,2.70558 -8.60471,6.73299 -6.97251,6.07325 0.825,-0.33347 5.325,-2.20623 10,-4.16168 z m 49.56678,-4.99352 0.71267,-3.90156 -5.88973,0.55616 c -3.23934,0.3059 -7.23893,1.08043 -8.88796,1.72119 l -2.99824,1.16502 5.33989,1.80774 c 2.93693,0.99425 6.07007,2.53791 6.96252,3.43037 2.14819,2.14819 3.79804,0.49208 4.76085,-4.77892 z m -20.41419,-3.73435 c 5.2515,-1.9148 5.67622,-2.27384 4.10267,-3.4682 -2.96962,-2.25401 -8.81386,-1.70948 -11.84976,1.10411 -1.48365,1.375 -3.64434,2.56385 -4.80152,2.6419 -1.15719,0.0781 -0.30398,0.46419 1.89602,0.8581 2.2,0.3939 4.1788,0.78004 4.39733,0.85809 0.21853,0.078 3.0334,-0.81925 6.25526,-1.994 z M 163.18136,392.82743 c 1.81583,-0.84892 2.40936,-1.80888 2.16879,-3.50774 -0.25789,-1.82122 0.0741,-2.25486 1.5,-1.95902 1.26816,0.26313 1.74673,1.1226 1.55645,2.79525 -0.32679,2.87269 -1.82906,3.99573 -5.22524,3.9062 l -2.5,-0.0659 2.5,-1.16878 z"
     id="path4164"
     inkscape:connector-curvature="0" />
</svg>
