<?xml version="1.0" encoding="UTF-8" standalone="no"?>
<svg
   xmlns:dc="http://purl.org/dc/elements/1.1/"
   xmlns:cc="http://creativecommons.org/ns#"
   xmlns:rdf="http://www.w3.org/1999/02/22-rdf-syntax-ns#"
   xmlns:svg="http://www.w3.org/2000/svg"
   xmlns="http://www.w3.org/2000/svg"
   xmlns:sodipodi="http://sodipodi.sourceforge.net/DTD/sodipodi-0.dtd"
   xmlns:inkscape="http://www.inkscape.org/namespaces/inkscape"
   viewBox="0 0 468.4296 539.573"
   height="539.573"
   width="468.4296"
   version="1.1"
   id="svg4236"
   inkscape:version="0.91 r13725"
   sodipodi:docname="just_this_one.svg">
  <sodipodi:namedview
     pagecolor="#ffffff"
     bordercolor="#666666"
     borderopacity="1"
     objecttolerance="10"
     gridtolerance="10"
     guidetolerance="10"
     inkscape:pageopacity="0"
     inkscape:pageshadow="2"
     inkscape:window-width="640"
     inkscape:window-height="480"
     id="namedview4444"
     showgrid="false"
     inkscape:zoom="0.4373829"
     inkscape:cx="234.2148"
     inkscape:cy="269.7865"
     inkscape:window-x="0"
     inkscape:window-y="0"
     inkscape:window-maximized="0"
     inkscape:current-layer="svg4236" />
  <metadata
     id="metadata4242">
    <rdf:RDF>
      <cc:Work
         rdf:about="">
        <dc:format>image/svg+xml</dc:format>
        <dc:type
           rdf:resource="http://purl.org/dc/dcmitype/StillImage" />
        <dc:title />
      </cc:Work>
    </rdf:RDF>
  </metadata>
  <defs
     id="defs4240" />
  <path
     id="path4246"
     d="m 47.322405,538.68014 c -10.51218,-1.2122 -13.55759,-1.91645 -14.07079,-3.25385 -0.25613,-0.66745 0.435,-4.73519 1.53584,-9.03942 1.98969,-7.77964 1.99006,-7.87998 0.0631,-16.98128 -5.16976,-24.41679 -5.94393,-35.27861 -7.03163,-98.6554 -1.00174,-58.36797 -1.85602,-69.91161 -7.94243,-107.32379 -7.60943,-46.77396 -9.48316,-64.03849 -10.54658,-97.17621 -0.3177,-9.9 -1.02908,-28.575 -1.58084,-41.5 -0.55176,-12.925 -1.42102,-38.575 -1.93169,-57 -0.51067,-18.425 -1.05594,-34.38086 -1.21171,-35.45747 -0.40898,-2.82658 2.74075,-4.05809 23.34916,-9.12928 9.93576,-2.44493 24.6581,-6.26862 32.71631,-8.49709 13.34741,-3.69118 63.825345,-14.32044 96.968475,-20.41888 19.81121,-3.64533 44.59637,-7.2219 73.18283,-10.5605 14.025,-1.63797 33.6,-4.08884 43.5,-5.44637 22.01644,-3.01901 48.47983,-5.99067 66.5,-7.46751 19.68793,-1.6135296 27.89178,-2.8608996 43.11629,-6.5557196 18.51418,-4.49320002 22.1081,-4.94426002 27.45849,-3.44624002 6.10825,1.71020002 5.07306,3.44552002 -2.16578,3.63051002 -3.25947,0.0833 -12.22241,1.76741 -19.91765,3.74247 -19.5531,5.0184896 -21.78061,5.3755996 -50.99135,8.1747996 -23.10708,2.21431 -68.81004,7.62067 -75.5,8.93116 -1.375,0.26935 -14.425,1.85704 -29,3.5282 -30.34956,3.47987 -53.74578,6.86161 -75.40283,10.89888 -39.43686,7.35177 -82.006135,16.43531 -100.597175,21.4657 -11.275,3.0508 -26.575,7.02301 -34,8.82713 -7.425,1.80412 -13.44045,3.61927 -13.36766,4.03367 0.0728,0.41441 0.43156,12.11441 0.79728,26 0.36571,13.8856 1.08621,35.14654 1.6011,47.24654 0.5149,12.1 1.3974,35.725 1.96113,52.5 1.33907,39.84758 2.76559,53.20054 11.48443,107.5 5.58515,34.78339 6.55912,48.60637 7.53924,107 0.95072,56.64202 1.72952,69.0174 5.55191,88.22143 2.79871,14.06093 3.01002,19.39046 0.99523,25.10097 l -1.43733,4.07385 4.68733,0.80187 c 8.61156,1.47321 77.145345,0.80377 99.187345,-0.96885 22.53593,-1.81235 48.41852,-3.18583 89.27609,-4.7375 24.22456,-0.91998 29.37027,-1.44479 54,-5.50744 14.97315,-2.4698 28.57391,-4.70583 30.22391,-4.96895 1.65,-0.26312 11.55,-1.41394 22,-2.55738 10.45,-1.14345 23.5,-2.70893 29,-3.47885 5.5,-0.76992 23.725,-2.76364 40.5,-4.43048 27.4249,-2.72507 31.44742,-3.35921 39.89691,-6.28965 8.38127,-2.90678 9.5446,-3.61029 10.76342,-6.50902 0.75158,-1.7875 1.78391,-3.25 2.29407,-3.25 1.41592,0 2.20612,1.78276 1.09467,2.46968 -0.54096,0.33432 -0.76784,1.82792 -0.50417,3.31909 0.69867,3.95138 -1.07605,5.49472 -10.40173,9.04559 -9.38573,3.57375 -13.9918,4.35367 -39.64317,6.71259 -9.9,0.91041 -26.55,2.73759 -37,4.0604 -10.45,1.32281 -27.55,3.32191 -38,4.44245 -10.45,1.12054 -29.575,3.84037 -42.5,6.04407 -33.14911,5.6519 -33.89912,5.72332 -77.83914,7.41292 -21.76225,0.8368 -49.26369,2.2056 -61.1143,3.04178 -11.85061,0.83617 -28.07156,1.94555 -36.04656,2.46527 -17.14945,1.11763 -61.532065,1.06555 -71.500005,-0.0839 z M 468.1583,516.55849 c -0.45974,-1.26957 -0.72061,-14.6833 -0.57971,-29.8083 0.38523,-41.35198 -1.46278,-56.0775 -10.28921,-81.98765 -9.17868,-26.94419 -11.56697,-50.08252 -9.34249,-90.51235 2.02875,-36.87238 1.68732,-77.39722 -0.9352,-111 -1.20188,-15.4 -2.67181,-34.525 -3.2665,-42.5 -1.42109,-19.05724 -5.13508,-43.32837 -9.96759,-65.13871 -2.14951,-9.70129 -5.28405,-25.41547 -6.96565,-34.9204 -1.68159,-9.50493 -3.51664,-19.3307 -4.07787,-21.83504 -1.45363,-6.48639 -1.27299,-21.55441 0.28837,-24.05455 2.68859,-4.30512 3.50729,-2.28145 3.51914,8.6987 0.007,6.22497 0.66575,13.48607 1.56563,17.25 0.85472,3.575 2.53172,12.125 3.72666,19 1.19495,6.875 3.94646,20.4974 6.11448,30.27201 7.94572,35.82366 9.65753,49.22496 14.46312,113.22799 2.73984,36.49052 2.87294,57.31513 0.80208,125.5 -0.99834,32.8711 1.2542,50.14319 9.9306,76.14622 8.37979,25.11409 9.5178,34.23579 9.77528,78.35378 0.20238,34.6761 0.18516,35.00285 -1.86049,35.3083 -1.41024,0.21056 -2.32973,-0.42343 -2.90065,-2 z M 110.82241,409.25019 c -0.68469,-0.825 -1.07729,-1.52312 -0.87244,-1.55138 0.20484,-0.0283 4.75994,-0.26591 10.12244,-0.52812 7.9089,-0.38672 9.75,-0.21289 9.75,0.92054 0,2.76644 -16.81469,3.7921 -19,1.15896 z m 145.86886,-17.24117 c -5.63308,-0.25 -8.02726,-0.78643 -9.14402,-2.04875 -2.18711,-2.47221 -7.33497,-19.31761 -9.21542,-30.15578 -1.52142,-8.76887 -2.67863,-23.57188 -4.17636,-53.42399 -0.37581,-7.49066 -0.0963,-21.34957 0.66876,-33.15841 1.06042,-16.36781 1.07308,-21.99741 0.0655,-29.13031 -1.40601,-9.95315 -0.72583,-13.20877 3.31246,-15.85475 2.83904,-1.86021 92.61597,-23.58807 109.12025,-26.40933 22.17824,-3.79119 41.62763,-3.59282 36.23344,0.36955 -0.98455,0.72321 -6.29668,1.61047 -12,2.00432 -5.62839,0.38867 -15.32379,1.56822 -21.54532,2.62124 -16.29917,2.75867 -107.42742,24.84815 -109.07997,26.44097 -1.171,1.12867 -1.19738,3.05878 -0.16626,12.16397 0.92103,8.13301 0.95884,13.8045 0.15217,22.82244 -1.47446,16.48324 -1.33796,39.04877 0.38715,64 1.62024,23.43452 3.18472,33.1184 7.35772,45.54308 l 2.84038,8.45692 18.91034,0.34493 c 24.98712,0.45578 45.9699,-1.27351 66.41035,-5.47319 17.9756,-3.69324 44.45514,-6.86455 49.95938,-5.98335 4.28292,0.68567 13.33573,-3.44603 17.04062,-7.77732 8.14126,-9.51776 8.11809,-12.824 -0.23379,-33.37168 l -6.23379,-15.33665 -1.38184,4.14552 c -1.01184,3.03552 -2.20708,4.49251 -4.46384,5.44141 -3.40727,1.43265 -5.19844,1.09034 -8.18674,-1.56455 -1.1,-0.97727 -3.24532,-2.08597 -4.76738,-2.46376 -2.22492,-0.55226 -3.14935,-0.20129 -4.7161,1.79051 -1.0718,1.36258 -3.31133,3.04182 -4.97673,3.73165 -5.96873,2.47233 -10.2751,-3.34715 -6.48309,-8.76101 0.90576,-1.29315 1.10587,-2.22251 0.47857,-2.22251 -1.1095,0 -1.62402,1.05426 -4.5493,9.32158 -2.0648,5.83545 -5.41103,7.9612 -8.34804,5.30324 -1.797,-1.62625 -1.89042,-1.51311 -2.38679,2.89074 -0.58944,5.22949 -1.29033,6.34525 -2.94592,4.68966 -1.73213,-1.73213 -2.36834,-17.82177 -0.78036,-19.73517 1.7861,-2.15212 2.61777,-1.60152 5.20843,3.4482 1.24669,2.43003 2.71671,4.38827 3.26671,4.35165 0.55,-0.0366 1.81772,-2.24014 2.81715,-4.8967 2.48157,-6.59617 3.31644,-7.3732 7.92193,-7.3732 3.68208,0 3.93969,0.17582 3.29682,2.25 -1.72452,5.56404 -1.74715,6.73171 -0.14238,7.34751 2.27688,0.87372 6.60648,-2.22733 6.60648,-4.73185 0,-1.86746 0.39648,-2.01625 3.75,-1.40736 2.0625,0.37449 5.34919,1.77457 7.30375,3.11129 4.80169,3.28387 6.41183,3.07836 7.65653,-0.97725 0.83724,-2.72798 0.7437,-3.70979 -0.46897,-4.92245 -1.80038,-1.80039 -0.96721,-4.6673 1.54751,-5.32492 1.5759,-0.4121 0.4316,-4.4778 -10.03525,-35.65506 -6.49771,-19.35445 -12.31601,-38.33991 -12.92956,-42.18991 -0.61356,-3.85 -1.76442,-7.75402 -2.55746,-8.6756 -1.79157,-2.08195 -1.34113,-4.75909 1.04607,-6.21722 2.9271,-1.7879 5.25723,2.13529 6.5895,11.09463 1.54999,10.42338 18.83921,62.46142 31.21371,93.94867 12.52223,31.86317 12.61996,33.41604 2.88414,45.82341 -2.19275,2.79445 -5.08207,5.08165 -7.73581,6.1237 -2.3297,0.91481 -4.7473,2.27959 -5.37244,3.03285 -0.78224,0.94254 -3.53868,1.36956 -8.84052,1.36956 -12.63336,0 -28.50119,1.9003 -46.74636,5.59826 -26.97843,5.46803 -51.02135,7.09918 -83.43601,5.66057 z M 92.826165,386.01924 c 0.003,-1.43482 3.45104,-2.7614 18.250005,-7.02147 10.03543,-2.88883 19.13017,-5.25133 20.21053,-5.25 6.07365,0.007 -10.24376,6.99041 -25.46429,10.89727 -13.031535,3.34498 -13.000425,3.34169 -12.996245,1.3742 z M 251.16749,355.20706 c -0.79016,-2.05912 -0.66559,-2.13834 6.15684,-3.91535 11.69437,-3.046 14.52719,-0.77188 3.92267,3.14904 -7.13905,2.63959 -9.29769,2.8037 -10.07951,0.76631 z m 36.25937,-1.70687 c -0.79291,-1.2375 -1.97229,-4.26152 -2.62085,-6.72005 l -1.17919,-4.47005 -1.40221,3.33486 c -0.77121,1.83417 -1.4022,3.91005 -1.4022,4.61306 0,1.98029 -2.70918,2.54752 -4.10938,0.86039 -1.43983,-1.73489 0.30772,-7.87974 4.95247,-17.41425 3.9836,-8.17731 5.40715,-7.31114 6.72571,4.09234 0.60711,5.25046 1.56044,10.36222 2.11852,11.35946 0.97562,1.74333 1.04398,1.74155 1.77513,-0.0463 0.41823,-1.0227 0.99861,-6.06038 1.28971,-11.19485 0.38505,-6.79142 0.91802,-9.48455 1.95578,-9.88278 0.78457,-0.30107 1.87394,-0.1 2.42082,0.44693 0.65909,0.65909 1.95906,0.0296 3.85586,-1.86722 1.57384,-1.57385 3.79615,-2.86154 4.93846,-2.86154 2.50778,0 2.67219,1.26613 0.40613,3.12756 -3.13953,2.57891 -7.32921,10.2516 -7.32921,13.4222 0,3.648 4.26326,8.94693 6.50589,8.08635 1.94146,-0.74501 3.09485,1.35868 1.37223,2.50283 -1.80071,1.196 -6.79235,0.24865 -8.94246,-1.69717 -1.54979,-1.40253 -1.7558,-1.29451 -2.39601,1.25628 -0.38524,1.53492 -1.16936,3.35578 -1.74249,4.04636 -1.6738,2.0168 -5.61219,1.47231 -7.19271,-0.99441 z m -32.60445,-5.75 c 0,-1.65 -0.45,-3 -1,-3 -1.54325,0 -1.18219,-2.71611 0.44402,-3.34014 0.79421,-0.30477 1.98827,-2.37067 2.65346,-4.59089 1.29114,-4.30942 4.15907,-7.64648 5.73466,-6.67272 0.56207,0.34739 0.17474,2.12882 -0.93699,4.30941 -2.64949,5.19682 -2.47557,7.29434 0.60485,7.29434 1.375,0 2.5,0.40186 2.5,0.89301 0,1.06316 -2.45567,2.10699 -4.95679,2.10699 -1.19246,0 -1.99422,1.00505 -2.39321,3 -0.33,1.65 -1.06125,3 -1.625,3 -0.56375,0 -1.025,-1.35 -1.025,-3 z m 10.43992,-1.61666 c 0.36121,-1.43917 0.91625,-3.91417 1.23341,-5.5 0.87474,-4.37369 2.66729,-3.54938 1.88464,0.86666 -1.01026,5.70032 -1.5946,7.25 -2.73377,7.25 -0.62345,0 -0.77759,-1.04957 -0.38428,-2.61666 z m 51.01463,-2.83789 c -1.35,-1.35 -2.45455,-3.16155 -2.45455,-4.02568 0,-1.4179 -0.28773,-1.42234 -2.95034,-0.0455 -3.1285,1.61786 -7.04966,2.0402 -7.04966,0.75936 0,-0.85297 10.309,-7.23363 11.6871,-7.23363 0.48101,0 1.53569,1.9125 2.34373,4.25 1.95656,5.65991 4.42071,5.95588 9.39176,1.12806 l 3.81912,-3.70908 1.66743,2.21056 c 2.31385,3.06755 3.09086,1.76821 3.09086,-5.16865 0,-5.06419 0.21509,-5.77727 1.43679,-4.76335 0.79023,0.65583 1.74743,3.67874 2.1271,6.71756 0.60388,4.83322 0.42422,5.79124 -1.43462,7.65007 -1.80479,1.8048 -2.5511,1.96408 -4.95358,1.05725 -2.42196,-0.91419 -3.22103,-0.73017 -5.55793,1.27994 -3.58933,3.08742 -8.01124,3.04507 -11.16321,-0.10691 z m -197.2413,-0.6852 c 0.51111,-1.53333 19.6798,-6.84231 20.41425,-5.65396 0.82025,1.3272 0.77235,1.34936 -9.08427,4.20174 -9.9465,2.87839 -11.88833,3.12728 -11.32998,1.45222 z M 91.673445,316.65813 c -2.31956,-1.43357 0.16917,-2.71238 15.268945,-7.84574 24.48742,-8.32483 43.38002,-12.34979 43.38002,-9.24187 0,0.86546 -5.33994,2.69424 -15.5,5.30831 -8.525,2.19339 -18.65,5.06958 -22.5,6.39153 -14.125255,4.85012 -19.324055,6.2066 -20.648965,5.38777 z M 257.78454,303.20456 c -3.43694,-4.14126 0.69444,-20.45437 5.18018,-20.45437 2.25728,0 2.24271,0.20511 -0.53269,7.5 -0.83701,2.2 -1.54159,5.4625 -1.56573,7.25 -0.0374,2.77348 0.30698,3.25 2.34912,3.25 2.29603,0 4.11657,2.15709 2.87142,3.40223 -1.21514,1.21514 -7.06108,0.54772 -8.3023,-0.94786 z m 15.59316,-3.36491 c -0.3454,-0.55887 1.82395,-5.19512 4.82077,-10.30279 9.4093,-16.03684 11.80604,-17.72647 13.08137,-9.22198 0.42085,2.80644 1.34525,4.79452 2.52217,5.42439 1.02181,0.54686 2.14492,2.30137 2.4958,3.89891 0.35088,1.59754 1.50401,3.68839 2.56252,4.64633 1.65843,1.50086 2.156,1.54977 3.59823,0.35369 2.41029,-1.99892 4.36385,-7.22087 4.36385,-11.66476 0,-2.11255 0.6263,-4.69751 1.39179,-5.74437 1.20174,-1.64349 1.61839,-1.71532 3.05133,-0.52608 1.32181,1.097 1.53156,2.41214 1.03066,6.46225 -0.36428,2.94543 -0.15986,6.31054 0.48583,7.99779 1.29847,3.39301 -0.10169,5.84508 -2.16147,3.7853 -0.93581,-0.93581 -1.80878,-0.53735 -3.94363,1.8 -3.76032,4.11703 -8.04515,4.07979 -11.9533,-0.1039 l -2.90121,-3.10575 0,3.60575 c 0,1.98317 -0.42885,3.60576 -0.953,3.60576 -0.93494,0 -2.99962,-6.04645 -3.07323,-9 -0.0285,-1.14254 -0.38815,-1.0362 -1.50932,0.44625 -1.08363,1.43282 -1.76647,1.65173 -2.58837,0.82983 -0.82191,-0.82191 -1.94211,-0.037 -4.24626,2.97523 -3.34988,4.37935 -5.06881,5.46545 -6.07453,3.83815 z m 14.44471,-15.33001 c 0,-2.54583 -0.73453,-2.1735 -2.51872,1.27675 -1.53709,2.97241 -1.52712,3.00938 0.47432,1.75946 1.12442,-0.70222 2.0444,-2.06851 2.0444,-3.03621 z m -224.593765,6.08885 c -1.21944,-1.9731 2.06172,-3.43875 23.90164,-10.67651 40.250525,-13.33903 71.747065,-20.90411 70.452425,-16.92179 -0.48986,1.50679 -2.32208,2.11031 -29.7603,9.80289 -11.825,3.31526 -29.375005,8.50118 -39.000005,11.52427 -9.625,3.02309 -18.88195,5.92995 -20.571,6.45968 -3.88536,1.21857 -4.15948,1.20828 -5.02276,-0.18854 z m 255.843765,0.45333 c -1.68102,-0.62977 -1.58098,-5.57371 0.19897,-9.83375 1.73825,-4.16022 2.84345,-4.31715 5.80764,-0.82467 3.17211,3.73746 5.99648,6.35679 6.8544,6.35679 1.40863,0 3.11699,-7.26343 2.60542,-11.07747 -0.34271,-2.55516 -0.061,-4.22162 0.84017,-4.9695 2.08265,-1.72845 3.44104,-0.2173 3.46617,3.85599 l 0.0228,3.69098 1.65082,-3.35053 c 1.90811,-3.87273 5.73516,-6.11795 7.47043,-4.38268 0.81672,0.81672 0.41066,1.94667 -1.52713,4.2496 -3.28647,3.90575 -3.33453,6.37965 -0.18511,9.52906 5.03174,5.03175 10.3053,2.5615 10.75201,-5.03646 0.21096,-3.58815 0.73565,-5.07484 1.8667,-5.28928 1.30683,-0.24777 1.56086,0.80915 1.5,6.24088 -0.061,5.44524 -0.35614,6.53919 -1.76424,6.53929 -0.93004,7e-5 -1.94881,0.41729 -2.26393,0.92716 -0.31512,0.50988 -2.18923,1.46047 -4.16469,2.11243 -2.85246,0.9414 -4.13602,0.91355 -6.23607,-0.13532 -3.44048,-1.71833 -6.0829,-4.89137 -6.16599,-7.40415 -0.0395,-1.19426 -0.62563,-0.43002 -1.45492,1.89698 -0.76384,2.14333 -2.05391,4.56208 -2.86682,5.375 -2.33857,2.33856 -6.48142,1.77004 -9.72141,-1.33407 -2.01904,-1.93434 -2.93522,-2.34515 -2.93522,-1.31613 0,2.16949 -2.29325,4.72561 -3.75,4.17985 z m 45.28452,-6.19519 c -0.68847,-3.19683 0.82919,-8.74586 3.06884,-11.22065 2.59019,-2.86213 3.54622,-1.17913 1.36361,2.4005 -2.91371,4.77869 -2.54599,6.2622 0.9374,3.7818 3.0805,-2.1935 5.09563,-2.65458 5.09563,-1.16592 0,0.4962 1.35,1.37279 3,1.94799 3.46654,1.20844 3.72151,2.18691 1.17126,4.49485 -2.88306,2.60914 -6.17126,2.1589 -6.17126,-0.84501 0,-3.23387 -1.08859,-3.1538 -4.84632,0.35644 l -3.05783,2.85644 -0.56133,-2.60644 z M 263.84008,268.27148 c -0.62071,-0.74791 -1.07502,-4.20866 -1.00959,-7.69056 0.0654,-3.4819 -0.18567,-7.33776 -0.55801,-8.56858 -0.50148,-1.6577 -0.19389,-2.42165 1.18648,-2.94684 1.0249,-0.38994 2.69068,-1.7544 3.70175,-3.03213 2.68072,-3.38776 6.84635,-5.31898 8.94259,-4.14586 2.37835,1.33099 2.15001,3.94862 -0.71238,8.16659 l -2.43149,3.583 4.46308,1.70447 c 4.29038,1.63851 4.5189,1.63102 5.90553,-0.19346 0.79334,-1.04385 2.02613,-3.90325 2.73952,-6.3542 0.92541,-3.17936 2.18575,-4.97529 4.39842,-6.26756 6.27048,-3.66216 8.49686,0.71644 3.34676,6.58207 -3.57321,4.06966 -3.11718,6.4016 1.33659,6.83476 3.55934,0.34617 4.63003,2.7072 2.28921,5.04802 -0.81607,0.81607 -3.65105,1.76944 -6.29995,2.1186 -3.96044,0.52204 -6.08888,0.11608 -11.97907,-2.28477 -3.93959,-1.60579 -8.21459,-3.06704 -9.5,-3.24722 -2.22497,-0.3119 -2.33172,-0.0543 -2.22467,5.36818 0.11623,5.88799 -1.33888,8.04367 -3.59477,5.32549 z m 24.16566,-10.73796 c -0.71756,-0.71756 -1.18333,-0.7766 -1.18333,-0.15 0,0.56834 0.3,1.33334 0.66667,1.7 0.36666,0.36667 0.89916,0.43417 1.18333,0.15 0.28417,-0.28416 -0.0158,-1.04916 -0.66667,-1.7 z m 13.54614,3.02323 c -0.2612,-0.71861 0.32295,-2.20656 1.29811,-3.30656 0.97516,-1.1 2.51082,-4.91886 3.41258,-8.48637 2.77468,-10.97705 5.50751,-13.20243 10.95288,-8.9191 5.39754,4.2457 8.5914,15.01364 5.27063,17.76964 -0.73499,0.60998 -3.17039,1.75615 -5.412,2.54704 -3.40083,1.19988 -4.3762,1.21821 -5.89078,0.11073 -1.6628,-1.21587 -1.41842,-1.51998 2.91199,-3.62386 3.35666,-1.63079 4.72604,-2.89115 4.72338,-4.34735 -0.004,-2.42673 -3.54345,-8.55073 -4.94142,-8.55073 -0.53601,0 -1.47933,1.9125 -2.09627,4.25 -2.59113,9.81743 -4.38984,13.23552 -7.13389,13.55656 -1.48941,0.17426 -2.82527,-0.25733 -3.09521,-1 z M 62.990625,250.59353 c 0.29805,-2.10509 1.24682,-2.51771 9.33178,-4.05835 86.735465,-16.52801 88.188125,-16.76131 89.127145,-14.31427 0.34096,0.88855 0.4508,1.78467 0.24408,1.99139 -1.00566,1.00566 -72.954485,14.68452 -86.871225,16.5159 -4.675,0.61521 -9.3243,1.36384 -10.33178,1.66362 -1.46277,0.43526 -1.76495,0.073 -1.5,-1.79829 z m -23.45419,-40.46265 c -0.37865,-0.37864 -0.40042,-2.48967 -0.0484,-4.69117 0.61695,-3.8582 0.5533,-3.97835 -1.76279,-3.32767 -5.97984,1.67998 -12.089,2.78533 -12.59539,2.27894 -1.62369,-1.62368 1.42463,-3.81331 8.14697,-5.85201 8.00699,-2.4283 8.03089,-2.45497 9.12381,-10.18324 l 0.69217,-4.89447 -6.13521,0.69412 c -4.99646,0.56529 -6.1352,0.42665 -6.1352,-0.74695 0,-1.64413 6.80711,-4.65824 10.52024,-4.65824 2.17777,0 2.49419,-0.45668 2.59824,-3.75 0.0652,-2.0625 0.0592,-4.25247 -0.0132,-4.8666 -0.18608,-1.57784 2.60005,-3.68356 3.85092,-2.91047 0.57409,0.35481 1.0438,2.86855 1.0438,5.58609 0,5.21578 0.3422,5.52177 4.4349,3.96573 1.95763,-0.74429 2.5651,-1.67759 2.5651,-3.94098 0,-1.63116 0.51827,-3.28604 1.15171,-3.67753 1.42928,-0.88334 4.07915,2.54976 3.37813,4.37661 -0.35261,0.91887 0.1829,1.24229 1.70328,1.02869 2.87694,-0.40417 3.67269,2.76619 0.91406,3.64175 -2.86402,0.909 -3.81517,2.49495 -4.55108,7.58846 -0.64005,4.43005 -0.59021,4.54073 2.02624,4.5 3.82923,-0.0596 4.04325,2.0627 0.39809,3.94769 -1.70893,0.88372 -3.60986,2.71011 -4.2243,4.05866 -1.24176,2.72537 -3.55569,3.24206 -4.42097,0.98717 -0.47456,-1.2367 -1.047,-1.26686 -3.67686,-0.19377 -2.61921,1.06875 -3.28122,2.05549 -4.16088,6.20187 -0.98004,4.61956 -3.00767,6.65305 -4.82339,4.83732 z m 11.52684,-17.63069 c 0.89272,-0.6875 1.93715,-3.43637 2.32096,-6.10859 0.68595,-4.7759 0.65732,-4.84612 -1.682,-4.12578 -3.23426,0.99593 -3.15972,0.87113 -3.88168,6.49884 -0.67253,5.24232 0.11224,6.14637 3.24272,3.73553 z m 16.00913,10.58333 c -1.83377,-0.7335 -1.55338,-3.19326 1.36441,-11.96956 3.76946,-11.338 9.02778,-22.36377 10.66553,-22.36377 2.07451,0 3.95716,2.54523 8.7067,11.77093 3.4474,6.69637 4.52001,8.05347 5.63432,7.12869 2.74172,-2.27543 9.379045,-17.06087 9.379045,-20.89297 0,-4.44441 2.50974,-7.3835 3.73101,-4.36927 1.83926,4.5395 0.64926,10.82969 -3.59002,18.97643 -8.065315,15.49931 -11.761935,16.08847 -18.740645,2.98684 l -4.201,-7.88683 -1.62281,3.13818 c -0.89255,1.72599 -3.16901,7.74675 -5.0588,13.37946 -3.43661,10.24313 -3.92932,11.03724 -6.26774,10.10187 z m 56.250005,-14.06609 c -6.51026,-1.63004 -11.06639,-9.30747 -9.94828,-16.7636 1.45589,-9.70853 10.08298,-20.26894 13.64684,-16.70508 0.91767,0.91767 0.60093,1.81596 -1.39099,3.94485 -2.59021,2.76831 -5.01453,7.00178 -6.18026,10.7923 -0.7615,2.47612 1.46851,2.7948 8.73112,1.24773 6.82059,-1.45292 11.63677,-5.84774 11.65688,-10.63703 0.0186,-4.42991 1.26366,-6.63707 3.30261,-5.85465 1.1332,0.43485 1.52676,2.18883 1.54726,6.89571 0.0241,5.54464 0.34491,6.58623 2.63692,8.56253 1.43518,1.2375 3.02675,2.25 3.53682,2.25 0.51006,0 2.05141,-2.21815 3.42522,-4.92923 1.37381,-2.71108 2.86537,-5.15639 3.31459,-5.43402 1.34075,-0.82863 2.85929,0.6738 3.90466,3.86325 1.40845,4.29722 5.00318,4.07597 8.12378,-0.5 2.09189,-3.06751 2.32936,-4.33687 1.92174,-10.27251 -0.49449,-7.20067 0.33163,-8.88766 3.11765,-6.36635 2.64898,2.3973 2.71797,11.84125 0.12561,17.19635 -3.42023,7.06525 -9.83921,9.90814 -14.35367,6.35706 l -2.6227,-2.06301 -2.58679,3.07423 c -1.42274,1.69083 -3.5593,3.07255 -4.7479,3.07049 -3.32985,-0.006 -8.53535,-3.647 -9.24268,-6.46524 -0.78975,-3.14663 -1.47489,-3.16428 -4.34251,-0.11184 -3.06827,3.26603 -11.69853,6.86321 -15.22446,6.34571 -3.45349,-0.50686 -3.67129,0.92314 -0.71334,4.68357 2.56073,3.25545 5.88188,4.70789 7.60005,3.32375 0.87242,-0.70281 1.42641,-0.50691 1.87542,0.66321 0.39318,1.02461 -0.081,2.2046 -1.23816,3.08082 -1.96489,1.48789 -2.60536,1.56976 -5.87543,0.751 z m 69.5129,-16.51724 c 0.0252,-4.38848 8.04849,-26.9203 10.55331,-29.63674 1.6197,-1.75655 4.43069,-0.74101 4.44356,1.60536 0.0135,2.46556 4.32909,11.4978 6.25446,13.09022 1.36967,1.13282 1.91635,0.72936 4.06489,-3 1.36531,-2.36986 3.0438,-7.00884 3.72996,-10.30884 1.35438,-6.5137 2.98111,-9.08229 5.2102,-8.22691 1.15092,0.44165 1.26165,1.73641 0.57678,6.74426 -1.45297,10.62437 -7.52503,20.98265 -12.30009,20.98265 -3.0334,0 -6.98181,-3.22378 -8.53193,-6.96611 -0.69117,-1.66864 -1.63762,-3.03389 -2.10322,-3.03389 -1.12448,0 -6.19718,16.72765 -5.44283,17.9482 0.66283,1.07248 -2.51665,3.0518 -4.90225,3.0518 -0.96089,0 -1.56076,-0.86919 -1.55284,-2.25 z m 49.4871,-3.14295 c -12.80485,-5.61135 -14.84613,-21.94874 -4.13864,-33.1237 2.50634,-2.61576 5.20033,-4.48335 6.46722,-4.48335 2.7742,0 2.78359,2.14795 0.0201,4.59501 -4.70534,4.16657 -7.84868,10.55558 -7.84868,15.95289 0,5.77876 3.12994,11.67102 6.53517,12.30279 2.81062,0.52144 4.46483,2.10412 4.46483,4.27175 0,2.18753 -1.34383,2.30593 -5.5,0.48461 z m 19.93466,-13.08148 c -1.36094,-1.36094 -2.75167,-3.86061 -3.09051,-5.55482 -0.46816,-2.34082 -1.00358,-2.91811 -2.23011,-2.40448 -0.88772,0.37174 -3.79639,0.90797 -6.46371,1.19162 -4.33135,0.4606 -4.81137,0.31687 -4.49135,-1.34488 0.25681,-1.3335 1.63071,-2.07747 4.84967,-2.62609 2.47024,-0.42101 6.58378,-1.85037 9.14119,-3.17636 5.64487,-2.92678 7.72412,-1.89864 5.10997,2.52677 -1.26951,2.14911 -1.43296,3.4708 -0.69115,5.58872 1.46463,4.18163 4.57863,4.01863 12.2948,-0.64355 3.7073,-2.23999 9.12219,-4.77997 12.03307,-5.64441 4.95969,-1.47287 5.19224,-1.68252 3.69799,-3.33364 -2.1686,-2.39628 -2.00755,-5.81303 0.33304,-7.06568 2.01387,-1.07779 4.98245,-0.46766 5.19744,1.06822 0.0688,0.49115 0.2375,1.34301 0.375,1.89301 0.1375,0.55 0.30625,1.45 0.375,2 0.26995,2.15961 5.36992,0.90893 8.31891,-2.04006 2.52446,-2.52447 2.93441,-3.56832 2.41714,-6.1547 -0.7165,-3.58249 -2.29648,-5.80524 -4.12651,-5.80524 -1.6653,0 -2.81597,-3.06857 -1.60482,-4.27972 2.99818,-2.99818 11.12028,4.71438 11.12028,10.55957 0,6.5681 -9.05155,14.56545 -14.78767,13.06542 -1.43527,-0.37533 -2.97088,0.0312 -4.15065,1.09891 -1.0299,0.93205 -3.90754,2.30708 -6.39475,3.05562 -2.48721,0.74854 -7.58746,3.4173 -11.33389,5.93059 -8.02553,5.38391 -12.07587,5.91769 -15.89838,2.09518 z m 59.23201,0.80776 c -1.40204,-1.40203 -0.56879,-3.42005 1.78105,-4.31345 3.9509,-1.50213 10.55228,-8.02578 10.55228,-10.42803 0,-1.25457 -1.88862,-4.02897 -4.46163,-6.55419 -5.8958,-5.78629 -7.06283,-9.1012 -4.39717,-12.49004 2.29102,-2.91256 6.58697,-3.41956 7.55694,-0.89186 0.40724,1.06125 -0.18935,2.32358 -1.66157,3.51571 l -2.29696,1.85996 5.1302,5.42443 c 4.21633,4.45815 5.13019,6.06481 5.13019,9.01946 0,4.58794 -2.03353,7.64489 -7.99805,12.02325 -4.51391,3.31351 -7.84501,4.32504 -9.33528,2.83476 z M 41.248675,127.60761 c -1.20741,-2.33487 -1.53399,-5.14859 -1.27065,-10.94743 0.3133,-6.89906 0.14158,-7.86052 -1.4797,-8.28449 -2.68251,-0.70149 -1.8445,-5.03048 1.05354,-5.44236 1.67024,-0.23738 2.51162,-1.36472 3.35435,-4.49438 1.93382,-7.18167 4.49728,-11.08504 8.90784,-13.56391 3.43399,-1.93001 4.63079,-2.16228 6.57562,-1.27615 5.55646,2.53169 3.90286,11.59522 -3.52064,19.29697 l -4.834,5.01519 5.23158,3.3466 c 2.87737,1.84063 7.13258,5.11925 9.45601,7.28582 3.90875,3.64486 4.10234,4.0613 2.59067,5.57297 -2.21634,2.21634 -2.66989,2.10612 -6.0538,-1.47125 -2.61488,-2.76437 -13.63632,-10.895 -14.76868,-10.895 -1.05573,0 -1.56194,8.85055 -0.71298,12.46579 0.62523,2.66248 0.58102,4.38783 -0.13452,5.25 -1.64082,1.97706 -2.62689,1.56008 -4.39464,-1.85837 z m 14.0276,-33.40144 c 1.89448,-3.99233 1.95362,-5.45598 0.22045,-5.45598 -2.82531,0 -7.67432,7.73013 -7.67432,12.23414 0,2.03101 0.1505,1.99585 2.95387,-0.68994 1.62462,-1.55649 3.64962,-4.29619 4.5,-6.08822 z m 21.03578,30.16011 c -2.64889,-1.93692 -2.28891,-7.46218 0.9125,-14.00562 1.42882,-2.9204 2.60773,-6.61496 2.61981,-8.21014 0.0261,-3.44651 3.0038,-10.35645 5.27152,-12.23291 2.26642,-1.87537 5.14805,-1.05646 5.52303,1.56956 0.17407,1.2191 -0.9236,4.97985 -2.43927,8.35723 -2.52403,5.62427 -2.63388,6.35786 -1.30627,8.72317 2.21151,3.94008 7.30787,6.58542 9.95636,5.16799 2.42231,-1.29638 5.441205,-0.55249 4.425755,1.09055 -1.351025,2.18599 -11.185685,7.76719 -16.431885,9.32514 -6.50846,1.93281 -6.19321,1.92486 -8.53155,0.21503 z m 9.75668,-5.86609 c 1.46242,-1.12247 1.32369,-1.52358 -1.35971,-3.9314 l -2.98828,-2.6814 -0.94917,2.4965 c -0.52204,1.37307 -0.94917,3.1422 -0.94917,3.9314 0,1.78009 4.01322,1.89889 6.24633,0.1849 z m 27.495025,3 c -0.23393,-0.6875 -0.0368,-2.67065 0.43799,-4.407 0.50556,-1.84877 0.44348,-6.82148 -0.14981,-12 -2.88328,-25.16663 0.30824,-34.2534 9.26778,-26.38682 6.77798,5.95115 9.78363,20.63637 5.9574,29.10711 -2.56763,5.68438 -8.0684,13.16989 -9.17527,12.48581 -0.46905,-0.28989 -1.40891,0.14297 -2.08858,0.96191 -1.50611,1.81475 -3.67191,1.93655 -4.24951,0.23899 z m 9.43106,-13 c 3.54843,-6.81448 2.3658,-18.78179 -2.42671,-24.55641 -2.13342,-2.57062 -2.73871,4.34303 -1.49327,17.05641 0.63309,6.4625 1.27613,11.75 1.42899,11.75 0.15286,0 1.27381,-1.9125 2.49099,-4.25 z m 21.75983,7.1234 c -1.30281,-2.43433 -0.78745,-9.20583 2.0833,-27.3734 1.04291,-6.6 2.02855,-13.8 2.19032,-16 0.24106,-3.27818 0.70016,-4.05766 2.54414,-4.31955 2.12055,-0.30116 2.25,0.0284 2.25,5.72856 l 0,6.04811 2.60955,-1.18899 c 2.22069,-1.01181 2.8065,-0.91963 3.93131,0.61864 1.78769,2.4448 0.77119,4.61323 -2.16255,4.61323 -5.05329,0 -8.47075,11.64837 -4.83015,16.4635 1.16302,1.53823 2.74902,1.98 7.32279,2.03971 3.71363,0.0485 6.78813,0.69862 8.44846,1.78651 1.43562,0.94065 3.52606,1.71028 4.64541,1.71028 1.11935,0 2.03518,0.62492 2.03518,1.38871 0,1.90453 -5.74852,2.8306 -10.00074,1.61108 -5.35395,-1.5355 -6.46856,-1.24413 -7.6977,2.01225 -0.78364,2.0761 -2.4831,3.62293 -5.46924,4.97803 -5.51529,2.50283 -6.50599,2.4882 -7.90008,-0.11667 z m 6.4171,-9.40543 c -0.79323,-2.06711 -1.34934,-1.82352 -1.34934,0.59105 0,1.13246 0.43035,1.79305 0.95633,1.46797 0.52598,-0.32507 0.70283,-1.25163 0.39301,-2.05902 z m 28.20884,1.71534 c -0.31713,-0.99918 0.32871,-4.44801 1.4352,-7.66408 1.10649,-3.21606 1.89813,-5.90095 1.75921,-5.96643 -6.4657,-3.04726 -7.31188,-5.15592 -1.97177,-4.91359 3.02408,0.13723 3.0913,0.0332 4.72566,-7.31293 0.98031,-4.40629 2.25822,-7.68249 3.12661,-8.01572 2.08517,-0.80016 5.96898,3.2019 8.07282,8.31859 0.98675,2.39984 2.15394,4.36504 2.59375,4.3671 2.35812,0.0111 7.01893,-3.54067 9.21833,-7.02475 2.72359,-4.31445 3.60923,-4.72806 5.42896,-2.53542 0.91836,1.10655 0.92068,1.94274 0.0101,3.64415 -1.45423,2.71725 -0.69225,9.14878 1.47595,12.45787 2.02609,3.09221 6.2841,3.25887 9.93284,0.38876 6.23311,-4.90296 11.14591,-18.98653 7.79278,-22.33965 -1.3666,-1.3666 -1.33407,-1.73586 0.3132,-3.55608 2.56003,-2.8288 4.07469,-2.54014 5.56626,1.06082 0.99936,2.41267 1.03443,4.41629 0.15966,9.12014 -2.45837,13.21925 -10.61518,22.78791 -19.42557,22.78791 -4.3641,0 -7.32023,-2.1827 -9.90848,-7.31608 -1.16024,-2.30116 -2.2235,-4.31571 -2.3628,-4.47678 -0.1393,-0.16107 -1.84163,0.46457 -3.78294,1.39032 -3.07189,1.46488 -3.49663,2.09958 -3.27491,4.89386 0.14011,1.76587 0.57627,3.7309 0.96924,4.36674 1.03419,1.67336 -2.1619,2.59462 -3.92501,1.13137 -0.818,-0.67888 -1.48727,-2.5793 -1.48727,-4.22317 0,-2.90961 -0.0994,-2.97058 -3.75,-2.29973 -2.0625,0.379 -4.03181,0.99158 -4.37624,1.36129 -0.34443,0.3697 -1.61862,3.70968 -2.83153,7.42218 -2.18162,6.67755 -4.31993,8.60112 -5.48405,4.93331 z m 12.78125,-18.76007 c 1.20265,-0.4615 1.29936,-1.16095 0.48397,-3.5 -1.15235,-3.30562 -2.8234,-3.90046 -2.8234,-1.00503 0,1.05502 -0.27314,2.63002 -0.60699,3.5 -0.63161,1.64595 0.37841,1.99047 2.94642,1.00503 z m 58.2091,1.72967 c -1.41029,-4.44344 3.21976,-19.42335 6.55517,-21.20841 1.6341,-0.87454 2.81807,-0.31892 7.17663,3.36789 5.82073,4.92365 8.78678,6.68761 11.24499,6.68761 1.40604,0 1.60643,-0.97964 1.32395,-6.47249 -0.2444,-4.75247 0.0636,-6.86881 1.15894,-7.96384 2.83905,-2.8382 4.19729,-0.34997 4.32318,7.91985 0.11094,7.2876 -0.0428,7.87151 -2.66715,10.12886 -2.08454,1.79305 -3.46126,2.23343 -5.47455,1.75119 -3.99658,-0.95729 -7.74586,-3.03498 -11.62863,-6.4441 l -3.46593,-3.04313 -2.18622,7.31183 c -2.87286,9.60828 -4.99521,12.26599 -6.36038,7.96474 z m 44.76001,-5.25652 c -6.21645,-1.79831 -9.45504,-9.99052 -6.68569,-16.91182 3.48644,-8.71346 16.37715,-15.02294 16.37715,-8.01595 0,1.44722 -0.65494,2.03138 -2.27749,2.03138 -6.23558,0 -11.5563,9.05764 -9.09244,15.47835 0.34653,0.90306 2.37153,2.33873 4.5,3.19037 2.58343,1.03369 3.86993,2.17721 3.86993,3.43986 0,2.07853 -1.58471,2.2651 -6.69146,0.78781 z m 63.01821,-3.40105 c -1.68768,-0.70961 -4.30564,-2.91217 -5.81769,-4.89457 -2.45571,-3.2196 -2.70287,-4.24467 -2.31531,-9.60257 0.23863,-3.29901 0.2777,-5.9982 0.0868,-5.9982 -0.19088,0 -2.52594,1.10413 -5.18902,2.45361 -5.00122,2.53431 -6.09155,3.98917 -6.09155,8.12818 0,3.47493 -1.93705,2.98295 -2.66923,-0.67794 -0.56328,-2.81638 -0.88858,-3.04229 -3.6,-2.5 -1.63942,0.32788 -4.00213,0.59615 -5.25046,0.59615 -2.10635,0 -2.20884,0.26981 -1.42412,3.74913 1.48173,6.56981 -1.66722,6.98016 -4.68954,0.6111 -3.28691,-6.92664 -1.49296,-21.94256 2.52384,-21.12529 1.62424,0.33047 1.69208,0.98384 0.9621,9.26506 -0.34456,3.90888 -0.28425,3.99334 2.64741,3.70758 5.07184,-0.49437 9.5,-2.28757 9.5,-3.84706 0,-2.12485 4.77525,-11.9291 6.51236,-13.37078 2.54934,-2.11576 2.92146,1.59711 0.67922,6.77699 -1.12291,2.59409 -1.88182,4.87636 -1.68647,5.07171 0.19535,0.19535 3.45801,-1.34169 7.25036,-3.41565 9.39943,-5.14036 13.21193,-3.39886 8.14309,3.71967 -6.0063,8.43506 -0.89393,20.49211 6.96562,16.42777 1.58524,-0.81975 3.1643,-1.20841 3.50904,-0.86368 1.36317,1.36317 0.50904,4.01192 -1.62322,5.03379 -4.06524,1.94825 -5.31824,2.06056 -8.42325,0.755 z M 144.86224,68.29818 c -1.38308,-1.66651 -0.6547,-4.7928 1.54128,-6.6153 2.39958,-1.99147 3.5269,0.0923 2.35199,4.34742 -1.10857,4.01492 -2.00836,4.53906 -3.89327,2.26788 z m 231.93616,-8.38732 -2.42606,-3.83934 -5.5211,2.24623 c -10.06039,4.09301 -8.19612,0.074 2.46163,-5.30674 2.75525,-1.39105 6.28157,-3.59379 7.83627,-4.895 5.60967,-4.69501 9.19114,-1.25844 3.81033,3.65618 -3.16654,2.89218 -3.97479,5.34222 -2.13706,6.478 1.46924,0.90804 1.21962,5.5 -0.29897,5.5 -0.71444,0 -2.3907,-1.7277 -3.72504,-3.83933 z"
     style="fill:#000000"
     inkscape:connector-curvature="0" />
</svg>
