<?xml version="1.0" encoding="UTF-8" standalone="no"?>
<svg
   xmlns:dc="http://purl.org/dc/elements/1.1/"
   xmlns:cc="http://creativecommons.org/ns#"
   xmlns:rdf="http://www.w3.org/1999/02/22-rdf-syntax-ns#"
   xmlns:svg="http://www.w3.org/2000/svg"
   xmlns="http://www.w3.org/2000/svg"
   xmlns:sodipodi="http://sodipodi.sourceforge.net/DTD/sodipodi-0.dtd"
   xmlns:inkscape="http://www.inkscape.org/namespaces/inkscape"
   viewBox="0 0 1039 1039"
   height="1039"
   width="1039"
   version="1.1"
   id="svg4347"
   inkscape:version="0.91 r13725"
   sodipodi:docname="old_shoe.svg">
  <sodipodi:namedview
     pagecolor="#ffffff"
     bordercolor="#666666"
     borderopacity="1"
     objecttolerance="10"
     gridtolerance="10"
     guidetolerance="10"
     inkscape:pageopacity="0"
     inkscape:pageshadow="2"
     inkscape:window-width="640"
     inkscape:window-height="480"
     id="namedview5785"
     showgrid="false"
     inkscape:zoom="0.29836381"
     inkscape:cx="519.5"
     inkscape:cy="628.62903"
     inkscape:window-x="0"
     inkscape:window-y="0"
     inkscape:window-maximized="0"
     inkscape:current-layer="svg4347" />
  <metadata
     id="metadata4353">
    <rdf:RDF>
      <cc:Work
         rdf:about="">
        <dc:format>image/svg+xml</dc:format>
        <dc:type
           rdf:resource="http://purl.org/dc/dcmitype/StillImage" />
        <dc:title></dc:title>
      </cc:Work>
    </rdf:RDF>
  </metadata>
  <defs
     id="defs4351" />
  <path
     id="path4357"
     d="m 696.70322,851.16698 c -0.275,-0.26637 -9.5,-1.24291 -20.5,-2.1701 -11,-0.92718 -24.725,-2.51574 -30.5,-3.53012 -5.775,-1.01438 -13.56183,-2.11771 -17.30408,-2.45184 -3.74224,-0.33413 -10.26724,-1.6876 -14.5,-3.00771 -13.2792,-4.14151 -19.1055,-5.42906 -40.69592,-8.9934 -25.4732,-4.20534 -36.57411,-5.52062 -46.6849,-5.53142 -4.2267,-0.005 -8.9517,-0.4936 -10.5,-1.08687 -1.54831,-0.59326 -6.4151,-1.20443 -10.8151,-1.35814 -4.4,-0.1537 -8.72948,-0.59418 -9.62106,-0.97884 -0.94565,-0.40798 -2.25016,-0.0703 -3.13095,0.81052 -1.76903,1.76902 -2.74799,1.11432 -2.74799,-1.83777 0,-2.02665 0.43492,-2.10458 11.06516,-1.98246 9.4207,0.10822 10.85958,-0.0785 9.68189,-1.25616 -0.77564,-0.77564 -6.50665,-2.1034 -13.04662,-3.02264 -10.93433,-1.53691 -11.78077,-1.53311 -13.54203,0.0608 -2.81574,2.54821 -6.76258,0.72904 -7.69483,-3.54668 -1.37393,-6.30151 -5.24223,-17.33802 -8.34538,-23.80997 l -3.11661,-6.5 -7.9e-4,6.17857 c -10e-4,9.242 -3.56775,11.73612 -7.16659,5.01163 -1.75341,-3.27626 -4.75332,-14.69019 -3.86102,-14.69019 0.45761,0 1.7554,3.0375 2.88397,6.75 1.12858,3.7125 2.71379,7.65 3.5227,8.75 1.44738,1.96823 1.48593,1.96023 2.42708,-0.50377 0.64255,-1.68226 0.48993,-6.11087 -0.46516,-13.4972 -1.54475,-11.94663 -3.54514,-17.31684 -10.80204,-28.99903 -4.70368,-7.572 -15.28836,-29.91266 -18.00385,-38 -1.88207,-5.60521 -14.60003,-28.05852 -24.07277,-42.5 -7.76272,-11.83449 -16.8567,-22.27804 -40.49102,-46.5 -10.19647,-10.45 -20.95563,-21.84093 -23.90925,-25.31318 -3.74478,-4.40235 -7.20071,-7.23722 -11.41799,-9.3661 -5.37275,-2.71215 -5.8546,-3.19418 -4.31693,-4.31855 1.56425,-1.14381 1.57577,-1.32515 0.11968,-1.8839 -0.88615,-0.34005 -1.73373,-0.61827 -1.88352,-0.61827 -0.41662,0 -2.01767,68.73979 -1.74685,75 0.39554,9.14326 7.11219,56.90863 9.28077,66 1.30803,5.4837 2.33856,14.69963 2.90405,25.97069 0.87497,17.43951 0.49401,20.54063 -2.38747,19.4349 -1.64336,-0.63061 -3.98064,3.85655 -3.24262,6.22525 0.71897,2.30754 -0.75187,4.87043 -2.26016,3.93826 -0.61149,-0.37792 -1.1118,-1.77145 -1.1118,-3.09673 0,-1.74004 -0.42035,-2.2483 -1.51273,-1.82911 -0.83201,0.31927 -2.15548,0.0471 -2.94105,-0.6049 -1.16626,-0.96791 -1.92769,-0.39217 -4.15019,3.13812 -1.49703,2.37794 -5.03409,7.92352 -7.86013,12.32352 -7.0869,11.03392 -7.35395,11.67585 -2.62964,6.32096 4.79655,-5.43677 10.50669,-9.26021 12.61912,-8.44959 2.58112,0.99046 1.61852,3.05484 -4.02177,8.62506 -3.74102,3.69456 -5.09833,5.65075 -4.25,6.12525 1.58091,0.88425 6.74639,-0.0638 6.74639,-1.23826 0,-0.48588 0.92851,-0.88342 2.06336,-0.88342 1.72114,0 2.01138,0.53256 1.75,3.21095 -0.27805,2.84912 -0.75529,3.30213 -4.23505,4.02005 -5.05562,1.04303 -5.75118,1.67835 -10.24151,9.35445 -2.32553,3.97543 -4.4114,6.41455 -5.48556,6.41455 -3.1943,0 -3.05253,-2.05449 0.56028,-8.11934 4.12765,-6.92911 4.67206,-9.77447 1.02949,-5.38066 -1.36789,1.65 -3.43283,6.15 -4.58877,10 -1.15593,3.85 -2.67738,7.61575 -3.381,8.36832 -2.15635,2.30639 -3.75214,0.26259 -3.17201,-4.06254 0.38105,-2.84095 0.1348,-4.08573 -0.88573,-4.47734 -4.14881,-1.59205 0.21713,-12.2017 13.38052,-32.51588 4.52173,-6.9781 10.0453,-16.06898 12.27461,-20.20196 2.2293,-4.13298 4.87745,-7.7761 5.88478,-8.09581 4.93241,-1.56549 5.94421,-17.28553 2.28587,-35.51479 -3.0927,-15.41067 -5.08969,-30.93276 -6.20166,-48.204 -0.54164,-8.4128 -2.08381,-24.521 -3.42706,-35.796 -1.34324,-11.275 -3.4863,-30.72487 -4.76236,-43.22193 l -2.32009,-22.72193 -5.51406,-3.79932 c -5.59555,-3.85547 -38.78125,-20.25682 -40.98668,-20.25682 -0.90367,0 -1.05025,2.92235 -0.58934,11.75 0.33742,6.4625 1.30799,26.14358 2.15681,43.73574 0.84882,17.59216 1.73723,32.17966 1.97424,32.41667 0.237,0.23701 0.43092,-0.31908 0.43092,-1.23574 0,-0.94586 0.78816,-1.66667 1.82239,-1.66667 3.20375,0 4.21186,11.61323 5.68585,65.5 0.76727,28.05 1.8757,56.175 2.46318,62.5 1.12463,12.10806 3.40274,27.40563 4.48098,30.08979 0.36844,0.91721 -0.061,2.17042 -1.0151,2.96225 -1.4254,1.18297 -1.84589,1.10967 -3.04551,-0.53092 -1.25475,-1.71597 -1.39179,-1.39226 -1.39179,3.28775 0,2.85512 -0.38543,5.19113 -0.85652,5.19113 -0.47109,0 -1.16832,4.1625 -1.5494,9.25 -0.38109,5.0875 -0.94444,10.2625 -1.25189,11.5 -0.74957,3.01701 -3.11155,2.8503 -4.55677,-0.32161 -0.93891,-2.06068 -0.89689,-2.74147 0.21152,-3.4265 0.93049,-0.57507 1.79235,-4.86952 2.63324,-13.1208 0.68751,-6.74625 1.0904,-12.52419 0.89531,-12.83985 -0.46409,-0.7509 -3.00658,-43.39754 -5.57671,-93.54124 -3.29888,-64.3617 -4.45249,-83.33704 -5.10624,-83.99079 -1.25789,-1.25789 -2.07876,49.81643 -1.16507,72.49079 0.52371,12.99641 0.56532,23.94322 0.0931,24.49164 -1.32929,1.5438 -2.73793,-1.47686 -2.75526,-5.90831 -0.008,-2.15416 -0.25829,-3.67369 -0.55526,-3.37672 -0.29697,0.29697 -1.22401,10.60947 -2.0601,22.91667 -1.15024,16.93163 -1.27402,24.93176 -0.50866,32.87672 0.55633,5.775 1.92996,20.175 3.05253,32 2.01243,21.19876 2.7965,27 3.6492,27 0.23877,0 1.31678,-0.55123 2.39559,-1.22496 1.50788,-0.94169 2.23453,-0.9519 3.14229,-0.0441 0.90775,0.90775 0.39322,2.09644 -2.22504,5.14031 -3.26209,3.79236 -5.74727,4.95404 -7.29249,3.40883 -0.39598,-0.39598 -1.70848,-0.73348 -2.91667,-0.75 -2.17578,-0.0298 -2.19772,-0.20146 -2.30346,-18.03004 -0.0829,-13.97579 -0.57733,-20.34746 -2.21154,-28.5 -3.84726,-19.19269 -6.09663,-43.09124 -8.18859,-87 -0.58959,-12.375 -1.69908,-28.35 -2.46554,-35.5 -2.35165,-21.93747 -2.77792,-33.69244 -1.31954,-36.3878 0.71058,-1.31329 1.6253,-2.43829 2.0327,-2.5 0.4074,-0.0617 0.96556,5.0628 1.24035,11.3878 0.27479,6.325 1.16337,16.675 1.97461,23 0.81125,6.325 2.18897,24.325 3.06162,40 0.87265,15.675 1.92831,31.875 2.34591,36 l 0.75929,7.5 0.92333,-13 c 1.62374,-22.86114 1.11123,-41.70147 -1.42816,-52.5 -4.64678,-19.76011 -5.26209,-23.75234 -5.18962,-33.67129 0.0409,-5.59421 0.34692,-10.88171 0.68011,-11.75 0.60005,-1.5637 4.37292,-2.27231 4.41228,-0.82871 0.75462,27.67729 0.87384,29.05849 3.25834,37.75 2.27321,8.28582 2.51461,8.72226 3.04218,5.5 0.31517,-1.925 0.81188,-17.72015 1.1038,-35.10033 0.49732,-29.60945 0.40296,-32.06152 -1.49774,-38.92042 -1.64524,-5.93706 -1.81196,-7.84285 -0.88239,-10.08701 0.63035,-1.52182 0.99068,-4.70763 0.80073,-7.07959 -0.39643,-4.95021 1.3403,-6.66387 2.28632,-2.25595 0.34742,1.61881 0.68492,-3.87034 0.75,-12.19812 l 0.11831,-15.14146 -4.25,-1.72736 c -2.3375,-0.95005 -7.22493,-2.75082 -10.86094,-4.00171 l -6.61095,-2.27435 -0.48732,41.35784 c -0.31434,26.67715 -0.85997,41.81408 -1.53714,42.64313 -0.59678,0.73065 -1.36457,10.02383 -1.77921,21.53529 -0.68039,18.88926 -1.29109,22.77614 -2.91405,18.54678 -1.14129,-2.97417 -0.62389,-36.02636 0.90477,-57.79678 0.83744,-11.92648 1.36756,-31.13602 1.22691,-44.45908 l -0.24764,-23.45907 -4.72222,-1.46649 c -2.59721,-0.80657 -4.72221,-2.06249 -4.72221,-2.79093 0,-1.20319 1.08607,-1.45819 7.5,-1.76093 2.10742,-0.0995 3.4019,-4.0668 1.83466,-5.62292 -0.45906,-0.45581 -5.42477,-1.51371 -11.0349,-2.35089 -6.09669,-0.90978 -13.88152,-2.94385 -19.35083,-5.0561 -8.12851,-3.13923 -25.31841,-7.08448 -46.44893,-10.66048 -8.04075,-1.36077 -8.28747,-1.36546 -19.02294,-0.36178 l -8.02295,0.75009 -1.72532,8.61929 c -2.72566,13.6167 -3.663,16.28932 -5.91995,16.87953 -1.83833,0.48074 -1.975,1.07131 -1.41992,6.13585 0.33781,3.08215 1.06854,12.12891 1.62384,20.10391 2.10075,30.17034 14.74044,140.98719 18.05981,158.33709 2.72165,14.22574 10.05315,77.40887 10.23004,88.16291 0.19626,11.93118 0.18421,11.99952 -2.10048,11.91546 -1.77781,-0.0654 -2.23045,0.38723 -2,2 0.25164,1.76103 1.22904,2.18426 6.29787,2.72709 3.3,0.3534 10.75478,0.40327 16.56619,0.11082 9.08359,-0.45712 29.52614,0.83483 36.68381,2.31838 2.17776,0.45138 3.19249,3.72772 1.48195,4.7849 -0.42243,0.26107 -4.35993,0.0429 -8.75,-0.48481 -4.39007,-0.52772 -17.74926,-1.07999 -29.68709,-1.22727 -21.25948,-0.2623 -21.71119,-0.22546 -22,1.79382 -0.42055,2.94043 -3.03479,2.54801 -4.58595,-0.68839 l -1.31804,-2.75 -14.94544,0 -14.94543,0 0,2.94098 c 0,3.65673 -1.67215,4.81544 -3.83212,2.65547 -1.11943,-1.11944 -1.66018,-3.4589 -1.70312,-7.36833 -0.0346,-3.15047 -0.5843,-7.30312 -1.22154,-9.22812 -1.42361,-4.30044 -5.632159,-26.6961 -7.774199,-41.37012 -1.08253,-7.41593 -2.22856,-11.7382 -3.60647,-13.60192 -2.88544,-3.90277 -3.792042,-13.08234 -3.829827,-38.77796 -0.03001,-20.40916 -0.518641,-24.50885 -2.532719,-21.25 -0.339919,0.55 -1.318231,1 -2.174027,1 -1.368736,0 -1.350246,-0.31401 0.153636,-2.60922 1.79339,-2.73706 1.703735,-6.26002 -0.353503,-13.89078 -1.238977,-4.59564 -1.447532,-15.81599 -0.362451,-19.5 0.473043,-1.60605 0.952208,1.61216 1.340023,9 0.332023,6.325 0.332023,-17.3 0,-52.5 -0.332023,-35.2 -0.573648,-78.28335 -0.536944,-95.74078 0.07638,-36.32995 0.552958,-34.67332 -8.767588,-30.477 -7.865404,3.54118 -14.687857,5.22907 -15.966732,3.95019 -1.46897,-1.46897 -0.354082,-2.88598 2.908138,-3.69621 1.517696,-0.37695 6.055949,-2.0018 10.085006,-3.61078 4.029057,-1.60898 8.351991,-2.92542 9.606521,-2.92542 2.151175,0 2.318044,-0.49788 2.93267,-8.75 0.358439,-4.8125 1.097183,-20.87098 1.641652,-35.68552 1.182012,-32.16153 4.223062,-61.4266 6.881115,-66.2193 0.56284,-1.01485 2.1566,-6.57018 3.54169,-12.34518 4.610539,-19.22319 15.875179,-37.92604 34.539119,-57.3458 9.63844,-10.02877 13.01351,-12.26947 16.0407,-10.64937 1.09503,0.58605 1.99097,1.4997 1.99097,2.03035 0,0.53065 0.39453,0.96482 0.87673,0.96482 0.80537,0 7.44026,-15.03239 6.87274,-15.57129 -0.13721,-0.13029 -4.04453,-0.69282 -8.68294,-1.25008 l -8.43347,-1.01318 -5.56653,4.28373 c -8.09757,6.23147 -13.23546,12.18399 -21.4281,24.82557 -11.02862,17.0176 -13.986249,22.40009 -22.275399,40.53812 -8.920706,19.51999 -10.65449,24.23506 -13.858001,37.68713 -5.944414,24.96158 -8.039122,45.29669 -6.386584,62 1.801941,18.21343 1.944973,33.26169 0.322067,33.88446 -3.138672,1.20442 -4.127889,-2.06752 -5.00493,-16.55432 -0.477156,-7.88158 -0.842406,-21.75514 -0.811668,-30.83014 0.05106,-15.07472 0.379674,-18.05485 3.804238,-34.5 4.828137,-23.18526 7.877136,-32.53943 17.146723,-52.60526 9.153005,-19.81346 11.179105,-23.45999 22.999924,-41.39474 9.05564,-13.73938 16.20607,-21.83483 23.6922,-26.82344 l 3.767,-2.51024 -3.267,-0.98018 c -1.79685,-0.5391 -7.542,-1.98288 -12.767,-3.20841 -12.35958,-2.89895 -12.00678,-2.78989 -11.95767,-3.69636 0.0233,-0.42976 1.62184,-1.78881 3.55237,-3.02012 3.11004,-1.9836 3.7605,-2.08094 5.70768,-0.85412 1.20869,0.76153 3.32262,1.70969 4.69762,2.10702 1.375,0.39732 3.175,1.28542 4,1.97355 0.825,0.68813 2.625,1.48863 4,1.77889 1.375,0.29026 4.975,1.41909 8,2.50853 3.025,1.08943 8.875,2.26441 13,2.61106 7.43392,0.62473 7.51102,0.60642 8.7502,-2.07775 1.52479,-3.3028 0.28832,-4.93461 -2.5771,-3.40108 -4.81625,2.57758 -6.90831,0.41038 -2.9231,-3.0281 2.20876,-1.90575 2.21157,-1.93618 0.15328,-1.66029 -1.1532,0.15456 -2.22801,-0.16897 -2.38848,-0.71897 -0.36771,-1.26037 5.37511,-4.18676 9.9852,-5.0882 1.925,-0.3764 6.2,-2.71339 9.5,-5.1933 9.8416,-7.39586 19.5,-11.02528 19.5,-7.32769 0,0.52447 -2.04857,2.70464 -4.55237,4.84483 l -4.55237,3.89125 7.5976,-1.47102 c 7.16632,-1.38752 8.13077,-1.34855 16.99031,0.68656 9.7549,2.24076 17.51683,2.80356 17.51683,1.27009 0,-0.48811 -2.8125,-2.07298 -6.25,-3.52192 -5.29832,-2.23329 -6.78194,-2.47883 -9.7434,-1.61252 -4.33323,1.2676 -5.0066,1.274 -5.0066,0.0476 0,-1.58992 5.63805,-4.02568 9.31824,-4.02568 2.09754,0 6.84825,1.76684 12.29966,4.57438 8.08453,4.16361 9.33993,4.52361 13.9807,4.00905 2.80423,-0.31092 7.04801,-1.2531 9.43063,-2.09374 3.11521,-1.09911 4.6324,-1.22319 5.4014,-0.44174 0.76135,0.77369 0.59089,1.44039 -0.59179,2.31466 -1.33439,0.9864 1.91136,1.22611 16.5,1.21857 27.55022,-0.0142 64.27152,5.17599 77.2597,10.91998 3.87986,1.71586 9.51095,2.96322 17.78915,3.94055 6.66177,0.78649 16.17426,1.97649 21.13886,2.64446 8.89452,1.19671 9.18154,1.1684 19.62364,-1.93585 5.82841,-1.73268 11.32896,-3.15032 12.22346,-3.15032 1.83472,0 2.19172,3.03463 0.55012,4.67623 -1.0973,1.0973 8.3228,1.02724 40.8711,-0.30398 12.44975,-0.50919 14.27421,-0.79683 14.13484,-2.22845 -0.32213,-3.30905 0.11378,-4.1438 2.16391,-4.1438 1.21976,0 2.3021,0.79725 2.59311,1.91007 0.45591,1.74337 0.77818,1.79363 3.69279,0.57583 1.7563,-0.73384 6.8464,-2.26697 11.31133,-3.40697 7.69854,-1.96561 16.0208,-5.51113 37.02086,-15.77194 7.84285,-3.83209 10.44333,-5.78675 17.5,-13.15395 4.55856,-4.75917 8.5257,-9.51967 8.81587,-10.5789 0.65797,-2.40181 2.97242,-3.30306 2.97242,-1.15747 0,0.91667 0.84211,1.58333 2,1.58333 2.34321,0 2.66715,1.53002 0.5,2.36163 -3.28078,1.25895 -0.47702,8.97882 8.60422,23.69083 2.56404,4.15385 5.8917,10.00385 7.3948,13 1.5031,2.99615 5.76796,8.59754 9.47747,12.44754 8.89956,9.23663 13.76694,16.96773 20.00409,31.77354 4.6527,11.04461 19.0259,38.05332 19.82536,37.25387 0.17903,-0.17904 -0.18411,-2.21811 -0.80698,-4.53127 -1.33805,-4.96913 -0.78794,-6.99613 1.8987,-6.99613 1.51222,0 2.29543,1.20028 3.42572,5.25 7.88446,28.24915 10.51226,36.96192 14.40157,47.75 5.93903,16.47356 11.67676,27.77574 21.89895,43.13657 7.6011,11.42214 9.15249,13.14833 16.14269,17.96161 14.11188,9.71709 23.70178,17.08011 26.34989,20.23114 2.4021,2.85829 2.8361,3.01331 5.29705,1.89203 3.90834,-1.78076 6.58647,-1.54547 6.58647,0.57865 0,0.99 -0.54,2.34 -1.2,3 -0.78275,0.78275 -0.85963,1.54037 -0.2211,2.1789 2.21201,2.21201 19.91993,9.06225 31.0304,12.00398 6.53989,1.73158 19.7657,5.35191 29.3907,8.04518 12.31606,3.44628 20.75848,5.19214 28.5,5.89368 7.16202,0.64903 14.23964,2.04297 20.28512,3.99516 5.10682,1.64909 15.23483,3.90598 22.50668,5.01532 7.27186,1.10934 15.46856,2.69854 18.21488,3.53156 2.74633,0.83301 7.91832,1.51003 11.49332,1.50447 7.49283,-0.0116 29.34063,-2.4427 30.96289,-3.44532 0.60161,-0.37181 5.69358,-2.45822 11.31548,-4.63645 7.07235,-2.74022 8.98923,-3.78396 6.22163,-3.38768 -5.21175,0.74624 -28.91335,2.38756 -29.29149,2.02841 -1.1604,-1.10213 9.77552,-3.54857 22.6548,-5.06803 13.10164,-1.5457 16.26623,-1.62603 21.49671,-0.54569 3.37336,0.69675 6.35987,1.60292 6.63668,2.01369 0.55602,0.8251 18.47069,12.53467 24.0033,15.68928 1.925,1.0976 3.53082,2.42042 3.5685,2.93959 0.0377,0.51917 2.59594,3.49171 5.68503,6.60563 8.62821,8.6976 9.17141,11.62527 11.75091,63.33832 0.5487,11 1.5045,23.375 2.1241,27.5 0.6195,4.125 1.27164,11.1 1.44904,15.5 0.1775,4.4 0.3452,8.39501 0.3726,8.87781 0.027,0.48279 1.9624,0.55476 4.2999,0.15994 9.2497,-1.56237 17.0756,-2.35004 18.3791,-1.84983 1.9644,0.75379 1.6934,4.08756 -0.3791,4.6643 -0.9625,0.26785 -4.7145,0.77617 -8.3377,1.12961 -3.6233,0.35343 -8.7983,1.20391 -11.5001,1.88995 -4.22904,1.07385 -4.95674,1.62644 -5.23204,3.97291 -0.1759,1.49906 -1.155,3.24711 -2.1757,3.88455 -1.678,1.04793 -1.7029,1.27087 -0.2594,2.32634 1.3923,1.01809 1.4515,2.04221 0.4626,8.00955 -0.6235,3.7632 -1.0379,6.92196 -0.9207,7.01946 0.1171,0.0975 5.07684,-1.40784 11.02144,-3.3452 7.8558,-2.56018 11.1088,-3.2222 11.9077,-2.42332 1.7803,1.78033 -0.55,3.63749 -6.4223,5.11836 -8.7352,2.20278 -17.78954,6.26045 -17.83604,7.99305 -0.023,0.86489 -0.8784,11.24752 -1.9005,23.07252 -1.0221,11.825 -1.7312,21.6344 -1.5758,21.79867 0.1553,0.16427 1.4626,0.002 2.905,-0.35954 2.1981,-0.5517 2.9499,-1.73269 4.646,-7.29866 2.37344,-7.78808 3.37224,-9.62639 4.76344,-8.7666 0.6625,0.40945 0.3541,2.81813 -0.8806,6.87812 -1.045,3.4364 -1.90354,6.31436 -1.90774,6.39546 0,0.0811 1.45494,0.0811 3.24244,0 4.7981,-0.21768 4.2196,2.51733 -0.9073,4.28977 l -4.15734,1.43722 -4.3892,15.56278 c -3.449,12.22887 -4.11151,15.73409 -3.0927,16.36247 2.1008,1.29584 1.5119,4.66791 -0.98086,5.61565 -1.7729,0.67405 -2.54804,2.16371 -3.49948,6.72525 -0.67219,3.22267 -1.89807,7.20941 -2.72419,8.85941 -1.46528,2.92659 -1.45918,2.9458 0.24948,0.7852 5.59864,-7.07953 5.43542,-6.91329 4.69827,-4.7852 -0.38103,1.1 -1.1897,3.24707 -1.79704,4.77127 -0.83021,2.08352 -0.79968,3.25896 0.12301,4.73643 1.86422,2.98508 1.47877,4.89107 -1.12106,5.54359 -1.37392,0.34483 -3.03751,2.03461 -4.00924,4.07236 -1.87495,3.93181 -4.13239,3.79524 -2.62897,-0.15905 0.85434,-2.24709 0.69653,-2.46344 -1.78821,-2.45146 -4.41094,0.0213 -20.63381,3.62966 -23.89092,5.31397 -1.65059,0.85356 -6.11356,2.27197 -9.91771,3.15202 -3.80414,0.88006 -10.29181,2.66446 -14.41704,3.96534 -4.12524,1.30088 -13.57524,3.53307 -21,4.96042 -12.18724,2.3429 -31.57562,7.40659 -53.49958,13.97257 -4.4,1.31775 -14.86738,3.37129 -23.26084,4.56342 -8.39347,1.19214 -19.41847,3.28196 -24.5,4.64405 -18.8052,5.04068 -26.77449,6.32129 -49.73916,7.99275 -24.02759,1.74882 -59.10166,2.98524 -60,2.11511 z m 59.25075,-7.61828 c 24.19887,-1.88678 28.25315,-2.47261 42.5,-6.14116 8.66209,-2.23048 22.94925,-5.12629 31.74925,-6.43514 8.8,-1.30884 19.825,-3.53331 24.5,-4.94325 20.08634,-6.05786 42.27927,-11.83659 52.5,-13.67026 6.05,-1.0854 16.175,-3.48266 22.5,-5.32723 6.325,-1.84457 12.85,-3.65056 14.5,-4.01331 1.65,-0.36275 5.7,-1.71573 9,-3.00662 3.3,-1.29089 10.23661,-3.06403 15.41469,-3.94032 5.17807,-0.87629 9.5334,-1.71198 9.67851,-1.85708 0.1451,-0.14511 0.58841,-4.26422 0.98513,-9.15359 0.57125,-7.04037 0.45887,-8.72757 -0.54022,-8.1101 -0.69385,0.42882 -4.30242,1.11347 -8.01905,1.52146 -7.0011,0.76852 -45.74996,12.70775 -59.01906,18.18484 -4.125,1.70267 -11.325,4.1835 -16,5.51295 -4.675,1.32945 -16.375,4.83998 -26,7.80117 -19.46147,5.98744 -33.96901,9.50313 -39.21485,9.50313 -1.90701,0 -5.67631,0.67057 -8.37622,1.49016 -14.40836,4.37381 -38.00563,5.75393 -64.43172,3.76839 -11.54019,-0.86708 -21.19009,-0.97218 -32,-0.34854 -26.05433,1.50311 -70.02642,0.42061 -102.82365,-2.53133 -4.82303,-0.43409 -12.68529,-0.0339 -22.88951,1.16501 -13.3816,1.57226 -17.025,1.66144 -26.19963,0.64126 -5.86111,-0.65172 -12.66083,-1.13149 -15.11049,-1.06615 l -4.45393,0.11879 5.5,0.92923 c 3.025,0.51107 12.475,2.08211 21,3.49119 8.525,1.40909 21.575,4.29244 29,6.40745 8.08952,2.3043 17.73088,4.26986 24.0567,4.90438 5.80619,0.58239 12.07414,1.49409 13.92877,2.02599 1.85464,0.53191 11.50412,1.66342 21.4433,2.51448 9.93918,0.85107 21.22123,1.95446 25.07123,2.452 9.49555,1.22711 29.73707,0.6083 61.75075,-1.8878 z m -227.91896,-23.19414 6.16821,-0.11962 -8,-1.30526 c -11.1682,-1.82217 -11.14327,-1.82378 -8.96808,0.57978 1.01304,1.11939 2.46959,1.79439 3.23677,1.5 0.76719,-0.2944 4.17058,-0.5891 7.5631,-0.6549 z m 193.52532,-1.41704 c 18.15928,-0.3628 34.70374,-0.12393 46.00519,0.66421 15.29533,1.06668 19.58728,1.01432 32.19408,-0.39276 8.0003,-0.89293 16.54796,-2.29912 18.99481,-3.12487 2.44684,-0.82575 8.12399,-1.95848 12.61588,-2.51718 9.34121,-1.16186 24.38496,-4.82909 35.33293,-8.61316 4.125,-1.42577 13.28098,-4.14475 20.34663,-6.04219 7.06564,-1.89743 15.84064,-4.74379 19.5,-6.32524 3.65935,-1.58145 8.28237,-3.39423 10.27338,-4.0284 5.63239,-1.79402 28.80335,-23.32119 33.35618,-30.98984 0.94401,-1.59006 -1.36095,-1.27465 -9.72619,1.33092 -2.6125,0.81374 -4.74512,1.16354 -4.73916,0.77735 0.01,-0.63409 13.78057,-6.20217 15.33899,-6.20217 0.35759,0 0.65017,1.08459 0.65017,2.4102 0,3.14486 -5.53901,10.0084 -16.81658,20.83789 -6.8998,6.62566 -8.33044,8.40766 -5.89673,7.34491 17.6178,-7.6933 22.95353,-10.23596 27.94417,-13.31636 3.18971,-1.9688 6.12343,-3.25569 6.51937,-2.85975 0.97031,0.97032 -2.9827,3.8726 -10.25023,7.52568 -7.10381,3.57078 -6.87182,3.77977 1.09345,0.98503 3.2486,-1.13983 10.1219,-2.67768 15.274,-3.41745 5.15209,-0.73977 9.78483,-1.76243 10.29497,-2.27257 0.84283,-0.84283 4.91647,-26.58784 4.77993,-30.20876 -0.0317,-0.84085 -0.84755,1.49953 -1.813,5.20085 -2.72435,10.44458 -4.51571,11.10788 -2.81051,1.04068 0.58035,-3.42631 0.8019,-6.48295 0.49232,-6.79253 -0.6903,-0.6903 -29.96671,6.5677 -42.31116,10.48949 -11.24205,3.57155 -16.92542,4.57561 -37,6.53664 -14.97977,1.46333 -32.58934,4.10804 -66,9.91227 -7.7,1.33768 -18.725,2.72844 -24.5,3.09059 -12.142,0.76143 -29.95817,2.79005 -43.24234,4.92375 -19.77214,3.1758 -30.4187,3.61608 -62.25766,2.57462 -41.01243,-1.34153 -52.99492,-2.43187 -71.5,-6.50612 -8.525,-1.87694 -24.95,-5.4567 -36.5,-7.95501 -24.73949,-5.35125 -56.47211,-14.64188 -61.66908,-18.05538 -2.01799,-1.32547 -4.83049,-2.70144 -6.25,-3.05772 -1.41951,-0.35627 -2.58092,-1.04898 -2.58092,-1.53936 0,-1.71478 5.10917,-0.86996 10.13219,1.6754 8.47641,4.29532 36.81604,11.93595 69.86781,18.83702 11.825,2.46901 26.675,5.61361 33,6.98801 16.38297,3.55994 37.21135,4.87845 79,5.00097 35.28891,0.10346 37.048,0.0166 53.01553,-2.61695 9.08354,-1.49819 23.25854,-3.21266 31.5,-3.80996 8.24146,-0.59729 29.83447,-3.53046 47.98447,-6.51815 18.15,-2.9877 41.79835,-6.33579 52.55188,-7.4402 13.48894,-1.38535 22.1716,-2.81286 28,-4.60344 4.64647,-1.42747 17.63446,-5.00783 28.86222,-7.95635 11.22775,-2.94852 20.7118,-5.84264 21.07567,-6.43138 0.73557,-1.19019 5.35054,-43.00958 4.80636,-43.55376 -0.94161,-0.94161 -12.59585,3.92657 -15.09955,6.30735 -4.23658,4.02859 -11.53848,13.98778 -14.45477,19.71513 -1.40439,2.75809 -2.74224,4.46295 -2.97301,3.78856 -0.62763,-1.83419 4.10365,-9.91017 10.26694,-17.52498 3.00534,-3.71312 5.46426,-6.95136 5.46426,-7.1961 0,-0.57403 -6.51605,1.30886 -27.5,7.94648 -9.35,2.95758 -20.32792,6.29463 -24.39538,7.41567 -4.06746,1.12103 -8.30626,2.83629 -9.41956,3.81167 -1.94119,1.7007 -1.99699,1.69898 -1.36092,-0.042 0.51178,-1.40075 0.265,-1.69706 -1.08043,-1.2973 -0.95904,0.28495 -9.61871,1.88021 -19.24371,3.54503 -9.625,1.66482 -22.675,3.96235 -29,5.10563 -17.26176,3.12016 -31.88121,2.98565 -120,-1.10408 -12.925,-0.59986 -32.725,-0.80265 -44,-0.45064 -24.47184,0.76404 -50.07962,-0.58972 -76.92038,-4.06639 -20.03129,-2.59465 -26.64033,-3.40827 -64.07962,-7.88874 -44.00265,-5.26592 -52.64187,-7.81717 -67.79729,-20.02123 -2.3635,-1.90324 -5.0635,-3.89286 -6,-4.42138 -1.27253,-0.71818 -1.41594,-1.25083 -0.56761,-2.10833 1.49682,-1.51301 5.1999,0.42917 12.06089,6.32566 9.35047,8.03602 22.41933,12.25565 47.08901,15.20397 6.99325,0.83578 21.715,2.6274 32.715,3.98139 11,1.35399 29.225,3.59009 40.5,4.96912 30.81528,3.76897 52.05798,4.84817 81.5,4.14047 14.3,-0.34373 35.225,-0.19172 46.5,0.33782 11.275,0.52953 39.175,1.48372 62,2.12042 46.71983,1.30324 38.37159,1.97026 88.95123,-7.1071 l 23.45124,-4.20872 8.54876,-5.7904 c 4.70183,-3.18472 11.92377,-7.61993 16.04877,-9.85604 4.125,-2.2361 7.275,-4.07027 7,-4.07593 -0.40923,-0.008 -25.39638,9.78306 -29.75,11.65785 -0.6875,0.29606 -1.25,0.0753 -1.25,-0.49047 0,-0.56581 7.0875,-4.4561 15.75,-8.64508 27.162,-13.1349 46.27407,-25.02199 30.61581,-19.04204 -2.46803,0.94255 -4.75407,1.44697 -5.08011,1.12094 -0.82621,-0.82622 5.70265,-3.43364 10.5309,-4.2057 2.71957,-0.43488 5.07736,-1.74046 7.31797,-4.05218 l 3.30567,-3.41059 -2.97012,0.97673 c -1.63357,0.53721 -8.82012,2.17211 -15.97012,3.63312 -7.15,1.46101 -17.60132,4.2058 -23.22515,6.09954 -5.62383,1.89374 -13.04883,3.89049 -16.5,4.43723 -3.45117,0.54673 -13.47485,2.76616 -22.27485,4.93206 -8.8,2.16591 -23.2,5.08948 -32,6.49683 -17.99932,2.87855 -21.08755,3.68622 -36.83302,9.63298 l -11.16698,4.21756 -26,-0.16037 c -18.16658,-0.11204 -32.17635,-0.79197 -46.5,-2.25676 -11.275,-1.15301 -24.23951,-2.47964 -28.81001,-2.94806 -9.13305,-0.93601 -42.29196,0.19867 -59.80473,2.0465 -9.85569,1.03991 -12.91418,0.9382 -27,-0.89786 -8.73689,-1.13884 -21.96026,-2.55009 -29.38526,-3.1361 -15.71465,-1.24029 -24.37062,-2.71862 -47,-8.02701 -9.075,-2.12881 -21.45,-4.59686 -27.5,-5.48455 -13.34645,-1.95827 -26.00977,-4.76059 -34.02828,-7.53025 -3.28444,-1.13447 -13.60085,-4.11576 -22.92535,-6.62509 -9.3245,-2.50932 -19.337,-5.61644 -22.25,-6.90471 -2.913,-1.28826 -5.28552,-2.25457 -5.27225,-2.14733 0.0133,0.10723 1.76854,7.08126 3.90063,15.49783 4.11193,16.23217 6.60611,21.30737 12.05254,24.52465 1.66249,0.98206 3.02271,2.26188 3.02271,2.84404 0,1.16491 -4.15966,-1.24074 -7.87421,-4.5539 -2.3087,-2.05922 -2.35935,-2.06247 -1.8357,-0.11765 0.29619,1.1 1.29612,5.6 2.22208,10 1.21086,5.75375 3.29116,10.9482 7.40902,18.5 10.80742,19.8199 16.11379,34.8116 16.42196,46.39574 0.31686,11.91039 -3.13388,6.70704 -11.38648,-17.16961 -2.33325,-6.75062 -4.37058,-12.14555 -4.5274,-11.98873 -0.74467,0.74467 2.93366,15.03175 5.47423,21.2626 1.5698,3.85 3.87165,10.15 5.11522,14 1.24357,3.85 3.48605,9.475 4.9833,12.5 1.49725,3.025 3.72176,8.7625 4.94336,12.75 l 2.22109,7.25 7.83498,0 c 4.30923,0 8.51097,0.2594 9.33719,0.57645 1.01936,0.39117 1.60815,-0.14615 1.83179,-1.67167 0.37682,-2.57046 2.82957,-3.87802 2.82957,-1.50844 0,2.59022 6.94027,5.24312 17,6.4982 5.225,0.65188 12.65,1.80861 16.5,2.5705 13.61039,2.69343 52.96738,3.74748 71.70401,1.92037 5.33721,-0.52046 13.21221,-0.607 17.5,-0.1923 4.28779,0.41469 16.06292,1.19532 26.16695,1.73473 10.10403,0.53941 18.62961,1.2394 18.94574,1.55553 0.31613,0.31613 5.5492,0.34342 11.62904,0.0606 6.07984,-0.28278 23.81496,-0.76909 39.41137,-1.08068 z m -582.37092,-2.21333 c -0.2551,-1.5125 -0.91953,-5.42387 -1.47653,-8.69193 -0.55699,-3.26806 -1.43388,-6.20222 -1.94863,-6.52035 -2.07268,-1.28099 -3.06103,-6.6958 -3.06103,-16.77023 0,-9.25673 -3.40432,-48.0311 -4.4573,-50.76749 -0.21164,-0.55 -0.42033,9.88594 -0.46375,23.19098 -0.0494,15.1358 0.29537,24.42233 0.92105,24.80902 1.31321,0.81161 1.28587,2.5 -0.0405,2.5 -1.65312,0 -6.9595,-4.25368 -6.9595,-5.57885 0,-0.66151 -0.82446,-3.04423 -1.83213,-5.29494 -1.65066,-3.68687 -2.01245,-3.96034 -3.65265,-2.761 -2.73288,1.99833 -1.6259,13.16854 1.52362,15.37455 1.96675,1.37757 2.14828,2.15833 1.64208,7.06289 -0.61688,5.97703 -2.53337,8.85168 -5.21519,7.82257 -1.38919,-0.53308 -1.56944,-1.44794 -1.01446,-5.14882 0.55345,-3.6907 0.30366,-4.9725 -1.38819,-7.12333 -1.88611,-2.3978 -2.06308,-3.97618 -2.06308,-18.39996 0,-9.87275 -0.56129,-18.71044 -1.49983,-23.61514 -0.8249,-4.31088 -1.4999,-10.84696 -1.5,-14.52462 -1.7e-4,-6.66293 -2.85911,-21.01625 -4.87744,-24.48719 -0.58405,-1.00439 -1.08865,-1.37616 -1.12133,-0.82616 -0.32099,5.40234 -2.250289,48.71558 -2.271679,51 -0.0611,6.52094 7.088079,46.67154 10.282869,57.75 l 1.08142,3.75 14.92799,0 14.928,0 -0.46381,-2.75 z m 4.94426,-13 c -0.37063,-4.8125 -1.0691,-9.1775 -1.55216,-9.7 -0.52653,-0.56952 -0.87829,-0.0852 -0.87829,1.20915 0,3.21193 2.17562,17.24085 2.67373,17.24085 0.23683,0 0.12736,-3.9375 -0.24328,-8.75 z m 327.17666,-42.05832 c -1.80424,-8.65316 -7.4068,-23.0844 -12.78878,-32.94168 -7.04387,-12.9011 -6.29241,-9.00539 3.3274,17.25 10.04215,27.40808 10.29452,28.00482 10.6539,25.19266 0.16479,-1.28952 -0.37184,-5.56496 -1.19252,-9.50098 z M 120.73906,734.47419 c -1.02757,-16.15216 -4.37945,-42.67695 -5.53961,-43.8371 -0.27293,-0.27293 -0.45265,12.29127 -0.39937,27.92043 0.0935,27.44702 0.14237,28.12663 1.43082,19.91667 2.54356,-16.20746 3.16193,-14.92407 4.0955,8.5 0.58023,14.55835 0.98661,19.12482 1.2014,13.5 0.17851,-4.675 -0.17642,-16.375 -0.78874,-26 z m 868.93358,17.66771 c 2.30962,-8.15776 3.97032,-15.06135 3.69032,-15.3413 -0.8714,-0.87142 -4.65939,0.74481 -4.66629,1.99098 -0.004,0.65043 -0.9036,7.18563 -2,14.52266 -2.8562,19.11354 -2.75625,19.07417 2.97597,-1.17234 z m -656.00946,4.84174 c -0.0367,-6.41841 -0.15159,-6.79865 -1.36307,-4.50945 -0.72766,1.375 -1.61437,5.09426 -1.97046,8.26503 -0.62807,5.59256 -0.58729,5.72747 1.36307,4.50946 1.71063,-1.06831 2.00453,-2.30105 1.97046,-8.26504 z M 455.2019,737.94665 c -2.68127,-12.31111 -7.9355,-27.72591 -12.77272,-37.47246 -3.13515,-6.31702 -3.23478,-6.40851 -3.53932,-3.25 -0.497,5.15465 -2.18664,3.77162 -2.18664,-1.78984 0,-5.57252 -0.81142,-7.44684 -10.72614,-24.77657 -3.5609,-6.22403 -6.1996,-11.59118 -5.86378,-11.927 0.90916,-0.90916 2.91262,2.15176 8.66822,13.24341 7.58435,14.61586 7.58103,14.61237 8.37836,8.81515 0.36557,-2.65808 0.19078,-7.75388 -0.38843,-11.32401 -0.57922,-3.57013 -1.05652,-8.15702 -1.06068,-10.1931 -0.007,-3.2684 -0.54404,-4.07107 -4.58836,-6.85364 -2.51945,-1.73342 -9.38195,-7.50909 -15.25,-12.83481 -13.22299,-12.00091 -12.84469,-11.76998 -12.35079,-7.53944 0.23649,2.02577 -0.0392,3.42985 -0.67346,3.42985 -1.76102,0 2.54776,8.83662 7.77197,15.93907 4.71822,6.41455 10.65284,15.98855 16.7993,27.10142 1.68542,3.04727 4.22485,9.21392 5.64316,13.70367 1.79872,5.69397 4.70548,11.3954 9.60969,18.8488 3.86702,5.87709 7.03094,11.08706 7.03094,11.57771 0,2.09983 -3.26619,1.93055 -5.67585,-0.29416 -2.57387,-2.3763 -2.57383,-2.37598 0.4758,3.62349 1.67744,3.3 3.78042,7.79447 4.67327,9.98772 1.72003,4.22515 7.56658,13.80582 8.09963,13.27277 0.17355,-0.17356 -0.75982,-5.25317 -2.07417,-11.28803 z M 109.42438,691.46517 c 0.216,-17.83397 0.92348,-21.99098 3.7426,-21.99098 2.56555,0 4.43641,3.00414 5.62119,9.02628 0.64639,3.28554 1.30491,5.97372 1.46337,5.97372 0.15846,0 0.99991,-0.27314 1.86989,-0.60699 2.03395,-0.7805 1.98113,-3.88567 -0.31863,-18.73241 -1.37464,-8.87436 -2.34038,-12.34584 -3.8562,-13.86167 l -2.02228,-2.02227 -3.09825,2.29063 c -3.82019,2.8244 -5.29058,1.8046 -2.17688,-1.50978 2.5324,-2.69561 2.47629,-4.73528 -0.40041,-14.55751 -1.35707,-4.6336 -1.52247,-9.12314 -1.04997,-28.5 0.30847,-12.65 0.18287,-25.475 -0.27911,-28.5 l -0.83996,-5.5 -0.69457,10 c -0.38201,5.5 -1.65239,30.475 -2.82307,55.5 -2.31871,49.56585 -2.04886,57.43885 2.27371,66.33601 1.24627,2.56519 2.28946,4.66399 2.3182,4.66399 0.0287,0 0.15041,-8.10406 0.27037,-18.00902 z m 337.06838,5.75902 c -1.91494,-8.84485 -4.3977,-15.47518 -5.41414,-14.45874 -1.04703,1.04704 5.61484,23.70874 6.96967,23.70874 0.24593,0 -0.45406,-4.1625 -1.55553,-9.25 z m 489.89189,3.1064 c 8.70021,-2.82898 20.99357,-6.66526 27.31857,-8.52507 6.325,-1.85981 9.925,-3.18348 8,-2.94148 -1.925,0.242 -4.2875,0.75143 -5.25,1.13206 -0.9625,0.38064 -1.75,0.279 -1.75,-0.22587 0,-1.3572 9.67529,-3.59435 12.48984,-2.88795 1.33853,0.33595 4.22709,-0.11126 6.4415,-0.99729 3.24846,-1.29978 4.11403,-2.20802 4.53502,-4.75859 0.28616,-1.73372 1.19686,-7.20221 2.02378,-12.15221 0.8269,-4.95 1.5049,-9.56782 1.5067,-10.26182 0,-1.88644 -8.08103,-0.39188 -10.2858,1.9012 -0.98392,1.02334 -2.18689,1.86062 -2.67327,1.86062 -0.48638,0 -2.26764,1.16398 -3.95835,2.58663 -2.29362,1.92995 -2.9315,3.15455 -2.51258,4.82365 0.9064,3.61141 -5.11135,8.42057 -20.83265,16.64866 -19.15796,10.02674 -33.98425,18.94106 -31.50276,18.94106 0.34729,0 7.74979,-2.31462 16.45,-5.1436 z M 829.20322,689.93674 c 11.80035,-3.95763 20.19965,-6.0415 32,-7.93919 8.8,-1.41519 23.425,-4.34463 32.5,-6.50988 9.075,-2.16525 19.2,-4.36957 22.5,-4.89848 3.3,-0.52892 10.725,-2.54109 16.5,-4.47151 5.775,-1.93041 15.9,-4.64211 22.5,-6.026 13.02262,-2.73059 32.63068,-7.38647 33.00665,-7.83735 0.67867,-0.81386 4.75839,-21.72206 4.73759,-24.28014 -0.049,-6.09258 -2.1919,-44.18086 -2.7844,-49.5 -1.6429,-14.74682 -5.59765,-22.07743 -18.04426,-33.4472 -11.68436,-10.67346 -19.33621,-14.09 -33.68737,-15.04133 l -10.22821,-0.67803 -4.15438,4.02852 c -4.82391,4.67778 -7.4681,10.93036 -5.167,12.21813 4.24145,2.37363 11.28335,7.73004 12.42714,9.45267 0.83667,1.2601 0.98819,2.50621 0.41708,3.43028 -0.89885,1.45437 -1.50581,1.31113 -15.69973,-3.705 -0.73674,-0.26036 -1.43572,1.31011 -1.86896,4.19915 -0.38064,2.53829 -1.48043,5.58864 -2.44397,6.77856 -1.689,2.08584 -1.84628,2.10166 -4.38104,0.44082 -1.44603,-0.94747 -2.62914,-2.4248 -2.62914,-3.28296 0,-0.85815 -0.5625,-1.37549 -1.25,-1.14964 -1.45974,0.47953 -2.19072,6.9099 -1.21186,10.66071 l 0.6773,2.59532 0.92662,-2.42994 c 0.8188,-2.14719 1.09913,-2.25744 2.4091,-0.94747 1.17558,1.17558 1.26168,2.11586 0.41588,4.54211 -1.36109,3.90443 -4.96563,5.66653 -8.69273,4.24949 -3.84946,-1.46356 -4.23979,-2.46025 -4.27431,-10.91419 -0.0377,-9.24279 -0.83982,-10.92603 -4.11368,-8.63293 -2.66767,1.86851 -5.46745,2.11969 -6.42145,0.57609 -1.39016,-2.24933 0.69685,-5.86182 4.93582,-8.5436 4.88246,-3.08887 4.89224,-3.15967 2.05738,-14.89956 l -1.20736,-5 -0.75035,3.25 c -0.4127,1.7875 -1.20263,3.25 -1.75541,3.25 -1.65622,0 -0.15776,-8.88268 1.88679,-11.18466 l 1.86826,-2.1035 -5.27296,0.68157 c -3.95801,0.5116 -7.94802,0.0646 -16,-1.7923 -5.89987,-1.36063 -15.4177,-3.21835 -21.15072,-4.12827 -5.73303,-0.90993 -11.51476,-2.06924 -12.8483,-2.57625 -3.77073,-1.43363 -8.4313,3.08478 -12.15466,11.78389 -1.69035,3.94927 -3.07336,7.61732 -3.07336,8.15123 0,0.5339 1.575,1.90001 3.5,3.03579 3.96728,2.34075 4.35535,3.60436 1.56547,5.09746 -1.32304,0.70807 -2.78388,0.7124 -4.62163,0.0137 -3.55281,-1.35078 -4.8825,-0.15052 -6.4148,5.79035 -2.81074,10.89747 -4.60517,12.85662 -7.91809,8.64492 -1.8661,-2.37237 -4.11095,-10.27021 -4.11095,-14.46315 0,-1.07293 -0.43851,-1.95078 -0.97446,-1.95078 -0.53595,0 -4.54129,2.87966 -8.90075,6.39925 -5.54752,4.47876 -8.24214,6.0834 -8.97874,5.3468 -0.70646,-0.70646 -0.72752,-1.65956 -0.0641,-2.89925 1.45444,-2.71765 0.56043,-2.29753 -4.58199,2.1532 -5.10348,4.41703 -6.25812,4.79391 -7.19635,2.34892 -0.66837,-1.74175 1.84199,-4.30135 13.58247,-13.84892 3.38163,-2.75 7.94076,-7.29172 10.13141,-10.0927 l 3.98298,-5.09271 -2.01972,-5.87043 c -1.11085,-3.22874 -2.79847,-7.51241 -3.75026,-9.51928 l -1.73049,-3.64884 -20.5,-5.70146 c -32.02352,-8.90639 -36.82225,-10.47507 -46.42446,-15.17598 -5.73131,-2.80586 -9.69543,-4.17794 -10.93443,-3.78469 -1.50023,0.47615 -1.80223,0.24836 -1.32377,-0.99851 0.3815,-0.99417 0.10222,-1.6154 -0.72623,-1.6154 -1.28855,0 -11.45351,-8.15475 -18.37699,-14.74278 -1.80724,-1.71967 -7.69221,-6.06943 -13.07772,-9.66613 -5.8487,-3.90603 -10.28587,-7.62372 -11.01864,-9.23197 -0.67473,-1.48089 -4.37538,-7.40114 -8.22365,-13.15612 -10.36056,-15.49389 -16.61657,-28.80465 -23.83023,-50.703 -3.97549,-12.06829 -4.78016,-13.79338 -6.06388,-13 -1.28693,0.79537 -4.12958,-4.82631 -5.51041,-10.8975 -0.23736,-1.04362 -2.01962,-4.56337 -3.96058,-7.82167 -1.94095,-3.25829 -3.52901,-6.16821 -3.52901,-6.46648 0,-0.29827 -2.06973,-3.86306 -4.59941,-7.92176 -2.52968,-4.0587 -7.26866,-13.79491 -10.53108,-21.63602 -6.84306,-16.44707 -10.28296,-22.02069 -19.7695,-32.03228 -4.24606,-4.48107 -8.22777,-9.97771 -10.48584,-14.47541 -2.00224,-3.9881 -5.19623,-9.68321 -7.09776,-12.65578 -3.63582,-5.6837 -8.51641,-15.72565 -8.51641,-17.52275 0,-2.45618 -3.97468,0.0806 -11,7.02068 -7.65554,7.56262 -9.12352,8.44998 -31.14239,18.82485 -7.17578,3.38109 -12.38756,6.6421 -16,10.01118 l -5.35761,4.99669 4.40561,0.0381 c 3.19912,0.0277 5.30321,-0.64651 7.68328,-2.46188 3.96291,-3.02266 5.01702,-3.10487 6.41111,-0.5 0.5887,1.1 1.72953,2 2.53518,2 0.80565,0 1.46482,0.40598 1.46482,0.90217 0,1.09448 -5.46982,3.09784 -8.45809,3.09784 -1.18781,0 -3.03316,0.70592 -4.10078,1.5687 -1.78833,1.44522 -1.35076,1.51186 5.55887,0.84664 12.50523,-1.20394 14.41598,-1.1048 14.7871,0.76719 0.48675,2.45523 -2.19552,3.48001 -12.2871,4.69438 -7.58019,0.91215 -9.23663,1.44112 -10.5,3.35305 -2.15149,3.25598 -5.74085,6.77004 -6.91512,6.77004 -0.55331,0 -1.55628,-0.58905 -2.22881,-1.30899 -0.99736,-1.06769 -2.12921,-0.699 -6.13991,2 -2.70443,1.81996 -5.32192,3.30901 -5.81665,3.30901 -0.49473,0 -0.89951,0.50242 -0.89951,1.1165 0,1.62221 11.20855,0.36522 24.69616,-2.76958 12.05402,-2.8016 14.63122,-2.64617 14.12398,0.85185 -0.26579,1.83294 -1.33869,2.40848 -6.32014,3.39032 -3.3,0.65043 -10.05,2.12423 -15,3.27511 -4.95,1.15088 -10.47662,2.10225 -12.28138,2.11416 -4.29461,0.0283 -4.81358,1.73858 -2.32874,7.67435 1.11605,2.66601 2.5365,7.76627 3.15656,11.33392 0.62006,3.56764 2.15492,8.96764 3.41079,12 3.39361,8.194 6.18609,17.26258 8.93404,29.01337 2.7635,11.81724 8.96053,29.82844 13.0083,37.80762 1.48089,2.91919 3.5059,8.54419 4.50003,12.5 0.99414,3.95581 3.9064,13.21165 6.4717,20.56854 4.913,14.08975 4.94706,16.59803 0.21621,15.9221 -1.54025,-0.22007 -2.1306,-1.08474 -2.25187,-3.29826 -0.0904,-1.65 -2.0264,-8.175 -4.30221,-14.5 -2.27581,-6.325 -4.56161,-13.68449 -5.07955,-16.35441 -0.51794,-2.66993 -2.69275,-8.74493 -4.8329,-13.5 -5.78071,-12.84379 -9.86458,-24.9934 -13.66226,-40.64559 -1.86825,-7.7 -4.81405,-17.6 -6.54623,-22 -1.73217,-4.4 -3.95424,-11.6 -4.93791,-16 -1.64903,-7.37613 -4.79888,-16.65763 -6.09188,-17.95063 -0.29842,-0.29842 -2.79799,0.12721 -5.55462,0.94584 -6.64698,1.97394 -21.36675,3.46723 -34.32808,3.48251 -5.775,0.007 -16.125,0.53345 -23,1.17033 -9.51862,0.88176 -18.93978,0.87522 -39.5,-0.0274 -45.86052,-2.01341 -66.52772,-4.79702 -94,-12.66064 -12.19513,-3.49071 -24.89151,-6.96 -54.5,-14.89213 -9.075,-2.4312 -21,-4.90762 -26.5,-5.50316 -5.5,-0.59553 -13.49398,-1.78467 -17.76441,-2.64253 -7.64233,-1.53522 -7.84184,-1.52328 -12.69015,0.75905 -5.07357,2.38837 -5.57894,3.1308 -10.76768,15.81878 -1.3677,3.34442 -1.22443,3.26662 3.223,-1.75 4.81799,-5.4346 8.49924,-6.85333 8.49924,-3.27554 0,1.08595 -2.8125,5.48238 -6.25,9.76985 -11.35555,14.16337 -11.44289,14.35538 -12.17108,26.75569 -0.72943,12.42162 -2.6082,26.19028 -6.07213,44.5 -3.67433,19.42184 -4.0227,23.13521 -2.1013,22.39789 0.87698,-0.33653 1.59451,-1.00335 1.59451,-1.48183 0,-0.47847 1.14811,-1.62222 2.55135,-2.54166 3.80871,-2.49557 5.07453,-0.68147 3.48526,4.99486 -2.0496,7.32042 -0.55375,7.68867 1.85404,0.45642 2.6824,-8.05708 4.4328,-9.95834 6.17359,-6.70564 0.81293,1.51898 1.00561,4.81822 0.5935,10.16244 -0.53356,6.91906 -0.41378,7.83788 0.95343,7.31323 3.64867,-1.40012 9.16341,-1.76946 9.84933,-0.65963 1.13448,1.83564 -1.34698,3.9685 -6.3389,5.44837 l -4.6216,1.37009 0.28317,5.37273 c 0.19012,3.60741 1.43244,7.8104 3.78097,12.79175 2.14719,4.55429 3.14002,7.77682 2.5712,8.34564 -0.866,0.866 -14.35121,-7.68325 -19.87486,-12.6001 -2.09713,-1.86675 -2.35661,-1.88753 -4.08115,-0.32685 -1.0129,0.91666 -2.09523,1.41306 -2.40517,1.10311 -0.30995,-0.30994 -0.87779,2.27657 -1.26187,5.74782 -0.38409,3.47125 -1.53242,10.81136 -2.55186,16.31136 -1.05371,5.68495 -1.96954,15.82532 -2.12241,23.5 l -0.26889,13.5 10.96544,0.75378 c 6.03099,0.41457 15.01543,1.65037 19.96543,2.7462 4.95,1.09584 12.35368,2.45545 16.45262,3.02135 9.45581,1.30549 14.49908,2.63015 35.96721,9.44716 9.5809,3.04233 17.5684,5.53151 17.75,5.53151 0.18159,0 0.33017,-2.16 0.33017,-4.8 0,-4.53742 1.23511,-7.2 3.3399,-7.2 0.53694,0 0.70575,2.26879 0.39374,5.29181 -0.55693,5.39613 0.41383,8.69622 2.56605,8.72329 0.66017,0.008 5.02531,1.54588 9.70031,3.41684 l 8.5,3.40176 0.5,-4.58931 c 0.63184,-5.79938 2.6617,-6.69564 3.52996,-1.5586 0.35457,2.09781 0.83718,4.52756 1.07245,5.39944 0.35798,1.32661 10.23404,5.61844 28.89759,12.55803 1.28863,0.47914 0.31049,-1.14206 -2.75,-4.55796 -5.10325,-5.69588 -6.11579,-9.0853 -2.71411,-9.0853 1.11973,0 6.30996,2.71997 11.53383,6.04437 12.81421,8.1548 12.11193,8.08518 11.44741,1.13482 -1.27699,-13.35643 2.0083,-13.78449 3.67925,-0.4794 0.658,5.23946 1.333,9.6275 1.5,9.7512 2.71332,2.00984 9.80644,6.54901 10.2338,6.54901 0.3134,0 0.56982,-1.49235 0.56982,-3.31634 0,-4.3829 1.95196,-14.96559 2.95206,-16.00481 0.43463,-0.45163 0.56385,4.30899 0.28715,10.57915 l -0.5031,11.4003 6.2459,4.17085 c 3.43524,2.29397 6.64358,4.17085 7.12963,4.17085 2.04735,0 10.74695,7.24438 11.82497,9.84696 0.64428,1.55542 3.62211,5.24829 6.6174,8.20638 2.99529,2.95809 5.44599,6.11638 5.44599,7.01842 0,0.90205 4.54855,6.54242 10.10788,12.53416 5.55934,5.99174 11.74684,12.84516 13.75,15.22981 2.00317,2.38466 7.46712,7.31483 12.14212,10.95595 10.56558,8.22898 17.30518,13.90189 26.197,22.05076 9.28486,8.50908 18.91711,12.86714 43.46564,19.66581 10.91055,3.02165 23.55782,6.60597 28.10506,7.96514 4.54723,1.35918 15.48568,3.59907 24.30765,4.97753 8.82198,1.37846 23.55151,4.2793 32.7323,6.4463 18.59175,4.38834 32.24039,6.64361 45.69235,7.55011 4.95,0.33357 16.62942,1.5599 25.95427,2.72518 15.0985,1.88679 18.1633,1.98858 28,0.92994 28.23406,-3.0386 55.21451,-3.43981 71.54573,-1.06393 19.44093,2.82829 56.04716,4.83848 76,4.17345 10.74674,-0.35819 12.54802,-0.73479 27.5,-5.74942 z m -35.83828,-40.13143 c 1.05142,-8.56799 1.08941,-21.91737 0.0653,-22.93919 -0.42515,-0.4242 -1.46317,0.21409 -2.3067,1.4184 -0.84354,1.20432 -2.41676,2.18967 -3.49606,2.18967 -1.59382,0 -1.84451,-0.46949 -1.33488,-2.5 0.74204,-2.95653 0.63979,-2.97562 -4.63442,-0.86529 -2.89588,1.1587 -4.39637,1.32386 -5.15302,0.56721 -1.84883,-1.84883 -0.0846,-4.00939 5.396,-6.60825 2.91614,-1.38281 6.81391,-3.78002 8.66171,-5.32714 3.24914,-2.72044 3.32331,-2.94371 2.25557,-6.78973 -1.78579,-6.43236 -1.467,-10.4768 0.82576,-10.4768 1.06754,0 2.25482,0.50779 2.63839,1.12842 0.47681,0.77149 0.98564,0.61334 1.6087,-0.5 1.43471,-2.56368 3.87999,-1.90836 5.11803,1.37158 1.37324,3.63813 1.71121,3.67493 4.68448,0.51002 1.28657,-1.36948 5.18546,-4.34438 8.6642,-6.61087 6.1923,-4.03443 9.34522,-4.52957 9.34522,-1.46756 0,2.43645 -3.55162,10.72009 -7.3352,17.10833 l -3.53,5.96008 3.77724,4 c 5.9506,6.30154 8.19348,10.13823 10.72735,18.35031 2.77808,9.00356 2.90982,11.00171 0.77927,11.81928 -1.0537,0.40434 -3.47279,-1.22829 -7.25,-4.893 -5.59573,-5.42905 -14.18064,-11.77659 -15.92761,-11.77659 -0.49422,0 -2.92346,5.0625 -5.39829,11.25 -3.70075,9.25249 -4.90095,11.30879 -6.75951,11.58112 -2.22584,0.32614 -2.24721,0.22844 -1.42153,-6.5 z m 28.78096,-16.51333 c -2.40056,-4.74422 -6.20956,-9.62266 -8.44896,-10.82115 -1.62424,-0.86927 -2.17624,-0.54437 -3.53309,2.0795 -0.88446,1.71035 -1.46242,3.22324 -1.28437,3.36198 0.17806,0.13874 3.10833,2.11974 6.51172,4.40221 3.40339,2.28248 6.52328,4.69248 6.93309,5.35556 1.61031,2.60553 1.45748,-1.14513 -0.17839,-4.3781 z m -16.19399,-11.2131 c 1.54967,-3.2497 1.52379,-3.52452 -0.60355,-6.40797 -1.70316,-2.30849 -2.60744,-2.79732 -3.86888,-2.09139 -1.25357,0.70154 -1.50928,1.81251 -1.07213,4.65797 0.64241,4.18145 1.97054,7.2367 3.14584,7.2367 0.42878,0 1.50821,-1.52789 2.39872,-3.39531 z m 8.68907,-15.47309 c 1.73248,-2.95262 3.00174,-5.81309 2.82058,-6.35659 -0.18117,-0.5435 -2.56341,1.03582 -5.29387,3.50959 -4.94362,4.47887 -4.95645,4.50665 -3.05393,6.61271 1.05079,1.16322 2.01554,1.99969 2.14389,1.85882 0.12834,-0.14087 1.65084,-2.67191 3.38333,-5.62453 z m -127.16329,40.81025 c -2.04905,-1.08049 -6.66353,-4.71288 -10.25442,-8.07197 -7.02975,-6.57599 -7.39844,-6.62047 -11.71293,-1.4131 -0.93108,1.12377 -2.14799,2.04322 -2.70425,2.04322 -0.55626,0 -3.03017,1.6875 -5.49758,3.75 -2.46741,2.0625 -5.188,3.75 -6.04575,3.75 -2.54283,0 -1.78158,-3.41309 1.45227,-6.51131 1.65649,-1.58702 4.85659,-5.71698 7.11132,-9.17768 l 4.09952,-6.29219 -6.11132,-6.89325 c -9.30145,-10.49153 -8.61609,-11.35556 6.84851,-8.63404 4.65291,0.81884 8.72774,1.15572 9.05517,0.74863 2.78487,-3.46236 5.82688,-8.28439 6.88788,-10.9183 1.57243,-3.90354 3.42559,-4.69859 7.67949,-3.29467 l 3.27713,1.08155 -0.17975,7.57196 -0.17976,7.57195 4.6216,1.3665 c 8.60399,2.54399 9.01196,6.90049 0.8327,8.89198 l -4.35947,1.06144 0.42441,5.46371 c 0.75746,9.75133 0.50472,19.28162 -0.51924,19.57935 -0.55,0.15991 -2.67649,-0.59329 -4.72553,-1.67378 z m 1.03303,-10.19185 c -0.28744,-3.9727 -0.48459,-4.22933 -3.02166,-3.93313 -2.20374,0.25728 -2.83533,-0.16586 -3.35841,-2.25 -0.71545,-2.85057 -2.14768,-3.22313 -4.83542,-1.25781 -1.64575,1.20341 -1.33181,1.72806 3.88945,6.5 3.12385,2.85502 6.11932,5.19094 6.65663,5.19094 0.5373,0 0.83853,-1.9125 0.66941,-4.25 z m -8.55397,-17.20406 c -0.59948,-3.13598 -1.36284,-3.20734 -3.16583,-0.29594 -0.76636,1.2375 -2.08635,3.3159 -2.9333,4.61866 l -1.53992,2.36867 4.06287,-2.07273 c 3.46198,-1.76617 3.99089,-2.44926 3.57618,-4.61866 z m -11.20769,-1.63159 c 1.34858,-2.51984 1.38102,-2.48824 -3.29584,-3.20994 -4.32988,-0.66815 -4.5726,-0.20893 -1.57569,2.98114 2.67791,2.8505 3.44905,2.88672 4.87153,0.2288 z m -114.99587,9.8862 c -6.09808,-4.74188 -6.69831,-4.98413 -11,-4.43963 -18.91838,2.39469 -23.73038,2.71109 -26.3109,1.72997 -3.80191,-1.44548 -3.42018,-3.70097 1.01093,-5.97325 2.0625,-1.05765 4.78718,-3.03457 6.05485,-4.39316 l 2.30485,-2.47015 -4.56227,-2.67366 c -2.50924,-1.47052 -5.30336,-3.80473 -6.20915,-5.18715 -1.43915,-2.19641 -1.46387,-2.6965 -0.19597,-3.9644 1.2679,-1.2679 2.32805,-1.14287 8.40431,0.99118 3.82436,1.34315 7.34204,2.0619 7.81706,1.59722 0.47502,-0.46468 1.15002,-4.36619 1.5,-8.67001 0.535,-6.57916 0.93569,-7.88239 2.51649,-8.18471 2.17676,-0.41631 3.58264,1.37285 3.60452,4.5872 0.019,2.78915 1.65794,2.95133 2.51565,0.24894 0.74731,-2.35456 3.6595,-4.14905 5.1593,-3.17916 0.57853,0.37412 1.34588,2.25522 1.70522,4.18022 1.19581,6.40609 5.32975,14 7.62125,14 3.35214,0 9.01389,2.76904 9.01389,4.4085 0,0.83081 -1.19841,2.62179 -2.66313,3.97995 l -2.66313,2.4694 2.06946,6.31184 c 1.43496,4.37664 1.78079,6.85123 1.12794,8.07108 -0.51783,0.96758 -1.26317,1.71786 -1.65632,1.66729 -0.39315,-0.0506 -3.61734,-2.34895 -7.16485,-5.10751 z m -21.61473,-8.69577 c 1.02494,-1.65838 -2.5782,-2.11805 -4.739,-0.60457 -2.0962,1.46823 -2.07469,1.49979 1.02224,1.49979 1.73992,0 3.41246,-0.40285 3.71676,-0.89522 z m 17.0567,-3.28306 c 4.36346,-1.98813 2.75361,-4.27764 -3.25131,-4.62398 -4.15535,-0.23966 -5.24063,0.0126 -5.24063,1.21806 0,0.83618 1.2375,2.19168 2.75,3.01223 3.37558,1.83128 2.68996,1.78427 5.74194,0.39369 z m -1.52738,-10.57172 c -0.0195,-0.4125 -0.66058,-1.875 -1.42465,-3.25 l -1.38922,-2.5 -1.07534,2.8151 c -1.42682,3.73519 -1.44626,3.6849 1.42465,3.6849 1.375,0 2.48405,-0.3375 2.46456,-0.75 z m 209.03544,-13.6365 c 0,-0.77604 1.32086,-1.58036 3,-1.82681 3.38431,-0.49671 3.6037,-0.24754 1.57143,1.78474 -1.82346,1.82345 -4.57143,1.84874 -4.57143,0.0421 z m -77.24245,-33.3635 c -0.85383,-0.9625 -2.94313,-4.83773 -4.64289,-8.61163 -2.56001,-5.68388 -3.39291,-6.73033 -4.85256,-6.09664 -5.10401,2.21585 -12.84732,4.57674 -16.77795,5.1155 -3.69335,0.50623 -4.56084,0.30649 -5.13187,-1.18159 -0.47016,-1.22522 0.0763,-2.45372 1.73026,-3.88977 1.3296,-1.15444 3.21533,-3.33353 4.19051,-4.84242 0.97518,-1.5089 2.32944,-2.74345 3.00946,-2.74345 2.07672,0 3.89123,-3.80684 2.7928,-5.85928 -1.33524,-2.49492 -8.64318,-8.98671 -11.66799,-10.3649 -3.16233,-1.44086 -2.71687,-4.10247 0.79801,-4.76811 l 2.68091,-0.50771 -4.4156,-6.5 c -6.56019,-9.65696 -6.05627,-10.9023 3.26904,-8.07882 3.33684,1.01032 8.76672,3.50331 12.06641,5.53999 3.29968,2.03668 7.73068,3.91111 9.84666,4.1654 l 3.84725,0.46234 5.70381,-9.04446 c 5.14914,-8.1649 6.00005,-9.04445 8.75,-9.04445 3.35333,0 3.90025,1.57071 1.85095,5.31574 -1.49284,2.7281 -3.86401,16.96214 -2.96689,17.81008 1.15771,1.09424 16.57522,5.87418 18.94692,5.87418 2.12899,0 4.11036,2.43819 2.93584,3.61271 -0.28955,0.28954 -3.15764,1.205 -6.37354,2.03434 -3.2159,0.82935 -8.47642,2.67826 -11.69004,4.1087 l -5.84295,2.6008 0.6847,5.57173 c 0.37659,3.06444 1.38981,6.36105 2.25161,7.32578 1.26147,1.41213 1.34523,2.24061 0.42969,4.25 -1.44848,3.17908 -2.97043,3.1776 -4.1801,-0.004 -0.52277,-1.375 -1.52414,-2.50614 -2.22525,-2.51365 -0.70111,-0.008 -2.32665,-0.2953 -3.6123,-0.63953 l -2.33755,-0.62587 2.65569,5.24075 c 3.38404,6.67807 2.26042,10.77873 -1.72304,6.2883 z m 5.76456,-18 c -0.38527,-2.0625 -0.84681,-3.89896 -1.02565,-4.08102 -0.78253,-0.79661 -4.29319,1.94572 -4.75588,3.71502 -0.64661,2.47268 0.97863,4.116 4.07071,4.116 2.24424,0 2.36276,-0.25979 1.71082,-3.75 z m -20.81747,0.86467 c 0.66256,-0.35388 0.87221,-1.18131 0.46589,-1.83875 -0.52721,-0.85303 -1.58808,-0.47677 -3.70464,1.31396 -2.89094,2.44588 -2.90272,2.49234 -0.46589,1.83874 1.375,-0.3688 3.04209,-0.96008 3.70464,-1.31395 z m 12.67607,-8.49539 c 0.33592,-1.33841 0.91817,-3.23458 1.2939,-4.2137 0.51547,-1.34331 -0.21977,-1.09155 -2.99574,1.02579 -3.3897,2.58544 -4.60046,5.3137 -3.04739,6.86678 1.13168,1.13167 4.12353,-1.18589 4.74923,-3.67887 z m 7.04598,-6.11928 0.58233,-4 -1.42843,3.5 c -1.67975,4.11577 -2.00902,6.84135 -0.65841,5.45 0.50721,-0.5225 1.18423,-2.75 1.50451,-4.95 z m 15.42194,-3.08037 c 0.19175,-0.15596 -2.03103,-0.99025 -4.93951,-1.85398 -5.99746,-1.78105 -6.86798,-1.25965 -6.89381,4.12903 l -0.0153,3.19467 5.75,-2.59308 c 3.1625,-1.42619 5.90689,-2.72068 6.09863,-2.87664 z m -42.04217,-1.4016 c -1.89161,-2.27807 -4.16227,-3.96453 -5.30646,-3.9412 -1.95247,0.0398 -1.95451,0.0691 -0.086,1.23198 1.05273,0.65515 3.30273,2.4155 5,3.91188 4.19558,3.69897 4.27089,3.46817 0.39242,-1.20266 z m 22.19354,1.42295 c 0,-0.85746 -0.45,-1.2809 -1,-0.94098 -0.55,0.33992 -1,1.04148 -1,1.55902 0,0.51754 0.45,0.94098 1,0.94098 0.55,0 1,-0.70156 1,-1.55902 z m -18.12307,-3.81175 c -0.65888,-1.44608 -1.80073,-2.62923 -2.53745,-2.62923 -1.89802,0 -1.66726,1.02219 0.83113,3.68161 2.65988,2.83131 3.29685,2.43845 1.70632,-1.05238 z m 10.26673,-3.02877 c 1.00541,-1.75733 0.80685,-1.85411 -2.65235,-1.29276 -4.82909,0.78365 -5.00816,1.0303 -3.4605,4.76668 l 1.30001,3.1385 1.86304,-2.35644 c 1.02467,-1.29604 2.35208,-3.21123 2.9498,-4.25598 z m 3.68624,-0.10389 c -0.30744,-0.30744 -1.34919,0.69256 -2.315,2.22222 l -1.75601,2.78121 2.315,-2.22222 c 1.27325,-1.22222 2.06346,-2.47377 1.75601,-2.78121 z m -16.84464,-4.24657 c -0.0294,-3.48564 -2.53182,-6.57986 -6.39795,-7.91089 -2.15198,-0.74089 -4.04328,-1.21647 -4.2029,-1.05686 -0.15961,0.15962 1.34506,2.6364 3.3437,5.50398 3.63427,5.2143 7.28658,6.95751 7.25715,3.46377 z m 6.01474,-0.25 c 0,-0.55 -0.45,-1 -1,-1 -0.55,0 -1,0.45 -1,1 0,0.55 0.45,1 1,1 0.55,0 1,-0.45 1,-1 z m 18.38183,-5.06923 c 0.99717,-1.68808 1.59328,-3.28899 1.32469,-3.55758 -0.4899,-0.48991 -4.70652,4.91348 -4.70652,6.03118 0,1.56636 1.75262,0.28442 3.38183,-2.4736 z m -162.19117,44.04778 c -2.80886,-3.38268 -3.60596,-3.82666 -5.27067,-2.93573 -2.15876,1.15534 -3.91999,0.52521 -3.91999,-1.40247 0,-0.68289 -0.54691,-2.40052 -1.21536,-3.81694 -1.08468,-2.29843 -1.64915,-2.51844 -5.25,-2.04624 -2.21905,0.291 -6.44994,1.35411 -9.40197,2.36247 -8.88793,3.03594 -9.43085,0.67338 -2.1412,-9.3176 l 4.99147,-6.84115 -3.59009,-4.99715 c -1.97455,-2.74843 -4.4284,-7.2034 -5.453,-9.89992 -1.63963,-4.31517 -1.68484,-5.05057 -0.37721,-6.1358 0.81713,-0.67816 1.81232,-0.94588 2.21153,-0.59494 0.3992,0.35095 3.72678,3.65212 7.3946,7.33594 l 6.66877,6.69786 6.63827,-5.94344 c 9.01801,-8.07408 11.26726,-9.40594 12.57049,-7.44344 0.54785,0.825 0.74116,2.9625 0.42958,4.75 -0.31158,1.7875 -0.37397,3.25 -0.13865,3.25 0.23532,0 2.33357,-2.925 4.66277,-6.5 4.08057,-6.2631 6.5117,-7.93605 7.56058,-5.20271 0.2738,0.7135 -0.92468,4.426 -2.66328,8.25 -3.40848,7.4968 -6.8973,17.06145 -6.8973,18.90904 0,0.62877 3.61832,2.90736 8.04071,5.06352 6.5152,3.17652 7.98556,4.30542 7.75,5.95022 -0.23727,1.65681 -1.02594,2.02662 -4.29071,2.01191 -2.2,-0.01 -6.19668,-0.34692 -8.88152,-0.7489 l -4.88152,-0.73087 0.55412,3.74889 c 0.30477,2.0619 0.8702,5.2114 1.25652,6.9989 0.59736,2.764 0.42202,3.2473 -1.1726,3.23197 -1.03125,-0.01 -3.3642,-1.81145 -5.18434,-4.00342 z m -15.24622,-15.64787 c 0.24445,-0.21243 -0.48356,-1.31425 -1.6178,-2.44848 l -2.06225,-2.06225 -2.15857,3.03143 -2.15857,3.03144 3.77638,-0.58295 c 2.077,-0.32062 3.97637,-0.75676 4.22081,-0.96919 z m 4.50181,-6.79513 c -3.57534,-2.70402 -4.12696,-1.60518 -1.13293,2.25683 0.69279,0.89364 1.32237,0.97193 2.04055,0.25375 0.71818,-0.71818 0.43815,-1.49278 -0.90762,-2.51058 z m 12.93531,-1.08749 c 0.34149,-0.88992 0.17385,-1.29132 -0.39301,-0.94098 -0.5437,0.33602 -0.98855,1.0344 -0.98855,1.55194 0,1.43843 0.71677,1.12146 1.38156,-0.61096 z m -4.47249,-7.8197 c 0.64954,-2.6794 1.02016,-5.03247 0.82359,-5.22903 -0.19657,-0.19657 -2.29439,1.61626 -4.66183,4.0285 l -4.30443,4.3859 2.8668,1.51805 c 3.4431,1.82322 3.76275,1.53825 5.27587,-4.70342 z m -135.44381,-7.8583 c -0.29078,-0.75777 0.61058,-3.95386 2.00302,-7.10242 1.39245,-3.14857 2.53172,-5.97639 2.53172,-6.28405 0,-0.30766 -1.72289,-0.26831 -3.82863,0.0875 -2.64917,0.44757 -4.17187,0.23327 -4.9428,-0.69564 -1.42212,-1.71355 -0.62396,-2.83688 4.02143,-5.65976 2.0625,-1.25332 3.75,-2.75128 3.75,-3.32879 0,-1.04088 -6.44531,-7.62846 -10.843,-11.08235 -1.25737,-0.98752 -2.13941,-2.55736 -1.96008,-3.48852 0.57116,-2.96578 3.74895,-2.49762 7.78261,1.14655 4.31395,3.8974 9.88719,7.10407 10.78558,6.20569 0.31858,-0.31859 0.0488,-4.06427 -0.59954,-8.32374 -1.70347,-11.19158 -1.60027,-12.44801 0.99082,-12.06404 1.43835,0.21315 3.22571,2.25445 5.36777,6.13041 l 3.21138,5.81086 3.25552,-4.11044 c 3.518,-4.44184 5.79474,-4.83445 7.12586,-1.22884 0.69225,1.87509 0.42683,2.44053 -1.48717,3.16823 -1.28139,0.48718 -3.24629,2.33329 -4.36645,4.10246 -2.01478,3.18212 -2.01611,3.2515 -0.12418,6.45809 1.46706,2.48647 2.81267,3.38536 5.77753,3.85946 2.12578,0.33993 4.10882,1.2533 4.40676,2.02973 0.57931,1.50961 -2.21004,4.59955 -4.15215,4.59955 -0.64419,0 -1.17126,0.45 -1.17126,1 0,0.55 -1.125,1 -2.5,1 -2.92428,0 -2.98609,0.37083 -1,6 2.15597,6.11067 1.96158,8 -0.82309,8 -1.46894,0 -4.21968,-1.90655 -7.48133,-5.18534 -2.83702,-2.85194 -5.33534,-4.98944 -5.55181,-4.75 -0.21646,0.23944 -1.76807,3.58534 -3.448,7.43534 -2.92696,6.70787 -5.60511,9.20281 -6.73051,6.27006 z m 15.52638,-19.74373 c 1.12751,-0.71284 1.20981,-1.22488 0.33713,-2.09756 -1.36893,-1.36893 -3.32877,-0.40911 -3.32877,1.63025 0,1.6637 0.88149,1.80139 2.99164,0.46731 z M 257.0802,477.01421 c -0.61445,-1.60124 3.3731,-10.97593 6.59069,-15.49462 1.11778,-1.56978 2.01526,-3.23467 1.99439,-3.69977 -0.0209,-0.4651 -2.52166,-2.57054 -5.55732,-4.67876 -7.61171,-5.28623 -7.13912,-7.27901 1.62457,-6.85041 l 6.47069,0.31647 0.0773,-8.31647 c 0.16203,-17.42475 6.92083,-21.51924 10.81877,-6.55404 0.81713,3.13716 1.89885,6.4422 2.40382,7.34454 1.00075,1.78824 1.08886,1.60824 5.68156,-11.60696 1.67453,-4.81837 2.78367,-6.57923 4.28716,-6.80624 1.73642,-0.26218 2.11103,0.38522 2.60385,4.5 4.7129,39.34973 4.96317,42.27414 3.83054,44.75998 -1.5198,3.33559 -2.91411,3.22049 -11.13429,-0.91912 -5.57457,-2.80731 -6.98811,-3.18711 -7.44365,-2 -0.90603,2.36108 -3.532,1.68447 -4.22821,-1.08946 -0.6169,-2.45791 -0.90534,-2.26821 -7.60254,5 -6.89956,7.48781 -9.33585,8.91321 -10.41736,6.09486 z m 35.79375,-19.53076 c -0.67926,-5.55231 -2.10185,-7.01797 -4.99917,-5.15051 -1.04359,0.67264 -0.64336,1.96965 1.86659,6.04882 1.75726,2.85592 3.33189,5.05572 3.49916,4.88845 0.16728,-0.16728 0.002,-2.77132 -0.36658,-5.78676 z m -1.65827,-12.39994 c 0.007,-0.0601 -0.22979,-2.35932 -0.52588,-5.10932 l -0.53834,-5 -1.60503,3.5871 c -0.88277,1.97291 -1.91953,4.578 -2.30391,5.78908 -0.63614,2.0043 -0.44484,2.14095 2.13091,1.52222 1.55638,-0.37386 2.8354,-0.72895 2.84225,-0.78908 z m 266.48754,12.39068 c 0,-0.55 0.45,-1 1,-1 0.55,0 1,0.45 1,1 0,0.55 -0.45,1 -1,1 -0.55,0 -1,-0.45 -1,-1 z m 29.17974,-26.75 c -0.5846,-1.5125 -1.85602,-5.36811 -2.82539,-8.56803 l -1.76248,-5.81802 -8.01544,0.31802 c -6.90301,0.27389 -8.0633,0.0817 -8.36024,-1.38512 -0.24803,-1.22519 1.35702,-2.56221 5.71951,-4.76439 3.33536,-1.68369 6.06526,-3.39227 6.06643,-3.79686 0.001,-0.40458 -2.27472,-6.00829 -5.05753,-12.45268 -6.14856,-14.23876 -7.02955,-18.3038 -4.16394,-19.2133 2.31006,-0.73319 10.55826,2.66905 19.20531,7.92186 3.17661,1.92969 6.10536,3.50852 6.50834,3.50852 0.40298,0 0.5333,-1.35854 0.2896,-3.01898 -0.27898,-1.90078 0.10364,-3.47274 1.03302,-4.24405 1.21025,-1.00442 1.83266,-0.74751 3.45569,1.42636 l 1.97958,2.65142 2.90271,-5.80884 c 3.70815,-7.42066 5.37245,-8.90712 7.54278,-6.73679 1.46309,1.46309 1.2532,2.2875 -2.49763,9.81052 l -4.09494,8.21321 5.97962,6.60358 c 10.39892,11.484 9.30406,14.72642 -6.40409,18.96566 -5.8329,1.57415 -6.12608,1.80614 -6.88228,5.44577 -0.43442,2.09087 -1.74719,6.02696 -2.91726,8.74686 -2.53376,5.88989 -5.90225,6.85007 -7.70137,2.19528 z m 5.18997,-9.5 c 1.19697,-4.46648 0.75573,-5.75 -1.9767,-5.75 -1.97405,0 -2.45859,0.38673 -1.99573,1.5929 0.33619,0.8761 0.88311,2.6761 1.21539,4 0.75843,3.02182 1.97082,3.0909 2.75704,0.1571 z m 2.13029,-11.75 c 0.33992,-0.55 0.13034,-1 -0.46573,-1 -0.59608,0 -1.53793,-1.19453 -2.09302,-2.65452 l -1.00924,-2.65452 -2.93045,2.80755 c -1.61174,1.54414 -2.69489,3.18868 -2.40699,3.65451 0.73438,1.18825 8.15529,1.06074 8.90543,-0.15302 z m 10.49843,-0.70599 c 0.56777,-0.52119 -2.9589,-3.29401 -4.18956,-3.29401 -0.44488,0 -0.80887,1.15532 -0.80887,2.56739 0,2.20073 0.32133,2.46861 2.25,1.87577 1.2375,-0.38039 2.47429,-0.89751 2.74843,-1.14915 z m 8.00157,-3.24601 c 0,-0.40591 -0.9763,-1.59527 -2.16957,-2.64301 -2.04958,-1.79964 -2.13253,-1.80369 -1.5,-0.0732 0.36827,1.00748 0.66957,2.45586 0.66957,3.21861 0,0.8219 0.61104,1.15235 1.5,0.81123 0.825,-0.31659 1.5,-0.90772 1.5,-1.31363 z m -25.81168,-9.93762 c -0.84349,-2.41965 -0.76994,-3.3859 0.34239,-4.49823 1.22218,-1.22218 1.1114,-1.61643 -0.80704,-2.87216 -4.59504,-3.00774 -12.72367,-6.7385 -12.72367,-5.83974 0,0.9223 1.26032,3.94866 6.46161,15.51608 l 2.66028,5.91632 2.57034,-2.57034 c 2.28046,-2.28045 2.44919,-2.91788 1.49609,-5.65193 z M 336.70322,406.589 c 0,-1.03685 0.61868,-3.35659 1.37484,-5.15497 1.21549,-2.89081 1.1704,-3.6285 -0.38908,-6.36481 -2.67969,-4.70189 -4.30618,-13.16298 -4.34347,-22.59503 -0.0606,-15.33679 4.81104,-17.41851 12.13191,-5.18408 l 1.98419,3.31592 1.06879,-3.06592 c 1.15234,-3.30563 3.19922,-3.94397 5.14166,-1.60347 1.05107,1.26646 1.60555,1.17276 4.13752,-0.69921 2.57997,-1.90745 3.09765,-1.9878 4.40223,-0.68322 1.15586,1.15585 1.26345,2.22804 0.49311,4.91404 -0.78619,2.7413 -0.68383,3.60432 0.50649,4.27046 2.21277,1.23833 1.81503,3.78868 -1.05865,6.78815 l -2.55046,2.66211 2.52621,5.39261 c 1.38942,2.96593 3.05874,6.11894 3.70961,7.00669 1.2403,1.6917 0.58958,4.88592 -0.99536,4.88592 -0.50778,0 -3.17552,-2.025 -5.92832,-4.5 -2.75279,-2.475 -5.3005,-4.5 -5.66158,-4.5 -1.99769,0 -7.99097,6.17703 -10.17792,10.48997 -3.2401,6.38989 -6.37172,8.66294 -6.37172,4.62484 z m 6.41209,-21.97257 c 0.4134,-0.66889 -0.38658,-2.51165 -1.84042,-4.23944 l -2.57167,-3.05625 0,2.6339 c 0,1.44865 0.53796,4.74568 1.19548,7.32673 1.18512,4.65218 1.20106,4.66609 1.84042,1.60553 0.35472,-1.69801 0.97401,-3.61972 1.37619,-4.27047 z m -2.62858,-16.11728 c -0.83578,-1.3383 -1.5612,-1.64727 -2.25011,-0.95836 -0.68891,0.68891 -0.53578,1.32071 0.47496,1.95973 2.39977,1.51718 3.10098,1.12162 1.77515,-1.00137 z m 110.25024,32.6686 c -4.87191,-1.67758 -6.78578,-5.42405 -5.40793,-10.58619 1.20303,-4.50716 0.54335,-5.24469 -3.92676,-4.39017 -1.9423,0.37129 -2.8589,0.0298 -3.3491,-1.24761 -0.92979,-2.42298 2.1398,-4.46959 6.70367,-4.46959 2.57373,0 4.79998,-0.89691 7.44637,-3 2.07626,-1.65 4.22039,-3 4.76473,-3 0.58341,0 0.79493,-2.02727 0.51524,-4.93812 -0.58445,-6.08244 0.35909,-8.05738 3.05239,-6.38904 1.52386,0.94394 2.21996,0.84635 3.56668,-0.5 1.47006,-1.46967 1.78849,-1.49066 2.62181,-0.17284 0.52169,0.825 0.95542,2.71094 0.96384,4.19098 0.0171,2.99965 1.27149,4.12362 4.77328,4.27692 2.77761,0.12159 4.45109,2.27283 3.8163,4.90581 -0.24845,1.03054 0.91769,4.30019 2.59142,7.26588 3.82128,6.77094 3.34174,9.83262 -1.88188,12.01519 -2.01886,0.84353 -4.90283,1.27142 -6.46441,0.9591 -1.58848,-0.3177 -2.8194,-0.1274 -2.8194,0.43587 0,0.54986 -1.0125,1.45794 -2.25,2.01794 -1.2375,0.56 -3.375,1.66723 -4.75,2.46051 -2.98801,1.72386 -5.32741,1.76268 -9.96625,0.16536 z m 8.46625,-6.19356 c 0,-1.31662 -1.27406,-2.62262 -3.7287,-3.82218 -4.2516,-2.07772 -5.7713,-1.59544 -5.7713,1.83151 0,2.92795 2.50671,4.56136 6.5,4.23549 2.25173,-0.18376 3,-0.74367 3,-2.24482 z m 16.98534,-4.47629 c 0.33186,-0.53696 -0.0555,-2.22446 -0.86085,-3.75 l -1.46424,-2.77371 -1.11015,2.89408 c -0.61058,1.59174 -1.3482,3.27924 -1.63914,3.75 -0.29095,0.47075 0.59601,0.85592 1.97101,0.85592 1.375,0 2.77152,-0.43933 3.10337,-0.97629 z m -17.48534,-5.99149 c 0,-2.63704 -0.245,-2.87714 -2.1985,-2.15449 -3.05254,1.1292 -3.27066,2.59259 -0.5797,3.88919 1.25301,0.60375 2.3907,1.12818 2.5282,1.1654 0.1375,0.0372 0.25,-1.26782 0.25,-2.9001 z m 11.10375,-6.32847 c -1.48763,-1.48763 -1.76708,-0.91356 -2.33471,4.79625 l -0.49708,5 1.9511,-4.36292 c 1.3863,-3.09995 1.64124,-4.67278 0.88069,-5.43333 z m -267.49572,-8.28282 c -0.39395,-1.02662 0.76306,-4.24923 2.96169,-8.24915 1.98452,-3.61039 2.91795,-5.99147 2.07429,-5.2913 -0.84366,0.70018 -2.57119,1.126 -3.83897,0.94628 -1.98256,-0.28105 -2.26656,-0.83095 -2.02998,-3.93069 0.23984,-3.14254 -0.17643,-3.91068 -3.25151,-6 -5.93417,-4.03188 -5.91681,-7.89607 0.0355,-7.89607 3.01535,0 3.44098,-0.31321 3.44098,-2.53212 0,-4.24475 2.67623,-9.46788 4.85115,-9.46788 1.27115,0 2.31839,-1.04758 2.99901,-3 1.38856,-3.98324 3.80203,-3.79723 5.82696,0.44911 1.15517,2.42241 2.41545,3.53867 4.23382,3.75 2.09663,0.24366 2.58156,0.82393 2.54964,3.05089 -0.0455,3.17189 0.20379,3.21479 7.45899,1.28391 2.98076,-0.79329 5.79326,-1.21139 6.25,-0.92911 1.498,0.92581 0.86874,4.24743 -0.91957,4.85404 -2.69595,0.91448 -7.25,5.27016 -7.25,6.93418 0,0.81892 -0.40391,1.73858 -0.89758,2.04368 -0.49367,0.30511 1.09214,4.99168 3.52403,10.41461 2.55401,5.69527 4.15508,10.55444 3.79059,11.50429 -1.249,3.25483 -3.76632,2.21886 -16.16538,-6.65259 -2.33659,-1.67182 -4.36159,-2.85142 -4.5,-2.62134 -0.13841,0.23008 -1.63549,3.11833 -3.32684,6.41833 -3.1812,6.20683 -6.5174,8.30708 -7.81679,4.92093 z m 23.39197,-10.79381 c 0,-0.20509 -0.93939,-2.49653 -2.08753,-5.09209 l -2.08753,-4.7192 -2.40853,2.26269 c -1.32469,1.24449 -2.20631,2.46491 -1.95917,2.71206 2.43002,2.43001 8.54276,5.89078 8.54276,4.83654 z m -75,-8.0681 c 0,-0.85746 0.45,-1.55902 1,-1.55902 0.55,0 1,0.42344 1,0.94098 0,0.51754 -0.45,1.2191 -1,1.55902 -0.55,0.33992 -1,-0.0835 -1,-0.94098 z M 440.2026,688.47419 c -1.26199,-5.22154 -1.3336,-5.30946 -1.41433,-1.73643 -0.0688,3.04543 1.71721,8.27467 2.54143,7.44095 0.11121,-0.11249 -0.39599,-2.67952 -1.1271,-5.70452 z m 519.51728,-10.50835 c 6.6071,-3.31359 10.98334,-6.10269 10.98334,-7 0,-1.70091 -1.56987,-1.99663 -2.51147,-0.47309 -0.34623,0.56021 -5.21029,3.70577 -10.80902,6.99013 -5.59873,3.28436 -9.83451,5.976 -9.41285,5.98143 0.42166,0.005 5.70916,-2.46888 11.75,-5.49847 z m -519.15302,-6.85529 c -1.23803,-4.72031 -2.43442,-8.39891 -2.65866,-8.17467 -0.7004,0.7004 1.96958,14.97072 3.05207,16.31248 1.94755,2.41402 1.85117,0.42028 -0.39341,-8.13781 z M 270.18489,648.65321 c -1.09423,-13.5284 -1.72302,-8.53096 -0.81649,6.48913 0.58822,9.74598 0.93152,12.05948 1.16217,7.83185 0.18004,-3.3 0.0245,-9.74444 -0.34568,-14.32098 z m 133.49274,4.25366 c -1.61561,-4.24937 -3.06955,-6.62721 -8.21194,-13.43024 -2.70132,-3.57366 -5.15034,-7.6918 -5.44227,-9.15142 -0.36085,-1.80425 -3.05512,-4.64223 -8.41587,-8.86473 -4.3368,-3.41598 -10.66927,-9.19784 -14.07214,-12.84858 -6.32968,-6.79073 -22.4802,-20.13771 -24.36765,-20.13771 -1.40662,0 4.65884,6.77638 25.41745,28.39657 9.56009,9.95689 21.48272,22.71593 26.49472,28.35343 5.01201,5.6375 9.21648,10.25 9.34327,10.25 0.12678,0 -0.20872,-1.15529 -0.74557,-2.56732 z m 590.88503,-6.93268 c 0,-2 0,-2 -0.8594,0 -0.4727,1.1 -0.8595,2.9 -0.8595,4 0,2 0,2 0.8595,0 0.4727,-1.1 0.8594,-2.9 0.8594,-4 z M 112.23964,615.67728 c -1.15733,-1.15733 -1.27084,0.68505 -0.66525,10.79691 l 0.62883,10.5 0.28642,-10.38025 c 0.15753,-5.70913 0.045,-10.62163 -0.25,-10.91666 z m 210.37597,-18.96779 0.0876,-18.2647 -3.20369,-1.94828 c -1.76203,-1.07155 -3.30194,-1.85003 -3.42202,-1.72995 -0.12008,0.12008 0.98408,11.46592 2.45369,25.21298 3.063,28.65195 3.93465,27.95409 4.08441,-3.27005 z M 91.449991,579.77854 c -0.1771,-5.94239 -0.32267,-1.35435 -0.32349,10.19565 -8.1e-4,11.55 0.14409,16.41196 0.322,10.80435 0.17792,-5.60761 0.17859,-15.05761 0.002,-21 z m 268.229539,10.65138 c -1.32811,-2.4816 -2.47678,-3.08465 -4.44032,-2.33117 -1.4582,0.55957 -1.39973,0.89158 0.51622,2.93101 2.55906,2.724 5.46522,2.27977 3.9241,-0.59984 z m -101.0466,-7.20573 c -0.0589,-2.72353 -0.2095,-2.92602 -0.92971,-1.25 -1.18717,2.7627 -1.18717,4.5 0,4.5 0.55,0 0.96837,-1.4625 0.92971,-3.25 z m 94.07029,1.76685 c 0,-0.26574 -2.3625,-1.63868 -5.25,-3.05098 l -5.25,-2.56782 3.5,3.02407 c 3.0229,2.61186 7,4.08607 7,2.59473 z m -12.5,-13.02403 c -2.2,-1.88765 -6.1375,-4.59884 -8.75,-6.02486 l -4.75,-2.59278 0,2.4474 c 0,2.87277 2.95277,5.067 10.37002,7.70605 7.23174,2.57304 7.66879,2.35859 3.12998,-1.53581 z m -17.5,-8.50752 c 0,-1.78374 -5.07486,-5.97072 -7.25,-5.98156 -2.04056,-0.0102 -0.32835,3.01522 3,5.30085 4.5933,3.1543 4.25,3.09931 4.25,0.68071 z M 103.42795,556.2421 c -0.22256,-1.79735 -0.40924,-0.56791 -0.41486,2.73209 -0.006,3.3 0.17649,4.77056 0.40466,3.26791 0.22817,-1.50265 0.23277,-4.20265 0.0102,-6 z m 225.25521,1.70792 c -0.69572,-0.83829 -1.52528,-1.26382 -1.84348,-0.94562 -0.3182,0.31819 0.0834,0.99718 0.8925,1.50885 2.11697,1.33881 2.39358,1.17499 0.95098,-0.56323 z m 581.02006,-2.1143 c 0,-2.31108 -0.26996,-2.46611 -3.25,-1.86633 -5.35926,1.07863 -6.75,1.59564 -6.75,2.50932 0,0.47836 1.56703,0.61545 3.48228,0.30464 2.64606,-0.42939 3.63176,-0.17554 4.10478,1.05713 0.87637,2.28377 2.41294,1.00713 2.41294,-2.00476 z m 81.75164,-2.8669 c -0.9608,-11.96922 -7.41045,-20.79432 -19.75164,-27.0262 -1.925,-0.97206 -7.99655,-4.68257 -13.49233,-8.24557 -5.97598,-3.87431 -11.45292,-6.67409 -13.62614,-6.96558 -3.50109,-0.46959 -14.4207,2.46149 -22.88153,6.14194 -3.41539,1.48569 -3.2341,1.52364 7.5,1.56984 16.98717,0.0731 28.10469,1.62249 34.44937,4.80098 5.51901,2.76485 8.1357,5.47822 6.6835,6.93042 -0.43802,0.43802 -1.36899,0.0133 -2.06883,-0.94377 -2.01369,-2.75388 -9.8016,-5.71305 -17.75288,-6.74555 -9.0938,-1.18087 -43.59892,-1.16239 -39.31116,0.0211 1.65,0.45541 11.03369,1.27059 20.85264,1.81151 24.54369,1.3521 28.7782,2.93991 43.59617,16.34718 6.58163,5.95505 11.64291,11.44842 13.12915,14.25 1.33028,2.50752 2.59348,4.55912 2.80728,4.55912 0.2137,0 0.1536,-2.92742 -0.1336,-6.50537 z m -882.02317,-7.24463 c -0.21575,-2.0625 -0.39226,-0.375 -0.39226,3.75 0,4.125 0.17651,5.8125 0.39226,3.75 0.21574,-2.0625 0.21574,-5.4375 0,-7.5 z m 200.27153,9.84039 c 0,-0.50029 -3.4875,-2.81888 -7.75,-5.15243 -4.2625,-2.33355 -8.875,-4.93178 -10.25,-5.77384 -1.82126,-1.11535 -2.161,-1.15579 -1.25138,-0.14895 1.36279,1.50844 17.28592,11.74406 18.50138,11.89295 0.4125,0.0505 0.75,-0.31745 0.75,-0.81773 z m 12.82332,-1.74541 c -0.17782,-0.91027 -2.26788,-2.48043 -4.64458,-3.48926 -4.05841,-1.72266 -4.30153,-1.72844 -3.99706,-0.095 0.17831,0.95659 1.89787,2.52606 3.82126,3.48771 4.35107,2.17543 5.22995,2.19303 4.82038,0.0965 z m 488.1615,-8.0636 c 0.008,-0.12023 -0.61548,0.0234 -1.38628,0.31918 -1.74291,0.66882 -2.59348,3.70279 -1.84282,6.57331 0.46681,1.78509 0.80504,1.38269 1.8912,-2.25 0.7275,-2.43313 1.32955,-4.52225 1.3379,-4.64249 z m 100.3424,2.21862 c -0.43397,-2.51168 -3.14776,-2.78632 -5.92738,-0.59987 l -2.8433,2.23653 4.47173,-0.31833 c 2.45945,-0.17508 4.39398,-0.76833 4.29895,-1.31833 z M 318.70322,547.0892 c 0,-0.21174 -1.125,-1.12212 -2.5,-2.02305 -1.3858,-0.90801 -2.5,-1.16775 -2.5,-0.58279 0,0.5804 1.0125,1.46225 2.25,1.95967 2.79302,1.12265 2.75,1.11255 2.75,0.64617 z m 584,-4.64599 c 0,-0.44053 -1.78668,-2.21604 -3.9704,-3.94558 l -3.97041,-3.14462 1.45958,4.81059 c 0.80277,2.64583 1.46445,5.15846 1.47041,5.58364 0.006,0.42518 1.13582,0.0359 2.51082,-0.86501 1.375,-0.90093 2.5,-1.99849 2.5,-2.43902 z m -627,0.54783 c 0,-0.75505 -9.78082,-5.52271 -11.21676,-5.46761 -0.70578,0.0271 1.41676,1.33846 4.71676,2.91418 7.08807,3.38448 6.5,3.15347 6.5,2.55343 z m 32.8384,-2.93579 c -3.07012,-2.38062 -20.03429,-12.71851 -20.351,-12.4018 -0.2393,0.23931 2.24576,3.08799 5.52237,6.33041 6.31534,6.24944 14.18003,10.33658 14.82863,7.70617 0.18612,-0.75481 0.18612,-1.49046 0,-1.63478 z m 490.00999,-0.4662 c 0.74162,-0.46998 1.1898,-1.67803 0.99596,-2.68454 -0.30212,-1.56883 -0.60493,-1.44467 -2.12144,0.86982 -1.78202,2.71971 -1.3646,3.39276 1.12548,1.81472 z m 115.22757,-4.67331 c 3.25822,-2.50714 5.92404,-4.92417 5.92404,-5.37118 0,-0.447 -4.6125,-1.11277 -10.25,-1.4795 -5.6375,-0.36672 -11.6,-0.89821 -13.25,-1.18108 -2.78903,-0.47815 -2.52466,-0.0535 3.75913,6.03795 3.71752,3.60374 7.0142,6.55226 7.32595,6.55226 0.31176,0 3.23265,-2.0513 6.49088,-4.55845 z m -96.86514,-2.76724 c 0.82589,-1.6031 0.69428,-1.69389 -1.07943,-0.74463 -2.83739,1.51853 -3.6255,3.14615 -2.00951,4.15008 0.8653,0.53756 1.52143,0.40292 1.76325,-0.36181 0.21182,-0.66987 0.80838,-2.03951 1.32569,-3.04364 z m -572.21082,2.41005 c -0.825,-0.47015 -3.075,-1.12753 -5,-1.46083 l -3.5,-0.60601 3.5,1.41516 c 4.06421,1.64329 7.53347,2.09546 5,0.65168 z M 91.449101,504.22419 c -0.17824,-5.6375 -0.32408,-1.025 -0.32408,10.25 0,11.275 0.14584,15.8875 0.32408,10.25 0.17825,-5.6375 0.17825,-14.8625 0,-20.5 z m 161.190979,27.26365 c 1.90008,-0.0106 1.01897,-0.86167 -4,-3.86342 -3.54027,-2.11738 -7.89936,-4.13113 -9.68686,-4.475 -3.15747,-0.60743 -3.25,-0.52739 -3.25,2.81123 0,3.20486 0.28642,3.51007 4.25,4.52886 2.3375,0.60083 4.7,1.26817 5.25,1.48298 0.55,0.21481 1.9,0.19671 3,-0.0402 1.1,-0.23692 3.09659,-0.43692 4.43686,-0.44443 z m 565.45376,-8.15122 c 6.32599,-5.09096 8.47345,-7.35379 7.48924,-7.89163 -3.43788,-1.8787 -27.87986,-4.91241 -27.87986,-3.46041 0,0.37456 0.74807,1.94741 1.66238,3.49521 l 1.66237,2.81417 2.74256,-2.02765 c 1.5084,-1.11522 3.23534,-1.72311 3.83762,-1.35087 1.55998,0.96411 1.35362,5.15809 -0.42282,8.59334 -1.24311,2.40391 -1.29008,3.30004 -0.25945,4.95034 0.69214,1.10829 1.49253,2.01507 1.77865,2.01507 0.28611,0 4.51131,-3.21191 9.38931,-7.13757 z M 102.82182,510.19278 c -0.82479,-0.82479 -1.09145,0.18155 -1.01524,3.83141 l 0.10335,4.95 1.01524,-3.83141 c 0.72277,-2.72768 0.693,-4.15364 -0.10335,-4.95 z m 30.1314,-10.38087 c -0.6875,-0.27741 -1.8125,-0.27741 -2.5,0 -0.6875,0.27741 -0.125,0.50439 1.25,0.50439 1.375,0 1.9375,-0.22698 1.25,-0.50439 z M 91.438261,472.72419 c -0.206,-2.6125 -0.37454,-0.475 -0.37454,4.75 0,5.225 0.16854,7.3625 0.37454,4.75 0.206,-2.6125 0.206,-6.8875 0,-9.5 z m 29.798459,-7.75 c 4.09844,-28.39848 5.48992,-44.72275 3.95175,-46.36055 -1.0601,-1.12878 -1.37659,-0.87325 -1.85783,1.5 -2.41809,11.92476 -6.92783,68.6101 -5.0806,63.86055 0.21392,-0.55 1.55792,-9.1 2.98668,-19 z m -15.4272,3.79412 c 1.77523,-8.38789 4.59212,-55.92904 3.38539,-57.13577 -0.27043,-0.27042 -0.49169,0.39035 -0.49169,1.46839 0,1.07804 -0.86736,10.49054 -1.92748,20.91667 -1.0601,10.42612 -2.20901,23.68159 -2.55313,29.45659 -0.34411,5.775 -0.86332,11.62408 -1.15381,12.99795 -0.29048,1.37387 -0.21142,2.18123 0.17569,1.79412 0.38711,-0.38711 1.54137,-4.66119 2.56503,-9.49795 z m -1.72121,-64.79412 c 0.76758,-9.35 1.22954,-17.1779 1.02659,-17.39534 -0.20296,-0.21743 -1.49922,2.03257 -2.88058,5 -2.482269,5.33241 -2.510289,5.68693 -2.402419,30.39534 l 0.10915,25 1.375829,-13 c 0.75671,-7.15 2.00386,-20.65 2.77143,-30 z m 49.76215,27.76419 c -1.59084,-5.81161 -4.14724,-10.41261 -4.14724,-7.46419 0,0.66 -0.85252,1.2 -1.8945,1.2 -1.7554,0 -1.80346,0.30832 -0.65465,4.1991 0.86641,2.93434 2.26532,4.85726 4.6445,6.38422 1.87256,1.20182 3.48334,2.12104 3.57951,2.04271 0.0962,-0.0783 -0.59125,-2.94116 -1.52762,-6.36184 z m -1.19877,-20.51419 -0.0515,-5.25 -1.56045,3.76261 c -1.24784,3.00883 -1.31316,4.06058 -0.32603,5.25 1.84784,2.2265 1.99401,1.94272 1.93801,-3.76261 z m -14.28619,1 c -0.27741,-0.6875 -0.50439,-0.125 -0.50439,1.25 0,1.375 0.22698,1.9375 0.50439,1.25 0.27741,-0.6875 0.27741,-1.8125 0,-2.5 z m -9.9364,-8.33263 c 0.67658,-5.45455 2.14764,-14.7236 3.26903,-20.59787 1.41643,-7.41978 1.83812,-12.38877 1.38126,-16.27594 -0.36169,-3.07749 -0.87655,-5.37651 -1.14412,-5.10895 -0.59982,0.59983 -7.14201,45.97559 -7.19429,49.89872 -0.0244,1.83118 0.40362,2.68621 1.21012,2.41738 0.76548,-0.25516 1.7234,-4.2497 2.478,-10.33334 z m -22.22375,-37.41737 c 0.75685,-14.63072 -0.14159,-16.29279 -2.97309,-5.5 -1.48126,5.6461 -3.500099,20.97696 -3.489649,26.5 0.004,2.09091 0.475969,1.68183 2.884559,-2.5 2.64189,-4.58691 2.93752,-6.11535 3.57818,-18.5 z m 21.99909,-30.5 c 0.7273,-12.28392 -0.0943,-12.61411 -3.55461,-1.4286 -1.58723,5.13072 -1.80422,7.17291 -0.98976,9.3151 0.57373,1.50903 1.09929,7.5519 1.16791,13.4286 l 0.12476,10.6849 1.30021,-10.5 c 0.71511,-5.775 1.59328,-15.45 1.95149,-21.5 z m -11.07388,5.25 c 1.76212,-7.0125 3.06644,-12.75 2.89848,-12.75 -0.16797,0 -1.91985,2.43155 -3.89308,5.40345 -3.52795,5.31347 -3.59409,5.60073 -3.97209,17.25 -0.32513,10.02003 -0.21886,11.15273 0.68921,7.34655 0.59048,-2.475 2.51535,-10.2375 4.27748,-17.25 z m 26.31167,-28.5 c 0.32339,-5.39136 0.1695,-9.25 -0.36891,-9.25 -0.50805,0 -4.0496,3.15 -7.8701,7 -4.45753,4.49195 -6.34156,7 -5.25836,7 2.90122,0 3.9897,3.85836 3.88953,13.78737 l -0.0958,9.49477 4.5744,-9.39107 c 4.14543,-8.51042 4.62643,-10.25849 5.12923,-18.64107 z m 228.26099,2.9011 5.5,-0.6511 -11,-3.35059 c -6.05,-1.84282 -14.37653,-4.43032 -18.50341,-5.75 -4.12687,-1.31968 -8.40187,-2.41372 -9.5,-2.43121 -1.09812,-0.0175 -2.8701,-0.6925 -3.93772,-1.5 -1.06762,-0.80751 -2.95356,-1.4682 -4.19098,-1.4682 -1.23742,0 -2.52797,-0.45 -2.86789,-1 -0.93407,-1.51136 -2.5,-1.19817 -2.5,0.5 0,1.99244 -12.07794,2.03492 -20.5,0.0721 -6.96335,-1.62286 -17.5,-3.02163 -17.5,-2.32317 0,0.26365 2.1375,1.27261 4.75,2.24214 2.6125,0.96953 7.675,3.01953 11.25,4.55555 13.6475,5.86372 30.69355,10.13995 43.5,10.91256 15.69286,0.94674 18.91887,0.97102 25.5,0.19193 z m 89.86012,-3.3506 c 5.69807,-1.44141 10.70574,-2.99869 11.12815,-3.46062 0.42242,-0.46194 0.99259,-2.97738 1.26704,-5.58988 0.37913,-3.60882 0.16815,-4.75 -0.87815,-4.75 -0.8074,0 -1.37716,1.04885 -1.37716,2.53518 0,3.49988 -2.52526,7.02554 -6.08949,8.50189 -3.7048,1.53458 -10.68328,0.85804 -25.16343,-2.4395 -10.50607,-2.39253 -11.44255,-2.43538 -40.79333,-1.86649 -19.54134,0.37876 -29.69919,0.92348 -29.06408,1.55859 0.53698,0.53698 4.26143,2.60397 8.27657,4.59333 l 7.30024,3.617 32.51676,-0.0394 c 31.71624,-0.0384 32.77181,-0.10389 42.87688,-2.66012 z M 305.54802,310.9889 c -2.01036,-0.73941 -4.71036,-2.01084 -6,-2.82542 -1.28964,-0.81457 -3.4698,-1.79365 -4.8448,-2.17574 -3.74866,-1.04168 -15.01686,-5.50884 -19.05287,-7.55332 -3.3484,-1.69616 -13.40677,-2.59003 -19.94713,-1.77266 -2.3325,0.2915 -2.49433,0.0292 -2.41539,-3.9146 0.0788,-3.93773 -0.14509,-4.30284 -3.27155,-5.33467 -3.0853,-1.01824 -3.63972,-0.85867 -6.86941,1.97703 -6.34289,5.56913 -9.18982,3.50808 -5.93023,-4.29321 1.24338,-2.97583 1.27104,-3.62212 0.15499,-3.62212 -0.74714,0 -2.17886,0.90655 -3.1816,2.01457 -1.00273,1.10801 -3.75501,3.23675 -6.11616,4.73053 l -4.29301,2.71596 8.21118,2.25473 c 4.51615,1.24011 14.28618,3.85967 21.71118,5.82124 7.425,1.96158 18,4.89398 23.5,6.51644 16.47418,4.85977 37.97029,9.00146 28.3448,5.46124 z m 161.1552,-5.51471 c 1.1,-1.1 2,-2.7199 2,-3.59978 0,-1.37798 -1.07451,-1.52045 -7.75,-1.02763 -20.17275,1.48928 -22.85223,2.40511 -13.75,4.69963 9.87744,2.48993 16.96409,2.46369 19.5,-0.0722 z m -81.5,-4 c 0.76817,-1.24293 -16.10756,-1.24293 -19,0 -1.30012,0.55868 1.56625,0.88403 8.19098,0.92971 5.79537,0.04 10.45756,-0.36103 10.80902,-0.92971 z m 97,0 c 0.33992,-0.55 -0.0835,-1 -0.94098,-1 -0.85746,0 -1.55902,0.45 -1.55902,1 0,0.55 0.42344,1 0.94098,1 0.51754,0 1.2191,-0.45 1.55902,-1 z m -138.25,-2.66228 c -0.6875,-0.27741 -1.8125,-0.27741 -2.5,0 -0.6875,0.27741 -0.125,0.50439 1.25,0.50439 1.375,0 1.9375,-0.22698 1.25,-0.50439 z m 143.72197,-1.29924 c 1.26069,-0.79727 1.22448,-1.02586 -0.25223,-1.59253 -2.26012,-0.86729 -6.97261,0.33588 -6.20162,1.58337 0.75835,1.22703 4.51965,1.23238 6.45385,0.009 z m -168.26493,-1.04944 c -1.53614,-0.46148 -5.81114,-1.07498 -9.5,-1.36333 l -6.70704,-0.52428 6.5,1.3272 c 3.575,0.72996 7.85,1.34346 9.5,1.36333 l 3,0.0361 -2.79296,-0.83905 z m -17.93887,-2.18452 c -0.86323,-2.58969 -10.76817,-3.37047 -10.76817,-0.84883 0,0.84564 2.99035,1.48352 8.83333,1.88427 1.41596,0.0971 2.17666,-0.30998 1.93484,-1.03544 z M 259.70322,291.546 c 0,-0.73712 -2.30745,-2.07181 -3.58179,-2.07181 -0.23001,0 -0.41821,1.14083 -0.41821,2.53518 0,2.22531 0.24446,2.40436 2,1.46482 1.1,-0.5887 2,-1.45639 2,-1.92819 z m 89.5,2.03073 c 3.90368,-0.56388 2.69774,-0.7178 -5.5,-0.70197 -8.02289,0.0155 -11.25501,-0.38324 -13.70034,-1.69015 -2.29105,-1.22445 -5.4164,-1.68501 -11,-1.621 l -7.79966,0.0894 5,1.4517 c 10.96889,3.18468 22.22766,4.02807 33,2.47201 z m 111.5,-0.10254 c 1.33333,-0.86167 1.33333,-0.96327 0,-0.9144 -0.825,0.0302 -2.4,0.44171 -3.5,0.9144 -2,0.85943 -2,0.85943 0,0.9144 1.1,0.0302 2.675,-0.38124 3.5,-0.9144 z m -66.71041,-1.15498 c 1.95945,-1.04867 1.56219,-1.32582 -4.31574,-3.01089 -6.87148,-1.9699 -14.62522,-1.85551 -24.47385,0.36103 l -5,1.12531 3.5,1.26369 c 4.5421,1.63994 27.34579,1.83633 30.28959,0.26086 z m -172.61616,-5.27079 c 0.1698,-3.34544 0.11358,-3.39594 -2.69195,-2.41793 -1.57596,0.54938 -3.37806,1.61662 -4.00467,2.37164 -0.91261,1.09963 -0.47647,1.56368 2.19195,2.33223 1.83218,0.5277 3.55624,0.99802 3.83124,1.04516 0.275,0.0471 0.57804,-1.45186 0.67343,-3.3311 z m 54.24741,-4.79923 c -1.24293,-0.45979 -2.55657,-0.48475 -2.91919,-0.0555 -6.18731,7.32435 -5.81965,9.90409 0.65535,4.59832 4.34332,-3.55902 4.43359,-3.74018 2.26384,-4.54283 z m 68.82916,7.53567 c -0.9625,-0.25152 -2.5375,-0.25152 -3.5,0 -0.9625,0.25153 -0.175,0.45733 1.75,0.45733 1.925,0 2.7125,-0.2058 1.75,-0.45733 z M 243.6718,285.19281 c 0.0346,-0.86094 -2.8312,-2.18934 -3.43042,-1.59012 -0.20658,0.20657 -0.70385,1.68348 -1.10505,3.28201 l -0.72947,2.9064 2.61676,-1.90845 c 1.43921,-1.04965 2.63089,-2.26008 2.64818,-2.68984 z m 194.53142,3.28138 c 1.62082,-0.69649 1.33644,-0.85943 -1.5,-0.85943 -1.925,0 -4.4,0.38674 -5.5,0.85943 -1.62082,0.69649 -1.33644,0.85943 1.5,0.85943 1.925,0 4.4,-0.38674 5.5,-0.85943 z m 33,-1.0997 3,-2.08652 -3.50585,0.49062 c -1.92822,0.26984 -5.07822,1.17503 -7,2.01154 l -3.49415,1.52091 4,0.075 c 2.52962,0.0474 5.10279,-0.69201 7,-2.01154 z m 7,1.0997 c 0.33992,-0.55 0.16803,-1 -0.38197,-1 -0.55,0 -1.27811,0.45 -1.61803,1 -0.33992,0.55 -0.16803,1 0.38197,1 0.55,0 1.27811,-0.45 1.61803,-1 z m 19.23899,-1.25402 c 0.68144,-0.53493 1.02968,-1.31126 0.77387,-1.72518 -0.77669,-1.2567 -5.2835,0.0683 -7.11464,2.09166 -1.6665,1.84146 -1.61254,1.8815 1.69017,1.25415 1.87638,-0.35642 3.96916,-1.0857 4.6506,-1.62063 z m -218.32244,-0.38911 c 0.94492,-2.46242 0.12918,-2.61737 -1.911,-0.363 -1.53455,1.69566 -1.57596,2.00613 -0.26753,2.00613 0.8514,0 1.83174,-0.73941 2.17853,-1.64313 z m 143.80265,-0.31431 c 1.80975,-0.72665 1.04163,-0.961 -3.7192,-1.1347 -8.35576,-0.30486 -10.53878,-0.007 -12.92392,1.76327 -1.90856,1.41657 -1.41288,1.49032 6.14312,0.91406 4.52056,-0.34477 9.24556,-1.03895 10.5,-1.54263 z m -205.26099,-5.46564 c 4.27817,-4.3921 4.35588,-4.57693 1.92431,-4.57693 -2.81227,0 -5.78398,2.7902 -8.32621,7.81766 -1.60365,3.17135 -1.59779,3.27396 0.13303,2.32693 0.99586,-0.54489 3.81685,-3.05034 6.26887,-5.56766 z m 11.62831,3.25356 c 6.12035,-4.39531 5.96794,-5.96553 -0.36476,-3.75795 -2.0032,0.69833 -3.43275,2.09396 -4.0972,4.00001 -0.56129,1.6101 -0.77999,2.92746 -0.48602,2.92746 0.29398,0 2.52057,-1.42628 4.94798,-3.16952 z m 38.33278,0.28285 2.05549,-2.88667 -2.2374,-0.59967 c -4.46909,-1.19783 -7.64367,-0.67063 -8.78323,1.45865 -1.2803,2.39228 -1.23152,2.4814 2.08246,3.80427 3.83929,1.53255 4.6811,1.31526 6.88268,-1.77658 z m 28.55529,1.92778 c 0.36274,-0.58693 6.33786,-0.72305 15.4034,-0.35092 14.48484,0.59459 14.82294,0.56144 15.36368,-1.50632 0.64389,-2.46226 0.15592,-2.67132 -9.74167,-4.17361 -3.85,-0.58437 -10.71399,-2.22914 -15.25331,-3.65505 -7.50765,-2.35833 -9.13148,-2.52671 -17.9732,-1.86383 l -9.71988,0.72873 2.33398,1.88994 c 1.66491,1.34816 3.95053,1.89433 7.97319,1.90525 3.10157,0.008 6.25937,0.40811 7.01734,0.8882 2.34857,1.48756 0.20469,3.09448 -4.18714,3.13841 l -4.19098,0.0419 3.5,1.91618 c 3.7762,2.06738 8.51828,2.58846 9.47459,1.04111 z m 104.96777,0.0521 c 0.30822,-0.49871 -0.34022,-0.67122 -1.44098,-0.38337 -2.33499,0.61061 -2.63015,1.29011 -0.5604,1.29011 0.79254,0 1.69316,-0.40803 2.00138,-0.90674 z m -191.15571,-4.49047 2.45764,-4.39719 -6.25247,-0.66958 c -4.04871,-0.43358 -10.08362,-0.0878 -17.12215,0.98097 -19.30667,2.93169 -19.15281,2.84744 -8.86967,4.85747 8.08322,1.58003 19.30694,3.13845 25.16451,3.49411 1.58272,0.0961 2.82507,-1.05046 4.62214,-4.26578 z m 124.92034,3.13813 c -2.40412,-0.77016 -3.60531,-0.7426 -4.45,0.10209 -0.87599,0.87599 -0.0762,1.1322 3.29301,1.0549 l 4.45,-0.10209 -3.29301,-1.0549 z m 30.29301,0.1689 6,-0.10756 -4.5,-1.45763 c -2.67732,-0.86722 -7.03149,-1.31428 -10.75,-1.10373 -3.4375,0.19463 -6.25,-0.005 -6.25,-0.44351 0,-0.43857 -2.3625,-0.76191 -5.25,-0.71853 l -5.25,0.0789 5,2.46787 c 4.0208,1.98456 5.9792,2.3625 10,1.92982 2.75,-0.29592 7.7,-0.58644 11,-0.6456 z m -108.51531,-4.22937 c 0.0233,-1.24608 -4.27311,-0.34738 -4.7117,0.98556 -0.21102,0.64131 0.42873,1.33659 1.42167,1.54506 1.73377,0.36403 3.25785,-0.80827 3.29003,-2.53062 z m -7.98469,-0.0734 c 0,-0.21617 -0.69837,-0.66101 -1.55194,-0.98856 -0.88992,-0.34149 -1.29132,-0.17385 -0.94098,0.39301 0.58726,0.95021 2.49292,1.40545 2.49292,0.59555 z m 214,-0.60699 c 1.10525,-0.71428 0.44734,-0.96938 -2.5,-0.96938 -2.2,0 -4.675,0.43622 -5.5,0.96938 -1.10525,0.71426 -0.44734,0.96936 2.5,0.96936 2.2,0 4.675,-0.43621 5.5,-0.96936 z m 7.72917,-0.60417 c -0.33229,-0.33229 -1.1948,-0.36782 -1.91667,-0.0789 -0.79773,0.31922 -0.56078,0.55619 0.60417,0.60416 1.05416,0.0434 1.64479,-0.19292 1.3125,-0.52522 z m -132.30402,-1.29064 c 2.60052,-1.01885 -10.32361,-3.14692 -18.11778,-2.98325 l -5.80737,0.12194 5.69508,0.83524 c 3.1323,0.45938 7.1823,1.26391 9,1.78786 4.0345,1.16293 6.69453,1.23159 9.23007,0.23821 z m 74.57485,-0.60519 c 1.58776,-1.91314 -0.0321,-1.91314 -5,0 l -3.5,1.34784 3.62756,0.0761 c 2.08622,0.0438 4.1565,-0.56127 4.87244,-1.42392 z m -141.55887,-0.96821 c -2.14462,-1.62211 -9.44113,-2.07975 -9.44113,-0.59217 0,0.82589 2.1855,1.26393 9.44113,1.89228 1.92151,0.16639 1.92151,0.15326 0,-1.30011 z M 170.20322,276.4742 c 0.33992,-0.55 0.14148,-1 -0.44098,-1 -0.58246,0 -1.05902,0.45 -1.05902,1 0,0.54999 0.19844,1 0.44098,1 0.24254,0 0.7191,-0.45001 1.05902,-1 z m 86.76266,-3 c 4.77214,-4.20061 6.30186,-4.80644 6.98227,-2.76522 0.27351,0.82054 3.23688,1.3213 8.83333,1.49264 l 8.42174,0.25786 -6.5,-2.62837 c -4.77947,-1.93265 -9.39907,-2.85091 -17.45239,-3.46905 -10.51814,-0.80735 -11.11437,-0.74577 -15.03744,1.5533 -2.24677,1.3167 -5.19319,3.31611 -6.5476,4.44314 l -2.46257,2.04915 2.67327,0.0333 c 1.49225,0.0186 4.10859,-1.17446 5.9221,-2.70043 1.91166,-1.60856 3.40325,-2.27043 3.62402,-1.60812 0.27289,0.81866 1.31647,0.8367 3.82705,0.0662 4.3924,-1.34806 5.39578,-0.35621 2.62417,2.59403 -1.19384,1.27078 -2.17061,2.84401 -2.17061,3.49606 0,2.23682 2.72285,1.18165 7.26266,-2.81445 z m 2.27846,2.93347 c 1.07627,-1.74144 -0.14952,-2.11025 -1.52106,-0.45765 -0.78875,0.9504 -0.86462,1.52418 -0.20152,1.52418 0.58488,0 1.36004,-0.47994 1.72258,-1.06653 z m -13.04112,-0.93347 c 0.33992,-0.55 -0.0835,-1 -0.94098,-1 -0.85746,0 -1.55902,0.45 -1.55902,1 0,0.54999 0.42344,1 0.94098,1 0.51754,0 1.2191,-0.45001 1.55902,-1 z m -32.25,-0.66228 c -0.6875,-0.27742 -1.8125,-0.27742 -2.5,0 -0.6875,0.27741 -0.125,0.50439 1.25,0.50439 1.375,0 1.9375,-0.22698 1.25,-0.50439 z m -27.75,-1.33772 c 1.26064,-0.54172 1.44548,-0.85944 0.5,-0.85944 -0.825,0 -2.4,0.38675 -3.5,0.85944 -1.26064,0.54172 -1.44548,0.85942 -0.5,0.85942 0.825,0 2.4,-0.38673 3.5,-0.85942 z m 22.5,-1.23005 c 0,-0.61536 -1.27682,-0.76459 -3.21875,-0.37621 -4.79102,0.95821 -5.32393,2.21086 -0.75519,1.77516 2.18567,-0.20844 3.97394,-0.83796 3.97394,-1.39895 z m -29.43131,-2.26995 c 3.62858,-1.925 6.10016,-3.5 5.49241,-3.5 -1.52154,0 -14.0611,5.7407 -14.0611,6.43727 0,1.19362 2.21018,0.43598 8.56869,-2.93727 z m 160.29163,2.02697 c -1.39989,-1.39988 -35.1729,-6.67421 -41.33046,-6.45457 -2.38611,0.0851 10.91206,3.52538 20.97014,5.42503 6.72171,1.2695 21.33945,2.00867 20.36032,1.02954 z m -39.86032,-2.11129 c -3.025,-0.74974 -7.75,-1.60075 -10.5,-1.89116 -4.6932,-0.49559 -4.60677,-0.43771 1.4087,0.94331 3.52478,0.80921 6.89978,1.67446 7.5,1.92279 0.60021,0.24832 2.4413,0.43724 4.0913,0.41985 2.17294,-0.0229 1.48372,-0.40744 -2.5,-1.39479 z m -124,-2.69954 c 0.825,-0.30703 -0.4125,-0.59377 -2.75,-0.6372 -3.62728,-0.0674 -4.25,0.21787 -4.25,1.94673 0,1.87977 0.19809,1.92568 2.75,0.63722 1.5125,-0.76367 3.425,-1.6397 4.25,-1.94675 z m 59.5,2.28386 c 0.33992,-0.55 -0.057,-1 -0.88197,-1 -0.825,0 -1.77811,0.45 -2.11803,1 -0.33992,0.54999 0.057,1 0.88197,1 0.825,0 1.77811,-0.45001 2.11803,-1 z m -36.5,-4 c 1.90795,-0.61104 1.13829,-0.82425 -3.25,-0.90033 -3.23312,-0.0561 -5.75,0.33805 -5.75,0.90033 0,1.16287 5.36891,1.16287 9,0 z m 8.72917,0.39583 c -0.3323,-0.33229 -1.1948,-0.36782 -1.91667,-0.0789 -0.79773,0.31922 -0.56078,0.55619 0.60417,0.60417 1.05416,0.0434 1.64479,-0.19293 1.3125,-0.52523 z m 88,-1 c -0.33229,-0.33229 -1.1948,-0.36782 -1.91667,-0.0789 -0.79773,0.31922 -0.56078,0.55619 0.60417,0.60417 1.05416,0.0434 1.64479,-0.19293 1.3125,-0.52523 z m -84.47917,563.00235 c -2.13215,-0.96347 -1.44055,-4.31849 1,-4.85109 1.2375,-0.27005 8.55,-0.61612 16.25,-0.76905 13.56082,-0.26932 14.0094,-0.2122 14.29975,1.82086 0.28128,1.96957 -0.29744,2.14088 -9.39175,2.78015 -5.33032,0.37469 -12.21521,0.88436 -15.29975,1.13261 -3.08454,0.24825 -6.17075,0.19718 -6.85825,-0.11348 z M 1000.5915,625.02913 c -0.2755,-0.27551 0.1094,-4.45059 0.8554,-9.27794 0.7461,-4.82829 1.1715,-12.93851 0.9456,-18.027 -0.4759,-10.72138 0.8052,-12.41589 1.8901,-2.5 1.1016,10.0694 -1.6012,31.89478 -3.6911,29.80494 z M 243.36989,551.80752 c -0.36667,-0.36666 -0.66667,-1.73079 -0.66667,-3.03138 0,-2.86925 2.62418,-4.10635 4.57416,-2.15637 1.22543,1.22543 1.20711,1.72169 -0.13425,3.63675 -1.6025,2.28789 -2.61866,2.70559 -3.77324,1.551 z M 867.95322,409.82103 c -7.8375,-1.94456 -14.25,-3.99559 -14.25,-4.55784 0,-0.56224 0.7875,-0.81746 1.75,-0.56714 0.9625,0.25032 7.9375,1.97343 15.5,3.82914 7.5625,1.85571 13.75,3.72839 13.75,4.16151 0,1.18846 -1.32045,0.96255 -16.75,-2.86567 z M 680.06597,394.97711 c -0.34557,-0.90055 -0.16636,-2.09931 0.39825,-2.66392 1.6301,-1.6301 4.739,-0.53146 4.739,1.6747 0,2.54367 -4.22832,3.35787 -5.13725,0.98922 z m -30.69608,-4.16959 c -1.28901,-1.28901 -0.74263,-20.0254 0.61687,-21.15368 2.47957,-2.05787 3.50626,0.41051 4.23533,10.18263 0.58879,7.8918 0.46061,10.03659 -0.64153,10.73469 -1.65771,1.04999 -3.3046,1.14244 -4.21067,0.23636 z M 540.85772,224.03653 c 0.19002,-0.91738 0.7955,-1.64422 1.3455,-1.61517 1.48429,0.0784 1.2116,2.31563 -0.3455,2.83466 -0.84112,0.28037 -1.21599,-0.17677 -1,-1.21949 z"
     style="fill:#000000"
     inkscape:connector-curvature="0" />
</svg>
