<?xml version="1.0" encoding="UTF-8" standalone="no"?>
<svg
   xmlns:dc="http://purl.org/dc/elements/1.1/"
   xmlns:cc="http://creativecommons.org/ns#"
   xmlns:rdf="http://www.w3.org/1999/02/22-rdf-syntax-ns#"
   xmlns:svg="http://www.w3.org/2000/svg"
   xmlns="http://www.w3.org/2000/svg"
   viewBox="0 0 364.22891 402.84738"
   height="402.84738"
   width="364.22891"
   version="1.1"
   id="svg4497">
  <metadata
     id="metadata4503">
    <rdf:RDF>
      <cc:Work
         rdf:about="">
        <dc:format>image/svg+xml</dc:format>
        <dc:type
           rdf:resource="http://purl.org/dc/dcmitype/StillImage" />
        <dc:title></dc:title>
      </cc:Work>
    </rdf:RDF>
  </metadata>
  <defs
     id="defs4501" />
  <path
     id="path4507"
     d="M 9.1187235,401.32391 C 8.7712485,400.32076 7.7601095,397.7 6.8717475,395.5 c -1.364203,-3.3784 -1.615205,-8.73968 -1.615205,-34.5 0,-16.775 0.403235,-37.53649 0.896077,-46.13664 0.883263,-15.41303 0.865388,-15.65306 -1.25,-16.78518 -3.688332,-1.97394 -2.682111,-4.66818 2.260227,-6.05195 7.1744235,-2.00871 14.5029735,0.0774 15.1926215,4.32465 0.102624,0.63202 1.312974,3.11376 2.689668,5.51499 2.246778,3.91883 2.572313,4.14773 3.179239,2.23548 0.371888,-1.17172 1.074108,-1.88445 1.560489,-1.58385 0.486382,0.3006 0.64554,1.16883 0.353685,1.92939 -0.291854,0.76056 0.858142,5.42762 2.555546,10.37124 1.697405,4.94362 3.766287,13.64443 4.597515,19.33513 1.679456,11.4978 3.328781,16.84618 4.529475,14.68806 0.41044,-0.73773 1.461101,-8.57119 2.334803,-17.40769 0.873701,-8.83651 2.542651,-19.63651 3.708777,-24 1.166127,-4.3635 2.488067,-10.35535 2.937657,-13.31523 0.44958,-2.95988 1.1857,-5.71517 1.63582,-6.12285 0.45012,-0.40769 3.98022,-0.98884 7.84467,-1.29146 5.62677,-0.44062 7.46718,-0.21697 9.2399,1.12285 2.0814,1.57312 2.15181,2.03146 1.17873,7.67306 -0.56919,3.3 -0.99858,14.79741 -0.95419,25.54979 0.10038,24.31587 -1.74335,59.94723 -3.19228,61.69309 -0.67084,0.80831 -0.84437,3.54346 -0.45884,7.232 0.63552,6.08035 -0.19934,8.10397 -2.2994,5.57355 -0.65253,-0.78625 -1.76733,-1.20663 -2.47734,-0.93417 -1.98048,0.75998 -2.56285,-4.1614 -2.56285,-21.65747 0,-16.59792 0.94892,-23.11434 2.17801,-14.95679 0.3729,2.475 0.4656,-3.6 0.20599,-13.5 -0.46362,-17.68009 -0.34221,-19.22974 3.56491,-45.5 0.4499,-3.025 0.6373,-5.69565 0.41643,-5.93478 -0.22086,-0.23913 -2.29813,-0.46413 -4.61615,-0.5 -3.24944,-0.0503 -4.29259,0.33553 -4.55521,1.68478 -0.20915,1.07452 0.27183,1.75 1.24612,1.75 1.44189,0 1.44549,0.33806 0.0394,3.70325 -3.3744,8.07607 -10.697246,53.70702 -10.364676,64.58555 0.232348,7.60023 -0.753022,9.5104 -4.007495,7.76866 -1.748447,-0.93576 -2.107329,-2.05848 -2.107329,-6.59264 0,-3.03455 -0.451907,-5.46482 -1.016179,-5.46482 -1.922077,0 -4.464007,-7.78171 -7.513054,-23 C 29.80408,324.90527 25.082704,311.03969 20.735077,303.25 16.88831,296.35771 16.512374,296 13.115614,296 c -3.046845,0 -3.4529725,0.25772 -2.757705,1.75 0.44844,0.9625 0.872222,8.5 0.941737,16.75 0.06952,8.25 0.712322,21.4077 1.428459,29.23934 0.716137,7.83164 1.07338,18.61142 0.793872,23.95507 -0.279508,5.34366 -0.16381,10.91654 0.257106,12.38418 0.420915,1.46765 0.475536,7.1079 0.12138,12.53389 -0.541921,8.30272 -0.921607,9.9185 -2.396945,10.20039 -1.009339,0.19285 -2.0210395,-0.43881 -2.3847945,-1.48896 z M 61.463802,371.76166 c -0.23919,-1.24391 -0.44398,-0.46166 -0.45508,1.73834 -0.0111,2.2 0.18461,3.21775 0.4349,2.26166 0.25029,-0.95609 0.25937,-2.75609 0.0202,-4 z m 192.899728,14.65655 c -0.33385,-0.86998 -0.60699,-2.63545 -0.60699,-3.92327 0,-1.28782 -1.0635,-3.61352 -2.36334,-5.16821 -7.65223,-9.15261 -12.63561,-29.27956 -10.66569,-43.07673 1.07605,-7.53663 6.0715,-23.37038 9.54367,-30.25 2.47171,-4.89735 12.91325,-15.46389 16.65507,-16.85445 1.28166,-0.4763 5.14279,-1.17624 8.58029,-1.55543 6.69574,-0.7386 6.30463,-1.00706 6.64806,4.56334 0.0561,0.9094 2.33883,3.1594 5.0728,5 9.22815,6.21268 13.19959,15.82356 14.19281,34.34654 0.63507,11.84363 -1.13315,24.11193 -4.61212,32 -2.87988,6.5297 -10.55124,14.94137 -16.81541,18.43813 -3.15488,1.7611 -7.53614,4.28807 -9.73614,5.61549 -4.91058,2.9629 -14.8797,3.50523 -15.89301,0.86459 z m 6.39301,-3.85919 c 0,-0.24254 -0.45,-0.7191 -1,-1.05902 -0.55,-0.33992 -1,-0.14148 -1,0.44098 0,0.58246 0.45,1.05902 1,1.05902 0.55,0 1,-0.19844 1,-0.44098 z m 12.21609,-5.71808 c 7.4674,-2.72275 14.89049,-9.30215 18.20777,-16.13833 6.77521,-13.96218 6.90364,-40.50767 0.25814,-53.35224 C 289.65203,303.89738 282.13165,297 280.15327,297 c -0.68381,0 -2.61367,-1.15311 -4.28859,-2.56246 l -3.04531,-2.56246 -6.9599,4.06481 c -6.09341,3.55874 -7.28685,4.75591 -9.586,9.61591 -4.24777,8.97904 -6.52005,19.6048 -6.49113,30.35416 0.0254,9.45603 1.41466,27.21728 2.50996,32.09004 0.59988,2.66874 10.63548,11 13.25029,11 0.82974,0 4.17325,-0.97158 7.43004,-2.15906 z m 6.78391,-87.39996 c 0,-0.85746 -0.45734,-1.27636 -1.01631,-0.9309 -0.55897,0.34546 -0.75742,1.04702 -0.44098,1.55902 0.85723,1.38704 1.45729,1.12841 1.45729,-0.62812 z m 30.83438,95.99231 c -4.85151,-2.09101 -9.37315,-8.74922 -8.95286,-13.18329 0.20521,-2.16506 2.42099,-1.36636 9.04621,3.26079 7.96524,5.56302 11.83874,5.8898 17.88636,1.50893 5.55657,-4.02517 6.83311,-6.95023 7.64585,-17.51972 l 0.69206,-9 -4.03357,-6.21809 c -2.34393,-3.61337 -6.55195,-8.1738 -10.04554,-10.88681 -4.36998,-3.3936 -6.41283,-5.79211 -7.47966,-8.78191 -0.80724,-2.26225 -2.43061,-6.81023 -3.6075,-10.10661 -2.95081,-8.26496 -2.13054,-13.30929 3.08419,-18.96661 3.75203,-4.07047 4.28128,-4.30015 12.67282,-5.49966 12.22208,-1.74705 13.73132,-1.42003 13.86176,3.00356 0.0575,1.94913 0.61998,4.50705 1.25,5.68426 1.66724,3.11527 1.4459,10.77767 -0.3545,12.27187 -2.21836,1.84107 -4.5,-0.46644 -4.5,-4.55102 0,-1.81837 -0.675,-3.98112 -1.5,-4.80612 -0.825,-0.825 -1.5,-2.18059 -1.5,-3.01241 0,-2.26843 -1.92274,-3.03321 -6.95924,-2.76807 -2.99704,0.15778 -5.0893,0.88211 -6.15426,2.13056 -2.12552,2.49172 -3.13943,10.62097 -2.28482,18.31896 0.72902,6.56678 0.91917,6.82998 12.48058,17.27615 3.76789,3.40442 9.45819,12.38967 11.37226,17.95732 1.60102,4.65706 -0.60614,18.3995 -3.67541,22.88415 -6.37831,9.31965 -20.44482,14.66724 -28.94473,11.00377 z M 91.003092,383.06364 c -3.30662,-2.3953 -4.24148,-3.82333 -5.0736,-7.75 -1.27314,-6.00782 -0.21883,-11.98 2.84695,-16.12669 3.88197,-5.25064 13.644478,-12.23947 21.808588,-15.61242 7.31895,-3.02378 7.65664,-3.30513 7.34801,-6.12198 C 117.39122,332.50751 111.67368,321 109.75854,321 c -3.38751,0 -13.768878,8.87854 -20.774778,17.76737 -4.54182,5.7625 -8.04684,4.32036 -5.11874,-2.10612 1.19883,-2.63115 22.262448,-21.84177 25.150198,-22.93771 2.94641,-1.11819 6.74132,0.92287 6.74132,3.62576 0,1.31933 1.10213,4.37072 2.44918,6.78086 5.01703,8.97643 5.71146,14.31085 4.96244,38.11984 l -0.68425,21.75 -2.36368,0 c -2.20828,0 -2.36369,-0.37452 -2.36369,-5.69617 l 0,-5.69616 -3.25,3.10482 C 111.0539,379.01091 98.786302,386 96.449402,386 c -0.76603,0 -3.21687,-1.32136 -5.44631,-2.93636 z m 14.553108,-7.47832 c 1.48519,-0.77808 4.25112,-3.02808 6.14651,-5 1.89539,-1.97193 3.97401,-3.58532 4.61915,-3.58532 0.64515,0 1.45192,-1.6875 1.79283,-3.75 0.71191,-4.30701 0.86123,-17.25 0.19901,-17.25 -1.05943,0 -8.42301,4.68964 -12.47963,7.9479 -6.709118,5.38873 -10.077528,11.32095 -10.077528,17.74788 l 0,5.30422 3.54966,0 c 1.952308,0 4.764808,-0.63661 6.249998,-1.41468 z m 38.11029,5.21182 c -3.60444,-1.80116 -6.50106,-4.03954 -7.34875,-5.67879 -1.88453,-3.64429 -3.86972,-21.45753 -3.3869,-30.39085 0.70923,-13.12222 9.84404,-27.27767 20.1404,-31.20989 4.02824,-1.53839 5.27281,-1.61304 9.08739,-0.54502 2.43095,0.68062 5.35698,2.31522 6.50229,3.63245 1.14532,1.31723 2.55684,2.39496 3.13672,2.39496 1.7768,0 0.76111,12.42777 -1.0411,12.7387 -2.70902,0.46738 -3.97587,-1.27432 -4.57724,-6.29296 -0.90632,-7.56347 -1.14501,-8.00708 -3.27235,-6.08186 -2.42852,2.19778 -3.49507,2.06211 -2.86066,-0.36388 0.39137,-1.49661 0.0307,-2 -1.43303,-2 -5.46313,0 -13.34175,7.61822 -17.9479,17.35468 -2.28443,4.82883 -2.90741,7.54341 -2.90803,12.67155 -0.001,9.46341 1.88525,23.12446 3.54487,25.67156 2.335,3.58362 7.64791,5.54867 13.44818,4.97399 5.38276,-0.53333 7.56974,-1.72139 8.48666,-4.61033 1.343,-4.23142 10.74107,-4.50195 11.33626,-0.32632 0.69501,4.87593 -7.8849,9.37841 -20.13701,10.5673 -3.93427,0.38176 -5.91381,-0.0787 -10.7698,-2.50529 z m 30.82447,-70.48495 c -0.75969,-1.54671 -1.21756,-3.52264 -1.01749,-4.39096 C 174.10905,303.16276 171.93851,299 169.86462,299 c -1.06778,0 -2.11797,0.52967 -2.33376,1.17705 -0.57728,1.73183 -2.77432,0.0144 -2.77432,-2.16868 0,-2.49221 1.63931,-2.86293 13.93535,-3.15144 11.56987,-0.27147 14.06665,0.99835 7.40273,3.76492 -4.62161,1.91869 -5.68335,3.48823 -6.33808,9.36947 -0.61072,5.48591 -3.15928,6.60922 -5.26558,2.32087 z m 12.15847,-1.67827 c -3.58467,-1.78715 -3.06799,-4.13392 0.91016,-4.13392 3.72998,0 5.40523,-2.2017 6.84803,-9 0.64738,-3.05036 1.32374,-4 2.84892,-4 1.61353,0 1.94959,0.57971 1.73914,3 l -0.26087,3 2.29843,-2.75 c 4.05105,-4.84695 5.17187,-3.7462 6.29517,6.18248 0.79356,7.01409 -0.61138,8.14955 -3.24645,2.62375 -1.60851,-3.37309 -1.70034,-3.41371 -4.4744,-1.97919 -1.5577,0.80552 -3.51773,2.51086 -4.35563,3.78964 -2.24219,3.42202 -5.67608,4.72622 -8.6025,3.26724 z M 10.465391,272.37552 c -0.389867,-0.38987 -0.7088485,-1.53385 -0.7088485,-2.54219 0,-1.09016 -0.72053,-1.83333 -1.777494,-1.83333 -4.742768,0 -9.644218,-7.00686 -6.853569,-9.79751 1.268171,-1.26817 1.654828,-1.05721 3.066776,1.67319 1.735875,3.35681 4.942481,4.1871 5.9572975,1.54253 0.333844,-0.86998 0.609499,-3.23248 0.612566,-5.25 0.0079,-5.19389 1.887839,-11.37433 3.308536,-10.87703 0.82006,0.28705 1.098897,3.04156 0.903896,8.92918 l -0.281991,8.51408 16.281991,0.64813 c 45.936511,1.82857 56.347001,1.84135 87.532349,0.10748 19.38376,-1.07771 37.68923,-1.54998 46.99964,-1.21257 8.3875,0.30397 15.25,0.24102 15.25,-0.1399 0,-0.38091 -0.60927,-1.5802 -1.35394,-2.66507 -2.49051,-3.62834 -8.57968,-26.32615 -10.58935,-39.47251 -0.63058,-4.125 -1.33405,-8.4 -1.56326,-9.5 -0.39687,-1.90463 -1.30652,-2.00973 -19.07617,-2.20398 -17.75977,-0.19415 -19.14777,-0.35429 -28.78835,-3.32148 -26.221238,-8.07041 -34.594568,-12.14038 -44.984818,-21.86549 -5.03841,-4.71587 -8.84238,-10.72542 -8.45386,-13.3555 0.56374,-3.81628 2.65624,-2.95398 6.35689,2.6196 7.27254,10.95324 18.75655,17.86162 40.952858,24.63582 4.95,1.51071 10.23277,3.23878 11.73949,3.84014 3.00538,1.19952 36.60976,2.80645 39.05627,1.86764 1.21138,-0.46485 1.34919,-1.36175 0.67611,-4.4003 -1.45795,-6.58175 -3.37605,-41.20708 -3.0708,-55.43379 l 0.29218,-13.61734 -2.80498,-0.70401 c -1.54274,-0.3872 -7.57792,-0.59386 -13.41152,-0.45924 -5.83359,0.13463 -11.08327,-0.0499 -11.66594,-0.40998 -0.70419,-0.43521 -0.93737,-6.61263 -0.69546,-18.42342 0.3086,-15.06643 0.82056,-19.89777 3.36642,-31.76867 1.65136,-7.7 4.41148,-22.55 6.13359,-33 4.00309,-24.2912 4.48926,-26.16944 7.43729,-28.73273 1.34604,-1.17036 2.44735,-2.79316 2.44735,-3.6062 0,-2.50657 -43.84167,-0.48297 -116.795945,5.39093 -18.552302,1.49374 -23.204053,1.37339 -23.204053,-0.60033 0,-1.18903 2.24012,-1.61157 15.5,-2.92366 C 70.335442,9.86422 101.98562,7.75347 129.48032,7.2774 l 30.22377,-0.52333 1.9925,-3.37703 C 162.79247,1.51967 164.16839,0 164.7542,0 c 1.66234,0 2.26555,2.63967 1.10063,4.81635 -1.02355,1.91251 -0.54591,1.9987 15.673,2.82814 9.20079,0.47053 30.22871,0.82281 46.72871,0.78283 26.55432,-0.0643 34.42195,-0.49483 68.5,-3.74818 49.10985,-4.6884 60,-4.73179 60,-0.23907 0,2.16016 -2.91429,3.29514 -7.53627,2.93503 l -4.03628,-0.31447 -1.24498,9.71969 c -3.8885,30.35787 -3.75148,45.27474 0.78284,85.21968 3.31882,29.23711 5.05517,56.88515 5.71497,91 0.5631,29.11517 0.46126,32.63879 -0.97787,33.83262 -0.88354,0.73294 -2.41553,1.07632 -3.40442,0.76307 -1.66949,-0.52884 -1.77342,-2.05344 -1.45418,-21.33262 0.51831,-31.30141 -1.57105,-68.39793 -6.06945,-107.76307 -3.14562,-27.52703 -3.14561,-64.27725 2e-5,-80.42489 1.22409,-6.28369 2.22562,-11.56429 2.22562,-11.73467 0,-0.35557 0.0135,-0.3567 -46,3.85686 -37.83967,3.46507 -70.67688,4.17887 -112.08669,2.43648 l -20.58668,-0.86622 -2.09501,5.36622 c -1.15225,2.95142 -2.40582,6.49122 -2.7857,7.86622 -0.37988,1.375 -1.11852,3.03576 -1.64142,3.69056 -1.37707,1.72446 -3.7904,0.45379 -3.88884,-2.04755 -0.0464,-1.17865 -1.13697,4.91557 -2.42353,13.54271 -1.28656,8.62714 -3.48928,21.00214 -4.89493,27.5 -4.42315,20.44675 -5.5972,29.21335 -5.5972,41.79428 l 0,12.21802 13.13309,0.58408 c 7.22321,0.32125 13.57327,1.02426 14.11125,1.56224 0.54522,0.54522 1.07024,8.65246 1.1862,18.31691 0.29744,24.78988 2.4683,55.04132 4.15829,57.94671 0.19449,0.33437 5.42908,-0.16495 11.6324,-1.10961 9.24828,-1.40835 12.80901,-2.48448 19.77877,-5.97753 4.675,-2.34299 10.525,-5.70573 13,-7.47276 2.475,-1.76703 9.675,-6.07014 16,-9.56245 15.71246,-8.67556 24.72906,-14.52291 29.63511,-19.21866 4.2581,-4.07558 7.55975,-4.70921 8.16489,-1.56695 0.7253,3.7662 -12.39516,13.31909 -36.8,26.79377 -5.225,2.88488 -11.56194,6.74933 -14.08209,8.58765 -2.52016,1.83833 -8.88864,5.42444 -14.15219,7.96915 -8.04938,3.89155 -11.34165,4.87773 -20.71885,6.20625 l -11.14876,1.57951 0.68876,5.58183 c 1.90551,15.44249 8.71069,40.98982 12.44163,46.70714 2.44013,3.73928 2.70225,3.86401 7.5,3.56874 2.73432,-0.16828 12.3965,-1.37003 21.4715,-2.67056 9.075,-1.30053 23.025,-2.65673 31,-3.01377 7.975,-0.35704 19,-1.48324 24.5,-2.50267 7.79867,-1.44549 12.75166,-1.73237 22.5,-1.30322 6.875,0.30266 17.14651,0.0413 22.82557,-0.58072 8.90967,-0.97592 11.91128,-1.83446 21.88948,-6.26096 12.84,-5.69604 22.77424,-8.99535 24.77423,-8.22788 1.81537,0.69662 2.65658,4.48506 1.34642,6.0637 -0.59432,0.71612 -3.05661,1.30204 -5.47174,1.30204 -3.16111,0 -7.95084,1.57524 -17.09901,5.62351 -15.96701,7.06575 -26.47651,8.81713 -47.76495,7.9599 -10.54382,-0.42457 -15.60465,-0.19408 -20.5,0.93365 -3.575,0.82356 -14.6,1.91611 -24.5,2.42787 -9.9,0.51177 -25.875,2.08169 -35.5,3.4887 -15.69335,2.29411 -20.5455,2.55707 -47,2.54713 -16.225,-0.006 -42.775,0.74692 -59,1.67336 -28.034308,1.60076 -30.940838,1.59488 -58.499998,-0.11826 -15.95,-0.99149 -29.899192,-1.62416 -30.998205,-1.40593 -1.193049,0.23689 -1.998928,1.19727 -2,2.38342 -0.0018,1.99659 -3.355524,3.29959 -4.792946,1.86217 z M 4.3342235,245.12569 c -0.581041,-0.94014 -0.730478,-2.69387 -3.206138,-37.62569 -2.04996502,-28.92523 -1.38500302,-49.03561 2.645252,-80 6.078382,-46.70012 6.209781,-48.25469 6.2548225,-74 0.02406,-13.75 -0.039169,-26.31605 -0.1404985,-27.92456 -0.198152,-3.14543 1.7156535,-5.12907 3.3605215,-3.48315 0.639528,0.63994 0.983558,12.96958 0.940555,33.70836 -0.06605,31.85386 -0.16314,33.41041 -3.754896,60.19935 -5.6226305,41.93612 -6.3963575,57.32621 -4.3194345,85.91712 0.94222,12.97058 2.09822,27.85788 2.56889,33.08288 0.470669,5.225 0.653139,9.8375 0.405487,10.25 -0.621663,1.03547 -4.093885,0.94469 -4.754561,-0.12431 z M 86.128602,89.34804 c -1.21055,-2.89725 -1.42587,-5.4607 -0.90905,-10.82228 0.9314,-9.66253 2.22929,-11.43164 8.22027,-11.20483 4.15433,0.15727 4.80201,0.4834 5.32066,2.67907 0.4001,1.69383 -0.14173,3.58046 -1.68026,5.85058 -1.24894,1.84282 -2.52802,4.99282 -2.84242,7 -1.23016,7.85368 -1.99886,9.64234 -4.28546,9.9717 -1.7745,0.2556 -2.56567,-0.46326 -3.82374,-3.47424 z M 227.06268,88.06266 c -0.29982,-1.1465 -1.59789,-2.34877 -2.88461,-2.67171 -1.28672,-0.32295 -2.87894,-1.23716 -3.53825,-2.03159 -1.72368,-2.07691 -1.37606,-10.15737 0.52746,-12.26073 0.87409,-0.96586 1.59615,-3.29568 1.60457,-5.17737 0.0319,-7.12704 3.89985,-7.78398 6.88369,-1.16915 l 1.39901,3.10144 1.73638,-2.14434 c 1.53545,-1.8962 1.93641,-1.97833 3.465,-0.70971 2.47074,2.05052 1.72487,16.21427 -1.11041,21.08642 -2.43946,4.19196 -7.19915,5.35599 -8.08284,1.97674 z"
     style="fill:#000000" />
</svg>
