<?xml version="1.0" encoding="UTF-8" standalone="no"?>
<svg
   xmlns:dc="http://purl.org/dc/elements/1.1/"
   xmlns:cc="http://creativecommons.org/ns#"
   xmlns:rdf="http://www.w3.org/1999/02/22-rdf-syntax-ns#"
   xmlns:svg="http://www.w3.org/2000/svg"
   xmlns="http://www.w3.org/2000/svg"
   id="svg4603"
   version="1.1"
   width="762.63538"
   height="797.1192"
   viewBox="0 0 762.63538 797.1192">
  <metadata
     id="metadata4609">
    <rdf:RDF>
      <cc:Work
         rdf:about="">
        <dc:format>image/svg+xml</dc:format>
        <dc:type
           rdf:resource="http://purl.org/dc/dcmitype/StillImage" />
        <dc:title></dc:title>
      </cc:Work>
    </rdf:RDF>
  </metadata>
  <defs
     id="defs4607" />
  <path
     style="fill:#000000"
     d="m 491.40338,789.82714 c -0.87493,-0.4896 -3.97374,-4.1552 -6.88623,-8.1458 -2.9125,-3.9906 -8.29135,-10.8556 -11.953,-15.2556 -3.66166,-4.4 -8.29818,-10.172 -10.30337,-12.8266 -3.69921,-4.8973 -4.74867,-5.2266 -2.14582,-0.6734 1.80573,3.1588 1.87344,5 0.18387,5 -0.72387,0 -2.63637,-2.8007 -4.25,-6.2237 -1.61363,-3.423 -6.1276,-10.0783 -10.03104,-14.7896 -9.69091,-11.6964 -16.17826,-20.6202 -18.89174,-25.98672 -3.83469,-7.58404 -13.05652,-30.99293 -15.9548,-40.5 -6.96165,-22.83595 -10.94137,-35.04071 -11.5758,-35.5 -1.76369,-1.27681 -4.8258,-16.64046 -3.10456,-15.57668 0.50771,0.31378 1.47415,2.9344 2.14763,5.8236 0.67349,2.88919 2.03732,6.15308 3.03073,7.25308 0.99341,1.1 2.81052,5.06681 4.03803,8.81513 2.0709,6.32372 2.67079,7.12399 8.31975,11.09864 3.34836,2.35594 12.38793,8.01567 20.08793,12.57717 7.7,4.56151 19.28657,11.89207 25.74794,16.29013 l 11.74794,7.99647 4.95922,-4.63877 c 2.72757,-2.55132 5.9119,-4.63877 7.0763,-4.63877 1.20778,0 4.6654,-2.43069 8.05023,-5.65927 3.26324,-3.1126 6.20392,-5.38851 6.53486,-5.05758 1.03359,1.0336 -3.19724,6.09058 -12.51041,14.95326 l -8.97353,8.53948 2.18372,1.98599 c 1.20105,1.0923 4.77123,3.68143 7.93373,5.75364 5.25508,3.44335 7.07983,5.48448 4.90307,5.48448 -0.46581,0 -4.59494,-2.50869 -9.17585,-5.57487 -9.5905,-6.41928 -8.80472,-6.5034 -19.18825,2.05415 -8.72256,7.18867 -20.81696,15.52074 -22.52913,15.52074 -2.81697,0 -0.46231,-2.5636 8.24671,-8.97824 4.86991,-3.58698 11.53463,-9.03498 14.81047,-12.10668 l 5.95607,-5.58489 -7.88654,-5.51223 c -9.2623,-6.47379 -19.50417,-12.92166 -35.38655,-22.27794 -6.325,-3.72605 -12.51073,-7.69863 -13.74606,-8.82795 -1.23533,-1.12932 -2.44315,-1.85621 -2.68406,-1.61531 -1.54534,1.54535 14.65141,46.13722 20.6685,56.90322 3.6268,6.48922 14.73711,21.77342 17.84844,24.55382 l 2.17786,1.9462 -2.17103,-4 c -1.19406,-2.2 -3.09254,-5.4582 -4.21884,-7.2405 -1.1263,-1.7823 -1.86934,-3.7759 -1.6512,-4.4304 0.21814,-0.6544 5.159,5.9789 10.97969,14.7405 5.82069,8.7617 14.25849,20.2054 18.75067,25.4304 4.49218,5.225 10.72775,12.9824 13.85682,17.2388 3.31158,4.5046 6.42057,7.7434 7.43921,7.75 1.04641,0.01 1.75,0.7723 1.75,1.9042 0,2.2724 -2.01922,3.2354 -4.21158,2.0084 z m 1.21158,-50.6426 c 0,-1.5233 17.72502,-19.807 18.49014,-19.073 0.39317,0.3772 -3.24118,4.8772 -8.07634,10 -8.8508,9.3773 -10.4138,10.7391 -10.4138,9.073 z m -7.30799,-14.9001 c -0.37106,-0.3711 -0.21277,-1.2312 0.35175,-1.9115 0.56453,-0.6802 0.89855,-1.6216 0.74227,-2.092 -0.15627,-0.4704 8.54036,-9.85522 19.32585,-20.85522 18.1024,-18.46242 27.22339,-28.64866 42.08489,-47 7.23126,-8.92933 15.54796,-17.08861 16.4742,-16.16237 0.39438,0.39438 -2.01151,3.51725 -5.34641,6.93971 -3.3349,3.42246 -11.16035,12.52266 -17.38988,20.22266 -6.22953,7.7 -19.23485,22.1 -28.90072,32 -9.66586,9.9 -19.34271,20.25002 -21.50411,23.00002 -2.16139,2.75 -4.20732,5.345 -4.54649,5.7666 -0.33918,0.4217 -0.92029,0.4631 -1.29135,0.092 z M 410.79777,636.215 c 0.35108,-1.82305 2.28314,-2.64364 27.66541,-11.75011 30.07207,-10.78904 41.48476,-19.12263 60.14881,-43.92083 5.22336,-6.94009 10.01271,-12.61834 10.64301,-12.61834 3.16109,0 1.57753,3.69991 -5.84746,13.66231 -16.44646,22.06684 -23.66384,28.8327 -39.53131,37.0583 -8.29882,4.30205 -48.92299,19.27939 -52.29296,19.27939 -0.61323,0 -0.9667,-0.76982 -0.7855,-1.71072 z m -9.17796,-17.81288 c -3.02234,-2.44603 -5.66822,-4.96651 -5.87974,-5.60106 -0.50784,-1.52353 1.16674,-0.50606 7.37489,4.48097 7.1613,5.7527 7.0594,5.64788 5.45,5.60555 -0.7975,-0.021 -3.92282,-2.03944 -6.94515,-4.48546 z m -23.30361,-25.1085 c -1.13352,-1.13352 -0.80455,-4.86415 0.54876,-6.22319 1.87708,-1.88503 1.23251,-25.87329 -1.14772,-42.71351 -1.60091,-11.32651 -3.47284,-18.70171 -9.60354,-37.83702 -4.18827,-13.07252 -7.45196,-24.74156 -7.25263,-25.9312 0.20161,-1.20331 3.5979,7.73986 7.65488,20.15695 4.01086,12.27597 7.51502,22.09739 7.78702,21.8254 0.27199,-0.272 0.88082,-8.06597 1.35294,-17.31994 1.41472,-27.72945 -0.87344,-42.46356 -9.53499,-61.39862 -2.40852,-5.26528 -4.67488,-10.89028 -5.03636,-12.5 -0.36149,-1.60972 -1.23561,-4.27677 -1.9425,-5.92677 -0.70689,-1.65 -3.00159,-7.05 -5.09934,-12 -6.67767,-15.75714 -18.56386,-37.5 -20.50016,-37.5 -0.51018,0 -0.9276,-0.675 -0.9276,-1.5 0,-0.85057 0.89683,-1.5 2.07143,-1.5 2.24846,0 4.92857,2.17194 4.92857,3.99407 0,0.62531 2.14738,4.81996 4.77195,9.32143 5.03184,8.63025 11.02258,21.13308 16.18315,33.77469 1.70417,4.17461 3.98643,8.5433 5.07169,9.70819 2.99353,3.21318 2.21417,6.04258 -0.82679,3.00162 -1.97025,-1.97025 -1.45373,-0.57958 4.20708,11.32705 9.39468,19.76024 11.24665,32.30505 9.50332,64.37295 -1.18435,21.78571 -0.86689,30.77927 1.58006,44.76174 0.79294,4.53104 1.11947,8.35072 0.72562,8.48818 -0.96574,0.33706 -0.68578,24.25597 0.31176,26.636 1.29927,3.0999 -2.64128,7.1673 -4.8266,4.98198 z m 91.29876,-1.14711 c 0,-1.27207 16.01793,-13.53619 16.73839,-12.81574 0.32722,0.32722 0.40744,0.72546 0.17828,0.88498 -0.22917,0.15951 -3.56667,2.77462 -7.41667,5.81135 -8.26097,6.51593 -9.5,7.31405 -9.5,6.11941 z m 126.2377,-39.97079 c -14.47967,-30.19103 -30.2673,-58.99889 -47.29104,-86.29245 -10.89391,-17.46583 -13.58004,-22.39694 -14.09245,-25.87048 -0.59473,-4.03161 1.61169,-3.36594 3.80639,1.14838 1.1403,2.3455 6.56494,11.24448 12.05476,19.77551 13.39084,20.80902 22.20496,36.09032 32.64045,56.58971 4.78793,9.40537 9.36117,17.95537 10.16277,19 2.58613,3.37023 -5.87972,-19.33113 -18.49722,-49.60067 -6.7632,-16.225 -13.39409,-32.425 -14.7353,-36 -1.34121,-3.575 -3.91673,-9.2 -5.72336,-12.5 -9.03945,-16.51142 -23.56234,-41.90549 -23.56251,-41.20034 -10e-5,0.43981 0.63949,2.03667 1.42133,3.54857 2.70809,5.23688 5.47977,14.81325 4.91379,16.97756 -0.81498,3.11646 -2.09543,2.68247 -3.17408,-1.07579 -0.51303,-1.7875 -3.68837,-9.70489 -7.05632,-17.59421 -3.36795,-7.88931 -7.25191,-18.26636 -8.63104,-23.06011 -4.36238,-15.16339 -6.20896,-19.09318 -13.60973,-28.96356 -3.97217,-5.29767 -9.76713,-13.00712 -12.8777,-17.13212 -10.8546,-14.39457 -15.91834,-21.92405 -15.08907,-22.43657 1.18854,-0.73456 3.90739,2.59186 22.29551,27.27775 3.82696,5.13765 7.15294,9.14633 7.39108,8.90819 0.67576,-0.67576 -6.83039,-16.2729 -12.74005,-26.47275 -5.41773,-9.3508 -11.03166,-16.27662 -13.19348,-16.27662 -0.6529,0 -3.36534,-1.8 -6.02764,-4 -2.66231,-2.2 -5.00542,-4 -5.20692,-4 -0.60268,0 1.61191,5.32855 2.81914,6.78317 0.61563,0.74178 2.42192,2.0223 4.01399,2.84559 2.25356,1.16536 3.21098,1.23438 4.32283,0.31162 1.16126,-0.96376 1.42817,-0.78861 1.42817,0.93718 0,4.92744 -9.20271,0.66501 -12.94671,-5.99654 -4.24892,-7.55992 -1.75788,-10.16657 4.80281,-5.02571 2.00414,1.57041 4.7689,3.44478 6.1439,4.16526 2.15721,1.13035 1.97253,0.66527 -1.34692,-3.39188 -6.50511,-7.95078 -12.69454,-13.37474 -24.15308,-21.16601 -6.05,-4.11372 -15.725,-10.81389 -21.5,-14.88928 -5.775,-4.07538 -12.57938,-8.45113 -15.12085,-9.72388 -4.45303,-2.23004 -4.56689,-2.39645 -3.13499,-4.5818 1.81788,-2.77445 3.25003,-2.96151 2.56313,-0.33478 -0.39859,1.52418 0.56424,2.475 4.55297,4.49625 5.25974,2.66531 19.79364,11.97906 24.13974,15.46944 l 2.5,2.00777 4.75,-4.66561 c 2.6125,-2.56608 4.75,-4.19846 4.75,-3.62751 0,0.57095 -1.125,2.09497 -2.5,3.38672 -3.15103,2.96024 -3.1907,4.75 -0.10529,4.75 1.31709,0 4.68773,0.55009 7.49031,1.22242 4.16551,0.99929 6.14691,2.3094 10.85529,7.17761 7.93388,8.20319 8.33021,8.3582 12.30255,4.8117 1.98016,-1.76788 4.43155,-2.96173 6.08148,-2.96173 1.52028,0 4.02673,-1.11078 5.5699,-2.4684 2.58358,-2.27293 2.64124,-2.4709 0.72817,-2.5 -1.14268,-0.0174 -4.96768,-1.23437 -8.5,-2.70443 -3.77318,-1.57028 -10.1349,-3.11715 -15.42241,-3.75 -7.97428,-0.95441 -9,-1.30511 -9,-3.07717 0,-1.84553 0.60416,-1.98552 7.82226,-1.81247 4.57647,0.10971 8.45579,0.71331 9.34905,1.45464 2.33075,1.93436 15.35736,5.82935 19.54642,5.84444 2.04476,0.007 10.52446,-0.93441 18.84379,-2.09283 11.11076,-1.5471 15.4216,-1.81066 16.23941,-0.99285 2.32999,2.32999 -1.93282,3.77498 -16.30093,5.52565 -7.975,0.9717 -14.8375,1.97479 -15.25,2.22909 -0.4125,0.2543 -0.75,1.81613 -0.75,3.47073 0,2.47432 0.32912,2.90392 1.85398,2.41994 1.71237,-0.54348 1.79048,-0.18581 1.02262,4.68262 -0.45724,2.89907 -1.114,6.56186 -1.45946,8.13953 -0.88319,4.03345 0.4248,3.17141 7.00312,-4.61543 6.95023,-8.22709 9.36361,-9.76912 11.25057,-7.18854 1.61476,2.20831 1.65083,3.8372 0.23151,10.45526 -0.60372,2.81503 -0.88247,5.33342 -0.61946,5.59643 0.45011,0.45012 8.71712,-11.96559 8.71712,-13.0917 0,-0.28848 -1.35,-0.52451 -3,-0.52451 -5.24811,0 -3.39623,-2.51815 5.82169,-7.91623 5.21372,-3.05319 5.31468,-3.07044 4.97626,-0.85009 -0.18999,1.24647 -0.91084,2.14929 -1.60189,2.00625 -1.37664,-0.28494 -7.19606,2.45875 -7.19606,3.39274 0,0.31972 0.63931,0.33598 1.42068,0.0361 0.78138,-0.29984 2.60456,0.55201 4.05153,1.89301 1.44696,1.341 3.58472,2.43818 4.75057,2.43818 1.16586,0 2.83017,0.6243 3.69848,1.38733 3.22047,2.83001 12.19463,3.61267 41.37796,3.60865 33.38826,-0.005 39.96214,-0.75082 63.20078,-7.17407 11.82436,-3.26831 16.79953,-4.16468 23.5,-4.23399 6.92797,-0.0717 8.5,0.1895 8.5,1.41208 0,1.16447 -1.90132,1.64606 -8.5,2.15297 -4.675,0.35913 -13.23407,2.01626 -19.02016,3.68251 -24.40885,7.02912 -27.54645,7.42066 -63.06366,7.86952 -26.34531,0.33295 -33.81114,0.12826 -38.99413,-1.06913 -3.52568,-0.81451 -6.46298,-1.40329 -6.52735,-1.3084 -0.0644,0.0949 -0.39524,5.57253 -0.73529,12.17253 -0.71423,13.86238 0.14251,13.99073 4.82743,0.72319 2.94496,-8.34001 4.22473,-10.51948 5.65715,-9.6342 1.55879,0.96339 -0.1128,7.57379 -3.81931,15.10369 -4.43576,9.01138 -6.33889,10.90526 -9.34296,9.29754 -2.09539,-1.12142 -2.15861,-1.58431 -1.5474,-11.32971 l 0.63725,-10.16051 -2.78579,6.39677 c -2.98642,6.85747 -4.9655,8.82385 -7.78997,7.73999 -1.52042,-0.58344 -1.68871,-1.50588 -1.16927,-6.40914 0.33372,-3.15019 0.9068,-7.30262 1.2735,-9.22762 l 0.66674,-3.5 -2.71967,4 c -3.24618,4.77437 -5.30054,6.5 -7.73824,6.5 -2.31301,0 -2.39476,-3.95027 -0.25283,-12.21628 0.85583,-3.30273 1.25518,-6.29269 0.88745,-6.64434 -0.36772,-0.35166 -2.53044,1.60477 -4.80604,4.34762 -11.41436,13.75809 -14.26086,14.77417 -13.94532,4.97789 l 0.19213,-5.96489 -2.22969,2.75 c -3.07897,3.79744 -4.23865,3.45883 -5.51508,-1.61031 -1.57874,-6.26973 -3.09308,-7.18963 -7.52802,-4.57296 -1.98467,1.17099 -3.40201,2.46316 -3.14964,2.8715 0.25236,0.40834 3.61126,2.85748 7.46421,5.44252 3.85295,2.58505 9.3833,6.73942 12.28966,9.23193 2.90637,2.49251 9.3343,6.929 14.2843,9.85887 9.90957,5.86541 21.00646,14.94288 32.5,26.58564 10.09089,10.22189 21.24327,18.12247 54.5,38.60892 3.3,2.03283 8.475,5.57152 11.5,7.86375 9.75482,7.39184 28.12838,20.0782 43,29.69013 7.975,5.15445 15.6638,10.14206 17.08622,11.08357 l 2.58622,1.71184 0.19353,-16.4566 c 0.17964,-15.27495 0.0566,-16.52987 -1.71337,-17.47713 -1.69709,-0.90826 -2.14236,-0.37479 -4.04685,4.84847 -3.77453,10.352 -7.31649,8.46069 -8.10575,-4.32824 l -0.5,-8.1019 -2.34105,4.7538 c -1.58692,3.22246 -3.1443,4.9554 -4.83463,5.37965 -4.07746,1.02338 -5.64896,-1.56531 -6.27362,-10.33438 l -0.5507,-7.73092 -3.80161,7.70983 c -2.84498,5.76974 -4.42099,7.86528 -6.26299,8.32759 -4.69844,1.17923 -7.36035,-4.00929 -7.49321,-14.60557 -0.0585,-4.66838 -0.21854,-5.1251 -1.05823,-3.02056 -1.27134,3.18643 -3.84225,6.02056 -5.4614,6.02056 -1.9285,0 -3.73223,-6.72407 -3.08007,-11.48209 0.51528,-3.75934 0.31619,-4.3524 -1.782,-5.30839 -2.00179,-0.91208 -2.4392,-0.78134 -2.86767,0.85712 -0.88584,3.38746 -3.69341,2.18626 -5.74841,-2.45941 -2.11969,-4.79191 -3.82332,-5.92671 -7.50884,-5.0017 -1.93006,0.48441 -2.59394,0.10813 -3.35886,-1.90376 -1.25859,-3.31034 -1.21748,-3.29058 -15.05131,-7.23469 -6.58462,-1.87731 -15.07762,-4.94812 -18.87334,-6.82401 -10.4719,-5.17535 -24.16745,-13.80332 -25.3154,-15.94827 -1.51066,-2.8227 0.28377,-4.17644 3.82584,-2.88625 2.16696,0.78931 2.36584,1.05221 0.84159,1.1125 -1.14437,0.0453 2.83825,2.88714 9.33467,6.66094 6.23182,3.6201 11.45513,6.4326 11.60734,6.25 0.15222,-0.18259 0.54317,-5.05699 0.86878,-10.83199 l 0.59202,-10.5 -3.70345,6.99897 c -2.26369,4.27805 -4.43995,7.13589 -5.59792,7.35115 -1.77847,0.33061 -1.86287,-0.22044 -1.3784,-8.99897 0.30862,-5.59204 0.17195,-8.54716 -0.33998,-7.35115 -0.47083,1.1 -1.74706,4.1375 -2.83607,6.75 -3.46359,8.30908 -5.21064,5.25526 -2.97015,-5.19178 1.36676,-6.37297 3.17565,-7.79358 2.39616,-1.88181 -0.50054,3.79612 -0.11637,3.2561 3.14893,-4.42641 5.65744,-13.31063 6.57051,-11.28262 3.37043,7.48598 -2.26168,13.26482 -0.17516,11.24971 7.93519,-7.66363 3.21124,-7.48859 4.51601,-4.98399 3.16067,6.06714 -1.29408,10.5516 -1.43426,24.36051 -0.2473,24.36051 2.95862,0 7.50079,-9.5996 9.76855,-20.64525 1.82026,-8.86593 3.13561,-12.00558 4.47049,-10.6707 0.5317,0.5317 0.27166,3.7408 -0.6367,7.85736 -0.84452,3.82723 -1.80163,11.49955 -2.12691,17.04961 -0.51325,8.75704 -0.37571,10.17379 1.04045,10.71723 1.18682,0.45542 2.16227,-0.4134 3.57653,-3.18558 1.96816,-3.85788 9.06258,-27.11872 9.06258,-29.71392 0,-0.77479 0.73696,-1.40871 1.63768,-1.40871 1.41459,0 1.53481,0.78329 0.88251,5.75 -1.33802,10.1879 -2.1842,21.71238 -1.69677,23.10911 0.85627,2.45367 6.56666,-13.71715 11.16208,-31.60911 1.11922,-4.35759 3.0145,-5.79694 3.0145,-2.28932 0,1.07838 -1.31939,7.94088 -2.93198,15.25 -3.50282,15.87669 -5.43232,28.39758 -4.67876,30.36134 1.8137,4.72642 4.4411,-2.53797 8.70643,-24.07202 1.74304,-8.8 3.52037,-16.38829 3.94961,-16.86287 1.75173,-1.93675 2.66098,0.49335 1.90453,5.09008 -2.06753,12.56374 -3.95691,26.48401 -4.52232,33.31871 -0.51773,6.25838 -0.34739,7.77568 0.99829,8.8925 0.89239,0.74062 1.78353,1.16996 1.9803,0.95408 0.19678,-0.21587 2.48727,-10.2925 5.08998,-22.3925 2.60271,-12.1 5.13084,-22.4275 5.61806,-22.95 0.55727,-0.59761 1.27847,-0.55739 1.94431,0.10845 0.7446,0.7446 0.44455,8.23948 -1.0119,25.27623 -1.1387,13.31978 -1.81344,24.63348 -1.49944,25.14155 0.31401,0.50807 1.39919,0.92377 2.41153,0.92377 2.01161,0 3.48075,-5.39016 6.54142,-24 2.68984,-16.35509 5.64639,-30.46147 6.59159,-31.45 0.57318,-0.59947 1.27188,-0.58647 1.89358,0.0352 0.64696,0.64696 0.15149,5.26476 -1.44315,13.45 -3.21916,16.52384 -6.8631,42.97724 -6.03417,43.8054 0.6668,0.66618 11.499,0.4858 12.18775,-0.20296 0.20465,-0.20465 1.02876,-6.61935 1.83136,-14.25488 1.77846,-16.91959 4.22823,-31.53804 5.49793,-32.80774 2.1817,-2.1817 2.22256,1.35648 0.1985,17.18969 -3.10503,24.28913 -3.46142,28.23844 -2.54541,28.20744 0.45208,-0.0153 2.62036,-1.38822 4.81841,-3.05093 l 3.99644,-3.02311 2.24019,-13.6357 c 2.24636,-13.67335 3.31314,-16.61622 5.30224,-14.62712 0.71376,0.71376 0.67982,4.67607 -0.10928,12.75739 -0.62953,6.44714 -0.95179,11.91487 -0.71614,12.15053 0.23565,0.23565 4.89733,-0.50662 10.35928,-1.64949 6.99464,-1.46358 11.63034,-3.10332 15.67899,-5.546 5.61503,-3.38771 7.75183,-3.6252 7.75183,-0.86154 0,2.43928 -7.34684,7.5288 -13.49154,9.34626 -5.79015,1.7126 -6.01379,1.90487 -6.65343,5.71985 -0.36404,2.17122 -0.95811,9.57268 -1.32016,16.44768 l -0.65826,12.5 6.71642,3.76194 c 3.69403,2.06907 6.80777,3.64407 6.91943,3.5 0.11165,-0.14407 0.82953,-2.88285 1.59527,-6.08619 0.76575,-3.20334 1.84227,-5.78409 2.39227,-5.73499 0.5744,0.0513 1.00405,3.47128 1.00952,8.03582 0.009,7.75197 0.0978,8.03932 3.61239,11.73499 1.98157,2.08364 4.43681,5.25093 5.45608,7.03843 1.01927,1.7875 2.1615,3.25 2.53828,3.25 0.37678,0 1.08414,-1.6875 1.57191,-3.75 1.37991,-5.83488 3.46163,-4.71873 5.68234,3.0467 1.56411,5.46941 2.25475,6.66232 3.53658,6.10857 0.8761,-0.37847 2.8304,-0.90056 4.3429,-1.1602 3.98254,-0.68365 3.46172,1.55961 -0.77288,3.32894 -3.21895,1.34496 -3.42061,1.66409 -2.33742,3.69897 2.43871,4.58136 5.23117,7.638 8.04123,8.80196 2.55228,1.05719 3.17724,0.9372 5.24723,-1.00745 1.29242,-1.21417 2.61355,-3.52606 2.93585,-5.13753 0.68822,-3.4411 2.63768,-3.94468 2.63225,-0.67996 -0.005,3.2249 -3.55068,8.58986 -6.59221,9.97567 -3.65605,1.66581 -8.86671,-1.34586 -12.83631,-7.41916 -2.36868,-3.62395 -3.61353,-4.64939 -5.46285,-4.5 -1.31731,0.10642 -2.59231,-0.36901 -2.83333,-1.05651 -0.24103,-0.6875 0.24772,-1.25 1.08609,-1.25 2.31503,0 2.66672,-1.31062 1.43161,-5.335 -1.42027,-4.62765 -2.38276,-4.64535 -3.24305,-0.0596 -2.64605,14.10466 -6.97928,21.01465 -11.43371,18.23281 -1.1297,-0.70551 -2.52371,-2.42022 -3.0978,-3.81046 -1.58075,-3.828 -2.99373,-13.69713 -3.08218,-21.52772 l -0.0791,-7 -2.34399,8.53441 c -1.28919,4.69392 -3.47542,11.09278 -4.85828,14.21967 l -2.5143,5.68527 16.58911,11.70515 c 9.12402,6.43783 20.77969,14.26015 25.9015,17.38293 10.31672,6.29011 12.37254,7.80134 12.37254,9.09501 0,0.48266 -0.8428,0.87756 -1.87288,0.87756 -2.8517,0 -11.1252,-3.93331 -11.14153,-5.29679 -0.008,-0.66177 -2.37042,-2.48225 -5.25,-4.04552 l -5.23559,-2.84231 3.5,3.09185 c 3.86268,3.41223 17.48093,14.51412 28.81501,23.4906 6.86279,5.43527 10.31752,9.80297 8.88609,11.2344 -0.34308,0.34308 -2.32868,-0.80568 -4.41244,-2.5528 -2.08376,-1.74713 -7.16366,-5.71741 -11.28866,-8.82285 -8.89443,-6.69604 -16.98961,-13.511 -25.95184,-21.84769 -8.55767,-7.96037 -24.88487,-21.40889 -25.99151,-21.40889 -0.89528,0 -7.65454,-5.27692 -12.05665,-9.41257 -3.75416,-3.52691 -18.6927,-14.06987 -35.32379,-24.92996 -16.17116,-10.55976 -30.42895,-21.03023 -32.47741,-23.85038 -1.29087,-1.77715 -14.5389,-10.7306 -33.63163,-22.72933 -5.46306,-3.43323 -12.55056,-8.25653 -15.75,-10.71845 -5.5285,-4.25407 -7.44802,-4.87677 -4.43292,-1.43805 0.76134,0.86831 4.86987,7.87874 9.13008,15.57874 4.2602,7.7 9.94136,17.89005 12.6248,22.64456 10.01356,17.74197 18.53073,38.29459 23.35415,56.35544 1.62808,6.0962 3.94561,11.95407 5.9366,15.00556 1.79627,2.75305 4.05797,6.57805 5.02599,8.5 0.96803,1.92194 2.65708,4.20578 3.75345,5.0752 1.81248,1.43729 1.98112,2.69889 1.85804,13.9005 -0.0744,6.77586 -0.38966,12.73122 -0.70048,13.23413 -0.31081,0.50291 -0.28504,2.40731 0.0573,4.23201 0.45232,2.41107 1.71862,4.04308 4.63415,5.97248 3.96151,2.62161 7.12935,2.71608 4.99893,0.14908 -2.24424,-2.70415 0.54777,-2.41737 5.86033,0.60194 12.58899,7.15477 27.08241,14.57182 27.08241,13.85951 0,-1.97648 -4.70061,-6.35108 -9.34865,-8.70027 -2.83324,-1.43197 -6.58312,-4.1165 -8.33305,-5.96564 -3.32591,-3.51445 -6.97417,-5.3645 -10.57868,-5.3645 -2.63948,0 -7.73962,-4.73604 -7.73962,-7.18709 0,-2.46595 1.77107,-2.27938 4.14906,0.43709 l 1.96964,2.25 -1.69481,-2.78121 c -2.56383,-4.20729 -1.11643,-4.24319 1.86965,-0.0464 1.98694,2.79256 3.92387,4.08436 8.02819,5.35426 11.13072,3.44393 31.67827,15.85945 31.67827,19.1411 0,1.78788 -2.89871,1.94472 -5.41921,0.29323 -2.94395,-1.92895 -2.97234,-1.88263 -1.47629,2.40895 0.79255,2.27349 3.05209,4.42826 8,7.62905 6.40201,4.14144 8.22313,6.56247 5.97942,7.94916 -0.50385,0.31139 -2.07473,0.12565 -3.49085,-0.41275 -2.3881,-0.90796 -2.48662,-0.83779 -1.35895,0.96788 0.92159,1.4757 0.93539,2.22722 0.057,3.10558 -0.87836,0.87836 -2.24633,0.52142 -5.65303,-1.47504 -5.1487,-3.01734 -5.7821,-3.17259 -5.03856,-1.23496 0.79812,2.07988 -1.06349,2.75546 -4.25219,1.54312 -5.13341,-1.95172 -18.97516,-11.79041 -26.46807,-18.81345 -4.05862,-3.80411 -9.4043,-8.45342 -11.8793,-10.3318 l -4.5,-3.41524 0,-15.44074 0,-15.44074 -3.88486,-7.7818 c -2.13668,-4.27999 -3.99584,-7.65499 -4.13148,-7.5 -0.84699,0.96786 0.97889,6.7818 2.12984,6.7818 0.76257,0 1.3865,0.47656 1.3865,1.05902 0,0.58246 -0.50918,0.74432 -1.13152,0.35969 -1.47813,-0.91353 -0.2785,10.85301 1.83338,17.98272 0.87672,2.95981 1.8444,12.22977 2.30684,22.09857 0.43813,9.35 0.95291,18.125 1.14395,19.5 0.27243,1.96079 -0.1376,2.56888 -1.90104,2.81934 -3.44669,0.48954 -4.25158,-3.1863 -4.25158,-19.41656 0,-10.59735 -0.40122,-15.42728 -1.5,-18.05702 -0.825,-1.97451 -1.50809,-4.54755 -1.51797,-5.71788 -0.0122,-1.44765 -1.65645,-3.19963 -5.14346,-5.4805 -4.93448,-3.22767 -5.10057,-3.26494 -4.45654,-1 2.80893,9.87849 7.68662,31.1173 7.24728,31.55664 -1.26984,1.26985 -3.49283,-0.81402 -4.14591,-3.88645 -0.38785,-1.82466 -4.31389,-11.32386 -8.72452,-21.10933 -7.78238,-17.26605 -8.18673,-17.92057 -13.68451,-22.15101 -3.11585,-2.39759 -6.26235,-5.0788 -6.99222,-5.95824 -3.4512,-4.15845 -2.43109,-0.52496 3.09728,11.03212 3.36223,7.02875 6.1321,14.23623 6.24497,16.25 0.26621,4.74982 11.44119,38.11889 12.76564,38.11889 0.56317,0 0.74642,0.72319 0.40724,1.60709 -0.33918,0.8839 -0.14498,3.3589 0.43156,5.5 l 1.04825,3.89291 11.71145,0.0439 c 6.4413,0.0241 15.08646,0.45563 19.21146,0.95884 4.125,0.5032 12.675,1.40793 19,2.0105 6.325,0.60258 18.925,1.99349 28,3.09092 26.83704,3.24538 31.15673,4.40617 29.05457,7.80753 -0.68602,1.11 -4.03483,0.88891 -19.19279,-1.26712 -10.09898,-1.43644 -23.53678,-3.07773 -29.86178,-3.64731 -6.325,-0.56957 -16.35297,-1.70196 -22.28438,-2.51642 -13.61785,-1.86991 -34.33573,-2.00634 -35.05616,-0.23084 -0.38169,0.94068 -0.76971,0.87881 -1.56802,-0.25 -1.85553,-2.62373 -1.18837,-0.21145 2.40856,8.7088 3.81343,9.45714 4.01255,10.2912 2.45691,10.2912 -0.5737,0 -3.14734,-4.3875 -5.71921,-9.75 z m -15.30072,-59.37946 c -3.88714,-10.63679 -10.79585,-25.345 -11.55053,-24.59033 -0.18497,0.18498 3.10266,8.52235 7.30586,18.52748 4.2032,10.00514 7.81267,18.02066 8.02106,17.81227 0.20839,-0.20838 -1.49099,-5.49563 -3.77639,-11.74942 z m 26.57348,-20.46235 c -2.54929,-15.84238 -4.45139,-22.9402 -7.11078,-26.53439 -2.0466,-2.766 -2.21739,-3.43205 -0.948,-3.69712 0.85158,-0.17783 1.54832,-0.5381 1.54832,-0.8006 0,-1.91439 -6.64602,-16.69237 -8.31039,-18.47887 -3.41451,-3.66505 -3.03849,-0.48255 0.62082,5.25438 4.70469,7.37586 5.25452,9.47865 2.8681,10.96899 -1.87272,1.16953 -1.78844,1.75164 2.86536,19.7922 4.51998,17.52181 5.05446,23.32591 1.65241,17.94412 -1.5425,-2.44012 -7.28556,-21.64274 -11.17259,-37.3569 -1.22443,-4.95 -2.91764,-10.575 -3.7627,-12.5 -2.23041,-5.08078 -13.0486,-20.9577 -12.26481,-18 0.36437,1.375 0.9064,3.4 1.20452,4.5 0.29811,1.1 3.2176,8.20609 6.48777,15.7913 5.5949,12.97752 15.88756,40.19527 17.2852,45.7087 0.62467,2.46424 9.72335,9.49685 10.32163,7.97787 0.16243,-0.41239 -0.41576,-5.16874 -1.28486,-10.56968 z m -39.89216,-9.06978 c -0.84603,-1.56113 -1.55624,-2.52208 -1.57826,-2.13546 -0.0677,1.18867 2.25876,5.83158 2.70066,5.38968 0.2287,-0.2287 -0.27638,-1.6931 -1.1224,-3.25422 z m 16.3817,2.30154 c 0,-0.19803 -2.88781,-6.38553 -6.41735,-13.75 -3.52953,-7.36447 -9.78351,-21.71495 -13.89772,-31.88995 -4.11421,-10.175 -9.1701,-22.5474 -11.23531,-27.49422 -2.06522,-4.94682 -6.1739,-15.74682 -9.13041,-24 l -5.37546,-15.00578 0.57855,8.5 c 0.63295,9.29905 3.45568,25.52695 6.34893,36.5 1.01513,3.85 6.87351,18.025 13.01864,31.5 l 11.17295,24.5 6.71859,5.71173 c 5.98922,5.09166 8.21859,6.56411 8.21859,5.42822 z m -2.09785,-21.17598 c -7.6226,-21.72954 -29.04565,-72.53348 -29.72569,-70.49335 -1.02089,3.06266 5.70442,23.80611 13.30227,41.02938 8.43671,19.12482 22.8673,49.95672 23.22397,49.61955 0.11149,-0.10539 -2.94876,-9.1754 -6.80055,-20.15558 z m -22.28672,-3.11617 c -1.38727,-2.66629 -2.54326,-4.52234 -2.56887,-4.12455 -0.0727,1.12927 4.28429,9.77923 4.71092,9.35261 0.20914,-0.20915 -0.75478,-2.56177 -2.14205,-5.22806 z m 151.00175,-11.88629 c 2.48556,-3.79345 4.57751,-13.46151 2.91276,-13.46151 -0.7093,0 -3.15829,-2.475 -5.44219,-5.5 -2.2839,-3.025 -4.39389,-5.5 -4.68887,-5.5 -0.77499,0 0.60328,15.7789 1.79065,20.5 0.89975,3.57749 2.43288,6.5 3.40986,6.5 0.19498,0 1.10298,-1.14232 2.01779,-2.53849 z m -159.13071,-2.71151 c -0.87101,-3.02295 -8.74122,-19.82858 -9.11216,-19.45765 -0.16142,0.16142 0.5832,3.1103 1.65471,6.55306 2.54759,8.18542 9.62793,20.43744 7.45745,12.90459 z m 138.52064,-2.76393 c 2.50819,-4.91646 7.33027,-22.6645 6.64386,-24.45326 -0.45775,-1.19287 -10.57657,-7.53281 -12.0227,-7.53281 -0.34555,0 -0.62827,7.62764 -0.62827,16.95031 0,15.08819 0.19225,17.06229 1.75,17.96959 0.9625,0.56061 1.85335,1.03297 1.97968,1.04969 0.12632,0.0167 1.15116,-1.77586 2.27743,-3.98352 z m -98.08108,-9.17373 c -6.59182,-16.72357 -29.91058,-59.37779 -39.8944,-72.97403 -5.78576,-7.87921 -19.62985,-20.29157 -30.03163,-26.9258 -7.55409,-4.81799 -13.872,-9.31501 -24,-17.08297 -3.025,-2.3201 -4.91565,-3.49595 -4.20144,-2.61298 2.02593,2.50463 -0.0485,2.86086 -3.59255,0.61694 -1.96028,-1.24116 -3.21603,-2.86601 -3.2318,-4.1817 -0.0173,-1.448 -1.65976,-3.26027 -5.02148,-5.54081 -2.74763,-1.86395 -7.2472,-5.98796 -9.99905,-9.16446 -3.67443,-4.24144 -6.23932,-6.19659 -9.65666,-7.36099 -8.1962,-2.79273 -9.04532,-1.86878 -2.29322,2.49531 10.21023,6.59919 17.6314,13.73335 25.92167,24.91915 10.43962,14.08587 18.29982,22.42421 29.35214,31.13768 5.07231,3.99893 12.37239,9.77669 16.22239,12.83947 7.07763,5.63044 23.69839,22.46205 28.80352,29.16892 1.94742,2.55842 3.33811,3.4989 4.66194,3.15271 3.18403,-0.83264 5.54032,3.74594 19.96774,38.7999 2.86744,6.96694 3.3709,7.60561 6.0557,7.68194 l 2.92826,0.0833 -1.99113,-5.05154 z m -15.42603,-7.81234 c -0.85325,-1.65 -1.77636,-3 -2.05136,-3 -0.275,0 0.19811,1.35 1.05136,3 0.85325,1.65 1.77636,3 2.05136,3 0.275,0 -0.19811,-1.35 -1.05136,-3 z m -41.82775,-11.08178 c -3.21052,-8.12925 -7.53722,-17.08395 -7.62805,-15.78728 -0.14956,2.13506 9.89793,25.26027 10.64886,24.50933 0.16711,-0.1671 -1.19226,-4.09203 -3.02081,-8.72205 z m 139.34388,-4.34813 c 1.18049,-3.68857 1.11114,-4.04906 -1.1292,-5.86988 l -2.38693,-1.93997 -0.3068,5.25068 c -0.53247,9.11305 1.32703,10.35785 3.82293,2.55917 z m -108.48107,-0.5023 c -2.2579,-4.36628 -2.65956,-3.79433 -0.74974,1.0676 0.89343,2.27446 1.78456,3.65496 1.98029,3.06779 0.19572,-0.58718 -0.35802,-2.4481 -1.23055,-4.13539 z m -25.96901,-8.63732 c -1.32349,-6.56176 -2.72257,-16.50528 -3.10908,-22.09671 l -0.70274,-10.16624 -8.57936,-6.83376 c -4.71865,-3.75857 -12.08836,-9.63698 -16.37712,-13.06314 -4.28876,-3.42616 -7.79775,-6.07703 -7.79775,-5.89083 0,0.1862 1.53498,3.66442 3.41107,7.72938 1.87608,4.06496 5.22671,11.89083 7.44583,17.39083 3.82123,9.47077 11.39536,22.25736 17.43786,29.43846 1.50859,1.79285 4.42192,6.10115 6.47407,9.57398 2.05214,3.47284 3.83746,6.20946 3.96737,6.08138 0.1299,-0.12809 -0.84666,-5.60159 -2.17015,-12.16335 z m -12.44398,3.89453 c -1.17884,-2.02721 -1.46351,-1.37835 -0.49853,1.13634 0.34294,0.8937 0.83419,1.41426 1.09166,1.15679 0.25747,-0.25747 -0.009,-1.28938 -0.59313,-2.29313 z m 134.3112,-2.44982 c 0.90773,-2.26865 1.51909,-4.20485 1.35858,-4.30266 -0.16052,-0.0978 -1.51352,-0.94164 -3.00667,-1.87518 -1.49315,-0.93354 -2.90037,-1.69734 -3.12716,-1.69734 -0.45512,0 0.26995,8.76315 0.88946,10.75 0.7351,2.3576 2.23669,1.24669 3.88579,-2.87482 z m -17.00378,-0.19385 c 1.3922,-1.82527 3.17105,-5.132 3.95301,-7.34829 l 1.42173,-4.02962 -4.42887,-2.15171 c -2.43587,-1.18344 -4.86682,-2.15171 -5.40211,-2.15171 -1.0591,0 -1.32689,13.07849 -0.34296,16.75 0.81952,3.05803 1.82185,2.83484 4.7992,-1.06867 z m 37.57051,-3.03464 c 0,-1.84432 0.23043,-6.23182 0.51207,-9.75 l 0.51208,-6.39669 -1.97009,7.5 c -2.41249,9.18421 -2.5425,12 -0.55406,12 1.03512,0 1.5,-1.03926 1.5,-3.35331 z m -1.77755,-11.22191 c 3.62538,-15.60072 3.64763,-15.4953 -2.88326,-13.66477 l -5.16081,1.44651 -0.71873,10.54473 c -0.70365,10.32348 -0.6688,10.58309 1.66081,12.37306 1.30875,1.00558 2.81858,1.69263 3.35519,1.52679 0.53661,-0.16584 2.22267,-5.66769 3.7468,-12.22632 z m -156.24182,4.53903 c -1.80068,-3.3646 -2.24781,-1.58216 -0.79994,3.18883 1.17285,3.86474 1.35391,4.04756 1.63096,1.64681 0.17141,-1.4853 -0.20255,-3.66134 -0.83102,-4.83564 z m 24.42958,-4.21381 c -0.6202,-4.94331 -4.03228,-12.46127 -5.14886,-11.34468 -0.48208,0.48207 4.86392,16.59468 5.50594,16.59468 0.16588,0 0.005,-2.3625 -0.35708,-5.25 z m 115.94294,1.5 c 0.28163,-1.5125 0.78631,-4.42965 1.1215,-6.48255 l 0.60943,-3.73256 -4.49271,2.23256 c -3.6408,1.80921 -4.50206,2.74795 -4.54204,4.95061 -0.0357,1.96512 0.71247,3.13135 2.70067,4.20997 3.75207,2.03553 4.01742,1.96762 4.60315,-1.17803 z m -32.80648,-1.34026 c 1.76667,-3.41636 1.33831,-5.90974 -1.01529,-5.90974 -1.1483,0 -1.53138,1.12568 -1.53138,4.5 0,2.475 0.21344,4.5 0.47432,4.5 0.26088,0 1.19344,-1.39062 2.07235,-3.09026 z m -4.24804,-26.40974 0.60993,-9 -2.45961,10.43769 c -1.92318,8.16126 -2.18583,10.60722 -1.20428,11.215 1.67506,1.03721 2.30233,-1.56161 3.05396,-12.65269 z m -13.31394,4.25 c -0.0124,-1.81944 -0.20082,-1.96296 -0.98469,-0.75 -1.25292,1.93876 -1.25292,3 0,3 0.55,0 0.99311,-1.0125 0.98469,-2.25 z m -9.97104,-5 c 0.008,-1.2375 0.27678,-3.375 0.59838,-4.75 0.51468,-2.20054 0.33512,-2.1107 -1.49896,0.75 -1.14602,1.7875 -2.52445,3.25 -3.06319,3.25 -1.53288,0 -3.04772,-3.54282 -3.07184,-7.18426 l -0.022,-3.31574 -1.97804,4.3592 c -1.08788,2.39757 -1.978,4.68106 -1.978,5.07444 0,0.60458 7.92383,3.6742 10.25,3.97075 0.4125,0.0526 0.75614,-0.91689 0.76365,-2.15439 z m -21.82188,-6.89671 -0.46183,-3.14672 -1.81076,2.39672 c -1.68676,2.2326 -1.69464,2.44325 -0.11496,3.07642 2.7411,1.09871 2.8716,0.97156 2.38755,-2.32642 z m -44.53044,-42.40623 c 2.39458,-7.35291 2.57867,-8.68367 1.31203,-9.48469 -2.42926,-1.53625 -2.66226,-1.20037 -3.32108,4.78763 -0.34795,3.1625 -0.92094,7.4375 -1.2733,9.5 -1.0745,6.28935 0.34774,4.20825 3.28235,-4.80294 z m -37.10089,-8.54485 c 0.37316,-0.60379 0.82105,-3.48904 0.99532,-6.41167 l 0.31685,-5.31387 -3.31117,2.16166 c -3.15522,2.05986 -3.24642,2.28885 -1.93631,4.86201 0.75618,1.48519 1.37487,3.39769 1.37487,4.25 0,1.78861 1.56373,2.06458 2.56044,0.45187 z M 156.61496,549.16515 c -1.925,-0.19902 -13.87642,-2.31354 -26.5587,-4.69893 -25.06048,-4.7136 -46.124683,-11.02917 -57.103783,-17.12113 -3.38937,-1.88065 -7.26216,-3.41937 -8.6062,-3.41937 -4.63688,0 -11.0403,-6.14531 -14.74042,-14.14626 -3.25286,-7.03381 -3.4307,-8.02808 -4.08762,-22.85374 -0.71723,-16.18667 -1.74244,-22.0929 -8.85266,-51 -3.9702,-16.14111 -4.83241,-22.04995 -7.07708,-48.5 -1.35988,-16.02411 -4.038975,-30.31166 -8.625575,-46 -2.092062,-7.15584 -3.680337,-15.0276 -3.934491,-19.5 -0.234412,-4.125 -0.897615,-16.2209 -1.473784,-26.87978 -0.686437,-12.69881 -1.866143,-23.38573 -3.422018,-31 -1.305941,-6.39112 -2.870456,-16.12022 -3.4767,-21.62022 -0.606245,-5.5 -1.996908,-17.425 -3.090363,-26.5 -3.950324,-32.78523 -5.85590404,-53.63388 -5.52974204,-60.5 0.375357,-7.9017 4.14249204,-19.7307 8.26973704,-25.96739 3.305307,-4.99465 4.451396,-2.90926 1.392376,2.53354 -1.18731,2.11253 -3.060724,6.44936 -4.163142,9.63741 -4.034334,11.66674 -4.099913,13.08213 -1.48509,32.05228 2.459641,17.84433 4.519668,35.25779 7.126929,60.24416 0.77478,7.425 2.759161,20.7 4.409738,29.5 2.36156,12.59059 3.215037,20.84271 4.005279,38.72634 1.058055,23.94439 1.290039,25.5799 6.015248,42.40787 4.933448,17.56958 6.633218,28.65977 8.983988,58.61626 0.71184,9.07118 2.42739,18.73799 5.94518,33.5 6.83839,28.69657 8.02189,35.63856 8.7289,51.20088 0.50143,11.03725 1.06308,14.66082 3.03001,19.54865 2.82821,7.0281 7.99983,12.16621 13.21582,13.13019 1.98229,0.36635 6.97916,2.39848 11.10416,4.51584 4.125,2.11736 8.06871,3.85069 8.76379,3.85185 0.69509,0.001 6.54509,1.74151 13,3.86743 6.454923,2.12591 16.011213,4.62541 21.236213,5.55443 5.225,0.92902 15.24044,2.78964 22.25654,4.1347 15.48298,2.96825 23.02441,3.0597 36.74346,0.44556 14.58747,-2.77961 35.31543,-2.78567 44.16091,-0.0129 3.4865,1.0929 8.85907,1.9929 11.93905,2 4.62414,0.0106 6.30851,-0.50037 9.6661,-2.93259 3.92895,-2.84612 21.65928,-22.37445 27.74131,-30.55451 1.63574,-2.2 6.175,-8.05 10.08724,-13 3.91224,-4.95 9.82552,-13.06582 13.14062,-18.03516 7.37725,-11.05853 15.68581,-21.54876 24.92103,-31.46484 3.84177,-4.125 8.87994,-10.0875 11.19593,-13.25 2.31599,-3.1625 4.62015,-5.75 5.12034,-5.75 4.48503,0 -1.11896,9.40632 -13.81981,23.1966 -9.58985,10.41242 -19.83398,23.5528 -26.51183,34.00732 -7.23381,11.3249 -34.99564,45.01466 -44.80147,54.36784 -9.53176,9.09175 -13.35164,9.75203 -30.77776,5.32004 -9.7652,-2.48359 -25.3217,-2.48095 -39.63677,0.007 -12.61997,2.19311 -19.4878,2.85132 -24.42489,2.34089 z m 448,-26.73943 c 0,-1.375 0.45,-2.5 1,-2.5 0.55,0 1,1.125 1,2.5 0,1.375 -0.45,2.5 -1,2.5 -0.55,0 -1,-1.125 -1,-2.5 z M 127.8982,511.22144 c -0.75364,-1.96395 2.03237,-4.65199 6.4269,-6.20089 2.08442,-0.73468 5.27438,-2.44626 7.08879,-3.80352 3.61743,-2.70598 6.56823,-2.48119 5.52408,0.42084 -0.51581,1.4336 -0.13708,1.32712 1.91136,-0.53736 1.80806,-1.64568 2.76817,-1.9797 3.2853,-1.14296 0.86555,1.40049 -8.98436,10.93103 -11.41117,11.04117 -0.88468,0.0402 -4.01397,0.41499 -6.95398,0.83297 -4.13692,0.58815 -5.46436,0.45018 -5.87128,-0.61025 z m 223.02972,-34.54572 c -3.86377,-3.9875 -7.34515,-8.2625 -7.73639,-9.5 -1.21572,-3.84533 -2.40553,-2.492 -3.07711,3.5 -0.85348,7.615 -1.18726,8.45677 -3.19966,8.06922 -1.48646,-0.28627 -1.75162,-2.06704 -2.05841,-13.82391 -0.60161,-23.05514 3.18841,-35.6406 12.73112,-42.27607 5.18897,-3.60812 5.60677,-0.64227 0.59396,4.21633 -4.597,4.4556 -7.54783,11.67672 -8.10886,19.84361 l -0.46169,6.72082 1.4992,-5.83957 c 1.51293,-5.89306 7.33992,-18.46455 10.50077,-22.65499 2.35057,-3.11622 4.39557,-2.32546 2.57205,0.99456 -2.27099,4.13471 -7.56794,15.18407 -7.56794,15.78659 0,0.30912 1.0125,-0.36017 2.25,-1.48731 3.65261,-3.32689 6.2705,-4.37878 7.5968,-3.05248 1.70912,1.70912 1.4002,2.63055 -0.69798,2.08187 -1.38364,-0.36183 -2.78458,0.92214 -5.5469,5.08374 -5.31997,8.01488 -6.61849,11.58276 -5.69687,15.65304 1.21321,5.35811 3.77824,9.60743 9.66392,16.00957 5.13151,5.5818 6.4916,7.92498 4.60003,7.92498 -0.45705,0 -3.99227,-3.2625 -7.85604,-7.25 z M 121.01889,453.91544 c -9.45273,-1.01014 -18.40393,-3.66508 -18.40393,-5.45864 0,-1.75139 1.70229,-2.92421 2.17705,-1.49992 0.45182,1.35544 16.55048,3.96014 24.50638,3.96503 3.40088,0.002 12.27461,-1.12119 19.71938,-2.49619 16.44408,-3.03711 18.86501,-3.13573 18.4103,-0.75 -0.19224,1.00861 -1.38834,1.86495 -2.82333,2.02133 -1.36938,0.14923 -7.43978,1.13006 -13.48978,2.17962 -14.33127,2.48621 -21.41711,2.96622 -30.09607,2.03877 z m 264.59607,-19.1284 c 0,-4.00855 14.50157,-19.87281 31.83553,-34.82708 7.85116,-6.77331 10.13886,-8.39319 10.84962,-7.68243 0.30569,0.3057 2.59131,-0.9984 5.07913,-2.898 2.48783,-1.89959 5.14504,-3.45381 5.90492,-3.45381 2.06935,0 -16.9511,17.86726 -27.73554,26.05396 -12.08433,9.17346 -16.05221,12.97716 -15.70911,15.05907 0.32276,1.95845 -2.93347,5.88697 -4.87954,5.88697 -0.73975,0 -1.34501,0.62686 -1.34501,1.39301 0,0.76616 -0.7118,1.66616 -1.58179,2 -2.30675,0.88518 -2.41821,0.81458 -2.41821,-1.53169 z m -7.5,-0.67816 c 0.55,-0.5729 2.35,-1.32688 4,-1.67552 2.07184,-0.43777 2.53592,-0.34239 1.5,0.30828 -2.43228,1.52772 -6.66398,2.57968 -5.5,1.36724 z m 357.24613,-7.80819 c -1.51037,-0.79137 -2.74613,-1.88603 -2.74613,-2.43259 0,-0.54656 1.4625,-0.24995 3.25,0.65912 4.02482,2.04691 4.06726,2.08439 3.06266,2.70527 -0.45123,0.27887 -2.05617,-0.14044 -3.56653,-0.9318 z M 256.61496,412.59088 c 0,-5.63784 3.6924,-15.225 14.98777,-38.91516 5.96591,-12.5125 10.69993,-22.75 10.52006,-22.75 -0.17988,0 -2.23955,3.4875 -4.57705,7.75 -6.73537,12.28217 -11.08069,18.37054 -12.84947,18.00381 -3.24811,-0.67344 -1.29949,-8.47226 8.8481,-35.41214 5.52973,-14.68034 9.83499,-26.9106 9.56725,-27.17835 -0.26775,-0.26774 -3.47408,5.77348 -7.12518,13.42494 -3.6511,7.65146 -8.14773,16.27424 -9.9925,19.16174 -3.53954,5.5402 -6.37898,6.86322 -6.37898,2.97226 0,-2.64536 3.87374,-14.83501 8.07685,-25.41571 1.60773,-4.04724 2.92212,-7.6844 2.92087,-8.08258 -0.001,-0.39818 -2.27133,3.32603 -5.04461,8.27603 -5.46501,9.75445 -7.3818,12.23342 -8.3046,10.7403 -0.83072,-1.34415 12.67024,-27.25137 16.45979,-31.58497 0.55566,-0.63543 1.877,-2.61783 2.9363,-4.40533 1.81602,-3.06442 4.78034,-4.69309 3.64017,-2 -3.62198,8.55511 -17.6548,46.10936 -18.20899,48.73038 -1.30335,6.16416 1.95668,1.85712 8.19591,-10.82816 8.64348,-17.57348 20.43453,-39.15222 21.39354,-39.15222 0.94929,0 -3.56081,12.9753 -16.85816,48.5 -9.39414,25.09704 -10.79718,29.5 -9.4004,29.5 1.24872,0 11.54233,-17.68617 24.15359,-41.5 10.82896,-20.44829 14.03974,-25.60019 14.03974,-22.52762 0,1.73186 -5.49034,13.69565 -22.26996,48.52762 -16.04653,33.31016 -17.28483,36.07436 -20.3041,45.32361 -3.25367,9.96737 -3.17063,11.26403 0.49637,7.75082 1.60727,-1.53986 7.05303,-10.73655 12.10171,-20.43709 5.04867,-9.70054 11.64953,-21.36837 14.66858,-25.92852 9.9424,-15.01756 20.3074,-24.35667 20.3074,-18.29743 0,2.26683 -5.06534,14.30496 -10.88295,25.86406 -3.89481,7.73869 -14.12309,31.73314 -14.11208,33.10546 0.003,0.3405 1.11155,-0.73091 2.46403,-2.38091 1.35249,-1.65 2.47526,-2.42856 2.49504,-1.73013 0.0636,2.2476 -4.93545,9.23013 -6.60825,9.23013 -3.82245,0 -0.45624,-9.22167 16.974,-46.5 4.11462,-8.8 7.30143,-16.18474 7.0818,-16.41054 -0.73365,-0.75424 -4.61498,3.33948 -10.34449,10.91054 -7.31969,9.67235 -10.51199,14.98496 -20.37361,33.90565 -8.32346,15.96956 -13.50943,23.09435 -16.80985,23.09435 -1.4683,0 -1.88364,-0.73534 -1.88364,-3.33484 z m 75.06445,-46.41516 c -4.7377,-4.92659 -12.50767,-18.42033 -11.81073,-20.51115 0.21891,-0.65673 2.14911,2.13828 4.28934,6.21113 2.14022,4.07286 6.31705,10.02529 9.28184,13.22761 6.42519,6.93997 4.82155,7.91684 -1.76045,1.07241 z m 119.06757,-0.5 c -0.56269,-1.7875 -1.75263,-7.3 -2.6443,-12.25 -3.52684,-19.57888 -4.95404,-23.01474 -14.38378,-34.6277 -8.35871,-10.29397 -12.39637,-14.71983 -11.28709,-12.3723 0.51978,1.1 2.12186,6.82067 3.56018,12.7126 1.43831,5.89193 3.68082,13.12235 4.98335,16.0676 2.7713,6.26641 14.20199,26.41695 16.44695,28.99343 1.13167,1.29878 1.24846,2.07058 0.43626,2.88278 -1.99277,1.99277 -3.65227,0.23849 -10.20309,-10.7858 -8.52874,-14.35291 -12.41974,-23.56614 -15.55313,-36.82719 -2.55819,-10.82669 -8.31695,-24.51446 -12.60998,-29.97216 -2.75016,-3.49626 -7.55632,-5.57126 -12.90429,-5.57126 -2.47278,0 -3.84665,-0.39558 -3.4731,-1 0.33992,-0.55 2.84148,-1 5.55902,-1 2.71754,0 4.94098,-0.34747 4.94098,-0.77216 0,-0.42468 -1.33407,-2.39061 -2.9646,-4.36873 -2.70791,-3.28516 -3.00099,-4.85911 -0.90478,-4.85911 0.4385,0 1.94324,1.6875 3.34387,3.75 2.79849,4.12094 14.66802,18.46553 26.87084,32.47401 9.17652,10.53437 17.23435,22.49889 18.61752,27.64388 0.53705,1.99766 1.42645,6.78211 1.97644,10.63211 0.54999,3.85 1.46365,9.42392 2.03035,12.38649 1.27609,6.6711 1.31282,10.11351 0.10791,10.11351 -0.50734,0 -1.38283,-1.4625 -1.94553,-3.25 z M 89.114957,328.27559 c -7.09251,-0.91199 -17.59558,-3.76011 -18.67861,-5.06508 -3.05888,-3.68572 -0.77937,-27.22047 5.14401,-53.10926 5.61846,-24.55611 8.61283,-34.65432 10.37805,-34.99885 0.9111,-0.17783 1.65655,-0.0162 1.65655,0.35917 0,0.37537 -2.01698,8.55047 -4.48218,18.16689 -8.07122,31.48482 -12.1523,57.66664 -10.1983,65.42636 1.19218,4.7344 16.8622,7.17428 28.269673,4.40169 3.85311,-0.9365 8.33432,-1.55154 9.95824,-1.36676 4.00049,0.45521 3.9636,3.24968 -0.0474,3.59201 -1.65,0.14083 -5.7,0.73569 -9,1.32193 -9.141423,1.62394 -9.777893,1.68621 -13.000003,1.2719 z M 311.01768,326.5328 c -1.43253,-3.73311 0.37363,-15.22273 3.83208,-24.37722 l 3.50214,-9.27015 -3.61847,-2.79747 c -1.99016,-1.53862 -6.76847,-4.88226 -10.61847,-7.43034 -7.59139,-5.02426 -28.28415,-23.00583 -29.18946,-25.36502 -1.32063,-3.44152 1.12107,-2.19527 8.40753,4.29122 11.84785,10.54709 18.15216,15.61672 25.28193,20.33051 3.575,2.36359 7.51073,5.20985 8.74606,6.32502 1.23533,1.11517 2.39933,1.83832 2.58666,1.60698 0.18734,-0.23134 1.85392,-3.12061 3.70352,-6.42061 1.8496,-3.3 5.01439,-8.39248 7.03286,-11.31661 4.31314,-6.24841 17.95197,-21.49565 18.62556,-20.82206 0.25572,0.25571 -2.31233,3.76652 -5.70677,7.8018 -11.85921,14.09813 -23.11673,33.47894 -27.92263,48.07125 -3.79486,11.52247 -1.74156,10.87764 2.33844,-0.73438 2.12573,-6.05 5.11318,-13.49279 6.63878,-16.53952 5.74536,-11.47393 22.74986,-31.55638 32.85756,-38.80503 3.56075,-2.55356 5.37344,-3.15545 9.50318,-3.15545 2.80673,0 8.25028,-0.9 12.09678,-2 3.8465,-1.1 8.57007,-1.99964 10.49682,-1.99921 4.11058,9.2e-4 12.69307,3.88159 22.50362,10.17525 3.85024,2.47001 7.45024,4.67866 8,4.90811 6.05801,2.52847 14.62011,8.91585 11.95145,8.91585 -1.07245,0 -19.92005,-10.20696 -28.27314,-15.31139 -7.79858,-4.76557 -8.98771,-5.18735 -14.5848,-5.17319 -3.68383,0.009 -8.98216,0.96084 -13.39675,2.4059 -6.83657,2.23787 -7.85,2.97106 -15.87425,11.48458 -9.32965,9.89852 -13.43931,15.57959 -20.68485,28.5941 -5.49489,9.86996 -8.24301,13.72842 -9.1394,12.83203 -0.35095,-0.35095 1.49302,-4.39422 4.09771,-8.98506 2.60469,-4.59083 5.75356,-10.17166 6.99749,-12.40183 3.42318,-6.13724 10.4904,-15.10987 18.37787,-23.33278 3.89745,-4.06321 6.89685,-7.57707 6.66534,-7.80859 -0.23152,-0.23151 -2.07978,0.27218 -4.10726,1.11931 -7.89768,3.29986 -28.26286,26.16209 -34.74741,39.00791 -1.6581,3.28468 -4.55584,10.26893 -6.43943,15.52057 -7.39129,20.60771 -8.81967,23.57583 -9.94029,20.65552 z m 26.59728,-2.72354 c 0,-1.59101 12.41743,-25.17646 15.98528,-30.36214 1.64342,-2.38863 5.35653,-6.43461 8.25137,-8.99108 5.64918,-4.98885 19.33864,-14.53032 20.84713,-14.53032 1.75032,0 0.90308,1.68496 -1.36742,2.71947 -2.94483,1.34175 -15.09194,10.51246 -20.09355,15.17003 -4.96812,4.62639 -11.0278,13.9234 -17.50734,26.8605 -4.90922,9.80179 -6.11547,11.60334 -6.11547,9.13354 z m 23.52778,-22.7512 c 8.51278,-8.06144 21.47222,-19.10572 21.47222,-18.29904 0,1.25557 -21.01265,20.1667 -22.40773,20.1667 -0.57019,0 -0.14921,-0.84045 0.93551,-1.86766 z m 37.01493,-9.06324 c -0.90853,-1.47003 0.51645,-1.86928 4.20729,-1.17879 0.83561,0.15633 -1.85196,2.07024 -2.94098,2.09438 -0.38004,0.008 -0.94988,-0.4036 -1.26631,-0.91559 z m -127.80981,-39.3191 c -0.23858,-0.6875 0.38943,-4.24754 1.39556,-7.91119 1.61878,-5.89448 1.67289,-7.18103 0.4701,-11.17758 -0.74758,-2.48401 -2.25432,-5.78647 -3.34831,-7.33881 -1.09399,-1.55233 -2.98598,-4.79175 -4.20442,-7.19872 -1.21844,-2.40696 -3.4147,-5.4881 -4.88059,-6.84696 -3.76009,-3.48559 -15.45732,-11.56441 -14.53738,-10.04041 0.41954,0.69502 6.31405,10.17124 13.09892,21.05828 11.13409,17.86583 12.96027,21.70539 10.32355,21.70539 -0.4574,0 -6.94254,-9.7875 -14.41143,-21.75 -7.46889,-11.9625 -15.5056,-24.52729 -17.85935,-27.92176 -5.56533,-8.02606 -13.9006,-18.32824 -14.82897,-18.32824 -1.10942,0 -4.29552,12.65872 -3.62554,14.40466 0.32319,0.84221 0.12698,1.81598 -0.43602,2.16393 -0.563,0.34795 -1.26802,-0.30188 -1.56671,-1.44408 -0.43334,-1.65711 -0.91161,-1.87949 -2.36695,-1.10062 -1.00313,0.53686 -2.58698,0.97611 -3.51967,0.97611 -2.42544,0 -1.47087,-7.09381 2.07828,-15.44465 l 2.7671,-6.51073 -4.64053,-5.4318 c -5.01637,-5.87172 -5.85018,-8.61282 -2.61993,-8.61282 1.25856,0 3.21821,1.69906 5.19612,4.50514 2.05306,2.9127 3.72477,4.33776 4.72939,4.03161 0.98608,-0.30049 2.58589,0.98135 4.37816,3.50797 1.55335,2.18983 3.21397,3.74065 3.69027,3.44629 1.91827,-1.18556 -1.50359,-6.8232 -6.38839,-10.5251 -10.17281,-7.70936 -10.20122,-7.73773 -8.99106,-8.9753 1.35521,-1.38591 5.75605,0.57415 8.77225,3.90701 2.05159,2.26698 3.59265,2.72638 3.59265,1.071 0,-0.56727 -0.7875,-1.31067 -1.75,-1.652 -2.65458,-0.94142 -5.25,-3.4521 -5.25,-5.0786 0,-1.01933 0.52146,-1.21488 1.75,-0.65625 0.9625,0.43766 3.18602,0.74464 4.94116,0.68218 2.20265,-0.0784 3.33143,0.40522 3.644,1.56124 0.3667,1.35621 0.59031,1.2468 1.17547,-0.57519 0.89314,-2.78091 2.89655,-2.86147 6.2165,-0.25 1.39842,1.1 3.4944,2.00164 4.65773,2.00364 1.16333,0.002 7.29014,1.37109 13.61514,3.04241 6.325,1.67133 13.975,3.64966 17,4.3963 3.025,0.74664 8.2,2.28863 11.5,3.42664 3.3,1.13801 11.60541,3.00956 18.45647,4.15899 18.74991,3.14575 25.29289,5.6441 35.09442,13.40033 l 4.39487,3.47779 1.16567,-5.70305 c 2.08637,-10.20752 7.26758,-21.86668 13.382,-30.11321 3.20633,-4.32436 6.34942,-8.1837 6.98466,-8.5763 2.21681,-1.37006 2.34603,0.51255 0.19252,2.80485 -1.19384,1.27078 -2.17061,3.01391 -2.17061,3.87362 0,0.8597 -0.675,2.1233 -1.5,2.80799 -0.825,0.68469 -1.5,2.28549 -1.5,3.55735 0,3.86661 -1.83529,7.42953 -4.31207,8.3712 -3.9656,1.50772 -8.10624,14.97686 -7.16626,23.31125 1.30448,11.5664 2.81567,19.3779 4.49226,23.22104 4.50871,10.33501 14.02301,19.28111 21.6689,20.3748 3.41448,0.48842 4.89028,1.18622 5.12886,2.42505 0.58386,3.03176 -7.50788,2.31784 -12.96669,-1.14403 -12.65588,-8.02612 -18.97987,-19.58574 -21.81011,-39.86666 -0.0192,-0.1375 -0.72271,-0.25 -1.56337,-0.25 -0.84067,0 -5.04938,-2.4113 -9.35269,-5.35845 -7.4265,-5.08607 -18.08767,-9.64171 -22.563,-9.64142 -2.09381,1.4e-4 9.94679,8.19676 15.94417,10.85397 1.65,0.73106 5.83766,3.35364 9.30591,5.82797 7.02211,5.00973 7.92295,7.81793 2.5079,7.81793 -1.72718,0 -3.47936,0.3375 -3.89373,0.75 -1.16255,1.15728 -7.88333,0.88675 -9.13791,-0.36783 -1.42455,-1.42455 -19.33908,16.36624 -25.26068,25.08618 -4.96068,7.30493 -6.72995,8.41435 -10.39038,6.51529 -2.58939,-1.34339 -2.79535,-1.26412 -4.69154,1.80564 -1.27732,2.06789 -1.77005,4.09394 -1.38429,5.69208 1.13592,4.70587 0.82213,6.01864 -1.43865,6.01864 -1.91876,0 -3.07731,2.52023 -3.10298,6.75 -0.0149,2.45643 -3.49337,3.26901 -4.28075,1 z m 14.41099,-26.36177 c 3.41801,2.39407 4.11403,2.07891 7.47353,-3.38402 3.96404,-6.44598 24.88975,-28.00421 27.18258,-28.00421 0.96524,0 2.74728,0.69503 3.96008,1.5445 1.73953,1.21842 2.65479,1.30383 4.33508,0.40457 2.03526,-1.08924 1.91703,-1.29135 -2.65861,-4.5445 -2.63373,-1.87251 -5.32665,-3.40457 -5.98427,-3.40457 -0.65762,0 -4.68892,-2.28042 -8.95845,-5.0676 -9.69213,-6.32708 -14.70469,-8.31228 -28.80519,-11.4081 -6.15375,-1.35108 -15.57614,-3.53425 -20.93864,-4.85148 -6.38477,-1.56834 -9.75213,-2.01148 -9.75616,-1.2839 -0.003,0.6111 -0.696,2.43396 -1.53913,4.05082 -1.41944,2.72201 -1.36948,3.35155 0.67457,8.5 6.42814,16.19086 14.21203,29.23814 22.93158,38.43764 5.59668,5.90476 6.6857,8.21648 3.76713,7.99673 -1.40864,-0.10606 -1.49983,0.25201 -0.57892,2.27319 l 1.09309,2.39907 2.7503,-2.63495 c 2.60593,-2.49664 2.8711,-2.55035 5.05143,-1.02319 z m -32.7622,-28.5453 c -0.97118,-1.83861 -3.39541,-7.39293 -5.38718,-12.34293 l -3.6214,-9 -5.93656,-0.55883 c -5.68977,-0.53561 -7.38233,0.0441 -7.42124,2.5419 -0.021,1.35011 22.88823,23.94673 23.57837,23.25659 0.30458,-0.30459 -0.24081,-2.05812 -1.21199,-3.89673 z m -34.55704,-18.57241 c 1.61404,-4.37402 1.70714,-5.41421 0.56911,-6.35869 -1.07326,-0.89073 -1.59679,-0.52547 -2.47889,1.72948 -2.8379,7.2546 -3.91317,10.77226 -3.89263,12.73442 0.0213,2.03868 0.0998,2.02354 1.94746,-0.37573 1.05887,-1.375 2.7936,-4.85327 3.85495,-7.72948 z m 17.17535,-7.7115 c 0,-1.05548 -1.91911,-1.49891 -2.48992,-0.57533 -0.34546,0.55897 0.0734,1.01631 0.9309,1.01631 0.85746,0 1.55902,-0.19844 1.55902,-0.44098 z m -3.92236,-10.92582 c -2.62545,-2.62546 -3.37598,-1.74042 -2.49707,2.94459 l 0.70954,3.78216 1.90481,-2.35233 c 1.87714,-2.31817 1.87543,-2.38171 -0.11728,-4.37442 z m 214.92236,89.76458 c -2.475,-1.41797 -8.1,-3.70969 -12.5,-5.09272 -9.11659,-2.86557 -22.07542,-8.61084 -24.62341,-10.91675 -1.5652,-1.41648 -1.81622,-1.36962 -2.83219,0.52873 -2.93962,5.49273 -7.96749,-0.16728 -8.11469,-9.13492 -0.0387,-2.35517 -0.45702,-5.18212 -0.92971,-6.28212 -0.78138,-1.81838 -0.86581,-1.76762 -0.92971,0.55887 -0.0387,1.40738 -0.65647,3.36051 -1.3729,4.3403 -2.10266,2.87556 -3.51672,0.0273 -4.44726,-8.95792 l -0.82241,-7.94125 -1.34418,4 c -1.91462,5.69748 -2.97062,6.83861 -4.86984,5.26239 -0.83652,-0.69425 -2.30336,-1.12972 -3.25965,-0.96771 -0.95628,0.162 -2.60605,-0.80811 -3.66615,-2.1558 -2.50113,-3.17967 -4.87374,-13.45304 -3.43843,-14.88835 0.71976,-0.71976 1.23921,-0.14884 1.68762,1.85483 1.79242,8.00934 3.10141,11.77414 4.22387,12.14829 0.90829,0.30277 1.23904,-1.49358 1.23904,-6.72933 0,-4.50693 0.36899,-6.91431 1,-6.52432 0.55,0.33992 1.00251,2.27898 1.00558,4.30902 0.003,2.03004 0.51823,5.49098 1.1448,7.69098 l 1.13923,4 1.27417,-3 c 0.70079,-1.65 1.82727,-6.825 2.50328,-11.5 0.67601,-4.675 1.54544,-8.86047 1.93206,-9.30104 0.38663,-0.44057 1.01805,4.87006 1.40316,11.80141 0.80042,14.40615 1.95345,19.51168 2.93583,12.99963 0.33188,-2.2 0.89417,-6.59345 1.24953,-9.76322 0.35536,-3.16976 1.02078,-5.99477 1.47871,-6.27779 0.9949,-0.61488 1.42299,2.1379 2.85636,18.36737 0.59876,6.77949 1.59044,13.26395 2.20373,14.4099 1.03407,1.93217 1.18617,1.95652 2.09351,0.3352 0.6411,-1.1456 0.62888,-3.12545 -0.0355,-5.74274 -0.87743,-3.4568 -0.75619,-4.21502 0.90082,-5.63379 1.58485,-1.35699 1.91469,-2.99364 1.91469,-9.5005 0,-5.8113 0.32338,-7.7533 1.2402,-7.4477 0.86021,0.28674 1.26071,3.22958 1.30715,9.60478 0.0524,7.18683 0.43096,9.55537 1.73599,10.86041 2.32038,2.32037 3.02493,1.17435 3.52456,-5.73297 0.23787,-3.28842 0.81105,-5.97895 1.27375,-5.97895 0.46269,0 1.30965,1.9125 1.88213,4.25 2.83342,11.56931 4.0474,14.43406 6.61174,15.60246 3.20425,1.45995 4.00734,0.98324 4.77032,-2.83165 0.84737,-4.23687 2.86326,-3.75852 5.18004,1.22919 1.48084,3.18805 2.7862,4.48908 5.22412,5.2068 3.49483,1.02887 4.35653,2.51525 1.5,2.5874 -0.99145,0.025 -0.0162,0.93901 2.25,2.10856 4.06321,2.09699 11.5,8.59622 11.5,10.05019 0,1.62455 -4.63694,0.69451 -9,-1.80517 z m 1.97994,-2.92195 c -0.69572,-0.83829 -1.52528,-1.26382 -1.84348,-0.94562 -0.3182,0.31819 0.0834,0.99718 0.8925,1.50885 2.11697,1.33881 2.39358,1.17499 0.95098,-0.56323 z m -14.93385,-7.39887 c -2.68726,-1.43097 -3.85176,-1.59076 -5.24628,-0.71987 -1.69514,1.05864 -1.69764,1.15686 -0.0461,1.81085 0.96046,0.38032 3.32128,0.70426 5.24628,0.71986 l 3.5,0.0284 -3.45391,-1.83921 z m -12.59063,-5.33242 c -0.83438,-2.17436 -3.61533,-3.09633 -4.6102,-1.52841 -1.22732,1.93426 -1.04754,2.38465 1.40474,3.51927 2.61015,1.20765 4.08205,0.29348 3.20546,-1.99086 z m 11.72787,-0.96121 c -0.71756,-0.71756 -1.18333,-0.7766 -1.18333,-0.15 0,0.56834 0.3,1.33334 0.66667,1.7 0.36666,0.36667 0.89916,0.43417 1.18333,0.15 0.28417,-0.28416 -0.0158,-1.04916 -0.66667,-1.7 z m -18.77725,-3.50133 c -2.00338,-3.17602 -3.45265,-2.71403 -2.25585,0.71909 0.8007,2.29692 1.39715,2.85153 2.20153,2.04715 0.77768,-0.77768 0.79371,-1.59407 0.0543,-2.76624 z m 4.2562,-3.532 c -0.27741,-0.6875 -0.50439,-0.125 -0.50439,1.25 0,1.375 0.22698,1.9375 0.50439,1.25 0.27741,-0.6875 0.27741,-1.8125 0,-2.5 z M 225.5988,240.40625 c -0.73601,-0.88684 -1.02,-2.87025 -0.69646,-4.86402 0.44182,-2.72263 0.22749,-3.34266 -1.12053,-3.24154 -1.26166,0.0946 -1.59217,-0.57348 -1.35964,-2.74847 0.33975,-3.17787 7.80616,-22.57182 9.26913,-24.0765 1.79836,-1.84964 0.90858,1.44766 -3.11806,11.55473 -2.22295,5.57971 -3.89335,10.59005 -3.712,11.1341 0.18135,0.54405 3.6366,-4.01212 7.67834,-10.12483 4.04174,-6.1127 7.78889,-11.114 8.32701,-11.114 0.53811,0 0.32644,1.0125 -0.4704,2.25 -9.22228,14.3224 -14.13737,25.68309 -12.72205,29.40565 1.03656,2.72638 -0.32994,3.92796 -2.07534,1.82488 z M 75.056107,232.63296 c -0.27284,-0.71102 0.19128,-6.18935 1.03139,-12.17407 1.973,-14.05522 1.93555,-14.30908 -0.91806,-6.22298 -5.258,14.89929 -9.53624,15.68741 -7.51057,1.38357 0.48416,-3.41877 1.79193,-11.80386 2.90616,-18.63355 1.11423,-6.82968 1.86511,-12.57836 1.66863,-12.77484 -0.19648,-0.19649 -1.39107,2.24643 -2.65465,5.42869 -3.29175,8.29016 -7.6148,16.79383 -9.49174,18.67077 -4.79127,4.79127 -4.58991,-1.65188 0.52769,-16.88483 2.2,-6.54848 4,-12.0894 4,-12.31317 0,-0.22377 -1.95621,2.23016 -4.34713,5.45316 -5.46844,7.37155 -8.01722,9.63366 -10.32847,9.16679 -1.42791,-0.28844 -1.8072,-1.26439 -1.74525,-4.49071 0.0551,-2.87113 -0.29355,-3.97916 -1.14885,-3.65095 -0.6754,0.25918 -1.46272,0.0914 -1.7496,-0.37274 -0.87112,-1.4095 6.85037,-18.7843 8.39443,-18.88903 0.78368,-0.0532 2.23178,-0.44625 3.218,-0.87354 3.18801,-1.38123 3.14225,0.3604 -0.21647,8.23956 -4.18178,9.80994 -6.21717,16.23063 -5.14519,16.23063 1.26856,0 7.2856,-6.95682 11.92151,-13.7835 7.67469,-11.30148 7.80768,-10.04 1.14702,10.8798 -2.75,8.63719 -4.97905,16.31142 -4.95344,17.05384 0.0654,1.89596 4.32903,-6.52225 8.01277,-15.82061 4.27333,-10.78655 6.01758,-14.32953 7.05461,-14.32953 1.50598,0 1.00181,5.92322 -2.11394,24.83558 -1.65,10.01539 -2.96208,19.21209 -2.91574,20.43711 0.14789,3.90921 3.64044,-5.08223 7.25886,-18.68766 1.84555,-6.93937 3.64835,-12.90983 4.00621,-13.2677 1.79897,-1.79896 1.74076,1.99072 -0.252,16.40525 -1.19964,8.67758 -2.4551,17.80128 -2.7899,20.2749 -0.55488,4.09957 -0.4627,4.37627 1.04191,3.12755 2.13359,-1.77072 2.18792,-0.0647 0.12498,3.92463 -1.61942,3.13161 -3.21577,3.78769 -4.03317,1.65758 z m 12.05885,-5.70724 c 0.33992,-0.55 0.81648,-1 1.05902,-1 0.24254,0 0.44098,0.45 0.44098,1 0,0.55 -0.47656,1 -1.05902,1 -0.58246,0 -0.7809,-0.45 -0.44098,-1 z m 422.717833,-33.25 c -4.47488,-15.51959 -5.49683,-24.18638 -4.95247,-42 0.39139,-12.8075 0.22425,-16.75 -0.71008,-16.75 -1.84674,0 -2.6488,1.18206 -1.63388,2.40799 0.63806,0.77071 -1.35426,1.14459 -6.77131,1.27071 -4.22146,0.0983 -12.61968,1.30612 -18.66273,2.68408 -6.04305,1.37796 -16.38736,3.46264 -22.98736,4.63264 -6.6,1.16999 -16.40824,3.01241 -21.79609,4.09425 -10.17146,2.04236 -18.05374,1.83745 -21.32472,-0.55435 -1.33659,-0.97734 0.25646,-1.19478 8.23174,-1.12359 7.61663,0.068 14.36941,-0.78189 29.38634,-3.69843 10.7235,-2.08268 21.9735,-4.41994 25,-5.1939 5.04406,-1.28991 18.89439,-3.93356 28.36922,-5.41489 l 3.8665,-0.60451 1.87612,-7.5 c 1.03187,-4.125 3.22195,-10.13617 4.86685,-13.35817 l 2.99072,-5.85816 -3.58177,0.67194 c -2.42492,0.45492 -3.36943,0.32836 -2.92433,-0.39183 0.58849,-0.95219 10.53942,-1.60341 10.53942,-0.68973 0,0.20572 -1.0882,2.34322 -2.41821,4.75 -3.20236,5.79493 -6.91855,18.334 -6.3363,21.37981 0.25511,1.3345 -0.0333,2.59207 -0.64083,2.79459 -0.76256,0.25418 -1.09604,7.15559 -1.07683,22.28488 0.0221,17.4238 0.3914,23.45416 1.80132,29.41667 2.65154,11.21325 3.04086,14 1.95583,14 -0.53719,0 -1.91741,-3.2625 -3.06715,-7.25 z M 200.86496,187.4271 c -1.8439,-2.0902 -1.59914,-3.20011 2.25,-10.20276 1.925,-3.5021 3.5,-6.57698 3.5,-6.83304 0,-1.38916 -2.41138,0.18592 -9.23843,6.03442 -4.17315,3.575 -7.90179,6.5 -8.28585,6.5 -0.38407,0 -0.39824,-1.59947 -0.0315,-3.55439 l 0.6668,-3.55439 -3.1233,1.61513 c -1.71782,0.88832 -3.65531,1.43383 -4.30552,1.21224 -0.65022,-0.22158 0.84279,-1.42524 3.31779,-2.67479 2.475,-1.24955 6.84223,-4.05967 9.70495,-6.24471 5.36728,-4.0967 8.22379,-4.40297 6.22457,-0.6674 -1.03698,1.93761 -0.98665,1.95185 1.39141,0.39369 1.60978,-1.05478 3.39223,-1.38449 5.12861,-0.94869 2.30972,0.57971 2.60316,1.08116 2.22108,3.79563 -0.59093,4.19821 -1.52535,6.93857 -4.05105,11.88049 -2.36484,4.62717 -3.53103,5.33271 -5.36957,3.24857 z m -4.75,-14.50138 c 0.99549,-1.1 1.58498,-2 1.30998,-2 -0.275,0 -1.31449,0.9 -2.30998,2 -0.99549,1.1 -1.58498,2 -1.30998,2 0.275,0 1.31449,-0.9 2.30998,-2 z m -41.27948,10.83845 c 0.21295,-0.63885 3.84116,-1.97656 8.06268,-2.97269 4.22153,-0.99613 9.91984,-2.94843 12.66291,-4.33845 5.23163,-2.65107 7.05389,-3.08668 7.05389,-1.68624 0,1.51781 -9.35851,5.97415 -16.98315,8.08704 -8.47353,2.34814 -11.35663,2.59124 -10.79633,0.91034 z m 359.05348,-26.83845 c 0.52233,-19.32845 1.95439,-27.74885 5.24523,-30.84155 1.65511,-1.55544 1.71611,-1.53423 0.98215,0.34155 -2.65439,6.78383 -3.71608,13.95481 -4.4055,29.75608 -0.42609,9.76585 -1.12282,18.09085 -1.54827,18.5 -0.42546,0.40916 -0.54858,-7.58108 -0.27361,-17.75608 z m -157.85098,7.37703 c 0.37687,-3.23237 1.42782,-8.35203 2.33545,-11.37703 0.90762,-3.025 1.67077,-5.95 1.69588,-6.5 0.0251,-0.55 0.30936,-1.225 0.63167,-1.5 0.32232,-0.275 2.18003,-2.975 4.12826,-6 3.81355,-5.92129 11.78572,-14.17568 11.78572,-12.20295 0,1.93548 3.065,1.38946 6.40561,-1.14112 3.20864,-2.43063 4.52452,-2.61861 30.34439,-4.33491 8.17121,-0.54316 9.25,-0.42279 9.25,1.03206 0,2.02171 -0.81412,2.05341 10.26059,-0.39946 11.25357,-2.49248 28.33159,-7.53587 31.73941,-9.37311 1.375,-0.7413 6.55,-2.56758 11.5,-4.05839 12.52711,-3.77286 40.31739,-13.376327 43.55916,-15.052707 2.52593,-1.306207 3.94084,-1.089987 3.94084,0.60223 0,0.40608 -2.025,1.92505 -4.5,3.37549 -2.475,1.45045 -4.5,2.843207 -4.5,3.095017 0,0.25182 1.8,0.45785 4,0.45785 2.61046,0 4,-0.45052 4,-1.296887 0,-1.34525 5.31387,-2.55302 23,-5.2276 11.63765,-1.759887 11,-1.750067 11,-0.16934 0,0.88763 -3.44629,1.85566 -10.75522,3.02102 -15.73189,2.50835 -18.56274,3.618967 -7.49478,2.940417 6.06359,-0.371737 9.25,-0.211207 9.25,0.46602 0,1.72051 -3.84704,2.32859 -18.70399,2.95643 -12.46797,0.52689 -14.52908,0.38725 -16.86379,-1.14251 -2.60562,-1.70727 -2.93755,-1.64643 -16.29601,2.98722 -7.49992,2.60149 -14.31217,5.31422 -15.13835,6.02828 -1.96085,1.69476 -27.47596,8.81464 -46.49786,12.97503 -8.25,1.8044 -19.67954,4.4465 -25.39897,5.87132 -11.9641,2.98051 -11.10103,2.84777 -11.10103,1.70723 0,-1.01487 0.009,-1.01815 14,-4.99259 12.67534,-3.60075 11.89345,-3.74144 -5.79599,-1.04287 -7.50326,1.14464 -14.96736,1.81616 -16.58687,1.49226 -1.74079,-0.34816 -3.79746,-0.0372 -5.03085,0.76064 -1.14746,0.74225 -3.3389,1.65811 -4.86987,2.03522 -2.89864,0.71401 -14.71922,11.93627 -14.71267,13.96796 0.002,0.63951 1.91456,1.91527 4.25,2.83501 2.33544,0.91975 8.52125,3.33099 13.74625,5.35833 9.46315,3.67176 15.42303,7.34666 10,6.16606 -1.375,-0.29934 -6.775,-2.23736 -12,-4.30672 -8.70736,-3.44853 -16.84535,-4.87791 -18.47778,-3.24548 -0.35445,0.35445 -1.42261,4.598 -2.37369,9.43012 -1.01708,5.1674 -2.28141,8.96972 -3.06998,9.23258 -1.06941,0.35647 -1.20207,-0.74245 -0.65553,-5.43012 z m 25.70466,-18.1206 c -3.90723,-0.21964 -6.95132,-0.93721 -7.86905,-1.85494 -2.01179,-2.01179 -1.1057,-2.67404 2.02832,-1.48249 6.44008,2.44851 32.75283,0.99988 46.21305,-2.54423 4.95,-1.30335 11.025,-2.36835 13.5,-2.36667 6.28169,0.004 12,1.74163 12,3.64589 0,1.03062 -0.5527,1.3479 -1.62875,0.93498 -6.81933,-2.61682 -10.67494,-2.83782 -19.00638,-1.08942 -5.86702,1.23123 -8.32455,2.16314 -7.99171,3.0305 0.34901,0.90951 -1.48479,1.36865 -6.69626,1.67657 -3.9473,0.23323 -7.31407,0.0957 -7.48172,-0.30575 -0.16766,-0.4014 -1.73969,-0.3183 -3.4934,0.18466 -3.09799,0.88849 -6.30985,0.91653 -19.5741,0.1709 z m 149.48774,-11.06968 c -0.32637,-0.52807 0.0766,-1.51622 0.89559,-2.19589 0.81894,-0.67966 1.48899,-1.7994 1.48899,-2.4883 0,-0.68891 1.45796,-1.54415 3.23991,-1.90054 1.78194,-0.35639 6.84444,-1.97346 11.25,-3.59349 4.40555,-1.62002 14.76009,-4.55651 23.01009,-6.52551 17.90813,-4.2741 28.87094,-7.54543 41,-12.23454 4.95,-1.91367 10.06141,-3.88491 11.35869,-4.38052 1.8746,-0.71616 2.12136,-1.18707 1.20233,-2.294437 -0.91033,-1.09688 -0.67335,-1.73165 1.11381,-2.98342 1.76997,-1.23974 1.90365,-1.5901 0.60669,-1.5901 -2.02164,0 -3.33204,-1.851937 -2.14439,-3.030597 0.47458,-0.47098 8.26008,-1.79149 17.30112,-2.93445 9.04104,-1.14297 16.69104,-2.35532 17,-2.69412 0.30896,-0.3388 -1.46325,-0.34877 -3.93825,-0.0222 -2.475,0.32662 -13.05,1.07545 -23.5,1.66408 -10.45,0.58862 -24.37953,1.49128 -30.95451,2.0059 -6.57497,0.51462 -12.14988,0.74029 -12.38868,0.50149 -1.38328,-1.38327 7.45056,-2.80943 22.34319,-3.60713 9.35,-0.50083 26.58737,-1.80438 38.30527,-2.8968 26.23763,-2.44599 39.19473,-2.62227 39.19473,-0.53317 0,1.40463 -5.55872,3.52971 -9.26357,3.54142 -0.96996,0.003 -2.54496,0.43034 -3.5,0.94949 -0.95504,0.51915 -8.18642,2.13636 -16.06974,3.59381 -13.91643,2.572827 -29.96415,7.237407 -25.41669,7.387847 4.89069,0.16179 1.8992,2.824997 -6.5,5.786707 -4.8125,1.69697 -13.925,4.96384 -20.25,7.25972 -6.325,2.29587 -20.275,6.37243 -31,9.059 -10.725,2.68658 -23.43666,6.25366 -28.24812,7.92684 -4.81147,1.67319 -9.62345,3.04216 -10.6933,3.04216 -1.06984,0 -2.59871,0.93305 -3.39747,2.07344 -0.79876,1.1404 -1.71932,1.64139 -2.04569,1.11331 z m -98.61542,-4.99508 c 0,-0.4992 3.9375,-1.46889 8.75,-2.15487 4.8125,-0.68599 10.55,-1.85037 12.75,-2.58752 l 4,-1.34028 -3.5,0.0468 c -1.925,0.0257 -3.95,-0.0436 -4.5,-0.15418 -1.85412,-0.37268 3.96765,-1.80142 7.75,-1.90196 4.3964,-0.11686 5.11345,1.95806 1.28022,3.70459 -6.43844,2.93358 -26.53022,6.25623 -26.53022,4.38742 z M 12.614957,113.11281 c 0,-0.4471 1.337971,-2.09477 2.973269,-3.66148 1.635297,-1.56671 3.699624,-5.03542 4.587391,-7.70824 0.887768,-2.672817 5.242125,-10.362644 9.67635,-17.088514 4.43422,-6.72587 12.66061,-19.20385 18.28086,-27.72885 5.62025,-8.525 13.20257,-21.35 16.8496,-28.5 7.7896,-15.27151 12.81492,-22.5000005 15.64225,-22.5000005 2.856,0 2.52445,1.13661 -2.39256,8.2020905 -2.41056,3.46385 -6.96273,11.47291 -10.11594,17.79791 -5.15837,10.34714 -11.56086,20.56865 -33.76138,53.89966 -3.80976,5.71982 -8.049906,12.989267 -9.422559,16.154334 -1.576683,3.63553 -3.914274,6.89465 -6.347868,8.85034 -3.792059,3.04738 -5.969413,3.88002 -5.969413,2.28275 z M 344.65309,87.675726 c -3.4432,-7.2875 -6.61655,-13.475 -7.0519,-13.75 -0.43535,-0.275 -1.89803,-2.975 -3.25039,-6 -1.35237,-3.025 -6.81072,-11.95263 -12.12968,-19.83917 -5.31895,-7.88654 -11.20204,-17.37975 -13.07352,-21.09601 -3.10756,-6.17079 -4.03715,-7.13393 -10.71766,-11.10443 -4.02324,-2.39117 -8.10147,-5.14057 -9.06275,-6.1097705 -3.06867,-3.09402 -16.78593,-6.7250303 -28.19153,-7.4624203 -5.80838,-0.37552 -10.5607,-1.06649 -10.5607,-1.53547997 0,-0.469 -4.3875,-0.83122 -9.75,-0.80495 l -9.75,0.0478 9,2.41008997 c 4.95,1.3255503 9.7875,2.1737303 10.75,1.8848403 0.9625,-0.28889 1.75,-0.0449 1.75,0.54213 0,0.58706 0.675,1.06739 1.5,1.06739 0.825,0 1.5,0.45 1.5,1 0,0.55 -1.125,1 -2.5,1 -5.67271,0 -2.07835,4.1687805 8,9.2785005 2.75,1.39425 6.19154,3.81446 7.64787,5.37825 2.75589,2.95923 12.87592,22.35817 12.82033,24.57508 -0.0545,2.17323 -2.94257,-2.3201 -7.62048,-11.85617 -5.15863,-10.516 -7.24038,-12.75912 -16.84772,-18.15365 -5.43717,-3.05298 -7.20996,-4.61984 -7.94043,-7.01809 -0.85749,-2.8152905 -1.621,-3.2712305 -8.65746,-5.1698705 -14.33851,-3.8689503 -22.47616,-4.56865027 -30.40211,-2.6140703 -3.85,0.9494203 -8.125,1.9478503 -9.5,2.2187303 -2.41381,0.47553 -2.43308,0.43853 -0.55887,-1.0731 1.06762,-0.8610903 2.64262,-1.5725003 3.5,-1.5809303 0.85738,-0.008 2.08082,-0.34741 2.71875,-0.75332 0.63794,-0.40589997 -2.28754,-0.58144997 -6.50106,-0.39009997 -4.21353,0.19134 -15.08783,-0.38366 -24.16511,-1.27779 -20.1031,-1.98018003 -24.47099,-1.49721003 -48.99371,5.41739027 -15.42041,4.34805 -18.83688,4.97106 -28.750003,5.2426605 -6.1875,0.16953 -11.25,0.0225 -11.25,-0.3268005 0,-0.99671 6.82233,-1.87367 14.670033,-1.88572 5.26574,-0.008 10.44474,-0.96926 19.5,-3.61904 23.81529,-6.9689003 26.91145,-7.6059403 36.82997,-7.5778403 5.225,0.0148 31.54148,0.32551 58.48107,0.69047 l 48.98107,0.66355 -1.86719,-2.06322 c -2.96098,-3.27185 0.45557,-3.82221 4.91525,-0.79178 2.69419,1.83075 4.60075,2.37214 7.31672,2.07767 29.85724,-3.23716 41.17308,-3.92591 41.17308,-2.50606 0,0.99018 -3.92186,1.49816 -25.25,3.27054 -8.1125,0.67415 -14.75,1.57451003 -14.75,2.00080003 0,0.42629 5.2875,2.39441997 11.75,4.37362027 14.81218,4.53638 25.02987,7.9572205 28.52792,9.5510405 3.59713,1.63896 3.58162,4.68984 -0.0279,5.49312 -6.71091,1.49348 -6.44443,1.12112 -4.10755,5.73966 4.57682,9.04548 14.14705,22.83606 14.94807,21.53998 0.56274,-0.91052 1.10325,-0.47408 1.85206,1.49545 0.58158,1.52967 1.05742,3.06739 1.05742,3.41716 0,0.34977 2.64581,5.83297 5.87958,12.1849 6.10276,11.98736 16.1204,34.414277 16.1204,36.089447 0,3.162487 -2.441,-0.6056 -7.96187,-12.290487 z m -35.03813,-71.75 c 0,-0.55 -0.47656,-1 -1.05902,-1 -0.58246,0 -0.7809,0.45 -0.44098,1 0.33992,0.55 0.81648,1 1.05902,1 0.24254,0 0.44098,-0.45 0.44098,-1 z M 266.37662,0.23864523 c -0.95609,-0.2503 -2.75609,-0.25938 -4,-0.0202 -1.24391,0.23919 -0.46166,0.44398 1.73834,0.45508 2.2,0.0111 3.21775,-0.18461 2.26166,-0.4349 z M 309.82746,78.738226 c -0.66687,-0.66688 -1.2125,-1.78732 -1.2125,-2.48988 0,-0.70256 -2.21974,-5.69412 -4.93275,-11.09236 -2.71301,-5.39824 -5.85999,-12.16743 -6.9933,-15.04264 -1.1333,-2.87522 -3.21923,-7.51421 -4.63539,-10.30887 -2.58857,-5.1083 -2.64594,-7.87875 -0.16314,-7.87875 1.3328,0 4.79867,6.73571 10.8056,21 1.7371,4.125 4.66485,10.21703 6.5061,13.53785 3.38851,6.1114 4.77504,12.43597 2.87538,13.11584 -0.57062,0.20422 -1.58313,-0.17432 -2.25,-0.84119 z"
     id="path4613" />
</svg>
