<?xml version="1.0" encoding="UTF-8" standalone="no"?>
<svg
   xmlns:dc="http://purl.org/dc/elements/1.1/"
   xmlns:cc="http://creativecommons.org/ns#"
   xmlns:rdf="http://www.w3.org/1999/02/22-rdf-syntax-ns#"
   xmlns:svg="http://www.w3.org/2000/svg"
   xmlns="http://www.w3.org/2000/svg"
   xmlns:sodipodi="http://sodipodi.sourceforge.net/DTD/sodipodi-0.dtd"
   xmlns:inkscape="http://www.inkscape.org/namespaces/inkscape"
   viewBox="0 0 381.99999 382.30569"
   height="382.30569"
   width="382"
   version="1.1"
   id="svg4685"
   inkscape:version="0.91 r13725"
   sodipodi:docname="smart_phone.svg">
  <sodipodi:namedview
     pagecolor="#ffffff"
     bordercolor="#666666"
     borderopacity="1"
     objecttolerance="10"
     gridtolerance="10"
     guidetolerance="10"
     inkscape:pageopacity="0"
     inkscape:pageshadow="2"
     inkscape:window-width="640"
     inkscape:window-height="480"
     id="namedview5685"
     showgrid="false"
     inkscape:zoom="0.61730705"
     inkscape:cx="96.646507"
     inkscape:cy="191.15285"
     inkscape:window-x="0"
     inkscape:window-y="0"
     inkscape:window-maximized="0"
     inkscape:current-layer="svg4685" />
  <metadata
     id="metadata4691">
    <rdf:RDF>
      <cc:Work
         rdf:about="">
        <dc:format>image/svg+xml</dc:format>
        <dc:type
           rdf:resource="http://purl.org/dc/dcmitype/StillImage" />
        <dc:title></dc:title>
      </cc:Work>
    </rdf:RDF>
  </metadata>
  <defs
     id="defs4689" />
  <path
     id="path4695"
     d="m 123.69732,384.69948 c -9.61307,-1.95153 -7.83999,-2.49219 8.27973,-2.52471 15.72648,-0.0317 17.67125,-0.25583 32.72028,-3.77034 8.8,-2.05514 16.45,-3.93467 17,-4.17675 2.10573,-0.92683 -9.50643,0.79623 -20.8806,3.09835 -12.62582,2.55545 -19.24144,3.02973 -19.78608,1.41849 -0.21887,-0.64751 -3.25203,-0.64301 -8.83333,0.0131 -18.47584,2.172 -20.55256,2.28696 -19.42342,1.07521 0.59211,-0.63544 3.51711,-1.44561 6.5,-1.80038 l 5.42342,-0.64503 -5.26735,-1.18911 c -2.89704,-0.65401 -6.08248,-1.92679 -7.07874,-2.82839 -1.13436,-1.02656 -3.55734,-1.63927 -6.48265,-1.63927 -5.49843,0 -6.208585,-1.62097 -1.12774,-2.57414 1.94893,-0.36562 3.39911,-1.09796 3.22263,-1.62742 -0.27053,-0.81159 -6.14064,-4.21606 -11.766145,-6.82398 -2.11389,-0.97998 -2.87358,-19.77268 -2,-49.47446 0.275,-9.35 -0.14367,-29.17854 -0.93039,-44.06343 -1.24052,-23.47101 -1.24052,-29.84257 0,-48 0.84753,-12.4052 1.4656,-37.84727 1.5168,-62.43657 0.0475,-22.825 0.70446,-55.225 1.45984,-72.000004 1.43277,-31.81774 1.47881,-38.1062 0.41598,-56.81999 -0.61305,-10.794401 -0.54905,-11.344539 1.37826,-11.848543 1.11164,-0.2907 2.263165,-1.159202 2.558945,-1.930004 0.29578,-0.770802 1.17877,-1.401458 1.96219,-1.401458 0.78341,0 1.70173,-0.722731 2.0407,-1.606069 0.41148,-1.07229 1.361,-1.4271451 2.85699,-1.06771 1.23237,0.296097 3.93431,-0.05525 6.00431,-0.7807801 3.23998,-1.135599 3.88035,-1.110587 4.60246,0.179765 0.73195,1.3079151 3.15905,1.1003841 19.04818,-1.62873 21.41868,-3.6788681 38.04081,-5.1811881 47.08574,-4.2556421 3.575,0.365821 17.52499,0.351262 30.99999,-0.03235 24.82678,-0.706783 52.90778,-0.101543 54.9898,1.1852161 1.05567,0.652437 3.66717,22.3627451 6.07532,50.5062951 0.51768,6.05 1.30257,15.24497 1.74419,20.43328 0.44162,5.1883 0.40715,21.3883 -0.0766,36.000004 -0.48375,14.61169 -0.69932,33.62039 -0.47903,42.24155 0.38647,15.1246 0.33109,15.66959 -1.57765,15.52581 -1.93009,-0.14539 -1.96202,-0.70872 -1.31365,-23.17482 1.93061,-66.896044 1.95401,-73.864434 0.25871,-77.025824 -1.55097,-2.89224 -1.61603,-2.49713 -1.81123,11 -0.11135,7.7 -0.0631,23.900004 0.10716,36.000004 0.26102,18.54608 0.0957,21.796 -1.05306,20.70063 -1.10994,-1.05836 -1.36097,-9.40519 -1.35337,-45.000004 0.005,-24.03535 -0.10668,-41.45063 -0.24846,-38.70063 -0.14179,2.75 -0.98847,10.03779 -1.88151,16.19509 -0.89305,6.1573 -1.32683,12.6823 -0.96396,14.5 0.36287,1.8177 1.03556,23.779914 1.49485,48.804914 0.83212,45.33872 0.84656,45.56203 4.07353,63 1.78115,9.625 3.569,19.42684 3.97301,21.78187 0.40401,2.35504 0.55223,8.65504 0.32938,14 -0.22285,5.34497 0.0164,12.41813 0.53176,15.71813 0.80246,5.13882 0.96784,3.48823 1.15223,-11.5 0.40236,-32.7067 1.48174,-56.04394 2.62648,-56.78718 0.60384,-0.39205 1.392,-4.27598 1.75146,-8.63094 0.60668,-7.35008 1.1226,-9.53811 2.00388,-8.49855 0.19427,0.22917 0.0177,3.79167 -0.39242,7.91667 -1.26708,12.74484 -3.17484,54.22383 -2.7366,59.5 0.22841,2.75 0.49641,-0.0359 0.59554,-6.19098 0.11671,-7.24612 0.5901,-11.44429 1.34293,-11.90956 0.87409,-0.54022 0.9982,2.71124 0.5,13.09909 -0.36448,7.59972 -0.66269,16.89652 -0.66269,20.65956 0,8.61049 -1.93901,9.14039 -2.16585,0.59189 -0.0912,-3.4375 -0.50687,2.75 -0.92366,13.75 -0.4168,11 -0.33874,27.65 0.17347,37 0.5122,9.35 0.9932,19.925 1.06887,23.5 0.0839,3.96243 0.68665,7.1386 1.544,8.13578 1.73958,2.02329 1.99909,15.56605 0.41128,21.46273 -0.68608,2.54789 -2.90533,5.96377 -5.91183,9.09949 l -4.81343,5.02031 -11.94142,1.22855 c -6.56779,0.67571 -16.89143,1.82846 -22.94143,2.56169 -6.05,0.73322 -11.37481,0.97144 -11.83291,0.52938 -1.00196,-0.96688 8.64761,-2.73053 24.43984,-4.46688 6.38381,-0.70189 12.12131,-1.59408 12.75,-1.98263 2.34799,-1.45114 1.03276,-2.44593 -1.88775,-1.42783 -1.66696,0.5811 -3.96211,0.81302 -5.10034,0.51536 -1.98373,-0.51876 -16.1216,1.7442 -17.94765,2.87276 -1.20046,0.74192 -15.90975,3.14998 -24.11171,3.94733 -4.96845,0.483 -6.55948,0.99188 -6.18141,1.9771 0.50953,1.32783 -6.70102,3.28471 -42.18952,11.44989 -20.3767,4.68825 -33.62495,5.93655 -42.93855,4.0458 z m 13.5,-12.01073 c -7.77729,-1.07511 -24.02574,-1.04345 -21.5,0.0419 1.1,0.47269 7.625,0.8277 14.5,0.78892 10.06949,-0.0568 11.43058,-0.21835 7,-0.83082 z m 63.91667,-2.60174 c 0.99176,-0.84822 -4.56103,-0.2311 -5.91667,0.65756 -1.05532,0.69179 -0.46242,0.79289 2,0.34104 1.925,-0.35323 3.6875,-0.8026 3.91667,-0.9986 z m -17.91666,-0.79322 c 7.30537,-1.27731 6.85124,-1.3211 -17.5,-1.68724 -35.31916,-0.53106 -48.49435,-0.46845 -48.49738,0.23046 -0.004,0.94621 25.84425,2.54728 42.99738,2.66329 8.81873,0.0596 18.73287,-0.46042 23,-1.20651 z m 21.72916,-0.16731 c -0.3323,-0.33229 -1.1948,-0.36781 -1.91667,-0.0789 -0.79773,0.31922 -0.56078,0.55618 0.60417,0.60416 1.05416,0.0434 1.64479,-0.19293 1.3125,-0.52522 z m -81.22917,-8.76107 c 1.65,0.0604 5.58285,0.45479 8.73967,0.87638 3.57812,0.47786 7.90899,0.32221 11.5,-0.4133 3.16818,-0.64891 15.21034,-1.58426 26.76034,-2.07857 13.35222,-0.57144 22.67961,-1.43442 25.61204,-2.36966 2.53663,-0.809 8.16163,-1.97279 12.5,-2.58619 4.33837,-0.6134 10.81295,-1.74818 14.38795,-2.52174 17.58968,-3.80604 28.94645,-5.5807 30.40149,-4.75066 1.44563,0.82467 -2.54194,3.21019 -5.34262,3.19616 -1.40738,-0.007 -5.70887,0.63711 -9.55887,1.43146 -11.77665,2.42983 -18.68926,3.66597 -25.98273,4.64635 -3.84051,0.51624 -9.69051,1.6878 -13,2.60347 -3.57477,0.98906 -12.30893,1.95226 -21.51726,2.37291 -15.41126,0.70401 -15.38836,0.70614 4,0.37186 20.29084,-0.34984 40.95626,-1.65013 42.62599,-2.68209 0.53225,-0.32895 6.79664,-1.2845 13.92087,-2.12344 14.32113,-1.68645 23.45313,-4.00759 23.45313,-5.96123 0,-0.70182 1.53028,-2.00579 3.40062,-2.89769 4.20509,-2.00526 8.05355,-6.96957 9.4956,-12.24878 0.60095,-2.2 1.08071,-9.175 1.06615,-15.5 -0.0297,-12.89739 -2.53742,-60.95191 -3.86169,-74 -0.47447,-4.675 -0.63739,-11.875 -0.36203,-16 0.354,-5.30311 -0.10799,-10.57564 -1.57719,-18 -6.42473,-32.46624 -6.36096,-31.75936 -6.81028,-75.5 -0.23165,-22.55 -0.85266,-44.566184 -1.38004,-48.924854 -0.79534,-6.57331 -0.60717,-9.98422 1.10333,-20 2.83619,-16.60723 1.40489,-36.56846 -3.31594,-46.244769 -2.27201,-4.656948 -2.6171,-9.330376 -0.68898,-9.330376 0.51175,0 0.93342,1.0125 0.93704,2.25 0.004,1.2375 0.93547,3.6 2.07077,5.25 l 2.06417,2.999995 -0.67333,-3.499995 c -1.34897,-7.012043 -2.5687,-8.417961 -7.97631,-9.1938551 -7.38509,-1.059628 -12.19908,-1.101184 -55.99189,-0.483346 -29.7704,0.420008 -42.41773,0.9718841 -49.45386,2.1579611 -5.19963,0.876498 -9.64023,1.779994 -9.868,2.007768 -2.00988,2.009877 19.8779,1.561569 28.32187,-0.580091 2.2,-0.557991 4.65776,-1.103158 5.46169,-1.211483 1.91212,-0.257648 2.62894,3.313803 0.8867,4.417906 -2.20103,1.394857 13.74573,0.988879 24.1516,-0.61486 12.12106,-1.86808 15,-1.884074 15,-0.08333 0,0.779166 -1.2375,1.86864 -2.75,2.421052 -2.56867,0.938157 -2.45327,1.009224 1.75,1.077757 4.80645,0.07837 10.9773,-1.250929 14.91364,-3.212626 1.90487,-0.949307 2.50254,-0.938055 2.83541,0.05338 0.23197,0.690926 0.94584,0.926215 1.58636,0.522864 0.64052,-0.403352 3.63959,-1.0074 6.66459,-1.34233 3.025,-0.33493 6.11875,-0.795218 6.875,-1.022864 2.37515,-0.714964 2.29316,1.701454 -0.0968,2.853021 -1.25301,0.603745 -1.7157,1.128174 -1.0282,1.165398 0.6875,0.03722 1.25,0.459133 1.25,0.937575 0,1.268154 -11.7938,3.547498 -16.70921,3.22933 -3.90845,-0.25299 -4.24999,-0.06977 -4.77993,2.564158 -0.88037,4.37563 -7.77079,17.2618 -10.01086,18.72188 -1.1,0.71698 -5.15,1.58943 -9,1.93878 -3.85,0.34935 -11.5,1.20623 -16.99999,1.90418 -15.14168,1.92148 -36.18975,1.1708 -50.25001,-1.79218 -2.38758,-0.50315 -3.02341,-3.26264 -1.17716,-5.10889 0.59007,-0.59006 0.92757,-2.57826 0.75,-4.41822 -0.28676,-2.97156 -0.75533,-3.44703 -4.19322,-4.25497 -4.82176,-1.13316 -10.32438,1.13578 -11.07665,4.56734 -2.53354,11.55704 -6.36929,48.64725 -7.52653,72.778694 -0.56708,11.825 -1.49655,28.25 -2.06549,36.5 -0.70691,10.25076 -0.71147,18.64108 -0.0144,26.5 0.56101,6.325 0.81691,14.65 0.56867,18.5 -0.55447,8.59912 0.20991,6.64439 1.36864,-3.5 l 0.85667,-7.5 0.12025,7.5 c 0.11924,7.4366 -1.90419,41.88488 -3.75923,64 -0.91161,10.8678 -0.85233,21.54082 0.36937,66.5 0.91023,33.49687 0.88982,34.3005 -0.94197,37.09616 -0.92451,1.41098 -1.43171,3.21487 -1.1271,4.00865 0.77981,2.03216 4.64088,3.33793 7.59815,2.56962 1.375,-0.35724 3.85,-0.60009 5.5,-0.53967 z m 137.15039,-18.39142 c -0.30243,-0.48935 -0.80358,-14.13179 -1.11367,-30.31653 -0.31008,-16.18475 -1.12019,-34.60181 -1.80025,-40.92681 -1.27222,-11.8325 -1.33965,-16.79124 -0.80907,-59.5 0.21812,-17.5581 -0.0414,-25.88757 -0.87174,-27.98166 -2.99805,-7.56075 -3.98757,-52.19535 -2.47229,-111.518344 0.37229,-14.575 0.73083,-31.79261 0.79676,-38.26135 0.099,-9.7166 0.36675,-11.666565 1.53992,-11.21613 0.78103,0.29987 1.72012,0.0597 2.08688,-0.533723 0.90163,-1.458869 2.21042,111.310517 1.37442,118.423637 -0.53874,4.58381 -0.40314,5.53315 0.72833,5.09891 1.17838,-0.45225 1.36332,8.19678 1.2132,56.73775 -0.12021,38.8661 0.24145,63.05269 1.12537,75.26112 0.75602,10.44194 1.35479,15.12278 1.42713,11.15646 0.0908,-4.97932 0.46377,-6.721 1.37462,-6.41929 1.71564,0.56829 2.83922,17.23266 2.51173,37.25262 -0.16421,10.03837 -0.63433,15.90685 -1.26173,15.75 -1.29279,-0.3232 -1.2252,0.66276 -1.40541,-20.5 -0.11571,-13.58878 -0.43074,-17.77624 -1.23341,-16.39508 -0.64462,1.10921 -1.21521,10.30197 -1.4193,22.86638 -0.18772,11.5563 -0.54388,21.21403 -0.79146,21.46161 -0.24758,0.24758 -0.69759,0.0498 -1.00003,-0.43957 z M 255.9149,144.9944 c -0.22985,-1.52006 -0.42406,-0.51375 -0.43157,2.23625 -0.007,2.75 0.18056,3.99369 0.41792,2.76375 0.23736,-1.22994 0.24351,-3.47994 0.0136,-5 z m -34.71758,158.18067 c 0,-0.48503 10.7487,-19.26068 11.65633,-20.36109 0.18902,-0.22916 0.61203,-0.1483 0.94003,0.1797 0.76304,0.76304 -10.50823,20.73697 -11.70186,20.73697 -0.49197,0 -0.8945,-0.25001 -0.8945,-0.55558 z m -16.9682,-5.36111 c -0.0324,-1.44175 24.42277,-49.81113 26.04636,-51.51664 0.48868,-0.51334 1.15593,-0.66591 1.48279,-0.33905 0.60508,0.60507 -23.22259,47.62209 -25.98423,51.27238 -1.04485,1.38105 -1.52296,1.56157 -1.54492,0.58331 z m -12.03179,-20.55861 c 0,-0.26141 4.85151,-7.57391 10.78116,-16.25 5.92964,-8.67608 14.32486,-21.1747 18.65605,-27.7747 4.33118,-6.6 8.06364,-11.44804 8.29435,-10.77343 0.57624,1.68495 -35.22035,55.15225 -36.98157,55.23724 -0.4125,0.0199 -0.74999,-0.17769 -0.74999,-0.43911 z m -8.70532,-17.2747 c 4.41386,-8.02107 15.11724,-25.1714 15.48177,-24.80687 0.67673,0.67673 -13.95423,25.55687 -15.02892,25.55687 -0.47606,0 -0.67984,-0.3375 -0.45285,-0.75 z m -59.25898,-31.70312 c 2.37852,-2.36039 8.75842,-4.68901 9.51093,-3.47142 0.804,1.30091 0.89356,1.23323 -4.31688,3.26192 -5.38011,2.09475 -7.16638,2.1668 -5.19405,0.2095 z m 17.96429,-14.52929 c 0,-7.58945 1.11408,-11.01759 3.5805,-11.01759 1.18166,0 1.36859,0.75446 0.85941,3.46864 -0.3579,1.90774 -0.94079,5.80842 -1.29532,8.66817 -1.01952,8.22388 -3.14459,7.46752 -3.14459,-1.11922 z m -21.92971,1.73241 c 0.0386,-1.2375 0.41103,-3.12013 0.82749,-4.18362 1.13402,-2.89584 2.39341,-0.16862 1.59686,3.45802 -0.76405,3.47872 -2.52684,4.00632 -2.42435,0.7256 z m 4.78565,-10.22739 c -0.26256,-0.26256 -1.57506,-0.64445 -2.91666,-0.84864 -1.35467,-0.20618 -2.59529,-1.16911 -2.79015,-2.16562 -0.28636,-1.46448 0.0813,-1.66253 2,-1.07724 5.10555,1.55744 12.13157,1.79637 15.93288,0.54182 5.10679,-1.68539 6.05519,-0.6365 1.78077,1.96944 -3.0827,1.8794 -12.6305,2.95657 -14.00684,1.58024 z m -2.84229,-13.80399 c 0.0177,-4.16972 0.98465,-7.71862 2.10307,-7.71862 1.409,0 0.62035,9.88692 -0.83315,10.44468 -0.8824,0.33861 -1.2793,-0.51341 -1.26992,-2.72606 z m 4.52906,-0.64952 c -0.89458,-1.44746 1.30589,-2.32391 4.08397,-1.62666 1.38215,0.3469 5.19533,0.10301 8.47371,-0.54197 6.96601,-1.37048 8.76109,-0.57619 3.58527,1.5864 -3.97203,1.65962 -15.22623,2.06553 -16.14295,0.58223 z m 34.89843,-4.50178 c -3.25291,-2.40086 -0.60207,-3.95702 4.43167,-2.60157 4.31127,1.1609 5.22952,2.39727 2.54541,3.42726 -2.55925,0.98208 -4.90365,0.70463 -6.97708,-0.82569 z m 22.19835,-2.26117 c -1.90942,-1.90942 1.5383,-20.68658 4.3412,-23.64328 1.78284,-1.88067 1.7605,1.30198 -0.0551,7.84959 -1.05907,3.81934 -1.92558,8.83994 -1.92558,11.15688 0,4.03391 -0.9997,5.99763 -2.36052,4.63681 z m 6.36052,-0.30615 c 0,-0.55 2.36249,-0.99311 5.24999,-0.98469 3.75845,0.011 4.82384,0.29072 3.75,0.98469 -1.979,1.27893 -8.99999,1.27893 -8.99999,0 z M 143.95,181.06778 c -0.55385,-0.9801 0.66793,-12.547 1.76343,-16.69479 0.71259,-2.69803 0.63335,-2.7927 -1.41845,-1.6946 -1.19526,0.63968 -3.00322,0.89962 -4.01769,0.57764 -1.01447,-0.32198 -4.37247,0.36042 -7.46223,1.51645 l -5.61774,2.10187 0,6.92815 c 0,3.9521 -0.42956,6.92815 -1,6.92815 -0.55664,0 -1,-2.68634 -1,-6.05902 0,-3.48487 -0.39549,-5.81459 -0.9309,-5.48369 -1.42113,0.87831 -1.93014,-0.70382 -1.00956,-3.13795 0.56769,-1.50105 2.54962,-2.72438 6.3595,-3.92534 4.43799,-1.39895 5.31297,-2.01198 4.41538,-3.09351 -1.55772,-1.87694 -0.10478,-2.9927 1.96354,-1.50786 4.90138,3.51869 5.99109,3.61274 10.1292,0.87427 2.18714,-1.44738 4.20235,-2.26637 4.47824,-1.81997 0.27589,0.4464 -0.15841,3.00474 -0.9651,5.68519 -0.8067,2.68045 -1.936,7.81977 -2.50955,11.42071 -1.00987,6.34034 -2.20232,9.11101 -3.17807,7.3843 z m 11.63228,-2.93945 c -1.28398,-5.11582 1.44647,-22.89958 3.24049,-21.10558 0.31321,0.31322 2.72566,-0.75723 5.36099,-2.37877 3.90715,-2.40409 5.25446,-2.77224 7.29972,-1.99463 1.37951,0.52448 2.78125,0.68057 3.11497,0.34685 0.33372,-0.33372 1.72999,0.44845 3.10282,1.73815 1.82168,1.71138 2.4669,3.311 2.38812,5.92061 -0.1994,6.60585 -2.37004,16.41898 -3.73019,16.86365 -1.08876,0.35594 -1.2057,-1.43058 -0.6275,-9.58622 l 0.71065,-10.02368 -3.07285,-1.58903 c -4.48093,-2.31718 -5.51022,-2.04879 -10.70838,2.79222 l -4.70448,4.38125 -0.12966,8.61702 c -0.12933,8.59519 -1.00719,10.94878 -2.2447,6.01816 z m 71.61504,0.60232 c 0,-0.55 0.45,-1 1,-1 0.55,0 1,0.45 1,1 0,0.55 -0.45,1 -1,1 -0.55,0 -1,-0.45 -1,-1 z m -6.25,-0.57975 c -0.4125,-0.41447 -0.75,-5.34899 -0.75,-10.9656 l 0,-10.21201 2.75,-1.04271 c 1.5125,-0.57348 5.6111,-1.26481 9.10799,-1.53628 l 6.358,-0.49358 -0.608,3.03997 c -0.33439,1.67198 -0.60799,5.45871 -0.60799,8.41496 0,2.95625 -0.45,5.375 -1,5.375 -0.5641,0 -1,-2.83333 -1,-6.5 l 0,-6.5 -6.46617,0 -6.46617,0 -0.28383,10.58691 c -0.15611,5.8228 -0.62133,10.2478 -1.03383,9.83334 z m -15.53674,-19.54329 0.47024,-8.12305 -6.59175,0.4871 c -5.47324,0.40445 -9.78981,1.68171 -15.34174,4.53959 -0.4125,0.21234 -0.75,-0.50188 -0.75,-1.58714 0,-1.36322 1.41356,-2.63766 4.57264,-4.1226 3.73449,-1.75542 6.0617,-2.09637 12.6964,-1.86013 l 8.12377,0.28927 -0.23991,6 c -0.32376,8.09694 -1.16657,12.5 -2.39269,12.5 -0.6447,0 -0.84499,-2.97462 -0.54696,-8.12304 z M 123.6027,131.96869 c 0.23881,-7.37603 0.5828,-13.52642 0.76441,-13.66754 1.3517,-1.05032 21.2343,-3.44374 22.53959,-2.71326 1.2888,0.72124 1.55212,2.49151 1.37844,9.26716 -0.11807,4.60658 -0.61941,8.78638 -1.11409,9.28844 -1.62771,1.65201 -3.16263,-4.63967 -2.47933,-10.16284 0.73847,-5.96905 1.23019,-5.74173 -8.43309,-3.89857 -7.38198,1.40803 -7.40278,1.44202 -8.58202,14.0263 l -0.69009,7.36433 3.1545,0.46298 c 2.92508,0.42932 5.42345,0.1439 15.3063,-1.74862 5.76051,-1.10311 4.61662,1.07564 -1.83135,3.48813 -4.09816,1.53332 -7.5566,2.03726 -13.01441,1.89635 l -7.43306,-0.1919 0.4342,-13.41096 z m 33.59462,12.84142 c 0,-0.89254 1.35732,-1.2678 9.25001,-2.55738 4.9153,-0.8031 4.83328,0.83679 -0.11602,2.31963 -4.64213,1.39082 -9.13399,1.50774 -9.13399,0.23775 z m 41.67589,-5.48169 c -0.83487,-2.17563 0.21029,-2.59777 6.43176,-2.59777 6.35793,0 8.47433,1.44803 4.38742,3.00187 -3.90356,1.48414 -10.18462,1.24953 -10.81918,-0.4041 z m 24.37746,-0.0335 c -1.48308,-1.78701 -1.6038,-1.69533 2.70955,-2.05755 2.82022,-0.23683 5.16494,0.89875 4.08519,1.97851 -1.39775,1.39774 -5.65917,1.44731 -6.79474,0.079 z m -35.01438,-1.75285 c -2.07065,-2.22256 -2.7206,-4.81142 -1.20794,-4.81142 0.45706,0 1.4331,1.125 2.16898,2.5 0.73588,1.375 1.71192,2.5 2.16898,2.5 0.45706,0 0.83102,0.45 0.83102,1 0,1.6676 -1.80461,1.1261 -3.96104,-1.18856 z m -33.03897,-2.97951 c 0,-3.72801 1.2656,-13.32881 2.59296,-19.67016 0.40047,-1.91318 0.75299,-2.11953 1.93917,-1.13509 1.36178,1.13018 8.36743,0.71659 12.09573,-0.71409 0.80308,-0.30817 1.37215,0.12327 1.37215,1.0403 0,1.60899 -4.82477,3.40182 -10.46913,3.89022 -2.96873,0.25688 -2.96928,0.25817 -4.19455,9.75691 -0.674,5.225 -1.25039,9.8375 -1.28089,10.25 -0.0305,0.4125 -0.50544,0.75 -1.05544,0.75 -0.55,0 -1,-1.87564 -1,-4.16809 z m 20.3091,-9.93067 c 0.29703,-6.60623 0.94978,-11.48753 1.56353,-11.69211 1.90892,-0.63631 2.3565,4.63207 1.12848,13.28312 -1.81297,12.77188 -3.29832,11.89402 -2.69201,-1.59101 z m 45.91407,0.84876 c 0.22893,-5.0875 0.77052,-10.0375 1.20352,-11 0.56177,-1.2487 0.34742,-1.75 -0.74827,-1.75 -1.97094,0 -4.87266,-2.8767 -4.12385,-4.08829 0.31512,-0.50988 1.28634,-0.21366 2.15826,0.65827 0.97027,0.97027 2.40041,1.34698 3.68625,0.97101 1.1555,-0.33787 4.52399,-0.89202 7.48552,-1.23144 4.36207,-0.49995 5.29669,-0.35056 4.92167,0.78666 -0.25461,0.77208 -1.55268,1.52977 -2.8846,1.68374 -6.08283,0.7032 -6.65926,1.12084 -7.80007,5.6514 -0.61688,2.44986 -1.12774,6.39252 -1.13525,8.76147 -0.0168,5.28592 -0.89616,8.80718 -2.19951,8.80718 -0.59924,0 -0.81821,-3.59332 -0.56367,-9.25 z m -32.58368,5.55615 c -1.21205,-1.21205 -0.62411,-11.81199 0.80738,-14.55615 1.3837,-2.65255 1.34509,-2.75 -1.0895,-2.75 -3.60746,0 -2.44102,-2.26035 1.71741,-3.32799 8.42605,-2.16332 12.18389,-1.88432 17.67522,1.3123 7.27857,4.23702 6.99562,6.08839 -0.5,3.27147 -0.82557,-0.31025 -1.25,0.54277 -1.25,2.51223 0,4.17701 -1.11262,9.28042 -1.91515,8.78443 -0.3694,-0.2283 -0.41004,-3.15119 -0.0903,-6.49532 l 0.58132,-6.08022 -3.33369,-0.92048 c -5.70152,-1.57426 -8.6693,0.18361 -10.16541,6.02116 -0.70585,2.75412 -0.99808,6.52825 -0.64938,8.38697 0.59678,3.18109 -0.37035,5.25914 -1.78789,3.8416 z m 46.36051,-4.68787 c 0,-0.85161 0.65729,-3.4844 1.46065,-5.85063 0.80336,-2.36624 1.96565,-6.65696 2.58286,-9.53495 1.1449,-5.33847 2.24933,-6.5179 3.36963,-3.59846 0.83475,2.17532 -0.21297,7.42149 -2.83305,14.18571 -2.0719,5.349 -4.58009,7.97671 -4.58009,4.79833 z M 119.67067,102.1171 c 0.43562,-1.03755 0.88073,-7.847354 0.98912,-15.132894 0.10839,-7.28554 0.43687,-13.48623 0.72995,-13.77931 0.29308,-0.29308 5.72506,-0.81113 12.07107,-1.15122 l 11.5382,-0.61835 0.67775,7.89766 c 0.37277,4.34371 0.75489,8.52598 0.84916,9.29392 0.0943,0.76794 -0.34127,1.57633 -0.96786,1.79642 -1.03923,0.36502 -3.36074,-9.36934 -3.36074,-14.09198 0,-1.17213 -0.56807,-1.57702 -1.75,-1.24734 -0.9625,0.26848 -5.2375,0.7872 -9.5,1.15271 -4.8368,0.41476 -7.75513,1.10237 -7.76365,1.82925 -0.008,0.64057 -0.285,2.17718 -0.61664,3.41468 -0.44154,1.64763 -0.17427,2.25 0.99833,2.25 1.36417,0 1.50886,0.92551 0.97709,6.25 -0.77425,7.75236 -2.40586,12.952654 -4.25448,13.559924 -1.04254,0.34248 -1.2032,-0.028 -0.6173,-1.42347 z m 7.07665,-0.23776 c 0.99086,-0.88792 12.20326,-4.148694 14.2656,-4.148694 2.80336,0 0.81589,1.93756 -3.49374,3.406004 -4.94705,1.68563 -12.39734,2.19931 -10.77186,0.74269 z m 28.87651,-2.479614 c -0.91322,-2.37982 0.17,-21.78326 1.50279,-26.91908 l 1.23268,-4.75 4.71901,0 c 2.59546,0 5.18809,0.46907 5.7614,1.04238 0.72318,0.72318 1.42013,0.58722 2.27594,-0.44396 0.97572,-1.17568 1.74022,-1.25549 3.65762,-0.38187 2.16258,0.98534 2.42406,1.73438 2.42406,6.94397 0,4.52398 -0.33791,5.83948 -1.5,5.83948 -1.07246,0 -1.5,-1.09259 -1.5,-3.83333 0,-4.45961 -0.76856,-5.60364 -2.69208,-4.00726 -1.0333,0.85757 -1.9281,0.84771 -3.59201,-0.0396 -1.21875,-0.6499 -3.53422,-1.28023 -5.14548,-1.40074 -3.84835,-0.28781 -4.3434,1.53616 -4.47076,16.47188 -0.091,10.67465 -1.18271,15.362184 -2.67317,11.4781 z m 5.5735,-0.54867 c 0,-1.71238 6.79215,-4.12041 11.62212,-4.12041 6.4213,0 5.33654,1.47766 -2.08921,2.8459 -3.5569,0.65539 -7.1569,1.45632 -8,1.77984 -0.8431,0.32353 -1.53291,0.0961 -1.53291,-0.50533 z m 32.47217,-2.16542 c -0.85951,-1.39072 3.09065,-2.95499 7.46208,-2.95499 3.79757,0 5.61777,1.58315 2.81574,2.44905 -3.07319,0.94969 -9.79894,1.28078 -10.27782,0.50594 z m -7.06979,-3.4879 c -0.60628,-2.41564 1.118,-17.3208 2.1196,-18.32241 1.32899,-1.32899 1.58447,1.61475 0.93507,10.77453 -0.7009,9.88626 -1.79145,12.58094 -3.05467,7.54788 z m 37.83256,0.86939 c 1.94612,-1.94612 12.76505,-3.22363 12.76505,-1.50731 0,1.33438 -6.31613,3.15777 -10.96429,3.16525 -3.23071,0.005 -3.35212,-0.10658 -1.80076,-1.65794 z m -5.72082,-6.27215 c -0.37851,-1.72333 -0.53653,-7.8087 -0.35116,-13.52303 l 0.33703,-10.3897 2.875,-0.5758 c 1.58125,-0.31669 3.83125,-0.57857 5,-0.58196 1.16875,-0.003 3.41394,-0.67839 4.98931,-1.5 3.86663,-2.01659 6.52279,-1.91133 6.46363,0.25616 -0.0263,0.9625 0.47613,5.24095 1.11643,9.50766 1.11458,7.427 0.83848,10.3442 -0.87857,9.28301 -0.4378,-0.27058 -1.33236,-3.31542 -1.98791,-6.76632 -1.79798,-9.46489 -2.03347,-10.01742 -3.91823,-9.19329 -0.91281,0.39914 -3.68466,0.99419 -6.15966,1.32233 l -4.5,0.59661 -0.28495,11.48495 c -0.28779,11.59958 -1.43045,15.86379 -2.70092,10.07938 z m -14.51413,-12.86433 c 0,-6.67814 1.00835,-9.2 3.67856,-9.2 0.93193,0 1.02906,0.61 0.35826,2.25 -0.50616,1.2375 -1.20389,4.8375 -1.55051,8 -0.86793,7.91877 -2.48631,7.2353 -2.48631,-1.05 z m -16.99999,-6.49597 c 0,-0.90086 1.7138,-1.89814 4.44282,-2.58532 5.48236,-1.38047 6.7125,-1.39035 10.15491,-0.0815 4.07289,1.54851 1.86833,2.65525 -6.84774,3.43773 -6.46005,0.57995 -7.74999,0.45164 -7.74999,-0.77086 z m 63.74999,-15.28222 c -0.92447,-0.93081 -0.85761,-23.25288 0.0881,-29.42181 0.37943,-2.474995 0.95424,-4.049995 1.27736,-3.499995 0.86094,1.465481 -0.48072,33.812645 -1.36549,32.921805 z M 107.86136,318.98065 c 0.18007,-81.8705 1.8188,-206.6042 2.73378,-208.08467 0.2856,-0.46212 0.55855,-8.00087 0.60654,-16.752774 0.11455,-20.89039 1.08042,-37.4782 2.144,-36.82087 0.4684,0.28949 0.91766,2.63729 0.99834,5.21733 0.0807,2.58004 0.67458,-2.05902 1.31975,-10.30902 0.64518,-8.25 0.84969,-15.38197 0.45446,-15.84883 -0.852,-1.00643 -1.56548,2.38571 -2.43964,11.59883 -0.46876,4.94043 -1.02975,6.75 -2.0926,6.75 -1.20312,0 -1.40383,-2.01499 -1.17041,-11.75 l 0.28174,-11.75 4.99132,-0.5 c 3.87735,-0.38841 5.07166,-0.92298 5.3513,-2.39526 0.31592,-1.66331 -0.0502,-1.80682 -2.99132,-1.1726 -8.68621,1.87306 -11.13241,1.90391 -12.41012,0.15653 -1.13017,-1.54559 -1.31019,-1.43685 -1.81759,1.09792 -0.30974,1.54738 -0.81217,13.38841 -1.1165,26.31341 -0.30433,12.925 -1.0248,32.275 -1.60104,43 -0.61728,11.488804 -0.77175,32.235754 -0.37598,50.500004 0.53628,24.74948 0.32412,35.73829 -1.052245,54.5 -1.40227,19.11477 -1.57358,28.72495 -0.91804,51.5 0.87499,30.39936 1.10117,61.0201 0.59149,80.07661 -0.32961,12.32352 0.41195,16.04099 4.423115,22.17339 3.78596,5.78809 3.99873,3.83713 4.08965,-37.5 z m 2.02895,24.01903 c -0.25354,-0.97297 -0.47766,-0.41903 -0.49804,1.23097 -0.0204,1.65 0.18706,2.44606 0.46099,1.76903 0.27392,-0.67703 0.29059,-2.02703 0.0371,-3 z M 270.90305,40.480646 c -0.23835,-1.2375 -0.43337,-0.225 -0.43337,2.25 0,2.475 0.19502,3.4875 0.43337,2.25 0.23836,-1.2375 0.23836,-3.2625 0,-4.5 z m -89.97655,1.64584 c -0.3323,-0.33229 -1.1948,-0.36782 -1.91667,-0.0789 -0.79773,0.31922 -0.56078,0.55618 0.60417,0.60416 1.05416,0.0434 1.64479,-0.19292 1.3125,-0.52522 z m -21.97917,-3.08516 c -0.96251,-0.25153 -2.53751,-0.25153 -3.50001,0 -0.9625,0.25153 -0.175,0.45732 1.75,0.45732 1.92501,0 2.71251,-0.20579 1.75001,-0.45732 z m 53.04999,-0.51068 c 3.02662,-3.02661 0.53984,-3.73161 -2.93922,-0.83326 -2.2629,1.88519 -2.27579,1.96811 -0.31078,2 1.1275,0.0183 2.59,-0.50674 3.25,-1.16674 z m -66.8,-2.8 c 0,-0.55 -0.675,-1 -1.5,-1 -0.825,0 -1.5,0.45 -1.5,1 0,0.55 0.675,1 1.5,1 0.825,0 1.5,-0.45 1.5,-1 z m 36.26376,0.29607 c -1.22994,-0.23736 -3.47994,-0.2435 -5,-0.0136 -1.52006,0.22986 -0.51375,0.42406 2.23625,0.43157 2.75,0.008 3.99369,-0.18055 2.76375,-0.41792 z m 32.2484,-10.11724 c -0.79461,-0.79461 -2.51396,1.00925 -1.90347,1.99704 0.41524,0.67187 0.93059,0.56959 1.46194,-0.29014 0.45134,-0.73029 0.65003,-1.4984 0.44153,-1.7069 z m -85.01216,-0.17883 c -0.33992,-0.55 -1.23992,-1 -2,-1 -0.76008,0 -1.66008,0.45 -2,1 -0.35191,0.56941 0.50929,1 2,1 1.49071,0 2.35191,-0.43059 2,-1 z m 75,0 c 1.81477,-0.77983 1.76846,-0.85498 -0.5,-0.8114 -1.375,0.0264 -3.85,0.39155 -5.5,0.8114 l -3,0.76337 3.5,0.048 c 1.925,0.0264 4.4,-0.33871 5.5,-0.8114 z m -82,-5.103139 c 15.88865,-2.812648 15.5,-2.68785 15.5,-4.977181 0,-2.322869 -1.20416,-2.250368 -18.94504,1.140663 -7.41555,1.417424 -9.8281,2.303244 -11.22777,4.122504 -2.49559,3.243743 -2.261,3.933793 0.92281,2.714463 1.5125,-0.57926 7.7,-1.929463 13.75,-3.000449 z"
     style="fill:#000000"
     inkscape:connector-curvature="0" />
</svg>
