<?xml version="1.0" encoding="UTF-8" standalone="no"?>
<svg
   xmlns:dc="http://purl.org/dc/elements/1.1/"
   xmlns:cc="http://creativecommons.org/ns#"
   xmlns:rdf="http://www.w3.org/1999/02/22-rdf-syntax-ns#"
   xmlns:svg="http://www.w3.org/2000/svg"
   xmlns="http://www.w3.org/2000/svg"
   xmlns:sodipodi="http://sodipodi.sourceforge.net/DTD/sodipodi-0.dtd"
   xmlns:inkscape="http://www.inkscape.org/namespaces/inkscape"
   viewBox="0 0 526 526.03931"
   height="526.03931"
   width="526"
   version="1.1"
   id="svg4767"
   inkscape:version="0.91 r13725"
   sodipodi:docname="story_pattern.svg">
  <sodipodi:namedview
     pagecolor="#ffffff"
     bordercolor="#666666"
     borderopacity="1"
     objecttolerance="10"
     gridtolerance="10"
     guidetolerance="10"
     inkscape:pageopacity="0"
     inkscape:pageshadow="2"
     inkscape:window-width="640"
     inkscape:window-height="480"
     id="namedview5543"
     showgrid="false"
     inkscape:zoom="0.44863568"
     inkscape:cx="198.68312"
     inkscape:cy="263.01965"
     inkscape:window-x="0"
     inkscape:window-y="0"
     inkscape:window-maximized="0"
     inkscape:current-layer="svg4767" />
  <metadata
     id="metadata4773">
    <rdf:RDF>
      <cc:Work
         rdf:about="">
        <dc:format>image/svg+xml</dc:format>
        <dc:type
           rdf:resource="http://purl.org/dc/dcmitype/StillImage" />
        <dc:title></dc:title>
      </cc:Work>
    </rdf:RDF>
  </metadata>
  <defs
     id="defs4771" />
  <path
     id="path4777"
     d="m 166.44529,525.33474 c -2.92188,-0.26317 -5.3125,-0.89614 -5.3125,-1.40661 0,-2.37293 3.50854,-3.92813 8.86191,-3.92813 9.04966,0 24.20811,-3.26725 39.94655,-8.61005 25.19823,-8.55418 45.4487,-18.18134 89.31654,-42.46146 28.15235,-15.58185 55.11251,-27.44098 57.33376,-25.21973 1.93053,1.93053 0.24958,3.06933 -13.58376,9.20269 -12.32099,5.46281 -22.37064,10.76081 -53.125,28.00663 -43.2018,24.22581 -78.08281,38.54402 -105.625,43.35771 -6.1875,1.08142 -11.53125,1.86975 -11.875,1.75184 -0.34375,-0.11788 -3.01563,-0.42972 -5.9375,-0.69289 z m -22.38343,-7.72337 c -4.92026,-2.4675 -9.98276,-5.40421 -11.25,-6.52602 -4.1336,-3.65923 -7.68571,-3.97588 -12.53105,-1.11705 -2.48926,1.4687 -4.99365,2.18606 -5.58106,1.59865 -1.7593,-1.7593 -6.917,-20.65703 -12.99324,-47.60701 -3.151593,-13.97829 -6.270403,-26.63454 -6.930693,-28.125 -1.05938,-2.39134 -1.12366,-2.30581 -0.54677,0.72756 0.35956,1.89062 1.01704,4.92765 1.46105,6.74894 1.15167,4.72401 -1.53444,2.70625 -3.18346,-2.39135 -0.7197,-2.2248 -2.7243,-12.20134 -4.45467,-22.17009 -3.37785,-19.46 -4.17265,-23.12992 -11.23467,-51.875 -2.53355,-10.3125 -5.14809,-24.07905 -5.81008,-30.59234 -0.6783,-6.6738 -2.05139,-13.13621 -3.14608,-14.80692 -1.28173,-1.95618 -2.31824,-8.13264 -3.04713,-18.15768 -0.60755,-8.35618 -1.12187,-15.39386 -1.14292,-15.6393 -0.0211,-0.24542 -0.83893,-0.139 -1.8175,0.23652 -1.12367,0.43118 -2.28083,-0.55578 -3.14067,-2.67877 -0.74881,-1.84883 -2.55321,-5.22733 -4.00979,-7.5078 l -2.64833,-4.14628 4.15921,-4.29122 c 4.12468,-4.25558 4.13382,-4.29137 1.1015,-4.31035 -4.45213,-0.0279 -6.45906,-1.73571 -5.97958,-5.08843 0.50555,-3.53502 7.38068,-7.77409 17.29687,-10.66495 7.69154,-2.2423 9.66297,-3.51569 7.50641,-4.84852 -1.00569,-0.62155 -0.35751,-2.10475 2.07859,-4.75637 l 3.54,-3.85318 -3.75,2.35854 c -7.61308,4.7882 -10.77313,5.97391 -12.17774,4.56931 -0.95508,-0.95507 -0.88056,-1.89646 0.25877,-3.26928 1.35636,-1.63432 1.19597,-1.92798 -1.05297,-1.92798 -3.74155,0 -3.30083,-1.55869 1.40944,-4.98476 21.89931,-15.92873 59.834013,-50.74544 73.284573,-67.26105 3.30584,-4.05917 6.2102,-6.48222 7.50658,-6.2626 3.24455,0.54967 7.89933,-3.9869 11.834,-11.5335 1.95948,-3.7582 6.61046,-10.20809 10.33555,-14.33309 5.36013,-5.93556 7.01201,-7.12069 7.9193,-5.68154 1.53594,2.43633 -1.69109,7.85718 -8.06751,13.55204 -5.41865,4.83946 -3.25476,3.5585 6.38211,-3.77804 6.00904,-4.57466 10.53118,-7.03287 26.74289,-14.53728 10.7691,-4.98503 14.21194,-5.9423 13.48272,-3.74885 -0.30968,0.93152 -4.50653,3.94367 -9.32632,6.69367 -8.939,5.10026 -21.6564,14.05515 -21.6564,15.24922 0,1.39619 12.88445,15.45483 13.84992,15.11212 0.55988,-0.19874 5.16634,-3.97384 10.23659,-8.3891 l 9.21864,-8.02777 -1.21009,-6.12008 c -0.9897,-5.00544 -0.8572,-6.47297 0.72748,-8.05764 2.8972,-2.8972 4.24321,-1.21044 5.01702,6.2871 0.7256,7.03035 4.96009,16.95221 7.98879,18.71855 1.19767,0.69847 1.5217,2.28258 1.02277,5 -0.40166,2.18767 0.14518,8.10514 1.2152,13.1499 1.07002,5.04477 1.62839,9.6854 1.24082,10.3125 -1.17639,1.90344 -3.97405,1.27715 -4.67848,-1.0473 -0.3646,-1.20313 -2.16945,-7.25 -4.01076,-13.4375 -1.84131,-6.1875 -3.54436,-11.45139 -3.78456,-11.69754 -0.35993,-0.36881 -9.65117,5.00843 -16.64053,9.63058 -1.34504,0.88949 -0.9892,2.21021 1.77545,6.5897 1.9017,3.0125 3.43014,5.75851 3.39653,6.10226 -0.0336,0.34375 1.2768,2.21504 2.91205,4.15841 5.01428,5.95914 3.59995,7.8229 -2.18129,2.87438 l -5.15445,-4.41201 -6.70223,4.28736 c -3.68622,2.35805 -8.84495,5.64 -11.46382,7.29322 -2.61888,1.65323 -9.67975,6.44674 -15.69081,10.65225 -10.03808,7.02292 -14.51237,9.31392 -12.80979,6.55908 0.3696,-0.59801 10.5678,-7.68139 22.66267,-15.74083 20.49342,-13.65581 21.85698,-14.80128 20.02679,-16.82362 -1.08015,-1.19355 -1.96391,-3.11018 -1.96391,-4.25917 0,-1.14898 -0.31394,-2.08907 -0.69765,-2.08907 -0.38371,0 -9.24309,6.94651 -19.6875,15.43669 -19.01423,15.4565 -44.72025,34.45926 -51.17734,37.832 -5.38911,2.8149 -4.02193,-0.052 1.875,-3.93172 9.0968,-5.98502 24.58679,-17.9271 43.43749,-33.4883 18.43691,-15.21962 24.38524,-20.44223 19.32951,-16.97126 -1.40001,0.96118 -10.88986,8.21634 -21.08854,16.12259 -19.27262,14.94057 -32.9184,25 -33.91294,25 -3.31593,0 4.2578,-6.56725 36.76016,-31.875 7.94651,-6.1875 14.29006,-11.7231 14.09677,-12.30134 -0.19329,-0.57822 0.66293,-1.79305 1.90271,-2.6996 2.16787,-1.58519 2.1647,-1.7471 -0.0828,-4.23051 -2.33315,-2.5781 -2.35887,-2.56206 -16.02412,9.99222 -7.52796,6.91595 -14.06264,12.19807 -14.5215,11.73802 -0.45886,-0.46007 0.84442,-2.28129 2.8962,-4.04719 2.05176,-1.76589 4.30176,-4.3347 5,-5.70846 0.69822,-1.37377 2.39451,-3.11547 3.76951,-3.87044 1.375,-0.75499 5.48809,-3.83669 9.14019,-6.84823 l 6.64017,-5.47551 -3.40945,-3.5587 -3.40943,-3.55869 -14.48074,14.03422 c -7.96441,7.71881 -17.50924,16.56546 -21.21074,19.65921 -12.28493,10.26787 -33.90089,36.93137 -42.59492,52.54126 -4.390813,7.88355 -11.260813,20.06973 -15.266683,27.08039 -4.00588,7.01065 -7.2834,13.06896 -7.2834,13.4629 0,1.22488 9.34538,-3.98103 15.28384,-8.51396 17.070403,-13.03014 53.523003,-32.40628 81.591153,-43.36924 7.5625,-2.95379 15.25941,-6.75181 17.10424,-8.44004 2.5955,-2.37516 4.29202,-2.92865 7.5,-2.44681 6.78829,1.01957 43.05931,-11.43505 57.7589,-19.83306 6.68507,-3.81926 12.9663,-6.63265 13.95827,-6.252 3.5689,1.36951 1.67534,4.41672 -5.38391,8.66397 -13.38136,8.05102 -20.88346,11.28149 -42.65632,18.3682 -17.694,5.7591 -22.02912,7.62917 -23.39322,10.09125 -3.80672,6.87088 -0.72186,8.02293 8.05213,3.00708 2.99205,-1.71046 5.94517,-3.10994 6.5625,-3.10994 0.61732,0 1.12241,3.66696 1.12241,8.14881 0,8.0742 0.0288,8.14162 3.13411,7.36222 3.77913,-0.94852 9.36589,2.31262 9.36589,5.46711 0,1.19377 -1.125,2.87307 -2.5,3.73177 -1.375,0.8587 -2.5,2.83218 -2.5,4.38552 0,3.47775 -4.9161,11.04424 -11.73846,18.06696 -4.36085,4.48891 -5.89161,5.28516 -10.13654,5.27274 -5.08415,-0.0149 -9.375,-2.18905 -9.375,-4.75032 0,-0.95205 1.6562,-0.75189 5.06534,0.61218 3.83046,1.53265 5.73505,1.70317 7.8125,0.69947 2.43154,-1.17476 2.16072,-1.33698 -2.357,-1.41186 -6.05928,-0.10037 -7.10669,-0.8714 -5.43288,-3.99895 1.4977,-2.79849 5.22042,-3.01026 9.03062,-0.51372 3.3594,2.20116 4.34867,1.62981 9.43126,-5.44698 4.76702,-6.63741 4.8739,-7.62495 0.82516,-7.62495 -4.67676,0 -3.79046,-1.67852 2.5,-4.73468 6.42842,-3.12316 7.53479,-6.51532 2.125,-6.51532 -1.925,0 -4.12599,0.62599 -4.89109,1.39109 -3.0182,3.0182 -4.38717,-0.2623 -3.51359,-8.41969 0.46952,-4.38427 0.50523,-7.9714 0.0794,-7.9714 -0.42586,0 -2.97948,1.125 -5.6747,2.5 -9.04359,4.6137 -14.5696,2.41156 -11.40079,-4.54325 1.33113,-2.92149 1.23639,-3.07545 -1.39817,-2.27243 -5.0652,1.54388 -7.02764,4.36766 -7.90269,11.37124 -1.08868,8.71351 -3.69364,8.26965 -3.61988,-0.61678 0.0632,-7.61494 1.58145,-7.72333 -19.42847,1.38702 -17.40947,7.54913 -29.05284,13.33589 -37.09701,18.43726 -5.61058,3.55805 -6.03346,4.18764 -6.10704,9.09235 -0.0435,2.89828 -0.51824,6.5824 -1.05501,8.18695 -0.84834,2.53589 -0.59284,2.88555 1.95406,2.67413 6.8107,-0.56535 8.2806,0.0555 10.32345,4.3605 3.6901,7.7763 0.72322,14.82304 -9.13893,21.70625 -13.01695,9.08506 -21.65992,12.33981 -22.98143,8.65426 -0.947393,-2.64218 1.54008,-5.9375 4.48193,-5.9375 1.53564,0 6.87418,-2.64956 11.86342,-5.88791 6.84161,-4.44067 9.32211,-6.82185 10.09152,-9.6875 0.5611,-2.08978 0.7676,-4.50272 0.45889,-5.36209 -0.66649,-1.85529 -8.24385,-2.0786 -11.49476,-0.33876 -4.34092,2.32318 -5.13458,-1.17633 -2.17972,-9.611 1.48542,-4.24011 2.29914,-8.11091 1.80827,-8.60178 -0.49087,-0.49087 -3.55863,0.75587 -6.81725,2.77052 -4.63252,2.86406 -6.22413,4.72996 -7.29728,8.55483 -1.63964,5.84393 -3.916413,7.05444 -5.017423,2.66765 l -0.79654,-3.17362 -4.53974,3.08482 c -2.49685,1.69666 -5.25291,3.08484 -6.12456,3.08484 -0.87167,0 -1.58484,0.47146 -1.58484,1.0477 0,1.96974 26.392753,93.27979 34.382613,118.9523 7.9537,25.55633 15.77325,47.63459 25.67763,72.5 11.39905,28.61791 11.79036,30 8.49386,30 -2.0167,0 -17.07405,-35.29039 -27.37244,-64.15365 -8.7973,-24.6562 -19.3352,-59.076 -32.405703,-105.84635 -13.60481,-48.68235 -12.23933,-44.5366 -14.06691,-42.70903 -0.80246,0.80247 -1.90902,1.45903 -2.45902,1.45903 -1.36563,0 -1.27099,-4.68498 0.11187,-5.53964 1.8425,-1.13874 2.35787,-9.46036 0.58589,-9.46036 -2.69146,0 -3.08729,-2.24639 -1.1942,-6.77718 l 1.8331,-4.38722 -5.23083,2.03547 c -6.70269,2.60822 -6.70316,2.60874 -4.08922,4.52012 2.00932,1.46923 2.02933,1.76456 0.22125,3.26513 -2.19281,1.81987 -2.60726,5.18862 -0.86504,7.03118 0.61755,0.65312 2.61356,9.625 4.43557,19.9375 9.139,51.72642 12.05485,66.82986 17.49596,90.625 0.86464,3.78125 5.56378,21.5 10.44254,39.375 4.878753,17.875 11.193183,41.51065 14.032073,52.52366 l 5.1616,20.02366 4.59221,0.12689 c 5.1102,0.14122 20.64037,6.73822 24.58379,10.44288 1.3984,1.31372 4.64423,3.26674 7.21298,4.34002 4.98691,2.08368 5.5472,3.04113 3.17044,5.41789 -2.15245,2.15245 -4.27194,1.65094 -14.32093,-3.38862 z M 62.382797,275.35714 c 0,-4.2593 -0.16551,-4.47734 -2.00347,-2.63938 -1.27918,1.27918 -1.70063,2.95765 -1.16577,4.64285 1.33745,4.21391 3.16924,3.05593 3.16924,-2.00347 z m 3.75,-18.5701 c 0,-0.34375 -1.125,-0.0229 -2.5,0.71296 -1.375,0.73587 -2.5,1.61921 -2.5,1.96296 0,0.34375 1.125,0.0229 2.5,-0.71296 1.375,-0.73587 2.5,-1.61921 2.5,-1.96296 z m 21.25,-12.76359 0,-3.329 -2.8125,2.81893 c -2.35185,2.35722 -2.51518,3.00341 -0.99719,3.9453 2.54893,1.58156 3.80969,0.44472 3.80969,-3.43523 z m 5.625,-23.49659 c 8.322293,-7.86571 8.447853,-8.06543 2.56869,-4.08591 -3.39974,2.30122 -9.86849,7.74566 -14.375,12.09874 -7.46913,7.2148 -7.69628,7.57611 -2.56869,4.08591 3.09375,-2.10583 9.5625,-7.55025 14.375,-12.09874 z m 1.32864,7.91064 3.67136,-4.0625 -4.0625,3.67136 c -3.78683,3.42223 -4.63706,4.45364 -3.67136,4.45364 0.21512,0 2.04325,-1.82813 4.0625,-4.0625 z m 75.546353,-80.5802 c 0,-0.82574 -19.16982,16.4774 -21.39117,19.30819 -0.9536,1.21522 3.46929,-2.49198 9.82867,-8.23825 6.35937,-5.74627 11.5625,-10.72774 11.5625,-11.06994 z m 37.89977,8.56849 c 2.87388,-1.96583 7.00364,-4.48582 9.17725,-5.59998 2.98704,-1.53111 3.79079,-2.6423 3.29172,-4.55078 -0.36318,-1.38877 -1.01659,-2.49828 -1.45203,-2.46559 C 217.59495,143.89984 200.48205,160 201.59046,160 c 0.53179,0 3.31824,-1.6084 6.1921,-3.57421 z M 180.67811,482.8125 c -1.1972,-4.20264 -3.12541,-16.00179 -3.92351,-24.00878 -0.44247,-4.43919 -1.57331,-9.91128 -2.51297,-12.1602 -2.06689,-4.94677 -0.24153,-6.83177 3.24216,-3.34807 2.88485,2.88485 4.54924,11.26489 5.66499,28.5228 0.59031,9.13077 0.43737,13.18175 -0.49765,13.18175 -0.74243,0 -1.63029,-0.98438 -1.97302,-2.1875 z m 21.29608,-10 c -1.50448,-2.53609 -0.74751,-26.56416 1.05339,-33.4375 3.86511,-14.75167 12.14323,-21.84739 15.89125,-13.62139 1.25458,2.75351 0.96891,4.68146 -1.85863,12.54317 -3.32151,9.23515 -3.32669,9.30394 -0.88425,11.74638 3.16363,3.16363 8.75049,3.14154 12.17418,-0.0481 3.42888,-3.19451 6.53266,-13.59415 6.53266,-21.88861 0,-3.54189 0.37012,-6.80991 0.82249,-7.26229 1.72651,-1.72651 4.17751,2.15892 4.17751,6.62235 0,5.38727 2.09464,12.37152 4.47645,14.9261 4.12211,4.4211 10.51031,-7.50051 11.46239,-21.39098 1.00952,-14.72864 5.25502,-14.95781 5.29202,-0.28565 0.015,5.93221 -0.82217,9.34655 -3.83096,15.625 -5.94136,12.39783 -11.12726,15.25978 -16.71868,9.22655 l -2.94941,-3.18247 -1.40219,4.24865 c -3.19591,9.68371 -13.32185,13.53925 -21.32962,8.12145 -5.44929,-3.68681 -6.11048,-8.09531 -2.5637,-17.09357 3.1717,-8.04665 3.21326,-10.41513 0.11762,-6.70359 -3.20458,3.84217 -6.49218,19.01045 -6.28436,28.99466 0.26349,12.65792 0.11313,13.79733 -1.8208,13.79733 -0.99067,0 -2.0515,-0.42188 -2.35737,-0.9375 z m -45.36816,-24.63223 c -1.01234,-2.63813 2.68116,-7.81818 8.30202,-11.64336 3.8513,-2.62094 25.91904,-10.28691 29.61254,-10.28691 0.88671,0 1.6122,0.56981 1.6122,1.26625 0,1.4896 -7.38303,5.01472 -18.75,8.95244 -5.44754,1.88711 -10.0752,4.63076 -14.04306,8.32585 -4.9678,4.62626 -6.04904,5.16992 -6.7337,3.38573 z m 211.66343,-6.55178 c -0.32583,-0.55193 -1.87327,-6.34724 -3.43876,-12.87849 -13.23394,-55.21245 -23.80934,-86.21313 -53.08905,-155.625 -26.40627,-62.59996 -29.43841,-70.51963 -31.10761,-81.25 -0.67286,-4.32549 0.73149,-9.80598 2.07271,-8.0888 0.25294,0.32384 2.21121,5.93892 4.35171,12.47798 4.10745,12.54787 9.41627,25.72933 27.17982,67.48582 29.02365,68.22543 43.8658,109.75909 51.81609,145 1.47343,6.53125 3.32108,14.40625 4.10588,17.5 1.88325,7.42392 1.95714,15.27253 0.14959,15.88853 -0.79637,0.27138 -1.71454,0.0419 -2.04037,-0.51004 z m -92.79656,-17.4431 c 0.50294,-2.64572 1.38231,-8.08274 1.95415,-12.08229 1.54221,-10.7864 5.03745,-13.88204 6.63804,-5.87911 1.05236,5.2618 3.62985,4.77965 10.34456,-1.93506 5.4029,-5.4029 5.8353,-5.59864 8.01334,-3.62755 3.26266,2.95267 4.9598,1.28583 4.9598,-4.87124 0,-2.92178 0.77555,-6.37295 1.72346,-7.66929 1.65316,-2.26084 1.85981,-2.26761 5.06718,-0.16607 5.06197,3.31673 5.25241,5.48298 0.87868,9.99552 l -3.91137,4.03551 1.94809,6.8196 c 3.84633,13.46469 2.80146,14.03704 -6.09973,3.34118 l -6.01869,-7.23219 -3.81866,3.21319 c -5.26256,4.42815 -10.51452,6.98752 -12.65402,6.16652 -1.32964,-0.51023 -2.23905,1.18692 -3.51668,6.56285 -1.25917,5.29829 -2.35605,7.37059 -4.07292,7.69493 -2.09039,0.3949 -2.24877,-0.087 -1.43523,-4.3665 z M 189.91459,387.5318 c -1.35751,-1.35751 -2.83655,-3.93579 -3.28674,-5.7295 -1.99619,-7.95344 2.69089,-23.6773 7.05789,-23.6773 2.59004,0 3.02369,4.30275 0.61141,6.06664 -1.13041,0.82659 -2.60544,3.95139 -3.27784,6.94402 -2.37855,10.58612 3.43697,18.5964 9.26783,12.76554 3.26251,-3.26251 3.34109,-13.23795 0.16677,-21.17136 -2.27705,-5.6909 -2.06323,-6.97395 0.96833,-5.81064 6.49554,2.49258 8.08937,23.69809 2.24849,29.91541 -3.69957,3.93802 -10.18655,4.26678 -13.75614,0.69719 z m 34.302,-17.79315 c -9.16909,-19.13266 -7.40553,-23.23014 16.4585,-38.23983 2.51506,-1.58189 5.35405,-2.57639 6.30884,-2.21001 2.77098,1.06333 -1.08352,5.88464 -9.33508,11.67655 -10.78846,7.57262 -11.99507,9.26904 -11.12222,15.6372 0.40696,2.96908 2.14737,8.43616 3.86761,12.14909 2.30322,4.9713 2.77245,7.17881 1.78006,8.37456 -2.38822,2.87764 -3.55922,1.79054 -7.95771,-7.38756 z M 147.92942,357.9013 c -0.43757,-1.93946 -2.40208,-9.43255 -4.36557,-16.6513 -1.9635,-7.21875 -4.17916,-15.51563 -4.9237,-18.4375 -0.74454,-2.92188 -1.62576,-5.3125 -1.95828,-5.3125 -1.32494,0 -20.21865,9.9609 -24.66708,13.00468 -4.85438,3.32152 -8.38199,4.18256 -8.38199,2.04591 0,-2.57545 7.43344,-7.92217 19.68184,-14.15675 10.3533,-5.26995 12.80792,-7.04353 12.8125,-9.25756 0.007,-3.66166 2.30096,-4.89404 4.22101,-2.26822 1.41458,1.93454 1.94096,1.95464 6.06488,0.23155 4.18291,-1.74772 5.96976,-1.63442 5.96976,0.37855 0,0.44632 -2.24999,2.07605 -4.99999,3.62164 -2.75,1.54559 -5,3.09064 -5,3.43345 0,0.34281 2.27485,9.43644 5.05524,20.20805 2.78037,10.77163 4.88974,20.95865 4.68749,22.63784 -0.52586,4.36586 -3.25237,4.70515 -4.1961,0.52216 z m 83.20337,-1.61081 c 0,-1.6409 13.6239,-11.83327 14.56256,-10.8946 1.45418,1.45417 -0.76251,4.55217 -5.94161,8.30388 -5.28089,3.82547 -8.62095,4.8292 -8.62095,2.59072 z m -72.5,-19.88333 c 0,-0.60106 0.8413,-3.47735 1.86956,-6.39176 1.02826,-2.9144 2.06598,-7.62574 2.30604,-10.46965 0.24005,-2.84391 0.88805,-6.29575 1.43998,-7.67075 0.55193,-1.375 1.73552,-4.32812 2.63018,-6.5625 1.23792,-3.09161 2.38623,-4.0625 4.80487,-4.0625 1.82443,0 3.84322,1.06489 4.73946,2.5 0.8587,1.375 2.13309,2.5 2.83196,2.5 0.69888,0 4.36044,-2.54125 8.13681,-5.64721 3.77638,-3.10596 7.69055,-5.49261 8.69818,-5.30365 2.02557,0.37985 3.86297,3.67822 6.85295,12.30197 2.94646,8.49824 5.94536,11.14889 12.61371,11.14889 3.06696,0 5.5763,0.57642 5.5763,1.28094 0,1.56732 -5.37365,3.71906 -9.2878,3.71906 -6.11769,0 -13.21951,-8.97976 -15.12195,-19.12064 C 196.24538,302.08321 195.63749,300 195.37219,300 c -0.26531,0 -3.75824,2.41155 -7.76206,5.359 l -7.27968,5.35899 3.65638,10.96913 c 3.37751,10.13254 3.73375,14.22482 0.98841,11.35454 -0.61374,-0.64166 -2.91616,-5.48746 -5.1165,-10.76845 l -4.00061,-9.60179 -4.1222,1.96574 c -3.50795,1.67283 -4.24989,2.81723 -4.9791,7.68 -1.16839,7.79134 -4.2767,15.18284 -6.38476,15.18284 -0.95661,0 -1.73928,-0.49177 -1.73928,-1.09284 z m 15,-28.52006 c 0,-2.46049 -3.01516,-1.37126 -3.52831,1.2746 -0.28125,1.45015 0.19165,1.85122 1.5625,1.32517 1.0812,-0.41488 1.96581,-1.58478 1.96581,-2.59977 z m 64.375,-6.55833 c -13.66035,-3.31688 -19.78924,-14.79148 -11.77461,-22.04462 3.53736,-3.20127 6.03318,-0.61289 3.66885,3.80491 -2.28323,4.26624 -0.27814,8.41006 5.36518,11.088 6.85637,3.25355 11.78015,2.6964 15.98907,-1.80926 l 3.62651,-3.88219 0,3.14608 c 0,2.935 -6.07557,9.61831 -8.74368,9.61831 -0.57852,0 -1.80098,0.2226 -2.71658,0.49466 -0.91562,0.27207 -3.35224,0.0849 -5.41474,-0.41588 z m 23.31875,-18.1442 c -2.84549,-6.57458 -3.02837,-6.73106 -6.25,-5.34767 -1.82531,0.7838 -5.70844,3.09207 -8.62918,5.1295 -2.92073,2.03742 -5.67562,3.33922 -6.12197,2.89286 -0.44635,-0.44635 1.38084,-3.29912 4.06043,-6.33949 3.478,-3.94628 5.77633,-5.4925 8.03274,-5.40406 4.33682,0.16998 5.76897,-0.9519 6.61496,-5.18186 0.77429,-3.87146 3.21852,-5.55974 5.76801,-3.98408 1.22713,0.75842 1.12474,1.82377 -0.47219,4.91187 -1.92255,3.7178 -1.89354,4.27266 0.50712,9.69976 1.40048,3.16602 2.54633,6.80989 2.54633,8.0975 0,4.54916 -3.1619,2.21316 -6.05625,-4.47433 z m 182.23075,4.35219 c -0.98972,-0.52409 -5.81106,-1.307 -10.71407,-1.7398 -15.5372,-1.37152 -24.84288,-5.0309 -33.2952,-13.09305 -8.0016,-7.63224 -19.70028,-24.55536 -23.37989,-33.82101 -1.25764,-3.16685 -4.56065,-10.44339 -7.34004,-16.17009 -2.77939,-5.72671 -5.2762,-11.07046 -5.54849,-11.875 -0.35384,-1.04553 -7.00051,-1.46281 -23.30089,-1.46281 l -22.80582,0 -1.7876,-5 c -2.72611,-7.62506 -4.45674,-36.06633 -4.67778,-76.875 l -0.19972,-36.875003 3.46249,-11.04264 c 8.97833,-28.6338 14.42945,-38.535629 30.91419,-56.154903 C 355.49136,12.090541 371.86572,0 376.61252,0 c 3.36082,0 5.77027,2.202144 5.77027,5.273815 0,1.797319 -0.65067,2.110505 -3.10501,1.494507 -4.91034,-1.232416 -13.61098,4.701918 -27.51999,18.770205 -15.26648,15.441299 -21.46141,25.41369 -28.0081,45.08647 -6.25548,18.79772 -7.61277,27.2352 -7.54056,46.875003 0.10225,27.80754 3.16891,79.10099 4.9532,82.84767 l 1.6538,3.47268 20.72083,-0.66014 c 11.39646,-0.36306 21.3715,-0.23748 22.16678,0.27908 1.52614,0.99127 13.17153,24.43529 17.14563,34.51686 l 2.34157,5.94015 2.65843,-2.4881 C 391.12102,238.34616 413.81467,230 418.86884,230 c 3.10944,0 3.62518,0.44111 3.28839,2.8125 -0.27353,1.92597 -1.38446,2.93349 -3.52444,3.19634 -5.43875,0.66801 -25.53015,8.0397 -27.88809,10.23233 -2.171,2.01882 -2.06145,2.40512 2.6925,9.49414 10.38732,15.4894 21.13393,22.0321 38.94559,23.71064 11.28771,1.06374 16.25,2.74855 16.25,5.51725 0,2.65734 -2.51195,3.93102 -5.0755,2.57356 z M 156.85169,272.1875 c 0.94661,-2.30949 15.44563,-13.4375 17.5081,-13.4375 3.9833,0 1.2599,4.69449 -5.61997,9.6875 -7.05319,5.11879 -13.25043,7.07365 -11.88813,3.75 z m -5.71889,-12.09135 c 0,-1.46445 7.32754,-8.84615 8.78125,-8.84615 0.59893,0 4.46852,-2.8125 8.59909,-6.25 8.13524,-6.77022 10.11965,-7.53353 10.11965,-3.89256 0,3.34599 -8.21435,10.92496 -15.96171,14.7271 -3.62269,1.77789 -6.89025,3.72368 -7.26127,4.32398 -0.89737,1.45198 -4.27701,1.40269 -4.27701,-0.0624 z M 376.61687,149.0625 c -0.3781,-1.20313 -1.15277,-3.36669 -1.72145,-4.80791 -1.47592,-3.74037 2.53051,-12.05342 6.73156,-13.96754 6.3875,-2.91035 7.10265,-2.26792 6.29008,5.65045 -0.97947,9.54476 -2.66636,13.67086 -5.94912,14.55141 -4.07504,1.09307 -4.60356,0.95218 -5.35108,-1.42641 z"
     style="fill:#000000"
     inkscape:connector-curvature="0" />
</svg>
