<?xml version="1.0" encoding="UTF-8" standalone="no"?>
<svg
   xmlns:dc="http://purl.org/dc/elements/1.1/"
   xmlns:cc="http://creativecommons.org/ns#"
   xmlns:rdf="http://www.w3.org/1999/02/22-rdf-syntax-ns#"
   xmlns:svg="http://www.w3.org/2000/svg"
   xmlns="http://www.w3.org/2000/svg"
   viewBox="0 0 781.02124 555.53021"
   height="555.53021"
   width="781.02124"
   version="1.1"
   id="svg4849">
  <metadata
     id="metadata4855">
    <rdf:RDF>
      <cc:Work
         rdf:about="">
        <dc:format>image/svg+xml</dc:format>
        <dc:type
           rdf:resource="http://purl.org/dc/dcmitype/StillImage" />
        <dc:title></dc:title>
      </cc:Work>
    </rdf:RDF>
  </metadata>
  <defs
     id="defs4853" />
  <path
     id="path4859"
     d="m 101.58196,554.80584 c -43.26962,-0.74022 -58.02181,-1.70304 -77,-5.0255 -6.05,-1.05916 -12.72606,-2.21279 -14.8356902,-2.56363 -4.01292,-0.66735 -5.7093,-2.70988 -3.81987,-4.5993 0.81334,-0.81334 4.5237102,-0.53279 13.8827802,1.04973 7.02503,1.18786 16.37278,2.64038 20.77278,3.22783 12.9245,1.72556 70.97794,2.88785 145,2.90305 99.95575,0.0205 131.05708,-0.98244 293,-9.44874 139.95363,-7.31671 156.88157,-8.75749 210.99997,-17.95883 14.3,-2.43132 32.75,-5.36522 41,-6.51978 8.25,-1.15456 17.5378,-2.57763 20.6395,-3.16237 l 5.6395,-1.06317 -0.8482,-3.14164 c -1.8392,-6.81188 -2.9503,-28.25971 -3.9186,-75.64164 -1.8665,-91.33287 -2.4606,-98.80035 -13.4133,-168.6209 -4.664,-29.73152 -5.2931,-36.14367 -7.5918,-77.3791 -2.0659,-37.05742 -3.6978,-56.447 -7.0217,-83.42651 -2.284,-18.539737 -6.9854,-71.375395 -6.9854,-78.505083 0,-4.253504 -1.7645,-7.970507 -3.1338,-6.601262 -0.2474,0.247391 -5.6173,1.127197 -11.9331,1.955126 -9.9883,1.309355 -12.196,1.320811 -16.9582,0.088 -11.31511,-2.92923 -67.25404,-11.6873449 -85.47487,-13.3824369 -39.00079,-3.628262 -79.94077,-1.756092 -172,7.8654959 -60.01907,6.272904 -104.14325,9.746623 -152,11.96635 -70.17057,3.254703 -89.10191,4.227761 -108.5,5.576828 -26.65037,1.853437 -65.93949,5.092968 -84.5,6.967334 -21.22328,2.14327 -60.0611,3.865962 -68.76643,3.050206 -6.6997102,-0.627813 -7.7335702,-0.98066 -7.7335702,-2.639375 0,-1.053074 0.5625,-1.938244 1.25,-1.967045 0.6875,-0.0288 6.8750002,-0.0086 13.7500002,0.04493 15.14093,0.117849 34.10637,-1.117722 77,-5.01644 53.23744,-4.838894 94.69322,-7.523843 162,-10.492188 56.14535,-2.476106 103.90985,-6.149977 169,-12.9988609 74.82515,-7.873217 107.86258,-10.00222983 142.5,-9.18304783 27.11244,0.641215 41.21953,2.23871083 84.93223,9.61778083 23.3929,3.9489159 29.34334,5.2774659 31.81204,7.1026609 2.9571,2.186272 3.3256,2.215736 14.0531,1.123543 6.359,-0.647423 11.9922,-1.760923 13.3243,-2.633809 4.8193,-3.157694 5.8516,-2.196373 6.1615,5.737867 0.4454,11.400755 4.8954,60.211379 7.6404,83.805066 3.3502,28.79551 5.2709,52.60453 7.0944,87.94487 1.8592,36.03145 2.5764,42.38462 9.9911,88.5 7.4293,46.20682 8.281,57.41092 9.9583,131 1.3262,58.18535 2.6083,85.8197 4.3798,94.40388 l 0.7024,3.40388 8.2939,0.20055 c 8.6263,0.20857 12.0506,1.71936 10.8701,4.79578 -0.6395,1.66638 -7.7295,2.87742 -9.1636,1.5652 -1.3031,-1.19242 -7.29,-1.09889 -8.0469,0.12571 -0.3382,0.54725 -2.0523,0.92331 -3.809,0.83568 -3.3639,-0.16781 -49.5875,6.71056 -68.0014,10.11903 -27.12162,5.02031 -57.55998,8.65075 -100.69267,12.00981 -16.66685,1.29797 -170.55316,9.32833 -231,12.05443 -77.62651,3.5009 -166.34679,4.50652 -258.5,2.93004 z m -87.3357,-16.24603 c -0.59433,-0.71612 -0.84675,-2.19625 -0.56094,-3.28919 0.2858,-1.09294 -0.16764,-12.54452 -1.00765,-25.44796 -2.58772,-39.74985 -2.8628802,-55.86773 -1.30532,-76.46081 1.52707,-20.18999 1.04367,-33.81008 -1.7390802,-49 -0.80606,-4.4 -2.60823,-15.73732 -4.00482,-25.19403 -5.32591999,-36.06341 -5.46512999,-40.34658 -5.61663999,-172.80597 -0.0793,-69.36629 0.24846,-124.526169 0.75175,-126.500007 0.65696999,-2.576474 1.51000999,-3.588726 3.23289999,-3.836255 2.21106,-0.317667 2.29873,-0.124185 1.58588,3.5 -1.15598,5.877032 -0.64139,237.408262 0.56638,254.836262 1.35094,19.49395 3.0386,33.22193 7.5193302,61.16484 4.11591,25.6678 4.47706,34.17894 3.02691,71.33516 -0.62618,16.04413 -0.51555,28.09509 0.38555,42 1.96932,30.38862 2.57463,48.02269 1.70176,49.57648 -0.99856,1.77753 -3.11458,1.83421 -4.53601,0.12148 z m 60.66181,-22.3886 c -4.10454,-0.47037 -6.35799,-2.48093 -5.44557,-4.85864 0.5483,-1.42885 0.81091,-1.43003 2.83438,-0.0127 2.89196,2.02561 13.04572,2.05254 23.44711,0.0622 9.60361,-1.83774 10.33797,-1.84803 10.33797,-0.14487 0,2.47644 -22.11964,5.99159 -31.17389,4.95401 z m 98.7292,-11.55936 c -2.17349,-13.19553 -3.83481,-37.26782 -4.57217,-66.25 -0.47577,-18.7 -1.39432,-45.925 -2.04123,-60.5 -0.81271,-18.31042 -0.90822,-37.31642 -0.30906,-61.5 1.30143,-52.52863 1.00977,-79.70399 -1.02249,-95.2699 -1.81452,-13.89814 -1.58192,-17.22112 1.20703,-17.24375 0.92543,-0.008 2.80761,-0.27083 4.18261,-0.58514 l 2.5,-0.57148 -2.44337,1.98529 c -2.43516,1.97863 -2.43941,2.01499 -1.26592,10.83514 2.92838,22.01021 3.49477,39.30444 2.304,70.34984 -0.64342,16.775 -1.21549,42.65 -1.27127,57.5 -0.1561,41.55817 2.03022,127.31233 3.65856,143.5 1.73458,17.24386 1.83534,21 0.56331,21 -0.52507,0 -1.19558,-1.4625 -1.49,-3.25 z M 69.21842,477.89361 c -2.53729,-23.39389 -3.35344,-44.97781 -2.72374,-72.03176 0.5632,-24.19669 0.40423,-29.18169 -1.32346,-41.5 -1.07996,-7.7 -3.11441,-24.35 -4.52101,-37 -1.4066,-12.65 -4.1163,-36.725 -6.02156,-53.5 -1.90526,-16.775 -3.92141,-35.58721 -4.48032,-41.80491 -0.55892,-6.2177 -1.27906,-11.7302 -1.60031,-12.25 -0.32125,-0.5198 -0.13786,-0.94509 0.40754,-0.94509 0.54539,0 1.23615,0.7875 1.53501,1.75 0.77928,2.50974 8.2378,64.71751 10.08549,84.11808 0.85738,9.00244 1.97908,19.57744 2.49267,23.5 0.51358,3.92256 1.45488,12.53192 2.09176,19.13192 0.63688,6.6 1.56489,12.675 2.06224,13.5 1.27213,2.11018 0.0263,-32.30516 -1.79194,-49.5 -2.2999,-21.75018 -2.67447,-27.05705 -1.8557,-26.29121 1.12056,1.04811 4.34005,23.95104 5.49497,39.09032 0.55387,7.26049 1.00814,25.469 1.00947,40.46337 0.002,25.80809 0.18915,28.57189 3.50243,51.80781 3.80891,26.71172 3.8511,27.1109 2.75,26.01996 -0.4125,-0.40869 -2.16785,-9.82119 -3.90078,-20.91666 l -3.15077,-20.17359 -0.072,20.5 c -0.0661,18.82696 0.63897,35.47925 2.46639,58.25 1.03407,12.88505 -1.01941,11.03066 -2.45638,-2.21824 z m 402.86354,-3.95178 c -4.20305,-1.35285 -0.71358,-1.86747 20.5,-3.02327 14.36733,-0.78279 100.64922,-3.62431 122.75,-4.04252 0.4125,-0.008 0.75,0.37956 0.75,0.86081 0,1.96828 2.08832,1.86028 -99.5,5.14586 -17.6,0.56922 -34.25,1.22144 -37,1.44938 -2.75,0.22793 -6.125,0.0523 -7.5,-0.39026 z m -2.47065,-26.99182 c 3.1325,-3.18578 157.47047,-4.3434 157.47069,-1.18112 2e-5,0.32613 -28.46248,0.59296 -63.25,0.59296 -34.78752,0 -70.45004,0.36788 -79.25004,0.81751 -11.14156,0.56927 -15.68743,0.49963 -14.97065,-0.22935 z m -151.52935,-1.97687 c 0,-0.61121 0.61875,-1.11129 1.375,-1.11129 0.75625,0 2.89375,-0.28451 4.75,-0.63224 2.34937,-0.4401 3.07111,-0.31181 2.375,0.42219 -1.50364,1.58546 -8.5,2.67306 -8.5,1.32134 z m 152.5,-18.11129 c -0.28985,-0.46899 2.06657,-1.12598 5.2365,-1.45997 3.16992,-0.33399 12.7385,-1.49047 21.2635,-2.56996 34.39014,-4.35469 47.67626,-5.36879 71,-5.41924 27.87261,-0.0603 38.16417,1.685 34.07123,5.77794 -0.87268,0.87268 -1.34161,0.85178 -1.92094,-0.0856 -1.62489,-2.62913 -12.38244,-3.47931 -37.15029,-2.93603 -22.83817,0.50096 -36.78386,1.55487 -68,5.13893 -18.9057,2.17065 -23.9222,2.48882 -24.5,1.55393 z m -5.08198,-16.86736 c 0.29484,-0.47705 2.45889,-1.12202 4.80902,-1.43327 2.35013,-0.31125 10.34796,-1.73391 17.77296,-3.16148 28.09782,-5.40221 69.13542,-8.8141 107.69516,-8.95383 16.74539,-0.0607 23.5287,0.24813 24.39465,1.11058 1.84851,1.84107 -1.0496,2.12516 -28.08981,2.75359 -13.475,0.31316 -28.1,0.99206 -32.5,1.50867 -16.99999,1.99597 -20.97453,2.2956 -20.26104,1.52744 0.40642,-0.43757 2.43142,-1.15226 4.5,-1.58819 12.96654,-2.73256 -36.36322,2.61121 -56.95504,6.1698 -17.78829,3.07409 -22.25556,3.5062 -21.3659,2.06669 z M 297.08196,388.05541 c 0,-0.96031 19.61031,-3.69517 40.5,-5.64815 27.00598,-2.52479 31.5,-2.75507 31.5,-1.61413 0,0.58779 -0.19402,1.06872 -0.43116,1.06872 -3.24662,0 -47.83892,4.39603 -55.85322,5.50616 -12.22086,1.69282 -15.71562,1.84568 -15.71562,0.6874 z m 149,-18.1141 c 0,-0.59371 0.20032,-1.07946 0.44515,-1.07946 1.7245,0 34.06161,-5.08484 72.55485,-11.40886 67.96081,-11.16523 99.23725,-14.75389 102.25803,-11.73311 0.60975,0.60975 0.8744,1.34287 0.58812,1.62916 -0.85869,0.85868 -10.51303,2.3906 -25.19153,3.9973 -16.56701,1.81342 -16.96292,1.82336 -16.08575,0.40408 0.92965,-1.50421 1.41005,-1.57081 -83.06887,11.51561 -15.95,2.47077 -32.825,4.97885 -37.5,5.5735 -4.675,0.59466 -9.7375,1.32871 -11.25,1.63121 -1.6413,0.32827 -2.75,0.11482 -2.75,-0.52943 z m 142.76166,-19.76654 c -0.95609,-0.25029 -2.75609,-0.25937 -4,-0.0202 -1.24391,0.23919 -0.46166,0.44398 1.73834,0.45508 2.2,0.0111 3.21775,-0.18461 2.26166,-0.4349 z m 18.15501,-1.93453 c 0.7432,-0.67493 -7.29249,-0.25373 -11.91667,0.62463 -3.38293,0.64258 -2.51409,0.71811 3.5,0.30426 4.4,-0.30277 8.1875,-0.72077 8.41667,-0.92889 z m 4.33333,-1.04067 c -0.6875,-0.27741 -1.8125,-0.27741 -2.5,0 -0.6875,0.27741 -0.125,0.50439 1.25,0.50439 1.375,0 1.9375,-0.22698 1.25,-0.50439 z m -148.75,22.71037 c 2.75,-0.48561 11.975,-1.40864 20.5,-2.05117 8.525,-0.64254 37.55,-3.41587 64.5,-6.16296 26.95,-2.74708 53.725,-5.38731 59.5,-5.86717 5.775,-0.47986 12.8625,-1.08618 15.75,-1.34738 4.10367,-0.37121 5.25,-0.16316 5.25,0.95284 0,0.78526 -0.3375,1.43144 -0.75,1.43595 -0.4125,0.005 -4.575,0.44545 -9.25,0.97985 -49.51806,5.66046 -173.8784,15.30542 -155.5,12.06004 z M 307.30141,351.30907 c 0.53699,-0.53699 32.30988,-3.38463 38.23055,-3.42641 1.70483,-0.012 2.54901,0.33981 2,0.83357 -1.55034,1.39429 -41.61409,3.97638 -40.23055,2.59284 z m 109.49251,-0.44722 c -1.01071,-2.36915 -6.63159,-56.56749 -7.36079,-70.97506 -0.48366,-9.55635 -0.35189,-13.02494 0.49481,-13.02494 0.74576,0 1.16453,2.21107 1.18373,6.25 0.0293,6.15424 0.76179,14.24802 4.94835,54.67496 2.01244,19.4328 2.24061,26.60681 0.7339,23.07504 z M 260.08196,325.89587 c 0,-1.48645 1.88004,-2.24351 8.88693,-3.57862 12.39619,-2.36198 29.57143,-3.57351 60.46174,-4.26492 28.12574,-0.62953 34.46917,-0.41546 32.00809,1.08019 -0.47122,0.28637 -13.23176,1.02872 -28.35676,1.64965 -31.57643,1.29633 -53.87931,2.79322 -61.91655,4.15561 -3.0709,0.52055 -6.82095,1.15516 -8.33345,1.41026 -1.5125,0.2551 -2.75,0.0516 -2.75,-0.45217 z m 242,-6.03562 c 0,-1.04302 2.44753,-1.3905 28.5,-4.04614 38.09281,-3.88296 65.87037,-7.87699 69.42906,-9.98294 0.97955,-0.57967 -6.11254,-0.68742 -18.83899,-0.2862 -13.70184,0.43197 -20.20393,0.31013 -19.78315,-0.37072 0.7203,-1.16547 40.29123,-2.78757 42.96575,-1.76126 9.08081,3.48463 -17.50913,8.54264 -75.77267,14.41367 -11,1.10844 -21.4625,2.21651 -23.25,2.46239 -1.7875,0.24588 -3.25,0.0529 -3.25,-0.4288 z m -37.98945,-11.88112 c 1.90734,-1.19785 32.19108,-3.69023 68.48945,-5.63675 15.4,-0.82584 39.74602,-2.1718 54.10228,-2.99102 30.46701,-1.73858 54.39772,-1.95392 54.39772,-0.48951 0,0.55 -1.2375,1.00732 -2.75,1.01627 -1.5125,0.009 -7.89913,0.44216 -14.19251,0.96268 -6.29338,0.52052 -11.91838,0.5937 -12.5,0.16263 -0.58162,-0.43108 -6.68249,-0.43695 -13.55749,-0.013 -6.875,0.4239 -30.275,1.68907 -52,2.81149 -21.725,1.12242 -44.9,2.47938 -51.5,3.01546 -21.86667,1.77612 -32.08782,2.16559 -30.48945,1.1618 z M 279.53687,293.93481 c 0.76335,-1.23513 7.52062,-3.43076 8.26563,-2.68575 0.3226,0.32259 -1.0431,1.26744 -3.03488,2.09966 -4.12131,1.72199 -6.06755,1.94006 -5.23075,0.58609 z m -7.45491,-6.54503 c 0,-2.19984 17.40612,-6.60823 47,-11.90352 19.72159,-3.52882 21.79547,-3.76437 22.53978,-2.56005 0.36327,0.58779 0.47983,1.24937 0.25901,1.47018 -0.22081,0.22081 -10.05337,2.41683 -21.85013,4.88003 -11.79676,2.4632 -26.73782,5.6276 -33.20234,7.03199 -13.67715,2.9713 -14.74632,3.04971 -14.74632,1.08137 z m 143.5282,-11.4823 c -0.80403,-1.30094 1.56462,-1.74206 16.4718,-3.0676 6.875,-0.61132 14.975,-1.52458 18,-2.02946 9.35874,-1.56201 132.27017,-7.37483 172.23107,-8.14527 9.90104,-0.1909 15.83073,0.0673 16,0.6967 0.17052,0.63406 -8.87968,1.25072 -24.73107,1.68512 -43.91239,1.2034 -135.83442,5.42379 -160,7.34602 -20.31568,1.616 -35.37975,3.27651 -36.60738,4.03523 -0.41493,0.25644 -1.02892,0.0221 -1.36442,-0.52074 z M 65.08196,217.86185 c 0,-0.55 2.42606,-1 5.39125,-1 6.497,0 29.17444,-3.02075 47.38863,-6.3124 7.30393,-1.31996 13.51995,-2.01148 13.81338,-1.5367 0.72217,1.1685 -0.027,1.37248 -16.09326,4.38198 -25.54147,4.78436 -50.5,6.99214 -50.5,4.46712 z m 141.65971,-0.74158 c -1.05483,-1.70676 1.92777,-2.25842 12.21033,-2.25842 15.26757,0 52.54715,-2.67661 104.12996,-7.47636 41.0154,-3.81646 59.06683,-5.33195 95.5,-8.01759 18.21645,-1.34281 55.37521,-2.66887 126.5,-4.51432 42.625,-1.10598 87.90542,-2.45673 100.62315,-3.00167 21.87263,-0.93721 29.91265,-0.66602 28.89859,0.97477 -0.24519,0.39673 -7.55039,1.02383 -16.23377,1.39356 -51.4361,2.1901 -68.21966,2.76488 -119.78797,4.10232 -101.42413,2.63048 -118.95573,3.61685 -206.5,11.61821 -72.27396,6.60568 -123.86843,9.56102 -125.34029,7.1795 z m 78.94403,-15.84866 c -0.75414,-1.96528 0.0593,-3.40976 1.92009,-3.40976 1.58594,0 3.74427,3.39857 2.77432,4.36852 -1.20892,1.20892 -4.08825,0.62086 -4.69441,-0.95876 z m -40.59317,-1.89703 c -1.6616,-2.00209 -0.55479,-4.51273 1.98943,-4.51273 1.13452,0 2.32399,0.68073 2.64326,1.51273 0.57462,1.49745 -1.18656,4.48727 -2.64326,4.48727 -0.41531,0 -1.31055,-0.66927 -1.98943,-1.48727 z m 55.98943,-0.54411 c 0,-2.25736 2.17674,-3.49851 4.54312,-2.59045 1.21428,0.46597 1.31333,1.02153 0.46482,2.60699 -1.44192,2.69426 -5.00794,2.68248 -5.00794,-0.0165 z m 345.44113,-0.50042 c 2.16706,-1.63909 4.55887,-1.94086 4.55887,-0.57519 0,1.05539 -2.4789,2.12004 -4.83179,2.07519 -1.43904,-0.0274 -1.40155,-0.2335 0.27292,-1.5 z m -300.19113,-0.13048 c -2.32033,-0.93627 -1.25044,-4.81034 2.7083,-9.80672 2.16537,-2.73294 3.82688,-5.07916 3.69223,-5.21381 -0.13465,-0.13465 -5.62361,1.5256 -12.19768,3.68945 -11.71901,3.85729 -19.94081,5.02947 -20.63658,2.94216 -0.2093,-0.62789 -4.05333,0.37887 -9.54564,2.5 -5.05738,1.95316 -9.90132,3.5512 -10.76432,3.5512 -2.12001,0 -3.01616,-2.68074 -1.50488,-4.50172 1.28371,-1.54678 3.45299,-1.04256 2.45586,0.57082 -0.94727,1.53272 1.01313,1.1016 11.68223,-2.5691 11.3371,-3.90053 13.35187,-4.22292 12.49885,-2 -0.90675,2.36296 1.59271,1.85126 18.6826,-3.82477 8.70153,-2.89002 16.05452,-4.87668 16.33998,-4.41481 0.28546,0.46188 -1.46967,2.96584 -3.90028,5.56436 -7.74253,8.27739 -9.36209,12.17522 -5.05883,12.17522 0.87109,0 13.12943,-3.825 27.24075,-8.5 14.11133,-4.675 26.19706,-8.5 26.85718,-8.5 2.39731,0 1.1382,2.5811 -3.03429,6.22016 -4.13198,3.60373 -4.18353,3.72109 -1.64717,3.75 2.86248,0.0326 26.52833,-6.89772 50.84252,-14.88881 8.50346,-2.79474 16.26596,-5.08135 17.25,-5.08135 3.81596,0 1.71385,2.92031 -7.48623,10.40009 -2.62646,2.13535 -4.57735,4.0805 -4.33529,4.32255 0.24205,0.24205 12.44617,-2.52152 27.12028,-6.14127 14.6741,-3.61975 27.98749,-6.58137 29.5853,-6.58137 4.29411,0 3.95355,3.87227 -0.6999,7.95806 -1.98276,1.74088 -3.42023,3.35004 -3.19437,3.57589 0.62765,0.62766 15.65921,-3.12452 31.79938,-7.93776 20.62732,-6.15137 20.06776,-6.05308 20.69981,-3.63612 0.73321,2.80379 3.02514,2.63232 15.12809,-1.1318 8.44733,-2.62719 10.67542,-2.99504 12.23643,-2.02017 1.04969,0.65555 3.01308,1.1919 4.36308,1.1919 2.92536,0 4.39031,1.86108 2.45071,3.11338 -0.75797,0.48937 -4.30312,0.79787 -7.87812,0.68554 -4.55257,-0.14304 -9.74143,0.66583 -17.31902,2.69978 -8.3141,2.23164 -11.20822,2.6474 -12.5,1.79571 -0.92454,-0.60956 -1.56848,-1.60017 -1.43098,-2.20135 0.41572,-1.81762 -2.16703,-1.30103 -19.05199,3.81071 -8.90891,2.69708 -19.9268,5.70222 -24.48421,6.67809 -7.75448,1.66045 -8.39383,1.66668 -9.96334,0.0972 -1.56952,-1.56952 -1.36841,-1.99058 3.13396,-6.56169 l 4.8111,-4.88455 -3.84776,0.75731 c -2.11627,0.41652 -13.84523,3.28914 -26.06435,6.38361 -24.69958,6.2551 -29.28341,6.8107 -29.28341,3.54937 0,-2.14797 2.94513,-5.48402 9,-10.19463 l 3.5,-2.72295 -7.5,2.45449 c -56.98898,18.65051 -61.54704,19.88398 -62.66941,16.95912 -0.3762,-0.98035 0.0462,-3.01045 0.95623,-4.59615 l 1.63005,-2.8402 -2.70843,0.67311 c -1.48964,0.37021 -11.24546,3.52409 -21.6796,7.00862 -17.47866,5.83708 -22.94706,7.01763 -26.27884,5.67323 z m -57.25,-6.81748 c 0,-2.05033 3.49956,-8.52024 4.60858,-8.52024 2.01329,0 1.70846,2.74602 -0.67667,6.09563 -1.80585,2.53608 -3.93191,3.84711 -3.93191,2.42461 z m -244,-18.57128 c -2.475,-0.44039 -7.3875,-0.83407 -10.91667,-0.87484 -3.52916,-0.0408 -6.07917,-0.41161 -5.66668,-0.82411 1.05109,-1.05109 16.69564,-2.48938 25.08335,-2.30606 14.70671,0.32143 39.40585,-0.0613 49,-0.75929 l 10,-0.72752 -11,-1.80618 c -6.05,-0.9934 -16.2875,-2.06247 -22.75,-2.37571 -6.83211,-0.33116 -11.75,-0.99039 -11.75,-1.57506 0,-1.59492 21.53133,-0.0716 39.5,2.79462 l 16,2.55218 29.5,-2.00837 c 59.783,-4.07005 139.13046,-9.01158 161,-10.02661 39.31002,-1.8245 79.65393,-5.37605 143,-12.58855 60.52974,-6.89184 117.67622,-13.12938 136.5,-14.89896 15.43282,-1.45081 47.63399,-4.76403 58.23913,-5.99229 4.77442,-0.55297 9.6246,0.8766 9.02965,2.66144 -0.60526,1.81579 -5.84946,3.29384 -6.71541,1.8927 -0.5325,-0.86159 -8.23445,-0.39206 -30.13435,1.83706 -16.18046,1.64696 -34.81902,3.48646 -41.41902,4.08778 -6.6,0.60132 -44.175,4.64887 -83.5,8.99456 -39.325,4.34569 -80.95,8.81205 -92.5,9.92524 -11.55,1.11319 -22.35,2.19169 -24,2.39667 -1.65,0.20497 14.325,0.43637 35.5,0.51422 33.97599,0.12491 41.37892,-0.14248 63,-2.27551 13.475,-1.32938 34.4,-3.13944 46.5,-4.02235 25.30911,-1.84675 67.26839,-5.04414 85.5,-6.51529 6.875,-0.55476 19.08026,-1.75132 27.12279,-2.65903 17.41285,-1.96527 19.87721,-1.61982 19.87721,2.78636 l 0,3.11796 -9.48616,-0.69633 c -7.59741,-0.55769 -13.12261,-0.18476 -27.75,1.87302 -10.04511,1.41315 -25.46384,3.18435 -34.26384,3.93602 l -16,1.36667 30.66821,0.1233 c 29.73282,0.11954 33.83179,0.38509 33.83179,2.19174 0,1.01306 -7.95772,3.30718 -8.74407,2.52082 -0.51131,-0.51131 0.19354,-0.85937 3.74407,-1.84882 7.65567,-2.13346 -72.71869,-1.21127 -108,1.23916 -24.4005,1.69471 -52.88224,3.00713 -65.40759,3.01393 -6.54917,0.004 -22.74917,0.89701 -36,1.98544 -50.69554,4.16418 -78.62729,4.81628 -124.09241,2.8971 -25.82128,-1.08998 -28.54979,-1.02199 -62.5,1.55724 -19.525,1.48333 -38.875,3.05655 -43,3.49605 l -7.5,0.79908 6.5,0.10967 c 3.575,0.0603 21.8,-0.54348 40.5,-1.34177 38.99051,-1.6645 44.09672,-1.75972 43.14153,-0.80454 -1.02106,1.02106 -51.62254,3.08205 -104.64153,4.26204 -25.575,0.56919 -55.5,1.47935 -66.5,2.02257 -23.15954,1.1437 -51.99417,1.13017 -58.5,-0.0274 z m 350,-13.8671 c 6.75616,-1.13374 -80.43092,-0.21509 -91.80384,0.9673 -4.33552,0.45074 12.82708,0.61575 39.30384,0.37789 25.85,-0.23223 49.475,-0.83757 52.5,-1.34519 z M 73.79566,138.77423 c -8.16449,-0.67389 -11.00726,-1.39501 -17.15379,-4.35137 -8.55849,-4.11647 -11.91638,-7.65491 -14.03525,-14.78993 -2.86454,-9.64595 -1.60864,-15.69788 5.14704,-24.802597 8.00836,-10.79298 18.16004,-18.78327 25.8283,-20.32923 7.55155,-1.52243 9.8016,-1.63385 11.10753,-0.55002 2.51375,2.08623 1.61362,3.91076 -1.92939,3.91076 -11.06601,0 -25.50006,10.33257 -33.51597,23.992287 -3.10177,5.28567 -3.48963,13.56053 -0.87225,18.60928 2.39567,4.62107 7.85921,8.9503 13.86882,10.98945 7.67788,2.60521 30.19308,2.65813 37.56216,0.0883 7.39163,-2.57771 12.85588,-8.95686 17.16804,-20.04256 2.82177,-7.25424 3.28469,-9.52289 2.792,-13.682877 -0.32484,-2.74275 -1.23017,-5.89991 -2.01184,-7.01591 -2.0227,-2.88781 -8.76016,-6.86973 -19.1691,-11.32917 -9.26749,-3.97042 -10.45847,-4.86312 -10.48469,-7.85879 -0.0188,-2.144195 2.29231,-2.289192 3.98469,-0.25 0.68469,0.825 2.22479,1.5 3.42244,1.5 1.19766,0 2.60506,0.37562 3.12756,0.83472 0.5225,0.45909 3.2,1.64682 5.95,2.63941 7.43776,2.68458 14.85365,7.36676 17.26206,10.89878 3.27289,4.79979 4.52522,11.92632 3.2095,18.264067 -0.60836,2.93048 -1.49143,5.5663 -1.96238,5.85736 -0.47094,0.29105 -1.60489,2.78312 -2.51989,5.53791 -2.00011,6.02178 -7.9947,13.88093 -12.9002,16.9127 -3.074,1.89984 -20.17583,6.27138 -23.08909,5.90199 -0.55,-0.0697 -5.40384,-0.49028 -10.7863,-0.93455 z m 7.2863,-11.91504 c -0.83352,-0.55077 -3.94376,-0.7274 -7,-0.39754 -4.58687,0.49506 -6.22184,0.204 -9.84782,-1.75309 -3.70036,-1.99725 -4.79633,-3.37547 -7.35968,-9.25511 -2.92127,-6.70064 -2.96304,-7.01078 -1.3887,-10.3122 2.83547,-5.946047 16.81569,-10.331287 22.03462,-6.911717 1.37017,0.89777 2.73205,1.63231 3.0264,1.63231 0.29435,0 0.53518,-1.99844 0.53518,-4.44098 0,-2.44254 0.45,-4.7191 1,-5.05902 0.55,-0.33992 1,-1.5056 1,-2.5904 0,-2.50176 2.2366,-3.38853 4.92186,-1.95142 2.38872,1.27841 2.90112,4.29486 0.57814,3.40345 -1.23906,-0.47548 -1.5,0.56159 -1.5,5.96158 l 0,6.537177 2.75,-0.8233 c 1.5125,-0.45281 4.01696,-1.321457 5.56547,-1.930327 3.34108,-1.31371 5.88475,-0.25701 8.31699,3.455057 3.51053,5.35774 -0.90563,26.14306 -5.36053,25.23019 -1.28271,-0.26284 -1.68884,-1.1356 -1.47098,-3.1611 0.24634,-2.29034 -0.0258,-2.70181 -1.5,-2.26778 -0.99052,0.29164 -3.58387,0.84722 -5.76299,1.23463 -2.17912,0.38741 -4.65412,1.53382 -5.5,2.54756 -1.12072,1.34313 -1.9449,1.57428 -3.03796,0.85203 z m -11.82999,-7.00738 c 0.18518,-0.55552 2.3421,-1.35239 4.79317,-1.77082 3.57409,-0.61014 4.5932,-1.25166 5.14697,-3.23996 1.44835,-5.20026 0.94788,-8.02404 -1.86015,-10.49555 -3.24537,-2.85644 -4.3029,-2.9556 -10.8185,-1.01438 -6.94565,2.06935 -7.86974,3.99145 -4.94938,10.29475 2.64974,5.71919 6.74997,9.03972 7.68789,6.22596 z m 31.28108,-8.48996 c 0.92867,-7.09207 -0.72715,-9.22407 -5.85063,-7.53316 -2.05292,0.67752 -4.55223,1.01752 -5.55402,0.75555 -1.52151,-0.39789 -1.92821,0.32871 -2.46999,4.41282 -0.35671,2.68904 -0.89725,5.5372 -1.20119,6.32926 -0.4416,1.15079 0.82126,1.49992 6.28606,1.73782 3.76127,0.16374 7.13036,0.0727 7.48686,-0.20229 0.3565,-0.275 0.94281,-2.75 1.30291,-5.5 z m 64.75836,-1.80945 c -0.58839,-0.74779 -0.46303,-4.35175 0.33706,-9.690557 0.70061,-4.675 0.97676,-8.79129 0.61366,-9.14732 -0.36309,-0.35603 -3.58517,-0.35603 -7.16017,0 l -6.5,0.64732 0,6.69864 c 0,7.506727 -1.32826,10.018707 -4.08696,7.729187 -1.44114,-1.19604 -1.59817,-2.90745 -1.13843,-12.407617 0.8094,-16.72552 5.3849,-28.739306 10.23646,-26.877589 2.51984,0.966954 2.55073,7.357379 0.0356,7.357379 -0.70769,0 -1.83916,2.1375 -2.51438,4.75 -0.67523,2.6125 -1.39459,5.3125 -1.59858,6 -0.27344,0.92153 1.59168,1.25 7.09771,1.25 7.16372,0 7.46862,-0.0955 7.46862,-2.34004 0,-3.66161 3.89948,-17.988065 5.26867,-19.35675 0.68231,-0.682065 1.79526,-0.882218 2.4961,-0.448902 1.00389,0.620684 0.86782,2.72747 -0.65964,10.213832 -1.05842,5.18753 -2.43499,13.03186 -3.05905,17.43186 -1.88978,13.324297 -3.08437,18.300717 -4.52587,18.853867 -0.75569,0.28999 -1.79553,-0.008 -2.31076,-0.66331 z m 49.41783,-9.21948 c -0.34501,-0.899057 -0.62728,-6.369917 -0.62728,-12.157457 l 0,-10.52281 -5.28842,6.8483 c -2.90864,3.76656 -6.08025,7.00079 -7.04804,7.18717 -2.77749,0.53489 -4.66157,-1.75625 -4.68625,-5.69872 l -0.0227,-3.62756 -3.27229,6 c -4.61431,8.46068 -5.93771,10.38404 -7.57798,11.01347 -3.99773,1.534067 -3.04382,-2.05042 4.50812,-16.94019 6.86307,-13.531584 8.19899,-15.552969 10.28511,-15.562419 2.39381,-0.01084 2.39651,0.0023 1.74416,8.489139 -0.35935,4.675 -0.48026,8.5 -0.26869,8.5 0.21157,0 2.92491,-3.375 6.02963,-7.5 5.23607,-6.95675 8.4709,-9.131687 9.9712,-6.704141 0.27053,0.437721 0.59039,7.750221 0.7108,16.250001 0.21015,14.834407 0.13775,15.466287 -1.80557,15.757007 -1.16292,0.17398 -2.29146,-0.39281 -2.65178,-1.33179 z m 29.37011,-7.151527 c -0.001,-1.55075 0.64942,-5.74455 1.44635,-9.31955 0.79694,-3.575 2.40558,-10.88782 3.57476,-16.250715 1.16918,-5.362893 2.80047,-10.425393 3.62507,-11.25 2.5697,-2.569702 8.13261,-1.876955 11.43335,1.423792 3.93654,3.936536 3.69099,6.544311 -1.06395,11.29925 l -3.98704,3.987033 7.02643,7.62549 c 4.54964,4.93755 6.92441,8.30987 6.73703,9.567 -0.47093,3.15946 -2.47531,2.94367 -5.47619,-0.58958 -5.82167,-6.85445 -12.07685,-12.81227 -13.45176,-12.81227 -0.98784,0 -2.02751,2.83446 -3.39286,9.25 -1.72823,8.12063 -2.24329,9.28902 -4.21858,9.56955 -1.87642,0.2665 -2.25043,-0.14859 -2.25261,-2.5 z m 16.96387,-28.77287 c 1.58217,-1.906403 -0.18125,-4.54668 -3.0367,-4.54668 -1.71017,0 -3.90255,4.933056 -3.91898,8.818094 -0.006,1.422276 4.55471,-1.378429 6.95568,-4.271414 z m 19.08984,29.07462 c -3.43963,-1.9728 -3.90115,-3.75455 -3.98081,-15.36842 l -0.0703,-10.247118 3.68179,-4.075298 c 7.49742,-8.298749 21.31821,-12.388296 21.31821,-6.308019 0,0.757655 -1.0125,1.387438 -2.25,1.399517 -3.45591,0.03373 -10.88466,3.738261 -14.5,7.230782 -2.56631,2.479126 -3.25,3.953966 -3.25,7.010806 0,3.57635 0.17138,3.81251 2.25,3.10032 3.36058,-1.15141 8.0076,-1.01516 8.44195,0.24752 0.21027,0.61126 -1.9969,1.96402 -4.90482,3.00613 -4.95606,1.77609 -5.30625,2.12386 -5.59243,5.55367 -0.42237,5.06192 1.98683,5.64282 9.99224,2.40929 6.3308,-2.55712 8.42054,-2.32713 7.22251,0.7949 -1.61758,4.21533 -13.99072,7.75097 -18.35835,5.24592 z m 61.86247,-0.64324 c -4.44005,-1.23189 -7.56243,-3.87295 -9.40221,-7.95287 -1.53089,-3.39491 -1.60943,-4.58484 -0.57603,-8.728 1.5673,-6.28376 5.11382,-12.255152 9.63754,-16.227025 4.60763,-4.04555 8.21043,-5.494901 9.98933,-4.018547 1.6933,1.405319 0.73686,3.948382 -1.48498,3.948382 -0.93984,0 -3.82127,2.112473 -6.40318,4.694385 -5.52527,5.525265 -8.68002,13.542955 -7.09839,18.040305 1.13952,3.24018 6.7659,7.26531 10.15557,7.26531 1.39646,0 2.27127,0.49252 2.05061,1.1545 -0.57856,1.7357 -3.95441,2.63201 -6.86826,1.82356 z m -28.49964,-2.70698 c -2.58164,-2.58164 -5.11689,-8.9797 -6.40745,-16.17005 -1.3745,-7.658056 -0.7503,-11.10103 2.01257,-11.10103 1.59189,0 1.98095,0.677729 1.98095,3.450779 0,7.455891 3.70146,19.549221 5.98353,19.549221 1.44793,0 5.9664,-8.30378 8.56475,-15.7398 2.36507,-6.768396 3.337,-7.901936 5.92414,-6.909155 1.16409,0.446703 1.0074,1.83309 -0.90934,8.045495 -2.6966,8.74001 -6.47143,15.59961 -10.19723,18.53032 -3.21006,2.52504 -4.69745,2.59868 -6.95192,0.34422 z m 46.10109,-2.38496 c -0.63406,-1.6687 2.91903,-14.49927 4.56411,-16.48146 1.84652,-2.224928 3.66262,-1.681112 8.19321,2.45339 2.32521,2.12193 5.20994,4.37159 6.41051,4.99925 2.63979,1.38008 2.53203,1.64652 5.67702,-14.035885 2.01251,-10.035348 2.51861,-11.357715 4.45528,-11.640966 1.92385,-0.281378 2.18226,0.13672 2.16321,3.5 -0.0229,4.047907 -3.10243,18.988171 -4.84563,23.508751 -0.57035,1.47906 -1.84892,3.12373 -2.84128,3.65482 -2.57353,1.37731 -8.81628,-0.99113 -12.8066,-4.85871 l -3.26468,-3.16425 -1.65139,4.97186 c -1.84775,5.56307 -5.16036,9.44445 -6.05376,7.0932 z m -21.94844,-5.7784 c -1.13543,-1.83716 0.15677,-2.79588 4.65612,-3.45451 2.35251,-0.34436 5.2898,-0.9097 6.5273,-1.25629 3.20272,-0.89702 2.96822,1.95481 -0.28253,3.43595 -3.98255,1.81457 -10.12347,2.53275 -10.90089,1.27485 z m 342.08854,-0.28085 c -2.77934,-1.5554 -1.89584,-3.69108 1.81495,-4.38723 2.3541,-0.44163 4.8309,-2.12734 7.7016,-5.24176 l 4.2317,-4.590777 -3.1251,-1.27517 c -8.7502,-3.570464 -8.3336,-15.581099 0.6699,-19.310454 3.8834,-1.608566 6.2869,-0.698214 5.872,2.22405 -0.2175,1.531553 -1.1218,2.365361 -2.8202,2.600289 -3.5515,0.491272 -5,1.984418 -5,5.154182 0,3.134016 1.3318,4.543194 5.2146,5.517719 4.7912,1.202519 5.4859,3.09799 2.9128,7.948231 -4.3283,8.15903 -13.0547,13.83312 -17.47225,11.36092 z m -280.55951,-3.39987 c -4.13456,-3.479 -5.54351,-8.952522 -4.09748,-15.918001 1.1929,-5.746183 3.33731,-8.573558 5.13734,-6.773526 0.73428,0.734281 0.69912,2.744313 -0.11675,6.67434 -1.02345,4.92993 -0.94241,6.084146 0.65691,9.356907 1.0034,2.0533 2.58827,3.87423 3.52191,4.0465 3.33718,0.61576 10.80246,-15.162044 10.80246,-22.830886 0,-3.698565 2.65167,-6.516308 4.60595,-4.894407 0.76673,0.636329 1.39405,2.203632 1.39405,3.482896 0,3.994568 -4.79177,17.711235 -7.89789,22.608077 -4.69926,7.40844 -8.77982,8.64605 -14.0065,4.2481 z m 166.45422,1.65362 c -0.93984,-1.52068 2.0818,-3.79621 11.50053,-8.66079 4.9223,-2.542269 8.94964,-4.944009 8.94964,-5.3372 0,-0.393191 -2.74955,-2.029055 -6.1101,-3.635254 -10.03015,-4.793973 -13.44139,-10.774796 -8.6399,-15.148099 3.50659,-3.19388 6.2725,-4.299277 10.75758,-4.299277 3.38986,0 4.0786,0.314011 3.80498,1.734786 -0.21206,1.101129 -1.60859,1.947141 -3.82333,2.316155 -3.9977,0.66609 -7.98923,2.921989 -7.98923,4.515292 0,1.829517 4.21288,5.07308 10.25493,7.895437 9.56985,4.470257 9.65458,7.743498 0.344,13.2885 -4.44237,2.6457 -16.67647,8.24983 -18.00978,8.24983 -0.25911,0 -0.72681,-0.41372 -1.03932,-0.91938 z m -49.32929,-1.10673 c -5.37643,-1.10514 -10.02848,-4.36049 -10.83745,-7.58366 -2.02153,-8.054424 11.15793,-23.39023 20.10137,-23.39023 3.74966,0 2.77072,1.927223 -2.56068,5.041172 -4.68178,2.73452 -11.54182,10.832505 -12.59207,14.864419 -0.44394,1.704248 -0.0824,2.803509 1.23993,3.770459 3.16403,2.31359 9.67737,3.56762 15.17836,2.92233 4.10477,-0.48151 5.25,-0.31345 5.25,0.77044 0,3.527 -7.65311,5.27547 -15.77946,3.60507 z m -85.72054,-1.18333 c -4.09938,-1.43688 -6.51838,-3.68165 -8.16765,-7.57936 -1.24268,-2.936836 -1.18646,-3.752575 0.52535,-7.622405 2.23486,-5.052282 7.97358,-11.703365 12.52502,-14.516312 4.29294,-2.653181 13.90189,-3.26743 14.38582,-0.919609 0.25551,1.239559 -0.66019,1.821973 -3.66191,2.329111 -8.19293,1.384186 -19.10663,11.774735 -19.10663,18.190743 0,4.414442 7.5723,6.798932 16.46169,5.183712 3.54245,-0.64367 2.93209,2.72882 -0.81574,4.50728 -3.88088,1.8416 -7.72437,1.97667 -12.14595,0.42684 z m 40.88478,0.44413 c -3.74177,-2.46502 -2.1606,-8.479207 3.19383,-12.148123 3.32292,-2.276901 3.39627,-2.456846 1.74505,-4.28142 -0.94801,-1.047543 -1.72366,-3.461005 -1.72366,-5.363248 0,-2.742492 0.91275,-4.388652 4.40821,-7.950262 4.56792,-4.654373 8.99179,-6.04197 8.99179,-2.820378 0,0.919193 0.74166,2.490783 1.64813,3.492423 1.54138,1.703204 1.44687,2.226478 -1.45903,8.078741 l -3.10717,6.257577 2.95904,3.691362 c 1.62746,2.030249 2.95903,4.098008 2.95903,4.595008 0,1.32706 -3.55798,4.32231 -4.27849,3.60181 -0.3389,-0.3389 -1.82557,0.33511 -3.30371,1.49782 -2.69996,2.12378 -9.67052,2.90506 -12.03302,1.34869 z m 10.44302,-6.06991 c 2.04052,-1.56975 2.14097,-1.94581 0.81392,-3.04716 -1.7376,-1.442081 -4.05827,-0.524796 -7.0579,2.78976 -1.8806,2.07804 -1.87355,2.09247 1.01119,2.07038 1.59775,-0.0122 3.9525,-0.82807 5.23279,-1.81298 z m 3.16561,-19.91478 c 0.009,-1.697278 -0.98179,-1.570492 -3.16467,0.404988 -1.8418,1.666808 -2.4039,4.436523 -1.15401,5.686404 0.77422,0.774229 4.30877,-4.211155 4.31868,-6.091392 z m 54.71384,23.73436 c -3.68257,-2.89671 -5.02903,-7.978894 -4.46833,-16.865659 0.56104,-8.892128 2.16939,-12.932091 5.47909,-13.762774 3.52836,-0.885562 3.74866,0.04861 1.23567,5.239767 -2.66016,5.495152 -3.13161,14.185824 -1.04193,19.206919 1.12235,2.696807 1.85093,3.247107 3.97194,2.999997 3.56485,-0.41531 9.82917,-9.721042 12.0806,-17.945879 1.35337,-4.944063 2.15878,-6.356731 3.62419,-6.356731 1.03627,0 2.03536,0.785297 2.22021,1.745105 0.61883,3.213344 -2.71305,12.193867 -6.87383,18.527264 -5.86407,8.926071 -11.09375,11.250291 -16.22761,7.211991 z m 56.62857,-0.5516 c -0.95464,-2.48777 0.30212,-12.436499 2.31776,-18.347683 1.65835,-4.86338 4.45919,-8.305645 5.72667,-7.038159 0.2619,0.261899 -0.34811,4.070983 -1.35558,8.464631 -1.00748,4.393648 -2.09084,9.928817 -2.40747,12.300381 -0.31664,2.37155 -0.8366,4.73405 -1.15547,5.25 -0.88636,1.43415 -2.45532,1.11835 -3.12591,-0.62917 z m 15.97709,-4.60918 c -1.75289,-0.46649 -4.15056,-2.073027 -5.32815,-3.570088 -2.50376,-3.183014 -2.21919,-5.877388 1.47239,-13.940863 l 2.4322,-5.312629 -6.19467,-0.152314 c -3.40708,-0.08377 -6.64468,-0.256866 -7.19468,-0.384651 -0.55,-0.127784 -1.5625,-0.284243 -2.25,-0.347685 -1.47338,-0.135963 -1.67775,-2.732949 -0.28292,-3.595007 0.5319,-0.32873 6.0444,-0.728608 12.25,-0.888618 6.6576,-0.171665 12.25523,-0.811874 13.65475,-1.561714 2.06969,-1.108899 2.64295,-0.999676 4.5,0.857379 1.84557,1.845563 2.12817,3.286405 2.12817,10.850388 0,9.453876 -1.5076,14.620737 -4.77654,16.37022 -3.67234,1.965382 -7.19259,2.531962 -10.41055,1.675582 z m 7.92323,-6.57358 c 2.02443,-2.291375 3.13175,-9.311091 2.3213,-14.715546 -0.61492,-4.100578 -0.75708,-4.25207 -2.99779,-3.194625 -4.1607,1.963537 -10.25581,16.630677 -7.89298,18.993504 1.34527,1.345276 7.06234,0.622538 8.56947,-1.083333 z m 51.15239,3.137455 c -0.83018,-1.986899 -1.76796,-5.795559 -2.08396,-8.463689 l -0.57455,-4.851145 -2.96287,4.213689 c -3.92528,5.582394 -6.49635,7.71369 -9.30535,7.71369 -2.88454,0 -6.19577,-4.065002 -7.05888,-8.665775 l -0.64964,-3.462881 -3.84438,5.314328 c -2.11441,2.92288 -3.8589,6.053683 -3.87664,6.957339 -0.0299,1.52381 -1.94969,2.856989 -4.11405,2.856989 -0.50501,0 -0.91821,-1.495918 -0.91821,-3.324262 0,-2.474881 1.41665,-5.217802 5.54441,-10.735103 6.13646,-8.202184 7.57012,-9.356448 10.47577,-8.43423 1.54644,0.490822 1.98969,1.543932 2.02492,4.810983 0.0248,2.300436 0.5888,5.454785 1.2533,7.009663 l 1.2082,2.827052 2.33823,-2.488933 c 1.28603,-1.368913 3.99655,-5.341086 6.02337,-8.827052 2.95508,-5.082463 4.17514,-6.338118 6.15847,-6.338118 2.41229,0 2.49329,0.246794 3.28224,10 0.48096,5.94573 1.42029,10.939343 2.3169,12.316924 1.17873,1.811037 1.24831,2.629827 0.31865,3.75 -1.9889,2.396476 -3.96843,1.619956 -5.55593,-2.179469 z M 430.80185,64.248396 c -2.43067,-2.430666 1.07132,-4.708862 8.91335,-5.798526 2.94941,-0.409826 4.47776,-0.159205 5.33609,0.875021 1.80735,2.177725 0.56369,3.232815 -4.70703,3.993327 -2.61927,0.377933 -5.67585,0.903807 -6.79241,1.168608 -1.11657,0.264801 -2.35407,0.157508 -2.75,-0.23843 z"
     style="fill:#000000" />
</svg>
