<?xml version="1.0" encoding="UTF-8" standalone="no"?>
<svg
   xmlns:dc="http://purl.org/dc/elements/1.1/"
   xmlns:cc="http://creativecommons.org/ns#"
   xmlns:rdf="http://www.w3.org/1999/02/22-rdf-syntax-ns#"
   xmlns:svg="http://www.w3.org/2000/svg"
   xmlns="http://www.w3.org/2000/svg"
   viewBox="0 0 481.60394 399.78586"
   height="399.78586"
   width="481.60394"
   version="1.1"
   id="svg4931">
  <metadata
     id="metadata4937">
    <rdf:RDF>
      <cc:Work
         rdf:about="">
        <dc:format>image/svg+xml</dc:format>
        <dc:type
           rdf:resource="http://purl.org/dc/dcmitype/StillImage" />
        <dc:title></dc:title>
      </cc:Work>
    </rdf:RDF>
  </metadata>
  <defs
     id="defs4935" />
  <path
     id="path4941"
     d="m 131.28896,398.62124 c -22.817,-3.02945 -45.988189,-8.63048 -55.711659,-13.46685 -21.44924,-10.66864 -25.84508,-13.30947 -31.79355,-19.10027 -4.63827,-4.51532 -9.2408,-7.3269 -17.8051,-10.87677 -9.12157,-3.78082 -12.74984,-6.07018 -17.2571395,-10.88884 -8.84615003,-9.45726 -11.51278,-18.54858 -5.44059,-18.54858 1.521,0 3.02015,1.60513 4.25143,4.55197 l 1.90193,4.55197 22.8023395,-0.86742 c 27.9853,-1.06457 41.70815,-2.32712 46.32291,-4.26183 1.93632,-0.81179 7.33919,-2.27219 12.00639,-3.24533 7.6629,-1.59776 24.726909,-9.14077 30.481959,-13.47431 2.09842,-1.5801 1.73962,-2.23136 -5.04953,-9.1655 -4.01965,-4.1055 -10.66118,-10.62426 -14.75893,-14.48613 -13.583169,-12.80126 -29.454669,-30.69367 -36.310719,-40.93414 -3.7206,-5.55724 -6.76474,-10.58621 -6.76474,-11.17545 0,-0.58927 1.38292,-1.8115 3.07317,-2.71609 3.00244,-1.60686 4.94894,-1.55583 23.80183,0.62405 l 6.25,0.72265 -7.47193,-3.32493 c -9.64823,-4.29336 -25.16476,-18.80337 -33.00536,-30.8644 -15.62217,-24.03123 -25.49732,-47.52353 -22.8734,-54.41426 0.7112,-1.86771 1.53605,-6.38209 1.83298,-10.03192 0.69398,-8.53054 2.13822,-10.05137 7.47267,-7.86893 5.1893,2.12306 17.14715,3.99555 19.98363,3.12926 2.2367,-0.68311 -4.60029,-8.55116 -24.82377,-28.56735 -7.18593,-7.112279 -7.7212,-8.052769 -9.09738,-15.984679 -1.27377,-7.34149 -1.13293,-10.08047 1.09265,-21.25 2.7247,-13.67455 5.87588,-24.56801 7.66856,-26.50973 1.64577,-1.7826 1.39147,-0.34492 -2.1567,12.1927 -2.8196,9.9632 -3.18196,13.24361 -2.71949,24.6198 0.57628,14.17525 2.09483,18.71463 7.44426,22.25291 1.76458,1.167149 8.15529,7.465839 14.20157,13.997089 6.04628,6.53125 13.43078,13.52216 16.40998,15.53536 8.09697,5.47153 7.28252,7.55724 -3.64577,9.33638 -8.55786,1.39324 -17.948,0.74176 -23.52735,-1.63228 -7.02533,-2.98931 -4.53011,22.28496 3.904,39.54412 2.74046,5.60797 5.77322,11.07271 6.73945,12.14386 0.96624,1.07116 4.60059,6.30693 8.07635,11.63506 3.47577,5.32812 6.87124,9.6875 7.54549,9.6875 0.67425,0 4.76372,3.51563 9.08774,7.8125 4.78258,4.75259 9.82016,8.47746 12.86182,9.51026 9.24246,3.1383 20.801389,10.2128 20.368409,12.46624 -0.59354,3.08901 -13.602249,4.20261 -26.016919,2.22715 -7.1788,-1.14231 -9.97649,-1.19903 -9.97649,-0.20222 0,1.74122 18.15292,23.63027 24.26803,29.26272 2.50892,2.3109 5.444499,5.96715 6.523509,8.125 2.40926,4.81819 26.03552,29.0376 30.77096,31.5435 5.70091,3.0168 3.98717,8.00485 -2.75021,8.00485 -1.22828,0 -8.13475,3.05349 -15.34772,6.78553 -7.21297,3.73203 -15.302629,7.13132 -17.977029,7.55397 -2.67439,0.42266 -9.08129,2.09235 -14.23754,3.71045 -9.15283,2.87225 -15.71233,3.59305 -50.625,5.56298 l -15,0.84637 5,2.23434 c 17.76647,7.93925 21.7819,10.27931 28.28865,16.48569 3.93291,3.75137 7.94906,6.82067 8.92476,6.82067 0.9757,0 5.09558,2.14196 9.15529,4.75993 10.72191,6.91416 18.89813,9.86338 39.256299,14.16005 24.05522,5.07695 30.92759,5.69507 61.875,5.56518 24.95674,-0.10475 26.77346,-0.27742 36.875,-3.50527 5.84375,-1.86733 14.5625,-4.59515 19.375,-6.06186 4.8125,-1.4667 11.6094,-4.03719 15.10422,-5.71218 3.49483,-1.67499 8.55733,-3.38674 11.25,-3.80389 2.69268,-0.41715 6.9998,-1.81195 9.57139,-3.09955 2.57159,-1.2876 9.5657,-4.11053 15.54246,-6.27317 8.39247,-3.03675 12.45119,-5.38051 17.82488,-10.29316 3.82692,-3.49859 11.03536,-9.36703 16.01877,-13.04097 6.93083,-5.10963 10.72068,-9.1746 16.12214,-17.2925 3.88378,-5.83695 12.51528,-16.331 19.18111,-23.32012 15.46503,-16.21504 18.83434,-20.11696 24.54565,-28.42574 23.48869,-34.17116 24.55031,-36.42795 32.88478,-69.90675 3.40746,-13.68745 5.11038,-23.77826 5.80109,-34.375 1.28026,-19.64157 1.39932,-44.04874 0.23746,-48.67939 -0.87092,-3.47112 0.0201,-4.60323 15.7414,-19.999999 9.16551,-8.97633 19.93878,-20.25811 23.94059,-25.07061 4.0018,-4.8125 7.86902,-9.14129 8.59384,-9.61954 2.81837,-1.85962 -0.53888,-2.32517 -8.151,-1.13027 -15.04405,2.36152 -24.94073,2.55059 -25.73085,0.49155 -0.41567,-1.0832 0.58696,-2.98394 2.40056,-4.55091 1.7129,-1.47995 5.95124,-6.34708 9.41855,-10.81583 3.46731,-4.46875 7.55751,-9.25 9.08935,-10.625 3.32375,-2.98346 14.242,-18.03828 13.5696,-18.71068 -0.25883,-0.25883 -6.93606,3.90924 -14.83829,9.26236 -18.29592,12.394 -30.34367,17.8959 -34.89605,15.93613 -1.77191,-0.7628 -8.84665,-6.9427 -15.72165,-13.73312 -6.875,-6.79042 -14.46875,-13.35682 -16.875,-14.59201 -2.40625,-1.23519 -10,-3.78222 -16.875,-5.66006 -16.80704,-4.5906804 -30.83173,-4.6502904 -45.66691,-0.1941004 -5.8207,1.7484204 -12.83309,3.5725804 -15.58309,4.0537004 -6.4499,1.12841 -37.51394,12.32487 -41.57215,14.98392 -1.71086,1.121 -2.69228,1.36121 -2.18091,0.53381 0.71436,-1.15585 0.3185,-1.17724 -1.70865,-0.0923 -1.45113,0.77662 -2.50338,1.8704 -2.33835,2.43063 0.35732,1.21298 -9.47142,13.91875 -15.70194,20.29816 -5.35694,5.48494 -7.00549,10.76726 -7.97091,25.54057 -0.55478,8.48932 -0.20968,13.41723 1.38482,19.77514 1.65278,6.590249 1.79478,8.864539 0.64035,10.255529 -1.83595,2.2122 -4.92726,2.34101 -4.92726,0.20532 0,-1.19435 -3.90559,-1.57725 -15.9375,-1.5625 -11.1718,0.0138 -18.92775,-0.67506 -25.9375,-2.30335 -14.42184,-3.35002 -39.64984,-13.309519 -51.25,-20.232449 -5.5,-3.28237 -15.0625,-8.37622 -21.25,-11.31966 -6.1875,-2.94345 -15.749999,-8.8117 -21.249999,-13.04058 -5.5,-4.22886 -15.18581,-11.58957 -21.52404,-16.35711 -11.76419,-8.84894 -17.85096,-15.3387 -17.85096,-19.03284 0,-3.85023 4.83612,-2.26354 8.09074,2.65451 1.71941,2.59821 6.64927,7.04201 10.95523,9.87512 4.30597,2.8331 10.36028,7.36893 13.45403,10.07962 9.24906,8.10385 22.677159,17.10586 29.999999,20.11156 3.78125,1.55204 12.56912,6.18964 19.52862,10.30577 27.69157,16.37793 63.87945,26.238429 84.78778,23.103029 l 5.96304,-0.894209 -0.86103,-10.33654 c -0.52421,-6.29317 -0.26961,-14.38128 0.65089,-20.6766 1.64971,-11.28242 5.04775,-17.49758 18.90314,-34.57465 8.21407,-10.12403 10.6291,-11.5885 29.15256,-17.67824 8.25,-2.71226 18.49959,-6.6993104 22.77685,-8.8601304 4.7995,-2.42463 9.66265,-3.92875 12.70255,-3.92875 2.70912,0 9.33454,-0.84908 14.72314,-1.88685 6.36297,-1.22542004 13.08385,-1.63316004 19.17246,-1.16316004 11.54607,0.89129004 32.44152,6.08804004 40,9.94809044 5.51152,2.81469 21.25,16.51173 21.25,18.49367 0,0.55266 1.8223,3.36249 4.04955,6.24405 2.22726,2.88156 4.1378,5.41537 4.24565,5.63068 0.10787,0.21532 4.89494,-1.96991 10.63795,-4.85606 10.80335,-5.42922 19.49551,-10.9324 33.71974,-21.34862 4.55285,-3.33399 9.16027,-6.0618004 10.23873,-6.0618004 2.80766,0 3.83579,2.2936004 2.01278,4.4902004 -0.85846,1.03438 -1.61001,3.40036 -1.67011,5.25774 -0.15824,4.88986 -5.34715,12.92257 -17.52295,27.1265 -5.89309,6.8747 -10.0608,12.71741 -9.26161,12.9838 0.7992,0.2664 6.28433,-0.22505 12.18918,-1.09213 7.60062,-1.11607 13.07274,-2.80887 18.73697,-5.7963 7.92427,-4.1794 13.0719,-5.27911 14.42941,-3.08261 1.25477,2.03027 -0.67727,4.91074 -4.093,6.10224 -1.83551,0.64027 -8.37901,7.0077 -14.54111,14.14985 -6.1621,7.14214 -18.4585,20.16993 -27.32533,28.95065 -12.2323,12.113499 -16.42394,17.089149 -17.37512,20.624999 -0.68949,2.56304 -1.64445,18.72256 -2.12213,35.91006 l -0.8685,31.25 -5.8292,21.875 c -6.97157,26.16199 -10.00655,34.06052 -17.53124,45.625 -14.00233,21.51983 -21.2446,30.90638 -35.62463,46.17241 -8.45899,8.98018 -17.92107,20.16735 -21.02684,24.86038 -7.32236,11.06456 -13.2269,17.52987 -21.71819,23.7808 -3.78125,2.7836 -9.6875,7.68833 -13.125,10.89941 -7.17446,6.70189 -10.43157,8.5209 -24.63425,13.75759 -5.64746,2.08229 -10.99904,4.39259 -11.89237,5.134 -0.89335,0.7414 -4.16858,1.82333 -7.27828,2.4043 -3.10971,0.58095 -9.99451,2.95112 -15.29955,5.26704 -5.30505,2.31591 -14.4268,5.48623 -20.27055,7.04515 -5.84375,1.55892 -13.4375,3.86016 -16.875,5.11386 -5.18376,1.89059 -10.94145,2.34647 -33.75,2.67226 -16.59317,0.23701 -31.96189,-0.19961 -38.75,-1.10089 z M 44.726461,31.180341 c -4.03989,-1.99152 -4.79121,-3.04503 -3.2621,-4.57414 1.16185,-1.16185 7.9496,3.1315 7.9496,5.02824 0,1.95808 0.25605,1.98289 -4.6875,-0.4541 z"
     style="fill:#000000" />
</svg>
