<?xml version="1.0" encoding="UTF-8" standalone="no"?>
<svg
   xmlns:dc="http://purl.org/dc/elements/1.1/"
   xmlns:cc="http://creativecommons.org/ns#"
   xmlns:rdf="http://www.w3.org/1999/02/22-rdf-syntax-ns#"
   xmlns:svg="http://www.w3.org/2000/svg"
   xmlns="http://www.w3.org/2000/svg"
   viewBox="0 0 133.49359 138.19147"
   height="138.19147"
   width="133.49359"
   version="1.1"
   id="svg5013">
  <metadata
     id="metadata5019">
    <rdf:RDF>
      <cc:Work
         rdf:about="">
        <dc:format>image/svg+xml</dc:format>
        <dc:type
           rdf:resource="http://purl.org/dc/dcmitype/StillImage" />
        <dc:title></dc:title>
      </cc:Work>
    </rdf:RDF>
  </metadata>
  <defs
     id="defs5017" />
  <path
     id="path5023"
     d="m 105.18549,137.06321 c -0.60048,-0.97161 0.95992,-20.13138 2.36177,-28.99938 0.44026,-2.78511 0.66267,-5.06383 0.49423,-5.06383 -0.16843,0 -1.96402,1.125 -3.9902,2.5 -4.419555,2.99919 -4.868405,3.03645 -7.299085,0.60577 -2.52676,-2.52676 -3.500888,-8.92468 -2.13256,-14.00628 1.24382,-4.61918 5.913875,-10.47262 10.070185,-12.62193 4.35559,-2.25236 10.95177,-3.4299 13.59141,-2.4263 2.65928,1.01105 3.15676,3.70775 0.84748,4.59391 -0.83474,0.32032 -1.42549,1.09369 -1.31278,1.71861 0.11271,0.62492 -0.30665,4.28622 -0.93193,8.13622 -1.6628,10.23843 -3.53229,29.64692 -3.10597,32.24532 0.35161,2.14303 0.58114,2.06287 5.03844,-1.75947 2.56853,-2.20263 6.07046,-6.28074 7.78207,-9.06246 3.32239,-5.39958 6.27436,-6.32134 6.8698,-2.14512 0.43563,3.05543 -4.77898,9.94263 -14.74294,19.47173 -7.78154,7.44193 -11.87753,9.503 -13.53992,6.81321 z m -1.05164,-39.23197 c 2.61401,-2.05618 8.96865,-13.7085 8.00275,-14.67441 -0.89551,-0.8955 -8.53914,5.18633 -10.49453,8.35023 C 99.620475,94.77807 98.925385,100 100.51157,100 c 0.47583,0 2.10585,-0.97594 3.62228,-2.16876 z M 5.1929647,131.75 c -0.214886,-0.6875 -0.6734,-2.94948 -1.018921,-5.02662 -0.5489196,-3.29989 -0.244775,-4.16006 2.409463,-6.8143 2.36841,-2.36841 3.7565173,-2.96843 6.3003073,-2.72338 2.861609,0.27567 3.300745,0.70849 3.57278,3.52138 C 16.961385,125.9267 6.5601477,136.12412 5.1929647,131.75 Z M 40.699184,121.05275 c -2.969999,-2.97 -4.314824,-9.62241 -3.851627,-19.05275 0.480602,-9.7847 2.230163,-14.34562 5.691456,-14.83701 2.137477,-0.30345 2.310024,-0.0545 1.732902,2.5 -2.254164,9.97764 -2.700118,15.48157 -1.694956,20.91899 0.583974,3.15901 1.325297,6.00717 1.647385,6.32926 0.898493,0.89849 3.206749,-2.73415 4.971891,-7.82456 2.599325,-7.49607 3.897186,-9.56938 6.198274,-9.9016 1.672389,-0.24145 2.344312,0.33482 2.880278,2.47028 1.016842,4.05143 4.357742,9.34464 5.898022,9.34464 1.806169,0 8.006448,-10.45515 9.482438,-15.98965 0.65854,-2.46931 0.93602,-6.39622 0.61662,-8.72647 C 73.562017,81.10493 74.271727,79 76.727747,79 c 2.52968,0 4.91869,4.93617 4.91869,10.163 0,8.70224 -12.435675,28.837 -17.810368,28.837 -1.166022,0 -3.657605,-1.35 -5.536851,-3 -1.879246,-1.65 -3.646121,-3 -3.926388,-3 -0.280267,0 -0.783229,1.09032 -1.117693,2.42293 C 52.290496,118.26636 47.766292,123 45.057543,123 c -1.326108,0 -3.28737,-0.87626 -4.358359,-1.94725 z M 6.9906217,97.00368 c -2.593211,-1.04597 -3.9266176,-6.04688 -2.381894,-8.93322 1.175278,-2.19603 5.118974,-3.63699 7.4772063,-2.73205 2.402017,0.92174 4.784275,5.38119 4.072562,7.62359 -0.52136,1.64267 -5.393659,5.25356 -6.7123993,4.97461 -0.164813,-0.0349 -1.269777,-0.45468 -2.455475,-0.93293 z M 5.3466847,64.84913 C 3.4010311,61.75203 2.3053421,55.32884 3.5875081,54.53642 c 0.5513406,-0.34075 2.0758996,0.0838 3.3879086,0.94348 1.757596,1.15162 2.260763,2.21539 1.911669,4.04156 C 8.5468197,61.30145 8.8522657,62 9.9708427,62 c 0.8566583,0 1.8014683,-0.39465 2.0995793,-0.877 0.29811,-0.48236 2.462168,-1.36257 4.809017,-1.95603 2.608824,-0.65971 6.581805,-3.03913 10.223717,-6.12299 C 30.379352,50.26979 33.865555,48 34.850275,48 c 2.492279,0 9.796162,6.82043 9.796162,9.14775 0,3.29176 -2.81057,3.27477 -6.198409,-0.0375 C 36.698331,55.39963 34.903484,54 34.45948,54 c -0.444005,0 -2.673837,1.6875 -4.955182,3.75 -4.117319,3.72235 -13.453698,8.00493 -19.5198543,8.95371 -2.538353,0.39701 -3.453059,0.0312 -4.637759,-1.85458 z M 4.4883797,36.74934 c -4.15881558,-3.80933 -5.37895158,-6.87741 -3.86215758,-9.71157 1.37702998,-2.573 3.02021498,-2.6353 3.02021498,-0.1145 0,2.14647 4.5850196,8.07673 6.2445796,8.07673 0.5867363,0 4.1607653,-2.11402 7.9422863,-4.69782 6.526643,-4.45945 7.202072,-4.69178 13.312052,-4.57895 3.540107,0.0654 6.851225,0.37514 7.358041,0.68836 1.608697,0.99423 2.291672,5.70439 1.044958,7.20659 -1.025461,1.23561 -1.477523,1.23469 -3.37236,-0.007 -3.878532,-2.54131 -9.864394,-2.31705 -14.171305,0.53093 -5.695292,3.7661 -10.020676,5.85779 -12.1131753,5.85779 -1.019833,0 -3.451244,-1.4628 -5.403134,-3.25066 z M 7.9158607,10.4207 C 4.9700247,7.34625 3.6297151,5.13142 3.8372777,3.68091 c 0.39128,-2.73437 3.593841,-3.45609 4.458776,-1.00482 0.353962,1.00315 1.7492533,3.02223 3.1006453,4.48684 l 2.457078,2.66292 5.103735,-3.00927 C 25.732169,2.8221 33.047719,0 36.627694,0 c 3.682291,0 8.600422,4.04178 7.717587,6.34242 -0.812374,2.11701 -3.525481,2.12444 -5.855238,0.016 -1.683548,-1.52359 -2.156233,-1.51291 -6.578741,0.1487 -2.620676,0.98462 -5.889865,2.5434 -7.264865,3.46395 -3.333397,2.23168 -9.492248,5.02888 -11.072546,5.02888 -0.698659,0 -3.244772,-2.06069 -5.6580303,-4.5793 z"
     style="fill:#000000" />
</svg>
