<?xml version="1.0" encoding="UTF-8" standalone="no"?>
<svg
   xmlns:dc="http://purl.org/dc/elements/1.1/"
   xmlns:cc="http://creativecommons.org/ns#"
   xmlns:rdf="http://www.w3.org/1999/02/22-rdf-syntax-ns#"
   xmlns:svg="http://www.w3.org/2000/svg"
   xmlns="http://www.w3.org/2000/svg"
   xmlns:sodipodi="http://sodipodi.sourceforge.net/DTD/sodipodi-0.dtd"
   xmlns:inkscape="http://www.inkscape.org/namespaces/inkscape"
   viewBox="0 0 267.71271 268.51697"
   height="268.51697"
   width="267.71271"
   version="1.1"
   id="svg5095"
   inkscape:version="0.91 r13725"
   sodipodi:docname="whole_format.svg">
  <sodipodi:namedview
     pagecolor="#ffffff"
     bordercolor="#666666"
     borderopacity="1"
     objecttolerance="10"
     gridtolerance="10"
     guidetolerance="10"
     inkscape:pageopacity="0"
     inkscape:pageshadow="2"
     inkscape:window-width="640"
     inkscape:window-height="480"
     id="namedview5556"
     showgrid="false"
     inkscape:zoom="0.87890163"
     inkscape:cx="133.85635"
     inkscape:cy="134.25848"
     inkscape:window-x="0"
     inkscape:window-y="0"
     inkscape:window-maximized="0"
     inkscape:current-layer="svg5095" />
  <metadata
     id="metadata5101">
    <rdf:RDF>
      <cc:Work
         rdf:about="">
        <dc:format>image/svg+xml</dc:format>
        <dc:type
           rdf:resource="http://purl.org/dc/dcmitype/StillImage" />
        <dc:title />
      </cc:Work>
    </rdf:RDF>
  </metadata>
  <defs
     id="defs5099" />
  <path
     style="fill:#000000"
     d="m 158.45098,22.762777 c -8.36653,0.0818 -18.27957,0.892162 -24.25195,2.203125 -5.40044,1.18541 -8.17453,1.329978 -11.12891,0.580078 -2.99537,-0.76031 -4.85979,-0.64833 -7.80664,0.46875 -2.12931,0.80717 -6.86592,2.031916 -10.52539,2.722656 -6.8765,1.29797 -21.234279,7.437268 -19.189453,8.205079 0.63598,0.238799 4.01098,-0.771504 7.5,-2.246095 3.48902,-1.47459 8.818753,-3.030841 11.843753,-3.457031 3.025,-0.4262 7.5838,-1.582802 10.13086,-2.570312 4.12739,-1.60022 5.08691,-1.64424 8.82031,-0.41211 3.4755,1.14707 5.07136,1.1637 9.36914,0.09961 7.52801,-1.86386 29.15428,-2.923377 35.67969,-1.748047 3.025,0.54485 6.50399,1.764194 7.73242,2.708984 2.05679,1.58188 10.97096,5.314125 22.4082,9.384766 6.3926,2.2752 13.42128,7.111359 16.63477,11.443359 1.48006,1.995221 4.33214,5.651954 6.33789,8.126954 2.00575,2.475 4.10458,5.4 4.66406,6.5 3.11132,6.11719 8.22266,42.417777 8.22266,58.398437 0,4.3913 0.45,8.26165 1,8.60157 0.55606,0.34367 1,4.94802 1,10.37109 0,14.37582 -4.27329,29.463 -10.37305,36.62891 l -2.55273,3 1.99609,-7 c 7.38714,-25.89361 7.73337,-44.09939 1.25977,-66.47657 -1.89059,-6.53517 -4.11959,-11.00243 -9.72852,-19.5 -4.00165,-6.06254 -8.94054,-13.808801 -10.97461,-17.212891 -5.21634,-8.72972 -11.54043,-13.938175 -24.9414,-20.541015 -14.79047,-7.28746 -22.45278,-9.887326 -31.03711,-10.535156 -6.32077,-0.477 -6.82215,-0.370704 -6.48633,1.373047 0.26092,1.354829 1.63519,2.12279 4.85156,2.71289 8.65378,1.58768 15.5905,4.066331 27.61133,9.863281 15.28017,7.36875 20.24174,11.157258 24.93945,19.048829 2.05206,3.447229 7.02047,11.220577 11.04102,17.273437 4.02056,6.05285 7.96699,12.865998 8.76953,15.140628 2.60495,7.38322 5.62514,24.07048 5.61914,31.04688 -0.008,8.72726 -2.32145,23.98131 -4.90039,32.30664 -1.10744,3.575 -2.53579,8.94122 -3.17383,11.92382 -0.63803,2.9826 -3.45348,10.1826 -6.25586,16 -6.57688,13.6528 -11.08601,18.24053 -24.52734,24.95899 -5.58055,2.78935 -14.28101,7.85239 -19.33399,11.25 -11.79379,7.93013 -24.40178,13.86714 -29.45117,13.86914 -2.11896,7.8e-4 -10.60157,-0.962 -18.85156,-2.13867 -13.71557,-1.95621 -16.03228,-2.59999 -27.050784,-7.52539 -7.957501,-3.5571 -14.071121,-7.08207 -18,-10.37891 -3.272311,-2.74589 -10.055399,-8.3366 -15.074219,-12.42188 -11.709614,-9.53152 -16.504094,-15.13428 -21.419922,-25.0371 -6.60668,-13.309 -8.451493,-24.05725 -8.414063,-49 0.02715,-18.09387 0.328583,-22.18325 2.179688,-29.55274 5.198737,-20.696842 9.974984,-28.782183 27.203125,-46.050783 12.83411,-12.86426 17.749956,-15.825941 36.076172,-21.738281 12.052403,-3.88831 41.269583,-9.539046 45.650393,-8.828126 3.51281,0.57005 5.54481,-0.957421 3.22656,-2.425781 -2.50287,-1.58529 -12.89658,-0.940506 -27.23828,1.689453 -20.708581,3.797521 -39.785626,10.229714 -47.271486,15.939454 -1.77906,1.35695 -3.601581,2.459172 -4.050781,2.451172 -0.4492,-0.0084 -0.141406,-0.451215 0.683594,-0.984375 1.31912,-0.85245 1.31105,-0.970875 -0.0625,-0.984375 -0.85907,-0.0084 -2.542045,1.311 -3.740235,2.93164 -1.1982,1.62064 -5.781317,7.037443 -10.185547,12.039063 -11.650168,13.23039 -15.54432,18.705316 -18.874999,26.535156 -12.888904,30.299533 -11.77637,79.597923 2.339843,103.650393 5.195694,8.85289 11.113935,15.71268 17.9375,20.79492 2.79752,2.0836 8.685938,7.00865 13.085938,10.94336 5.88042,5.25857 11.108499,8.72196 19.734375,13.07617 14.277748,7.20718 15.348118,7.52913 34.765628,10.44141 8.52499,1.27859 17.075,2.10262 19,1.83008 6.29896,-0.89179 18.05216,-6.41734 28.875,-13.57422 5.84356,-3.86421 14.675,-9.03221 19.625,-11.48438 8.62888,-4.27465 16.0388,-9.4149 19.73633,-13.6914 0.9547,-1.10419 4.23401,-6.73281 7.28906,-12.50781 10.08891,-19.07123 11.37331,-21.28542 13.86523,-23.9043 2.63034,-2.76437 5.5782,-9.89322 8.04297,-19.44922 1.8145,-7.03489 2.2712,-43.12486 0.61524,-48.63868 -0.57697,-1.92113 -1.73747,-9.12113 -2.58008,-15.999995 -1.60728,-13.12146 -4.6605,-27.59269 -6.60547,-31.3125 -0.63117,-1.20714 -2.77143,-4.051742 -4.75586,-6.320312 -1.98443,-2.26858 -5.04721,-5.922594 -6.80664,-8.121094 -3.70462,-4.6291 -10.72453,-9.535868 -16.66016,-11.642579 -14.93071,-5.299269 -21.38947,-7.9594 -23.14062,-9.53125 -1.1,-0.98738 -4.58265,-2.29165 -7.73828,-2.90039 -2.72019,-0.524742 -7.18321,-0.738535 -12.20313,-0.689453 z m -12.13086,29.560547 c -1.65477,-0.02671 -4.12922,0.778391 -7.33008,2.400391 -6.30377,3.19436 -9.81393,7.468288 -10.63672,12.955078 -0.80086,5.34052 0.0524,8.531355 2.89454,10.822265 2.4984,2.01384 6.48975,2.255198 10.09765,0.611328 3.90764,-1.78044 3.06402,-3.103084 -1.48828,-2.333984 -5.42485,0.91653 -9.90027,-2.504282 -4.96484,-3.794922 1.1,-0.28766 2,-1.024749 2,-1.636719 0,-0.67697 -0.94517,-0.874529 -2.41407,-0.505859 -2.31828,0.58186 -2.38256,0.461724 -1.59961,-3.009766 0.44845,-1.98839 1.40303,-4.32229 2.1211,-5.1875 1.62574,-1.9589 11.56089,-8.371093 12.9707,-8.371093 0.57178,0 0.7618,-0.45 0.42188,-1 -0.38191,-0.617944 -1.07941,-0.933195 -2.07227,-0.949219 z m -29.625,5.107422 c -0.88591,0.119669 -1.71171,1.869236 -2.19922,4.917969 -1.08739,6.80012 -3.22096,10.923828 -5.65234,10.923828 -1.97185,0 -3.45466,-1.337272 -11.527345,-10.388672 -2.18169,-2.44618 -2.779094,-2.67566 -3.902344,-1.5 -1.70823,1.78796 -7.521484,16.445813 -7.521484,18.964844 0,3.421999 2.017311,2.045918 4.144531,-2.826172 1.14066,-2.6125 2.823344,-6.475898 3.740234,-8.585938 l 1.667969,-3.835937 2.472656,3.802734 c 3.083283,4.74221 8.360853,8.369141 12.177733,8.369141 2.54446,0 3.19845,-0.65544 5.24024,-5.25 2.65508,-5.9746 3.75251,-11.812691 2.57812,-13.712891 -0.40143,-0.649534 -0.81606,-0.933301 -1.21875,-0.878906 z m 43.69922,10.841797 c -3.13868,0 -4.09711,12.13288 -1.24414,15.75 1.44036,1.82615 2.29521,1.58002 6.08789,-1.75 l 3.41602,-2.998047 1.13281,4.498047 c 1.00598,3.99514 1.44863,4.5 3.94141,4.5 3.62154,0 12.15977,-2.839029 14.41406,-4.792969 1.99931,-1.73294 2.30429,-4.745851 0.58789,-5.806641 -0.655,-0.40481 -1.93547,0.23612 -2.93359,1.46875 -1.30027,1.60577 -8.70816,4.893734 -11.53907,5.121094 -0.0741,0.0059 -0.44786,-2.493654 -0.83008,-5.552734 -0.92598,-7.41134 -2.74604,-8.043951 -7.43945,-2.587891 -1.97824,2.29969 -3.99548,4.175016 -4.48437,4.166016 -0.48889,-0.0085 -0.64494,-2.715625 -0.34571,-6.015625 0.41269,-4.55114 0.22798,-6 -0.76367,-6 z M 81.074027,80.135824 c -1.121733,0.06029 -3.222528,2.212078 -5.1875,5.646484 -3.05851,5.34572 -3.625921,5.619788 -6.707031,3.242188 -0.93917,-0.72472 -0.881544,-1.440918 0.253906,-3.173828 1.9821,-3.02507 0.481503,-4.259639 -1.685546,-1.386719 l -1.722657,2.283203 -2.380859,-2.238281 c -1.30971,-1.23041 -2.689356,-2.236328 -3.066406,-2.236328 -1.29608,0 -0.684227,3.75621 0.814453,5 2.19224,1.81939 1.842275,3.073496 -2.015625,7.222656 -2.162101,2.32533 -4.028697,3.504808 -4.972657,3.142578 -1.45215,-0.55724 -1.959541,0.547504 -1.576171,3.427733 0.09459,0.71063 -1.029044,2.71745 -2.496094,4.46094 -3.408389,4.05064 -1.385482,5.02629 2.568359,1.23828 l 2.84961,-2.73047 3.082031,2.19531 c 3.24015,2.30719 3.223979,2.51269 -0.619141,7.63672 -1.27648,1.70192 -2.320312,3.38942 -2.320312,3.75 0,1.48241 1.799382,0.45675 5.007812,-2.85351 2.78592,-2.87434 3.554304,-3.23617 4.246094,-2 1.62242,2.8991 3.027336,1.63532 2.410156,-2.16797 -0.53532,-3.29877 0.171501,-4.92866 6.869141,-15.845705 4.10624,-6.69309 7.466797,-12.687785 7.466797,-13.322266 0,-0.913206 -0.308481,-1.318422 -0.81836,-1.291015 z m 47.755863,4.136719 c -8.35387,0 -10.94332,0.409908 -16.42774,2.605468 -3.58079,1.43349 -6.50976,3.00849 -6.50976,3.5 0,0.49151 -0.65936,0.894532 -1.46485,0.894532 -0.80548,0 -3.61798,1.186088 -6.249997,2.636718 C 78.415347,104.80116 71.69208,119.94798 74.88848,146.37411 c 1.55455,12.8522 3.891478,20.67447 8.429688,28.20898 3.913186,6.49685 6.239439,8.77389 12.074219,11.82813 2.2,1.1516 4.777903,2.77789 5.728513,3.61328 0.9506,0.8354 4.5506,2.32616 8,3.3125 9.79652,2.80127 19.127,2.48931 28.44922,-0.95117 19.99864,-7.38074 22.25112,-8.87575 28.0586,-18.61133 1.96931,-3.30133 4.15162,-6.67695 4.84961,-7.50195 3.18058,-3.75933 7.45517,-14.38224 8.50195,-21.12891 1.75488,-11.3105 0.5832,-18.46544 -5.24414,-32.04297 -5.66834,-13.207052 -9.12553,-17.250089 -17.44141,-20.404299 -2.69697,-1.02297 -7.74715,-3.337788 -11.22461,-5.142578 -5.90166,-3.06293 -6.98375,-3.28125 -16.24023,-3.28125 z m -0.24219,5.052734 c 5.74124,-0.02834 10.94843,1.139607 15.08984,3.597656 2.59321,1.53914 7.13884,3.796588 10.10157,5.017578 2.96273,1.22099 6.62916,3.411649 8.14843,4.867189 3.04557,2.91784 10.40398,19.75117 12.10938,27.70313 1.35574,6.32162 -0.35525,18.13413 -3.59961,24.85937 -2.57203,5.33156 -11.1509,19.5125 -13.47266,22.26953 -1.71696,2.03884 -8.42723,5.30002 -20.07226,9.75586 -11.6959,4.4753 -25.79898,3.48407 -34.4961,-2.42578 -2.18239,-1.48297 -4.343701,-2.69726 -4.802731,-2.69726 -2.12757,0 -7.880784,-5.65879 -10.501953,-10.33008 -3.794027,-6.76148 -5.848806,-13.3489 -7.228516,-23.16992 -0.61814,-4.4 -1.369229,-9.64787 -1.667969,-11.66211 -0.59261,-3.99559 2.113801,-17.83787 4.269531,-21.8379 1.20984,-2.2449 1.350819,-1.49981 1.386719,7.30664 0.04858,11.898 1.472516,18.17486 5.066406,22.33008 1.71669,1.98482 2.979054,4.91618 3.439453,7.98633 0.757891,5.054 2.68674,9.63383 5.31836,12.63477 2.13591,2.43565 14.4187,8.09601 22.09766,10.18359 6.69884,1.82114 18.46181,1.46699 22.53515,-0.67969 1.80038,-0.94881 7.49044,-5.42537 17.33399,-13.63867 3.71068,-3.0961 5.50581,-6.12304 3.63281,-6.12304 -0.87012,0 -9.8309,6.53259 -16.63477,12.12695 -4.71548,3.87721 -6.69702,4.84197 -11,5.35351 -8.02546,0.95405 -10.73874,0.83443 -17.24804,-0.75976 -14.53464,-3.55966 -23.434478,-10.73088 -23.484378,-18.92383 -0.02142,-3.51909 -1.910964,-7.76665 -4.621094,-10.39062 -2.835,-2.74486 -4.394531,-10.37544 -4.394531,-21.48829 0,-11.22518 1.393582,-14.73225 7.669922,-19.29297 C 104.71872,93.790703 117.62714,89.379384 128.5877,89.325277 Z m -62.246094,2.369141 c 0.488349,0.04026 1.005496,0.262605 1.644531,0.595703 1.32337,0.68981 2.537609,1.363153 2.699219,1.496094 0.161599,0.13294 -1.213291,2.744637 -3.056641,5.804687 l -3.351563,5.564448 -2.894531,-2.30859 c -2.79173,-2.22606 -2.835261,-2.39298 -1.238281,-4.691405 3.520282,-5.066535 4.732216,-6.581714 6.197266,-6.460937 z m 135.072264,7.71875 c -1.57115,0.04692 -3.99887,1.245622 -9.02148,4.054682 -5.01475,2.80466 -7.5,4.793 -7.5,6 0,2.42034 1.7074,2.23115 6.5,-0.7207 2.2,-1.35501 4.34289,-2.46575 4.76172,-2.46875 0.41883,-0.003 -1.3021,2.52852 -3.82422,5.625 -7.88322,9.67847 -7.85698,12.00956 0.16601,14.91407 2.14334,0.77593 4.96202,1.17429 6.26368,0.88476 1.30167,-0.28954 3.65306,-0.78295 5.22656,-1.09765 3.57696,-0.7154 5.66343,-2.9733 4.14844,-4.48829 -0.76264,-0.76264 -2.49307,-0.70884 -5.99805,0.18946 -5.28283,1.35394 -10.24414,0.715 -10.24414,-1.32032 0,-1.11679 2.93419,-5.06902 10.52734,-14.17773 2.76739,-3.31977 3.02104,-4.58639 1.27149,-6.33594 -0.70098,-0.700971 -1.33465,-1.086745 -2.27735,-1.058592 z m 1.25391,37.021482 c -1.96418,0.0102 -4.20367,0.11135 -6.24609,0.30274 l -7.42774,0.69726 -1.17773,3.66797 c -0.64757,2.0182 -1.86438,4.45743 -2.70508,5.41993 -0.96745,1.10759 -1.106,1.75 -0.375,1.75 0.63525,0 1.15625,1.32135 1.15625,2.93554 0,4.67481 1.6694,8.12819 3.57617,7.39649 1.317,-0.50538 1.52787,-1.53799 1.06836,-5.23047 -0.31492,-2.53063 -0.23485,-6.17656 0.17773,-8.10156 0.71303,-3.32681 1.03997,-3.55826 6.60743,-4.66407 8.96706,-1.78103 8.95833,-1.79095 8.24414,10.69141 -0.33678,5.88634 -0.31607,10.99644 0.0449,11.35742 2.44984,2.44984 3.68677,-2.07349 4.54297,-16.61133 l 0.51367,-8.72461 -3.41016,-0.64062 c -0.93771,-0.17591 -2.62566,-0.2563 -4.58984,-0.2461 z m -5.83984,6.0586 c -0.67374,0.15783 -0.93555,1.82882 -0.93555,5.69531 0,3.34583 0.44095,6.08399 0.98047,6.08399 2.37439,0 2.62622,-10.98222 0.26953,-11.75586 -0.1135,-0.0373 -0.21821,-0.046 -0.31445,-0.0234 z m -10.24414,34.7793 c -4.3144,0 -8.01801,0.519 -9.03907,1.26562 -1.58231,1.15701 -1.60392,1.61995 -0.25976,5.42969 0.80817,2.29059 2.23626,5.33471 3.17383,6.76562 0.93757,1.43092 1.50189,2.80475 1.2539,3.05274 -0.24798,0.24799 -4.42299,-0.24254 -9.27734,-1.08985 -6.13886,-1.07152 -9.14409,-1.2231 -9.8711,-0.49609 -1.09583,1.09583 1.17576,9.86337 3.97071,15.32227 2.75334,5.37765 5.54776,1.95855 3.37109,-4.125 -0.71316,-1.99321 -1.4845,-4.13163 -1.71484,-4.75196 -0.30008,-0.80816 2.14263,-0.98256 8.61914,-0.61328 11.21091,0.63921 11.78967,-0.10278 7.22656,-9.27148 -1.72928,-3.47467 -3.14453,-6.58029 -3.14453,-6.90235 0,-0.32206 2.925,-0.58593 6.5,-0.58593 5.83333,0 6.5,-0.20513 6.5,-2 0,-1.81757 -0.66639,-2 -7.30859,-2 z m -37.61329,21.42773 c -1.77101,-0.027 -3.96656,0.88191 -5.24609,2.5957 -2.19131,2.93503 -3.34974,8.78313 -2.44922,12.3711 0.55647,2.21712 1.22656,2.53509 5.87305,2.80273 5.01638,0.28894 5.25582,0.43296 5.53711,3.30274 0.40685,4.15074 -1.81203,6.83398 -5.65235,6.83398 -3.0536,0 -3.83939,0.63523 -2.47461,2 1.40184,1.40185 6.42118,0.57882 8.37305,-1.37305 3.59439,-3.59439 4.1761,-6.63569 2.05664,-10.76562 -1.74438,-3.39906 -2.24518,-3.69531 -6.22461,-3.69531 -5.07843,0 -5.70638,-1.25918 -3.39258,-6.79688 1.21339,-2.90407 2.10023,-3.70312 4.10743,-3.70312 1.89973,0 2.47275,-0.45131 2.22265,-1.75 -0.23375,-1.21381 -1.35301,-1.80126 -2.73047,-1.82227 z"
     id="path5105"
     inkscape:connector-curvature="0" />
</svg>
