<?xml version="1.0" encoding="UTF-8" standalone="no"?>
<!-- Created with Inkscape (http://www.inkscape.org/) -->

<svg
   xmlns:dc="http://purl.org/dc/elements/1.1/"
   xmlns:cc="http://creativecommons.org/ns#"
   xmlns:rdf="http://www.w3.org/1999/02/22-rdf-syntax-ns#"
   xmlns:svg="http://www.w3.org/2000/svg"
   xmlns="http://www.w3.org/2000/svg"
   xmlns:sodipodi="http://sodipodi.sourceforge.net/DTD/sodipodi-0.dtd"
   xmlns:inkscape="http://www.inkscape.org/namespaces/inkscape"
   id="svg5177"
   version="1.1"
   inkscape:version="0.91 r13725"
   width="867"
   height="755.34283"
   viewBox="0 0 867 755.34283"
   sodipodi:docname="writing_a_headline.svg">
  <metadata
     id="metadata5183">
    <rdf:RDF>
      <cc:Work
         rdf:about="">
        <dc:format>image/svg+xml</dc:format>
        <dc:type
           rdf:resource="http://purl.org/dc/dcmitype/StillImage" />
        <dc:title></dc:title>
      </cc:Work>
    </rdf:RDF>
  </metadata>
  <defs
     id="defs5181" />
  <sodipodi:namedview
     pagecolor="#ffffff"
     bordercolor="#666666"
     borderopacity="1"
     objecttolerance="10"
     gridtolerance="10"
     guidetolerance="10"
     inkscape:pageopacity="0"
     inkscape:pageshadow="2"
     inkscape:window-width="837"
     inkscape:window-height="717"
     id="namedview5179"
     showgrid="false"
     inkscape:zoom="0.23910841"
     inkscape:cx="380.67142"
     inkscape:cy="746.36406"
     inkscape:window-x="0"
     inkscape:window-y="0"
     inkscape:window-maximized="0"
     inkscape:current-layer="svg5177"
     fit-margin-top="0"
     fit-margin-left="0"
     fit-margin-right="0"
     fit-margin-bottom="0" />
  <path
     style="fill:#000000"
     d="m 500.5,755.25271 c -4.4,-0.121 -16.55,-0.6892 -27,-1.2628 -10.45,-0.5735 -34.3,-1.4952 -53,-2.0482 -37.66177,-1.1136 -92.36879,-3.7699 -93.62438,-4.5459 -0.44381,-0.2743 -12.85988,-0.9169 -27.59127,-1.4279 -16.34055,-0.5669 -36.33743,-1.998 -51.28435,-3.6704 -23.59809,-2.6402 -26.46947,-2.7428 -78,-2.7879 l -53.5,-0.047 -16.5,-3.3276 c -14.19823,-2.8633 -19.63878,-3.4459 -39,-4.1758 -12.375,-0.4665 -25.425,-1.3313 -29,-1.9217 -9.14309,-1.51 -18.09195,-4.478 -19.13808,-6.3473 -0.48774,-0.8716 -1.39033,-5.3262 -2.00575,-9.8991 -0.80352,-5.9706 -1.62555,-8.6693 -2.91603,-9.5732 C 5.85914,702.76041 0,692.34221 0,690.09961 c 0,-0.8347 1.0491,-2.6673 2.33132,-4.0724 2.33641,-2.5603 7.86269,-20.0771 9.09948,-28.8428 1.72821,-12.2488 15.72732,-55.8131 29.42156,-91.55799 3.33893,-8.71531 12.20829,-34.81531 19.7097,-58 13.14512,-40.62774 20.09753,-60.02567 24.99928,-69.75056 2.09591,-4.15819 2.16857,-4.74492 0.76183,-6.15165 -1.40673,-1.40674 -1.30053,-2.01748 1.11352,-6.4034 8.08097,-14.68177 15.65379,-21.67203 27.92178,-25.77384 6.25793,-2.09234 11.88975,-1.26557 11.44518,1.6802 -0.22031,1.45977 -1.81322,2.50066 -5.80365,3.79237 l -5.5,1.78038 17,-0.66373 c 9.35,-0.36505 27.68779,-0.66373 40.75064,-0.66373 13.06285,0 23.75035,-0.32338 23.75,-0.71862 -3.5e-4,-0.39523 -0.67564,-0.45959 -1.50064,-0.14301 -0.825,0.31659 -1.5,0.14176 -1.5,-0.38849 0,-0.53025 -3.61648,-1.21197 -8.03662,-1.51494 -8.96621,-0.61455 -11.50457,-1.8552 -9.90623,-4.84173 0.98959,-1.84907 0.22953,-1.8825 -30.2106,-1.32872 -18.03165,0.32804 -32.02688,0.99684 -33.12178,1.58281 -1.04284,0.55811 -2.19502,0.71455 -2.56042,0.34764 -0.82388,-0.82729 3.56974,-4.49494 5.38468,-4.49494 1.07757,0 1.27177,-5.03557 1.03161,-26.75 -0.30755,-27.80694 -1.27198,-37.85649 -7.09617,-73.94344 -2.67023,-16.54492 -6.40799,-50.52928 -6.60278,-60.03374 -0.48009,-23.4243 -5.16125,7.98573 -5.17553,34.72718 -0.007,12.56251 0.52146,19.56429 2.21332,29.34089 2.0626,11.91898 2.1088,13.07974 0.64349,16.16766 -0.86826,1.82972 -1.86129,5.38882 -2.20674,7.90911 -0.63793,4.6542 -2.12178,5.77469 -4.25054,3.20969 -1.14115,-1.37501 0.0591,-10.00965 1.89421,-13.62735 0.41849,-0.825 -0.0654,-6 -1.07524,-11.5 -4.29916,-23.41407 -3.61789,-44.95519 2.71984,-86 4.07326,-26.37949 4.09105,-31.8149 0.23228,-71 -1.73451,-17.61371 -2.15964,-28.41704 -2.13231,-54.185494 0.0282,-26.57017 -0.20824,-32.2785 -1.35516,-32.71861 -1.85706,-0.71262 -1.77676,-4.50999 0.11069,-5.23427 1.87657,-0.72011 1.90742,-6.11018 0.0936,-16.36163 -1.60904,-9.09435 -0.93606,-11.27451 4.30575,-13.94868 3.30443,-1.68579 3.94779,-2.49899 3.79029,-4.79088 L 102.5,12.472656 110,12.222206 c 4.125,-0.13775 11.1,-0.24551 15.5,-0.23947 4.4,0.006 11.375,-0.6369 15.5,-1.42875 4.125,-0.7918396 10.875,-1.7222396 15,-2.0675396 4.125,-0.34531 20.1,-1.93642 35.5,-3.53581 37.28005,-3.87177 57.20525,-4.98355002 88.71135,-4.9499000216 C 333.38163,0.05753638 361.96852,1.9660464 399.5,7.9647164 c 31.6996,5.0665696 36.12376,5.3432096 74.5,4.6585496 19.525,-0.34835 45.175,-1.29927 57,-2.11317 24.3665,-1.6771196 54.68804,-1.9122396 69.5,-0.5389296 25.15513,2.3322996 71.05078,4.4276196 123.5,5.6382696 11.275,0.26025 20.78096,0.78595 21.12435,1.1682 1.50852,1.67926 6.81698,17.27647 7.40584,21.7597 0.35653,2.71443 0.15074,14.2276 -0.4573,25.58484 -1.30792,24.42981 -0.72032,34.44791 2.06318,35.17581 2.49755,0.65312 2.53378,1.383284 0.9069,18.277184 -2.04997,21.28732 -3.06565,42.1713 -4.00738,82.39749 -0.52147,22.275 -1.48288,50.175 -2.13646,62 -0.85127,15.40184 -0.93249,32.41997 -0.28637,60 1.00666,42.96915 0.93772,45 -1.52754,45 -1.55348,0 -1.65973,1.72193 -1.26475,20.49591 0.33008,15.68867 0.1314,20.85716 -0.84708,22.03615 -1.4921,1.79787 -1.74395,1.48831 16.77661,20.6213 8.99542,9.29287 12.25,13.31629 12.25,15.14387 0,2.20524 -1.60175,3.70277 -3.96047,3.70277 -0.43829,0 -1.35663,-1.35134 -2.04076,-3.00297 -0.68413,-1.65164 -5.13184,-6.71414 -9.8838,-11.25 -4.75196,-4.53587 -10.4171,-10.38453 -12.58921,-12.99703 l -3.94928,-4.75 -22.80811,0 c -22.14202,0 -22.99006,-0.0744 -29.03824,-2.5465 -7.47933,-3.0571 -24.87625,-6.15698 -37.14274,-6.61831 l -8.91262,-0.33519 -0.73663,2.69665 c -0.895,3.27637 0.34657,5.15653 5.06186,7.66542 2.03816,1.08446 3.63478,2.76522 3.82271,4.02417 0.25976,1.74027 -0.61095,2.5749 -4.46458,4.27954 -3.99745,1.76826 -8.42278,2.33167 -26.8227,3.41488 -12.11949,0.71348 -27.88543,1.75028 -35.03543,2.304 -7.15,0.55372 -21.55,1.29748 -32,1.6528 -10.45,0.35532 -30.475,1.93325 -44.5,3.50651 -46.30952,5.19478 -48.42142,5.2617 -139.28665,4.4138 -46.31734,-0.43221 -96.8942,-0.83037 -112.39302,-0.8848 -15.49881,-0.0544 -28.51131,-0.43062 -28.91666,-0.83597 -0.40535,-0.40535 -3.6995,-0.74591 -7.32034,-0.75681 -6.95343,-0.0209 -20.07529,-1.63693 -21.02275,-2.58903 -0.30832,-0.30982 0.51614,-1.43621 1.83212,-2.50308 2.15487,-1.74696 2.56029,-1.7881 4.07874,-0.41392 1.33729,1.21022 4.49701,1.52584 15.27551,1.52584 7.47421,0 14.3145,-0.27822 15.20065,-0.61827 1.44708,-0.55529 1.42995,-0.75279 -0.16821,-1.93909 -1.54912,-1.1499 -1.60505,-1.60592 -0.43221,-3.52378 1.26326,-2.06572 1.20097,-2.16119 -1,-1.53258 -11.67451,3.33429 -14.23485,3.75812 -16.49145,2.72994 C 217.01232,429.47678 216,428.14687 216,426.9941 c 0,-1.11179 -0.21392,-2.02144 -0.47538,-2.02144 -1.60364,0 -19.44272,10.34419 -19.90168,11.54021 -0.30809,0.80289 -1.24929,1.45979 -2.09156,1.45979 -2.47452,0 -1.82709,-4.23057 1.96862,-12.86357 4.66993,-10.62134 4.6228,-12.13643 -0.37756,-12.13643 -2.22676,0 -4.40754,-0.63859 -5.12244,-1.5 -1.56009,-1.87979 -20.16494,-2.01641 -59.5,-0.43691 l -27,1.08418 -4.31729,4.67637 c -5.36801,5.81447 -7.83405,9.98103 -3.5076,5.92636 2.99099,-2.8031 4.79984,-3.40857 5.7226,-1.9155 0.28367,0.45897 -1.31454,3.27039 -3.55157,6.24758 -8.6991,11.57743 -13.64527,24.08505 -32.22068,81.47797 -12.91749,39.91152 -19.19537,57.99384 -25.08398,72.25 -7.11081,17.215 -20.09817,58.9246 -23.60909,75.8219 -1.12772,5.4274 -3.14884,13.6736 -4.49139,18.3248 -1.34255,4.6512 -2.441,9.6589 -2.441,11.1281 0,1.6164 -0.84124,3.2298 -2.13033,4.0857 l -2.13034,1.4145 2.08614,3.9575 c 1.51048,2.8654 2.11045,3.4056 2.17423,1.9575 0.22708,-5.1557 5.11382,-14.166 7.03798,-12.9768 0.42372,0.2619 -0.10995,2.7931 -1.18594,5.6248 -1.07598,2.8318 -1.8203,6.5444 -1.65403,8.2503 l 0.30229,3.1017 9.5,0.726 c 5.225,0.3994 17.825,2.2944 28,4.2112 24.52894,4.6207 31.95107,5.3563 61.5,6.0948 29.33801,0.7333 41.07909,1.9205 78.33867,7.9216 46.12499,7.429 36.01977,6.9907 163.66133,7.0987 87.15905,0.074 127.56124,0.5112 162.5,1.7596 52.08515,1.8611 90.82383,2.119 108,0.7191 42.57835,-3.4701 58.43142,-3.2867 84.77173,0.9808 14.66539,2.376 26.83774,2.5784 31.44434,0.5228 1.80616,-0.8059 10.03393,-4.0123 18.28393,-7.1252 12.77901,-4.8218 15.74033,-6.3541 20,-10.3484 6.04637,-5.6696 14.61946,-9.8373 32.38171,-15.742 16.51513,-5.49 18.11829,-6.4603 18.11829,-10.9654 0,-3.6835 2.53632,-5.7219 4.05731,-3.2609 0.67134,1.0862 1.6365,0.6333 4.48439,-2.1043 5.62287,-5.4052 6.67228,-8.0556 5.42807,-13.7095 -2.09012,-9.4979 -8.40507,-29.1505 -15.19207,-47.2789 -8.03902,-21.4728 -20.62253,-63.99349 -27.22631,-92.00005 -5.19097,-22.01483 -7.92075,-28.69327 -15.53233,-38 -6.22237,-7.60815 -13.16121,-15 -14.08072,-15 -0.35488,0 -1.16017,3.11803 -1.78953,6.92897 -1.23073,7.45235 -2.8799,12.67327 -3.73356,11.81962 -0.29083,-0.29084 0.007,-5.29406 0.6628,-11.11827 l 1.19158,-10.58948 -3.69699,-4.09211 c -2.44244,-2.7035 -3.59518,-4.86897 -3.39698,-6.3814 0.16499,-1.2591 -0.27888,-2.98678 -0.98639,-3.83928 -1.93835,-2.33556 0.29755,-3.11041 3.29952,-1.14344 3.09175,2.02579 24.18214,26.04518 34.51121,39.30406 7.17836,9.21448 20.99084,29.53266 31.71614,46.6545 8.28711,13.22952 17.42184,31.85408 25.05989,51.09388 10.61732,26.7444 13.32206,40.4058 9.71084,49.0486 -0.83222,1.9918 -1.74155,3.393 -2.02074,3.1138 -0.2792,-0.2792 -0.70091,-4.5367 -0.93715,-9.4611 -0.60013,-12.5096 -3.14553,-21.2558 -14.06783,-48.3383 -6.53759,-16.2104 -17.55038,-36.69551 -30.48211,-56.70041 -6.82641,-10.5602 -12.55181,-19.0602 -12.72312,-18.88889 -1.47365,1.47365 17.8852,71.827 25.75255,93.5893 14.75272,40.808 19.98475,58.1741 19.98901,66.3472 0.002,4.6154 -0.31187,5.1729 -6.57052,11.6557 l -6.57303,6.8085 1.06746,3.8443 c 0.5871,2.1143 1.06997,6.2257 1.07303,9.1364 0.006,5.5132 -2.52591,19.4639 -4.04853,22.309 -0.48296,0.9024 -4.47499,3.512 -8.87118,5.7992 l -7.99308,4.1584 -24.29081,2.407 c -13.35995,1.3238 -30.59082,3.3265 -38.29082,4.4504 -25.53729,3.7276 -36.47322,4.2613 -103.5,5.0503 -58.67258,0.6907 -69.91346,1.0816 -95.5,3.3207 -30.39956,2.6604 -43.69817,3.3586 -57,2.9929 z m 59,-9.0109 c 26.17297,-2.3509 34.21539,-2.6293 82.5,-2.8557 58.97801,-0.2766 87.40772,-1.4575 107.93118,-4.4833 14.31813,-2.1109 42.60284,-5.3043 57.3491,-6.4748 6.9489,-0.5516 10.21827,-1.3861 15.67457,-4.0009 6.50159,-3.1158 10.91338,-7.3556 7.83033,-7.5251 -10.64732,-0.5852 -44.50037,2.2652 -54.53095,4.5914 -5.40417,1.2533 -15.43191,4.691 -35.25423,12.0858 -4.24122,1.5822 -14.35215,1.746 -22.5,0.3646 -28.20975,-4.7828 -47.44141,-5.6901 -75,-3.538 -34.86888,2.7229 -55.69892,2.9026 -110.5,0.9537 -40.65509,-1.4459 -76.34853,-1.8561 -169.5,-1.9479 -130.6805,-0.1287 -125.03421,0.1063 -168.5,-7.0121 -43.50384,-7.1246 -47.09434,-7.506 -79.5,-8.4452 -32.28753,-0.9357 -40.96307,-1.8402 -67.38252,-7.0252 -8.49601,-1.6674 -19.57968,-3.3031 -24.63038,-3.6349 l -9.18309,-0.6032 0.91472,6.8908 c 0.5031,3.79 1.2222,7.1776 1.598,7.5281 0.87534,0.8163 12.32665,3.5616 18.18327,4.3592 2.475,0.337 14.85,0.9975 27.5,1.4676 17.89177,0.665 25.93608,1.4234 36.21984,3.4146 18.99686,3.6782 33.69691,4.943 48.78016,4.197 7.15,-0.3536 26.275,-0.6629 42.5,-0.6872 25.16979,-0.038 33.09628,0.3412 54,2.5821 13.475,1.4445 35.075,3.0381 48,3.5413 12.925,0.5031 29.125,1.3844 36,1.9583 19.88185,1.6598 47.03358,2.9473 97.5,4.6234 25.85,0.8585 53.3,1.9306 61,2.3825 18.97971,1.1137 38.53985,0.3884 73,-2.7069 z m 258,-29.589 c 14.03321,-0.1685 15.04191,-0.3091 15.65032,-2.1801 0.82655,-2.542 1.04287,-16.9735 0.26607,-17.7503 -0.32099,-0.321 -2.00849,0.2318 -3.75,1.2284 -1.74151,0.9967 -7.60375,3.2339 -13.02718,4.9717 -14.20205,4.5506 -27.61082,10.5602 -30.89924,13.8486 l -2.8458,2.8458 9.80291,-1.3919 c 5.39161,-0.7656 16.55292,-1.4731 24.80292,-1.5722 z M 474.12294,435.41127 c 10.63325,-0.85877 19.41809,-1.64627 19.52188,-1.75 0.10378,-0.10374 -14.51135,-0.20803 -32.47806,-0.23176 -19.7125,-0.026 -42.38243,-0.70894 -57.16676,-1.72208 -28.06847,-1.92346 -41.76132,-2.06265 -61.38935,-0.62405 -7.63914,0.55989 -20.68914,1.15735 -29,1.32767 -8.31086,0.17033 -19.38565,0.92887 -24.61065,1.68565 l -9.5,1.37596 12.5,0.5473 c 6.875,0.30102 46.3152,0.63852 87.64488,0.75 60.59637,0.16346 78.8879,-0.0996 94.47806,-1.35869 z m -183.48219,-7.30021 c 0.65765,-0.89939 1.11572,-1.71526 1.01794,-1.81305 C 290.74444,425.38377 275,430.13642 275,431.32664 c 0,0.15599 3.25013,-0.13576 7.22251,-0.64835 4.68483,-0.60451 7.64263,-1.50653 8.41824,-2.56723 z m -32.67597,-2.36209 5.53522,-1.27631 -8.87621,-0.29077 c -7.22329,-0.23663 -9.22513,0.025 -10.75,1.40498 -1.03058,0.93267 -1.87379,2.00882 -1.87379,2.39143 0,0.77228 7.47254,-0.27119 15.96478,-2.22933 z M 548.75,426.28333 c -0.9625,-0.25152 -2.5375,-0.25152 -3.5,0 -0.9625,0.25153 -0.175,0.45733 1.75,0.45733 1.925,0 2.7125,-0.2058 1.75,-0.45733 z m 25.13957,-0.40954 c 7.60457,-0.0988 7.60735,-0.0998 3.61043,-1.34659 -2.67924,-0.83574 -5.98114,-0.99605 -10,-0.48551 -3.3,0.41921 -7.0125,0.80018 -8.25,0.84659 -1.2375,0.0464 -2.25,0.59555 -2.25,1.2203 0,0.77606 1.46986,0.93446 4.63957,0.5 2.55177,-0.34975 8.06427,-0.68041 12.25,-0.73479 z m -343.67963,-1.77338 2.70995,-1.04779 -2.16574,-2.43143 c -2.02319,-2.27141 -2.30402,-2.32713 -4.26666,-0.84671 -1.15552,0.87161 -2.93745,2.69374 -3.95987,4.04918 l -1.85893,2.46445 3.41565,-0.56995 c 1.87861,-0.31348 4.63513,-1.04146 6.1256,-1.61775 z M 493.5,423.97266 c 1.75286,-0.44603 -3.02786,-0.73298 -11.5,-0.69027 -13.62934,0.0687 -13.92956,0.11016 -5,0.69027 13.15989,0.85493 13.14016,0.85493 16.5,0 z m 149.72669,-0.47372 c 2.59968,-0.35301 4.96702,-1.03069 5.26075,-1.50596 0.29373,-0.47526 -1.42173,-2.18406 -3.81214,-3.79733 l -4.3462,-2.93322 -1.10836,2.93638 c -0.89326,2.36652 -1.65295,2.90202 -3.91455,2.75936 -3.33586,-0.21043 -7.30619,0.91486 -7.30619,2.07076 0,0.83635 6.26311,1.77297 9,1.34591 0.825,-0.12874 3.62701,-0.52289 6.22669,-0.8759 z M 525.25,423.31038 c -0.6875,-0.27741 -1.8125,-0.27741 -2.5,0 -0.6875,0.27741 -0.125,0.50439 1.25,0.50439 1.375,0 1.9375,-0.22698 1.25,-0.50439 z m 95.63401,-1.63277 c 3.55616,-1.736 3.60965,-3.12089 0.26514,-6.86405 -2.75357,-3.08179 -3.09568,-3.20563 -4.80686,-1.74011 -4.03535,3.45605 -11.90349,6.9477 -17.00793,7.54762 -2.96243,0.34818 -5.17215,0.84713 -4.91049,1.10879 0.8515,0.8515 15.96928,2.05857 20.03398,1.5996 2.17682,-0.2458 5.06859,-0.98913 6.42616,-1.65185 z m -414.10789,-1.34776 c 2.94174,-2.24378 3.22022,-2.77973 1.84439,-3.54969 C 207.72923,416.28138 207,415.22064 207,414.42297 c 0,-2.0535 -2.76487,-1.80675 -3.35796,0.29969 -1.23884,4.39993 -1.73627,8.25 -1.06589,8.25 0.40429,0 2.29427,-1.18926 4.19997,-2.64281 z m 157.64209,2.03582 c 2.58414,-0.99163 1.80151,-2.39301 -1.33642,-2.39301 -3.72382,0 -6.22752,0.95518 -5.51703,2.10478 0.63296,1.02415 4.5107,1.18723 6.85345,0.28823 z M 334.5,420.97266 c 0.78218,-1.2656 -0.54163,-1.2656 -2.5,0 -1.29269,0.8354 -1.26629,0.97149 0.19098,0.98469 0.93004,0.008 1.9691,-0.43469 2.30902,-0.98469 z m 13.5,-1.09055 c 1.20525,-0.68188 1.107,-0.84836 -0.5,-0.84724 -1.1,7.7e-4 -2.9,0.70863 -4,1.57302 -1.94243,1.52638 -1.92804,1.55077 0.5,0.84723 1.375,-0.39841 3.175,-1.10627 4,-1.57301 z m 32.5,1.09055 c 1.50956,-0.64868 0.84968,-0.87666 -2.69098,-0.92971 -2.58004,-0.0387 -4.9691,0.37971 -5.30902,0.92971 -0.75476,1.22122 5.15806,1.22122 8,0 z m -96,-2.93392 5,-1.77892 -13.17223,-0.75079 c -14.83705,-0.84569 -24.91263,-0.0606 -25.70447,2.0029 -0.59157,1.54162 3.6255,2.02004 19.3767,2.19824 6.79304,0.0769 10.92472,-0.39941 14.5,-1.67143 z m 349.73469,-2.46578 c 0.40408,-0.60517 0.74158,-2.7878 0.75,-4.8503 l 0.0153,-3.75 -6.60359,0 -6.60359,0 3.08914,3.51834 c 1.69903,1.93509 3.36715,4.62603 3.70695,5.97987 0.54169,2.15827 0.88227,2.32236 2.76445,1.33196 1.18065,-0.62127 2.47725,-1.62471 2.88133,-2.22987 z m -319.50552,1.79553 c -0.33229,-0.33229 -1.1948,-0.36781 -1.91667,-0.0789 -0.79773,0.31922 -0.56078,0.55618 0.60417,0.60416 1.05416,0.0434 1.64479,-0.19293 1.3125,-0.52522 z m 284.13185,-2.86999 c 8.48629,-1.49346 14.10108,-3.91213 14.94263,-6.43679 0.36064,-1.08191 -0.2629,-1.2472 -2.79472,-0.74084 -1.79241,0.35849 -5.23882,0.65179 -7.65868,0.65179 -3.77294,0 -4.53517,0.35617 -5.35025,2.5 -0.93541,2.46031 -1.12748,2.5 -12.09769,2.5 -9.79524,0 -10.99622,0.18192 -9.90231,1.5 1.63767,1.97327 11.73036,1.98468 22.86102,0.0258 z M 563.5,412.8172 c 2.27194,-0.97857 -18.09695,-0.11574 -26.57165,1.12558 -3.30487,0.48408 0.43939,0.58793 9.57165,0.26549 8.25,-0.29129 15.9,-0.91727 17,-1.39107 z m -70.625,0.009 c 3.60641,-0.11435 2.97323,-0.31013 -2.875,-0.88893 -4.125,-0.40826 -9.525,-0.46096 -12,-0.11712 l -4.5,0.62516 4.5,0.64753 c 2.475,0.35614 5.79375,0.47484 7.375,0.26377 1.58125,-0.21107 4.95625,-0.44975 7.5,-0.53041 z m -146.375,-1.57009 4,-0.69473 -3,-0.67595 c -4.03625,-0.90944 -31.01904,-1.09828 -30.13164,-0.21088 0.38593,0.38593 5.52343,0.9891 11.41667,1.34038 5.89323,0.35128 11.38997,0.70557 12.21497,0.7873 0.825,0.0817 3.3,-0.16402 5.5,-0.54612 z m 159.25,0.0274 c -0.9625,-0.25152 -2.5375,-0.25152 -3.5,0 -0.9625,0.25153 -0.175,0.45733 1.75,0.45733 1.925,0 2.7125,-0.2058 1.75,-0.45733 z M 738,411.13453 c 2.80068,-0.42936 4.02797,-0.9901 3.25,-1.48489 -0.93637,-0.59554 -1.2749,-6.6137 -1.34925,-23.986 -0.0546,-12.75504 -0.39209,-27.01598 -0.75,-31.69098 l -0.65075,-8.5 -2.31722,16.5 c -1.27447,9.075 -2.77186,17.9625 -3.32755,19.75 -1.27167,4.09064 -4.51028,4.47258 -5.47089,0.6452 -0.35957,-1.43263 -0.0781,-14.75339 0.62544,-29.60168 1.08995,-23.00262 1.07289,-27.12506 -0.11529,-27.86325 -1.04667,-0.65027 -1.55895,-0.0826 -2.05385,2.27606 -0.80012,3.8132 -1.76709,21.77319 -2.3176,43.04581 -0.22421,8.66368 -0.68517,16.20118 -1.02436,16.75 -0.33919,0.54882 -1.32305,0.99786 -2.18635,0.99786 -1.36733,0 -1.49532,-1.44995 -0.99305,-11.25 0.5604,-10.93421 0.0564,-10.87097 -1.99247,0.25 -0.6625,3.59589 -1.2809,4.5642 -3.07794,4.81955 -1.99604,0.28363 -2.24808,-0.10986 -2.24186,-3.5 0.004,-2.10075 0.85252,-7.41955 1.88592,-11.81955 2.88854,-12.29874 3.50101,-27.3686 3.55617,-87.5 0.028,-30.525 0.45051,-63.375 0.93892,-73 0.60616,-11.9453 0.50698,-23.92132 -0.31246,-37.73027 -1.04584,-17.62413 -1.70731,-22.3262 -5.13471,-36.5 -2.16381,-8.94835 -3.9357,-17.43223 -3.93753,-18.85306 -0.005,-3.8653 -0.9867,-4.16672 -4.59848,-1.41189 -4.23854,3.2329 -6.40484,3.2319 -6.40484,-0.003 0,-1.88836 1.1264,-3.19925 4.61443,-5.37026 5.04626,-3.14087 4.92479,-3.56352 -1.32116,-4.59682 -3.70369,-0.61271 -4.54076,-0.37519 -7,1.98629 -3.27666,3.1464 -11.87694,7.45518 -14.90841,7.46918 -1.16333,0.005 -3.22542,-0.86358 -4.58243,-1.931 -2.28596,-1.79814 -2.77652,-1.83422 -6.67512,-0.49105 -5.01731,1.72861 -8.68335,1.05109 -12.25231,-2.26433 l -2.625,-2.43852 0,2.64234 c 0,3.58301 -1.69621,5.19682 -3.70762,3.5275 -1.06182,-0.88123 -1.56918,-3.18922 -1.62838,-7.40761 l -0.086,-6.127564 -2.9351,6.289484 c -2.87354,6.15758 -5.17122,8.35821 -6.88409,6.5933 -1.22008,-1.25714 5.63578,-18.532614 8.91234,-22.457394 3.57828,-4.28621 5.72218,-3.48667 6.61498,2.46695 l 0.67614,4.50884 2.42659,-2.88384 c 4.33605,-5.1531 11.17924,-5.90297 16.15841,-1.77063 0.74954,0.62207 2.78929,1.15854 4.53277,1.19216 4.10232,0.0791 4.65939,3.02836 1.60017,8.47152 -2.31618,4.121094 -2.07406,7.089614 0.57824,7.089614 3.75004,0 14.15059,-7.124634 13.03518,-8.929414 -0.2754,-0.44559 -1.86037,-1.37336 -3.52217,-2.0617 -3.43949,-1.42469 -3.68533,-2.20216 -1.41441,-4.47308 1.47606,-1.47606 1.89335,-1.43812 5.11979,0.46553 3.38505,1.99723 3.67199,2.01176 7.89296,0.39976 2.40911,-0.92005 4.3802,-1.90746 4.3802,-2.19425 0,-2.44983 -18.01398,-30.43301 -21.09773,-32.77352 -0.77125,-0.58536 -6.35227,-1.91913 -12.40227,-2.96394 -10.24721,-1.76964 -16.1669,-1.88202 -86.5,-1.6421 -41.525,0.14166 -94.85,0.80096 -118.5,1.46513 -51.75256,1.45338 -71.4177,1.26588 -86,-0.82 -6.05,-0.8654 -20.225,-1.99658 -31.5,-2.51373 -11.275,-0.51716 -28.15,-1.67778 -37.5,-2.57916 -27.33179,-2.63491 -39.06342,-2.34268 -59,1.46967 -19.57433,3.74308 -28.84229,4.61649 -65.74382,6.19572 -24.50155,1.04856 -34.71043,0.7411 -45.05515,-1.35691 -1.78905,-0.36284 -4.72871,14.9797 -6.14704,32.08241 -1.07139,12.91912 -1.30011,27.280344 -0.9078,57.000004 0.51018,38.64933 0.60598,40.17822 3.52337,56.22958 2.26333,12.45277 3.19999,21.40573 3.81862,36.5 0.45083,11 1.52593,23.6 2.38911,28 2.1096,10.75354 3.28119,24.33075 4.57341,53 0.59497,13.2 1.78049,28.275 2.6345,33.5 0.854,5.225 1.96143,11.975 2.46096,15 0.81665,4.94549 0.70147,5.67339 -1.14248,7.21981 -2.71759,2.27911 -2.20051,6.16714 0.87827,6.60393 1.25508,0.17805 4.18008,-0.59213 6.5,-1.71152 2.66443,-1.28561 8.08549,-2.42383 14.71805,-3.09025 5.775,-0.58024 14.1,-1.57151 18.5,-2.20281 4.4624,-0.64025 21.26602,-1.18685 38,-1.2361 16.5,-0.0485 37.91958,-0.73459 47.59906,-1.52453 15.75333,-1.28562 21.36422,-1.25592 53.5,0.28315 46.21796,2.21351 138.70738,2.71273 159.40094,0.86038 17.93886,-1.60577 24.39773,-1.676 96.56691,-1.05004 31.93681,0.277 58.66786,0.87504 59.40235,1.32898 0.73449,0.45394 7.00438,0.79454 13.93309,0.75689 10.76686,-0.0585 13.81389,-0.45586 20.96658,-2.73424 5.65554,-1.80149 8.69763,-2.33709 9.38278,-1.65194 4.90929,4.90929 -14.44475,10.65168 -32.85292,9.74753 -5.99433,-0.29442 -41.72379,-1.0281 -79.39879,-1.6304 -55.06209,-0.88026 -71.44261,-0.84032 -83.5,0.20359 -29.21277,2.52919 -115.05378,1.89314 -179,-1.32633 -21.02113,-1.05834 -26.42033,-0.9987 -43.5,0.48055 -13.45214,1.16506 -28.02903,1.62845 -47,1.4941 -20.87327,-0.14783 -30.61009,0.20929 -40.40644,1.48202 -13.47722,1.75099 -16.87762,2.69729 -9.69212,2.69729 2.32913,0 9.24825,0.73292 15.37583,1.6287 10.82555,1.58258 11.72275,1.56186 31.68189,-0.73155 14.53925,-1.67064 26.14001,-2.36564 39.70436,-2.3787 18.52208,-0.0178 19.26927,0.0597 22.32265,2.3152 l 3.15912,2.33364 16.67735,-1.09773 c 9.17255,-0.60375 22.18635,-1.6199 28.91957,-2.2581 6.73321,-0.63821 12.52631,-0.87628 12.87354,-0.52905 1.53157,1.53158 -0.91631,3.72937 -5.75379,5.16594 -7.27165,2.15945 -30.59299,6.85262 -54.36196,10.93976 -11,1.89148 -19.01392,3.47795 -17.8087,3.52547 1.20521,0.0475 12.68021,-1.04053 25.5,-2.41792 26.78321,-2.87766 77.00865,-7.343 123.3087,-10.96289 17.6,-1.37602 35.15,-2.74919 39,-3.05147 60.275,-4.73254 233.21245,-6.12226 243.75,-1.95876 0.9625,0.38029 1.75,1.31829 1.75,2.08445 0,1.00736 1.40245,1.39301 5.06574,1.39301 8.71379,0 11.6228,2.97871 5.43426,5.56445 -1.925,0.80431 -3.5,1.87145 -3.5,2.37142 0,1.40682 -5.37575,2.83281 -19,5.04 -6.875,1.11378 -14.75,2.69739 -17.5,3.51914 -4.75429,1.42066 -4.11544,1.46949 13,0.99366 9.9,-0.27523 23.49981,-0.7884 30.22181,-1.14038 8.95466,-0.4689 12.61444,-0.31412 13.69056,0.57898 2.2109,1.83489 0.82074,3.93837 -3.08736,4.67154 -1.91504,0.35926 -4.37242,1.609 -5.46085,2.7772 -1.97708,2.12197 -1.97676,2.12461 0.32844,2.77431 3.05586,0.86127 10.23062,0.86651 15.8074,0.0116 z M 216.02544,290.9981 c -2.89737,-2.89737 -3.45261,-6.47203 -2.32818,-14.98882 1.1965,-9.06261 3.48824,-14.34448 6.89798,-15.89806 4.97406,-2.26633 5.92147,-0.74618 1.98703,3.18826 -3.06751,3.06752 -4.5696,8.46796 -4.57669,16.45456 -0.004,4.77143 0.36935,6.42526 1.55412,6.8799 2.51115,0.96362 7.22295,-4.43355 11.63271,-13.32478 3.63632,-7.33179 4.09919,-9.11473 4.54321,-17.5 l 0.49438,-9.3365 -4.865,4.64246 c -4.95743,4.73065 -10.04808,7.85754 -12.79229,7.85754 -0.83963,0 -2.27259,-1.13851 -3.18434,-2.53003 -1.34546,-2.05343 -1.56669,-4.27088 -1.17437,-11.77128 0.50749,-9.70213 1.98312,-13.69869 5.05793,-13.69869 2.3412,0 3.29625,2.61046 1.67135,4.56834 -1.51227,1.82218 -2.64598,17.43166 -1.26605,17.43166 1.80252,0 7.32772,-4.73684 11.48187,-9.84359 7.16767,-8.8113 10.86013,-6.16983 10.82354,7.74281 -0.0384,14.59087 -6.04662,30.19116 -14.7103,38.19507 -4.74975,4.38805 -8.19793,4.98012 -11.2469,1.93115 z m 33.79957,-25.06356 c -2.95019,-1.72135 -4.11271,-7.25908 -2.8255,-13.4595 1.19153,-5.73961 5.04747,-11.50238 7.69637,-11.50238 0.96966,0 1.30011,-0.56807 0.91469,-1.57244 -1.88611,-4.91515 5.52169,-7.79448 12.85145,-4.99521 5.62761,2.1492 7.53415,5.12346 7.55272,11.78247 0.0186,6.64993 1.72737,10.19095 5.10917,10.5872 3.60479,0.42238 7.75017,-4.5947 13.86585,-16.78162 5.31107,-10.58353 6.3465,-11.81615 8.45553,-10.06581 0.97406,0.8084 1.2147,2.73998 0.85166,6.83609 -0.8484,9.5725 3.6462,23.43818 7.96354,24.56719 3.11427,0.8144 1.75188,4.09037 -1.84761,4.44273 -2.58502,0.25305 -3.48402,-0.30058 -5.68347,-3.5 -1.43699,-2.09033 -3.38756,-6.61242 -4.33459,-10.04908 l -1.72188,-6.24848 -3.83927,6.41063 c -2.99907,5.00771 -4.82041,6.88559 -8.32261,8.58098 -9.76289,4.72613 -16.40737,-1.60492 -16.4872,-15.70947 -0.0254,-4.48767 -1.7527,-6.28518 -6.03968,-6.28518 l -2.1473,0 2.08156,3.36803 c 2.80799,4.54342 2.67897,10.51952 -0.35641,16.50956 -3.58133,7.06741 -8.98756,9.85545 -13.73702,7.08429 z m 6.39941,-5.71188 c 4.45991,-5.08658 5.84006,-11.25965 3.27503,-14.64838 -1.24979,-1.65114 -1.65655,-1.71626 -3.1231,-0.5 -2.42626,2.01217 -4.37635,7.22547 -4.37635,11.69959 0,5.45037 1.43923,6.62534 4.22442,3.44879 z m 77.88896,-66.83299 c -3.79471,-4.82419 -6.36135,-13.39507 -5.77227,-19.27556 0.59375,-5.92716 3.99175,-12.00299 8.28672,-14.81716 5.21401,-3.41636 14.29034,-1.35028 16.39556,3.73218 1.01194,2.44303 0.90285,3.38504 -0.71218,6.15037 -2.60012,4.45201 -9.10882,8.8222 -14.14539,9.49774 -4.8976,0.65691 -5.19849,1.90833 -1.87428,7.79542 3.00357,5.31924 5.63346,5.52822 13.07961,1.03937 3.22914,-1.94665 6.26664,-3.53937 6.75,-3.53937 1.77296,0 0.80523,2.69502 -1.87115,5.21095 -7.66957,7.20977 -16.34802,9.02249 -20.13662,4.20606 z m 5.96553,-19.41701 c 1.46895,0 8.92109,-7.10822 8.92109,-8.50937 0,-1.5492 -2.2266,-2.49063 -5.89066,-2.49063 -3.19769,0 -5.17029,1.38981 -7.73799,5.45188 -1.69505,2.68156 -1.70885,2.89161 -0.15066,2.29368 1.89501,-0.72719 3.4113,0.74581 1.79562,1.74436 -1.63812,1.01242 -1.16564,2.78136 0.56548,2.11707 0.86998,-0.33385 1.99368,-0.60699 2.49712,-0.60699 z M 210.81898,192.4747 c -0.85633,-1.87944 -0.84283,-3.8176 0.0545,-7.82746 1.52491,-6.81403 9.06974,-19.77107 12.61853,-21.67033 2.47176,-1.32284 2.83333,-1.27975 4.12892,0.49208 2.64457,3.61667 3.62407,9.7355 2.93302,18.32235 -0.8079,10.03934 -1.19282,11.18132 -3.76881,11.18132 -1.91409,0 -1.97016,-0.42922 -1.29259,-9.89592 0.71378,-9.97261 0.16724,-14.62988 -1.58944,-13.5442 -2.08102,1.28614 -8.01833,14.80323 -8.24943,18.78094 -0.39529,6.80383 -2.71928,8.80407 -4.8347,4.16122 z m 98.81024,-1.29297 c -1.14782,-1.8572 0.28123,-22.19007 2.01126,-28.61685 1.73969,-6.46265 4.29707,-9.988 6.00591,-8.27916 0.63828,0.63827 -0.15891,5.97399 -2.34372,15.68694 l -0.56235,2.5 2.22236,-2.30749 c 4.51303,-4.68593 11.18696,-0.40558 8.90131,5.70888 -0.94933,2.53963 -13.60673,16.09861 -15.02815,16.09861 -0.39479,0 -0.93777,-0.35592 -1.20662,-0.79093 z M 265.2,189.77266 c -0.66,-0.66 -1.2,-2.0651 -1.2,-3.12244 0,-1.5166 -0.28991,-1.68185 -1.37325,-0.78275 -1.87733,1.55804 -4.62675,0.32522 -4.62675,-2.0746 0,-1.75646 -0.39702,-1.63856 -3.72784,1.10699 -5.21983,4.30262 -10.10285,4.25116 -13.80236,-0.14546 -2.42876,-2.88642 -2.65545,-3.79773 -2.19843,-8.83785 0.57599,-6.35212 3.04482,-11.94389 5.27336,-11.94389 1.52968,0 1.32123,2.35702 -0.69116,7.8151 -1.47666,4.00506 -0.98295,8.75784 1.10614,10.64843 5.12224,4.63557 12.50367,-3.24671 13.61653,-14.54044 0.57985,-5.88464 0.96601,-6.92309 2.57441,-6.92309 3.16568,0 4.36043,4.19532 2.91869,10.24885 -1.37504,5.77348 -1.13907,12.37101 0.43066,12.04076 0.55,-0.11571 1.10989,-1.24071 1.2442,-2.5 0.78533,-7.36312 2.57745,-15.87037 3.45784,-16.41448 2.47542,-1.52989 3.11785,5.84585 1.25206,14.37487 -0.84447,3.86031 0.2308,2.53093 4.93867,-6.10577 2.5051,-4.59567 5.29024,-8.96619 6.18919,-9.71225 2.84388,-2.36021 4.26973,1.04656 3.65311,8.72836 l -0.52976,6.5997 8.28516,-8.63002 c 4.55684,-4.74651 9.11457,-8.63002 10.1283,-8.63002 2.58781,0 2.96871,2.78791 2.11766,15.5 -0.67536,10.08786 -0.90227,11 -2.73643,11 -1.88019,0 -1.98629,-0.59039 -1.77118,-9.85522 l 0.22882,-9.85521 -8.88776,9.30323 c -7.7284,8.08969 -9.0953,9.13099 -10.47882,7.98278 -1.06938,-0.88751 -1.59851,-3.0017 -1.61377,-6.44802 l -0.0227,-5.12756 -3.45495,6.41178 c -3.27582,6.07929 -7.10378,11.08822 -8.47395,11.08822 -0.34413,0 -1.16569,-0.54 -1.82569,-1.2 z m 170.3,-0.79854 c -3.85,-1.00494 -8.26679,-2.31638 -9.8151,-2.91431 -4.57285,-1.76597 -9.1304,-1.27405 -13.08976,1.41285 -4.29216,2.91274 -4.92672,3.01033 -6.58462,1.01267 -1.02477,-1.23477 -0.33718,-2.46584 4.04938,-7.25 C 418.05757,172.51276 424,164.03324 424,161.3436 c 0,-2.11603 -0.33449,-2.33145 -2.75,-1.77114 -1.5125,0.35085 -4.11512,2.21037 -5.7836,4.13226 -2.76343,3.18316 -3.15638,3.34641 -4.41231,1.83312 -2.10361,-2.5347 0.96295,-8.25652 5.42397,-10.12046 8.44405,-3.52815 14.5054,-0.37634 13.00927,6.76464 -0.77026,3.67644 -5.44635,11.5386 -8.51369,14.3145 -1.96721,1.78029 -1.87185,1.85515 5.26142,4.1304 3.99572,1.27449 9.89202,2.84 13.10289,3.47891 6.05804,1.20544 7.76623,2.83145 5.65148,5.37956 -1.44833,1.74513 -0.688,1.7861 -9.48943,-0.51127 z m -72.79876,-0.63356 C 362.31556,187.95488 362,184.7714 362,181.26616 c 0,-8.60344 4.32779,-17.36571 7.17223,-14.52127 0.66396,0.66396 0.44277,2.0716 -0.66087,4.2058 -3.20241,6.19278 -0.91895,3.79227 5.51375,-5.79636 6.94186,-10.3476 9.18633,-11.81548 12.48803,-8.16715 2.22593,2.45962 1.11819,5.28569 -2.27055,5.79262 -2.10029,0.31419 -8.38657,8.89985 -14.57394,19.90475 -3.04831,5.42174 -5.34074,7.28269 -6.96741,5.65601 z m 109.62277,-1.14649 c -1.87038,-1.18961 -3.4656,-9.20194 -3.1312,-15.72709 0.26778,-5.22526 0.56379,-5.99432 2.30719,-5.99432 1.75009,0 2.06248,0.83333 2.5,6.66909 0.275,3.66799 0.77122,6.93921 1.10271,7.26937 0.33149,0.33016 3.03149,-2.3281 6,-5.90726 5.09934,-6.1483 8.5189,-8.08716 9.31447,-5.2812 0.19492,0.6875 0.88645,3.20451 1.53672,5.59335 1.14365,4.20128 1.24514,4.2865 3.10278,2.60535 2.05977,-1.86406 6.20605,-8.16998 10.15785,-15.4487 1.54826,-2.85169 3.23845,-4.61705 4.61432,-4.81955 4.54113,-0.66837 1.98261,5.96724 -7.54043,19.55638 -6.61508,9.43954 -10.27031,10.42576 -13.86966,3.74217 -1.72279,-3.19902 -3.41004,-4.54343 -3.42491,-2.729 -0.009,1.13189 -9.54705,11.25228 -10.58792,11.23469 -0.49826,-0.008 -1.43513,-0.3519 -2.08192,-0.76328 z m 46.34266,-1.88808 c -1.15051,-1.1505 -0.72934,-9.1105 0.90611,-17.12549 1.68196,-8.24295 3.5722,-11.46286 5.56144,-9.47362 0.86467,0.86467 0.7393,3.60478 -0.50733,11.08765 -0.9107,5.46653 -1.37397,10.67364 -1.02948,11.57137 1.07312,2.7965 -2.8997,5.97113 -4.93074,3.94009 z m 54.76968,-1.43632 c -0.38451,-0.62214 2.48754,-4.29351 6.58799,-8.42151 l 7.26968,-7.31853 -2.77201,-2.38438 c -4.85565,-4.17665 -2.90254,-11.19289 4.03695,-14.5021 2.56825,-1.22471 3.75191,-1.35962 4.58854,-0.52299 0.83663,0.83663 0.18915,2.01243 -2.51001,4.55806 -2.00062,1.88683 -3.63749,4.07496 -3.63749,4.86252 0,1.52607 1.89966,3.83192 3.1569,3.83192 1.17027,0 11.21677,-12.9061 14.40095,-18.5 3.19542,-5.61363 4.17114,-6.54123 6.10147,-5.80049 2.00256,0.76845 1.71591,2.15431 -2.74581,13.27521 -3.86661,9.63756 -4.79419,14.54333 -1.58226,8.36821 2.15192,-4.1372 6.29474,-7.70043 8.13288,-6.99507 2.31363,0.88782 3.67131,5.29951 3.97105,12.90364 0.27794,7.05086 -0.76976,9.32481 -3.76646,8.17487 -1.19887,-0.46005 -1.65587,-2.33882 -1.87674,-7.71557 l -0.29198,-7.10743 -5.25489,8.57993 c -5.92732,9.67783 -7.22056,11.06794 -9.17369,9.86084 -1.01662,-0.6283 -1.224,-2.45036 -0.81866,-7.1928 0.29857,-3.49324 0.84856,-7.25134 1.22221,-8.35134 0.42057,-1.23812 -0.68332,-0.50801 -2.8978,1.91661 -1.96745,2.15414 -3.57717,4.50098 -3.57717,5.2152 0,3.18109 -12.74661,14.36819 -16.37116,14.36819 -0.83094,0 -1.81756,-0.49635 -2.19249,-1.10299 z m -38.78104,-0.64701 c -0.25449,-0.4125 -0.93558,-3.30938 -1.51351,-6.43751 -1.20109,-6.50098 -0.15543,-15.12339 2.76667,-22.81372 1.27071,-3.34424 1.45424,-4.69145 0.59414,-4.3614 -1.9718,0.75665 -2.77171,-2.79684 -1.02319,-4.54536 1.26955,-1.26955 1.91242,-1.32839 3.52318,-0.32246 1.08364,0.67675 2.65137,1.23045 3.48383,1.23045 2.00851,0 1.95321,0.43167 -1.16262,9.07567 -2.82734,7.84366 -3.67224,19.07572 -1.93128,25.67433 0.8034,3.04507 0.69567,3.25 -1.70851,3.25 -1.41129,0 -2.77421,-0.3375 -3.02871,-0.75 z m 12.33628,-1.76014 c -2.10848,-2.54056 -0.76105,-15.12938 2.34569,-21.9154 1.4645,-3.19888 2.66272,-6.88677 2.66272,-8.1953 0,-2.77454 2.99821,-3.29117 5.01278,-0.86376 1.03138,1.24274 0.71463,2.90709 -1.76042,9.25 -3.37539,8.65023 -4.71823,16.00318 -3.32029,18.18072 1.12582,1.75366 -0.40536,5.05388 -2.34481,5.05388 -0.7383,0 -1.90636,-0.67956 -2.59567,-1.51014 z m 128.85088,-3.73986 c -0.21181,-3.02516 -0.0911,-4.72626 0.57167,-8.05672 l 0.55855,-2.80673 -3.34805,3.54997 c -1.84143,1.95248 -4.97083,4.22801 -6.95423,5.05672 -4.64404,1.94041 -13.34925,1.92265 -17.1031,-0.0349 -2.64275,-1.37812 -3.32678,-1.37164 -6.91869,0.0656 -4.9836,1.99404 -10.58641,1.18985 -14.04559,-2.01601 -5.19471,-4.8143 -4.11063,-11.0433 2.68759,-15.44258 2.13832,-1.38375 4.02797,-3.54376 4.37473,-5.00064 0.89177,-3.74674 2.24939,-5.06552 5.20709,-5.0581 2.99536,0.008 7.02803,2.40787 9.79764,5.83182 l 1.89152,2.33842 4.951,-2.63247 c 5.66788,-3.01364 9.9874,-3.07142 9.9874,-0.13358 0,1.26596 -1.10052,2.28132 -3.26112,3.00879 -6.84569,2.30492 -14.91274,11.30657 -12.39184,13.82747 0.55949,0.55949 3.52468,0.99471 6.58932,0.96718 4.80438,-0.0432 6.26306,-0.5573 10.58738,-3.73164 2.79172,-2.04932 5.66717,-3.43143 6.48559,-3.11737 0.95705,0.36725 1.64572,-0.20889 1.97286,-1.65051 0.27641,-1.21808 0.9682,-4.39814 1.53731,-7.0668 1.8075,-8.47579 7.28945,-16.64792 11.16759,-16.64792 2.58525,0 2.24763,2.25327 -1.07878,7.19987 -2.73486,4.06692 -5.60553,11.80013 -4.38037,11.80013 1.2091,0 12.82344,-4.36895 13.72206,-5.16181 1.6457,-1.45201 3.55,-0.91193 3.55,1.00682 0,2.66447 -2.78609,4.80483 -10.07968,7.74353 -3.53117,1.42277 -6.79589,2.94546 -7.25491,3.38375 -0.45902,0.43829 0.66598,1.92605 2.5,3.30614 2.78048,2.09228 7.06852,3.72591 16.58459,6.31828 1.70574,0.46467 1.5857,4.33724 -0.15515,5.00527 -1.91855,0.73621 -14.40148,-3.11602 -18.09485,-5.58408 -3.8755,-2.58976 -4.5,-2.53277 -4.5,0.41067 0,2.41848 -2.30408,5.57143 -4.07143,5.57143 -0.51071,0 -0.99946,-1.0125 -1.0861,-2.25 z m -33.09769,-8.37376 c 3.23087,-2.03731 5.63802,-8.24067 4.32011,-11.13316 -1.39615,-3.06423 -6.2152,-5.33056 -6.87096,-3.23132 -0.25569,0.81853 -2.46361,3.37486 -4.9065,5.68074 -5.02802,4.74602 -5.43754,7.93031 -1.28743,10.01058 2.66222,1.33446 5.11441,0.96239 8.74478,-1.32684 z m -468.06438,6.23327 c -0.76843,-2.00248 1.55231,-4.29615 5.05931,-5.00032 1.51816,-0.30484 7.43352,-1.04588 13.14525,-1.64676 10.89167,-1.14581 13.56284,-0.55309 10.64718,2.36257 -1.6438,1.64381 -2.46373,1.82464 -16.03214,3.53595 -4.4,0.55494 -8.95044,1.29951 -10.11209,1.65459 -1.42654,0.43604 -2.30536,0.14196 -2.70751,-0.90603 z m 3.39218,-47.24437 c -2.86507,-3.64235 -2.61316,-6.18006 1.35625,-13.6623 l 3.42884,-6.46327 -3.7809,-1.70495 c -4.77726,-2.15424 -9.07875,-6.10238 -9.07018,-8.325094 0.0308,-7.99796 20.37379,-19.71294 23.75126,-13.67774 0.47148,0.84249 2.37264,2.30499 4.22481,3.25 7.23015,3.68899 6.62698,7.87072 -2.11443,14.659034 -5.3365,4.14417 -5.94428,4.93711 -4.43266,5.78306 0.9635,0.5392 2.39776,2.52631 3.18723,4.41578 1.27297,3.04664 1.24981,3.82655 -0.20469,6.89167 -2.43905,5.13991 -8.97516,11.46867 -11.84442,11.46867 -1.43251,0 -3.27856,-1.08064 -4.50111,-2.63486 z m 11.57897,-11.11295 c 0.61061,-2.43285 -1.27791,-5.60115 -2.78387,-4.67041 -1.78836,1.10526 -5.83347,10.34379 -5.22423,11.93146 0.51716,1.34769 1.19767,1.06384 4.02929,-1.68066 1.87387,-1.81623 3.66433,-4.3274 3.97881,-5.58039 z m 3.16563,-19.110274 c 5.29054,-4.47711 5.30557,-4.50616 3,-5.79964 -4.52095,-2.53636 -9.6537,-3.49692 -12.063,-2.25751 -3.25574,1.67483 -7.75418,6.07406 -7.75418,7.58315 0,1.56419 9.08759,6.369644 10.5,5.552324 0.55,-0.31826 3.39273,-2.60351 6.31718,-5.078324 z m 35.16364,24.808524 c -1.02535,-1.89907 0.1502,-11.92455 2.5609,-21.84016 1.72802,-7.107604 1.7281,-7.439824 0.002,-8.701964 -2.9863,-2.18363 -1.18922,-3.81939 8.05302,-7.33009 8.0459,-3.05626 9.04874,-3.22691 11.36395,-1.93374 4.12835,2.30593 3.97071,7.48209 -0.40235,13.21111 l -3.54515,4.644404 2.47034,0 c 1.5368,0 3.09434,0.95234 4.12158,2.5201 1.53509,2.34284 1.53494,2.82462 -0.002,6.84946 -2.20013,5.76096 -7.86836,12.23289 -11.87061,13.55376 -4.52052,1.4919 -11.71718,0.94283 -12.75153,-0.97288 z m 13.68402,-5.50837 c 3.37103,-2.57121 7.99178,-10.11879 6.87723,-11.23333 -0.3286,-0.3286 -3.2958,-0.0401 -6.59379,0.64107 -3.29798,0.68119 -6.40313,0.98711 -6.90031,0.67984 -0.9871,-0.61007 -1.57893,0.92892 -2.62649,6.82986 -1.08852,6.13174 3.31871,7.60151 9.24336,3.08256 z m 5.84781,-26.101714 c 2.57258,-3.92626 0.60568,-4.99167 -5.0196,-2.71895 -5.32928,2.15313 -5.9807,3.07605 -6.84483,9.69766 l -0.62889,4.819064 5.40988,-4.621804 c 2.97544,-2.542 6.16298,-5.77118 7.08344,-7.17597 z m 232.0568,32.086234 c -3.33711,-3.33711 -1.31859,-17.05719 4.07711,-27.712494 4.40827,-8.70534 8.36851,-12.08809 18.3186,-15.64733 4.94265,-1.76803 9.44748,-2.92978 10.01074,-2.58167 2.39432,1.47978 0.44914,3.26414 -7.96145,7.30323 C 496.30702,88.462386 491,92.599096 491,94.905476 c 0,0.3647 3.87659,0.26561 8.61465,-0.22021 8.9025,-0.91282 11.21067,-0.30575 10.07638,2.65016 -0.6357,1.65662 -5.8159,2.6595 -15.50451,3.001664 -4.23519,0.14957 -6.62186,0.70236 -7.25027,1.67927 -2.24779,3.49437 -4.44156,16.52596 -2.93842,17.45496 1.63302,1.00926 1.14533,3.35436 -0.92838,4.46417 -1.45727,0.77991 -2.31532,0.64844 -3.5,-0.53624 z M 340.11672,120.6133 c -2.14956,-2.59006 3.2751,-24.649664 7.7592,-31.553114 2.24599,-3.45778 9.7738,-7.99189 12.21065,-7.35464 2.77439,0.72552 2.1735,4.65893 -0.77585,5.0787 -3.16169,0.45 -11.60338,10.18841 -8.83177,10.18841 0.26342,0 3.83026,-1.125 7.92631,-2.5 8.99562,-3.01973 10.75244,-3.08821 13.08563,-0.51006 1.55324,1.7163 1.69701,2.98825 1.04553,9.250004 -0.41544,3.99303 -0.72716,8.45994 -0.6927,9.92647 0.0737,3.13689 -2.13209,5.32065 -4.46867,4.42401 -1.71416,-0.65778 -1.70703,-1.10412 0.25321,-15.84042 0.73397,-5.517764 0.19284,-5.735844 -8.03719,-3.239184 -2.69991,0.81905 -6.19855,1.48918 -7.77475,1.48918 -3.4762,0 -4.66675,2.520844 -5.35184,11.331844 -0.44279,5.69472 -2.47777,10.66816 -4.36509,10.66816 -0.46997,0 -1.36218,-0.61171 -1.98267,-1.35936 z m 185.40242,0.39033 c -0.60445,-0.97803 -0.15362,-4.73691 1.10723,-9.23158 0.40627,-1.44827 -0.11278,-1.62952 -3.49801,-1.22148 -2.39406,0.28856 -4.25538,0.0256 -4.67983,-0.66119 -0.89589,-1.44958 0.96033,-2.65536 6.18488,-4.01765 3.47622,-0.90642 4.37503,-1.69288 5.65306,-4.94644 1.30795,-3.329724 1.32248,-4.032294 0.10426,-5.043324 -1.09005,-0.90466 -1.1482,-1.49662 -0.25298,-2.57529 0.63933,-0.77035 1.65738,-1.23218 2.26234,-1.02629 0.60495,0.20589 2.60581,-2.2849 4.44636,-5.53509 3.16836,-5.59493 5.48964,-7.76989 6.84551,-6.41401 0.33314,0.33313 -0.83766,3.31373 -2.60177,6.62353 -1.76411,3.30981 -2.93374,6.01784 -2.59917,6.01784 2.41631,0 7.01973,-3.91023 10.58191,-8.98847 5.36928,-7.65444 9.24014,-8.38519 5.43453,-1.02595 l -1.49255,2.88626 3.49255,-0.56676 c 2.78476,-0.45191 3.49254,-0.23881 3.49254,1.05153 0,1.65951 -7.75908,7.21764 -8.72596,6.25076 -0.98282,-0.98282 -4.23443,1.41535 -5.66194,4.17586 -1.38946,2.68692 -1.36582,2.72389 1.73965,2.72035 2.46084,-0.003 3.14825,0.42416 3.14825,1.955424 0,1.37282 -0.89768,2.14374 -3,2.57636 -4.98361,1.02553 -7.2811,2.77133 -8.49747,6.45696 -1.34592,4.07818 -4.00253,4.74701 -4.00253,1.00768 0,-1.57833 -0.56457,-2.5 -1.53138,-2.5 -1.83714,0 -2.38768,1.27512 -3.29789,7.63827 -0.47639,3.33034 -1.20518,4.93727 -2.33818,5.15546 -0.90534,0.17435 -1.94638,-0.16889 -2.31341,-0.76276 z m 13.94422,-21.960124 c 1.39971,-2.70675 1.37375,-2.84101 -0.45689,-2.36229 -2.31461,0.60528 -3.51108,1.97501 -4.47871,5.127274 -0.65202,2.12407 -0.52807,2.2347 1.36726,1.22035 1.14635,-0.61351 2.75211,-2.40691 3.56834,-3.985334 z m -274.2475,18.974954 c -5.36795,-2.47914 -7.44392,-6.62888 -5.97979,-11.9533 1.83524,-6.674014 4.46665,-10.557144 8.80726,-12.996694 l 4.24975,-2.3885 4.26463,4.89635 c 3.88843,4.464414 4.12977,5.047074 2.73585,6.605044 -1.42865,1.59678 -7.18596,3.81646 -13.54356,5.22161 -3.46606,0.76606 -3.50924,2.82731 -0.11514,5.49711 2.81441,2.21381 5.81357,2.59664 9.55004,1.21901 8.07534,-2.97737 10.6398,-1.55291 4.55827,2.53194 -4.85935,3.26394 -9.47932,3.69881 -14.52731,1.36743 z m 5.68036,-16.15947 c 3.32822,-1.16022 3.61135,-2.532804 0.87808,-4.256904 -1.77283,-1.11827 -4.13463,0.30681 -5.86408,3.538334 -1.17424,2.19408 0.18955,2.39062 4.986,0.71857 z m 140.39497,14.96454 c -1.68258,-2.02739 0.80894,-4.84404 4.31905,-4.88267 1.58937,-0.0175 3.65406,-0.61264 4.58821,-1.32255 1.5565,-1.18287 1.45203,-1.50698 -1.25,-3.87797 C 417.3268,105.31737 416,103.60315 416,102.93097 c 0,-2.00713 6.87229,-7.865894 10.30638,-8.786384 6.6071,-1.77101 7.76307,2.10247 1.50661,5.04841 -4.96127,2.336084 -5.2819,3.219854 -2.26328,6.238464 3.24721,3.24721 2.89986,5.05708 -1.68165,8.76246 -4.16467,3.36823 -10.81063,4.75779 -12.57687,2.62961 z m -107.63329,-1.5263 c -0.37149,-0.37149 -0.40226,-4.08399 -0.0684,-8.25 0.63717,-7.950294 -0.60557,-13.556814 -2.84568,-12.838024 -0.68412,0.21952 -2.97965,2.90493 -5.10117,5.967584 -3.27922,4.73391 -4.06094,6.96115 -4.57884,13.04587 -0.14572,1.71199 -3.9779,0.59614 -4.59143,-1.33694 -1.12432,-3.54241 0.42109,-8.52566 4.57144,-14.740864 6.42677,-9.62417 11.19417,-11.44076 15.35582,-5.85127 1.70855,2.29474 2.16516,4.58538 2.44788,12.280004 0.2365,6.43655 -0.0423,9.92878 -0.87244,10.92906 -1.29529,1.56073 -3.20042,1.91136 -4.31721,0.79458 z M 551,113.62554 c 0,-0.81742 0.3375,-1.63621 0.75,-1.81955 0.4125,-0.18333 2.06286,-2.80833 3.66747,-5.83333 1.60461,-3.025 4.67775,-8.115304 6.82922,-11.311784 6.67463,-9.91668 8.95335,-8.83054 8.52649,4.06411 -0.15025,4.538794 0.0298,8.251294 0.40009,8.250004 0.37031,-0.001 1.99874,-1.11763 3.61875,-2.48078 2.01805,-1.69807 3.15257,-3.77359 3.60322,-6.591774 1.33379,-8.34108 7.11178,-15.92978 12.12883,-15.92978 1.2399,0 3.31027,0.85503 4.60083,1.90006 1.84722,1.49578 2.32253,2.8135 2.23391,6.19311 -0.0941,3.58807 -0.71019,4.84074 -3.7518,7.62817 -2.00158,1.83431 -4.98198,3.603654 -6.62312,3.931884 -6.32092,1.26419 -2.28792,4.39177 7.64052,5.92522 4.97348,0.76815 5.51591,0.10813 5.72211,-6.96255 0.1807,-6.196284 4.35899,-13.615894 7.66767,-13.615894 2.47513,0 2.50813,1.05972 0.12817,4.11514 -3.01886,3.87563 -4.64784,9.436984 -3.51067,11.985474 l 0.99043,2.21963 2.66146,-2.87027 c 1.4638,-1.57864 3.68633,-4.810204 4.93894,-7.181234 2.73538,-5.1777 5.41465,-5.40902 5.01733,-0.43318 -0.31982,4.00528 1.25138,7.164444 3.5632,7.164444 3.1846,0 8.98065,-4.814574 10.18342,-8.458994 0.63565,-1.92605 0.89727,-3.9201 0.58139,-4.43122 -0.97216,-1.57297 0.54611,-4.10979 2.45967,-4.10979 2.42522,0 3.4704,4.96123 1.99011,9.44655 -2.05105,6.214744 -12.50829,13.400074 -17.6308,12.114404 -1.28101,-0.32151 -2.8346,-1.52908 -3.45242,-2.68348 -1.09431,-2.04474 -1.22214,-2.00242 -4.95184,1.63954 -3.09362,3.02084 -4.3203,3.61504 -6.39033,3.0955 -1.87251,-0.46997 -3.13813,-0.0666 -4.70383,1.49907 -1.8396,1.8396 -2.91236,2.06255 -7.5976,1.57899 -3.00055,-0.30969 -7.1448,-1.39884 -9.20944,-2.42034 -3.67141,-1.81647 -3.81043,-1.81506 -6.32748,0.0642 -1.41548,1.05681 -4.30166,1.97639 -6.41375,2.04352 l -3.84015,0.12205 -0.5,-6.73464 -0.5,-6.734634 -5.01199,8.234634 c -3.54454,5.82363 -5.66726,8.3282 -7.25,8.55419 C 551.78122,115.00022 551,114.59297 551,113.62554 Z m 39.42037,-18.768904 c 3.22167,-2.53417 3.34666,-7.38398 0.19029,-7.38398 -1.41801,0 -2.19021,1.18498 -3.09541,4.75 -1.35107,5.32104 -0.96079,5.6749 2.90512,2.63398 z M 321.28411,111.99924 c -9.22895,-5.61245 -5.37716,-19.421734 6.55089,-23.486034 8.43186,-2.87302 13.165,-1.14627 13.165,4.80288 0,6.51406 -13.57126,14.513884 -17.66953,10.415624 -1.39221,-1.39222 -1.44593,-1.91501 -0.33435,-3.25437 0.72837,-0.877634 1.95237,-1.354694 2.71999,-1.060124 3.21756,1.234694 12.02521,-5.03657 9.96585,-7.09593 -1.15744,-1.15744 -9.26177,2.07734 -11.95696,4.77253 -2.47368,2.47367 -2.85455,3.485424 -2.32227,6.168904 0.73703,3.71573 4.07033,6.6605 6.74698,5.96054 3.10282,-0.81141 2.15442,2.44773 -1.03591,3.55989 -2.28264,0.79573 -3.50176,0.63179 -5.82969,-0.78391 z m 64.94242,-0.58047 c -5.63017,-3.94352 -0.38209,-19.191354 8.98364,-26.101174 7.028,-5.18509 9.3098,-1.35135 2.68977,4.51919 l -4.10006,3.63587 9.60006,-0.22461 c 7.65951,-0.17921 9.60006,0.0578 9.60006,1.17245 0,3.33852 -17.029,4.7413 -18.99237,1.56451 -0.77589,-1.25543 -3.34666,3.45554 -4.57611,8.385794 l -0.7227,2.89815 5.25562,-0.69718 c 2.89058,-0.38345 6.3542,-1.41701 7.69693,-2.2968 1.82165,-1.19359 2.72952,-1.31142 3.57673,-0.46421 1.5343,1.5343 -2.45979,5.77732 -6.63515,7.04867 -6.5344,1.98965 -10.10404,2.15098 -12.37642,0.55934 z M 455.75,110.9581 c -2.25213,-1.39609 -2.27171,-6.25958 -0.0389,-9.66727 0.94111,-1.436304 3.48362,-3.895474 5.65004,-5.464814 8.2486,-5.97526 16.06295,-2.43203 15.43572,6.998954 -0.26457,3.97804 -0.68298,4.66321 -3.84729,6.30005 -4.32754,2.23857 -14.75302,3.34969 -17.19956,1.83308 z m 13.70295,-6.14596 c 2.86026,-1.30322 3.16307,-2.61476 1.21788,-5.274964 -1.14151,-1.56112 -1.67093,-1.64105 -3.75,-0.56617 C 463.94476,100.50965 460,104.02984 460,105.14697 c 0,1.22927 6.52759,0.99805 9.45295,-0.33483 z M 385,85.594776 c 0,-0.75783 0.69335,-3.03729 1.54078,-5.06547 1.06603,-2.55138 2.06741,-3.57923 3.25,-3.3359 2.01975,0.41559 2.14385,5.94817 0.18633,8.30683 C 388.43416,87.359386 385,87.424616 385,85.594736 Z M 361.75,410.25641 c -1.5125,-0.22913 -3.9875,-0.22913 -5.5,0 -1.5125,0.22912 -0.275,0.41659 2.75,0.41659 3.025,0 4.2625,-0.18747 2.75,-0.41659 z m 27.51375,0.0123 c -1.22994,-0.23736 -3.47994,-0.24351 -5,-0.0136 -1.52006,0.22985 -0.51375,0.42406 2.23625,0.43157 2.75,0.008 3.99369,-0.18056 2.76375,-0.41792 z M 698,409.93165 c 0,-0.57255 1.9125,-1.9347 4.25,-3.02699 2.3375,-1.09229 3.4257,-1.74884 2.41821,-1.45899 -1.00748,0.28984 -5.39498,0.52699 -9.75,0.52699 -4.35501,0 -7.91592,0.3375 -7.91311,0.75 0.006,0.93556 6.88025,4.02417 9.2449,4.15395 0.9625,0.0528 1.75,-0.3724 1.75,-0.94496 z m -410.33258,-1.56756 c 15.49591,-0.50579 20.05649,-0.94733 19.68855,-1.90616 -0.37835,-0.98596 7.24752,-1.19633 36.33259,-1.00227 26.95834,0.17987 34.5363,-0.003 28.31144,-0.68487 -20.08525,-2.1987 -65.93397,-1.36545 -100,1.8174 -17.96041,1.67807 -27.40419,3.9053 -12.5,2.94801 4.4,-0.28261 17.07534,-0.81006 28.16742,-1.17211 z M 224.25,406.24045 c -2.3375,-0.21053 -6.1625,-0.21053 -8.5,0 -2.3375,0.21054 -0.425,0.3828 4.25,0.3828 4.675,0 6.5875,-0.17226 4.25,-0.3828 z M 204,404.47266 c 0,-0.825 -0.675,-1.5 -1.5,-1.5 -0.825,0 -1.5,0.675 -1.5,1.5 0,0.825 0.675,1.5 1.5,1.5 0.825,0 1.5,-0.675 1.5,-1.5 z m 241.22297,-2.49078 c 4.19257,-0.61884 4.81464,-0.9293 3.02703,-1.5107 -1.29561,-0.42138 -2.25,-1.54433 -2.25,-2.64738 0,-1.05357 1.0125,-2.32256 2.25,-2.81998 3.27026,-1.31448 -60.81823,-1.26943 -83.25,0.0585 -10.175,0.60236 -21.875,1.44374 -26,1.86974 l -7.5,0.77455 8.64488,0.13301 c 4.75468,0.0732 17.35468,0.843 28,1.71076 10.64532,0.86775 26.78012,2.18284 35.85512,2.92242 15.94769,1.29967 30.24539,1.1294 41.22297,-0.49094 z m 105.54494,-0.72375 c -1.50265,-0.22817 -4.20265,-0.23276 -6,-0.0102 -1.79735,0.22256 -0.56791,0.40925 2.73209,0.41486 3.3,0.006 4.77056,-0.17648 3.26791,-0.40466 z m 106.98209,0.0252 c -0.9625,-0.25152 -2.5375,-0.25152 -3.5,0 -0.9625,0.25153 -0.175,0.45733 1.75,0.45733 1.925,0 2.7125,-0.2058 1.75,-0.45733 z M 604,400.19623 c 0,-0.42703 -1.8,-0.60476 -4,-0.39496 -2.2,0.2098 -4,0.55919 -4,0.77643 0,0.21723 1.8,0.39496 4,0.39496 2.2,0 4,-0.34939 4,-0.77643 z m -397.2,-1.42357 c 0.93333,-0.93333 1.46667,-0.93333 2.4,0 1.86384,1.86384 6.96393,1.39052 24.8,-2.30156 9.075,-1.87853 14.475,-3.22159 12,-2.98457 -2.475,0.23703 -13.725,1.17646 -25,2.08763 -11.275,0.91117 -20.65756,1.79364 -20.85014,1.96105 -0.19257,0.16741 -0.0535,0.78433 0.30902,1.37092 0.88829,1.43729 4.85383,1.35382 6.34112,-0.13347 z m -10.55,-0.50573 c -1.2375,-0.23836 -3.2625,-0.23836 -4.5,0 -1.2375,0.23835 -0.225,0.43337 2.25,0.43337 2.475,0 3.4875,-0.19502 2.25,-0.43337 z m 442.64101,-1.20575 c 0.83738,-0.53027 -1.35165,-0.67051 -5.5,-0.35236 -3.79006,0.29067 -7.07851,0.69394 -7.30768,0.89616 -0.91264,0.80534 11.51012,0.27788 12.80768,-0.5438 z m -165.97434,-1.72657 c 0.85203,-0.74014 -8.49165,-0.19009 -10.41667,0.61321 -1.20754,0.5039 0.37738,0.61946 4,0.29166 3.3,-0.29861 6.1875,-0.7058 6.41667,-0.90487 z M 592,394.47482 c 11.275,-1.37643 33.775,-3.87516 50,-5.55273 16.225,-1.67758 32.875,-3.58998 37,-4.24978 l 7.5,-1.19965 -12.5,-0.31959 c -16.82505,-0.43018 -48.52013,1.36854 -76.5,4.34142 -12.65,1.34407 -34.925,3.68901 -49.5,5.21097 l -26.5,2.7672 15.5,0.53971 c 30.57045,1.06446 34.61099,0.95151 55,-1.53755 z m -432.27083,-2.10633 c -0.33229,-0.33229 -1.1948,-0.36781 -1.91667,-0.0789 -0.79773,0.31922 -0.56078,0.55618 0.60417,0.60416 1.05416,0.0434 1.64479,-0.19293 1.3125,-0.52522 z m 122,0 c -0.33229,-0.33229 -1.1948,-0.36781 -1.91667,-0.0789 -0.79773,0.31922 -0.56078,0.55618 0.60417,0.60416 1.05416,0.0434 1.64479,-0.19293 1.3125,-0.52522 z m 265.65071,-3.88805 c 18.08394,-1.88881 33.15894,-3.72665 33.5,-4.08407 0.34107,-0.35742 -1.62988,-0.38659 -4.37988,-0.0648 -2.75,0.32176 -10.4,0.85261 -17,1.17966 -14.94939,0.74081 -54.79188,4.19998 -59.5,5.16587 -3.39027,0.69552 -3.32756,0.73715 2,1.32782 3.025,0.33539 7.075,0.45229 9,0.25978 1.925,-0.19251 18.29595,-1.89541 36.37988,-3.78423 z m -360.42471,1.9532 c 10.74966,-0.84645 19.99483,-1.71093 20.54483,-1.92105 2.81349,-1.07486 -16.99268,-0.17117 -31,1.41442 -20.1135,2.27679 -15.1064,2.51943 10.45517,0.50663 z M 287.25,391.31038 c -0.6875,-0.27741 -1.8125,-0.27741 -2.5,0 -0.6875,0.27741 -0.125,0.50439 1.25,0.50439 1.375,0 1.9375,-0.22698 1.25,-0.50439 z m -159.41948,-2.77792 c 5.04277,-1.7792 20.32199,-3.54055 31.38007,-3.61743 4.55917,-0.0317 10.08941,-0.46123 12.28941,-0.95453 6.62561,-1.48563 -28.06969,-0.15859 -36.5,1.39606 -7.45236,1.37431 -15.98269,4.37849 -12.87573,4.53453 0.89335,0.0449 3.46116,-0.56652 5.70625,-1.35863 z m 364.76363,-1.29899 c -0.19822,-0.19821 -6.82549,-4.8e-4 -14.72727,0.4394 -12.06513,0.67165 -13.3255,0.8799 -7.86688,1.29979 5.93853,0.45681 23.44275,-0.89058 22.59415,-1.73919 z m -38.32512,0.0833 c -0.67703,-0.27392 -2.02703,-0.29059 -3,-0.0371 -0.97297,0.25354 -0.41903,0.47766 1.23097,0.49804 1.65,0.0204 2.44606,-0.18706 1.76903,-0.46099 z m -182.48067,-3.4885 c 5.1086,-0.61169 9.1163,-1.28423 8.90599,-1.49454 -0.92486,-0.92487 -26.77976,-0.43019 -40.81112,0.78084 -12.47629,1.0768 -14.53287,1.45644 -10.88323,2.00902 5.84676,0.88524 30.91518,0.12635 42.78836,-1.29532 z M 128.1849,383.09283 c 2.26869,-0.8622 2.30207,-1.07768 1.66531,-10.75 -0.35738,-5.42859 -0.69488,-15.60767 -0.75,-22.62017 -0.0842,-10.71484 -0.34359,-12.75 -1.62496,-12.75 -2.65616,0 -3.20865,-3.93536 -3.86079,-27.5 -1.05902,-38.26702 -1.76992,-49.57835 -2.8596,-45.5 -2.04175,7.64168 -5.08727,7.98712 -7.21612,0.8185 -0.84631,-2.84983 -1.55469,-7.68733 -1.57418,-10.75 -0.0195,-3.06268 -0.69128,-6.6935 -1.49287,-8.0685 -1.42412,-2.44283 -1.44673,-2.40853 -0.98862,1.5 0.25786,2.2 0.95463,8.725 1.54839,14.5 0.59375,5.775 2.61415,20.625 4.48978,33 5.25066,34.64284 6.33999,45.06961 7.0924,67.88655 0.73802,22.38043 0.66076,22.09981 5.57126,20.23362 z m 12.17107,-8.60542 c 1.47804,-3.85173 1.80974,-20.38583 0.65086,-32.44367 -0.69499,-7.2312 -1.44593,-12.96532 -1.66875,-12.74249 -0.22283,0.22282 -0.56733,9.80255 -0.76555,21.28827 -0.19823,11.48573 -0.68563,21.89564 -1.0831,23.13314 -0.53282,1.65886 -0.32607,2.25 0.78695,2.25 0.8303,0 1.76612,-0.66836 2.07959,-1.48525 z m -6.07691,-57.01475 c 0.30635,-10.45 0.3838,-18.55 0.17211,-18 -0.21168,0.55 -1.06674,8.6136 -1.90012,17.9191 -1.12593,12.57195 -1.2263,17.26728 -0.39065,18.27417 0.61853,0.74528 1.22294,1.23169 1.34314,1.0809 0.12019,-0.1508 0.46918,-8.82417 0.77552,-19.27417 z m 10.41027,3.75 c -0.25153,-0.9625 -0.45733,-0.175 -0.45733,1.75 0,1.925 0.2058,2.7125 0.45733,1.75 0.25152,-0.9625 0.25152,-2.5375 0,-3.5 z m -0.96086,-14 c -0.21575,-2.0625 -0.39226,-0.375 -0.39226,3.75 0,4.125 0.17651,5.8125 0.39226,3.75 0.21574,-2.0625 0.21574,-5.4375 0,-7.5 z m -14.02121,-7.48834 c -0.23919,-1.24391 -0.44398,-0.46166 -0.45508,1.73834 -0.0111,2.2 0.18461,3.21775 0.4349,2.26166 0.25029,-0.95609 0.25937,-2.75609 0.0202,-4 z m 593.02121,-10.51166 c -0.21575,-2.0625 -0.39226,-0.375 -0.39226,3.75 0,4.125 0.17651,5.8125 0.39226,3.75 0.21574,-2.0625 0.21574,-5.4375 0,-7.5 z m -580.00374,1.51791 c -0.22256,-1.79735 -0.40925,-0.56791 -0.41486,2.73209 -0.006,3.3 0.17648,4.77056 0.40466,3.26791 0.22817,-1.50265 0.23276,-4.20265 0.0102,-6 z m -7.23218,-31.30339 c 1.9602,-8.5603 1.98488,-36.70551 0.0407,-46.46452 l -1.29489,-6.5 -0.14731,14 c -0.081,7.7 -0.81842,23 -1.63866,34 -0.82024,11 -1.69505,24.95 -1.94402,31 l -0.45268,11 1.92102,-15.03548 c 1.05656,-8.26952 2.63867,-18.16952 3.5158,-22 z m 594.25064,-1.76362 c -0.18485,-4.5105 -0.33516,-0.5509 -0.33401,8.7991 10e-4,9.35 0.1524,13.0404 0.3361,8.2009 0.18371,-4.83951 0.18277,-12.48951 -0.002,-17 z m -610.24919,-11.7009 0.57048,-9.5 -2.01751,6 c -2.02132,6.01133 -2.66501,14.7331 -1.34086,18.16821 1.02089,2.64839 2.08388,-2.94441 2.78789,-14.66821 z m -6.56429,-24.30902 c 0.0434,-2.9671 -0.31272,-4.5723 -0.92971,-4.19098 -0.55,0.33992 -0.96837,3.40398 -0.92971,6.80902 0.0839,7.39352 1.74733,5.05149 1.85942,-2.61804 z m 4.75962,1.55902 c -0.25153,-0.9625 -0.45733,-0.175 -0.45733,1.75 0,1.925 0.2058,2.7125 0.45733,1.75 0.25152,-0.9625 0.25152,-2.5375 0,-3.5 z m 618.52176,-7.75 c 0.26462,-6.6 0.15362,-10.65 -0.24667,-9 -0.7367,3.03674 -1.27265,22.18521 -0.59943,21.41667 0.20074,-0.22917 0.58149,-5.81667 0.8461,-12.41667 z m -616.48779,-13 c -0.0266,-4.70425 -0.0715,-4.61552 -0.7589,1.5 -0.40185,3.575 -0.71243,8.975 -0.69017,12 0.0396,5.37742 0.0565,5.34398 0.7589,-1.5 0.39515,-3.85 0.70572,-9.25 0.69017,-12 z m 10.67123,-9.39565 c 1.10863,-1.2344 1.23931,-2.64202 0.56673,-6.10435 -0.48079,-2.475 -0.89376,-19.3275 -0.91771,-37.45 -0.026,-19.63668 -0.4083,-32.56616 -0.9463,-32 C 127.32859,119.38391 126,145.7697 126,179.03406 c 0,34.86594 0.92313,45.89241 2.22216,26.54295 0.48274,-7.19049 1.22147,-11.44122 2.17237,-12.5 z m -16.78652,2.96316 c 0.35328,-16.90757 -0.95876,-12.56899 -1.94526,6.43249 -0.47583,9.16512 -0.3556,11.54347 0.50894,10.06751 0.65806,-1.12346 1.25937,-8.03114 1.43632,-16.5 z m 4.91431,-34.56751 c 0.94339,-8.8 1.64871,-22.14227 1.56738,-29.64948 -0.11763,-10.85736 0.15455,-13.95191 1.33057,-15.12794 0.81316,-0.81315 1.76507,-3.89588 2.11537,-6.85052 1.19765,-10.101664 4.62756,-27.339424 5.94088,-29.857154 0.72151,-1.3832 2.08961,-6.11491 3.04022,-10.51491 0.9506,-4.4 2.51437,-10.09639 3.47503,-12.65864 l 1.74665,-4.65864 -2.61921,-1.91711 c -2.42984,-1.77851 -3.01686,-1.81619 -8.11921,-0.52112 -6.42956,1.63193 -6.57761,1.7509 -7.4741,6.00551 -0.53561,2.54191 -0.35355,3.25 0.83563,3.25 2.69852,0 2.6315,1.57566 -0.36598,8.60353 -3.53335,8.28426 -3.91572,13.26921 -0.43311,5.64647 2.23994,-4.90279 4.5169,-6.54868 5.91964,-4.27899 0.84858,1.37302 -1.2981,16.95271 -3.72423,27.02899 -1.12563,4.675004 -2.39589,13.900004 -2.8228,20.500004 -0.42691,6.6 -1.25289,14.925 -1.83551,18.5 -0.9832,6.03289 -1.59644,43.8464 -0.696,42.91667 0.22194,-0.22917 1.1754,-7.61667 2.11878,-16.41667 z m 616.16079,10.3125 c -0.31922,-0.79773 -0.55618,-0.56078 -0.60416,0.60417 -0.0434,1.05416 0.19293,1.64479 0.52522,1.3125 0.33229,-0.33229 0.36781,-1.1948 0.0789,-1.91667 z m -10.86038,-34.02775 -1.27307,-4.28475 -0.36539,4 c -0.20097,2.2 -0.009,9.625 0.42692,16.5 l 0.79233,12.5 0.84614,-12.21525 c 0.63026,-9.09875 0.52134,-13.30843 -0.42693,-16.5 z m -616.85369,-9.65908 c 2.62325,-31.347294 2.64531,-29.965774 -0.46904,-29.370424 -2.14032,0.40915 -2.5,0.10942 -2.5,-2.08327 0,-1.40865 1.575,-6.01729 3.5,-10.24142 1.925,-4.22414 3.5,-7.87971 3.5,-8.1235 0,-0.24379 -1.36597,0.52941 -3.03549,1.71821 -6.67687,4.75435 -7.70682,-0.0912 -2.46451,-11.59471 1.925,-4.22414 3.5,-7.87971 3.5,-8.1235 0,-0.24379 -1.30697,0.48739 -2.90437,1.62485 -1.5974,1.13745 -3.44449,2.06809 -4.10464,2.06809 -1.60218,0 -0.78935,57.187734 1.0762,75.717714 0.7319,7.26974 1.45226,13.09617 1.6008,12.94763 0.14855,-0.14854 1.18402,-11.1914 2.30105,-24.53967 z m 638.50557,-22.12567 c 1.39465,-52.731684 1.39433,-53.907204 -0.0133,-48.663194 -2.89172,10.77268 -4.73745,35.44345 -4.08959,54.663194 1.09135,32.37651 3.16827,29.33927 4.10292,-6 z m -24.54479,4 c -0.79916,-6.38008 -4.2e-4,-22.130214 1.4178,-27.957054 0.86439,-3.55138 1.41308,-6.61558 1.21933,-6.80933 -0.19375,-0.19376 -1.73864,2.07082 -3.43307,5.03239 -1.69444,2.96157 -4.30901,6.70077 -5.81016,8.30933 -3.05022,3.26847 -3.28352,7.64789 -0.56919,10.68438 1.29258,1.445984 1.35598,2.165264 0.35563,4.034454 -0.9312,1.73996 -0.95929,3.91231 -0.11949,9.24028 1.09991,6.97825 2.59724,13.6548 3.69267,16.46555 0.71704,1.83986 3.68276,-15.51697 3.24648,-19 z m 10.28446,1.23012 c 0.23968,-4.42078 0.0843,-4.9942 -0.96428,-3.55887 -1.3772,1.88513 -1.67866,9.11822 -0.5,11.99696 0.83621,2.04234 0.92324,1.54079 1.46428,-8.43809 z m -62.11857,-7.94573 C 670.69307,102.31347 672,100.71557 672,99.706156 c 0,-1.63773 -0.36,-1.5607 -3.34439,0.715614 -1.83942,1.40299 -3.83786,2.55089 -4.44098,2.55089 -0.60313,0 -1.37471,0.45 -1.71463,1 -1.00432,1.62503 3.45177,1.14156 6.59571,-0.71561 z m -0.74775,-8.114974 c 2.33104,-2.57756 1.39471,-4.16942 -2.45243,-4.16942 -4.77721,0 -9.95146,6.61073 -7.27171,9.290494 0.8574,0.8574 7.46393,-2.621824 9.72414,-5.121074 z M 707,95.350216 c 0,-1.3888 -0.25202,-1.42955 -1.75,-0.28297 -0.9625,0.73671 -1.9375,1.46681 -2.16667,1.62244 -0.22916,0.15563 0.55834,0.28297 1.75,0.28297 1.33194,0 2.16667,-0.62507 2.16667,-1.62244 z m 9.09249,-17.20886 c 1.7554,-3.11779 4.97527,-8.35963 7.15527,-11.64855 l 3.96364,-5.97984 1.31601,-18.23897 c 0.72381,-10.03144 1.6028,-18.70301 1.95332,-19.27016 0.93962,-1.52034 3.2201,-1.25318 3.8752,0.45398 0.31345,0.81684 0.0919,8.0372 -0.49227,16.04524 -0.7615,10.4385 -0.751,17.74683 0.0371,25.81779 0.60459,6.19174 1.13794,11.90889 1.18521,12.70476 0.16468,2.77237 1.91045,-4.64992 4.46428,-18.98029 2.68661,-15.07549 4.54323,-21.07266 6.52372,-21.07266 1.59028,0 0.68208,-4.09441 -2.49542,-11.25 l -2.55333,-5.75 -10.26261,-0.16921 c -5.64444,-0.0931 -15.21261,-0.20557 -21.26261,-0.25 -21.101,-0.15497 -80.12074,-2.65269 -96,-4.06273 -28.17369,-2.50176 -50.98728,-2.84832 -75.5,-1.14691 -12.375,0.85894 -37.0194,2.08128 -54.76533,2.71631 C 445.73936,19.401866 434.18287,18.764346 401,13.523566 361.033,7.2113364 349.51627,6.3009864 297.92389,5.3758264 273.37367,4.9355864 253.79208,5.1038764 241,5.8650464 c -23.90494,1.42241 -81.09841,6.8284796 -104,9.8303296 -2.475,0.32442 -4.95,1.19359 -5.5,1.93151 -0.8237,1.10512 -2.95414,1.13607 -12.08429,0.17551 l -11.08429,-1.16614 -5.64458,3.2295 c -5.63055,3.22147 -7.75187,5.1069 -5.74586,5.1069 0.58246,0 1.05902,0.65264 1.05902,1.45031 0,0.79767 0.73279,1.8604 1.62842,2.36162 0.89563,0.50122 1.21236,1.16844 0.70385,1.48272 -0.76399,0.47217 0.33245,15.35029 1.21699,16.51393 0.12901,0.16972 1.82199,-0.35468 3.76216,-1.16534 5.46039,-2.28149 7.69718,-7.64324 3.18858,-7.64324 -1.78318,0 -2.5,-0.5409 -2.5,-1.88646 0,-1.45562 0.98024,-2.03345 4.29212,-2.5301 3.575,-0.5361 4.47943,-1.13985 5.41314,-3.61354 1.39214,-3.6882 2.39018,-3.7154 5.96782,-0.16263 l 2.82692,2.80727 19,-0.16794 c 17.07895,-0.15095 19.90997,-0.42691 28,-2.72934 l 9,-2.56141 -22.14301,-0.0779 c -18.02145,-0.0634 -22.24317,-0.33893 -22.6811,-1.48016 -0.29595,-0.77123 -0.26909,-1.67123 0.0597,-2 0.32877,-0.32878 8.06026,-0.59877 17.1811,-0.59998 24.21936,-0.003 99.80155,-4.48676 119.85866,-7.11 9.14714,-1.19635 12.18099,-0.74501 10.29197,1.53112 -0.63687,0.76738 -3.72505,1.69759 -6.86262,2.06713 -3.13758,0.36954 -8.40468,1.26525 -11.70468,1.99046 -4.98708,1.09596 -5.40913,1.33498 -2.5,1.41586 1.925,0.0535 7.85216,-0.19093 13.17146,-0.5432 8.26679,-0.54746 9.74189,-0.90981 10.15638,-2.49482 0.57709,-2.20679 4.31882,-2.41565 13.2385,-0.73894 3.75445,0.70575 25.58223,1.22511 59.43366,1.41414 29.425,0.16431 56.00864,0.68992 59.07476,1.16801 3.11938,0.4864 19.85634,0.50639 38,0.0454 36.25285,-0.92112 59.19996,-0.39495 81.42524,1.86706 8.25,0.83965 16.89536,1.24589 19.21192,0.90276 2.45492,-0.36363 5.08994,-0.15398 6.31673,0.50257 1.45397,0.77815 12.9839,1.10441 37.28808,1.05513 38.28814,-0.0776 64.67191,1.05598 68.84651,2.95806 2.12065,0.96623 5.36642,0.88373 16.09574,-0.40912 17.36391,-2.09232 22.741,-2.1147 22.741,-0.0947 0,0.83861 -1.0125,1.90093 -2.25,2.3607 -2.02042,0.75065 -18.60457,2.93124 -35.56136,4.67583 -3.47125,0.35713 -6.13487,0.82583 -5.91916,1.04154 0.21571,0.21571 5.30582,0.90425 11.31136,1.5301 12.11737,1.26277 15.41916,2.15825 15.41916,4.18181 0,2.64719 -5.03324,3.68487 -18.29705,3.77223 l -13.20295,0.087 13.84593,2.37021 c 7.61526,1.30361 14.43791,2.86151 15.16145,3.46199 1.52103,1.26235 11.58326,16.22967 16.00495,23.80698 l 3.01234,5.16214 1.63853,-4.55657 c 1.40012,-3.89358 1.42416,-4.4743 0.16522,-3.9912 C 706.2425,73.200566 703,71.228406 703,69.159256 c 0,-0.95866 1.575,-5.0295 3.5,-9.0463 1.925,-4.0168 3.5,-7.47643 3.5,-7.68806 0,-0.21163 -1.5788,0.54672 -3.50843,1.68524 -6.71071,3.95941 -8.44175,0.3292 -3.53354,-7.41025 l 2.95803,-4.66433 -5.34212,2.62002 c -5.30253,2.6006 -9.01293,2.62465 -8.02572,0.052 0.65232,-1.69992 5.73269,-4.73494 7.9259,-4.73494 2.14519,0 9.72756,-5.20661 15.72578,-10.79846 4.40838,-4.10973 6.8001,-4.74874 6.8001,-1.81684 0,0.69667 -1.16389,2.35761 -2.58642,3.69099 -3.28859,3.08247 -12.80469,15.86653 -12.23481,16.43641 0.23617,0.23617 3.7688,-2.93244 7.85029,-7.04135 C 722.67313,33.754696 727,31.194666 727,33.952366 c 0,0.53885 -1.69832,3.22358 -3.77404,5.96609 -4.35706,5.75667 -15.78902,27.0542 -14.52199,27.0542 1.91522,0 5.43697,-3.38302 9.39356,-9.02353 2.30574,-3.28706 4.81617,-5.97647 5.57875,-5.97647 2.57434,0 2.57165,3.02782 -0.006,6.77477 -1.40949,2.04888 -3.92112,5.68193 -5.58139,8.07344 -2.69799,3.8863 -5.35439,9.87413 -7.60562,17.14395 -0.68197,2.20226 -0.58624,2.3382 0.82293,1.1687 0.87707,-0.72791 3.03091,-3.87438 4.78631,-6.99216 z M 112.99503,66.804446 c 0.003,-0.91752 0.25484,-2.49252 0.56024,-3.5 0.30541,-1.00749 -0.79836,0.64321 -2.45282,3.66821 -3.65211,6.67751 -3.88966,8.54812 -0.57145,4.5 1.35248,-1.65 2.4613,-3.7507 2.46403,-4.66821 z m -4.46473,-12.63483 c -0.67194,-0.67193 -3.5303,1.82222 -3.5303,3.08047 0,0.5679 0.90276,0.21556 2.00613,-0.78298 1.10337,-0.99854 1.78925,-2.03241 1.52417,-2.29749 z m 88.00861,-2.68965 c 31.89126,-1.64371 37.44258,-2.25096 58.56226,-6.40603 L 269.5,42.241116 247.94911,41.491486 c -13.03482,-0.4534 -29.82915,-0.31871 -42.5,0.34086 -11.52201,0.59977 -28.37411,1.34626 -37.44911,1.65887 -19.36842,0.6672 -22.09993,1.05746 -21.33595,3.04836 0.32522,0.84751 -0.0567,1.43308 -0.93462,1.43308 -0.8165,0 -2.02935,0.65646 -2.69524,1.4588 -1.25836,1.51624 -1.42233,1.42965 5.46581,2.88626 4.16934,0.88168 20.05279,0.60469 48.03891,-0.83775 z M 139.8,48.772656 c 1.65813,-1.65813 1.50292,-2.83187 -0.3,-2.26862 -5.12055,1.59972 -5.02074,1.52764 -3.47197,2.5071 1.92636,1.21826 2.34148,1.19201 3.77197,-0.23848 z m 298.7,0.28889 7,-0.66269 -9,-0.69761 c -18.40028,-1.42624 -55.19828,-4.86897 -61,-5.70701 -7.51316,-1.08525 -38.19751,-2.43853 -37.44057,-1.65125 1.42742,1.48465 24.67839,5.48304 35.44057,6.09459 6.6,0.37504 16.725,1.27337 22.5,1.9963 11.26925,1.4107 31.13045,1.70402 42.5,0.62767 z m -324,-1.08889 c 0.78218,-1.2656 -0.54163,-1.2656 -2.5,0 -1.29269,0.8354 -1.26629,0.97149 0.19098,0.98469 0.93004,0.008 1.9691,-0.43469 2.30902,-0.98469 z m 16.5,-3.57985 c 2.475,-0.68273 3.73465,-1.28155 2.79922,-1.33073 -2.8886,-0.15187 -11.74798,2.01865 -12.37401,3.0316 -0.6012,0.97276 0.757,0.73148 9.57479,-1.70087 z m 448.09543,0.96487 c 0.73717,-0.88824 3.58536,-2.59891 6.32932,-3.8015 l 4.98901,-2.18652 -8.40563,-1.656 c -5.85002,-1.15251 -8.78411,-1.34189 -9.65047,-0.62286 -3.77774,3.13523 -12.25047,4.13312 -40.35766,4.75316 l -28.5,0.6287 23,1.31321 c 12.65,0.72227 23.15,1.73477 23.33333,2.25 0.18539,0.521 6.45584,0.93679 14.12756,0.93679 11.47807,0 14.01927,-0.27117 15.13454,-1.61498 z M 336,43.876246 c -9.14164,-2.32898 -22.19826,-3.4391 -34.5,-2.9333 l -13,0.53451 10,0.84224 c 5.5,0.46323 13.15,1.19127 17,1.61786 3.85,0.4266 10.825,0.78795 15.5,0.803 6.89276,0.0222 7.83819,-0.14123 5,-0.86431 z m 260,-0.47091 3.5,-1.41516 -3.5,0.62097 c -1.925,0.34154 -4.4,0.98407 -5.5,1.42785 -2,0.80689 -2,0.80689 0,0.7942 1.1,-0.007 3.575,-0.64952 5.5,-1.42786 z m -146.23209,-0.14721 c -1.50265,-0.22817 -4.20265,-0.23276 -6,-0.0102 -1.79735,0.22256 -0.56791,0.40925 2.73209,0.41486 3.3,0.006 4.77056,-0.17648 3.26791,-0.40466 z m -17.49888,-0.94141 c -0.67703,-0.27392 -2.02703,-0.29059 -3,-0.0371 -0.97297,0.25354 -0.41903,0.47766 1.23097,0.49804 1.65,0.0204 2.44606,-0.18706 1.76903,-0.46099 z M 131.5,38.972656 c 2.83368,-0.72105 2.76766,-0.76993 -1.19098,-0.88169 -2.30504,-0.0651 -4.4691,0.33169 -4.80902,0.88169 -0.69776,1.12899 1.56312,1.12899 6,0 z M 564,35.658906 c 4.46923,-1.64683 4.40086,-1.65495 -10,-1.18743 -7.975,0.25891 -26.875,0.76151 -42,1.11688 -15.125,0.35538 -28.175,1.04477 -29,1.53199 -0.88217,0.52098 14.56362,0.74393 37.5,0.54129 33.25623,-0.29382 39.66274,-0.58877 43.5,-2.00273 z m -234,0.31375 c -3.70143,-1.18541 -10.23262,-1.18541 -9.5,0 0.33992,0.55 3.17898,0.95514 6.30902,0.90032 4.35794,-0.0763 5.10539,-0.28722 3.19098,-0.90032 z m -108,-0.96901 7.5,-0.7076 -6.05,-0.1617 c -3.3275,-0.0889 -6.4775,-0.55515 -7,-1.03604 -0.54323,-0.49998 -4.31106,-0.44457 -8.79963,0.1294 -5.04456,0.64507 -7.36735,1.3094 -6.5,1.85904 1.54502,0.97911 9.94605,0.94562 20.84963,-0.0831 z m 381,-0.53099 c 1.06604,-1.2845 0.74452,-1.5 -2.23798,-1.5 -1.91558,0 -5.68318,0.32761 -8.37245,0.72802 l -4.88957,0.72803 4,0.63007 c 7.05648,1.11152 10.22511,0.95002 11.5,-0.58612 z m -151.36841,-0.45029 c 4.47237,-0.51432 19.3948,-1.25354 33.16094,-1.64272 18.69613,-0.52855 24.91385,-1.00857 24.5729,-1.89708 -0.58698,-1.52964 1.45367,-3.19309 4.63457,-3.77791 3.94613,-0.72551 -49.67366,-0.80434 -59.76744,-0.0879 -7.85792,0.55777 -9.14307,0.90566 -9.58474,2.59458 -0.40193,1.53699 -1.10761,1.83347 -3.32893,1.3986 -8.11663,-1.58899 -41.47552,-2.68326 -88.81889,-2.91353 l -53,-0.25779 13,1.68532 c 21.30751,2.76232 34.02614,3.91411 52.5,4.75439 25.27988,1.14985 77.13534,1.23604 86.63159,0.144 z M 655.5,32.123136 c 1.64752,-1.02695 0.41384,-1.13685 -7,-0.62361 -4.95,0.34268 -15.3,0.9851 -23,1.42761 -13.71254,0.78805 -13.56881,0.80085 7,0.62362 14.75392,-0.12714 21.59486,-0.55176 23,-1.42762 z m -367.77083,-1.75465 c -0.33229,-0.33229 -1.1948,-0.36781 -1.91667,-0.0789 -0.79773,0.31922 -0.56078,0.55618 0.60417,0.60416 1.05416,0.0434 1.64479,-0.19293 1.3125,-0.52522 z m -8.46542,-1.09976 c -1.22994,-0.23736 -3.47994,-0.24351 -5,-0.0136 -1.52006,0.22985 -0.51375,0.42406 2.23625,0.43157 2.75,0.007 3.99369,-0.18056 2.76375,-0.41792 z M 345.5,715.95491 c -6.05,-0.3908 -12.8,-1.1718 -15,-1.7355 -8.17337,-2.0944 -29.70637,-3.5399 -38.28825,-2.5704 -5.71603,0.6458 -8.56178,0.6068 -9.16961,-0.1256 -1.47907,-1.7821 -2.30382,-6.4443 -1.46805,-8.2985 0.597,-1.3245 0.93182,-0.7758 1.37159,2.2478 0.4238,2.9137 0.98543,3.8802 2.06806,3.559 0.81744,-0.2425 3.9422,-0.6271 6.94391,-0.8546 l 5.45765,-0.4136 -5.41655,-2.6454 c -7.86465,-3.8411 -9.40344,-7.0089 -9.78568,-20.1454 -0.26813,-9.2146 0.23909,-13.1756 4.14324,-32.3556 3.36138,-16.5134 5.18967,-23.2689 7.47994,-27.6381 3.399,-6.4844 5.04126,-13.0063 3.27504,-13.0063 -2.08911,0 -1.11581,-3.0478 1.262,-3.9519 1.32724,-0.5046 2.6651,-2.0649 3.03534,-3.5401 0.50615,-2.0167 1.18361,-2.5581 2.87672,-2.2992 2.2674,0.3467 2.41092,0.8813 1.12475,4.1897 -0.67439,1.7347 -0.35719,1.8502 3.67591,1.3388 2.4277,-0.3079 9.88822,-1.7227 16.57894,-3.1441 29.16461,-6.1958 50.00302,-8.1587 96.83505,-9.1213 17.05,-0.3504 33.88266,-1.0698 37.4059,-1.5986 7.22667,-1.0847 10.16831,0.099 6.6671,2.6836 -1.05985,0.7823 -1.69778,1.6516 -1.41762,1.9318 0.28016,0.2801 13.44795,0.5398 29.26176,0.5769 l 28.75237,0.068 1.66525,2.9271 c 0.91588,1.6099 2.24186,2.9299 2.94662,2.9333 0.70477,0 1.54041,0.6814 1.85699,1.5064 0.31659,0.825 0.97746,1.5 1.46862,1.5 0.49115,0 0.89301,-0.675 0.89301,-1.5 0,-2.054 1.63511,-1.8933 2.4542,0.2412 0.64902,1.6913 -1.78732,4.538 -4.71758,5.5121 -0.91301,0.3035 -1.32169,5.6889 -1.56168,20.5789 -0.27576,17.1088 -0.10494,20.1678 1.12625,20.1678 1.18317,0 1.53162,-2.7252 1.88597,-14.75 0.43519,-14.7676 1.43389,-19.25 4.28901,-19.25 2.18886,0 2.6456,1.5752 1.35297,4.666 -0.82472,1.9721 -1.20706,12.616 -1.25716,34.9978 -0.0662,29.5946 0.0678,32.2513 1.67802,33.2585 2.22897,1.3942 2.28588,6.3888 0.0935,8.2052 -1.30714,1.083 -7.05427,1.3772 -27.25,1.3948 -32.85844,0.029 -43.49789,1.7335 -15.5935,2.4986 20.71381,0.5679 24.0033,1.3804 23.19537,5.7291 -0.22991,1.2375 -0.14293,2.2481 0.1933,2.2459 4.30871,-0.029 29.52509,-2.3146 32.26084,-2.9245 4.11142,-0.9167 6.42114,-9e-4 5.57293,2.2095 -2.09251,5.453 -39.87044,6.9859 -100.97662,4.0973 -32.16982,-1.5207 -35.89109,-1.5215 -50.04302,-0.011 -15.65262,1.6712 -39.0808,1.9144 -59.2028,0.6146 z m 168.70212,-5.1801 c -1.71811,-1.7181 -12.55888,-2.7105 -28.70212,-2.6274 -12.00563,0.062 -13.14527,0.1951 -8,0.9355 6.268,0.902 25.78996,2.5063 33.45,2.7488 3.45673,0.1095 4.18263,-0.1264 3.25212,-1.0569 z M 359,706.90871 c 9.075,-0.5452 30.9,-1.4038 48.5,-1.9082 27.28619,-0.7818 33.91499,-1.2807 45,-3.3868 31.34023,-5.9542 48.63363,-7.2316 71.08937,-5.2513 9.13119,0.8053 10.15241,0.7255 10.75324,-0.8402 0.95029,-2.4764 -0.12455,-3.7366 -2.22721,-2.6113 -2.40079,1.2849 -7.1154,-3.0699 -7.1154,-6.5723 0,-1.6793 -0.65909,-2.7255 -1.92567,-3.0568 -1.84883,-0.4834 -1.90999,-1.4873 -1.53264,-25.1563 0.21617,-13.5591 0.67603,-29.2653 1.02191,-34.9028 l 0.62886,-10.25 -2.5575,0 c -1.40663,0 -6.51244,-0.9402 -11.34623,-2.0893 -4.8338,-1.1491 -14.63873,-3.1257 -21.78873,-4.3924 -11.03168,-1.9544 -13.1681,-2.0923 -14.11024,-0.9108 -1.42662,1.7892 -2.38976,1.7749 -2.38976,-0.036 0,-2.3398 -9.46661,-2.9221 -36.5,-2.245 -26.52696,0.6644 -47.90825,1.8766 -74,4.1953 -17.30858,1.5381 -42.69523,4.2963 -46.12936,5.0117 -2.79452,0.5822 -12.04794,8.9414 -13.93285,12.5864 -3.21845,6.2238 -9.50358,42.584 -9.83207,56.8797 -0.1327,5.775 -0.62363,11.3584 -1.09095,12.4076 -0.65015,1.4596 -0.21017,2.4576 1.87353,4.25 1.49778,1.2883 3.26063,2.3687 3.91746,2.401 0.65683,0.032 11.09424,1.5484 23.19424,3.3694 12.1,1.8209 22.45,3.3532 23,3.405 0.55,0.052 8.425,-0.3518 17.5,-0.897 z m 172.7234,-28.186 c -0.22183,-1.7875 -0.40333,-0.325 -0.40333,3.25 0,3.575 0.1815,5.0375 0.40333,3.25 0.22182,-1.7875 0.22182,-4.7125 0,-6.5 z m -9.73871,-71.5 c -0.0559,-2.7383 -1.99552,-3.3244 -10.07034,-3.0431 l -8.41435,0.2931 6.5,1.633 c 7.21457,1.8126 12.00801,2.2594 11.98469,1.117 z m 94.19576,89.5 c 0.34251,-2.4117 4.26845,-3.7011 5.99917,-1.9704 1.27822,1.2782 -1.7338,4.2204 -4.3206,4.2204 -1.50014,0 -1.91848,-0.5608 -1.67857,-2.25 z M 508,581.98151 c -11.275,-0.4546 -37.15,-1.7614 -57.5,-2.9041 -20.35,-1.1427 -48.12009,-2.5338 -61.71132,-3.0912 -32.05936,-1.3149 -121.8942,-1.3052 -146.28411,0.016 -10.45251,0.5661 -31.15457,1.7223 -46.00457,2.5694 -42.30698,2.4131 -82.5,1.8708 -82.5,-1.1133 0,-0.9688 5.31781,-1.2826 23.25,-1.372 24.86222,-0.124 48.60841,-1.2343 109.75,-5.13163 20.3089,-1.29453 111.03259,-1.26342 143.21913,0.0491 13.90448,0.56703 41.08872,1.91343 60.40942,2.99203 105.48993,5.8891 152.03621,5.0108 264.37145,-4.98839 17.875,-1.59109 36.325,-3.03727 41,-3.21373 8.16551,-0.30821 8.51257,-0.2323 8.81955,1.92916 0.34305,2.41544 -0.42852,2.68091 -6.81955,2.34632 -1.925,-0.10078 -14.6743,0.9516 -28.33178,2.33864 -27.9295,2.8364 -80.05426,7.0143 -107.16822,8.5896 -24.64153,1.4317 -89.56047,1.9898 -114.5,0.9843 z M 194,567.97515 c 0,-1.22491 14.90083,-13.18465 20.79517,-16.69066 4.95541,-2.94754 7.13311,-2.12366 2.78737,1.05453 -1.6046,1.1735 -7.13104,5.39614 -12.28097,9.38364 C 196.14914,568.80922 194,569.99821 194,567.97515 Z m 359.50489,-3.99457 c -0.33722,-0.54564 -0.25128,-1.60802 0.19099,-2.36084 1.60976,-2.7401 12.24122,-11.2712 18.89276,-15.16028 3.75027,-2.19274 8.63953,-5.51782 10.86502,-7.38906 l 4.04634,-3.40226 -11,0.63201 c -6.05,0.3476 -21.35,0.88444 -34,1.19298 -31.14074,0.75952 -33.16178,0.99581 -33.90678,3.96414 -0.84618,3.37143 -12.44812,12.64498 -21.8521,17.4666 l -8.0142,4.10905 -2.83568,-2.78013 c -1.55963,-1.52907 -2.84818,-3.29027 -2.86346,-3.91377 -0.0562,-2.29348 8.39324,-8.63778 17.23569,-12.94149 l 9.09137,-4.42487 -29.80939,0 c -28.16356,0 -29.98986,0.11154 -33.07819,2.02024 -3.59266,2.22038 -5.25218,4.97976 -2.99489,4.97976 0.77528,0 1.68771,-0.45 2.02763,-1 0.93864,-1.51876 3.5,-1.19434 3.5,0.4433 0,3.55184 -7.63906,5.92918 -10.20967,3.17733 -1.08877,-1.16553 -2.03476,-0.98918 -6.10194,1.13749 -3.74144,1.95634 -5.07787,2.24929 -6.0009,1.31539 -1.22319,-1.23759 1.69326,-4.49431 8.81251,-9.8407 l 3,-2.25293 -18.75,0.16645 c -16.90879,0.15011 -18.75,0.33325 -18.75,1.865 0,2.62647 -10.36292,11.80765 -16.49738,14.6161 -6.21911,2.8472 -8.48634,2.78964 -10.00375,-0.25396 -1.04989,-2.10588 -1.0583,-2.10483 -6.02511,0.75069 -2.73557,1.57274 -5.53626,2.86319 -6.22376,2.86768 -2.12179,0.0138 -1.3926,-3.8118 0.863,-4.52771 1.16215,-0.36885 5.67954,-3.09917 10.03864,-6.06738 4.35909,-2.96821 8.33169,-5.39675 8.82798,-5.39675 2.1136,0 1.94633,2.21509 -0.43154,5.71444 -3.28171,4.82946 -3.20906,5.41194 0.51318,4.11436 1.87392,-0.65325 2.86546,-1.57737 2.55646,-2.38263 -0.49391,-1.28711 4.49502,-6.38079 9.33439,-9.53038 2.25031,-1.46456 -0.69601,-1.63441 -39.00898,-2.24869 -22.79372,-0.36545 -49.96413,-0.66506 -60.37868,-0.66578 -18.01386,-10e-4 -19.0472,0.10357 -21.22931,2.15356 -2.141,2.01136 -2.17859,2.24057 -0.56446,3.44143 1.35584,1.0087 1.49371,1.67714 0.63835,3.09512 -2.89924,4.80626 -23.81455,17.13441 -26.9973,15.91307 -2.74216,-1.05226 -1.33977,-2.65866 5.08827,-5.82847 3.575,-1.76291 6.5,-3.62738 6.5,-4.14325 0,-0.51588 2.7,-3.57175 6,-6.79082 3.3,-3.21907 6,-6.21399 6,-6.65538 0,-0.9289 -8.05764,-0.69005 -46,1.36356 -41.51376,2.24692 -41.5907,2.25613 -42.90238,5.13495 C 169.85939,548.37536 168,547.90803 168,544.8792 c 0,-1.76613 -0.50327,-1.91794 -4.75,-1.43289 -8.23534,0.94063 -31.42775,2.52635 -36.94989,2.52635 -5.966,0 -6.87719,-1.45281 -3.11155,-4.96104 2.99796,-2.79303 5.83403,-2.82639 3.31144,-0.039 -2.23845,2.47346 -3.47863,2.44401 19,0.45117 25.80945,-2.28813 23.94614,-1.81352 25.81686,-6.57591 1.59941,-4.07168 1.59694,-4.08577 -0.60546,-3.45772 -6.41128,1.82826 -7.55561,1.80478 -8.79543,-0.18049 -1.2323,-1.97322 -1.258,-1.97329 -5.68315,-0.0158 -3.2176,1.4233 -4.74733,1.66428 -5.53904,0.87257 -0.60158,-0.60158 -2.09128,-1.09378 -3.31045,-1.09378 -1.21916,0 -2.38853,-0.5156 -2.59859,-1.14578 -0.24974,-0.74923 -1.82012,-0.31805 -4.53748,1.24586 -3.20529,1.84473 -4.4268,2.12038 -5.34177,1.20541 -2.09341,-2.09341 16.54851,-19.94862 22.59451,-21.641 1.1,-0.30791 0.2,-0.3793 -2,-0.15865 -2.2,0.22065 -8.79002,0.68717 -14.64448,1.03671 l -10.64448,0.63553 -3.75861,9.16096 c -5.16108,12.57923 -9.77025,21.46963 -10.1767,19.62931 -0.18605,-0.84241 2.3758,-7.54698 5.693,-14.89904 3.3172,-7.35206 6.03127,-13.52531 6.03127,-13.71834 0,-0.19304 -1.15073,-0.35097 -2.55718,-0.35097 -3.93363,0 -11.44282,-2.11825 -11.44282,-3.22788 0,-0.59948 3.05134,-0.84867 7.73014,-0.63128 l 7.73014,0.35916 4.72892,-11.87573 c 2.60091,-6.53165 4.97235,-12.11915 5.26987,-12.41667 1.43038,-1.43039 1.39905,0.88772 -0.0592,4.37775 -0.8945,2.14084 -2.93559,7.44324 -4.53575,11.78312 l -2.90939,7.8907 12.77262,-0.71247 c 7.02495,-0.39186 18.58904,-1.23767 25.698,-1.87959 l 12.92536,-1.16711 2.84901,-7.86364 2.84901,-7.86363 -3.27437,2.17933 c -5.43198,3.61538 -17.07363,9.04794 -19.38916,9.04794 -2.52787,0 -3.76934,-2.41288 -2.48124,-4.82244 1.52799,-2.85832 -6.5093,-2.10688 -11.99182,1.12116 -5.1336,3.02261 -6.47359,3.28652 -7.19124,1.41633 -0.74378,-1.93825 -0.0116,-6.82431 1.20485,-8.0408 1.64311,-1.64311 1.28616,-2.67425 -0.92575,-2.67425 -3.29254,0 -2.35848,-3.44341 2.00288,-7.38364 4.1231,-3.72497 7.68924,-4.86238 6.63549,-2.11636 -0.74742,1.94775 0.25325,1.90806 2.46988,-0.098 3.22832,-2.92159 4.28735,-0.43279 1.22375,2.87588 l -2.832,3.05854 3.61803,-2.16823 c 6.48902,-3.88877 9.46799,-1.98508 4.13197,2.64051 -1.5125,1.31112 -0.38646,0.76553 2.50231,-1.21244 2.88878,-1.97796 5.92628,-3.5963 6.75,-3.5963 2.76681,0 1.50616,3.47847 -2.10981,5.82155 -4.47407,2.8991 -3.85975,3.84578 0.99371,1.53132 2.81638,-1.34303 3.90244,-1.46422 4.82795,-0.53871 0.9255,0.9255 0.20155,2.20548 -3.21823,5.68998 -2.42679,2.47272 -4.08082,4.49586 -3.67562,4.49586 1.15945,0 12.07881,-5.66298 17.28213,-8.96283 2.5962,-1.64646 5.37894,-4.35337 6.18386,-6.01537 1.01872,-2.10342 2.18534,-3.0218 3.8386,-3.0218 2.40844,0 3.14569,1.81635 1.44094,3.55 -0.90427,0.91961 -8.06494,20.18508 -8.06554,21.7 -3.9e-4,0.96729 12.18106,0.95348 13.4997,-0.0153 0.55,-0.40408 1.84284,-2.39336 2.87297,-4.42063 2.23068,-4.3899 6.97201,-9.42397 10.68372,-11.34337 2.27305,-1.17545 2.96264,-1.17704 4.55795,-0.0105 1.36072,0.99498 2.23729,1.07768 3.17491,0.29953 0.92887,-0.7709 1.62202,-0.74813 2.45064,0.0805 0.8739,0.8739 0.19353,2.04451 -2.79238,4.8044 -2.48903,2.30061 -3.47605,3.81357 -2.6711,4.09442 0.70218,0.245 3.0378,-1.14559 5.19026,-3.0902 6.34482,-5.73216 12.03717,-8.06916 13.57878,-5.57478 1.12783,1.82487 -3.71813,6.02808 -11.01754,9.5562 -7.48608,3.61835 -9.48382,4.01416 -11.26588,2.2321 -0.85022,-0.85022 -1.97456,-0.5772 -4.45,1.08059 l -3.31233,2.21825 8.5,-0.57459 c 4.675,-0.31603 11.03323,-0.57729 14.1294,-0.58059 l 5.6294,-0.006 3.82822,-8.5 c 3.92427,-8.71326 6.14447,-11.02454 5.04313,-5.25 -0.5955,3.12229 -0.5044,3.06704 2.31828,-1.40593 1.61598,-2.56077 3.41367,-4.94982 3.99486,-5.30902 1.81516,-1.12183 1.16924,3.1599 -1.04207,6.90779 -1.21158,2.05349 -1.62384,3.55716 -0.97525,3.55716 0.61794,0 1.54109,-1.09826 2.05144,-2.44057 0.92552,-2.4343 14.71157,-13.55942 16.8026,-13.55942 2.01217,0 2.41256,2.05715 0.86122,4.4248 -1.20155,1.8338 0.64466,1.07979 8.57621,-3.50261 5.55906,-3.21171 10.48527,-5.60593 10.94714,-5.32048 1.28633,0.795 -0.14124,7.87933 -3.75784,18.64829 l -3.2744,9.75 12.24533,0 12.24534,0 5.37699,-6.5 c 5.30574,-6.41387 7,-7.68705 7,-5.26028 0,0.68184 1.85179,-0.66816 4.11508,-3 4.29465,-4.42472 7.50431,-5.39515 8.57925,-2.5939 0.43941,1.14509 -0.94094,3.14587 -4.53705,6.57632 -8.66171,8.2627 -9.36256,11.73364 -1.60859,7.96647 5.3512,-2.59982 5.45131,-2.61246 5.45131,-0.68861 0,1.17681 1.37652,1.5 6.38871,1.5 l 6.38871,0 0.58345,-3.25 c 0.3209,-1.7875 0.883,-6.28631 1.24912,-9.99736 0.70063,-7.10188 2.49802,-11.00979 4.25562,-9.25264 0.667,0.66683 0.49288,4.44059 -0.52259,11.32675 -0.83757,5.67971 -1.36989,10.4306 -1.18294,10.55753 0.49499,0.33607 49.26615,-2.61823 49.73725,-3.01281 0.21853,-0.18304 1.21665,-5.14211 2.21803,-11.02016 2.18328,-12.8157 4.46816,-16.60524 3.528,-5.85131 -0.33658,3.85 -0.91491,9.20836 -1.28517,11.90747 l -0.6732,4.90746 10.6575,-0.65746 c 5.86163,-0.36161 15.38251,-0.94875 21.15751,-1.30475 l 10.5,-0.64728 0.0153,-4.60272 c 0.0154,-4.61193 1.30293,-8.11781 2.53053,-6.89021 0.36003,0.36002 0.72954,2.90454 0.82115,5.65448 0.0916,2.74994 0.38401,5.14249 0.64978,5.31678 0.26578,0.17429 4.64573,0.17231 9.73323,-0.004 8.22184,-0.28558 9.25,-0.52719 9.25,-2.1736 0,-3.27926 4.95704,-7.87528 12.5314,-11.61873 6.38216,-3.15423 8.07676,-3.58305 12.48537,-3.15944 2.80553,0.26958 5.56917,0.95835 6.14143,1.53061 1.92336,1.92336 -0.26367,5.24727 -6.21323,9.44301 -3.25026,2.29214 -5.80503,4.26007 -5.67726,4.37317 0.12776,0.1131 7.48799,-0.0319 16.35607,-0.32219 l 16.12379,-0.52782 -0.51882,-6.46344 c -0.47551,-5.92379 -0.36232,-6.4333 1.35567,-6.10245 1.26834,0.24426 1.94505,1.32797 2.09267,3.35126 0.11999,1.64464 0.48211,4.42607 0.80472,6.18094 l 0.58656,3.19068 34.56194,0.0497 c 33.68671,0.0485 34.57513,-6.8e-4 35.08245,-1.94068 0.66814,-2.55495 3.28724,-2.60092 3.28724,-0.0577 0,1.82072 0.97053,1.95109 16.75,2.25 9.2125,0.17452 16.91829,0.22401 17.12397,0.11 0.20568,-0.11402 -0.58182,-1.82724 -1.75,-3.80716 -2.43155,-4.12116 -2.65121,-5.49455 -0.87397,-5.46419 1.36066,0.0232 6.75,7.11994 6.75,8.88843 0,0.69153 3.19987,1.1496 8.75,1.25258 4.8125,0.0893 12.0125,0.26855 16,0.39833 3.9875,0.12978 7.24458,0.16922 7.23795,0.0876 -0.007,-0.0816 -1.33018,-4.19833 -2.94122,-9.14833 -2.38386,-7.32451 -3.2659,-8.94031 -4.73795,-8.67935 -0.99483,0.17635 -3.04628,0.56493 -4.55878,0.86349 -2.68676,0.53037 -3.23945,-0.11973 -2.84484,-3.34621 0.16307,-1.33354 -8.15652,-3.33828 -13.8523,-3.33828 -2.25543,0 -5.65036,1.02434 -8.20078,2.47439 -2.39364,1.36091 -6.27709,2.76388 -8.62989,3.11771 -4.18557,0.62946 -6.22218,2.50351 -6.22218,5.72553 0,0.79701 0.94528,1.6963 2.10062,1.99843 2.97483,0.77794 1.37467,2.68394 -2.25326,2.68394 -2.20477,0 -3.17922,-0.55302 -3.56345,-2.02234 -0.44461,-1.70016 -1.06692,-1.92139 -3.90638,-1.38871 -3.00901,0.5645 -3.37753,0.39249 -3.37753,-1.57645 0,-2.43152 4.66891,-7.27281 9.34673,-9.6918 2.81316,-1.45474 2.87878,-1.61755 1.07468,-2.66645 -1.17322,-0.6821 -9.6616,-1.26317 -21.79889,-1.49222 l -19.87748,-0.37512 -2.12252,2.64361 c -1.16739,1.45398 -4.37252,3.74138 -7.12252,5.08312 l -5,2.43953 5.84856,-0.60412 c 3.2167,-0.33227 6.5917,-0.65923 7.5,-0.72659 0.90829,-0.0674 1.65144,0.54577 1.65144,1.36249 0,2.21422 -11.78104,5.21077 -18,4.57838 -2.75,-0.27964 -6.4625,-0.5067 -8.25,-0.50456 -4.43259,0.005 -4.52796,-3.44686 -0.16176,-5.85528 1.69854,-0.93692 5.41104,-3.18838 8.25,-5.00325 L 560.5,463.87315 532,464.46572 c -97.10205,2.01893 -129.70579,2.48863 -173.5,2.4995 -41.93076,0.0104 -95.55842,1.49246 -126.5,3.49597 -41.96399,2.71723 -83.44771,2.48296 -89.02655,-0.50274 -1.58262,-0.84699 -2.46308,-0.82432 -3.56699,0.0918 -1.77235,1.47092 -6.92928,-0.42268 -5.86052,-2.15196 1.4012,-2.26718 4.94743,-2.68452 8.95406,-1.05374 7.30395,2.97284 75.31633,1.78299 137,-2.39677 4.4,-0.29815 47.825,-0.95438 96.5,-1.45829 48.675,-0.50391 110.775,-1.44587 138,-2.09325 76.40616,-1.81683 128.05902,-0.0472 137.24294,4.70201 2.30555,1.19224 3.2031,1.24908 4.3744,0.27698 0.81052,-0.67267 1.22674,-1.86655 0.92492,-2.65307 -0.98733,-2.57295 0.51205,-3.27282 3.59554,-1.67828 1.90773,0.98653 2.82137,2.09277 2.47464,2.99633 -0.82785,2.15733 1.19108,1.71989 2.61963,-0.56759 1.28041,-2.05026 3.76793,-2.74725 3.76793,-1.05576 0,0.51933 -1.04995,2.16487 -2.33322,3.65676 l -2.33322,2.71253 3.03583,10.34324 c 2.71258,9.24192 3.28045,10.34323 5.33322,10.34323 2.72371,0 2.92432,0.82109 0.61345,2.51084 -1.56855,1.14696 -1.53407,1.73698 0.50316,8.61025 2.48922,8.39814 2.67603,10.21066 0.99462,9.65019 -0.65238,-0.21746 -2.37508,-3.96746 -3.82821,-8.33333 -2.47138,-7.42514 -2.83842,-7.95756 -5.68154,-8.24144 -2.59407,-0.25902 -3.82818,0.55298 -8.42178,5.54118 -2.98005,3.23605 -7.27919,6.67514 -9.63231,7.70536 -2.3375,1.02339 -4.25,2.285 -4.25,2.80359 0,0.51859 0.95459,4.08566 2.1213,7.92682 1.36092,4.48051 1.77587,7.32937 1.15762,7.94762 -1.42151,1.42151 -2.69445,-0.64814 -5.30242,-8.62108 -1.25935,-3.85 -3.16217,-7.61808 -4.22848,-8.37351 -1.41362,-1.00146 -1.81758,-2.1992 -1.49136,-4.42188 0.24608,-1.67661 -0.20371,-4.70597 -0.99952,-6.73191 l -1.44693,-3.68352 -9.6551,-0.63942 c -5.31031,-0.35164 -13.36761,-0.6417 -17.90511,-0.64455 l -8.25,-0.005 0,3.1844 c 0,2.55332 2.68715,14.44305 3.525,15.59689 0.11234,0.15472 5.00481,-3.33278 10.87216,-7.75 C 621.55298,496.35818 626,494.32778 626,497.33666 c 0,0.7502 -1.84727,2.64416 -4.10505,4.2088 -4.33134,3.00162 -15.20508,14.4504 -14.44577,15.20971 0.72864,0.72864 6.82391,-3.40265 10.05082,-6.81232 3.77436,-3.98811 10.8964,-8.97019 12.82319,-8.97019 0.80456,0 1.71799,0.66493 2.02985,1.47762 0.37125,0.96747 -1.40304,3.08242 -5.13917,6.12584 -3.1384,2.55653 -6.27041,4.86474 -6.96002,5.12937 -0.68962,0.26463 -1.25385,1.11765 -1.25385,1.8956 0,0.77795 -1.2375,1.90479 -2.75,2.50409 -11.69165,4.63265 -12.23547,5.01966 -11.98646,8.53007 0.21563,3.03973 0.52069,3.33358 3.46276,3.33541 8.90253,0.006 70.8469,-4.74111 92.7737,-7.10901 12.50687,-1.35064 17.87208,-0.9767 18.29851,1.27533 0.25797,1.36242 -0.82891,1.77181 -5.99169,2.2569 -3.46875,0.32591 -15.71906,1.50899 -27.22291,2.62907 -24.76497,2.41124 -75.06834,5.91039 -85.29873,5.93345 -6.44084,0.0145 -7.34724,0.25763 -8.4493,2.26626 -0.67897,1.2375 -1.11929,3.21146 -0.97848,4.38659 0.18141,1.514 -1.14463,3.26235 -4.5507,6 -2.64368,2.12487 -5.0317,4.08841 -5.3067,4.36341 -0.275,0.275 -3.98369,2.3 -8.24153,4.5 -4.69242,2.42455 -7.74486,4.62362 -7.75,5.58333 -0.012,2.24822 -1.11964,3.0693 -2.54482,1.8865 -0.82425,-0.68406 -2.09248,-0.68125 -3.90711,0.009 -3.35576,1.27586 -4.27798,1.28123 -5.05165,0.0294 z m -54.97843,-18.81479 c -0.30789,-0.30789 -1.11479,-6.4e-4 -1.79313,0.68278 -0.98026,0.98762 -0.8654,1.10248 0.5598,0.5598 0.98622,-0.37553 1.54122,-0.93469 1.23333,-1.24258 z m -296.79655,-8.27571 c 10.32355,-0.6195 19.41742,-1.4822 20.20859,-1.91713 1.94766,-1.07067 14.1343,-28.40485 12.86963,-28.8661 -1.24618,-0.45451 -47.04197,1.8923 -47.95654,2.45753 -0.36541,0.22584 -1.35837,2.44735 -2.20657,4.93669 -0.8482,2.48934 -1.11215,4.26029 -0.58654,3.93545 0.5256,-0.32484 1.23779,0.14464 1.58264,1.04331 0.4125,1.07495 -0.59909,2.89268 -2.95698,5.31338 -1.97119,2.0237 -4.75427,6.33123 -6.18463,9.57231 l -2.60064,5.89285 4.53047,-0.62097 c 2.49176,-0.34153 12.97702,-1.12783 23.30057,-1.74732 z m -9.25709,-4.9614 c -1.86006,-3.00963 13.75403,-16.72671 21.60197,-18.97747 3.66496,-1.0511 5.89663,1.12829 3.79765,3.70868 -1.22105,1.50111 -1.15182,1.59917 0.62756,0.88891 6.42651,-2.56519 6.8035,0.10511 0.82378,5.83505 -6.53408,6.26115 -14.65285,10.48891 -17.1489,8.9301 -1.14537,-0.7153 -2.39288,-0.8165 -3.26436,-0.26483 -1.92936,1.22136 -5.65146,1.15172 -6.4377,-0.12044 z M 205,523.38939 c 2.19445,-2.42874 1.98056,-2.3584 -1.75,0.57554 -2.3375,1.83835 -4.25,3.50798 -4.25,3.71028 0,0.89423 3.7215,-1.76405 6,-4.28582 z m 9.07007,-0.72538 c 2.15034,-2.90849 2.01478,-2.86182 -2.39537,0.82461 -2.57108,2.14916 -4.6747,4.02762 -4.6747,4.17436 0,1.17077 5.25636,-2.5458 7.07007,-4.99897 z m 31.7887,11.6869 c 1.70982,-0.34197 2.84699,-1.04532 2.52704,-1.56302 -0.31995,-0.51769 0.18143,-1.78454 1.11419,-2.81523 0.93276,-1.03069 1.40845,-2.33911 1.05709,-2.90762 -1.14895,-1.85905 2.38532,-7.00015 7.71601,-11.22403 10.40286,-8.24294 15.56379,-10.55932 17.29288,-7.76159 0.67212,1.08751 2.38241,-0.57899 2.41871,-2.35676 0.018,-0.88191 -22.67578,-0.79846 -31.78582,0.11688 l -6.30113,0.63312 -6.8864,14.25 -6.8864,14.25 8.31253,0 c 4.57189,0 9.71148,-0.27979 11.4213,-0.62175 z m 196.09489,-2.90385 c 2.99952,-1.91092 6.08516,-3.4744 6.85699,-3.4744 0.77183,0 1.17765,-0.58812 0.90181,-1.30693 -0.27583,-0.71881 -1.07176,-6.3012 -1.76874,-12.40531 l -1.26722,-11.09839 -4.77088,3.28178 c -2.62398,1.80498 -7.28981,4.32583 -10.36853,5.60188 -3.97508,1.64758 -5.76524,2.98779 -6.17578,4.62354 -0.31797,1.26688 -1.20434,2.30343 -1.96972,2.30343 -1.27476,0 -1.49301,-0.51771 -1.79159,-4.25 -0.055,-0.6875 -0.6625,-1.60986 -1.35,-2.04969 -2.13779,-1.36766 -1.46911,-7.33421 1.16493,-10.39455 3.22998,-3.75273 4.19732,-2.44085 1.67304,2.26893 -1.5154,2.8274 -1.7515,4.12581 -0.93016,5.11545 0.88145,1.06209 1.96691,0.52785 5.44911,-2.68193 2.39162,-2.20451 5.02257,-4.00821 5.84657,-4.00821 0.82399,0 2.97155,-0.89832 4.77234,-1.99626 1.80079,-1.09795 4.28667,-1.99795 5.52417,-2 1.41928,-0.002 2.25,-0.61063 2.25,-1.64752 0,-1.4362 -0.97866,-1.5666 -7.75,-1.03266 -4.2625,0.33611 -13.97792,0.91835 -21.58983,1.29388 -16.29229,0.80376 -14.62617,-0.84343 -17.58241,17.38256 -1.11512,6.875 -2.31737,13.94907 -2.67166,15.72015 l -0.64416,3.22014 13.36903,0.31148 c 7.35297,0.17132 16.51903,0.39824 20.36903,0.50426 6.43916,0.17733 7.43695,-0.0856 12.45366,-3.28163 z M 450,532.97266 c 0,-1.1 -0.15526,-2 -0.34501,-2 -0.18976,0 -1.1595,0.9 -2.15499,2 -1.75677,1.94121 -1.74663,2 0.34501,2 1.48832,0 2.15499,-0.61872 2.15499,-2 z m -56.0905,-7.25 c 0.69054,-4.5375 1.50729,-9.6 1.81499,-11.25 l 0.55946,-3 -2.14198,2.65773 c -1.17808,1.46175 -2.14197,3.14925 -2.14197,3.75 0,0.60075 -0.44044,1.09227 -0.97876,1.09227 -0.53831,0 -4.06253,2.25 -7.83159,5 C 375.90273,529.28937 373,530.17734 373,527.08975 c 0,-2.71975 12.70319,-13.34607 15.06021,-12.59798 1.25761,0.39915 2.35652,-0.22548 3.51961,-2.00059 3.55067,-5.419 -1.54882,-4.08668 -11.82142,3.08853 -5.99458,4.18711 -8.7584,5.31969 -8.7584,3.58912 0,-1.51369 6.4982,-7.06586 12.5,-10.68022 4.70069,-2.83081 6.8662,-3.55167 10,-3.32885 3.84682,0.27353 4.012,0.16051 4.31336,-2.95134 0.37819,-3.90519 2.22129,-3.78846 -27.31336,-1.72984 -11.55,0.80505 -21.3062,1.47056 -21.68045,1.47891 -0.37425,0.008 -0.82425,1.02767 -1,2.26517 -0.42898,3.02049 -3.34622,2.97011 -3.23415,-0.0559 0.0852,-2.29998 0.0597,-2.30429 -10,-1.69014 -5.54697,0.33865 -19.59555,0.97988 -31.21908,1.42495 -11.62352,0.44508 -21.52352,1.05145 -22,1.34749 -0.47647,0.29604 -1.75288,2.82995 -2.83646,5.63091 -1.08358,2.80096 -2.60123,5.09265 -3.37257,5.09265 -0.77133,0 -4.35629,2.76319 -7.96656,6.14043 -3.61028,3.37724 -8.59323,7.42724 -11.07322,9 l -4.50907,2.85961 70.52276,0 70.52276,0 1.25554,-8.25 z m -86.73282,5.94824 c 0.51273,-2.06435 21.68341,-21.69824 23.39661,-21.69824 1.80698,0 0.95091,1.8494 -1.76208,3.8067 -0.99617,0.71869 -1.81121,2.16553 -1.81121,3.21521 0,1.04967 -1.28401,3.38666 -2.85335,5.19329 -1.56934,1.80664 -3.40385,4.3322 -4.07669,5.61236 -0.73248,1.39363 -1.8012,2.10582 -2.66348,1.77493 -0.79207,-0.30395 -2.89506,0.33447 -4.6733,1.4187 -3.7281,2.27309 -6.02235,2.55265 -5.5565,0.67705 z M 470,531.59849 c 0,-6.47334 20.16688,-19.57471 30.1933,-19.61501 1.64082,-0.007 3.30161,-0.87932 4.25,-2.23333 1.97666,-2.82209 1.98965,-4.77749 0.0317,-4.77749 -3.1404,0 -13.08369,4.12098 -18.29994,7.58437 -3.86695,2.56751 -5.71008,3.28063 -6.48254,2.50817 -1.67553,-1.67553 3.78326,-6.70915 11.27614,-10.39789 5.07295,-2.4974 7.77408,-3.19398 12.38656,-3.19427 9.11766,-5.9e-4 10.05967,3.87265 3.14502,12.93134 -1.92514,2.52207 -3.50026,5.21669 -3.50026,5.98804 0,2.13009 -5.70376,6.49521 -13.5,10.33163 l -7,3.44459 31,-0.58501 c 32.11336,-0.60602 76.91562,-2.3057 84.13708,-3.19193 l 4.13708,-0.50772 -1.90617,-5.01661 C 596.89453,517.04185 593,501.16193 593,496.86318 l 0,-3.89052 -19.96862,0 c -17.80441,0 -19.90277,0.17157 -19.36115,1.58301 0.40853,1.06461 -1.36586,3.60253 -5.41842,7.75 C 542.87713,507.80622 540,511.68581 540,513.4326 c 0,1.65155 11.91762,-6.08426 21.06436,-13.67303 4.50928,-3.74122 7.2679,-4.67635 8.39852,-2.84697 0.3195,0.51696 -2.55292,3.44036 -6.38315,6.49644 C 556.42224,508.72095 547,519.09457 547,521.11237 c 0,2.58253 14.99383,-10.26211 22.8107,-19.54105 2.40303,-2.85249 3.58425,-3.60371 4.3937,-2.79426 2.44297,2.44297 -12.86165,18.39419 -23.7977,24.80314 -6.92456,4.05807 -9.85647,2.07226 -6.97854,-4.72664 0.56662,-1.33859 0.0259,-1.59846 -3.1214,-1.5 -3.19339,0.0999 -3.85671,-0.23173 -4.1168,-2.05829 -0.26821,-1.8837 -0.77163,-2.10248 -3.73227,-1.62203 -2.5194,0.40884 -3.57724,0.15145 -4.00975,-0.97566 -0.84519,-2.20251 2.65929,-8.51564 8.06416,-14.52716 l 4.67324,-5.19776 -8.63798,0 -8.63799,0 0.51848,3.25 c 3.11195,19.50673 4.80261,32.85287 4.23381,33.42168 -0.38225,0.38224 -1.12701,0.26297 -1.65503,-0.26505 -1.09126,-1.09126 -4.24945,-15.83193 -6.05255,-28.24996 l -1.21146,-8.34333 -17.12131,0.67382 c -33.92611,1.33517 -51.78893,2.34713 -52.41097,2.96916 -0.60582,0.60583 2.34092,30.6162 3.46551,35.29368 0.50431,2.09756 1.07564,2.25 8.43256,2.25 7.63949,0 7.89159,-0.0758 7.89159,-2.37417 z m 9,-2.62583 c 0,-0.55 -0.19844,-1 -0.44098,-1 -0.24254,0 -0.7191,0.45 -1.05902,1 -0.33992,0.55 -0.14148,1 0.44098,1 0.58246,0 1.05902,-0.45 1.05902,-1 z m -305.88156,-2.58433 c 1.90839,-0.97005 3.33205,-3.25617 5.25,-8.43053 1.44736,-3.90476 2.63156,-7.58812 2.63156,-8.18524 0,-0.73768 -2.60894,-0.90686 -8.13923,-0.52781 l -8.13923,0.55787 -6.93149,6.83502 c -11.12134,10.96655 -11.99903,14.11324 -1.20915,4.33502 6.5385,-5.92544 8.68583,-6.99547 9.94617,-4.9562 0.83372,1.34899 -0.88962,3.38741 -6.86687,8.12232 -2.66189,2.10864 -4.51666,3.83388 -4.12172,3.83388 1.68666,0 11.20198,-6.11499 13.89861,-8.9319 2.97706,-3.10985 6.56332,-4.10341 6.56242,-1.8181 -2.7e-4,0.6875 -2.25027,3.18747 -5,5.55548 -2.74973,2.36802 -4.99951,4.76084 -4.99951,5.31739 0,1.11438 2.96767,0.40265 7.11844,-1.7072 z m -24.63851,-5.22398 c 0.38015,-0.99065 -0.61822,-0.47532 -2.41603,1.24709 -1.68514,1.61447 -3.0639,3.08659 -3.0639,3.27136 0,0.98006 4.92978,-3.08476 5.47993,-4.51845 z m 344.04653,-2.99856 c -0.30789,-0.30789 -1.11479,-6.4e-4 -1.79313,0.68278 -0.98026,0.98762 -0.8654,1.10248 0.5598,0.5598 0.98622,-0.37553 1.54122,-0.93469 1.23333,-1.24258 z m 46.86219,-13.27391 c 0.91285,-1.54534 3.70937,-4.85935 6.21449,-7.36446 4.30523,-4.30523 4.41809,-4.55476 2.06014,-4.55476 -1.60073,0 -3.81701,1.39552 -6.18509,3.89456 -3.84503,4.05766 -9.4665,12.01584 -9.47391,13.41198 -0.008,1.57799 5.75261,-2.62497 7.38437,-5.38732 z M 649,500.86524 c 0,-0.40652 1.165,-2.12366 2.58889,-3.81585 1.4239,-1.6922 2.06931,-3.07673 1.43426,-3.07673 -3.50086,0 -12.02315,7.27263 -12.02315,10.26015 0,1.76037 0.2301,1.7385 4,-0.38031 2.2,-1.23647 4,-2.58073 4,-2.98726 z m -392.04564,0.10742 c 5.50444,0 5.72558,-0.10562 7.34898,-3.50993 0.92058,-1.93046 3.53623,-5.53046 5.81258,-8 2.27634,-2.46954 3.94071,-4.49007 3.69859,-4.49007 -0.24211,0 -2.66192,1.06502 -5.37736,2.36671 -2.71543,1.30169 -6.01409,2.70246 -7.33035,3.11283 -1.31625,0.41037 -4.44186,2.04536 -6.94578,3.6333 -4.85477,3.0788 -7.10759,3.54059 -8.83678,1.8114 -0.76769,-0.76769 -1.39773,-0.15219 -2.2,2.14922 -0.61833,1.77374 -1.12424,3.444 -1.12424,3.71169 0,0.26768 2.08781,0.20053 4.63957,-0.14923 2.55177,-0.34975 7.19342,-0.63592 10.31479,-0.63592 z m 22.60427,-0.76531 c 1.01743,-0.7061 8.46967,-20.72164 8.45064,-22.6971 -0.0204,-2.12129 -17.00949,16.37631 -20.40092,22.21241 -0.54656,0.94055 0.71168,1.24621 5.08263,1.23469 3.19496,-0.008 6.2854,-0.34592 6.86765,-0.75 z M 215.75,495.07399 c 2.3375,-1.79816 4.25,-3.93202 4.25,-4.7419 0,-2.13577 -5.52286,1.21979 -8.61611,5.23496 -2.57421,3.34143 -3.14909,5.22415 -1.13389,3.71342 0.6875,-0.5154 3.1625,-2.40831 5.5,-4.20648 z m 424.75,0.89867 c 1.76522,-1.95054 1.74663,-2 -0.75139,-2 -2.06904,0 -2.46084,0.38443 -2.03836,2 0.28766,1.1 0.62578,2 0.75139,2 0.12561,0 1.04287,-0.9 2.03836,-2 z m -322.35716,-3.25 c 1.617,-2.30592 1.76616,-2.83816 0.51349,-1.83224 -1.78215,1.4311 -4.12389,5.08224 -3.25961,5.08224 0.2569,0 1.49265,-1.4625 2.74612,-3.25 z m 161.21223,-3.33276 c 0.83526,-0.32052 1.28004,-1.20454 0.98842,-1.9645 -0.29163,-0.75997 0.47332,-2.7911 1.69987,-4.51363 l 2.23009,-3.13188 -3.38672,1.71055 C 477.21959,483.34261 472,487.84716 472,489.15975 c 0,0.93572 5.10047,1.09532 7.35507,0.23015 z m 13.46202,-8.80404 c 1.6354,-1.83354 1.59814,-1.84349 -1.31945,-0.35238 -1.6513,0.84393 -3.9013,2.55552 -5,3.80352 l -1.99764,2.2691 3.31709,-1.91672 c 1.8244,-1.0542 4.0744,-2.76578 5,-3.80352 z m -211.36284,81.31277 c -1.20829,-1.95505 3.89165,-5.99614 13.87403,-10.9935 C 305.2068,545.95977 311,544.66012 311,547.38933 c 0,0.77916 0.5625,1.65025 1.25,1.93574 1.60933,0.6683 -0.80818,2.70388 -10.56701,8.89759 -7.76511,4.92833 -10.30526,5.81399 -9.32136,3.25 0.70973,-1.84952 -0.12623,-1.84952 -3.36163,0 -2.98892,1.70862 -6.62613,1.91395 -7.54575,0.42597 z m 17.57427,-7.94037 C 302.31283,552.30035 305,550.71887 305,550.44387 c 0,-0.44788 -11.89791,5.21458 -12.91667,6.14731 -1.23725,1.13277 1.66487,0.0326 6.94519,-2.63292 z M 130,559.59398 c 0,-0.75827 1.29646,-1.91569 2.88102,-2.57204 1.58455,-0.65634 5.51713,-2.92675 8.73906,-5.04536 4.24798,-2.7933 6.2011,-3.56729 7.10624,-2.81609 0.68652,0.56976 1.85725,0.80221 2.60163,0.51657 2.40027,-0.92107 3.83526,0.79713 3.10286,3.71524 -0.48449,1.93038 -1.99133,3.36452 -5.14484,4.89661 -4.27578,2.07733 -4.5142,2.09211 -5.78186,0.35848 -1.26934,-1.73593 -1.48409,-1.72559 -5.37331,0.25854 -4.67286,2.38392 -8.1308,2.67654 -8.1308,0.68805 z m 475.10597,-3.99363 c -1.92828,-2.32344 2.11337,-5.55195 11.11362,-8.87769 8.26653,-3.05462 10.40075,-3.34402 11.06195,-1.5 0.73119,2.03922 -1.01422,4.42417 -5.01889,6.85784 -2.06946,1.25762 -3.98765,2.60216 -4.26265,2.98787 -0.275,0.3857 -2.99859,1.0127 -6.05242,1.39332 -4.40724,0.54931 -5.81831,0.37166 -6.84161,-0.86134 z m 42.5607,0.70564 c -1.55681,-1.5568 -0.44464,-4.39244 2.58333,-6.58657 3.62073,-2.62367 12.53701,-6.37439 17.46914,-7.34858 7.08543,-1.3995 8.02592,2.37575 1.15662,4.64282 -2.21094,0.72968 -4.64713,2.2222 -5.41377,3.31673 -2.6682,3.80939 -13.76388,8.00705 -15.79532,5.9756 z m 113.85595,-3.92118 c -1.88401,-3.4984 -14.7002,-15.41215 -16.57958,-15.41215 -0.51867,0 -0.94304,-0.45 -0.94304,-1 0,-2.08721 2.92298,-0.83252 9.29095,3.98816 7.44933,5.63929 11.70905,10.68015 11.70905,13.85623 0,3.16535 -1.28685,2.63533 -3.47738,-1.43224 z m -50.06156,-5.47516 c -0.36134,-0.58466 0.0621,-1.85759 0.94098,-2.82874 2.03455,-2.24816 2.00902,-2.83555 -0.15204,-3.49824 -0.9625,-0.29514 0.42429,-0.37927 3.08176,-0.18694 4.22278,0.30561 5.2039,-0.0141 7.78447,-2.53669 3.37208,-3.29631 5.88377,-3.74086 5.88377,-1.04137 0,2.31058 -2.00897,4.0889 -9.08086,8.03829 -6.01387,3.35852 -7.43795,3.7043 -8.45808,2.05369 z m 20.77701,-17.21512 C 724.0195,523.04513 715.43028,510.37492 705,489.51483 c -8.79979,-17.59918 -9.74191,-19.06775 -12.78205,-19.92472 -4.38807,-1.23692 -3.49614,-3.19864 1.27619,-2.80685 2.36815,0.19441 4.4885,1.12958 5.66834,2.5 1.0367,1.20417 5.66619,9.72396 10.28775,18.93288 9.07909,18.09101 16.9273,30.22019 24.91055,38.49855 6.65402,6.9 5.21659,8.91786 -2.12271,2.97984 z M 693.75,517.81038 c -3.14543,-1.14881 -3.47294,-3.34809 -0.97776,-6.56577 2.29641,-2.96135 6.69036,-2.11927 5.82203,1.11576 -0.31183,1.16176 -0.57311,3.12479 -0.58062,4.36229 -0.015,2.47991 -0.27222,2.54552 -4.26365,1.08772 z M 361.10519,490.59941 c -0.62683,-0.75529 -0.89835,-2.00218 -0.60338,-2.77087 0.70755,-1.84386 11.76777,-9.25448 17.65757,-11.83102 C 383.68807,473.57896 392,472.21777 392,473.73094 c 0,0.56658 -2.24212,3.44024 -4.98249,6.38593 -2.74037,2.94568 -4.99037,6.09515 -5,6.9988 -0.0214,2.00523 -2.42391,3.04377 -5.34697,2.31132 -1.1938,-0.29914 -4.13962,0.15126 -6.54627,1.00089 -5.39539,1.90476 -7.54667,1.94567 -9.01908,0.17153 z M 379,481.4213 c 0,-0.275 -1.35,0.19811 -3,1.05136 -1.65,0.85325 -3,1.77636 -3,2.05136 0,0.275 1.35,-0.19811 3,-1.05136 1.65,-0.85325 3,-1.77636 3,-2.05136 z m 47.28975,5.55136 c -0.3357,-1.2837 -1.36402,-2 -2.8712,-2 -2.99442,0 -4.81407,-3.0974 -3.1298,-5.32753 1.65233,-2.18785 16.47027,-9.67247 19.14939,-9.67247 1.18902,0 2.65355,0.49169 3.2545,1.09264 0.79019,0.79019 1.7057,0.76454 3.30736,-0.0926 1.2181,-0.6519 2.56939,-0.80609 3.00288,-0.34264 1.66026,1.77502 -1.06459,5.44017 -5.43833,7.31497 -2.46444,1.05638 -5.06214,2.86345 -5.77267,4.01572 -1.16988,1.89714 -8.69297,7.01191 -10.31357,7.01191 -0.36605,0 -0.9009,-0.9 -1.18856,-2 z"
     id="path5187"
     inkscape:connector-curvature="0" />
</svg>
