<?xml version="1.0" encoding="UTF-8" standalone="no"?>
<svg
   xmlns:dc="http://purl.org/dc/elements/1.1/"
   xmlns:cc="http://creativecommons.org/ns#"
   xmlns:rdf="http://www.w3.org/1999/02/22-rdf-syntax-ns#"
   xmlns:svg="http://www.w3.org/2000/svg"
   xmlns="http://www.w3.org/2000/svg"
   viewBox="0 0 472.7345 467.85101"
   height="467.85101"
   width="472.7345"
   version="1.1"
   id="svg5259">
  <metadata
     id="metadata5265">
    <rdf:RDF>
      <cc:Work
         rdf:about="">
        <dc:format>image/svg+xml</dc:format>
        <dc:type
           rdf:resource="http://purl.org/dc/dcmitype/StillImage" />
        <dc:title></dc:title>
      </cc:Work>
    </rdf:RDF>
  </metadata>
  <defs
     id="defs5263" />
  <path
     id="path5269"
     d="m 141.01931,464.71492 c 0,-3.37729 -0.007,-3.3823 -4.75,-3.31955 -4.18723,0.0554 -4.78786,-0.20374 -5.06955,-2.18716 -0.27309,-1.92286 0.13631,-2.25 2.81574,-2.25 4.03469,0 7.00668,-1.60865 6.99315,-3.78518 -0.006,-0.94315 -1.69336,-4.27556 -3.75,-7.40536 -4.57724,-6.96566 -20.92258,-28.49566 -22.26209,-29.32352 -1.29579,-0.80084 0.52564,3.94231 3.46151,9.01406 3.13524,5.41617 11.56124,22.08306 11.56124,22.8685 0,1.89658 -1.83209,0.0382 -4.30769,-4.36952 -1.54422,-2.74944 -2.98175,-4.99898 -3.19451,-4.99898 -0.9711,0 5.13129,11.93771 6.11734,11.96694 0.61333,0.0182 2.25931,-0.86694 3.65773,-1.96694 3.26329,-2.5669 3.93997,-2.51921 3.54668,0.25 -0.19655,1.38392 -1.63295,2.90563 -3.73166,3.95328 -1.87666,0.9368 -3.72088,2.20288 -4.09827,2.81351 -0.73372,1.18719 -9.66188,-3.52196 -13.64202,-7.19546 l -2.1524,-1.98657 -0.67705,3.08262 c -0.37238,1.69544 -1.05832,3.08262 -1.5243,3.08262 -0.46598,0 -1.98257,-2.47991 -3.37021,-5.5109 -1.38764,-3.031 -4.29879,-7.6435 -6.46924,-10.25 -5.176217,-6.21617 -7.196257,-10.41761 -24.635497,-51.2391 -15.38549,-36.01408 -16.44963,-38.30114 -31.353653,-67.38539 -9.205132,-17.96323 -10.896201,-20.81857 -7.140115,-12.05598 1.113822,2.59844 1.788822,4.96075 1.5,5.24957 -0.69626,0.69626 -0.604122,0.86772 -4.464511,-8.3082 -1.851117,-4.4 -6.620596,-14.3 -10.598842,-22 -3.978247,-7.7 -7.994532,-16.475 -8.925079,-19.5 -0.930546,-3.025 -1.959606,-6.175 -2.286799,-7 -0.327192,-0.825 -0.718275,-2.55106 -0.869072,-3.8357 -0.150797,-1.28463 -1.5356745,-3.93567 -3.0775035,-5.89121 -8.78162296,-11.13792 -11.517365,-17.47819 -3.785472,-8.77309 2.442556,2.75 4.450267,4.4375 4.461579,3.75 0.01131,-0.6875 0.707123,-1.25 1.5462475,-1.25 1.367574,0 1.367574,-0.30574 0,-2.95034 -0.8391245,-1.62269 -1.5256805,-3.80294 -1.5256805,-4.84501 0,-1.04207 -0.9213,-2.72844 -2.047333,-3.74749 -2.70925,-2.45183 -2.280434,-6.83923 0.710094,-7.26528 3.1416325,-0.44757 21.2621065,-18.01584 35.5084735,-34.42637 6.780821,-7.8109 17.223926,-19.841 23.206906,-26.73357 l 10.87814,-12.53194 -11.93432,12 c -6.56387,6.6 -13.566575,14.01746 -15.561564,16.48324 -1.994989,2.46578 -3.877645,4.23284 -4.18368,3.92681 -0.817075,-0.81708 15.121424,-19.52849 22.003624,-25.83172 3.25581,-2.98191 9.29466,-8.0892 13.41966,-11.34951 10.90636,-8.62017 37.806057,-35.42834 40.140187,-40.00361 2.204,-4.320212 3.48661,-4.358712 2.4108,-0.0724 -0.41936,1.67089 -5.83143,7.81397 -13.82341,15.69056 -7.22381,7.11952 -12.030217,12.36188 -10.680887,11.64969 1.349317,-0.71219 6.587707,-5.54591 11.640867,-10.7416 5.1001,-5.24395 9.66749,-9.1501 10.26631,-8.78001 0.59332,0.36669 0.76805,1.19811 0.3883,1.84761 -3.28638,5.62074 -9.5687,13.96806 -14.67974,19.50499 -9.501987,10.29374 -10.811067,12.37351 -3.10054,4.92591 3.84357,-3.7125 7.31451,-6.75 7.71321,-6.75 2.23803,0 -1.06189,3.89958 -18.025097,21.3006 -10.3125,10.57866 -22.16716,23.05115 -26.3437,27.71666 -12.35674,13.80342 -31.214203,38.07811 -30.275451,38.97275 1.324744,1.26249 61.660021,-29.22136 80.507358,-40.67561 19.73943,-11.99642 41.47796,-23.86004 60.34418,-32.93235 10.58691,-5.09099 15.63159,-6.91961 22.23121,-8.0585 5.86997,-1.01298 8.85929,-1.15066 9.5692,-0.44075 1.61507,1.61507 -0.96598,3.975 -5.13328,4.69352 -2.00724,0.34609 -6.12452,1.30416 -9.14952,2.12905 -7.71794,2.1046 -49.9182,23.78414 -72,36.98856 -21.80803,13.04071 -37.173207,21.37746 -52.416037,28.43961 -6.09618,2.82441 -17.15896,8.14675 -24.58396,11.82742 -7.425,3.68067 -15.075,7.2956 -17,8.03318 -4.820628,1.84707 -6.21205,3.03898 -5.123121,4.38854 2.099985,2.60261 10.38265,18.47825 14.061961,26.95299 2.188282,5.04038 6.682574,16.45371 9.987316,25.36294 8.940434,24.10248 20.644034,52.50981 26.236484,63.68201 8.09979,16.1812 23.75783,39.19031 45.335477,66.61938 12.54145,15.94243 20.77487,27.03057 22.33886,30.08426 0.72797,1.42134 2.32355,3.83834 3.54573,5.37111 l 2.22217,2.78686 4.36674,-2.22775 c 2.4017,-1.22526 11.18625,-6.61548 19.52121,-11.97827 21.46987,-13.81389 29.28158,-18.30925 54.66955,-31.46032 12.33961,-6.39197 27.3636,-14.9587 33.38664,-19.03718 16.5836,-11.22952 23.6726,-15.43303 27.22523,-16.14356 2.78877,-0.55775 3.22575,-0.36953 3.22575,1.38946 0,1.48013 -1.97583,3.15769 -7.25,6.15555 -3.9875,2.26652 -12.1101,7.52939 -18.05023,11.69527 -6.12053,4.2924 -22.15251,13.50334 -37,21.25779 -14.40987,7.5259 -36.41978,20.07501 -48.91091,27.88692 -12.49113,7.81191 -25.16872,15.40878 -28.17243,16.88194 -5.35309,2.6254 -5.45787,2.75929 -5.28886,6.75819 0.14928,3.53202 -0.12963,4.12263 -2.07757,4.39928 -1.95284,0.27735 -2.25,-0.12716 -2.25,-3.06284 z M 120.7895,447.70821 c -0.8029,-1.2375 -5.37767,-9.13232 -10.16615,-17.54405 -8.46374,-14.8679 -18.890667,-31.68085 -20.903497,-33.70595 -0.66263,-0.66667 -0.82333,-0.66667 -0.48209,0 1.05593,2.06296 16.357527,28.40237 22.449857,38.64408 3.48243,5.85425 6.33169,11.05175 6.33169,11.55 0,1.17472 2.13706,3.30592 3.31501,3.30592 0.50326,0 0.25809,-1.0125 -0.54482,-2.25 z m -12.23314,-5.69005 c -0.31954,-0.51703 0.0207,-1.50213 0.75613,-2.18911 1.10484,-1.03207 0.63092,-2.42686 -2.72803,-8.02896 -2.23583,-3.72894 -4.58559,-6.59911 -5.22169,-6.37814 -0.63609,0.22097 -1.708707,-0.93132 -2.383597,-2.56065 -1.313,-3.16986 -12.95986,-21.69615 -12.95986,-20.61483 0,1.52691 11.23897,26.2438 13.22563,29.08598 4.125267,5.90175 11.793367,14.70159 9.311417,10.68571 z m 5.58704,-12.32662 c -0.98762,-0.98026 -1.10248,-0.8654 -0.5598,0.5598 0.37553,0.98622 0.93469,1.54122 1.24258,1.23333 0.30789,-0.30789 6.4e-4,-1.11479 -0.68278,-1.79313 z m -3.6908,-11.48009 c -2.84402,-6.43084 -8.45211,-15.56775 -9.13567,-14.88419 -0.70053,0.70052 10.15191,20.63095 11.23388,20.63095 0.2438,0 -0.70039,-2.58604 -2.09821,-5.74676 z m -10.08459,-12.80276 c -1.537427,-3.35819 -2.314647,-6.45002 -1.968287,-7.83002 0.43866,-1.74776 -1.31007,-4.94823 -7.48594,-13.70048 -11.41852,-16.18199 -19.77073,-30.36962 -29.55285,-50.20049 -9.570633,-19.40213 -9.744069,-19.50505 -2.05489,-1.21949 13.69903,32.57752 24.5615,55.5 26.30027,55.5 0.69513,0 4.75428,5.175 9.02034,11.5 4.26605,6.325 7.874707,11.5 8.019237,11.5 0.14452,0 -0.88052,-2.49728 -2.27788,-5.54952 z M 46.551614,316.70821 c -5.232878,-12.45334 -13.08071,-28.95118 -17.54533,-36.88407 -5.28972,-9.39896 -12.697647,-20.86593 -13.479873,-20.86593 -1.005365,0 2.887439,8.88809 9.734594,22.22611 4.064786,7.91807 7.883323,14.23222 8.485637,14.03145 0.602313,-0.20077 3.845633,5.28414 7.207377,12.1887 3.361743,6.90456 6.303731,12.55374 6.537751,12.55374 0.234019,0 -0.189051,-1.4625 -0.940156,-3.25 z m 5.085995,-4.41159 c -0.846021,-1.56113 -1.556238,-2.52208 -1.578258,-2.13546 -0.0677,1.18867 2.258764,5.83158 2.700661,5.38968 0.2287,-0.2287 -0.276381,-1.6931 -1.122403,-3.25422 z m -7.357613,-16.9362 C 36.566577,278.10728 27.313637,260.72709 21.229294,252.0633 c -4.395478,-6.25894 -5.050632,-6.82822 -5.579726,-4.84835 -0.394148,1.4749 0.158731,3.27082 1.614158,5.24326 8.06759,10.93347 17.370231,26.3444 24.255587,40.18225 4.4,8.84291 8.119006,15.97545 8.264458,15.85009 0.145453,-0.12536 -2.331246,-6.03392 -5.503775,-13.13013 z M 36.03722,265.30337 c -3.267974,-8.20382 -13.230635,-28.56705 -15.466351,-31.61253 -1.319645,-1.79761 -4.551556,-1.44716 -4.551556,0.49355 0,0.55671 1.575,3.60493 3.5,6.77382 1.925,3.16889 3.5,5.95929 3.5,6.20088 0,0.24159 2.3625,4.03545 5.25,8.43079 2.8875,4.39535 6.338809,10.32501 7.669575,13.17703 3.60933,7.73529 3.672534,5.50903 0.09833,-3.46354 z M 23.394151,215.45821 c 10.666297,-14.71251 29.767739,-35.917 54.049242,-60 13.86333,-13.75 27.409247,-27.475 30.102047,-30.5 l 4.89599,-5.5 -4.96106,4.62107 c -2.72858,2.54159 -8.360817,6.8836 -12.516087,9.64891 -8.20076,5.45757 -22.70077,20.45581 -43.27134,44.75818 -11.721576,13.84803 -38.686893,41.96454 -42.2580365,44.06209 -1.743889,1.02429 -1.676489,1.27282 1.1141125,4.10806 l 2.970294,3.01782 2.399984,-3.60807 c 1.319991,-1.98443 4.683675,-6.75806 7.474854,-10.60806 z m 9.360906,-1.38512 c 25.181996,-31.68297 31.687456,-39.36686 45.815596,-54.11488 l 15.80648,-16.5 -16.27327,16 c -16.81386,16.53152 -40.937267,43.23598 -51.211645,56.69096 -3.230098,4.23003 -5.872905,7.93289 -5.872905,8.22856 0,0.29568 1.099921,0.0364 2.444269,-0.57608 1.344347,-0.61253 5.525511,-4.99038 9.291475,-9.72856 z M 149.01931,396.47261 c 0,-0.26709 2.71388,-1.85557 6.03084,-3.52997 6.57137,-3.31722 18.54152,-11.56406 32.17355,-22.166 11.70754,-9.10522 39.84099,-28.10638 40.55606,-27.39131 0.31509,0.31508 0.38538,0.71929 0.15622,0.89825 -0.22917,0.17895 -6.91177,4.73567 -14.85023,10.12605 -7.93847,5.39037 -19.86347,13.92998 -26.5,18.97691 -21.77534,16.55961 -37.56644,26.26387 -37.56644,23.08607 z m -28.33333,-8.18107 c -1.2796,-1.27959 -0.64681,-2.08749 2.08333,-2.65985 1.5125,-0.31709 5.225,-2.64005 8.25,-5.16215 3.025,-2.52209 8.425,-5.97146 12,-7.66527 31.26903,-14.81499 37.06591,-18.6942 60.56406,-40.52885 8.28524,-7.69869 18.58379,-16.79462 22.88567,-20.21317 8.55284,-6.79663 21.55182,-13.95528 21.54789,-11.86661 -0.001,0.69441 -2.3638,2.50299 -5.25,4.01906 -8.34743,4.38478 -16.97549,11.36689 -36.24762,29.33276 -23.76717,22.15625 -30.23129,26.80331 -52.23623,37.55273 -10.04893,4.9089 -19.7317,10.19774 -21.51727,11.75298 -3.26641,2.84504 -8.88936,6.10504 -10.53017,6.10504 -0.48565,0 -1.183,-0.3 -1.54966,-0.66667 z m -10.02087,-27.09742 c -0.25973,-0.42025 -0.99112,-3.68275 -1.62532,-7.25 -1.17046,-6.58367 -4.52331,-20.52673 -5.62869,-23.4073 -0.38188,-0.99517 -0.0646,-1.57861 0.85833,-1.57861 1.11829,0 1.59417,-1.89777 2.01482,-8.03486 0.86102,-12.56207 4.80578,-16.4327 9.15606,-8.984 2.67662,4.58301 2.72321,16.15504 0.0886,21.99763 -2.30366,5.10861 -3.98792,5.25536 -3.1129,0.27123 1.59465,-9.0832 1.74359,-13.0295 0.64543,-17.10094 -3.97265,-14.72861 -4.47688,18.42768 -0.53451,35.14709 0.80457,3.41212 1.4695,6.99135 1.47763,7.95385 0.0146,1.73409 -2.43081,2.45607 -3.33942,0.98591 z m 185.71094,-5.74864 c -0.93314,-2.43174 1.49119,-4.63902 3.76098,-3.42427 1.52758,0.81754 1.6989,1.41112 0.85981,2.97899 -1.24517,2.32662 -3.80422,2.57322 -4.62079,0.44528 z M 98.663413,343.68446 c -2.53964,-6.75056 -5.34672,-14.73806 -6.23797,-17.75 -4.57819,-15.47185 -15.1088,-39.51008 -24.8505,-56.72625 -1.9451,-3.4375 -3.1023,-6.25 -2.57156,-6.25 0.53074,0 2.63342,2.90089 4.67263,6.44642 3.78934,6.58843 5.3433,7.42316 5.3433,2.87021 0,-4.59177 5.06642,-27.75543 6.57625,-30.06663 0.82073,-1.25635 2.48675,-2.25 3.77249,-2.25 3.05411,0 5.71797,3.06447 9.84342,11.32377 l 3.40842,6.82377 5.399917,-5.55583 c 2.96995,-3.05571 5.78218,-6.23891 6.2494,-7.07377 1.14855,-2.05234 3.49706,-1.92037 4.12962,0.23206 0.28286,0.9625 1.02476,5.575 1.64867,10.25 0.62391,4.675 1.59638,10.00393 2.16103,11.84206 0.69972,2.27779 0.70093,3.66779 0.004,4.36491 -1.82135,1.82135 -4.2828,-4.91143 -5.40396,-14.78142 l -1.06733,-9.39609 -5.81659,6.23527 c -3.19913,3.4294 -5.83652,6.74281 -5.86087,7.36315 -0.0243,0.62033 0.63072,2.74337 1.45572,4.71788 1.77472,4.2475 1.95964,7.97412 0.36938,7.44403 -0.62184,-0.20728 -2.309337,-2.70989 -3.749997,-5.56136 -1.87375,-3.70868 -3.04637,-5.01053 -4.11938,-4.57338 -4.58802,1.86918 -10.11005,2.6349 -11.19287,1.55208 -1.29227,-1.29227 -0.54606,-1.6722 5.19287,-2.64393 6.30026,-1.06677 6.53313,-1.62515 3.49816,-8.38795 -1.49811,-3.33823 -3.53459,-6.80323 -4.52551,-7.70001 -1.71103,-1.54845 -1.88222,-1.26177 -3.40204,5.69713 -0.8802,4.0302 -2.46847,12.21493 -3.52949,18.18831 -1.06103,5.97337 -2.15848,11.09001 -2.43879,11.37032 -0.2803,0.28031 0.76122,3.043 2.3145,6.13932 3.08777,6.15518 13.49009,32.82206 14.67874,37.62968 0.40795,1.65 2.91583,9.01185 5.573077,16.35967 5.35458,14.8065 5.16791,14.14033 3.96216,14.14033 -0.47806,0 -2.94707,-5.52319 -5.486707,-12.27375 z m 29.024517,2.02375 c -0.84268,-3.9875 -1.80886,-9.95 -2.14708,-13.25 -0.64962,-6.33845 -3.25924,-16.35108 -4.67837,-17.95 -1.19399,-1.34527 -1.04971,-6.55 0.18158,-6.55 0.56361,0 1.46254,1.0125 1.99761,2.25 0.53508,1.2375 1.3781,2.925 1.87339,3.75 1.63955,2.731 3.96117,9.44364 4.58263,13.25 0.33673,2.0625 0.95358,3.75 1.37077,3.75 0.41718,0 2.28652,-1.5765 4.15407,-3.50333 l 3.39556,-3.50332 -1.19939,-5.80687 c -1.55344,-7.52099 -1.5118,-9.18648 0.22965,-9.18648 0.8717,0 2.05263,2.14506 3.02794,5.5 0.87939,3.025 1.77094,5.5 1.98122,5.5 0.21028,0 3.41148,-3.7125 7.11378,-8.25 8.29023,-10.16042 9.34975,-11.07645 11.11598,-9.61061 0.90155,0.74822 1.33204,3.63232 1.33204,8.92404 0,4.30019 0.38744,8.05799 0.86097,8.35065 0.47354,0.29266 2.94459,-3.98954 5.49122,-9.516 3.49069,-7.57516 5.04541,-9.96812 6.31711,-9.72309 0.92778,0.17875 2.01177,1.53992 2.40888,3.02482 1.14851,4.29461 1.81975,30.74524 0.79628,31.37778 -1.89123,1.16884 -3.87446,-6.53252 -3.87446,-15.04547 0,-4.69267 -0.3375,-8.50687 -0.75,-8.476 -0.4125,0.0309 -2.325,3.27253 -4.25,7.20369 -4.04915,8.26903 -6.11641,10.05235 -8.68053,7.48823 -1.19021,-1.1902 -1.88726,-4.02936 -2.26877,-9.24087 l -0.5507,-7.52281 -7.22424,7.90721 -7.22425,7.90721 2.47425,7.08183 c 2.77839,7.95236 3.04344,10.13559 1.22424,10.08381 -1.19785,-0.0341 -6.75,-10.67432 -6.75,-12.93579 0,-0.60061 -2.05174,0.38475 -4.55942,2.18968 l -4.55942,3.28169 0.53263,9.25 c 0.42802,7.43337 0.26301,9.25 -0.8402,9.25 -0.89665,0 -1.90427,-2.51475 -2.90497,-7.25 z m 174.02278,2 c -9.52098,-15.81318 -32.94157,-61.46579 -45.53031,-88.75 -12.0747,-26.17013 -21.01443,-43.00696 -37.16739,-70 -9.95824,-16.64111 -17.9937,-31.7931 -17.9937,-33.92963 0,-2.79507 3.64259,-2.77182 4.53152,0.0289 0.82015,2.58409 9.71216,18.33919 21.95741,38.90474 13.81559,23.20291 21.46958,37.77784 34.92018,66.49596 10.69675,22.83843 16.91697,35.16538 39.14061,77.56706 2.77734,5.29905 4.87734,10.15175 4.66667,10.78378 -0.632,1.896 -3.07905,1.30068 -4.52499,-1.10084 z m -42.6475,-17.42132 c -1.50679,-1.91557 -1.79496,-2.97649 -1.01859,-3.75 0.77522,-0.77236 1.62897,-0.36875 3.00645,1.42132 2.06454,2.68293 2.54687,5 1.04082,5 -0.51008,0 -1.87299,-1.20209 -3.02868,-2.67132 z m -71.0439,-12.8608 c 0,-0.29266 0.675,-2.14762 1.5,-4.12212 2.43194,-5.82045 1.97711,-7.0654 -3.97151,-10.87068 -6.00551,-3.84169 -7.53544,-5.91 -7.51484,-10.15934 0.0223,-4.60445 1.0786,-7.21024 3.19498,-7.88196 2.89577,-0.91908 4.80048,1.32472 2.54137,2.99378 -0.98258,0.72595 -1.75,2.59335 -1.75,4.25837 0,3.22848 1.80146,5.20115 8.86834,9.71121 4.34258,2.77142 4.36555,2.81687 3.89582,7.70549 -0.47476,4.94093 -2.88452,8.89737 -5.41915,8.89737 -0.73975,0 -1.34501,-0.23945 -1.34501,-0.53212 z m 15.44072,-14.21788 c -2.19162,-5.18158 -6.71227,-22.31179 -6.06015,-22.96391 1.30955,-1.30954 3.33637,0.85575 4.54699,4.85765 0.72481,2.39594 1.92492,6.38126 2.66693,8.85626 3.34217,11.148 2.5011,17.89106 -1.15377,9.25 z m 14.4449,0.74888 c -5.04618,-2.66314 -7.24419,-7.67255 -7.67811,-17.49888 -0.2572,-5.82442 0.0351,-8.5201 1.075,-9.91248 1.84392,-2.46904 5.3599,-1.45783 4.07124,1.17091 -0.46956,0.95786 -0.83191,4.89157 -0.80521,8.74157 0.0562,8.10545 1.91983,12.48217 6.45592,15.16171 2.8639,1.69174 3.47884,3.39919 1.43304,3.97898 -0.51563,0.14613 -2.56397,-0.59268 -4.55188,-1.64181 z m 21.14982,-14.66555 c 0.0195,-1.00833 0.67854,-2.95833 1.46456,-4.33333 2.08823,-3.65297 1.88868,-4 -2.3,-4 -4.68319,0 -6.2,-1.41057 -6.2,-5.76574 0,-4.45338 1.59227,-7.23426 4.14217,-7.23426 1.60106,0 1.89611,0.39762 1.29853,1.75 -0.4253,0.9625 -0.81094,3.1 -0.85699,4.75 -0.0783,2.80744 0.16539,3.0098 3.79716,3.15273 4.40877,0.17351 5.88739,1.72871 5.08395,5.34727 -1.10442,4.97417 -6.50596,10.29501 -6.42938,6.33333 z m 132.7823,-24.12106 c -2.57524,-0.94175 -5.84843,-2.81326 -7.27376,-4.15891 -4.99098,-4.71198 -23.7175,-35.65404 -29.59839,-48.90581 -4.31561,-9.72462 -9.67947,-29.20475 -12.46979,-45.28703 -0.89112,-5.13605 -1.7346,-9.45265 -1.8744,-9.59245 -0.1398,-0.1398 -2.9198,0.59599 -6.17779,1.63509 -3.25799,1.03911 -10.27794,2.55478 -15.5999,3.36817 -5.32195,0.81339 -11.80032,2.50712 -14.39637,3.76384 -4.60345,2.2285 -4.75429,2.23819 -6.10406,0.39227 -2.15671,-2.94949 -4.32328,-11.29624 -4.32328,-16.65555 0,-2.67581 -0.91575,-13.05664 -2.03499,-23.0685 -2.36329,-21.14011 -2.80647,-49.186542 -1.02242,-64.703392 0.66398,-5.775 2.95138,-20.1194 5.08311,-31.87644 4.15103,-22.8939998 6.26662,-28.4058698 11.3971,-29.69353985 5.83662,-1.46489995 8.52917,1.50922005 3.6504,4.03213005 -1.6799,0.86871 -3.73247,2.61438 -4.56126,3.87928 -1.43373,2.1881498 -6.93643,30.1971498 -9.67706,49.2566898 -1.85458,12.89753 -1.63929,50.774232 0.38311,67.401882 0.90309,7.425 1.89896,17.40944 2.21304,22.18764 0.31408,4.7782 1.00258,9.82265 1.53001,11.2099 l 0.95897,2.52226 5.32913,-1.83349 c 2.93103,-1.00842 8.97556,-2.32423 13.4323,-2.92401 4.45675,-0.59978 10.84385,-2.03899 14.19357,-3.19823 9.40383,-3.25438 10.3839,-2.79807 11.89007,5.53593 4.62007,25.56385 12.15431,51.90475 16.57576,57.95144 1.0927,1.49436 2.32057,1.5506 12.18714,0.55816 12.82039,-1.28956 17.88332,-3.34761 21.47202,-8.72825 4.58825,-6.87931 9.12102,-11.28135 11.61636,-11.28135 3.476,0 3.00852,2.57039 -1.36636,7.51286 -2.0625,2.33008 -5.24351,6.09958 -7.06892,8.37667 -4.91129,6.12652 -9.49506,8.03983 -21.86494,9.12662 -5.82815,0.51205 -10.75437,1.08875 -10.94717,1.28155 -0.3644,0.36439 1.99857,4.33965 12.60305,21.2023 10.47613,16.65855 10.85236,16.82597 37.51666,16.69404 21.95117,-0.1086 23.77834,-0.29788 37.27956,-3.86174 5.09753,-1.34558 11.62253,-2.4728 14.5,-2.50494 7.97375,-0.0891 13.95143,-1.6743 16.88289,-4.47721 3.00977,-2.8778 6.25027,-2.79862 6.55136,0.16007 0.48546,4.77051 -13.06612,11.10802 -21.02173,9.83099 -1.94032,-0.31146 -7.86055,0.7659 -15.18076,2.76258 -11.79679,3.21773 -12.40641,3.27779 -36,3.54695 -20.62739,0.23533 -24.65798,0.0332 -28.68226,-1.43847 z m -243.24481,-5.7822 c -1.87681,-1.87681 -2.35706,-3.7314 -3.34828,-12.93007 l -0.75429,-7 -3.56551,0.099 c -1.96103,0.0545 -6.19568,1.30314 -9.41032,2.77485 -6.2005,2.83869 -9.87757,2.23366 -5.17023,-0.85071 7.22697,-4.73529 18.26367,-6.92947 20.61349,-4.09812 0.65047,0.78377 1.54879,5.05674 1.99626,9.4955 0.78458,7.78269 2.32471,11.65561 4.17926,10.50943 1.53893,-0.95111 0.96471,-7.26596 -1.20075,-13.20495 -3.2708,-8.97053 -3.38703,-9.54916 -1.8142,-9.03116 3.4905,1.14958 8.74173,15.32282 7.50412,20.25387 -0.78049,3.10971 -3.24515,5.55229 -5.60248,5.55229 -1.02143,0 -2.56361,-0.70647 -3.42707,-1.56993 z m 15.92948,-5.42618 c -0.3386,-0.54785 -0.78117,-5.16035 -0.9835,-10.25 -0.64168,-16.14167 3.43767,-20.50375 8.80813,-9.41862 2.6857,5.54355 2.91856,5.75244 4.6579,4.17836 1.00697,-0.9113 3.23424,-4.59486 4.94949,-8.1857 2.50618,-5.24666 3.38644,-6.30652 4.4824,-5.39696 1.51828,1.26007 6.09558,18.88995 5.14996,19.83557 -1.06063,1.06064 -2.78127,-1.49226 -4.57302,-6.78495 l -1.74633,-5.15851 -2.37372,4.24988 c -4.96564,8.8904 -10.43122,9.82788 -12.94209,2.21988 -1.20482,-3.65064 -1.24616,-3.67492 -2.14121,-1.25768 -0.50197,1.35566 -0.60729,5.72734 -0.23406,9.71484 0.5793,6.18896 0.45053,7.25 -0.87986,7.25 -0.85715,0 -1.8355,-0.44825 -2.17409,-0.99611 z M 54.019313,241.22222 c 0,-2.91509 4.53419,-6.54933 16,-12.82429 5.775,-3.16052 18.15,-10.13046 27.5,-15.48875 23.931587,-13.71471 39.998607,-21.57125 40.953767,-20.02578 0.27117,0.43877 -4.55749,3.41466 -10.73036,6.61308 -6.17288,3.19842 -16.84841,9.26136 -23.72341,13.4732 -6.874997,4.21184 -19.655157,11.44478 -28.400347,16.07321 -8.74519,4.62843 -17.18269,9.68744 -18.75,11.24224 -2.4637,2.44406 -2.84965,2.57097 -2.84965,0.93709 z m 126.544837,-3.19146 c -0.31526,-0.5101 -1.08742,-4.56366 -1.71592,-9.00792 -0.87947,-6.21891 -0.86518,-8.68964 0.062,-10.72468 0.70587,-1.54922 1.56908,-2.27063 2.08452,-1.74208 1.37534,1.41034 2.51853,22.40213 1.22,22.40213 -0.5926,0 -1.33539,-0.41735 -1.65065,-0.92745 z m 17.72509,-2.77567 c -1.22655,-0.23692 -3.18509,-1.63814 -4.35233,-3.11382 -1.71479,-2.16793 -2.01821,-3.57341 -1.58037,-7.32052 0.6851,-5.86312 3.09851,-11.70878 5.16075,-12.50014 2.52355,-0.96838 2.75501,0.12604 1.07387,5.07773 -0.86452,2.54637 -1.57185,6.42518 -1.57185,8.61957 0,3.42517 0.3863,4.13667 2.72965,5.02761 3.28658,1.24956 4.60482,3.08017 2.96756,4.12098 -0.65846,0.4186 -1.42221,0.70669 -1.69721,0.64022 -0.275,-0.0665 -1.50353,-0.31472 -2.73007,-0.55163 z M 44.137294,209.20821 c 12.398059,-15.91979 66.575196,-70.25 70.052066,-70.25 0.68171,0 -10.44017,11.40639 -24.715287,25.34754 -14.27512,13.94115 -30.17237,30.14115 -35.32723,36 -5.154855,5.85885 -9.822455,10.65246 -10.372442,10.65246 -0.549988,0 -0.386686,-0.7875 0.362893,-1.75 z M 69.571103,191.042 c -0.6273,-1.01498 20.5038,-21.12774 45.448207,-43.25801 23.11502,-20.50726 50.35749,-43.7961 51.25,-43.81223 2.42626,-0.0438 -2.22103,4.40274 -30,28.70428 -16.9125,14.79536 -38.712377,34.18417 -48.444167,43.08625 -9.7318,8.90208 -17.94612,15.77795 -18.25404,15.27971 z M 199.00858,177.70821 c -1.08973,-1.7875 -2.12288,-3.66929 -2.29589,-4.18176 -0.173,-0.51247 -2.90149,0.54833 -6.0633,2.35733 -3.16181,1.80901 -5.98472,3.05313 -6.27313,2.76471 -0.75653,-0.75653 9.8112,-7.69028 11.72077,-7.69028 0.89579,0 2.80636,2.20836 4.32576,5 2.98371,5.48205 1.77377,6.97928 -1.41421,1.75 z m -65.94894,-25.5 c 0.0552,-1.02668 13.52527,-11.63926 24.45967,-19.2709 4.95,-3.45484 11.37395,-8.07704 14.27543,-10.27155 2.90149,-2.19451 5.56864,-3.69681 5.927,-3.33845 0.77925,0.77924 0.26818,1.18189 -15.70243,12.3711 -6.875,4.81671 -15.96756,11.57064 -20.2057,15.00873 -7.64319,6.20036 -8.83174,6.94726 -8.75397,5.50107 z m 16.95967,-3.70506 c 0,-0.25028 3.7125,-3.24848 8.25,-6.66265 4.5375,-3.41418 8.8125,-6.63951 9.5,-7.16739 0.75975,-0.58336 1.25,-0.59261 1.25,-0.0236 0,0.51491 -3.97199,3.94501 -8.82664,7.62244 -8.17324,6.1913 -10.17336,7.41637 -10.17336,6.2312 z m -18.83333,-2.47188 c 0.36205,-1.00679 18.83332,-17.65529 28.09558,-25.32306 3.15576,-2.6125 8.17326,-6.79593 11.14999,-9.2965 2.97674,-2.50058 5.66817,-4.13241 5.98096,-3.6263 0.3128,0.50611 -3.54178,4.46453 -8.56572,8.7965 -5.02394,4.33196 -14.97166,12.9388 -22.10603,19.1263 -11.86632,10.29142 -15.45998,12.84024 -14.55478,10.32306 z m 182.00475,-13.36651 c -1.94207,-2.34006 -4.19306,-9.70304 -6.63605,-21.70655 -3.49695,-17.182132 -7.14355,-48.000002 -5.67972,-48.000002 0.39113,0 1.50835,7.17037 2.4827,15.93415 3.90716,35.142872 11.53172,61.886102 14.21772,49.868822 2.01566,-9.01808 -1.26722,-40.071722 -5.59405,-52.915712 -2.48044,-7.36307 -7.21104,-17.614 -9.35083,-20.26269 -2.67397,-3.3099 -4.61119,-1.32737 -4.61119,4.71904 0,6.60188 -0.93716,11.65639 -2.16121,11.65639 -0.5055,0 -0.78378,-4.33625 -0.625,-9.73903 0.28166,-9.58405 0.33112,-9.76052 3.10875,-11.08934 2.49622,-1.19419 3.05789,-1.13765 4.85809,0.48903 3.43964,3.10809 10.18089,18.1603 12.692,28.33934 4.46538,18.10085 6.07454,44.428512 3.08585,50.487772 -1.65587,3.35708 -4.07317,4.28389 -5.78706,2.21878 z M 148.37952,109.20821 c -1.50787,-2.0625 -3.80367,-5.2125 -5.10179,-7 -1.29811,-1.7875 -2.9572,-3.250002 -3.68687,-3.250002 -1.5758,0 -4.10686,-2.79802 -3.2795,-3.62539 0.31739,-0.31738 2.42667,0.23899 4.68731,1.23638 2.92709,1.29143 5.00199,3.26359 7.20815,6.851222 1.70384,2.77079 3.76043,6.05029 4.5702,7.28779 2.66385,4.07093 -1.31753,2.71288 -4.3975,-1.5 z M 321.62789,84.937968 c -2.11979,-5.29786 -2.03535,-6.50425 0.62897,-8.98645 3.22778,-3.00713 7.92298,-2.36129 9.19005,1.26412 1.40513,4.02046 -2.41301,11.74257 -5.80602,11.74257 -1.87376,0 -2.75944,-0.88728 -4.013,-4.02024 z M 318.221,68.853128 c 0.2026,-0.6078 3.5026,-2.10929 7.33334,-3.33664 12.88327,-4.12775 22.17918,-9.33109 56.46497,-31.60596 21.73847,-14.1231 37.33322,-22.75356 46.83676,-25.9204298 6.94962,-2.31583 9.61644,-1.99675 12.34932,1.47754 0.96912,1.2320398 3.76441,2.7442798 6.21176,3.3605298 2.44734,0.61624 5.15901,1.82975 6.02594,2.69667 2.04485,2.04485 2.05645,9.30273 0.0195,12.21086 -1.77241,2.53047 -5.61305,2.92782 -7.40695,0.76631 -1.62613,-1.9594 -0.47128,-3.5438 2.58305,-3.5438 2.27044,0 2.4727,-0.33877 2.19099,-3.66973 -0.28686,-3.39177 -0.66503,-3.78943 -4.99263,-5.25 -2.57524,-0.86915 -5.81257,-2.64757 -7.19408,-3.95205 -2.05766,-1.94294 -3.1516,-2.2517598 -6.05023,-1.70798 -5.93132,1.11273 -27.46826,12.80928 -46.93934,25.49241 -31.49,20.51206 -42.76071,26.96624 -55.39383,31.72134 -6.65513,2.50498 -12.66301,3.13425 -12.03857,1.26093 z"
     style="fill:#000000" />
</svg>
